<svg width="200" height="200" xmlns="http://www.w3.org/2000/svg"><defs><style/></defs><path d="M114.442 26.4a16.25 16.25 0 0 1 4.308 11.025v125.15a16.25 16.25 0 0 1-27.27 11.942l-34.513-31.854a3.75 3.75 0 0 0-2.542-.996H37.5a25 25 0 0 1-25-25V83.333a25 25 0 0 1 25-25h16.925a3.75 3.75 0 0 0 2.542-.995l34.512-31.855a16.25 16.25 0 0 1 22.959.917zm-14.488 8.267L65.446 66.525a16.25 16.25 0 0 1-11.021 4.308H37.5a12.5 12.5 0 0 0-12.5 12.5v33.334a12.5 12.5 0 0 0 12.5 12.5h16.925a16.25 16.25 0 0 1 11.02 4.308l34.51 31.858a3.75 3.75 0 0 0 6.295-2.758V37.425a3.75 3.75 0 0 0-6.292-2.758zm36.275 35.916a6.25 6.25 0 0 1 8.838 0l20.583 20.58 20.58-20.584a6.25 6.25 0 1 1 8.837 8.842L174.487 100l20.584 20.583a6.25 6.25 0 1 1-8.842 8.834l-20.583-20.58-20.58 20.584a6.25 6.25 0 1 1-8.837-8.842L156.812 100 136.23 79.417a6.25 6.25 0 0 1 0-8.834z"/></svg>