<svg width="200" height="200" xmlns="http://www.w3.org/2000/svg"><defs><style/></defs><path d="M133.93 25.02l1.487-.02c28.766 0 52.083 23.317 52.083 52.083 0 38.292-26.25 73.475-77.508 105.713a18.767 18.767 0 0 1-19.984-.008C38.75 150.561 12.5 115.374 12.5 77.082 12.5 48.317 35.817 25 64.583 25a51.958 51.958 0 0 1 34.38 12.954l1.033.933 1.041-.933a51.95 51.95 0 0 1 32.892-12.933zm36.903 52.063a35.417 35.417 0 0 0-64.091-20.791 8.333 8.333 0 0 1-13.484 0 35.417 35.417 0 0 0-64.091 20.791c0 31.525 22.82 62.113 69.72 91.6a2.104 2.104 0 0 0 2.238 0c46.887-29.483 69.708-60.07 69.708-91.6z"/></svg>