<svg width="200" height="200" xmlns="http://www.w3.org/2000/svg"><defs><style/></defs><path d="M131.917 8.45l.375.175a2.083 2.083 0 0 1 .754 2.833l-8.908 15.575a50.008 50.008 0 0 1 25.691 39.634H50.167A50.008 50.008 0 0 1 75.842 27.05l-8.917-15.583a2.083 2.083 0 0 1 .458-2.621l.321-.225a2.07 2.07 0 0 1 2.617.442l.225.316 9.037 15.8A49.825 49.825 0 0 1 100 20.833a49.9 49.9 0 0 1 20.4 4.334l9.03-15.792a2.07 2.07 0 0 1 2.487-.925zM81.25 50a6.25 6.25 0 1 0 0-12.5 6.25 6.25 0 0 0 0 12.5zm37.5 0a6.25 6.25 0 1 0 0-12.5 6.25 6.25 0 0 0 0 12.5zm-77.083 77.083a10.417 10.417 0 0 1-20.834 0V81.25a10.417 10.417 0 0 1 20.834 0v45.833zm137.5 0a10.417 10.417 0 0 1-20.834 0V81.25a10.417 10.417 0 0 1 20.834 0v45.833zm-87.5 54.167a10.417 10.417 0 0 1-20.834 0v-22.92l-8.333.003a12.5 12.5 0 0 1-12.5-12.5V75h100v70.833a12.5 12.5 0 0 1-12.5 12.5l-8.333-.004v22.921a10.417 10.417 0 0 1-20.834 0v-22.92H91.667v22.92z"/></svg>