<svg width="200" height="200" xmlns="http://www.w3.org/2000/svg"><defs><style/></defs><path d="M168.158 71.546c-1.041.804-19.354 11.125-19.354 34.07 0 26.542 23.304 35.93 24 36.163-.104.571-3.7 12.858-12.283 25.375-7.654 11.017-15.65 22.017-27.813 22.017-12.158 0-15.291-7.063-29.329-7.063-13.679 0-18.541 7.292-29.666 7.292S54.825 179.208 45.9 166.692c-10.337-14.7-18.692-37.542-18.692-59.217 0-34.767 22.609-53.208 44.855-53.208 11.825 0 21.679 7.766 29.1 7.766 7.062 0 18.083-8.229 31.529-8.229 5.096 0 23.412.467 35.466 17.742zm-41.85-32.459c5.563-6.6 9.496-15.758 9.496-24.916a17.167 17.167 0 0 0-.341-3.592c-9.05.338-19.813 6.025-26.309 13.554-5.096 5.796-9.854 14.954-9.854 24.234 0 1.395.233 2.791.342 3.237.57.108 1.5.233 2.433.233 8.117 0 18.333-5.437 24.233-12.75z"/></svg>