<svg width="200" height="200" xmlns="http://www.w3.org/2000/svg"><defs><style/></defs><path d="M141.667 143.75c-9.288 0-16.704-5.28-20.721-13.083l-.517-1.05-.416.52c-7.876 9.459-18.063 14.25-29.005 13.459l-1.029-.088c-18.708-1.941-31.833-19.737-29.529-42.066C63.133 75.425 79.925 58.333 100 58.333c11.858 0 20.642 5.975 26.012 15.042l.371.654 1.884-8.679a6.25 6.25 0 0 1 6.829-4.892l.596.1a6.25 6.25 0 0 1 4.791 7.425 4868.595 4868.595 0 0 1-7.3 33.375 88.256 88.256 0 0 1-1.487 5.792l-.334 1.092-.304 1.733-.375 1.796c-2.375 10.696 3.18 19.479 10.984 19.479 12.758 0 25.25-12.842 27.112-31.858 3.7-37.813-28.712-70.225-68.779-70.225-39.133 0-70.833 31.7-70.833 70.833s31.7 70.833 70.833 70.833c16.512 0 30.254-3.346 41.333-9.958a6.252 6.252 0 0 1 6.409 10.737C134.6 179.454 118.65 183.333 100 183.333c-46.033 0-83.333-37.3-83.333-83.333S53.967 16.667 100 16.667c47.183 0 85.667 38.483 81.22 83.941-2.458 25.109-20 43.142-39.553 43.142zM91.27 131.075c10.954 1.137 21.541-7.08 27.425-24.238l.446-1.358.104-.687c2.4-17.659-4.93-33.334-18.43-33.942l-.816-.017c-13.32 0-25.058 11.946-27.117 31.892-1.62 15.708 6.813 27.15 18.388 28.35z"/></svg>