<svg width="200" height="200" xmlns="http://www.w3.org/2000/svg"><defs><style/></defs><path d="M141.667 145.833c-9.325 0-16.896-4.858-21.438-12.196l-.216-.358-.571.617c-7.967 8.358-17.925 12.558-28.604 11.779l-1.071-.096c-19.905-2.062-33.805-20.917-31.392-44.35C61.167 74.196 78.805 56.25 100 56.25c10.93 0 19.383 4.692 25.162 12.104l.246.33.821-3.772a8.333 8.333 0 0 1 9.288-6.5l.612.109a8.333 8.333 0 0 1 6.392 9.9 5014.032 5014.032 0 0 1-7.304 33.387 90.517 90.517 0 0 1-1.513 5.888l-.3.991-.312 1.742-.375 1.792c-2.109 9.504 2.604 16.946 8.95 16.946 11.625 0 23.279-11.98 25.041-29.98C170.28 62.65 138.875 31.25 100 31.25c-37.98 0-68.75 30.77-68.75 68.75s30.77 68.75 68.75 68.75c16.154 0 29.533-3.254 40.27-9.663a8.333 8.333 0 0 1 8.538 14.313c-13.483 8.046-29.8 12.017-48.808 12.017-47.188 0-85.417-38.23-85.417-85.417S52.813 14.583 100 14.583c48.37 0 87.867 39.5 83.292 86.23-2.555 26.124-20.938 45.02-41.625 45.02zM91.483 129c9.867 1.025 19.592-6.48 25.167-22.613l.458-1.374.096-.655c2.188-16.5-4.516-30.833-16.437-31.42l-.767-.021c-12.196 0-23.092 11.091-25.042 30.02-1.508 14.609 6.142 24.988 16.525 26.067z"/></svg>