<svg width="200" height="200" xmlns="http://www.w3.org/2000/svg"><defs><style/></defs><path d="M58.696 89.383L34.813 48.1c28.645-36 81.104-41.954 117.112-13.308a81.696 81.696 0 0 1 19.792 22.758h-68.004l-3.721-.146c-19.417 0-36.384 13.167-41.292 31.983zm52.679 51.7l-23.883 41.284c-45.534-6.917-76.784-49.392-69.867-94.917a82.375 82.375 0 0 1 9.75-28.267l34 58.917a42.57 42.57 0 0 0 50 22.983zM129.829 69.6h47.767c16.742 42.917-4.388 91.27-47.321 108.004a84.208 84.208 0 0 1-29.317 5.73l34.08-58.988c11.904-17.034 9.67-40.242-5.209-54.75zm-60.12 30.42a30.258 30.258 0 0 1 30.283-30.274 30.258 30.258 0 0 1 30.283 30.275 30.258 30.258 0 0 1-30.283 30.275 30.258 30.258 0 0 1-30.284-30.275z"/></svg>