<svg width="200" height="200" xmlns="http://www.w3.org/2000/svg"><defs><style/></defs><path d="M187.042 113.32H75.092v.126a34.058 34.058 0 0 0 4.125 16.241 34.908 34.908 0 0 0 30.616 17.98 34.908 34.908 0 0 0 30.625-17.98h42.792c-10.667 30.675-40.112 52.7-74.854 52.7-12.9 0-25.083-3.041-35.838-8.441-23.137 11.162-43.279 13.008-54.395 2.066C3.538 161.608 17.129 106.18 60.22 63.754c1.458-1.437 10.129-9.925 11.617-11.296C55.492 60.2 43.258 70.83 31.629 85.492c8.6-33.846 39.696-58.971 76.767-58.971 2.033 0 4.05.079 6.05.225 27.004-11.78 50.892-13.192 59.8-4.459 9.362 9.28 9.608 24.817 2.617 43.117A76.612 76.612 0 0 1 187.5 104.43c0 3.03-.125 5.996-.458 8.892zm-13.184-82.39c-6.725-6.626-19.912-5.718-36.125 1.128a79.158 79.158 0 0 1 36.846 29.704c5.158-13.787 5.308-24.833-.72-30.833zm-65.462 30.903c-17.734 0-32.263 13.73-33.242 30.934h66.48c-.984-17.209-15.505-30.934-33.238-30.934zm-74.542 68.78c-9.917 19.17-12.237 35.083-4.542 42.666 7.025 6.909 21.071 5.604 38.242-2.066-15.5-9.225-27.529-23.542-33.7-40.6z"/></svg>