<svg width="200" height="200" xmlns="http://www.w3.org/2000/svg"><defs><style/></defs><path d="M133.208 136.875l29.542 29.542a6.25 6.25 0 0 1-8.833 8.833l-51.967-51.958q-2.725-.375-5.525-.375-8.446 0-16.158 3.4-7.475 3.291-13.259 9.32a6.25 6.25 0 1 1-9.02-8.654q7.5-7.812 17.237-12.108 6.925-3.05 14.292-4.012L72.9 94.242q-1.658.637-3.296 1.358-13.22 5.83-23.429 16.467a6.25 6.25 0 1 1-9.02-8.654Q48.612 91.47 63.362 84.704L48.725 70.071Q35.908 77.488 25.338 88.5a6.25 6.25 0 1 1-9.017-8.658q10.62-11.067 23.292-18.888L20.575 41.921a6.252 6.252 0 0 1 8.842-8.842L51.07 54.738l9.462 9.458 15.788 15.792 10.5 10.5 21.212 21.212 25.175 25.17zM68.483 48.15l10.305 10.3q10.366-2.2 21.212-2.2 21.458 0 41.058 8.637 18.959 8.355 33.592 23.605l.008.008a6.25 6.25 0 1 0 9.017-8.658l-.017-.017Q167.313 62.8 146.1 53.45q-22.004-9.7-46.1-9.7-16.233 0-31.52 4.404zm28.934 28.933l13.65 13.65q8.083 1.484 15.754 4.863 13.22 5.829 23.433 16.47a6.25 6.25 0 0 0 9.017-8.658q-11.925-12.425-27.408-19.25-16.063-7.079-33.65-7.079h-.796zm10.829 70.654c1.858 1.33 1.846 4.067.25 5.726l-9.78 10.195a3.962 3.962 0 0 1-5.766 0l-9.783-10.195c-1.592-1.659-1.604-4.396.254-5.725a21.283 21.283 0 0 1 24.82 0z" fill-rule="evenodd"/></svg>