<svg width="200" height="200" xmlns="http://www.w3.org/2000/svg"><defs><style/></defs><path d="M155.208 49.337a25.012 25.012 0 0 1 16.65 22.642l.017.938v83.333a25 25 0 0 1-25 25h-93.75a25 25 0 0 1-25-25V38.542c0-12.084 9.792-21.875 21.875-21.875h80.208a25 25 0 0 1 25 25v7.67zM40.625 38.542A9.375 9.375 0 0 0 50 47.917h92.708v-6.25a12.5 12.5 0 0 0-11.766-12.48l-.734-.02H50a9.375 9.375 0 0 0-9.375 9.375zm12.5 130.208h93.75a12.5 12.5 0 0 0 12.5-12.5V72.917a12.5 12.5 0 0 0-12.442-12.5H50a21.792 21.792 0 0 1-9.375-2.104v97.937a12.5 12.5 0 0 0 12.5 12.5zm79.167-85.417a6.25 6.25 0 0 1 0 12.5H98.958a6.25 6.25 0 0 1 0-12.5h33.334z"/></svg>