<svg width="200" height="200" xmlns="http://www.w3.org/2000/svg"><defs><style/></defs><path d="M27.083 154.167V45.833c0-6.904 2.442-12.795 7.321-17.679 4.888-4.879 10.775-7.32 17.68-7.32h95.833c6.904 0 12.795 2.441 17.679 7.32 4.879 4.888 7.32 10.775 7.32 17.68v108.333c0 6.904-2.441 12.796-7.32 17.679-4.888 4.879-10.775 7.32-17.68 7.32H52.084c-6.904 0-12.796-2.441-17.679-7.32-4.879-4.888-7.32-10.775-7.32-17.68zM137.5 33.333h-20.833v39.584l6.666-5a6.25 6.25 0 0 1 7.5 0l6.667 5V33.333zm-64.583 0v133.334h75a12.042 12.042 0 0 0 8.837-3.663 12.042 12.042 0 0 0 3.663-8.837V45.833a12.042 12.042 0 0 0-3.663-8.837A11.983 11.983 0 0 0 150 33.492v43.591c0 2.063-.554 3.946-1.658 5.655a10.258 10.258 0 0 1-4.1 3.666c-1.709.85-3.5 1.209-5.392 1.08a10.196 10.196 0 0 1-5.517-2.067l-6.25-4.688-6.25 4.688a10.196 10.196 0 0 1-5.516 2.066 10.262 10.262 0 0 1-5.392-1.083 10.258 10.258 0 0 1-4.1-3.667 10.192 10.192 0 0 1-1.658-5.65v-43.75h-31.25zm-12.5 0h-8.334a12.042 12.042 0 0 0-8.837 3.663 12.042 12.042 0 0 0-3.663 8.837v108.334c0 3.45 1.221 6.396 3.663 8.837a12.042 12.042 0 0 0 8.837 3.663h8.334V33.333z"/></svg>