<svg width="200" height="200" xmlns="http://www.w3.org/2000/svg"><defs><style/></defs><path d="M136.458 27.083c9.059 0 18.104 1.43 27.134 4.292 4.833 1.525 8.679 4.446 11.55 8.767 2.683 4.037 4.025 8.562 4.025 13.57v103.225c0 4.488-1.896 7.996-5.684 10.521-3.629 2.417-7.504 2.921-11.625 1.5-8.483-2.916-16.95-4.375-25.4-4.375-11.233 0-22.508 2.584-33.829 7.75l-.029.017a6.233 6.233 0 0 1-5.317-.054c-11.291-5.142-22.533-7.713-33.741-7.713-8.45 0-16.917 1.459-25.4 4.375-4.121 1.421-7.996.917-11.625-1.5-3.792-2.525-5.684-6.033-5.684-10.52V53.713c0-5.009 1.342-9.534 4.025-13.571 2.871-4.321 6.721-7.242 11.55-8.771a89.458 89.458 0 0 1 27.134-4.288c12.187 0 24.341 2.584 36.458 7.75 12.117-5.166 24.27-7.75 36.458-7.75zM106.25 45.771v111.625c10.042-3.542 20.117-5.313 30.208-5.313 9.842 0 19.667 1.688 29.467 5.059a.68.68 0 0 0 .625-.084c.08-.054.117-.091.117-.12V53.713c0-2.492-.646-4.709-1.938-6.655a9.058 9.058 0 0 0-4.908-3.77 77.042 77.042 0 0 0-23.363-3.705c-10.037 0-20.108 2.063-30.208 6.188zm-12.5 0c-10.104-4.125-20.17-6.188-30.208-6.188a77.042 77.042 0 0 0-23.363 3.709c-2.029.637-3.667 1.895-4.908 3.766-1.292 1.942-1.938 4.163-1.938 6.654v103.225c0 .03.042.067.113.117a.68.68 0 0 0 .625.088c9.808-3.375 19.629-5.059 29.47-5.059 10.092 0 20.167 1.771 30.209 5.317V45.77z"/></svg>