<svg width="200" height="200" xmlns="http://www.w3.org/2000/svg"><defs><style/></defs><path d="M95.833 47.917v18.75a29.167 29.167 0 0 1-29.166 29.166h-18.75A29.167 29.167 0 0 1 18.75 66.667v-18.75A29.167 29.167 0 0 1 47.917 18.75h18.75a29.167 29.167 0 0 1 29.166 29.167zm85.417 0v18.75a29.167 29.167 0 0 1-29.167 29.166h-18.75a29.167 29.167 0 0 1-29.166-29.166v-18.75a29.167 29.167 0 0 1 29.166-29.167h18.75a29.167 29.167 0 0 1 29.167 29.167zM47.917 39.583a8.333 8.333 0 0 0-8.334 8.334v18.75A8.333 8.333 0 0 0 47.917 75h18.75A8.333 8.333 0 0 0 75 66.667v-18.75a8.333 8.333 0 0 0-8.333-8.334h-18.75zm85.416 0A8.333 8.333 0 0 0 125 47.917v18.75A8.333 8.333 0 0 0 133.333 75h18.75a8.333 8.333 0 0 0 8.334-8.333v-18.75a8.333 8.333 0 0 0-8.334-8.334h-18.75zm-37.5 93.75v18.75a29.167 29.167 0 0 1-29.166 29.167h-18.75a29.167 29.167 0 0 1-29.167-29.167v-18.75a29.167 29.167 0 0 1 29.167-29.166h18.75a29.167 29.167 0 0 1 29.166 29.166zm30.209 35.417a10.417 10.417 0 0 1-20.834 0v-52.083a10.417 10.417 0 0 1 20.834 0v52.083zm26.041-40.625a10.417 10.417 0 0 1-20.833 0v-11.458a10.417 10.417 0 0 1 20.833 0v11.458zm25.834 40.667a10.417 10.417 0 0 1-20.834-.084l.209-52.083a10.417 10.417 0 0 1 20.833.083l-.208 52.084zM47.917 125a8.333 8.333 0 0 0-8.334 8.333v18.75a8.333 8.333 0 0 0 8.334 8.334h18.75A8.333 8.333 0 0 0 75 152.083v-18.75A8.333 8.333 0 0 0 66.667 125h-18.75zm104.166 43.75a10.417 10.417 0 0 1-20.833 0v-11.458a10.417 10.417 0 0 1 20.833 0v11.458z"/></svg>