<svg width="200" height="200" xmlns="http://www.w3.org/2000/svg"><defs><style/></defs><path d="M93.75 47.917V68.75a25 25 0 0 1-25 25H47.917a25 25 0 0 1-25-25V47.917a25 25 0 0 1 25-25H68.75a25 25 0 0 1 25 25zm83.333 0V68.75a25 25 0 0 1-25 25H131.25a25 25 0 0 1-25-25V47.917a25 25 0 0 1 25-25h20.833a25 25 0 0 1 25 25zm-129.166-12.5a12.5 12.5 0 0 0-12.5 12.5V68.75a12.5 12.5 0 0 0 12.5 12.5H68.75a12.5 12.5 0 0 0 12.5-12.5V47.917a12.5 12.5 0 0 0-12.5-12.5H47.917zm83.333 0a12.5 12.5 0 0 0-12.5 12.5V68.75a12.5 12.5 0 0 0 12.5 12.5h20.833a12.5 12.5 0 0 0 12.5-12.5V47.917a12.5 12.5 0 0 0-12.5-12.5H131.25zm-37.5 95.833v20.833a25 25 0 0 1-25 25H47.917a25 25 0 0 1-25-25V131.25a25 25 0 0 1 25-25H68.75a25 25 0 0 1 25 25zm29.167 37.5a6.25 6.25 0 0 1-12.5 0v-54.167a6.25 6.25 0 0 1 12.5 0v54.167zm25-41.667a6.25 6.25 0 0 1-12.5 0v-12.5a6.25 6.25 0 0 1 12.5 0v12.5zm25 41.667a6.25 6.25 0 0 1-12.5 0v-54.167a6.25 6.25 0 0 1 12.5 0v54.167zm-125-50a12.5 12.5 0 0 0-12.5 12.5v20.833a12.5 12.5 0 0 0 12.5 12.5H68.75a12.5 12.5 0 0 0 12.5-12.5V131.25a12.5 12.5 0 0 0-12.5-12.5H47.917zm100 50a6.25 6.25 0 0 1-12.5 0v-12.5a6.25 6.25 0 0 1 12.5 0v12.5z"/></svg>