<svg width="200" height="200" xmlns="http://www.w3.org/2000/svg"><defs><style/></defs><path d="M95.833 47.917V68.75A27.083 27.083 0 0 1 68.75 95.833H47.917A27.083 27.083 0 0 1 20.833 68.75V47.917a27.083 27.083 0 0 1 27.084-27.084H68.75a27.083 27.083 0 0 1 27.083 27.084zm83.334 0V68.75a27.083 27.083 0 0 1-27.084 27.083H131.25a27.083 27.083 0 0 1-27.083-27.083V47.917a27.083 27.083 0 0 1 27.083-27.084h20.833a27.083 27.083 0 0 1 27.084 27.084zM47.917 37.5A10.417 10.417 0 0 0 37.5 47.917V68.75a10.417 10.417 0 0 0 10.417 10.417H68.75A10.417 10.417 0 0 0 79.167 68.75V47.917A10.417 10.417 0 0 0 68.75 37.5H47.917zm83.333 0a10.417 10.417 0 0 0-10.417 10.417V68.75a10.417 10.417 0 0 0 10.417 10.417h20.833A10.417 10.417 0 0 0 162.5 68.75V47.917A10.417 10.417 0 0 0 152.083 37.5H131.25zm-35.417 93.75v20.833a27.083 27.083 0 0 1-27.083 27.084H47.917a27.083 27.083 0 0 1-27.084-27.084V131.25a27.083 27.083 0 0 1 27.084-27.083H68.75a27.083 27.083 0 0 1 27.083 27.083zm28.125 37.5a8.333 8.333 0 1 1-16.666 0v-54.167a8.333 8.333 0 1 1 16.666 0v54.167zM150 127.083a8.333 8.333 0 1 1-16.667 0v-12.5a8.333 8.333 0 1 1 16.667 0v12.5zm26.042 41.667a8.333 8.333 0 1 1-16.667 0v-54.167a8.333 8.333 0 1 1 16.667 0v54.167zM47.917 120.833A10.417 10.417 0 0 0 37.5 131.25v20.833A10.417 10.417 0 0 0 47.917 162.5H68.75a10.417 10.417 0 0 0 10.417-10.417V131.25a10.417 10.417 0 0 0-10.417-10.417H47.917zM150 168.75a8.333 8.333 0 1 1-16.667 0v-12.5a8.333 8.333 0 1 1 16.667 0v12.5z"/></svg>