<svg width="200" height="200" xmlns="http://www.w3.org/2000/svg"><defs><style/></defs><path d="M1.625 129.217c0-8.471 2.55-16.088 7.642-22.854 3.979-5.292 8.887-9.225 14.725-11.813a64.142 64.142 0 0 1 5.087-26.346A64.317 64.317 0 0 1 42.975 47.6a64.32 64.32 0 0 1 20.608-13.896 64.142 64.142 0 0 1 25.238-5.096c15.117 0 28.583 4.709 40.408 14.13 10.28 8.191 17.363 18.387 21.254 30.595.313-.008.625-.008.938-.008 6.367 0 12.458 1.23 18.279 3.692a46.57 46.57 0 0 1 14.92 10.058 46.575 46.575 0 0 1 10.063 14.92c2.459 5.822 3.692 11.917 3.692 18.28 0 6.362-1.233 12.458-3.692 18.275a46.575 46.575 0 0 1-10.062 14.925 46.58 46.58 0 0 1-14.917 10.058A46.45 46.45 0 0 1 149.8 167.2a6.68 6.68 0 0 1-.613.025H41.871c-.221 0-.442-.012-.658-.033a38.242 38.242 0 0 1-16.375-2.959 37.7 37.7 0 0 1-12.08-8.141 37.696 37.696 0 0 1-8.141-12.08 37.6 37.6 0 0 1-2.992-14.791zM42.9 153.813h105.375c.425-.059.858-.08 1.283-.055.625.034 1.242.055 1.863.055 9.262 0 17.167-3.275 23.717-9.825 6.545-6.546 9.82-14.455 9.82-23.713 0-9.262-3.275-17.167-9.82-23.717-6.55-6.545-14.455-9.82-23.717-9.82-1.658 0-3.304.125-4.946.366a6.708 6.708 0 0 1-7.53-5.137c-2.674-11.688-8.7-21.267-18.074-28.738-9.375-7.47-20.058-11.208-32.05-11.208-6.975 0-13.65 1.346-20.013 4.042a51.03 51.03 0 0 0-16.35 11.02 51.025 51.025 0 0 0-11.02 16.346 50.858 50.858 0 0 0-4.042 20.017c0 1.683.083 3.362.25 5.037a6.708 6.708 0 0 1-4.813 7.1 23.98 23.98 0 0 0-12.845 8.846 23.975 23.975 0 0 0-4.942 14.792c0 6.791 2.4 12.583 7.204 17.387 4.8 4.8 10.596 7.204 17.388 7.204.587 0 1.175-.02 1.758-.062a6.808 6.808 0 0 1 1.508.062z"/></svg>