<svg width="200" height="200" xmlns="http://www.w3.org/2000/svg"><defs><style/></defs><path d="M23.992 94.542a64.142 64.142 0 0 1 5.087-26.334A64.317 64.317 0 0 1 42.975 47.6a64.32 64.32 0 0 1 20.608-13.896 64.142 64.142 0 0 1 25.238-5.096c15.275 0 28.842 4.792 40.708 14.367a64.683 64.683 0 0 1 14.188 15.95 64.13 64.13 0 0 1 6.762 14.408c.317-.008.63-.008.942-.008 6.366 0 12.458 1.23 18.279 3.692a46.57 46.57 0 0 1 14.92 10.058 46.575 46.575 0 0 1 10.063 14.92c2.459 5.822 3.692 11.917 3.692 18.28 0 6.362-1.233 12.458-3.692 18.275a46.575 46.575 0 0 1-10.062 14.925 46.58 46.58 0 0 1-14.917 10.058 46.45 46.45 0 0 1-19.908 3.667 6.754 6.754 0 0 1-.609.025H41.875a6.625 6.625 0 0 1-.654-.033 37.604 37.604 0 0 1-16.375-2.959 37.7 37.7 0 0 1-12.084-8.141 37.696 37.696 0 0 1-8.141-12.08 37.6 37.6 0 0 1-2.992-14.791c0-8.58 2.6-16.267 7.792-23.063 3.97-5.196 8.829-9.066 14.575-11.616z"/></svg>