<svg width="200" height="200" xmlns="http://www.w3.org/2000/svg"><defs><style/></defs><path d="M147.917 62.596c0 18.646-7.413 34.987-18.459 45.575 32.625 9.096 55.959 32.25 55.954 54.666l-.041 1.021a20.833 20.833 0 0 1-20.788 19.475H35.417c-11.504 0-20.834-9.329-20.834-21.041l.021-.838c.859-21.975 23.884-44.396 55.925-53.296-11.041-10.587-18.446-26.925-18.446-45.562C52.083 34.683 72 12.5 100 12.5s47.917 22.183 47.917 50.096zm-75 0C72.917 84.254 86.9 100 100 100s27.083-15.75 27.083-37.404c0-16.875-11.12-29.263-27.083-29.263S72.917 45.721 72.917 62.596zm91.666 99.904c0-5.308-5.612-14.467-15.25-22C136.917 130.8 119.975 125 100 125c-19.75 0-36.525 5.667-48.917 15.18-9.679 7.428-15.445 16.528-15.654 21.887l-.012.433h129.166z"/></svg>