<svg width="200" height="200" xmlns="http://www.w3.org/2000/svg"><defs><style/></defs><path d="M65.625 25c10.833 0 19.775 3.72 26.833 11.167 6.917 7.283 10.375 16.4 10.375 27.345 0 6.313-1.012 12.35-3.041 18.113a48.358 48.358 0 0 1-8.109 14.62c-3.425 4.205-7.316 7.5-11.679 9.884l-.125.067c-4.646 2.516-9.396 3.775-14.254 3.775a27.983 27.983 0 0 1-6.508-.771 30.15 30.15 0 0 1-4.246-1.354 33.942 33.942 0 0 1-3.504-1.65c-4.417-2.392-8.346-5.709-11.8-9.95a48.358 48.358 0 0 1-8.109-14.621 54.2 54.2 0 0 1-3.041-18.113c0-10.945 3.458-20.062 10.375-27.35C45.846 28.722 54.792 25 65.625 25zm81.267 29c8.083 0 14.762 2.783 20.05 8.346 5.162 5.433 7.741 12.208 7.741 20.325 0 9.279-2.729 17.27-8.195 23.975a29.27 29.27 0 0 1-8.784 7.387c-3.512 1.9-7.117 2.85-10.812 2.85-3.696 0-7.3-.95-10.813-2.85a29.27 29.27 0 0 1-8.783-7.387c-5.463-6.7-8.196-14.696-8.196-23.975 0-8.117 2.583-14.892 7.742-20.325 5.287-5.563 11.97-8.346 20.05-8.346zM45.775 116.525c6.392 3.462 13.008 5.196 19.85 5.196 6.842 0 13.458-1.734 19.854-5.196a48.783 48.783 0 0 0 7.971-5.404 66.28 66.28 0 0 1 6.833 4.037 63.104 63.104 0 0 1 12.467 10.904 57.13 57.13 0 0 1 9.667 15.567c4.45 10.642 4.887 19.575 1.304 26.804a18.917 18.917 0 0 1-7.88 8.309c-3.237 1.812-6.891 2.716-10.962 2.716H26.404c-4.07 0-7.725-.904-10.958-2.716a18.942 18.942 0 0 1-7.883-8.309c-3.584-7.229-3.146-16.166 1.304-26.804 4.5-10.75 11.875-19.575 22.133-26.47a66.625 66.625 0 0 1 6.813-4.026 48.75 48.75 0 0 0 7.958 5.392zm125.737 59.6h-37.75c.409-.692.792-1.408 1.159-2.142 5.27-10.637 4.946-23.029-.975-37.179a69.667 69.667 0 0 0-9.917-16.754 39.49 39.49 0 0 0 6.442 4.358c5.262 2.842 10.737 4.267 16.417 4.267 5.687 0 11.162-1.425 16.425-4.267a39.692 39.692 0 0 0 8.058-5.775 57.144 57.144 0 0 1 4.808 3.305c8.584 6.545 14.238 14.274 16.975 23.187 2.804 9.142 2.134 16.608-2.012 22.4-4.109 5.733-10.65 8.6-19.63 8.6z"/></svg>