<svg width="200" height="200" xmlns="http://www.w3.org/2000/svg"><defs><style/></defs><path d="M143.75 62.596c0 20.942-9.92 38.654-23.525 47.675 35.146 6.808 61.025 30.437 61.02 52.429l-.033.887a16.667 16.667 0 0 1-16.629 15.58H35.417c-9.209 0-16.667-7.459-16.667-16.792l.017-.758c.85-21.75 26.4-44.675 61-51.355-13.6-9.02-23.517-26.729-23.517-47.666 0-25.709 18.158-45.93 43.75-45.93s43.75 20.226 43.75 45.93zm-75 0c0 23.854 15.73 41.57 31.25 41.57s31.25-17.716 31.25-41.57c0-19.084-12.88-33.43-31.25-33.43s-31.25 14.346-31.25 33.43zm-20.204 74.279c-10.58 8.12-17.017 18.28-17.284 25.108l-.012.517a4.167 4.167 0 0 0 4.167 4.167h129.166c2.2 0 4.017-1.709 4.146-3.684l.021-.483c0-6.763-6.292-17.03-16.854-25.283-13.15-10.271-30.992-16.384-51.896-16.384-20.667 0-38.333 5.971-51.454 16.042z"/></svg>