<svg width="200" height="200" xmlns="http://www.w3.org/2000/svg"><defs><style/></defs><path d="M100 39.583a6.25 6.25 0 0 1-12.5 0V22.917a6.25 6.25 0 0 1 12.5 0v16.666zm-60.75-.345a6.25 6.25 0 0 1 8.833 0l11.792 11.791a6.25 6.25 0 0 1-8.837 8.833L39.246 48.075a6.25 6.25 0 0 1 0-8.833zm88.383 20.629a6.25 6.25 0 0 1 0-8.834l11.784-11.791a6.25 6.25 0 1 1 8.837 8.837l-11.787 11.792a6.25 6.25 0 0 1-8.834 0zM83.75 77.887a18.75 18.75 0 0 1 26.917 23.946l62.583 62.584a6.25 6.25 0 1 1-8.838 8.837l-62.575-62.579a18.675 18.675 0 0 1-8.387 1.825 18.75 18.75 0 0 1-9.696-34.613zM16.667 93.75a6.25 6.25 0 0 1 6.25-6.25h16.666a6.25 6.25 0 0 1 0 12.5H22.917a6.25 6.25 0 0 1-6.25-6.25zm125 0a6.25 6.25 0 0 1 6.25-6.25h16.666a6.25 6.25 0 0 1 0 12.5h-16.666a6.25 6.25 0 0 1-6.25-6.25zm-93.584 54.5a6.25 6.25 0 1 1-8.833-8.833l11.783-11.792a6.25 6.25 0 0 1 8.838 8.837l-11.788 11.792zM100 164.583a6.25 6.25 0 0 1-12.5 0v-16.666a6.25 6.25 0 0 1 12.5 0v16.666z"/></svg>