<svg width="200" height="200" xmlns="http://www.w3.org/2000/svg"><defs><style/></defs><path d="M157.53 60.167l32.466 32.466c2.033 2.034 3.054 4.492 3.054 7.367s-1.02 5.333-3.054 7.367l-32.467 32.466a6.25 6.25 0 1 1-8.842-8.833l31-31-31-31a6.25 6.25 0 1 1 8.842-8.833zm-115.093 0A6.25 6.25 0 1 1 51.275 69l-30.996 31 31 31a6.25 6.25 0 1 1-8.846 8.833L9.967 107.367A10.038 10.038 0 0 1 6.917 100c0-2.875 1.016-5.333 3.05-7.367l32.47-32.466zm92.142-11.209l-62.5 108.334a6.25 6.25 0 0 1-10.825-6.25l62.5-108.334a6.25 6.25 0 0 1 10.825 6.25z"/></svg>