<svg width="200" height="200" xmlns="http://www.w3.org/2000/svg"><defs><style/></defs><path d="M46.858 58.333A6.25 6.25 0 0 1 51.275 69l-30.996 31 31 31a6.25 6.25 0 0 1-8.842 8.833l-32.47-32.466A10.038 10.038 0 0 1 6.917 100c0-2.875 1.016-5.333 3.05-7.367l32.47-32.47a6.25 6.25 0 0 1 4.417-1.83zm110.667 1.834l32.47 32.466c2.034 2.034 3.055 4.492 3.055 7.367s-1.02 5.333-3.054 7.367l-32.471 32.47a6.25 6.25 0 1 1-8.833-8.841L179.679 100l-30.996-31a6.25 6.25 0 0 1 8.838-8.833zM53.108 101.042a9.375 9.375 0 1 1 18.75 0 9.375 9.375 0 0 1-18.75 0zm37.5 0a9.375 9.375 0 1 1 18.75 0 9.375 9.375 0 0 1-18.75 0zm37.5 0a9.375 9.375 0 1 1 18.75 0 9.375 9.375 0 0 1-18.75 0z"/></svg>