<svg width="200" height="200" xmlns="http://www.w3.org/2000/svg"><defs><style/></defs><path d="M30.238 30.238c4.887-4.88 10.775-7.321 17.679-7.321h104.166c6.904 0 12.796 2.441 17.68 7.32 4.879 4.888 7.32 10.776 7.32 17.68v104.166c0 6.904-2.441 12.796-7.32 17.68-4.888 4.879-10.776 7.32-17.68 7.32H47.917c-6.905 0-12.796-2.441-17.68-7.32-4.879-4.888-7.32-10.776-7.32-17.68V47.917c0-6.905 2.441-12.796 7.32-17.68zM70.832 62.5a6.25 6.25 0 0 0-4.416 10.667L91.77 98.525a2.083 2.083 0 0 1 0 2.95l-25.359 25.354a6.252 6.252 0 0 0 8.842 8.842l28.304-28.304a10.042 10.042 0 0 0 3.05-7.367c0-2.875-1.016-5.333-3.05-7.367l-28.308-28.3a6.25 6.25 0 0 0-4.417-1.833zm47.917 75h12.5a6.25 6.25 0 0 0 0-12.5h-12.5a6.25 6.25 0 0 0 0 12.5z"/></svg>