<svg width="200" height="200" xmlns="http://www.w3.org/2000/svg"><defs><style/></defs><path d="M171.875 156.25a25 25 0 0 1-25 25h-93.75a25 25 0 0 1-25-25V43.75a25 25 0 0 1 25-25h93.75a25 25 0 0 1 25 25v112.5zM82 62.804a6.252 6.252 0 0 0-9.833 7.725L86.32 88.542h-9.238a6.25 6.25 0 1 0 0 12.5H93.75v10.416H77.083a6.25 6.25 0 1 0 0 12.5H93.75v10.417a6.25 6.25 0 0 0 12.5 0v-10.417h16.667a6.25 6.25 0 0 0 0-12.5H106.25v-10.416h16.667a6.25 6.25 0 0 0 0-12.5h-9.238l14.15-18.013a6.25 6.25 0 1 0-9.825-7.725l-18 22.917-18.008-22.917z"/></svg>