<svg width="200" height="200" xmlns="http://www.w3.org/2000/svg"><defs><style/></defs><path d="M146.875 18.75a25 25 0 0 1 25 25v112.5a25 25 0 0 1-25 25h-93.75a25 25 0 0 1-25-25V43.75a25 25 0 0 1 25-25h93.75zm0 12.5h-93.75a12.5 12.5 0 0 0-12.5 12.5v112.5a12.5 12.5 0 0 0 12.5 12.5h93.75a12.5 12.5 0 0 0 12.5-12.5V43.75a12.5 12.5 0 0 0-12.5-12.5zM100 85.717l18-22.913a6.252 6.252 0 0 1 9.833 7.725L113.68 88.542h9.238a6.25 6.25 0 1 1 0 12.5H106.25v10.416h16.667a6.25 6.25 0 1 1 0 12.5H106.25v10.417a6.25 6.25 0 0 1-12.5 0v-10.417H77.083a6.25 6.25 0 0 1 0-12.5H93.75v-10.416H77.083a6.25 6.25 0 0 1 0-12.5h9.238L72.17 70.529a6.25 6.25 0 0 1 9.825-7.725L100 85.721z"/></svg>