<svg width="200" height="200" xmlns="http://www.w3.org/2000/svg"><defs><style/></defs><path d="M22.917 47.917v104.166q0 10.354 7.32 17.68 7.325 7.32 17.68 7.32h104.166q10.354 0 17.68-7.32 7.32-7.326 7.32-17.68V47.917q0-10.355-7.32-17.68-7.326-7.32-17.68-7.32V81.25q0 6.904-4.883 11.783-4.88 4.884-11.783 4.884H64.583q-6.904 0-11.783-4.884-4.883-4.879-4.883-11.783V22.917q-10.355 0-17.68 7.32-7.32 7.325-7.32 17.68zm37.5-25h79.166V81.25q0 1.725-1.22 2.946t-2.946 1.22H64.583q-1.725 0-2.946-1.22t-1.22-2.946V22.917zm60.416 20.833a6.25 6.25 0 0 0-6.25 6.25v12.5a6.25 6.25 0 0 0 12.5 0V50a6.25 6.25 0 0 0-6.25-6.25z"/></svg>