<svg width="200" height="200" xmlns="http://www.w3.org/2000/svg"><defs><style/></defs><path d="M100 12.5c48.325 0 87.5 39.175 87.5 87.5s-39.175 87.5-87.5 87.5-87.5-39.175-87.5-87.5S51.675 12.5 100 12.5zm0 20.833c-36.82 0-66.667 29.846-66.667 66.667S63.18 166.667 100 166.667 166.667 136.82 166.667 100 136.82 33.333 100 33.333zm2.083 45.834A10.417 10.417 0 0 1 112.5 89.583V125h4.167a10.417 10.417 0 0 1 0 20.833H87.5a10.417 10.417 0 1 1 0-20.833h4.167v-25h-2.084a10.417 10.417 0 0 1-10.395-9.733l-.021-.684a10.417 10.417 0 0 1 10.416-10.416h12.5zM100 50a11.458 11.458 0 1 1 0 22.917A11.458 11.458 0 0 1 100 50z"/></svg>