<svg width="200" height="200" xmlns="http://www.w3.org/2000/svg"><defs><style/></defs><path d="M82.53 101.692c3.178 1.75 5.387 2.916 6.624 3.508 2.146 1.02 4.108 1.708 5.896 2.07 3.3.667 6.6.667 9.904 0 1.783-.358 3.75-1.05 5.888-2.07a154.25 154.25 0 0 0 6.625-3.508l61.7-33.934v80.159a25 25 0 0 1-25 25H45.833a25 25 0 0 1-25-25V67.758l61.696 33.934zM20.832 52.083a25 25 0 0 1 25-25h108.334a25 25 0 0 1 25 25v1.409l-67.721 37.25c-4.733 2.6-7.721 4.025-8.967 4.279a12.415 12.415 0 0 1-4.958 0c-1.246-.25-4.233-1.68-8.967-4.284l-67.72-37.245v-1.409z"/></svg>