<svg width="200" height="200" xmlns="http://www.w3.org/2000/svg"><defs><style/></defs><path d="M100 16.667c46.025 0 83.333 37.308 83.333 83.333S146.025 183.333 100 183.333 16.667 146.025 16.667 100 53.975 16.667 100 16.667zm0 12.5c-39.12 0-70.833 31.712-70.833 70.833S60.879 170.833 100 170.833s70.833-31.712 70.833-70.833S139.121 29.167 100 29.167zm2.083 54.166a6.25 6.25 0 0 1 6.25 6.25v39.584h8.334a6.25 6.25 0 0 1 0 12.5H87.5a6.25 6.25 0 0 1 0-12.5h8.333V95.833h-6.25a6.25 6.25 0 0 1-6.22-5.65l-.03-.6a6.25 6.25 0 0 1 6.25-6.25h12.5zM100 56.25a8.333 8.333 0 1 1 0 16.667 8.333 8.333 0 0 1 0-16.667z"/></svg>