<svg width="200" height="200" xmlns="http://www.w3.org/2000/svg"><defs><style/></defs><path d="M154.167 25H45.833A27.083 27.083 0 0 0 18.75 52.083v95.834A27.083 27.083 0 0 0 45.833 175h108.334a27.083 27.083 0 0 0 27.083-27.083V52.083A27.083 27.083 0 0 0 154.167 25zm0 16.667a10.417 10.417 0 0 1 10.416 10.416v6.513a8.346 8.346 0 0 0-2 .808L100 94.604l-62.583-35.2a8.346 8.346 0 0 0-2-.808v-6.513a10.417 10.417 0 0 1 10.416-10.416h108.334zM35.417 77.4l58.458 32.883a12.5 12.5 0 0 0 12.25 0L164.583 77.4v70.517a10.417 10.417 0 0 1-10.416 10.416H45.833a10.417 10.417 0 0 1-10.416-10.416V77.4z"/></svg>