<svg width="200" height="200" xmlns="http://www.w3.org/2000/svg"><defs><style/></defs><path d="M143.75 14.583A10.417 10.417 0 0 1 154.167 25v120.192l10.908-12.467a10.417 10.417 0 1 1 15.68 13.717l-29.167 33.333a10.417 10.417 0 0 1-18.255-6.858V25a10.417 10.417 0 0 1 10.417-10.417zM74.283 141.667H60.117l6.854-15.084 7.312 15.084zm10.1 20.833l6.246 12.875a10.417 10.417 0 0 0 18.742-9.083v-.009l-29.458-60.762q-1.934-3.988-5.717-6.209-3.5-2.062-7.588-2.008-4.083.05-7.537 2.196-3.725 2.317-5.558 6.35l-27.58 60.67a10.418 10.418 0 1 0 18.967 8.626l5.75-12.646h33.733zM100 89.583H35.417a10.417 10.417 0 0 1-6.696-18.4l42.654-35.766H35.417a10.417 10.417 0 0 1 0-20.834H100a10.417 10.417 0 0 1 6.696 18.396L64.042 68.75H100a10.417 10.417 0 0 1 0 20.833z"/></svg>