<svg width="200" height="200" xmlns="http://www.w3.org/2000/svg"><defs><style/></defs><path d="M83.333 41.667H53.45l33.692 33.691a8.333 8.333 0 1 1-11.784 11.784L41.667 53.45v29.883a8.333 8.333 0 0 1-7.709 8.313l-.625.02A8.333 8.333 0 0 1 25 83.334V37.5A12.5 12.5 0 0 1 37.5 25h45.833a8.333 8.333 0 1 1 0 16.667zm33.334 116.666h29.883l-33.692-33.691a8.333 8.333 0 1 1 11.784-11.784l33.691 33.692v-29.883a8.333 8.333 0 0 1 7.709-8.309l.625-.025a8.333 8.333 0 0 1 8.333 8.334V162.5a12.5 12.5 0 0 1-12.5 12.5h-45.833a8.333 8.333 0 1 1 0-16.667z"/></svg>