<svg width="200" height="200" xmlns="http://www.w3.org/2000/svg"><defs><style/></defs><path d="M83.333 39.583H48.421l37.25 37.25a6.25 6.25 0 0 1-8.842 8.834L39.583 48.425v34.908a6.25 6.25 0 0 1-5.65 6.221l-.6.03a6.25 6.25 0 0 1-6.25-6.25V37.5A10.417 10.417 0 0 1 37.5 27.083h45.833a6.25 6.25 0 0 1 0 12.5zm33.334 120.834h34.912l-37.25-37.25a6.25 6.25 0 0 1 8.842-8.834l37.246 37.246v-34.912a6.25 6.25 0 0 1 5.646-6.221l.604-.03a6.25 6.25 0 0 1 6.25 6.25V162.5a10.417 10.417 0 0 1-10.417 10.417h-45.833a6.25 6.25 0 0 1 0-12.5z"/></svg>