<svg width="200" height="200" xmlns="http://www.w3.org/2000/svg"><defs><style/></defs><path d="M83.333 43.75h-24.85l30.134 30.133a10.418 10.418 0 0 1-14.734 14.734L43.75 58.483v24.85a10.417 10.417 0 0 1-9.733 10.396l-.684.021a10.417 10.417 0 0 1-10.416-10.417V37.5A14.583 14.583 0 0 1 37.5 22.917h45.833a10.417 10.417 0 0 1 0 20.833zm33.334 112.5h24.854l-30.138-30.133a10.418 10.418 0 0 1 14.734-14.734l30.133 30.138v-24.854a10.417 10.417 0 0 1 9.733-10.396l.684-.021a10.417 10.417 0 0 1 10.416 10.417V162.5a14.583 14.583 0 0 1-14.583 14.583h-45.833a10.417 10.417 0 0 1 0-20.833z"/></svg>