<svg width="200" height="200" xmlns="http://www.w3.org/2000/svg"><defs><style/></defs><path d="M138.48 29.167h8.395a25 25 0 0 1 25 25V156.25a25 25 0 0 1-25 25h-93.75a25 25 0 0 1-25-25V54.167a25 25 0 0 1 25-25h8.396a16.667 16.667 0 0 1 16.604-15.209h43.75a16.667 16.667 0 0 1 16.604 15.209zm-16.605 28.541h-43.75a16.667 16.667 0 0 1-16.654-16.041h-8.346a12.5 12.5 0 0 0-12.5 12.5V156.25a12.5 12.5 0 0 0 12.5 12.5h93.75a12.5 12.5 0 0 0 12.5-12.5V54.167a12.5 12.5 0 0 0-12.5-12.5h-8.346a16.667 16.667 0 0 1-16.654 16.041zM73.958 35.417v5.625a4.167 4.167 0 0 0 4.167 4.166h43.75a4.167 4.167 0 0 0 4.167-4.166V30.625a4.167 4.167 0 0 0-4.167-4.167h-43.75a4.167 4.167 0 0 0-4.167 4.167v4.792zm67.709 54.166a6.25 6.25 0 0 1-1.68 4.263l-29.166 31.25a6.25 6.25 0 0 1-8.475.616l-16.25-13-16.888 18.575a6.25 6.25 0 0 1-9.25-8.408l20.834-22.917a6.25 6.25 0 0 1 8.529-.674l16.312 13.045 25.209-27.012a6.25 6.25 0 0 1 10.825 4.262z"/></svg>