<svg width="200" height="200" xmlns="http://www.w3.org/2000/svg"><defs><style/></defs><path d="M138.508 29.167h8.367a25 25 0 0 1 25 25V156.25a25 25 0 0 1-25 25h-93.75a25 25 0 0 1-25-25V54.167a25 25 0 0 1 25-25h8.367a16.667 16.667 0 0 1 16.633-15.625h43.75a16.667 16.667 0 0 1 16.633 15.625zm-12.466 6.25v-5.209a4.167 4.167 0 0 0-4.167-4.166h-43.75a4.167 4.167 0 0 0-4.167 4.166v10.417a4.167 4.167 0 0 0 4.167 4.167h43.75a4.167 4.167 0 0 0 4.167-4.167v-5.208zm-72.917 6.25a12.5 12.5 0 0 0-12.5 12.5V156.25a12.5 12.5 0 0 0 12.5 12.5h93.75a12.5 12.5 0 0 0 12.5-12.5V54.167a12.5 12.5 0 0 0-12.5-12.5h-8.367a16.667 16.667 0 0 1-16.633 15.625h-43.75a16.667 16.667 0 0 1-16.633-15.625h-8.367zm78.125 46.875a6.25 6.25 0 0 1-6.25 6.25H75a6.25 6.25 0 0 1 0-12.5h50a6.25 6.25 0 0 1 6.25 6.25zM75 118.75h50a6.25 6.25 0 1 1 0 12.5H75a6.25 6.25 0 0 1 0-12.5z"/></svg>