<svg width="200" height="200" xmlns="http://www.w3.org/2000/svg"><defs><style/></defs><path d="M140.367 27.083h6.508a27.083 27.083 0 0 1 27.083 27.084V156.25a27.083 27.083 0 0 1-27.083 27.083h-93.75a27.083 27.083 0 0 1-27.083-27.083V54.167a27.083 27.083 0 0 1 27.083-27.084h6.508a18.754 18.754 0 0 1 18.492-15.625h43.75c9.292 0 17 6.759 18.492 15.625zm-16.409 8.334v-5.209a2.083 2.083 0 0 0-2.083-2.083h-43.75a2.083 2.083 0 0 0-2.083 2.083v10.417a2.083 2.083 0 0 0 2.083 2.083h43.75a2.083 2.083 0 0 0 2.083-2.083v-5.208zM53.125 43.75a10.417 10.417 0 0 0-10.417 10.417V156.25a10.417 10.417 0 0 0 10.417 10.417h93.75a10.417 10.417 0 0 0 10.417-10.417V54.167a10.417 10.417 0 0 0-10.417-10.417h-6.508a18.754 18.754 0 0 1-18.492 15.625h-43.75A18.754 18.754 0 0 1 59.633 43.75h-6.508zm80.208 44.792A8.333 8.333 0 0 1 125 96.875H75a8.333 8.333 0 1 1 0-16.667h50a8.333 8.333 0 0 1 8.333 8.334zM75 116.667h50a8.333 8.333 0 1 1 0 16.666H75a8.333 8.333 0 0 1 0-16.666z"/></svg>