<svg width="200" height="200" xmlns="http://www.w3.org/2000/svg"><defs><style/></defs><path d="M179.15 40.087l-75 66.667a6.25 6.25 0 1 1-8.3-9.341l75-66.667a6.25 6.25 0 1 1 8.3 9.342zm-64.567 1.58H50a16.667 16.667 0 0 0-16.667 16.666v75A16.667 16.667 0 0 0 50 150h25.47a10.417 10.417 0 0 1 7.01 2.708L100 168.633l17.52-15.925a10.417 10.417 0 0 1 6.147-2.675l.862-.033H150a16.667 16.667 0 0 0 16.667-16.667V93.75a6.25 6.25 0 0 1 12.5 0v39.583A29.167 29.167 0 0 1 150 162.5h-24.675l-18.317 16.658a10.417 10.417 0 0 1-13.433.492l-.583-.492L74.67 162.5H50a29.167 29.167 0 0 1-29.15-28.167l-.017-1v-75A29.167 29.167 0 0 1 50 29.167h64.583a6.25 6.25 0 0 1 0 12.5z"/></svg>