<svg width="200" height="200" xmlns="http://www.w3.org/2000/svg"><defs><style/></defs><path d="M180.537 41.646l-75 66.667a8.335 8.335 0 1 1-11.075-12.459l75-66.666a8.335 8.335 0 1 1 11.075 12.458zm-65.954 2.104H50a14.583 14.583 0 0 0-14.583 14.583v75A14.583 14.583 0 0 0 50 147.917h25.47a12.5 12.5 0 0 1 8.41 3.25L100 165.82l16.12-14.654a12.5 12.5 0 0 1 7.48-3.217l.93-.033H150a14.583 14.583 0 0 0 14.583-14.584V93.75a8.333 8.333 0 1 1 16.667 0v39.583a31.25 31.25 0 0 1-31.25 31.25h-23.867L108.408 180.7a12.5 12.5 0 0 1-16.208.52l-.608-.52-17.73-16.117H50a31.25 31.25 0 0 1-31.233-30.237l-.017-1.013v-75A31.25 31.25 0 0 1 50 27.083h64.583a8.333 8.333 0 1 1 0 16.667z"/></svg>