<svg width="200" height="200" xmlns="http://www.w3.org/2000/svg"><defs><style/></defs><path d="M114.583 45.833H50a12.5 12.5 0 0 0-12.5 12.5v75a12.5 12.5 0 0 0 12.5 12.5h25.47a14.583 14.583 0 0 1 9.813 3.792l14.713 13.38 14.72-13.376a14.583 14.583 0 0 1 8.909-3.766l.904-.03H150a12.5 12.5 0 0 0 12.5-12.5V93.75a10.417 10.417 0 0 1 20.833 0v39.583A33.333 33.333 0 0 1 150 166.667h-23.063l-17.124 15.575a14.583 14.583 0 0 1-18.967.562l-.654-.562-17.134-15.575H50a33.333 33.333 0 0 1-33.317-32.292l-.016-1.042v-75A33.333 33.333 0 0 1 50 25h64.583a10.417 10.417 0 0 1 0 20.833zm67.334-2.629l-75 66.667a10.417 10.417 0 1 1-13.834-15.575l75-66.667a10.417 10.417 0 1 1 13.834 15.575z"/></svg>