<svg width="200" height="200" xmlns="http://www.w3.org/2000/svg"><defs><style/></defs><path d="M25 154.167V50q0-10.354 7.32-17.68Q39.647 25 50 25h104.167q10.354 0 17.679 7.32 7.32 7.326 7.32 17.68v104.167q0 10.354-7.32 17.679-7.325 7.32-17.68 7.32H50q-10.354 0-17.68-7.32Q25 164.52 25 154.166zm12.5 0q0 5.179 3.662 8.837 3.659 3.663 8.838 3.663h104.167q5.179 0 8.837-3.663 3.663-3.658 3.663-8.837V50q0-5.18-3.663-8.837-3.658-3.663-8.837-3.663H50q-5.18 0-8.838 3.663Q37.5 44.82 37.5 50v104.167zm93.75-58.334H72.917a6.25 6.25 0 0 0 0 12.5h58.333a6.25 6.25 0 0 0 0-12.5z" fill-rule="evenodd"/></svg>