<svg width="200" height="200" xmlns="http://www.w3.org/2000/svg"><defs><style/></defs><path d="M175 52.083q0 12.946-9.154 22.096-9.15 9.154-22.096 9.154t-22.096-9.154q-1.9-1.896-3.404-3.958L88.97 87.129q2.305 6.213 2.305 12.871 0 6.613-2.275 12.792l29.3 16.916q1.488-2.02 3.354-3.887 9.15-9.154 22.096-9.154t22.096 9.154Q175 134.97 175 147.917q0 12.945-9.154 22.095-9.15 9.155-22.096 9.155t-22.096-9.154q-9.154-9.15-9.154-22.096 0-3.504.67-6.734l-30.39-17.545q-1.117 1.345-2.376 2.604-5.433 5.433-12.579 8.262-6.583 2.604-13.658 2.604-7.08 0-13.659-2.604-7.145-2.829-12.583-8.262-5.433-5.438-8.262-12.584-2.605-6.583-2.605-13.658 0-7.08 2.605-13.658 2.829-7.146 8.262-12.584 5.438-5.433 12.583-8.262 6.584-2.604 13.659-2.604 7.079 0 13.658 2.604 7.146 2.829 12.583 8.262 1.225 1.23 2.317 2.542l30.43-17.567q-.655-3.191-.655-6.65 0-12.945 9.154-22.095 9.15-9.155 22.096-9.155t22.096 9.155Q175 39.138 175 52.083zm-12.5 0q0-7.766-5.492-13.258-5.491-5.492-13.258-5.492-7.767 0-13.258 5.492Q125 44.317 125 52.083q0 7.767 5.492 13.259 5.491 5.491 13.258 5.491 7.767 0 13.258-5.491 5.492-5.492 5.492-13.259zM79.558 100q0-10.517-7.437-17.954-7.438-7.438-17.954-7.438t-17.954 7.438Q28.775 89.483 28.775 100t7.438 17.954q7.437 7.438 17.954 7.438t17.954-7.438q7.437-7.437 7.437-17.954zm77.45 34.658q-5.491-5.491-13.258-5.491-7.767 0-13.258 5.491Q125 140.15 125 147.917q0 7.766 5.492 13.258 5.491 5.492 13.258 5.492 7.767 0 13.258-5.492 5.492-5.492 5.492-13.258 0-7.767-5.492-13.259z"/></svg>