<svg width="200" height="200" xmlns="http://www.w3.org/2000/svg"><defs><style/></defs><path d="M79.883 29.883A16.442 16.442 0 0 1 86.4 25.85c1.704-.567 4.85-.85 9.433-.85h58.334c4.583 0 7.729.283 9.433.85a16.442 16.442 0 0 1 6.517 4.033 16.364 16.364 0 0 1 4.033 6.517c.567 1.704.85 4.85.85 9.433 0 4.584-.283 7.73-.85 9.434a16.446 16.446 0 0 1-4.033 6.516 16.446 16.446 0 0 1-6.517 4.034c-1.704.566-4.85.85-9.433.85H95.833c-4.583 0-7.729-.284-9.433-.85a16.442 16.442 0 0 1-6.517-4.034 16.446 16.446 0 0 1-4.033-6.516c-.567-1.705-.85-4.85-.85-9.434 0-4.583.283-7.729.85-9.433a16.446 16.446 0 0 1 4.033-6.517zM90.35 53.954c.42.142 2.25.213 5.483.213h58.334c3.233 0 5.062-.071 5.483-.209a3.958 3.958 0 0 0 2.637-2.641c.142-.421.213-2.25.213-5.484s-.07-5.062-.208-5.483a3.958 3.958 0 0 0-2.642-2.637c-.42-.142-2.25-.213-5.483-.213H95.833c-3.233 0-5.062.07-5.483.208a3.958 3.958 0 0 0-2.638 2.642c-.141.42-.212 2.25-.212 5.483s.07 5.063.208 5.484a3.958 3.958 0 0 0 2.642 2.637zm-.767 106.463h-37.5c-2.15 0-3.6-.034-4.35-.105a24.25 24.25 0 0 1-15.412-7.216 24.25 24.25 0 0 1-7.221-15.413c-.067-.75-.1-2.2-.1-4.35V66.667c0-2.15.033-3.6.1-4.35a24.25 24.25 0 0 1 7.22-15.413 24.25 24.25 0 0 1 15.413-7.22c.75-.067 2.2-.1 4.35-.1a6.25 6.25 0 1 1 0 12.5c-1.77 0-2.85.016-3.229.05a12.108 12.108 0 0 0-7.692 3.612 12.108 12.108 0 0 0-3.612 7.691c-.033.38-.05 1.459-.05 3.23V93.75h52.083a6.25 6.25 0 0 1 0 12.5H37.5v27.083c0 1.771.017 2.85.05 3.23.27 2.991 1.475 5.558 3.612 7.691a12.108 12.108 0 0 0 7.692 3.613c.38.033 1.458.05 3.23.05h37.5a6.25 6.25 0 0 1 0 12.5zM112.5 100c0-4.583.283-7.73.85-9.433a16.446 16.446 0 0 1 4.033-6.517 16.446 16.446 0 0 1 6.517-4.033c1.704-.567 4.85-.85 9.433-.85h20.834c4.583 0 7.729.283 9.433.85a16.446 16.446 0 0 1 6.517 4.033 16.364 16.364 0 0 1 4.033 6.517c.567 1.708.85 4.85.85 9.433s-.283 7.73-.85 9.433a16.446 16.446 0 0 1-4.033 6.517 16.446 16.446 0 0 1-6.517 4.033c-1.704.567-4.85.85-9.433.85h-20.834c-4.583 0-7.729-.283-9.433-.85a16.446 16.446 0 0 1-6.517-4.033 16.446 16.446 0 0 1-4.033-6.517c-.567-1.704-.85-4.85-.85-9.433zm12.5 0c0 3.233.07 5.062.208 5.483a3.958 3.958 0 0 0 2.642 2.638c.42.141 2.25.212 5.483.212h20.834c3.233 0 5.062-.07 5.483-.208a3.958 3.958 0 0 0 2.637-2.642c.142-.42.213-2.25.213-5.483s-.07-5.063-.208-5.483a3.958 3.958 0 0 0-2.642-2.638c-.42-.142-2.25-.212-5.483-.212h-20.834c-3.233 0-5.062.07-5.483.208a3.958 3.958 0 0 0-2.638 2.642c-.141.42-.212 2.25-.212 5.483zm-12.5 54.167c0-4.584.283-7.73.85-9.434a16.446 16.446 0 0 1 4.033-6.516 16.446 16.446 0 0 1 6.517-4.034c1.704-.566 4.85-.85 9.433-.85h20.834c4.583 0 7.729.284 9.433.85a16.446 16.446 0 0 1 6.517 4.034 16.363 16.363 0 0 1 4.033 6.516c.567 1.709.85 4.85.85 9.434 0 4.583-.283 7.729-.85 9.433a16.446 16.446 0 0 1-4.033 6.517 16.446 16.446 0 0 1-6.517 4.033c-1.704.567-4.85.85-9.433.85h-20.834c-4.583 0-7.729-.283-9.433-.85a16.446 16.446 0 0 1-6.517-4.033 16.446 16.446 0 0 1-4.033-6.517c-.567-1.704-.85-4.85-.85-9.433zm12.5 0c0 3.233.07 5.062.208 5.483a3.958 3.958 0 0 0 2.642 2.637c.42.142 2.25.213 5.483.213h20.834c3.233 0 5.062-.07 5.483-.208a3.958 3.958 0 0 0 2.637-2.642c.142-.42.213-2.25.213-5.483s-.07-5.063-.208-5.484a3.958 3.958 0 0 0-2.642-2.637c-.42-.142-2.25-.213-5.483-.213h-20.834c-3.233 0-5.062.071-5.483.209a3.958 3.958 0 0 0-2.638 2.641c-.141.421-.212 2.25-.212 5.484z"/></svg>