<svg width="200" height="200" xmlns="http://www.w3.org/2000/svg"><defs><style/></defs><path d="M37.5 54.167V26.612l-7.017 2.338a4.167 4.167 0 1 1-2.633-7.904l10.746-3.583c1.383-.459 2.554-.563 3.512-.309a4.83 4.83 0 0 1 2.909 2.096c.541.83.816 1.975.816 3.43v31.487a4.167 4.167 0 0 1-8.333 0zM81.25 43.75a6.25 6.25 0 0 1 0-12.5h91.667a6.25 6.25 0 0 1 0 12.5H81.25zM50 121.25H31.25a4.583 4.583 0 0 1-4.583-4.583c0-2.554.845-4.784 2.541-6.688l13.63-15.333a3.967 3.967 0 0 0 .966-2.021l.025-.154a3.742 3.742 0 0 0-.875-3.171 3.742 3.742 0 0 0-2.987-1.387 3.808 3.808 0 0 0-2.409.833 3.813 3.813 0 0 0-1.387 2.133l-.475 1.896a4.583 4.583 0 1 1-8.892-2.22l.475-1.897a12.737 12.737 0 0 1 4.638-7.141 12.737 12.737 0 0 1 8.05-2.771c4.041 0 7.37 1.542 9.983 4.625 2.612 3.083 3.583 6.625 2.92 10.608l-.024.15a12.958 12.958 0 0 1-3.158 6.609l-10.084 11.341H50a4.583 4.583 0 0 1 0 9.167zm31.25-15a6.25 6.25 0 1 1 0-12.5h91.667a6.25 6.25 0 0 1 0 12.5H81.25zm-46.758 65.504l.479.475c1.562 1.567 3.45 2.346 5.662 2.346.313 0 .621-.037.925-.112l1.125-.28c1.821-.458 2.734-1.625 2.734-3.5a3.475 3.475 0 0 0-1.054-2.55 3.475 3.475 0 0 0-2.55-1.058h-2.23a4.583 4.583 0 0 1 0-9.167h.975c1.13 0 2.067-.416 2.813-1.266a3.592 3.592 0 0 0 .908-2.946 3.633 3.633 0 0 0-1.237-2.346 3.633 3.633 0 0 0-2.484-.942h-1.15c-1.395 0-2.583.496-3.575 1.484l-1.341 1.341a4.583 4.583 0 1 1-6.484-6.479l1.346-1.346c2.775-2.775 6.125-4.166 10.054-4.166h1.15c3.259 0 6.109 1.083 8.55 3.233a12.512 12.512 0 0 1 4.271 8.083c.43 3.459-.366 6.542-2.391 9.238 2.395 2.467 3.595 5.429 3.595 8.887 0 2.93-.9 5.55-2.708 7.859-1.8 2.312-4.125 3.82-6.967 4.533l-1.125.28a12.961 12.961 0 0 1-3.15.387c-4.741 0-8.791-1.675-12.145-5.03l-.48-.475a4.584 4.584 0 1 1 6.484-6.483zm46.758-3.012a6.25 6.25 0 1 1 0-12.5h91.667a6.25 6.25 0 0 1 0 12.5H81.25z"/></svg>