<svg width="200" height="200" xmlns="http://www.w3.org/2000/svg"><defs><style/></defs><path d="M70.833 35.417a6.25 6.25 0 0 0 6.25 6.25h91.667a6.25 6.25 0 0 0 0-12.5H77.083a6.25 6.25 0 0 0-6.25 6.25zm0 64.583a6.25 6.25 0 0 0 6.25 6.25h91.667a6.25 6.25 0 0 0 0-12.5H77.083a6.25 6.25 0 0 0-6.25 6.25zm0 64.583a6.25 6.25 0 0 0 6.25 6.25h91.667a6.25 6.25 0 0 0 0-12.5H77.083a6.25 6.25 0 0 0-6.25 6.25zM50 100a12.5 12.5 0 1 1-25 0 12.5 12.5 0 0 1 25 0zm0-64.583a12.5 12.5 0 1 1-25 0 12.5 12.5 0 0 1 25 0zm0 129.166a12.5 12.5 0 1 1-25 0 12.5 12.5 0 0 1 25 0z"/></svg>