<svg width="200" height="200" xmlns="http://www.w3.org/2000/svg"><defs><style/></defs><path d="M115.317 12.5a27.083 27.083 0 0 1 25.887 19.117l3.733 12.133h32.146a8.333 8.333 0 1 1 0 16.667h-6.796l-6.625 97.666a27.083 27.083 0 0 1-27.012 25.25H63.358a27.083 27.083 0 0 1-27.02-25.25l-6.626-97.666h-6.795a8.333 8.333 0 0 1 0-16.667h32.145l3.734-12.133A27.083 27.083 0 0 1 84.679 12.5h30.638zM72.5 43.75h55l-2.225-7.23a10.417 10.417 0 0 0-9.958-7.353H84.683a10.417 10.417 0 0 0-9.958 7.354L72.5 43.75zM46.417 60.417l6.546 96.541a10.417 10.417 0 0 0 10.391 9.709h73.292a10.417 10.417 0 0 0 10.392-9.709l6.541-96.541H46.417zM83.333 81.25a8.333 8.333 0 0 1 8.334 8.333v41.667a8.333 8.333 0 1 1-16.667 0V89.583a8.333 8.333 0 0 1 8.333-8.333zm33.334 0A8.333 8.333 0 0 1 125 89.583v41.667a8.333 8.333 0 1 1-16.667 0V89.583a8.333 8.333 0 0 1 8.334-8.333z"/></svg>