<svg width="200" height="200" xmlns="http://www.w3.org/2000/svg"><defs><style/></defs><path d="M115.32 10.417a29.167 29.167 0 0 1 27.876 20.587l3.279 10.663h30.608a10.417 10.417 0 0 1 0 20.833h-4.85l-6.483 95.725a29.167 29.167 0 0 1-29.1 27.192H63.358a29.167 29.167 0 0 1-29.1-27.192L27.767 62.5h-4.85a10.417 10.417 0 0 1 0-20.833h30.608l3.28-10.663a29.167 29.167 0 0 1 27.874-20.587h30.642zm-40 31.25h49.36l-1.397-4.534a8.333 8.333 0 0 0-7.966-5.883H84.683a8.333 8.333 0 0 0-7.966 5.883l-1.396 4.534zM48.647 62.5l6.396 94.313a8.333 8.333 0 0 0 8.312 7.77h73.292a8.333 8.333 0 0 0 8.312-7.77l6.396-94.313H48.646zm34.687 16.667A10.417 10.417 0 0 1 93.75 89.583v41.667a10.417 10.417 0 0 1-20.833 0V89.583a10.417 10.417 0 0 1 10.416-10.416zm33.334 0a10.417 10.417 0 0 1 10.416 10.416v41.667a10.417 10.417 0 0 1-20.833 0V89.583a10.417 10.417 0 0 1 10.417-10.416z"/></svg>