<svg width="200" height="200" xmlns="http://www.w3.org/2000/svg"><defs><style/></defs><path d="M187.5 53.125v22.446a18.717 18.717 0 0 1-7.883 15.25l-.867.633c-4.15 3.146-5.833 5.938-5.833 8.542 0 2.783 1.916 5.775 6.687 9.17a18.725 18.725 0 0 1 7.896 15.272v22.437a27.083 27.083 0 0 1-27.083 27.083H39.583A27.083 27.083 0 0 1 12.5 146.875v-22.446a18.713 18.713 0 0 1 7.883-15.25l.867-.637c4.154-3.142 5.833-5.938 5.833-8.542 0-2.78-1.912-5.775-6.687-9.167l-.804-.604A18.73 18.73 0 0 1 12.5 75.563V53.124a27.083 27.083 0 0 1 27.083-27.083h120.834A27.083 27.083 0 0 1 187.5 53.125zM39.583 42.708a10.417 10.417 0 0 0-10.416 10.417v22.43c0 .666.325 1.29.875 1.687C38.862 83.508 43.75 91.158 43.75 100c0 8.833-4.888 16.488-13.72 22.767a2.05 2.05 0 0 0-.863 1.666v22.442a10.417 10.417 0 0 0 10.416 10.417h120.834a10.417 10.417 0 0 0 10.416-10.417v-22.43c0-.67-.325-1.29-.875-1.687-8.82-6.27-13.708-13.92-13.708-22.758s4.888-16.492 13.72-22.77a2.054 2.054 0 0 0 .863-1.667V53.124a10.417 10.417 0 0 0-10.416-10.417H39.583zM100 82.346l16.362-20.83a8.335 8.335 0 1 1 13.109 10.3l-11.513 14.642h4.959a8.333 8.333 0 0 1 0 16.667h-14.584v8.333h14.584a8.333 8.333 0 0 1 0 16.667h-14.584v8.333a8.333 8.333 0 1 1-16.666 0v-8.333H77.083a8.333 8.333 0 1 1 0-16.667h14.584v-8.333H77.083a8.333 8.333 0 1 1 0-16.667h4.954L70.53 71.817a8.335 8.335 0 1 1 13.108-10.3L100 82.346z"/></svg>