<svg width="200" height="200" xmlns="http://www.w3.org/2000/svg"><defs><style/></defs><path d="M137.5 22.917A27.083 27.083 0 0 1 164.583 50v7.554l.05.017a27.1 27.1 0 0 1 18.684 24.792l.016.97V150a27.083 27.083 0 0 1-27.083 27.083H43.75A27.083 27.083 0 0 1 16.667 150V47.917l.016-.938a25 25 0 0 1 24.984-24.062H137.5zM41.667 39.583a8.333 8.333 0 1 0 0 16.667h106.25V50a10.417 10.417 0 0 0-9.059-10.33l-.675-.066-.683-.02H41.667zm2.083 120.834h112.5A10.417 10.417 0 0 0 166.667 150V83.333a10.417 10.417 0 0 0-10.417-10.416H41.667c-2.825 0-5.542-.467-8.071-1.334l-.263-.091V150a10.417 10.417 0 0 0 10.417 10.417zm87.5-62.5a10.417 10.417 0 1 1 20.833 0 10.417 10.417 0 0 1-20.833 0z"/></svg>