<svg width="200" height="200" xmlns="http://www.w3.org/2000/svg"><defs><style/></defs><path d="M100 14.583c47.175 0 85.417 38.242 85.417 85.417S147.175 185.417 100 185.417 14.583 147.175 14.583 100 52.825 14.583 100 14.583zm0 16.667c-37.97 0-68.75 30.78-68.75 68.75s30.78 68.75 68.75 68.75 68.75-30.78 68.75-68.75S137.97 31.25 100 31.25zm0 27.083a8.333 8.333 0 0 1 8.333 8.334v25h25a8.333 8.333 0 0 1 0 16.666h-25v25a8.333 8.333 0 0 1-16.666 0v-25h-25a8.333 8.333 0 1 1 0-16.666h25v-25A8.333 8.333 0 0 1 100 58.333z"/></svg>