<svg width="200" height="200" xmlns="http://www.w3.org/2000/svg"><defs><style/></defs><path d="M167.254 28.487a25.37 25.37 0 0 1 10.509 10.509c2.587 4.846 3.487 9.496 3.487 18.375v85.254c0 8.88-.9 13.53-3.487 18.375a25.367 25.367 0 0 1-10.509 10.508c-4.846 2.588-9.496 3.488-18.375 3.488H51.125c-8.88 0-13.53-.9-18.375-3.488A25.37 25.37 0 0 1 22.242 161c-2.588-4.846-3.488-9.496-3.488-18.375v-85.25c0-8.88.9-13.53 3.488-18.375A25.37 25.37 0 0 1 32.75 28.487C37.592 25.9 42.242 25 51.12 25h97.755c8.88 0 13.53.9 18.375 3.488zm-2.67 31.917v-3.033c0-6.363-.396-8.417-1.521-10.517a8.708 8.708 0 0 0-3.667-3.666c-1.854-.992-3.667-1.417-8.442-1.5l-2.079-.021h-97.75c-6.362 0-8.417.395-10.517 1.52a8.708 8.708 0 0 0-3.666 3.667c-1.125 2.1-1.521 4.154-1.521 10.517v3.037a27 27 0 0 1 10.412-2.075h108.334c3.691 0 7.208.738 10.416 2.075zM35.416 85.417v8.325a27 27 0 0 1 10.416-2.075h29.721a18.738 18.738 0 0 1 16.934 10.75l.366.829c1.55 3.75 3.492 5.083 7.146 5.083 3.417 0 5.325-1.166 6.808-4.358l.292-.667a18.725 18.725 0 0 1 17.33-11.637h29.737c3.691 0 7.208.737 10.416 2.075v-8.325A10.417 10.417 0 0 0 154.167 75H45.833a10.417 10.417 0 0 0-10.416 10.417zm129.166 33.25a10.417 10.417 0 0 0-10.416-10.334h-29.73a2.067 2.067 0 0 0-1.916 1.304C118.433 119.521 110.487 125 100 125c-10.496 0-18.454-5.488-22.55-15.388a2.07 2.07 0 0 0-1.904-1.279H45.833a10.417 10.417 0 0 0-10.416 10.417v23.88c0 6.362.396 8.416 1.52 10.516a8.672 8.672 0 0 0 3.667 3.667c2.1 1.125 4.154 1.52 10.517 1.52h97.754c6.362 0 8.417-.396 10.517-1.52a8.708 8.708 0 0 0 3.666-3.667c.992-1.854 1.417-3.667 1.5-8.442l.021-2.075v-23.962z"/></svg>