<svg width="200" height="200" xmlns="http://www.w3.org/2000/svg"><defs><style/></defs><path d="M100 14.583c47.175 0 85.417 38.242 85.417 85.417S147.175 185.417 100 185.417 14.583 147.175 14.583 100 52.825 14.583 100 14.583zm0 16.667c-37.97 0-68.75 30.78-68.75 68.75s30.78 68.75 68.75 68.75 68.75-30.78 68.75-68.75S137.97 31.25 100 31.25zM79.85 68.067l20.154 20.154 20.146-20.15a8.334 8.334 0 0 1 11.787 11.783l-20.15 20.15 20.146 20.146a8.333 8.333 0 0 1-11.783 11.783L100 111.792l-20.15 20.15a8.334 8.334 0 1 1-11.788-11.784l20.15-20.15-20.15-20.154a8.333 8.333 0 0 1 11.784-11.783z" fill-rule="evenodd"/></svg>