<svg width="200" height="200" xmlns="http://www.w3.org/2000/svg"><defs><style/></defs><path d="M142.708 18.75a25 25 0 0 1 25 25v59.817a16.654 16.654 0 0 1 13.542 16.375v36.308a25 25 0 0 1-25 25H43.75a25 25 0 0 1-25-25v-36.308c0-8.138 5.833-14.913 13.542-16.375V43.75a25 25 0 0 1 25-25h85.416zm-97.916 87.033l53.612 22.209a4.167 4.167 0 0 0 3.192 0l53.612-22.209V43.75a12.5 12.5 0 0 0-12.5-12.5H57.292a12.5 12.5 0 0 0-12.5 12.5v62.033zm84.375-46.408a6.25 6.25 0 0 1-6.25 6.25H77.083a6.25 6.25 0 1 1 0-12.5h45.834a6.25 6.25 0 0 1 6.25 6.25zm0 29.167a6.25 6.25 0 0 1-6.25 6.25H77.083a6.25 6.25 0 1 1 0-12.5h45.834a6.25 6.25 0 0 1 6.25 6.25zm-93.75 27.233a4.167 4.167 0 0 0-4.167 4.167v36.308a12.5 12.5 0 0 0 12.5 12.5h112.5a12.5 12.5 0 0 0 12.5-12.5v-36.308a4.17 4.17 0 0 0-5.763-3.85l-56.608 23.446a16.667 16.667 0 0 1-12.758 0l-56.609-23.446a4.167 4.167 0 0 0-1.595-.317z"/></svg>