<svg width="200" height="200" xmlns="http://www.w3.org/2000/svg"><defs><style/></defs><path d="M142.708 16.667a27.083 27.083 0 0 1 27.084 27.083v58.18a18.717 18.717 0 0 1 13.541 18.012v36.308a27.083 27.083 0 0 1-27.083 27.083H43.75a27.083 27.083 0 0 1-27.083-27.083v-36.308a18.758 18.758 0 0 1 13.541-18.021V43.75a27.083 27.083 0 0 1 27.084-27.083h85.416zm-95.833 87.725l52.33 21.675a2.083 2.083 0 0 0 1.59 0l52.33-21.675V43.75a10.417 10.417 0 0 0-10.417-10.417H57.292A10.417 10.417 0 0 0 46.875 43.75v60.642zm84.375-45.017a8.333 8.333 0 0 1-8.333 8.333H77.083a8.333 8.333 0 1 1 0-16.666h45.834a8.333 8.333 0 0 1 8.333 8.333zm0 29.167a8.333 8.333 0 0 1-8.333 8.333H77.083a8.333 8.333 0 1 1 0-16.667h45.834a8.333 8.333 0 0 1 8.333 8.334zm35.258 30.6l-.175-.334a2.083 2.083 0 0 0-2.546-.791l-56.612 23.441a18.75 18.75 0 0 1-14.35 0l-56.613-23.441a2.083 2.083 0 0 0-2.879 1.925v36.308a10.417 10.417 0 0 0 10.417 10.417h112.5a10.417 10.417 0 0 0 10.417-10.417v-36.308a2.08 2.08 0 0 0-.159-.8z"/></svg>