<svg width="200" height="200" xmlns="http://www.w3.org/2000/svg"><defs><style/></defs><path d="M173.958 43.75v124.267a14.583 14.583 0 0 1-22.191 12.441l-20.034-12.254a2.083 2.083 0 0 0-2.141-.02l-20.109 11.791a18.75 18.75 0 0 1-18.966 0l-20.109-11.792a2.083 2.083 0 0 0-2.141.021l-20.034 12.25a14.583 14.583 0 0 1-22.191-12.437V43.75a27.083 27.083 0 0 1 27.083-27.083h93.75a27.083 27.083 0 0 1 27.083 27.083zM53.125 33.333A10.417 10.417 0 0 0 42.708 43.75v120.542l16.859-10.309a18.75 18.75 0 0 1 18.362-.679l.904.496 20.113 11.792a2.083 2.083 0 0 0 2.108 0l20.113-11.792a18.75 18.75 0 0 1 19.266.183l16.859 10.313V43.75a10.417 10.417 0 0 0-9.734-10.396l-.683-.02h-93.75zm21.875 50a8.333 8.333 0 1 1 0-16.666h50a8.333 8.333 0 1 1 0 16.666H75zm0 37.5a8.333 8.333 0 1 1 0-16.666h50a8.333 8.333 0 1 1 0 16.666H75z"/></svg>