<svg width="200" height="200" xmlns="http://www.w3.org/2000/svg"><defs><style/></defs><path d="M176.042 43.75v124.267a16.667 16.667 0 0 1-25.363 14.216l-20.033-12.25-20.113 11.788a20.833 20.833 0 0 1-21.066 0l-20.113-11.792-20.033 12.254a16.667 16.667 0 0 1-25.363-14.216V43.75a29.167 29.167 0 0 1 29.167-29.167h93.75a29.167 29.167 0 0 1 29.167 29.167zM53.125 35.417a8.333 8.333 0 0 0-8.333 8.333v116.83l13.687-8.372a20.833 20.833 0 0 1 20.496-.708l.913.508L100 163.792 120.113 152a20.833 20.833 0 0 1 21.408.204l13.687 8.375V43.75a8.333 8.333 0 0 0-7.708-8.313l-.625-.02h-93.75zm21.875 50a10.417 10.417 0 0 1 0-20.834h50a10.417 10.417 0 0 1 0 20.834H75zm0 37.5a10.417 10.417 0 0 1 0-20.834h50a10.417 10.417 0 0 1 0 20.834H75z"/></svg>