<svg width="200" height="200" xmlns="http://www.w3.org/2000/svg"><defs><style/></defs><path d="M170.833 129.167H140.95l33.692 33.691a8.333 8.333 0 1 1-11.784 11.784l-33.691-33.692v29.883a8.333 8.333 0 0 1-7.709 8.313l-.625.02a8.333 8.333 0 0 1-8.333-8.333V125a12.5 12.5 0 0 1 12.5-12.5h45.833a8.333 8.333 0 1 1 0 16.667zM29.167 70.833H59.05L25.358 37.142a8.333 8.333 0 0 1 11.784-11.784L70.833 59.05V29.167a8.333 8.333 0 0 1 7.709-8.313l.625-.02a8.333 8.333 0 0 1 8.333 8.333V75A12.5 12.5 0 0 1 75 87.5H29.167a8.333 8.333 0 1 1 0-16.667z"/></svg>