<svg width="200" height="200" xmlns="http://www.w3.org/2000/svg"><defs><style/></defs><path d="M170.833 127.083h-34.912l37.25 37.25a6.25 6.25 0 0 1-8.842 8.834l-37.246-37.242v34.908a6.25 6.25 0 0 1-5.646 6.221l-.604.03a6.25 6.25 0 0 1-6.25-6.25V125A10.417 10.417 0 0 1 125 114.583h45.833a6.25 6.25 0 0 1 0 12.5zM29.167 72.917h34.912l-37.25-37.25a6.25 6.25 0 0 1 8.842-8.834L72.917 64.08V29.167a6.25 6.25 0 0 1 5.646-6.221l.604-.03a6.25 6.25 0 0 1 6.25 6.25V75A10.417 10.417 0 0 1 75 85.417H29.167a6.25 6.25 0 0 1 0-12.5z"/></svg>