<svg width="200" height="200" xmlns="http://www.w3.org/2000/svg"><defs><style/></defs><path d="M87.592 14.72c4.416-1.687 6.416-2.3 8.833-2.683a22.488 22.488 0 0 1 7.137-.008c2.417.375 4.417.98 8.842 2.658l46.467 17.634A25 25 0 0 1 175 55.696V106c0 33-23.5 58.862-69.096 77.53l-2.083.84a10.42 10.42 0 0 1-7.696-.008C49.2 165.633 25 139.5 25 106V55.867a25 25 0 0 1 16.067-23.35l46.525-17.792zm-1.109 62.867l-14.508 2.509a6.25 6.25 0 0 0-3.417 10.517l10.263 10.558c.337.35.496.833.425 1.312l-2.096 14.575a6.25 6.25 0 0 0 8.946 6.5l13.212-6.5a1.563 1.563 0 0 1 1.384 0l13.212 6.5a6.25 6.25 0 0 0 8.946-6.5l-2.096-14.575a1.563 1.563 0 0 1 .425-1.312l10.263-10.558a6.25 6.25 0 0 0-3.417-10.517l-14.508-2.508a1.563 1.563 0 0 1-1.117-.813l-6.875-13.025a6.25 6.25 0 0 0-11.054 0L87.6 76.775a1.563 1.563 0 0 1-1.117.813z"/></svg>