<svg width="200" height="200" xmlns="http://www.w3.org/2000/svg"><defs><style/></defs><path d="M103.563 12.03c2.416.374 4.416.978 8.841 2.658l46.467 17.633A25 25 0 0 1 175 55.696V106c0 33-23.5 58.862-69.096 77.53l-2.083.84a10.42 10.42 0 0 1-7.696-.008C49.2 165.633 25 139.5 25 106V55.867a25 25 0 0 1 16.067-23.35l46.525-17.792c4.416-1.692 6.416-2.304 8.833-2.688a22.488 22.488 0 0 1 7.137-.008zm-5.176 12.353c-1.383.221-2.654.609-6.333 2.013l-46.52 17.796A12.5 12.5 0 0 0 37.5 55.867v50.137c0 27.483 20.592 49.721 63.25 66.75l-.767-.312 1.221-.488c40.688-16.662 60.659-38.192 61.28-64.667l.016-1.283V55.696a12.5 12.5 0 0 0-8.067-11.688l-48-18.208c-2.079-.767-3.187-1.108-4.162-1.308l-.638-.113a10 10 0 0 0-3.246 0zm-9.441 36.45a12.5 12.5 0 0 1 22.108 0l5.8 10.984 12.238 2.125a12.5 12.5 0 0 1 10.291 13.716l-.104.73a12.5 12.5 0 0 1-3.354 6.583l-8.658 8.904 1.766 12.292a12.5 12.5 0 0 1-9.866 14.029l-.725.125a12.5 12.5 0 0 1-7.292-1.154L100 123.683l-11.146 5.484a12.5 12.5 0 0 1-16.375-5.03l-.358-.67a12.5 12.5 0 0 1-1.154-7.296l1.766-12.296-8.658-8.908a12.5 12.5 0 0 1-.317-17.084l.571-.591a12.5 12.5 0 0 1 6.584-3.354l12.233-2.126 5.8-10.979zM100 66.667l-6.875 13.025a7.813 7.813 0 0 1-5.575 4.054l-14.513 2.508 10.267 10.563a7.812 7.812 0 0 1 2.13 6.558l-2.097 14.575 13.217-6.5a7.813 7.813 0 0 1 6.892 0l13.22 6.5-2.095-14.575a7.813 7.813 0 0 1 2.129-6.558l10.258-10.567-14.508-2.508a7.813 7.813 0 0 1-5.58-4.054L100 66.667z"/></svg>