<svg width="200" height="200" xmlns="http://www.w3.org/2000/svg"><defs><style/></defs><path d="M62.362 68.092c-7.325 8.758-8.037 18.57-1.879 27.804 8.642 12.967 24.521 21.62 43.467 15.117 6.758-2.321 16.9-9.884 31.258-22.971a4.167 4.167 0 0 1 5.459-.15l15.441 15.441a25 25 0 0 1 0 35.355l-4.42 4.42-17.68-17.679a6.25 6.25 0 0 0-8.837 8.842l17.679 17.675-11.787 11.787-17.675-17.679a6.25 6.25 0 0 0-8.842 8.838l17.679 17.679-4.417 4.417a25 25 0 0 1-35.358 0l-70.708-70.709a25 25 0 0 1 0-35.354l38.3-38.3a25 25 0 0 1 35.354 0l6.2 6.196-28.859 28.862-.375.409zm35.196 31.791c-11.4 2.85-20.966-2.575-26.475-10.625a33.667 33.667 0 0 1-.2-.291c-2.883-4.33-2.775-7.925.542-12.209l.375-.458 28.633-28.637 14.459-14.459a25 25 0 0 1 35.354 0l38.008 38.009.65.675a25 25 0 0 1-.65 34.679l-12.362 12.362-.063-1a37.35 37.35 0 0 0-10.858-23.437L149.8 79.32a16.675 16.675 0 0 0-20.263-2.554l-.133.083a16.654 16.654 0 0 0-2.617 1.958l-2.408 2.175c-11.808 10.584-20.2 16.734-24.487 18.209-.784.266-1.563.5-2.334.687z"/></svg>