<svg width="200" height="200" xmlns="http://www.w3.org/2000/svg"><defs><style/></defs><path d="M183.333 100c0 46.025-37.308 83.333-83.333 83.333S16.667 146.025 16.667 100 53.975 16.667 100 16.667 183.333 53.975 183.333 100zM100 29.167c-39.12 0-70.833 31.712-70.833 70.833S60.879 170.833 100 170.833s70.833-31.712 70.833-70.833S139.121 29.167 100 29.167zM63.762 90.279A18.75 18.75 0 1 1 90.28 63.762 18.75 18.75 0 0 1 63.762 90.28zm58.925-20.625a6.252 6.252 0 0 1 8.842 8.842l-53.033 53.033a6.252 6.252 0 1 1-8.842-8.842l53.033-53.033zm-41.25 11.788a6.25 6.25 0 1 0-8.833-8.838 6.25 6.25 0 0 0 8.834 8.833zm29.467 55.979a18.75 18.75 0 1 1 26.517-26.517 18.75 18.75 0 0 1-26.517 26.517zm17.675-8.838a6.25 6.25 0 1 0-8.833-8.841 6.25 6.25 0 0 0 8.833 8.841z"/></svg>