<svg width="200" height="200" xmlns="http://www.w3.org/2000/svg"><defs><style/></defs><path d="M114.683 31.15a25 25 0 0 1 35.354 0l38.305 38.304a25 25 0 0 1 0 35.354l-14.734 14.73-4.412 4.437-9.442 9.417-2.229 2.229a25.412 25.412 0 0 1-1.525 1.67l-38.304 38.305a25 25 0 0 1-35.354 0l-70.709-70.709a25 25 0 0 1 0-35.358l38.3-38.304a25 25 0 0 1 35.355 0l14.658 14.662 14.737-14.737zm-5.896 23.575L79.375 84.137c-4.47 4.467-4.475 7.4-.046 11.834 5.309 5.304 12.059 7.575 20.442 4.396 3.566-1.355 9.791-5.988 18.146-13.771a16.675 16.675 0 0 1 23.145.396l23.709 23.708L179.5 95.967a12.5 12.5 0 0 0 .504-17.142l-.5-.533L141.2 39.987a12.5 12.5 0 0 0-17.68 0l-14.732 14.738zm23.271 40.95a4.167 4.167 0 0 0-5.254-.242l-.367.309c-9.479 8.825-16.716 14.22-22.233 16.312-13.583 5.15-25.237 1.233-33.716-7.25-9.317-9.317-9.292-20.167.05-29.508l20.57-20.571L76.45 40.067a12.5 12.5 0 0 0-17.68 0l-38.3 38.3a12.5 12.5 0 0 0 0 17.679l70.71 70.708a12.5 12.5 0 0 0 17.678 0l4.417-4.416-14.73-14.734a6.25 6.25 0 1 1 8.838-8.837l14.734 14.729 11.783-11.784-14.73-14.733a6.25 6.25 0 1 1 8.838-8.833l14.734 14.725 4.416-4.417a12.5 12.5 0 0 0 0-17.679l-15.1-15.1z"/></svg>