<svg width="200" height="200" xmlns="http://www.w3.org/2000/svg"><defs><style/></defs><path d="M86.458 16.946L30.208 49.42a18.75 18.75 0 0 0 0 32.479l56.25 32.475a27.083 27.083 0 0 0 27.084 0l56.25-32.475a18.75 18.75 0 0 0 0-32.48l-56.25-32.474a27.083 27.083 0 0 0-27.084 0zm18.75 14.433l56.25 32.475a2.083 2.083 0 0 1 0 3.609l-56.25 32.479a10.417 10.417 0 0 1-10.416 0l-56.25-32.484a2.083 2.083 0 0 1 0-3.608l56.25-32.475a10.417 10.417 0 0 1 10.416 0zm-83.52 69.733a8.333 8.333 0 0 1 11.383-3.05l61.72 35.634a10.417 10.417 0 0 0 10.417 0L166.9 98.079a8.333 8.333 0 0 1 8.333 14.434l-61.691 35.616a27.083 27.083 0 0 1-27.084 0L24.738 112.5a8.333 8.333 0 0 1-3.05-11.383zm0 33.755a8.333 8.333 0 0 1 11.383-3.05l61.72 35.641a10.417 10.417 0 0 0 10.417 0l61.692-35.616a8.333 8.333 0 1 1 8.333 14.433l-61.691 35.612a27.083 27.083 0 0 1-27.084 0l-61.72-35.633a8.333 8.333 0 0 1-3.05-11.387z" fill-rule="evenodd"/></svg>