<svg width="200" height="200" xmlns="http://www.w3.org/2000/svg"><defs><style/></defs><path d="M87.5 18.75L31.25 51.225a16.667 16.667 0 0 0 0 28.87l56.25 32.476a25 25 0 0 0 25 0l56.25-32.475a16.667 16.667 0 0 0 0-28.871L112.5 18.75a25 25 0 0 0-25 0zm18.75 10.825L162.5 62.05a4.167 4.167 0 0 1 0 7.217l-56.25 32.483a12.5 12.5 0 0 1-12.5 0L37.5 69.267a4.167 4.167 0 0 1 0-7.217l56.25-32.475a12.5 12.5 0 0 1 12.5 0zm-82.758 72.58a6.25 6.25 0 0 1 8.537-2.292L93.75 135.5a12.5 12.5 0 0 0 12.5 0l61.692-35.617a6.25 6.25 0 1 1 6.25 10.825L112.5 146.325a25 25 0 0 1-25 0l-61.72-35.633a6.25 6.25 0 0 1-2.292-8.542zm0 33.753a6.25 6.25 0 0 1 8.537-2.287l61.721 35.637a12.5 12.5 0 0 0 12.5 0l61.692-35.616a6.25 6.25 0 0 1 6.25 10.825L112.5 180.083a25 25 0 0 1-25 0l-61.72-35.637a6.25 6.25 0 0 1-2.292-8.538z" fill-rule="evenodd"/></svg>