<svg width="200" height="200" xmlns="http://www.w3.org/2000/svg"><defs><style/></defs><path d="M85.417 15.142l-56.25 32.475a20.833 20.833 0 0 0 0 36.083l56.25 32.48a29.167 29.167 0 0 0 29.166 0l56.25-32.476a20.833 20.833 0 0 0 0-36.083l-56.25-32.484a29.167 29.167 0 0 0-29.166 0zm18.75 18.041l56.25 32.475-56.25 32.48a8.333 8.333 0 0 1-8.334 0l-56.25-32.48 56.25-32.475a8.333 8.333 0 0 1 8.334 0zm-84.284 66.888a10.417 10.417 0 0 1 14.23-3.813l61.72 35.634a8.333 8.333 0 0 0 8.334 0l61.691-35.617a10.417 10.417 0 1 1 10.417 18.042l-61.692 35.625a29.167 29.167 0 0 1-29.166 0L23.696 114.3a10.417 10.417 0 0 1-3.813-14.23zm0 33.754a10.417 10.417 0 0 1 14.23-3.812l61.72 35.633a8.333 8.333 0 0 0 8.334 0l61.691-35.617a10.417 10.417 0 0 1 10.417 18.042l-61.692 35.625a29.167 29.167 0 0 1-29.166 0l-61.721-35.642a10.417 10.417 0 0 1-3.813-14.229z" fill-rule="evenodd"/></svg>