<svg width="200" height="200" xmlns="http://www.w3.org/2000/svg"><defs><style/></defs><path d="M99.112 26.125L65.3 57.337a3.75 3.75 0 0 1-2.542.996H45.833a25 25 0 0 0-25 25v33.334a25 25 0 0 0 25 25h16.925a3.75 3.75 0 0 1 2.542.995l33.813 31.209a16.667 16.667 0 0 0 27.97-12.246V38.375a16.667 16.667 0 0 0-27.97-12.25zm56.55 32.458a6.25 6.25 0 0 1 8.484 2.48A80.908 80.908 0 0 1 174.063 100c0 13.688-3.392 26.896-9.775 38.675a6.251 6.251 0 1 1-10.992-5.958 68.408 68.408 0 0 0 8.27-32.717c0-11.68-2.912-22.925-8.387-32.937a6.25 6.25 0 0 1 2.484-8.484z"/></svg>