<svg width="200" height="200" xmlns="http://www.w3.org/2000/svg"><defs><style/></defs><path d="M67.108 67.825l37.059 37.05 16.666 16.667 45.475 45.479a8.333 8.333 0 1 1-11.783 11.783l-33.692-33.687v16.508a18.75 18.75 0 0 1-31.466 13.78l-33.692-31.1a2.083 2.083 0 0 0-1.417-.555H37.5a27.083 27.083 0 0 1-27.083-27.083V83.333a27.092 27.092 0 0 1 22.02-26.612L17.021 41.308a8.335 8.335 0 1 1 11.791-11.783l26.459 26.462 11.837 11.834zm37.059 13.487V38.376a2.083 2.083 0 0 0-.555-1.417l-.279-.25a2.083 2.083 0 0 0-2.666.138l-21.3 19.667-11.792-11.796 21.792-20.121a18.75 18.75 0 0 1 31.466 13.779v59.604l-16.666-16.666zm46.17 46.167l-12.908-12.904A50.132 50.132 0 0 0 139.583 100c0-8.183-1.958-16.067-5.666-23.146a8.334 8.334 0 0 1 14.766-7.729A66.404 66.404 0 0 1 156.25 100c0 9.604-2.042 18.93-5.912 27.483zm25.25 25.25L163.154 140.3a95.525 95.525 0 0 0 8.842-40.275c0-17.887-4.896-35.038-14.021-49.958a8.333 8.333 0 1 1 14.22-8.692 112.067 112.067 0 0 1 16.468 58.65c0 18.638-4.542 36.625-13.08 52.704zM27.083 83.333v33.334A10.417 10.417 0 0 0 37.5 127.083h16.762a18.75 18.75 0 0 1 12.717 4.971l33.692 31.1a2.083 2.083 0 0 0 3.496-1.529V128.45L48.633 72.917H37.5a10.417 10.417 0 0 0-10.417 10.416z"/></svg>