<svg width="200" height="200" xmlns="http://www.w3.org/2000/svg"><defs><style/></defs><path d="M90.3 57.337l33.813-31.208a16.667 16.667 0 0 1 27.97 12.246v123.25a16.667 16.667 0 0 1-27.97 12.25L90.3 142.663a3.75 3.75 0 0 0-2.542-.996H70.833a25 25 0 0 1-25-25V83.333a25 25 0 0 1 25-25h16.925a3.75 3.75 0 0 0 2.542-.995zm49.283-18.962a4.167 4.167 0 0 0-1.104-2.825l-.379-.363a4.167 4.167 0 0 0-5.508.126L98.779 66.52a16.25 16.25 0 0 1-11.02 4.312H70.832a12.5 12.5 0 0 0-12.5 12.5v33.334a12.5 12.5 0 0 0 12.5 12.5h16.925a16.25 16.25 0 0 1 11.021 4.308l33.813 31.208a4.167 4.167 0 0 0 6.991-3.058V38.375z"/></svg>