<svg width="200" height="200" xmlns="http://www.w3.org/2000/svg"><defs><style/></defs><path d="M153.412 24.704a6.25 6.25 0 0 1 9.875-7.667 134.283 134.283 0 0 1 20.859 38.359 134.508 134.508 0 0 1 7.52 44.604c0 14.725-2.308 29.013-6.924 42.858a134.233 134.233 0 0 1-19.271 37.209l-.004.008a6.25 6.25 0 1 1-10.075-7.4 121.82 121.82 0 0 0 17.491-33.77A122.204 122.204 0 0 0 179.167 100c0-13.95-2.275-27.446-6.821-40.487a121.85 121.85 0 0 0-18.933-34.809zM48.75 57.23l33.692-31.1a16.667 16.667 0 0 1 27.975 12.246v123.25a16.667 16.667 0 0 1-27.971 12.25L48.75 142.767a4.167 4.167 0 0 0-2.825-1.104H29.167a25 25 0 0 1-25-25V83.328a25 25 0 0 1 25-25h16.762a4.167 4.167 0 0 0 2.825-1.104zm92.237-16.837a6.25 6.25 0 0 1 8.592 2.07 109.983 109.983 0 0 1 16.163 57.563c0 20.108-5.388 39.442-15.442 56.363A6.25 6.25 0 0 1 139.558 150a97.488 97.488 0 0 0 13.688-49.975c0-18.275-5.004-35.796-14.33-51.042a6.25 6.25 0 0 1 2.076-8.591zm-15.091 27.062a6.25 6.25 0 0 1 8.437 2.638A64.33 64.33 0 0 1 141.667 100c0 10.517-2.521 20.683-7.28 29.817a6.25 6.25 0 1 1-11.083-5.78A51.83 51.83 0 0 0 129.167 100c0-8.52-2.042-16.738-5.904-24.113a6.25 6.25 0 0 1 2.641-8.433z"/></svg>