<svg width="200" height="200" xmlns="http://www.w3.org/2000/svg"><defs><style/></defs><path d="M125.725 24.246a20.833 20.833 0 0 1 5.525 14.129v123.25a20.833 20.833 0 0 1-34.962 15.308l-33.696-31.1H45.833a29.167 29.167 0 0 1-29.15-28.166l-.016-1V83.333a29.167 29.167 0 0 1 29.166-29.166h16.755l33.7-31.1a20.833 20.833 0 0 1 29.437 1.179zm-49.12 45.337A20.417 20.417 0 0 1 62.757 75H45.833a8.333 8.333 0 0 0-8.333 8.333v33.334A8.333 8.333 0 0 0 45.833 125h16.925a20.417 20.417 0 0 1 13.846 5.417l33.813 31.208V38.375L76.604 69.583zM178.228 100c0 14.38-3.566 28.27-10.279 40.658a10.418 10.418 0 0 1-18.317-9.933A64.242 64.242 0 0 0 157.4 100c0-10.975-2.733-21.533-7.875-30.937a10.417 10.417 0 1 1 18.275-10A85.075 85.075 0 0 1 178.233 100z"/></svg>