<svg width="200" height="200" xmlns="http://www.w3.org/2000/svg"><defs><style/></defs><path d="M87.954 23.067a20.833 20.833 0 0 1 34.963 15.308v58.754l-20.834-20.833V38.375l-19.72 18.204L67.62 41.833l20.333-18.766zM137.5 100c0-7.283-1.62-14.317-4.696-20.717l-.733-1.462a10.417 10.417 0 0 1 18.458-9.663A68.492 68.492 0 0 1 158.333 100c0 9.417-1.9 18.57-5.52 27.03l-16.475-16.48A48.273 48.273 0 0 0 137.5 100zm32.413.025c0-17.5-4.792-34.275-13.717-48.867a10.418 10.418 0 1 1 17.775-10.87 114.15 114.15 0 0 1 16.775 59.737c0 18.458-4.375 36.296-12.613 52.325l-15.654-15.658a93.508 93.508 0 0 0 7.433-36.667zm-1.792 65.883a10.417 10.417 0 0 1-15.071 14.375l-30.133-30.133v11.475a20.833 20.833 0 0 1-34.963 15.308l-33.696-31.1H37.5a29.167 29.167 0 0 1-29.167-29.166V83.333a29.18 29.18 0 0 1 20.054-27.716L15.554 42.783a10.417 10.417 0 0 1 14.73-14.733l.016.017-.008.008 137.833 137.833zM29.167 83.333v33.334A8.333 8.333 0 0 0 37.5 125h16.762a20.833 20.833 0 0 1 14.125 5.525l33.696 31.1v-32.308L47.767 75H37.5a8.333 8.333 0 0 0-8.333 8.333z"/></svg>