<svg width="200" height="200" xmlns="http://www.w3.org/2000/svg"><defs><style/></defs><path d="M153.412 24.704a6.25 6.25 0 0 1 9.875-7.667 134.283 134.283 0 0 1 20.859 38.359 134.508 134.508 0 0 1 7.52 44.604c0 14.725-2.308 29.013-6.924 42.858a134.233 134.233 0 0 1-19.271 37.209l-.004.008a6.25 6.25 0 1 1-10.075-7.4 121.82 121.82 0 0 0 17.491-33.77A122.204 122.204 0 0 0 179.167 100c0-13.95-2.275-27.446-6.821-40.487a121.85 121.85 0 0 0-18.933-34.809zM48.75 57.23l33.692-31.1a16.667 16.667 0 0 1 27.975 12.246v123.25a16.667 16.667 0 0 1-27.971 12.25L48.75 142.767a4.167 4.167 0 0 0-2.825-1.104H29.167a25 25 0 0 1-25-25V83.328a25 25 0 0 1 25-25h16.762a4.167 4.167 0 0 0 2.825-1.104zm49.167-18.854a4.167 4.167 0 0 0-1.104-2.825l-.38-.363a4.167 4.167 0 0 0-5.508.125l-33.692 31.1a16.667 16.667 0 0 1-11.304 4.421H29.167a12.5 12.5 0 0 0-12.5 12.5v33.334a12.5 12.5 0 0 0 12.5 12.5h16.762a16.667 16.667 0 0 1 11.304 4.416l33.692 31.104a4.167 4.167 0 0 0 6.992-3.062V38.375zm67.829 61.65c0 20.108-5.388 39.442-15.442 56.363A6.25 6.25 0 0 1 139.558 150a97.488 97.488 0 0 0 13.688-49.975c0-18.275-5.004-35.796-14.33-51.042a6.251 6.251 0 1 1 10.667-6.52 109.983 109.983 0 0 1 16.163 57.562zm-24.08-.025c0 10.517-2.52 20.683-7.279 29.817a6.25 6.25 0 1 1-11.083-5.78A51.83 51.83 0 0 0 129.167 100c0-8.52-2.042-16.738-5.905-24.113a6.25 6.25 0 0 1 11.075-5.791 64.33 64.33 0 0 1 7.33 29.904z"/></svg>