<svg width="200" height="200" xmlns="http://www.w3.org/2000/svg"><defs><style/></defs><path d="M22.917 152.083V47.917c0-6.904 2.441-12.796 7.32-17.68 4.888-4.879 10.776-7.32 17.68-7.32h104.166c6.904 0 12.796 2.441 17.68 7.32 4.879 4.888 7.32 10.775 7.32 17.68v104.166c0 6.904-2.441 12.796-7.32 17.68-4.888 4.879-10.776 7.32-17.68 7.32H47.917c-6.905 0-12.796-2.441-17.68-7.32-4.879-4.888-7.32-10.776-7.32-17.68zm12.5 0c0 3.45 1.22 6.396 3.662 8.838a12.042 12.042 0 0 0 8.838 3.662h90.908l-69.82-69.825a12.5 12.5 0 0 0-17.68 0l-13.57 13.575a6.23 6.23 0 0 1-2.338 1.475v42.275zm0-59.091l7.07-7.071a25 25 0 0 1 35.355 0l77.908 77.904.183.192c1.85-.584 3.513-1.617 4.992-3.096a12.042 12.042 0 0 0 3.658-8.838V47.917a12.042 12.042 0 0 0-3.662-8.838 12.042 12.042 0 0 0-8.838-3.662H47.917a12.042 12.042 0 0 0-8.838 3.662 12.042 12.042 0 0 0-3.662 8.838v45.075zm65.625-19.034a22.917 22.917 0 1 1 45.833 0 22.917 22.917 0 0 1-45.833 0zm22.916 10.417a10.417 10.417 0 1 0 0-20.833 10.417 10.417 0 0 0 0 20.833z"/></svg>