<svg width="200" height="200" xmlns="http://www.w3.org/2000/svg"><defs><style/></defs><path d="M186.458 54.167v91.666A29.167 29.167 0 0 1 157.292 175H42.708a29.167 29.167 0 0 1-29.166-29.167V54.167A29.167 29.167 0 0 1 42.708 25h114.584a29.167 29.167 0 0 1 29.166 29.167zm-143.75-8.334a8.333 8.333 0 0 0-8.333 8.334v47.766L45 91.308a29.167 29.167 0 0 1 41.25 0l62.854 62.859h8.188a8.333 8.333 0 0 0 8.333-8.334V54.167a8.333 8.333 0 0 0-8.333-8.334H42.708zm-8.333 85.417v14.583a8.333 8.333 0 0 0 8.333 8.334h76.934l-48.125-48.125a8.333 8.333 0 0 0-11.784 0l-24.241 24.241a10.496 10.496 0 0 1-1.117.967zm114.583-53.125a15.625 15.625 0 1 1-31.25 0 15.625 15.625 0 0 1 31.25 0z"/></svg>