<svg width="200" height="200" xmlns="http://www.w3.org/2000/svg"><defs><style/></defs><path d="M130.675 177.483a82.475 82.475 0 0 0 28.25-18.558 82.475 82.475 0 0 0 18.558-28.25 82.604 82.604 0 0 0 5.85-30.675c0-10.596-1.95-20.82-5.85-30.675a82.475 82.475 0 0 0-18.558-28.25 82.475 82.475 0 0 0-28.25-18.558A82.604 82.604 0 0 0 100 16.667c-10.596 0-20.82 1.95-30.675 5.85a82.48 82.48 0 0 0-28.25 18.558 82.48 82.48 0 0 0-18.558 28.25A82.604 82.604 0 0 0 16.667 100c0 10.596 1.95 20.82 5.85 30.675a82.475 82.475 0 0 0 18.558 28.25 82.475 82.475 0 0 0 28.25 18.558 82.604 82.604 0 0 0 30.675 5.85c10.596 0 20.82-1.95 30.675-5.85zm-4.6-143.341a70.104 70.104 0 0 1 24.012 15.77 70.108 70.108 0 0 1 15.776 24.013 70.217 70.217 0 0 1 4.97 26.075c0 9.008-1.658 17.7-4.97 26.075a70.108 70.108 0 0 1-15.775 24.012 70.108 70.108 0 0 1-24.013 15.771A70.217 70.217 0 0 1 100 170.833a70.176 70.176 0 0 1-26.07-4.975 70.108 70.108 0 0 1-24.018-15.77 70.104 70.104 0 0 1-15.77-24.013A70.213 70.213 0 0 1 29.167 100c0-9.008 1.658-17.7 4.975-26.075a70.104 70.104 0 0 1 15.77-24.013 70.104 70.104 0 0 1 24.017-15.77A70.213 70.213 0 0 1 100 29.167c9.008 0 17.7 1.658 26.075 4.975zm-47.933 95.245l29.083-29.083 13.258 13.258 10.1-40.404a4.167 4.167 0 0 0-5.054-5.054l-33.262 8.317a4.167 4.167 0 0 0-1.938 6.987l8.058 8.054-29.083 29.084a6.25 6.25 0 1 0 8.838 8.841z"/></svg>