<svg width="200" height="200" xmlns="http://www.w3.org/2000/svg"><defs><style/></defs><path d="M104.167 10.417c32.791 0 59.375 26.583 59.375 59.375 0 26.346-16.513 52.283-48.859 77.933l.03-.025-.196.158.166-.133-.162.142a16.667 16.667 0 0 1-19.934.566l-.737-.554c-32.48-25.7-49.058-51.691-49.058-78.087 0-32.792 26.583-59.375 59.375-59.375zm0 38.541a20.833 20.833 0 1 0 0 41.667 20.833 20.833 0 0 0 0-41.667zM86.279 157.825l.771.583a29.167 29.167 0 0 0 35.23-.737l.378-.317c18.971-15.075 33.084-30.542 42.021-46.454a20.838 20.838 0 0 1 15.358 13.975l11.125 34.608a16.667 16.667 0 0 1-15.87 21.767H33.042a16.667 16.667 0 0 1-15.871-21.767l11.125-34.608A20.833 20.833 0 0 1 43.654 110.9c9 16.03 23.254 31.604 42.433 46.78l.192.145z"/></svg>