<svg width="200" height="200" xmlns="http://www.w3.org/2000/svg"><defs><style/></defs><path d="M100 16.667c11.3 0 22.112 2.183 32.438 6.55a82.667 82.667 0 0 1 26.487 17.858 82.667 82.667 0 0 1 17.858 26.488 82.442 82.442 0 0 1 6.55 32.437c0 11.3-2.183 22.112-6.55 32.438a82.667 82.667 0 0 1-17.858 26.487 82.667 82.667 0 0 1-26.488 17.858 82.442 82.442 0 0 1-32.437 6.55c-11.3 0-22.113-2.183-32.438-6.55a82.667 82.667 0 0 1-26.487-17.858 82.667 82.667 0 0 1-17.858-26.488A82.442 82.442 0 0 1 16.667 100c0-11.3 2.183-22.113 6.55-32.438a82.667 82.667 0 0 1 17.858-26.487 82.667 82.667 0 0 1 26.487-17.858A82.438 82.438 0 0 1 100 16.667zM77.88 32.683a70.28 70.28 0 0 0-27.967 17.234 70.342 70.342 0 0 0-12.438 16.75h27.867c1.512-8.017 3.625-15.367 6.337-22.05 1.854-4.567 3.921-8.542 6.2-11.934zM32.27 79.167A70.27 70.27 0 0 0 29.168 100c0 7.925 1.262 15.563 3.783 22.917h30.812A196.817 196.817 0 0 1 62.5 100c0-7.325.342-14.27 1.033-20.833H32.271zm6.36 56.25a70.5 70.5 0 0 0 11.283 14.666 70.28 70.28 0 0 0 22.516 15.188c1.8.758 3.617 1.442 5.45 2.046-2.279-3.388-4.346-7.367-6.2-11.934a113.358 113.358 0 0 1-5.925-19.966H38.625zm83.487 31.9a70.283 70.283 0 0 0 27.966-17.234 70.5 70.5 0 0 0 11.288-14.666h-27.125a113.358 113.358 0 0 1-5.925 19.966c-1.854 4.567-3.921 8.542-6.204 11.934zm44.937-44.4c2.521-7.355 3.783-14.992 3.783-22.917 0-7.18-1.033-14.125-3.104-20.833h-31.262c.691 6.562 1.033 13.508 1.033 20.833 0 8.104-.42 15.746-1.262 22.917h30.812zm-4.529-56.25a70.346 70.346 0 0 0-12.438-16.75 70.28 70.28 0 0 0-22.516-15.188 71.296 71.296 0 0 0-5.454-2.046c2.283 3.388 4.35 7.367 6.204 11.934 2.712 6.683 4.825 14.033 6.333 22.05h27.871zm-79.263-17.35a100.592 100.592 0 0 0-5.179 17.35h43.834a100.592 100.592 0 0 0-5.18-17.35c-2.5-6.167-5.341-10.834-8.508-14.004-2.708-2.709-5.45-4.063-8.229-4.063s-5.52 1.354-8.23 4.063c-3.166 3.166-6.003 7.837-8.508 14.004zm-6.908 73.6h47.292C124.55 115.82 125 108.183 125 100c0-7.387-.367-14.333-1.104-20.833H76.104A185.65 185.65 0 0 0 75 100c0 8.183.45 15.82 1.354 22.917zm15.417 41.77c2.708 2.709 5.45 4.063 8.229 4.063s5.52-1.354 8.23-4.063c3.166-3.166 6.003-7.837 8.507-14.004a98.583 98.583 0 0 0 4.725-15.266h-42.92a98.583 98.583 0 0 0 4.725 15.266c2.5 6.167 5.341 10.834 8.508 14.004z"/></svg>