<svg width="200" height="200" xmlns="http://www.w3.org/2000/svg"><defs><style/></defs><path d="M116.442 119.237c-.438.28-1.221.73-2.35 1.359l-26.538 14.741c-3.458 1.926-5.987 3.063-7.579 3.409a16.537 16.537 0 0 1-6.03.242l-2.807 2.808c-1.442 1.442-2.167 2.167-3.009 2.679a8.212 8.212 0 0 1-2.396.992c-.958.233-1.987.233-4.025.233H44.233c-7.57 0-11.491-.02-13.208-1.563a6.4 6.4 0 0 1-2.1-5.066c.125-2.304 2.883-5.088 8.238-10.442l13.212-13.212c-.292-1.959-.212-3.967.238-6.03.35-1.591 1.487-4.116 3.408-7.583l14.746-26.533a49.517 49.517 0 0 1 1.358-2.35 25.654 25.654 0 0 1 2.325-3.084c.342-.383.967-1.033 1.883-1.95L112.9 29.321c3.27-3.275 5.57-5.492 6.892-6.654 2.241-1.98 4.333-3.413 6.275-4.3a24.725 24.725 0 0 1 10.404-2.259c3.637 0 7.104.75 10.4 2.259 1.942.887 4.033 2.32 6.279 4.3 1.32 1.162 3.617 3.379 6.892 6.654 3.27 3.275 5.491 5.57 6.654 6.891 1.979 2.246 3.408 4.334 4.296 6.28 1.508 3.291 2.262 6.762 2.262 10.4s-.75 7.104-2.262 10.404c-.888 1.937-2.317 4.029-4.296 6.275-1.167 1.32-3.383 3.616-6.654 6.891l-38.567 38.567c-.917.917-1.567 1.542-1.954 1.883a25.09 25.09 0 0 1-3.083 2.325zm43.183-61.141c1.583-3.471 1.583-6.938 0-10.408-.62-1.355-3.43-4.53-8.425-9.53-4.996-4.995-8.17-7.804-9.53-8.42-3.466-1.588-6.937-1.588-10.403 0-1.354.616-4.534 3.425-9.53 8.42L84.909 74.992l29.463 29.458 36.833-36.825c4.992-5 7.8-8.175 8.421-9.53zM64.95 107.875c-1.333 2.392-2.042 3.788-2.125 4.183a4.042 4.042 0 0 0 .4 2.867c.192.358 1.258 1.504 3.192 3.442l4.575 4.57c1.937 1.938 3.083 3 3.437 3.192a4.042 4.042 0 0 0 2.871.404c.396-.087 1.792-.796 4.183-2.125l22.613-12.562-26.583-26.584-12.563 22.613zm-19.708 27.404h16.466l1.209-.004.854-.85.517-.517-8.842-8.833-10.208 10.204zm-19.584 42.958c-.654-1.516-.658-3.516-.658-7.404s.008-5.883.654-7.408a8.363 8.363 0 0 1 4.438-4.438c1.525-.645 3.525-.654 7.408-.654h125c3.883 0 5.883.009 7.412.654a8.384 8.384 0 0 1 4.434 4.438c.646 1.525.654 3.525.654 7.408s-.008 5.884-.654 7.413a8.363 8.363 0 0 1-4.438 4.433c-1.525.646-3.525.654-7.408.654h-125c-3.883 0-5.883-.008-7.408-.654a8.363 8.363 0 0 1-4.438-4.433z"/></svg>