<svg width="200" height="200" xmlns="http://www.w3.org/2000/svg"><defs><style/></defs><path d="M79.167 22.917h66.666q12.946 0 22.096 9.154 9.154 9.15 9.154 22.096v75a6.25 6.25 0 0 1-12.5 0v-75q0-7.767-5.491-13.259-5.492-5.491-13.259-5.491H79.167a6.25 6.25 0 0 1 0-12.5zm-44.763 32.32q-7.32 7.325-7.32 17.68v83.333q0 10.354 7.32 17.68 7.325 7.32 17.68 7.32H125q10.354 0 17.68-7.32 7.32-7.326 7.32-17.68V72.917q0-10.355-7.32-17.68-7.326-7.32-17.68-7.32H52.083q-10.354 0-17.679 7.32z" fill-rule="evenodd"/></svg>