<svg width="200" height="200" xmlns="http://www.w3.org/2000/svg"><defs><style/></defs><path d="M158.017 45.833h8.65c9.125 0 16.666 7.542 16.666 16.667v10.417c0 8.629-3.05 15.996-9.154 22.096-5.154 5.158-11.217 8.137-18.179 8.933a58.567 58.567 0 0 1-14.738 24.817 58.425 58.425 0 0 1-35.012 16.75v25.32h25a6.25 6.25 0 0 1 0 12.5h-62.5a6.25 6.25 0 0 1 0-12.5h25V145.5a58.425 58.425 0 0 1-34.954-16.78 58.567 58.567 0 0 1-14.692-24.762c-7.008-.779-13.1-3.762-18.283-8.945-6.104-6.096-9.154-13.467-9.154-22.096V62.5c0-9.125 7.541-16.667 16.666-16.667h8.65C43.846 33.904 54.692 25 66.667 25h66.666c11.98 0 22.821 8.904 24.684 20.833zm-90.375 74.059a45.98 45.98 0 0 0 32.412 13.441c12.084 0 23.825-4.862 32.375-13.408a45.98 45.98 0 0 0 13.404-32.375V50c0-6.842-5.658-12.5-12.5-12.5H66.667a12.583 12.583 0 0 0-12.5 12.5l.1 37.462a45.975 45.975 0 0 0 13.375 32.43zM29.167 62.5v10.417c0 5.179 1.833 9.595 5.491 13.258a18.346 18.346 0 0 0 7.192 4.542c0-11.55-.133-21.617-.162-32.384h-8.355c-2.279 0-4.166 1.888-4.166 4.167zm137.5-4.167h-8.334c0 10.75-.083 20.834-.083 32.35a18.367 18.367 0 0 0 7.092-4.508c3.662-3.663 5.491-8.083 5.491-13.258V62.5c0-2.28-1.887-4.167-4.166-4.167z"/></svg>