<svg width="200" height="200" xmlns="http://www.w3.org/2000/svg"><defs><style/></defs><path d="M181.25 79.167c0 33.366-27.05 60.416-60.417 60.416a60.417 60.417 0 0 1-38.07-13.504l-17.68 17.671 26.834 26.833a6.25 6.25 0 0 1-8.842 8.834L56.25 152.592l-26.833 26.833a6.25 6.25 0 0 1-8.834-8.842l26.83-26.829-26.834-26.833a6.25 6.25 0 0 1 8.842-8.833l26.829 26.829 17.67-17.675a60.417 60.417 0 0 1-13.503-38.075c0-33.367 27.05-60.417 60.416-60.417S181.25 45.8 181.25 79.167zM120.833 31.25c-26.462 0-47.916 21.454-47.916 47.917s21.454 47.916 47.916 47.916 47.917-21.454 47.917-47.916-21.454-47.917-47.917-47.917z"/></svg>