<svg width="200" height="200" xmlns="http://www.w3.org/2000/svg"><defs><style/></defs><path d="M185.417 79.167c0 35.666-28.917 64.583-64.584 64.583A64.583 64.583 0 0 1 83.13 131.6l-12.15 12.15 23.888 23.883a10.418 10.418 0 0 1-14.734 14.734L56.25 158.479l-23.883 23.888a10.418 10.418 0 0 1-14.734-14.734l23.884-23.883-23.884-23.883a10.418 10.418 0 0 1 14.734-14.734l23.883 23.888 12.15-12.15a64.583 64.583 0 0 1-12.15-37.704c0-35.667 28.917-64.584 64.583-64.584 35.667 0 64.584 28.917 64.584 64.584zm-64.584-43.75c-24.162 0-43.75 19.587-43.75 43.75s19.588 43.75 43.75 43.75 43.75-19.588 43.75-43.75-19.587-43.75-43.75-43.75z"/></svg>