<svg width="200" height="200" xmlns="http://www.w3.org/2000/svg"><defs><style/></defs><path d="M87.008 16.992a24.458 24.458 0 0 1 12.921-3.617 24.458 24.458 0 0 1 12.921 3.613l73.804 44.766c3.342 2.025 5.013 4.996 5.013 8.908 0 3.917-1.671 6.884-5.017 8.909l-27.792 16.85v46.375c-.004 4.567-1.166 8.812-3.491 12.737a24.563 24.563 0 0 1-9.492 9.184l-34.333 18.829a24.604 24.604 0 0 1-12.138 3.079 24.608 24.608 0 0 1-12.112-3.192l-33.375-18.712a24.57 24.57 0 0 1-9.342-9.171 24.57 24.57 0 0 1-3.43-12.637v-46.5L31.25 90.4v52.975a6.25 6.25 0 0 1-12.5 0V82.808l-5.408-3.283c-3.342-2.03-5.009-5-5.009-8.908s1.667-6.875 5.009-8.905l73.666-44.72zm6.488 10.687L22.758 70.621 93.525 113.6a12.155 12.155 0 0 0 6.433 1.804 12.19 12.19 0 0 0 6.438-1.796l70.841-42.946-70.87-42.987a12.183 12.183 0 0 0-6.434-1.8c-2.312 0-4.458.6-6.437 1.804zm6.458 100.225a24.458 24.458 0 0 1-12.916-3.62l-33.392-20.28v38.913c0 2.262.57 4.366 1.712 6.316a12.284 12.284 0 0 0 4.675 4.584l33.375 18.716a12.305 12.305 0 0 0 6.054 1.596 12.3 12.3 0 0 0 6.067-1.541l34.333-18.83c2-1.096 3.584-2.625 4.75-4.587a12.294 12.294 0 0 0 1.742-6.371v-38.792L112.88 124.3a24.454 24.454 0 0 1-12.925 3.608z"/></svg>