<svg width="200" height="200" xmlns="http://www.w3.org/2000/svg"><defs><style/></defs><path d="M87.033 16.863a24.446 24.446 0 0 1 12.909-3.613c4.637 0 8.941 1.2 12.912 3.608l73.8 44.725c3.342 2.03 5.013 5 5.013 8.917s-1.671 6.888-5.013 8.912l-73.8 44.734a24.442 24.442 0 0 1-12.912 3.608 24.446 24.446 0 0 1-12.909-3.617L31.25 90.28v53.142a6.25 6.25 0 0 1-12.5 0V82.696l-5.408-3.284c-3.338-2.029-5.009-5-5.009-8.912 0-3.917 1.667-6.883 5.009-8.908l73.691-44.73zm0 119.775a24.442 24.442 0 0 0 12.909 3.616 24.446 24.446 0 0 0 12.912-3.608l46.521-28.196v34.45a24.396 24.396 0 0 1-3.52 12.737 24.683 24.683 0 0 1-9.576 9.184l-34.637 18.829a24.996 24.996 0 0 1-12.246 3.083 25 25 0 0 1-12.217-3.196l-33.666-18.712a24.688 24.688 0 0 1-9.43-9.17 24.408 24.408 0 0 1-3.458-12.638V108.47l46.408 28.167z"/></svg>