<svg width="200" height="200" xmlns="http://www.w3.org/2000/svg"><defs><style/></defs><path d="M176.042 84.375c0 34.3-21.842 67.833-64.567 100.754a18.73 18.73 0 0 1-22.896.034c-42.762-32.934-64.62-66.48-64.62-100.788 0-42 34.041-76.042 76.041-76.042s76.042 34.042 76.042 76.042zm-135.417 0c0 28.25 19.058 57.5 58.12 87.583.75.571 1.784.571 2.542-.016 39.042-30.084 58.088-59.33 58.088-87.567C159.375 51.583 132.792 25 100 25S40.625 51.583 40.625 84.375zm92.708 0a33.333 33.333 0 1 1-66.666 0 33.333 33.333 0 0 1 66.666 0zM100 67.708a16.667 16.667 0 1 0 0 33.334 16.667 16.667 0 0 0 0-33.334z"/></svg>