<svg width="200" height="200" xmlns="http://www.w3.org/2000/svg"><defs><style/></defs><path d="M40.625 69.792C40.625 37 67.208 10.417 100 10.417S159.375 37 159.375 69.792c0 13.646-4.43 27.183-13.192 40.625h9.854a20.833 20.833 0 0 1 19.834 14.458l11.125 34.608a16.667 16.667 0 0 1-15.871 21.767H28.875a16.667 16.667 0 0 1-15.87-21.767l11.124-34.608a20.833 20.833 0 0 1 19.833-14.458h9.859c-8.767-13.442-13.196-26.98-13.196-40.625zm22.58 53.083c-.23.03-.467.042-.705.042H43.962a8.333 8.333 0 0 0-7.933 5.783l-11.125 34.608a4.167 4.167 0 0 0 3.971 5.442h142.25a4.167 4.167 0 0 0 3.967-5.442L163.967 128.7a8.333 8.333 0 0 0-7.925-5.783h-17.5c-.555 0-1.092-.071-1.6-.209-7.167 8.417-16.038 16.792-26.584 25.142a16.65 16.65 0 0 1-20.696.013l-1.775-1.417c-9.708-7.825-17.941-15.68-24.683-23.567zm83.67-53.083c0-25.888-20.988-46.875-46.875-46.875S53.125 43.904 53.125 69.792c0 21.504 13.983 43.846 42.583 66.904l1.721 1.375a4.15 4.15 0 0 0 5.163-.013c29.75-23.55 44.283-46.341 44.283-68.266zm-72.742 0a25.867 25.867 0 1 1 51.734 0 25.867 25.867 0 0 1-51.734 0zM100 83.158a13.367 13.367 0 1 0 0-26.733 13.367 13.367 0 0 0 0 26.733z"/></svg>