<svg width="200" height="200" xmlns="http://www.w3.org/2000/svg"><defs><style/></defs><path d="M100 6.25a6.25 6.25 0 0 1 6.25 6.25v11.717a76.042 76.042 0 0 1 69.533 69.533H187.5a6.25 6.25 0 0 1 0 12.5h-11.717a76.042 76.042 0 0 1-69.533 69.533V187.5a6.25 6.25 0 0 1-12.5 0v-11.717a76.042 76.042 0 0 1-69.533-69.533H12.5a6.25 6.25 0 0 1 0-12.5h11.717A76.042 76.042 0 0 1 93.75 24.217V12.5A6.25 6.25 0 0 1 100 6.25zm0 30.208c-35.092 0-63.542 28.45-63.542 63.542s28.45 63.542 63.542 63.542 63.542-28.45 63.542-63.542S135.092 36.458 100 36.458zM118.75 100a18.75 18.75 0 1 1-37.5 0 18.75 18.75 0 0 1 37.5 0z"/></svg>