<svg width="200" height="200" xmlns="http://www.w3.org/2000/svg"><defs><style/></defs><path d="M173.958 84.375c0 33.542-21.496 66.542-63.758 99.108a16.646 16.646 0 0 1-20.35.03c-42.3-32.58-63.808-65.584-63.808-99.138 0-40.846 33.112-73.958 73.958-73.958s73.958 33.112 73.958 73.958zm-135.416 0c0 29.004 19.408 58.792 58.933 89.233a4.152 4.152 0 0 0 5.083-.016c39.5-30.442 58.9-60.217 58.9-89.217 0-33.942-27.516-61.458-61.458-61.458S38.542 50.433 38.542 84.375zm42.708 0a18.75 18.75 0 1 1 37.5 0 18.75 18.75 0 0 1-37.5 0z"/></svg>