<svg width="200" height="200" xmlns="http://www.w3.org/2000/svg"><defs><style/></defs><path d="M38.542 69.792C38.542 35.85 66.058 8.333 100 8.333s61.458 27.517 61.458 61.459c0 12.983-3.875 25.825-11.512 38.541h6.092a22.917 22.917 0 0 1 21.816 15.904l11.125 34.609a18.75 18.75 0 0 1-17.854 24.487H28.875a18.75 18.75 0 0 1-17.854-24.487l11.125-34.608a22.917 22.917 0 0 1 21.816-15.905h6.092c-7.642-12.716-11.512-25.558-11.512-38.541zM62.283 125H43.958a6.25 6.25 0 0 0-5.95 4.337l-11.125 34.609a2.083 2.083 0 0 0 1.992 2.72h142.25a2.083 2.083 0 0 0 1.983-2.72l-11.125-34.608a6.25 6.25 0 0 0-5.941-4.338h-17.5a8.417 8.417 0 0 1-.792-.038c-7.125 8.221-15.83 16.392-26.092 24.517a18.738 18.738 0 0 1-23.291.013l-1.792-1.417c-9.48-7.65-17.588-15.342-24.292-23.075zm82.509-55.208C144.792 45.054 124.737 25 100 25S55.208 45.054 55.208 69.792c0 20.77 13.65 42.583 41.792 65.275l1.72 1.37a2.067 2.067 0 0 0 2.576-.012c29.3-23.192 43.496-45.458 43.496-66.633zm-72.742 0a27.95 27.95 0 1 1 55.9 0 27.95 27.95 0 0 1-55.9 0zM100 81.075a11.283 11.283 0 1 0 0-22.567 11.283 11.283 0 0 0 0 22.567z"/></svg>