<svg width="200" height="200" xmlns="http://www.w3.org/2000/svg"><defs><style/></defs><path d="M178.125 84.375c0 35.058-22.192 69.125-65.375 102.404a20.813 20.813 0 0 1-25.442.033c-43.225-33.291-65.433-67.37-65.433-102.437C21.875 41.229 56.855 6.25 100 6.25s78.125 34.98 78.125 78.125zm-135.417 0c0 27.492 18.709 56.208 57.3 85.92 37.934-29.228 56.646-57.466 57.267-84.52l.017-1.4c0-31.642-25.65-57.292-57.292-57.292s-57.292 25.65-57.292 57.292zm38.542 0a18.75 18.75 0 1 1 37.5 0 18.75 18.75 0 0 1-37.5 0z"/></svg>