<svg width="200" height="200" xmlns="http://www.w3.org/2000/svg"><defs><style/></defs><path d="M100 4.167a8.333 8.333 0 0 1 8.333 8.333v9.82a78.125 78.125 0 0 1 69.346 69.347h9.821a8.333 8.333 0 1 1 0 16.666h-9.82a78.125 78.125 0 0 1-69.347 69.346v9.821a8.333 8.333 0 0 1-16.666 0v-9.82a78.125 78.125 0 0 1-69.346-69.347H12.5a8.333 8.333 0 1 1 0-16.666h9.82A78.125 78.125 0 0 1 91.668 22.32V12.5A8.333 8.333 0 0 1 100 4.167zm0 34.375c-33.942 0-61.458 27.516-61.458 61.458S66.058 161.458 100 161.458s61.458-27.516 61.458-61.458S133.942 38.542 100 38.542zM118.75 100a18.75 18.75 0 1 1-37.5 0 18.75 18.75 0 0 1 37.5 0z"/></svg>