<svg width="200" height="200" xmlns="http://www.w3.org/2000/svg"><defs><style/></defs><path d="M100 16.667c34.883 0 64.358 23.17 73.862 54.962a23.967 23.967 0 0 1 17.805 23.163v20.833a23.958 23.958 0 0 1-22.13 23.888c-11.729 24.433-36 41.804-64.75 43.545l-4.283.259a8.333 8.333 0 1 1-1.008-16.634l4.283-.262a60.267 60.267 0 0 0 49.488-31.68 23.917 23.917 0 0 1-9.517-19.116V94.792A23.958 23.958 0 0 1 156.904 73.4C148.55 50.046 126.23 33.333 100 33.333S51.45 50.042 43.096 73.4A23.958 23.958 0 0 1 56.25 94.792v20.833a23.958 23.958 0 0 1-47.917 0V94.792a23.967 23.967 0 0 1 17.805-23.163C35.646 39.838 65.117 16.667 100 16.667zM39.583 94.792a7.292 7.292 0 1 0-14.583 0v20.833a7.292 7.292 0 1 0 14.583 0V94.792zm135.417 0a7.292 7.292 0 1 0-14.583 0v20.833a7.292 7.292 0 1 0 14.583 0V94.792zm-75 32.291a20.758 20.758 0 0 0 15.617-7.045 8.335 8.335 0 0 1 12.491 11.037A37.42 37.42 0 0 1 100 143.75a37.42 37.42 0 0 1-28.117-12.687 8.333 8.333 0 1 1 12.492-11.034A20.758 20.758 0 0 0 100 127.083z"/></svg>