<svg width="200" height="200" xmlns="http://www.w3.org/2000/svg"><defs><style/></defs><path d="M100 18.75c34.358 0 63.325 23.108 72.2 54.625a21.883 21.883 0 0 1 17.383 21.417v20.833a21.875 21.875 0 0 1-21.4 21.87c-11.2 24.355-35.112 41.763-63.52 43.484l-4.284.258a6.25 6.25 0 0 1-.758-12.475l4.287-.262a62.358 62.358 0 0 0 52.05-34.417 21.858 21.858 0 0 1-10.125-18.458V94.792a21.883 21.883 0 0 1 13.65-20.275C151.375 49.408 127.808 31.25 100 31.25c-27.808 0-51.375 18.158-59.483 43.267a21.883 21.883 0 0 1 13.65 20.275v20.833a21.875 21.875 0 1 1-43.75 0V94.792c0-10.542 7.458-19.342 17.383-21.417C36.675 41.863 65.642 18.75 100 18.75zM41.667 94.792a9.375 9.375 0 0 0-18.75 0v20.833a9.375 9.375 0 0 0 18.75 0V94.792zm135.416 0a9.375 9.375 0 0 0-18.75 0v20.833a9.375 9.375 0 0 0 18.75 0V94.792zM100 129.167a22.83 22.83 0 0 0 17.18-7.75 6.25 6.25 0 1 1 9.366 8.279A35.337 35.337 0 0 1 100 141.666a35.337 35.337 0 0 1-26.554-11.983 6.25 6.25 0 1 1 9.367-8.275A22.842 22.842 0 0 0 100 129.167z"/></svg>