<svg width="200" height="200" xmlns="http://www.w3.org/2000/svg"><defs><style/></defs><path d="M100 14.583c35.425 0 65.417 23.271 75.525 55.359a26.054 26.054 0 0 1 18.225 24.85v20.833a26.046 26.046 0 0 1-22.854 25.85c-12.234 24.533-36.875 41.9-65.98 43.667l-4.287.254a10.417 10.417 0 0 1-1.258-20.792l4.283-.262a58.17 58.17 0 0 0 46.942-29.084 25.98 25.98 0 0 1-8.93-19.633V94.792a26.03 26.03 0 0 1 12.655-22.342C145.812 50.767 124.696 35.417 100 35.417c-24.7 0-45.813 15.35-54.32 37.033a26.03 26.03 0 0 1 12.653 22.342v20.833a26.042 26.042 0 1 1-52.083 0V94.792a26.054 26.054 0 0 1 18.225-24.85C34.583 37.854 64.571 14.583 100 14.583zM37.5 94.792a5.208 5.208 0 1 0-10.417 0v20.833a5.208 5.208 0 1 0 10.417 0V94.792zm135.417 0a5.208 5.208 0 1 0-10.417 0v20.833a5.208 5.208 0 1 0 10.417 0V94.792zm-86.98 23.858A18.675 18.675 0 0 0 100 125c5.458 0 10.513-2.333 14.058-6.342a10.417 10.417 0 0 1 15.613 13.792A39.5 39.5 0 0 1 100 145.833a39.5 39.5 0 0 1-29.68-13.391 10.417 10.417 0 0 1 15.105-14.334l.513.542z"/></svg>