<svg width="200" height="200" xmlns="http://www.w3.org/2000/svg"><defs><style/></defs><path d="M100 12.5c48.325 0 87.5 39.175 87.5 87.5s-39.175 87.5-87.5 87.5-87.5-39.175-87.5-87.5S51.675 12.5 100 12.5zm0 20.833c-36.82 0-66.667 29.846-66.667 66.667S63.18 166.667 100 166.667 166.667 136.82 166.667 100 136.82 33.333 100 33.333zm24.93 40.28a10.417 10.417 0 0 1 14.224-.634l.508.463a10.417 10.417 0 0 1 .167 14.729l-39.096 40.012a14.583 14.583 0 0 1-20.625.242l-.346-.354-18.508-19.354a10.418 10.418 0 1 1 15.059-14.4L90.353 109z"/></svg>