<svg width="200" height="200" xmlns="http://www.w3.org/2000/svg"><defs><style/></defs><path d="M185.417 100c0 47.175-38.242 85.417-85.417 85.417S14.583 147.175 14.583 100 52.825 14.583 100 14.583 185.417 52.825 185.417 100zM100 31.25c-37.97 0-68.75 30.78-68.75 68.75s30.78 68.75 68.75 68.75 68.75-30.78 68.75-68.75S137.97 31.25 100 31.25zM67.125 63.82c14.32 0 35.696-.433 64.125-1.3 3.47-.216 5.533 1.3 6.183 4.56 0 3.903-1.516 6.074-4.554 6.508-9.117.433-18.012.65-26.696.65v10.416h20.834c4.775 0 7.166 2.28 7.166 6.838v25.391c.213 7.813-3.475 11.825-11.07 12.042h-6.709c-3.687 0-5.533-1.95-5.533-5.858 0-3.471 1.846-5.209 5.533-5.209h1.825c2.821-.433 4.233-1.954 4.233-4.558V97.675c-.216-1.3-.979-2.058-2.279-2.28h-14v40.626c-.433 3.692-2.496 5.75-6.183 6.187-3.688-.433-5.75-2.5-6.183-6.187V95.396H80.47c-1.304.22-2.063.979-2.28 2.279v26.696c-.216 3.687-2.17 5.642-5.862 5.858-3.687-.433-5.75-2.387-6.183-5.858V91.49c0-4.558 2.496-6.833 7.487-6.833h20.184V74.562c-8.684.438-17.146.655-25.392.655-3.254-.217-5.208-1.954-5.858-5.209 0-3.691 1.516-5.75 4.554-6.187z"/></svg>