<svg width="200" height="200" xmlns="http://www.w3.org/2000/svg"><defs><style/></defs><path d="M174.408 76.2l-25.991 25.996 23.762 23.762a22.917 22.917 0 0 1 0 32.409L154.5 176.046a22.917 22.917 0 0 1-32.408 0l-23.759-23.763-13.637 13.634a31.254 31.254 0 0 1-15.609 8.475l-23.158 4.916A20.833 20.833 0 0 1 21.221 154.6l4.916-23.158a31.25 31.25 0 0 1 8.471-15.609l13.634-13.637L24.867 78.82a22.917 22.917 0 0 1 0-32.413l17.675-17.675a22.917 22.917 0 0 1 32.412 0L98.33 52.108l25.996-25.991a22.917 22.917 0 0 1 32.408 0l17.675 17.675a22.917 22.917 0 0 1 0 32.408zm-34.833 17.158l26-25.996a10.417 10.417 0 0 0 0-14.729l-17.68-17.679a10.417 10.417 0 0 0-14.732 0L107.17 60.95l32.408 32.408zm-50.083 50.084l-32.409-32.409-13.637 13.638a18.75 18.75 0 0 0-5.083 9.366l-4.917 23.159a8.333 8.333 0 0 0 9.883 9.879l23.159-4.912a18.75 18.75 0 0 0 9.366-5.084l13.638-13.637zM33.704 69.983l15.988 15.984 11.266-11.263a6.25 6.25 0 1 1 8.838 8.838L58.533 94.808l20.625 20.625 11.259-11.266a6.25 6.25 0 0 1 8.837 8.837l-11.262 11.267 20.625 20.625 11.262-11.267a6.25 6.25 0 0 1 8.838 8.838l-11.263 11.266 13.475 13.475a10.417 10.417 0 0 0 14.73 0l17.679-17.679a10.417 10.417 0 0 0 0-14.733L66.113 37.57a10.417 10.417 0 0 0-14.73 0L33.704 55.246a10.417 10.417 0 0 0 0 14.733z"/></svg>