<svg width="200" height="200" xmlns="http://www.w3.org/2000/svg"><defs><style/></defs><path d="M174.412 76.204l-17.158 17.154-50.083-50.087 17.154-17.154a22.917 22.917 0 0 1 32.408 0l17.68 17.675a22.917 22.917 0 0 1 0 32.412zM42.542 28.73a22.917 22.917 0 0 1 32.408 0l97.23 97.23a22.917 22.917 0 0 1 0 32.408l-17.68 17.679a22.917 22.917 0 0 1-32.408 0l-13.475-13.475 20.104-20.104a6.25 6.25 0 1 0-8.838-8.838L99.78 153.733l-20.625-20.625 20.104-20.104a6.25 6.25 0 0 0-8.837-8.837l-20.104 20.1-20.625-20.625 20.104-20.1a6.25 6.25 0 1 0-8.838-8.838L40.854 94.808 24.867 78.817a22.917 22.917 0 0 1 0-32.409L42.542 28.73zm-7.934 87.104l4.796-4.8 50.084 50.088-4.792 4.796a31.25 31.25 0 0 1-15.613 8.475l-26.291 5.579a18.75 18.75 0 0 1-22.238-22.234l5.584-26.291a31.25 31.25 0 0 1 8.466-15.613z"/></svg>