<svg width="200" height="200" xmlns="http://www.w3.org/2000/svg"><defs><style/></defs><path d="M169.333 34.325c9.988 19.296 15.042 33.712 15.042 43.8a34.333 34.333 0 0 1-14.583 28.108v47.934a25 25 0 0 1-25 25H55.208a25 25 0 0 1-25-25v-47.934a34.333 34.333 0 0 1-14.583-28.108c0-10.088 5.054-24.5 15.046-43.804a25.012 25.012 0 0 1 22.204-13.488h94.25a25.017 25.017 0 0 1 22.208 13.492zm-12.041 77.4a34.513 34.513 0 0 1-7.292.775 34.333 34.333 0 0 1-24.325-10.083l-.68-.7-.666.7a34.32 34.32 0 0 1-23.116 10.062L100 112.5a34.333 34.333 0 0 1-24.325-10.083l-.68-.7-.666.7a34.32 34.32 0 0 1-23.117 10.062L50 112.5c-2.5 0-4.942-.267-7.292-.775v42.442a12.5 12.5 0 0 0 12.5 12.5h89.584a12.5 12.5 0 0 0 12.5-12.5v-42.442zM52.875 33.333c-4.67 0-8.958 2.6-11.104 6.742-9.138 17.633-13.646 30.504-13.646 38.05a21.875 21.875 0 0 0 41.32 10.025c2.326-4.508 8.776-4.508 11.105 0A21.87 21.87 0 0 0 100 100a21.858 21.858 0 0 0 19.446-11.85c2.325-4.508 8.775-4.508 11.104 0a21.875 21.875 0 0 0 41.325-10.025c0-7.542-4.508-20.412-13.642-38.042a12.512 12.512 0 0 0-11.104-6.75H52.871z"/></svg>