<svg width="200" height="200" xmlns="http://www.w3.org/2000/svg"><defs><style/></defs><path d="M103.125 114.583a34.375 34.375 0 0 0 25-10.783 34.375 34.375 0 0 0 43.988 5.067v45.3a25 25 0 0 1-25 25H57.529a25 25 0 0 1-25-25v-46.438a34.375 34.375 0 0 0 45.596-3.929 34.375 34.375 0 0 0 25 10.783zM24.338 51.938l.095-.271 8.175-18.138c1.946-4.567 5.125-8.208 9.542-10.917a25.725 25.725 0 0 1 13.708-3.862h94.538a26.333 26.333 0 0 1 13.82 3.896c4.513 2.72 7.784 6.325 9.813 10.817l7.808 18.266.075.217.238.696c2.18 6.312 3.267 11.333 3.267 15.066 0 9.492-3.359 17.596-10.067 24.309-6.713 6.708-14.817 10.066-24.308 10.066a33.825 33.825 0 0 1-16.775-4.37 34.22 34.22 0 0 1-7.184-5.33 34.208 34.208 0 0 1-7.183 5.334 33.825 33.825 0 0 1-16.775 4.366 33.83 33.83 0 0 1-16.775-4.37 34.208 34.208 0 0 1-7.183-5.33 34.196 34.196 0 0 1-7.184 5.334 33.825 33.825 0 0 1-16.775 4.366c-9.491 0-17.596-3.354-24.308-10.066-6.708-6.713-10.067-14.817-10.067-24.309 0-3.737 1.088-8.762 3.271-15.083l.233-.688z"/></svg>