<svg width="200" height="200" xmlns="http://www.w3.org/2000/svg"><defs><style/></defs><path d="M137.267 79.53c32.346 0 58.566 21.97 58.566 49.074 0 15.063-8.095 28.538-20.833 37.542-1.03.72-.2 3.966.688 7.45 1.045 4.104 2.175 8.537.445 9.541-1.483.859-4.654-1.225-7.937-3.591l-1.317-.959c-3.35-2.441-6.604-4.816-8.108-4.316-6.658 2.2-13.913 3.412-21.5 3.412-32.346 0-58.567-21.975-58.567-49.079s26.221-49.075 58.563-49.075zM73.379 25c34.442 0 63.009 21.308 68.325 49.208a75.027 75.027 0 0 0-4.437-.133c-35.284 0-63.888 24.417-63.888 54.53 0 4.582.684 9.166 2.021 13.607a80.333 80.333 0 0 1-25.88-3.55c-1.907-.595-6.512 2.655-11.12 5.909-4.77 3.366-9.55 6.737-11.342 5.846-1.483-.738-.008-5.692 1.459-10.63 1.416-4.791 2.837-9.566 1.541-10.45-15.787-10.741-25.891-27.229-25.891-45.712C4.167 51.245 35.154 25 73.379 25zm45.254 79.612c-4.408 0-7.983 3.663-7.983 8.18s3.575 8.179 7.983 8.179c4.413 0 7.988-3.663 7.988-8.18s-3.575-8.179-7.988-8.179zm38.334 0c-4.409 0-7.984 3.663-7.984 8.18s3.575 8.179 7.984 8.179c4.412 0 7.987-3.663 7.987-8.18s-3.575-8.179-7.987-8.179zM50.754 55.542c-5.146 0-9.32 4.27-9.32 9.541 0 5.271 4.174 9.542 9.32 9.542s9.317-4.27 9.317-9.542c0-5.27-4.171-9.541-9.317-9.541zm45.25 0c-5.142 0-9.312 4.27-9.312 9.541 0 5.271 4.166 9.542 9.316 9.542 5.146 0 9.317-4.27 9.317-9.542 0-5.27-4.17-9.541-9.317-9.541z"/></svg>