<svg width="200" height="200" xmlns="http://www.w3.org/2000/svg"><defs><style/></defs><path d="M166.667 33.333h14.583a6.25 6.25 0 0 1 0 12.5h-14.583v14.584a6.25 6.25 0 0 1-12.5 0V45.833h-14.584a6.25 6.25 0 0 1 0-12.5h14.584V18.75a6.25 6.25 0 0 1 12.5 0v14.583zm-16.584 116.75A71.142 71.142 0 0 0 170.833 100c0-5.846-.7-11.575-2.1-17.188l-.008-.033c-.958-3.846 2.054-7.766 6.067-7.766a6.25 6.25 0 0 1 6.062 4.737l.004.017A83.242 83.242 0 0 1 183.333 100a83.708 83.708 0 0 1-24.408 58.925A83.708 83.708 0 0 1 100 183.333a83.713 83.713 0 0 1-58.925-24.408A83.708 83.708 0 0 1 16.667 100c0-21.992 8.858-43.375 24.408-58.925A83.713 83.713 0 0 1 100 16.667c6.888 0 13.642.829 20.267 2.483A6.25 6.25 0 0 1 125 25.208c0 4.013-3.92 7.025-7.767 6.063A70.833 70.833 0 0 0 100 29.167a71.142 71.142 0 0 0-50.083 20.75A71.142 71.142 0 0 0 29.167 100c0 18.7 7.525 36.867 20.75 50.083A71.142 71.142 0 0 0 100 170.833c18.7 0 36.867-7.525 50.083-20.75zM80.208 87.5a7.292 7.292 0 1 1-14.583 0V77.083a7.292 7.292 0 1 1 14.583 0V87.5zm54.167 0a7.292 7.292 0 1 1-14.583 0V77.083a7.292 7.292 0 1 1 14.583 0V87.5zM100 126.537c6.658 0 12.85-2.85 17.175-7.75a6.25 6.25 0 1 1 9.367 8.275A35.337 35.337 0 0 1 100 139.042a35.337 35.337 0 0 1-26.558-11.984 6.25 6.25 0 1 1 9.366-8.275A22.842 22.842 0 0 0 100 126.542z"/></svg>