<svg width="200" height="200" xmlns="http://www.w3.org/2000/svg"><defs><style/></defs><path d="M57.492 187.7A16.733 16.733 0 0 1 50 173.783v-37.375a72.713 72.713 0 0 1-22.917-53.075c0-40.27 32.646-72.916 72.917-72.916s72.917 32.645 72.917 72.916A72.708 72.708 0 0 1 150 136.408v37.375c0 2.904-.7 5.609-2.092 8.113a16.47 16.47 0 0 1-5.4 5.804 16.47 16.47 0 0 1-7.462 2.675 16.38 16.38 0 0 1-8.28-1.27l-21.841-9.363a12.02 12.02 0 0 0-9.85 0l-21.842 9.362a16.727 16.727 0 0 1-15.741-1.404zm80.008-41.82a72.58 72.58 0 0 1-37.5 10.37c-13.713 0-26.542-3.788-37.5-10.37v27.907c0 1.496.625 2.655 1.875 3.475 1.25.825 2.558.942 3.933.355l21.842-9.363c6.567-2.812 13.133-2.812 19.696 0l21.846 9.363c1.375.587 2.687.47 3.933-.35 1.25-.825 1.875-1.984 1.875-3.48v-27.912zm-37.5-2.13c33.367 0 60.417-27.05 60.417-60.417S133.367 22.917 100 22.917s-60.417 27.05-60.417 60.416S66.633 143.75 100 143.75zM68.75 83.333a31.25 31.25 0 1 1 62.5 0 31.25 31.25 0 0 1-62.5 0zm31.25 18.75a18.75 18.75 0 1 0 0-37.5 18.75 18.75 0 0 0 0 37.5z"/></svg>