<svg width="200" height="200" xmlns="http://www.w3.org/2000/svg"><defs><style/></defs><path d="M170.833 81.25c0 39.12-31.712 70.833-70.833 70.833S29.167 120.371 29.167 81.25 60.879 10.417 100 10.417s70.833 31.712 70.833 70.833zM100 112.5a31.25 31.25 0 1 0 0-62.5 31.25 31.25 0 0 0 0 62.5zM81.25 81.25a18.75 18.75 0 1 1 37.5 0 18.75 18.75 0 0 1-37.5 0zM50 173.788v-25.871a83.333 83.333 0 0 0 100 0v25.87a16.667 16.667 0 0 1-23.233 15.317l-21.842-9.362a12.5 12.5 0 0 0-9.85 0l-21.842 9.362A16.667 16.667 0 0 1 50 173.792z"/></svg>