<svg width="200" height="200" xmlns="http://www.w3.org/2000/svg"><defs><style/></defs><path d="M100 12.5c48.325 0 87.5 39.175 87.5 87.5s-39.175 87.5-87.5 87.5-87.5-39.175-87.5-87.5S51.675 12.5 100 12.5zm0 20.833c-36.82 0-66.667 29.846-66.667 66.667S63.18 166.667 100 166.667 166.667 136.82 166.667 100 136.82 33.333 100 33.333zm0 88.542a11.458 11.458 0 1 1 0 22.917 11.458 11.458 0 0 1 0-22.917zm0-66.667a10.417 10.417 0 0 1 10.417 10.417l-.013 4.654-.037 4.2-.109 6.804-.166 7.417-.15 5.28-.334 10.29a9.613 9.613 0 0 1-19.212 0l-.338-10.3-.25-9.403-.154-8.517-.058-5.8-.013-4.625A10.417 10.417 0 0 1 100 55.208z"/></svg>