<svg width="200" height="200" xmlns="http://www.w3.org/2000/svg"><defs><style/></defs><path d="M100 14.583c47.175 0 85.417 38.242 85.417 85.417S147.175 185.417 100 185.417 14.583 147.175 14.583 100 52.825 14.583 100 14.583zm0 16.667c-37.97 0-68.75 30.78-68.75 68.75s30.78 68.75 68.75 68.75 68.75-30.78 68.75-68.75S137.97 31.25 100 31.25zm0 93.75a10.417 10.417 0 1 1 0 20.833A10.417 10.417 0 0 1 100 125zm0-68.23a8.852 8.852 0 0 1 8.854 8.855l-.016 5.475-.075 6.888-.188 9.845-.283 11.225-.28 9.321a8.017 8.017 0 0 1-16.024 0l-.355-12.083-.212-8.709-.125-5.966-.104-7.209-.042-4.85-.004-3.937A8.852 8.852 0 0 1 100 56.771z"/></svg>