<svg width="200" height="200" xmlns="http://www.w3.org/2000/svg"><defs><style/></defs><path d="M79.396 29.833L17.512 132.967a25 25 0 0 0 21.438 37.866h123.767a25 25 0 0 0 21.437-37.862L122.271 29.829a25 25 0 0 0-42.875 0zm27.866 2.138a12.5 12.5 0 0 1 4.292 4.292L173.437 139.4a12.5 12.5 0 0 1-10.72 18.933H38.95A12.5 12.5 0 0 1 28.23 139.4L90.116 36.258A12.5 12.5 0 0 1 106.6 31.6l.667.375zm.03 39.887c0-4.025-3.263-7.275-7.292-7.275-4.025 0-7.292 3.225-7.292 7.25v1.084q0 14.554.792 35.433a6.492 6.492 0 0 0 6.5 6.233c3.496 0 6.367-2.741 6.5-6.233q.792-20.862.792-35.404v-1.083zM100 141.667A8.333 8.333 0 1 0 100 125a8.333 8.333 0 0 0 0 16.667z" fill-rule="evenodd"/></svg>