<svg width="200" height="200" xmlns="http://www.w3.org/2000/svg"><defs><style/></defs><path d="M187.5 100c0 48.325-39.175 87.5-87.5 87.5S12.5 148.325 12.5 100 51.675 12.5 100 12.5s87.5 39.175 87.5 87.5zM100 33.333c-36.82 0-66.667 29.846-66.667 66.667S63.18 166.667 100 166.667 166.667 136.82 166.667 100 136.82 33.333 100 33.333zm0 83.917a19.75 19.75 0 0 0 15.98-8.104l.566-.817a10.417 10.417 0 0 1 17.396 11.463A40.592 40.592 0 0 1 100 138.083a40.592 40.592 0 0 1-33.98-18.345 10.417 10.417 0 0 1 17.417-11.434A19.762 19.762 0 0 0 100 117.25z"/></svg>