<svg width="200" height="200" xmlns="http://www.w3.org/2000/svg"><defs><style/></defs><path d="M183.333 100c0 46.025-37.308 83.333-83.333 83.333S16.667 146.025 16.667 100 53.975 16.667 100 16.667 183.333 53.975 183.333 100zM100 29.167c-39.12 0-70.833 31.712-70.833 70.833S60.879 170.833 100 170.833s70.833-31.712 70.833-70.833S139.121 29.167 100 29.167zm0 92.25a21.863 21.863 0 0 0 18.98-10.984 6.25 6.25 0 0 1 10.832 6.234A34.358 34.358 0 0 1 100 133.917a34.358 34.358 0 0 1-29.82-17.263 6.25 6.25 0 0 1 10.837-6.229A21.863 21.863 0 0 0 100 121.421z"/></svg>