<svg width="200" height="200" xmlns="http://www.w3.org/2000/svg"><defs><style/></defs><path d="M185.417 100c0 47.175-38.242 85.417-85.417 85.417S14.583 147.175 14.583 100 52.825 14.583 100 14.583 185.417 52.825 185.417 100zM100 31.25c-37.97 0-68.75 30.78-68.75 68.75s30.78 68.75 68.75 68.75 68.75-30.78 68.75-68.75S137.97 31.25 100 31.25zm31.958 86.88A37.475 37.475 0 0 1 100 136.003a37.475 37.475 0 0 1-31.954-17.866 8.334 8.334 0 1 1 14.196-8.734 20.813 20.813 0 0 0 17.758 9.93 20.804 20.804 0 0 0 17.23-9.117l.533-.821a8.333 8.333 0 1 1 14.195 8.729z"/></svg>