<svg width="200" height="200" xmlns="http://www.w3.org/2000/svg"><defs><style/></defs><path d="M73.333 10.417A24.583 24.583 0 0 1 97.917 35v21.42l40.287 1.122c.942.025 1.883.091 2.821.208l1.4.196a31.25 31.25 0 0 1 25.746 35.916l-7.888 47.805H47.604c-2.525-8.125-9.15-16.2-20.341-24.355-11.98-9.925-14.875-21.895-7.609-33.887 5.984-9.867 15.754-12.833 28.071-9.52l1.025.287V35a24.583 24.583 0 0 1 23.663-24.567l.92-.016zm85.821 143.75v6.908a25 25 0 0 1-25 25H73.737a25 25 0 0 1-25-25v-6.908h110.417z"/></svg>