<svg width="200" height="200" xmlns="http://www.w3.org/2000/svg"><defs><style/></defs><path d="M77.208 10.417A24.583 24.583 0 0 1 101.792 35v21.42l40.291 1.122c.938.025 1.88.091 2.817.208l1.4.196a31.25 31.25 0 0 1 25.746 35.916l-9.017 54.655v12.558a25 25 0 0 1-25 25H77.613a25 25 0 0 1-25-25v-13.27C52 137.6 45.146 127.511 31.138 117.311c-11.975-9.924-14.875-21.895-7.609-33.887 5.984-9.867 15.759-12.833 28.071-9.52l1.025.287V35a24.583 24.583 0 0 1 23.663-24.567l.92-.016zm-12.833 131.25h87.113l8.225-49.834a18.75 18.75 0 0 0-14.584-21.391l-.866-.167a18.754 18.754 0 0 0-2.53-.237l-46.366-1.292-6.075-.167V35a12.083 12.083 0 0 0-24.167 0v58.275l-8.958-4.308c-11.867-5.709-18.354-4.984-21.946.941-3.846 6.342-2.575 11.592 4.583 17.538 14.15 10.292 22.763 21.5 25.446 33.617l.125.604zm.738 12.5v6.908a12.5 12.5 0 0 0 11.762 12.48l.738.02h60.416a12.5 12.5 0 0 0 12.5-12.5v-6.908H65.113z"/></svg>