<svg width="200" height="200" xmlns="http://www.w3.org/2000/svg"><defs><style/></defs><path d="M100.012 4.167a6.25 6.25 0 0 1 6.25 6.25v16.666a6.25 6.25 0 0 1-12.5 0V10.417a6.25 6.25 0 0 1 6.25-6.25zm54.167 6.4a6.25 6.25 0 0 1 2.292 8.537l-8.334 14.434a6.252 6.252 0 0 1-10.829-6.25l8.334-14.434a6.25 6.25 0 0 1 8.537-2.291zm-108.333 0a6.25 6.25 0 0 1 8.541 2.287l8.334 14.434a6.252 6.252 0 1 1-10.83 6.25l-8.333-14.434a6.25 6.25 0 0 1 2.292-8.541zm122.904 49.85v21.4a25 25 0 0 1-7.32 17.675l-18.543 18.541a4.167 4.167 0 0 0-1.22 2.946v47.771a25 25 0 0 1-25 25H83.333a25 25 0 0 1-25-25v-47.77a4.167 4.167 0 0 0-1.22-2.947L38.57 99.492a25 25 0 0 1-7.321-17.675v-21.4A16.667 16.667 0 0 1 47.917 43.75h104.166a16.667 16.667 0 0 1 16.667 16.667zM47.917 56.25a4.167 4.167 0 0 0-4.167 4.167v21.4a12.5 12.5 0 0 0 3.662 8.837l18.542 18.542a16.667 16.667 0 0 1 4.88 11.783v47.771a12.5 12.5 0 0 0 12.5 12.5h33.333a12.5 12.5 0 0 0 12.5-12.5v-47.77a16.667 16.667 0 0 1 4.883-11.784l18.542-18.542a12.5 12.5 0 0 0 3.658-8.837v-21.4a4.167 4.167 0 0 0-4.167-4.167H47.917zM100 120.833a6.25 6.25 0 0 1 6.25 6.25v29.167a6.25 6.25 0 0 1-12.5 0v-29.167a6.25 6.25 0 0 1 6.25-6.25z"/></svg>