<svg width="200" height="200" xmlns="http://www.w3.org/2000/svg"><defs><style/></defs><path d="M150 33.333H50A10.417 10.417 0 0 1 50 12.5h100a10.417 10.417 0 0 1 0 20.833zm22.917 35.417v17.233a29.167 29.167 0 0 1-8.542 20.625l-18.542 18.538v43.604a29.167 29.167 0 0 1-29.166 29.167H83.333a29.167 29.167 0 0 1-29.166-29.167v-43.604l-18.542-18.542a29.167 29.167 0 0 1-8.542-20.625V68.75a20.833 20.833 0 0 1 20.834-20.833h104.166a20.833 20.833 0 0 1 20.834 20.833zm-125 0v17.233a8.333 8.333 0 0 0 2.441 5.892L68.9 110.417a20.833 20.833 0 0 1 6.1 14.729v43.604a8.333 8.333 0 0 0 8.333 8.333h33.334A8.333 8.333 0 0 0 125 168.75v-43.604a20.833 20.833 0 0 1 6.1-14.73l18.542-18.541a8.333 8.333 0 0 0 2.441-5.892V68.75H47.917zm62.5 87.5a10.417 10.417 0 0 1-20.834 0v-29.167a10.417 10.417 0 0 1 20.834 0v29.167z"/></svg>