<svg width="200" height="200" xmlns="http://www.w3.org/2000/svg"><defs><style/></defs><path d="M100.012 2.083A10.417 10.417 0 0 1 110.43 12.5v14.583a10.417 10.417 0 0 1-20.833 0V12.5a10.417 10.417 0 0 1 10.416-10.417zm56.25 6.959a10.417 10.417 0 0 1 3.813 14.229l-7.292 12.625a10.417 10.417 0 0 1-18.041-10.417l7.291-12.625a10.417 10.417 0 0 1 14.23-3.812zm-112.5 0a10.417 10.417 0 0 1 14.23 3.812l7.291 12.63A10.417 10.417 0 1 1 47.242 35.9L39.95 23.27a10.417 10.417 0 0 1 3.812-14.228zM172.917 68.75v17.233a29.167 29.167 0 0 1-8.542 20.625l-18.542 18.538v43.604a29.167 29.167 0 0 1-29.166 29.167H83.333a29.167 29.167 0 0 1-29.166-29.167v-43.604l-18.542-18.542a29.167 29.167 0 0 1-8.542-20.625V68.75a20.833 20.833 0 0 1 20.834-20.833h104.166a20.833 20.833 0 0 1 20.834 20.833zm-125 0v17.233a8.333 8.333 0 0 0 2.441 5.892L68.9 110.417a20.833 20.833 0 0 1 6.1 14.729v43.604a8.333 8.333 0 0 0 8.333 8.333h33.334A8.333 8.333 0 0 0 125 168.75v-43.604a20.833 20.833 0 0 1 6.1-14.73l18.542-18.541a8.333 8.333 0 0 0 2.441-5.892V68.75H47.917zM100 116.667a10.417 10.417 0 0 1 10.417 10.416v29.167a10.417 10.417 0 0 1-20.834 0v-29.167A10.417 10.417 0 0 1 100 116.667z"/></svg>