<svg width="200" height="200" xmlns="http://www.w3.org/2000/svg"><defs><style/></defs><path d="M100.012 2.083a8.333 8.333 0 0 1 8.334 8.334v15.625a8.333 8.333 0 1 1-16.667 0V10.417a8.333 8.333 0 0 1 8.333-8.334zm-55.208 6.68a8.333 8.333 0 0 1 11.383 3.05L64 25.341a8.333 8.333 0 0 1-14.433 8.333l-7.813-13.53a8.333 8.333 0 0 1 3.05-11.382zm110.417 0a8.333 8.333 0 0 1 3.05 11.383l-7.813 13.529a8.333 8.333 0 0 1-14.433-8.333l7.813-13.53a8.333 8.333 0 0 1 11.383-3.05zm15.612 55.82V83.9a27.083 27.083 0 0 1-7.933 19.15l-18.542 18.542a2.083 2.083 0 0 0-.608 1.475v45.683a27.083 27.083 0 0 1-27.083 27.083H83.333A27.083 27.083 0 0 1 56.25 168.75v-45.687a2.083 2.083 0 0 0-.608-1.471L37.1 103.05a27.083 27.083 0 0 1-7.933-19.15V64.583a18.75 18.75 0 0 1 18.75-18.75h104.166a18.75 18.75 0 0 1 18.75 18.75zM47.917 62.5a2.083 2.083 0 0 0-2.084 2.083V83.9a10.417 10.417 0 0 0 3.05 7.367l18.542 18.541a18.75 18.75 0 0 1 5.492 13.254v45.688a10.417 10.417 0 0 0 10.416 10.417h33.334a10.417 10.417 0 0 0 10.416-10.417v-45.687a18.75 18.75 0 0 1 5.492-13.255l18.542-18.541a10.417 10.417 0 0 0 3.05-7.367V64.583a2.083 2.083 0 0 0-2.084-2.083H47.917zM100 118.75a8.333 8.333 0 0 1 8.333 8.333v29.167a8.333 8.333 0 1 1-16.666 0v-29.167A8.333 8.333 0 0 1 100 118.75z"/></svg>