<svg width="200" height="200" xmlns="http://www.w3.org/2000/svg"><defs><style/></defs><path d="M52.083 56.25h95.834V41.667a12.042 12.042 0 0 0-3.663-8.838 12.042 12.042 0 0 0-8.837-3.662H64.583a12.042 12.042 0 0 0-8.837 3.662 12.042 12.042 0 0 0-3.663 8.838V56.25zm108.334.075c6.012.45 11.208 2.863 15.596 7.25 4.879 4.87 7.32 10.767 7.32 17.675v41.667c0 6.904-2.441 12.796-7.32 17.679-4.384 4.379-9.584 6.796-15.596 7.246v10.491c0 6.905-2.442 12.796-7.321 17.68-4.888 4.879-10.775 7.32-17.68 7.32H64.584c-6.904 0-12.796-2.441-17.679-7.32-4.879-4.888-7.32-10.776-7.32-17.68v-10.491c-6.013-.45-11.209-2.867-15.597-7.25-4.879-4.871-7.32-10.767-7.32-17.675V81.25c0-6.904 2.441-12.796 7.32-17.68 4.384-4.382 9.584-6.795 15.596-7.245V41.667c0-6.905 2.442-12.796 7.321-17.68 4.888-4.879 10.775-7.32 17.68-7.32h70.833c6.904 0 12.795 2.441 17.679 7.32 4.879 4.888 7.32 10.776 7.32 17.68v14.658zM39.67 135.271c.475-5.95 2.887-11.1 7.233-15.45 4.888-4.88 10.775-7.321 17.68-7.321h70.833c6.904 0 12.795 2.442 17.679 7.32 4.346 4.35 6.758 9.5 7.233 15.45a11.98 11.98 0 0 0 6.842-3.516 12.042 12.042 0 0 0 3.662-8.837V81.25a12.042 12.042 0 0 0-3.662-8.838 12.042 12.042 0 0 0-8.838-3.662H41.667a12.042 12.042 0 0 0-8.838 3.662 12.042 12.042 0 0 0-3.662 8.838v41.667c0 3.45 1.22 6.395 3.662 8.837 1.958 1.958 4.238 3.13 6.842 3.517zM50 89.583a6.25 6.25 0 0 1 6.25-6.25h12.5a6.25 6.25 0 0 1 0 12.5h-12.5a6.25 6.25 0 0 1-6.25-6.25zm2.083 68.75c0 3.45 1.221 6.396 3.663 8.838a12.042 12.042 0 0 0 8.837 3.662h70.834a12.042 12.042 0 0 0 8.837-3.662 12.042 12.042 0 0 0 3.663-8.838V137.5a12.042 12.042 0 0 0-3.663-8.837 12.042 12.042 0 0 0-8.837-3.663H64.583a12.042 12.042 0 0 0-8.837 3.663 12.042 12.042 0 0 0-3.663 8.837v20.833z"/></svg>