<svg width="200" height="200" xmlns="http://www.w3.org/2000/svg"><defs><style/></defs><path d="M80.025 31.25a8.333 8.333 0 0 0-8.333-8.333H50A27.083 27.083 0 0 0 22.917 50v17.646a8.333 8.333 0 1 0 16.666 0V50A10.417 10.417 0 0 1 50 39.583h21.692a8.333 8.333 0 0 0 8.333-8.333zM177.083 50A27.083 27.083 0 0 0 150 22.917h-21.692a8.333 8.333 0 1 0 0 16.666H150A10.417 10.417 0 0 1 160.417 50v17.646a8.333 8.333 0 1 0 16.666 0V50zm2.084 50a8.333 8.333 0 0 0-8.334-8.333H29.167a8.333 8.333 0 1 0 0 16.666h141.666a8.333 8.333 0 0 0 8.334-8.333zM39.583 132.354a8.333 8.333 0 0 0-16.666 0V150A27.083 27.083 0 0 0 50 177.083h21.692a8.333 8.333 0 1 0 0-16.666H50A10.417 10.417 0 0 1 39.583 150v-17.646zm137.5 0a8.333 8.333 0 0 0-16.666 0V150A10.417 10.417 0 0 1 150 160.417h-21.692a8.333 8.333 0 0 0 0 16.666H150A27.083 27.083 0 0 0 177.083 150v-17.646z" fill-rule="evenodd"/></svg>