<svg width="200" height="200" xmlns="http://www.w3.org/2000/svg"><defs><style/></defs><path d="M77.942 31.25a10.417 10.417 0 0 0-10.417-10.417H50A29.167 29.167 0 0 0 20.833 50v13.48a10.417 10.417 0 0 0 20.834 0V50A8.333 8.333 0 0 1 50 41.667h17.525A10.417 10.417 0 0 0 77.942 31.25zM179.167 50A29.167 29.167 0 0 0 150 20.833h-17.525a10.417 10.417 0 0 0 0 20.834H150A8.333 8.333 0 0 1 158.333 50v13.48a10.417 10.417 0 0 0 20.834 0V50zm2.083 50a10.417 10.417 0 0 0-10.417-10.417H29.167a10.417 10.417 0 1 0 0 20.834h141.666A10.417 10.417 0 0 0 181.25 100zM41.667 136.52a10.417 10.417 0 0 0-20.834 0V150A29.167 29.167 0 0 0 50 179.167h17.525a10.417 10.417 0 1 0 0-20.834H50A8.333 8.333 0 0 1 41.667 150v-13.48zm137.5 0a10.417 10.417 0 0 0-20.834 0V150a8.333 8.333 0 0 1-8.333 8.333h-17.525a10.417 10.417 0 0 0 0 20.834H150A29.167 29.167 0 0 0 179.167 150v-13.48z" fill-rule="evenodd"/></svg>