<svg width="200" height="200" xmlns="http://www.w3.org/2000/svg"><defs><style/></defs><path d="M87.5 62.5h33.333V45.833c0-3.354-.041-5.316-.116-5.875a12.137 12.137 0 0 0-3.542-7.129 12.137 12.137 0 0 0-7.13-3.546c-.562-.079-2.524-.116-5.878-.116s-5.317.041-5.875.116a12.137 12.137 0 0 0-7.13 3.542 12.137 12.137 0 0 0-3.55 7.13c-.07.562-.112 2.524-.112 5.878V62.5zm69.82 2.792a25.112 25.112 0 0 1 10.722 10.72c2.591 5 2.779 11.617 2.791 23.988v41.667c0 7.746-.02 11.833-.679 15.05a33.375 33.375 0 0 1-25.937 25.937c-3.217.658-7.3.68-15.05.68H33.333c-3.55 0-5.483-.017-6.595-.347a8.375 8.375 0 0 1-5.417-10.837c.404-1.088 1.55-2.642 3.679-5.483 2.47-3.292 3.72-4.959 4.792-6.667a50 50 0 0 0 7.541-22.625c.167-2.008.167-4.088.167-8.208V100c.013-12.375.196-18.988 2.792-23.988a25.112 25.112 0 0 1 10.72-10.72c5-2.596 11.617-2.78 23.988-2.792V45.833c0-3.87.008-5.933.23-7.558a25.017 25.017 0 0 1 21.374-21.38c1.63-.22 3.696-.228 7.563-.228 3.87 0 5.933.008 7.558.229a25.017 25.017 0 0 1 21.38 21.375c.22 1.625.228 3.691.228 7.562V62.5c12.375.012 18.988.196 23.988 2.792zM130.834 75H77.5c-7.792 0-12.942.104-15.454.317-2.554.212-4.317.57-5.283 1.07a12.283 12.283 0 0 0-5.375 5.376c-.5.966-.859 2.729-1.071 5.283-.188 2.233-.292 6.554-.313 12.954H158.33c-.02-6.4-.125-10.72-.312-12.954-.213-2.554-.571-4.317-1.071-5.284a12.283 12.283 0 0 0-5.375-5.374c-.967-.5-2.73-.859-5.283-1.071-2.513-.209-7.667-.317-15.455-.317zm27.5 37.5H50v16.667c0 4.462-.067 7.537-.208 9.216a61.608 61.608 0 0 1-9.425 28.288c-.584.929-1.554 2.317-2.896 4.162h28.154l.625-.833c3.1-4.13 4.988-6.842 5.667-8.138a26.908 26.908 0 0 0 2.729-8.208c.237-1.437.354-4.741.354-9.904a6.25 6.25 0 0 1 12.5 0c0 5.838-.17 9.808-.512 11.917a39.35 39.35 0 0 1-4 11.991 36.417 36.417 0 0 1-1.95 3.175h26.254l.625-.833c3.1-4.13 4.987-6.842 5.666-8.137a26.908 26.908 0 0 0 2.73-8.209c.237-1.437.354-4.741.354-9.904a6.25 6.25 0 0 1 12.5 0c0 5.838-.171 9.808-.513 11.917a39.35 39.35 0 0 1-4 11.991 36.417 36.417 0 0 1-1.95 3.175h6.463c6.983 0 11.166-.141 12.541-.425a20.35 20.35 0 0 0 10.521-5.679 20.35 20.35 0 0 0 5.68-10.516c.283-1.38.424-5.563.424-12.546V112.5z"/></svg>