<svg width="200" height="200" xmlns="http://www.w3.org/2000/svg"><defs><style/></defs><path d="M127.083 170.833a13.542 13.542 0 1 1 0-27.083 13.542 13.542 0 0 1 0 27.083zm0-114.583a13.542 13.542 0 1 1 0-27.083 13.542 13.542 0 0 1 0 27.083zm0 57.292a13.542 13.542 0 1 1 0-27.084 13.542 13.542 0 0 1 0 27.084zm-54.166 57.291a13.542 13.542 0 1 1 0-27.083 13.542 13.542 0 0 1 0 27.083zm0-114.583a13.542 13.542 0 1 1 0-27.083 13.542 13.542 0 0 1 0 27.083zm0 57.292a13.542 13.542 0 1 1 0-27.084 13.542 13.542 0 0 1 0 27.084z"/></svg>