<svg width="200" height="200" xmlns="http://www.w3.org/2000/svg"><defs><style/></defs><path d="M25 31.25a6.25 6.25 0 1 1 12.5 0V150c0 3.45 1.22 6.396 3.662 8.838A12.042 12.042 0 0 0 50 162.5h118.75a6.25 6.25 0 0 1 0 12.5H50c-6.904 0-12.796-2.442-17.68-7.32C27.443 162.791 25 156.903 25 150V31.25zm131.72 28.87a6.25 6.25 0 1 1 11.56 4.76l-11.56-4.76zm11.56 4.76l-.013.028c-7.175 17.417-16.542 28.25-28.088 32.496-4.708 1.73-10.046 2.48-16.008 2.25-3.342-.129-8.271-.737-14.784-1.82-5.987-1-10.391-1.555-13.208-1.667-4.312-.167-8.05.333-11.208 1.5-8.125 2.983-15.075 11.5-20.858 25.545a6.25 6.25 0 1 1-11.559-4.758c7.18-17.433 16.546-28.275 28.1-32.525C85.363 84.2 90.7 83.45 96.663 83.68c3.341.13 8.27.738 14.783 1.821 5.987 1 10.392 1.554 13.208 1.667 4.313.166 8.05-.334 11.209-1.5 8.116-2.98 15.066-11.488 20.85-25.525l11.566 4.737z"/></svg>