<svg width="200" height="200" xmlns="http://www.w3.org/2000/svg"><defs><style/></defs><path d="M80.096 23.958h39.808a18.75 18.75 0 0 1 14.8 7.238l8.33 10.708a2.083 2.083 0 0 0 1.645.804h14.696a27.083 27.083 0 0 1 27.083 27.084v76.041a27.083 27.083 0 0 1-27.083 27.084H40.625a27.083 27.083 0 0 1-27.083-27.084V69.792a27.083 27.083 0 0 1 27.083-27.084h14.696a2.083 2.083 0 0 0 1.646-.804l8.329-10.708a18.75 18.75 0 0 1 14.8-7.238zM121.55 41.43a2.083 2.083 0 0 0-1.646-.804H80.096a2.083 2.083 0 0 0-1.646.804l-8.33 10.708a18.75 18.75 0 0 1-14.8 7.238H40.626a10.417 10.417 0 0 0-10.417 10.417v76.041a10.417 10.417 0 0 0 10.417 10.417h118.75a10.417 10.417 0 0 0 10.417-10.417V69.792a10.417 10.417 0 0 0-10.417-10.417h-14.696a18.75 18.75 0 0 1-14.8-7.237l-8.329-10.709zM63.542 106.25a36.458 36.458 0 1 1 72.916 0 36.458 36.458 0 0 1-72.916 0zm79.166-28.125a8.333 8.333 0 1 1 16.667 0 8.333 8.333 0 0 1-16.667 0zM100 126.042a19.792 19.792 0 1 0 0-39.584 19.792 19.792 0 0 0 0 39.584z"/></svg>