<svg width="200" height="200" xmlns="http://www.w3.org/2000/svg"><defs><style/></defs><path d="M38.62 25h85.255c9.192 0 14.167.958 19.358 3.737a27.454 27.454 0 0 1 11.359 11.359c2.683 5.012 3.666 9.825 3.733 18.429l18.28-13.85A14.583 14.583 0 0 1 200 56.3v87.4a14.583 14.583 0 0 1-23.392 11.625l-18.275-13.85c-.062 8.604-1.05 13.417-3.733 18.43a27.454 27.454 0 0 1-11.358 11.357c-5.188 2.775-10.167 3.738-19.359 3.738H38.625c-9.196 0-14.167-.958-19.358-3.737a27.454 27.454 0 0 1-11.359-11.359c-2.783-5.187-3.741-10.167-3.741-19.362V59.458c0-9.195.958-14.166 3.737-19.358a27.454 27.454 0 0 1 11.358-11.358C24.45 25.958 29.43 25 38.625 25zm86.284 20.833H37.596c-4.575.038-6.392.309-7.883.967l-.626.304a6.625 6.625 0 0 0-2.812 2.817C25.333 51.679 25 53.404 25 59.454v82.117c.037 4.575.308 6.392.967 7.883l.308.625a6.593 6.593 0 0 0 2.813 2.813c1.758.941 3.483 1.275 9.533 1.275l86.283-.004c4.575-.034 6.392-.305 7.884-.963l.624-.308a6.625 6.625 0 0 0 2.813-2.813c.942-1.758 1.275-3.483 1.275-9.533V58.429c-.037-4.575-.308-6.392-.967-7.883l-.308-.625a6.625 6.625 0 0 0-2.812-2.817c-1.446-.77-2.875-1.133-6.709-1.237l-1.8-.034zM81.25 64.583A10.417 10.417 0 0 1 91.667 75v14.583h14.583a10.417 10.417 0 0 1 0 20.834H91.667V125a10.417 10.417 0 0 1-20.834 0v-14.583H56.25a10.417 10.417 0 0 1 0-20.834h14.583V75A10.417 10.417 0 0 1 81.25 64.583zm97.917 66.542v-62.25l-20.834 15.78v30.687l20.834 15.783z"/></svg>