<svg width="200" height="200" xmlns="http://www.w3.org/2000/svg"><defs><style/></defs><path d="M21.23 32.408c4.5-2.404 8.824-3.241 17.39-3.241l86.65.008c7.655.088 11.75.958 16 3.233a23.288 23.288 0 0 1 9.655 9.654c2.408 4.5 3.242 8.826 3.242 17.392v7.454l24.958-18.912a10.417 10.417 0 0 1 16.708 8.304v87.4a10.417 10.417 0 0 1-16.708 8.304l-24.958-18.912v7.458c0 8.562-.834 12.887-3.242 17.387a23.292 23.292 0 0 1-9.654 9.655c-4.5 2.408-8.83 3.241-17.392 3.241H38.625c-8.567 0-12.892-.833-17.392-3.241a23.288 23.288 0 0 1-9.654-9.655c-2.408-4.5-3.246-8.825-3.246-17.391l.009-82.484c.087-7.654.958-11.75 3.233-16a23.288 23.288 0 0 1 9.654-9.654zm102.645 9.259h-85.25c-6.68 0-9.054.458-11.5 1.766a10.792 10.792 0 0 0-4.52 4.521c-1.313 2.446-1.772 4.821-1.772 11.504v81.084c0 6.679.459 9.054 1.767 11.5a10.792 10.792 0 0 0 4.52 4.52c2.16 1.155 4.263 1.646 9.313 1.75l2.192.021h85.25c6.68 0 9.054-.458 11.5-1.766a10.792 10.792 0 0 0 4.52-4.525c1.155-2.155 1.647-4.259 1.75-9.309l.022-2.191V59.458c0-6.679-.459-9.054-1.767-11.5a10.792 10.792 0 0 0-4.525-4.52c-2.154-1.155-4.258-1.646-9.308-1.75l-2.192-.021zm59.458 97.841v-79.02l-29.166 22.095v34.834l29.166 22.091zM81.25 68.75A6.25 6.25 0 0 1 87.5 75v18.75h18.75a6.25 6.25 0 0 1 0 12.5H87.5V125a6.25 6.25 0 0 1-12.5 0v-18.75H56.25a6.25 6.25 0 0 1 0-12.5H75V75a6.25 6.25 0 0 1 6.25-6.25z"/></svg>