<svg width="200" height="200" xmlns="http://www.w3.org/2000/svg"><defs><style/></defs><path d="M38.62 27.083h85.255c8.88 0 13.53.9 18.375 3.488a25.37 25.37 0 0 1 10.508 10.508c2.588 4.846 3.488 9.496 3.488 18.375v3.258l21.617-16.375a12.5 12.5 0 0 1 20.05 9.963v87.4a12.5 12.5 0 0 1-20.05 9.963l-21.613-16.371v3.258c0 8.88-.9 13.53-3.488 18.375a25.367 25.367 0 0 1-10.508 10.508c-4.846 2.588-9.496 3.488-18.375 3.488H38.625c-8.88 0-13.53-.9-18.375-3.488a25.37 25.37 0 0 1-10.508-10.508c-2.588-4.846-3.488-9.496-3.488-18.375V59.458c0-8.879.9-13.529 3.488-18.375A25.37 25.37 0 0 1 20.25 30.571c4.846-2.588 9.496-3.488 18.375-3.488zm85.26 16.667H38.624c-6.362 0-8.417.396-10.517 1.52a8.708 8.708 0 0 0-3.666 3.667c-1.125 2.1-1.521 4.155-1.521 10.517v81.088c0 6.362.396 8.416 1.52 10.516a8.67 8.67 0 0 0 3.667 3.667c1.854.992 3.667 1.417 8.442 1.5l2.075.02h85.25c6.362 0 8.417-.395 10.517-1.52a8.708 8.708 0 0 0 3.666-3.667c.992-1.854 1.417-3.666 1.5-8.441l.021-2.075V59.458c0-6.362-.396-8.416-1.52-10.516a8.708 8.708 0 0 0-3.667-3.667c-1.854-.992-3.667-1.417-8.442-1.5l-2.075-.02zm57.37 91.567V64.679l-25 18.942v32.754l25 18.942zm-100-68.65A8.333 8.333 0 0 1 89.583 75v16.667h16.667a8.333 8.333 0 1 1 0 16.666H89.583V125a8.333 8.333 0 1 1-16.666 0v-16.667H56.25a8.333 8.333 0 1 1 0-16.666h16.667V75a8.333 8.333 0 0 1 8.333-8.333z"/></svg>