<svg width="200" height="200" xmlns="http://www.w3.org/2000/svg"><defs><style/></defs><path d="M70.542 31.262l26.112 60.376a6.251 6.251 0 1 1-11.75 4.27L75.5 75H46.533l-9.408 20.908a6.25 6.25 0 0 1-7.438 3.917l-.575-.18a6.25 6.25 0 0 1-3.916-7.437l.183-.575 26.104-60.375a10.38 10.38 0 0 1 19.059 0zM61.77 44.5a.833.833 0 0 0-1.517 0l-8.1 18h17.717l-8.1-18zm15.604 76.333L29.388 157.53A11.175 11.175 0 0 0 25 166.404c0 4.75 3.85 8.596 8.596 8.596h55.987a6.25 6.25 0 0 0 0-12.5H43.458l48.667-37.213a9.446 9.446 0 0 0-5.738-16.954h-54.57a6.25 6.25 0 1 0 0 12.5h45.558zm81.758-91.375l20.288 20.292a6.25 6.25 0 0 1-8.842 8.833L156.25 44.258V155.75l14.333-14.333a6.25 6.25 0 0 1 8.834 8.841l-20.284 20.284q-3.562 3.566-5.979 4.333-3.154 1-6.308 0-2.417-.767-5.98-4.333l-20.287-20.284a6.252 6.252 0 1 1 8.842-8.841l14.329 14.333V44.25l-14.333 14.333a6.25 6.25 0 0 1-8.834-8.841l20.284-20.284q3.562-3.566 5.979-4.333 3.154-1 6.308 0 2.417.767 5.98 4.333z"/></svg>