<svg width="200" height="200" xmlns="http://www.w3.org/2000/svg"><defs><style/></defs><path d="M171.633 29.458l20.284 20.292a6.25 6.25 0 1 1-8.834 8.833L168.75 44.254V155.75l14.333-14.333a6.25 6.25 0 0 1 8.834 8.841l-20.284 20.284q-3.562 3.566-5.979 4.333-3.154 1-6.308 0-2.417-.767-5.98-4.333l-20.287-20.284a6.252 6.252 0 1 1 8.842-8.841l14.329 14.333V44.25l-14.333 14.333a6.25 6.25 0 0 1-8.834-8.841l20.284-20.284q3.562-3.566 5.979-4.333 3.154-1 6.308 0 2.417.767 5.98 4.333zM22.917 31.25a6.25 6.25 0 1 0 0 12.5H68.75a6.25 6.25 0 0 0 0-12.5H22.917zm0 41.667a6.25 6.25 0 1 0 0 12.5h87.5a6.25 6.25 0 0 0 0-12.5h-87.5zm0 41.666a6.25 6.25 0 1 0 0 12.5h87.5a6.25 6.25 0 0 0 0-12.5h-87.5zm0 41.667a6.25 6.25 0 1 0 0 12.5H68.75a6.25 6.25 0 0 0 0-12.5H22.917z"/></svg>