<svg width="200" height="200" xmlns="http://www.w3.org/2000/svg"><defs><style/></defs><path d="M127.083 154.167a6.25 6.25 0 0 1 0 12.5H31.25a6.25 6.25 0 0 1 0-12.5zm8.513-89.654a35.417 35.417 0 0 1 29.792 54.574l-.817 1.209 21.187 21.183a6.25 6.25 0 0 1-8.362 9.267l-.475-.43-21.23-21.224a35.417 35.417 0 1 1-20.095-64.584zM68.75 112.5a6.25 6.25 0 0 1 0 12.5h-37.5a6.25 6.25 0 0 1 0-12.5zm66.846-35.487a22.917 22.917 0 1 0 0 45.833 22.917 22.917 0 0 0 0-45.833zm-66.846-6.18a6.25 6.25 0 1 1 0 12.5h-37.5a6.25 6.25 0 1 1 0-12.5zm100-41.666a6.25 6.25 0 0 1 0 12.5H31.25a6.25 6.25 0 1 1 0-12.5z"/></svg>