<svg width="200" height="200" xmlns="http://www.w3.org/2000/svg"><defs><style/></defs><path d="M93.75 20.833c40.27 0 72.917 32.646 72.917 72.917a72.917 72.917 0 0 1-17.18 47.013c.267.191.525.408.767.65l33.333 33.333a6.252 6.252 0 0 1-8.841 8.841l-33.334-33.333a6.292 6.292 0 0 1-.65-.767 72.917 72.917 0 0 1-47.012 17.18c-40.27 0-72.917-32.646-72.917-72.917S53.48 20.833 93.75 20.833zm0 12.5c-33.367 0-60.417 27.05-60.417 60.417s27.05 60.417 60.417 60.417 60.417-27.05 60.417-60.417-27.05-60.417-60.417-60.417zM114.583 87.5a6.25 6.25 0 0 1 0 12.5H72.917a6.25 6.25 0 0 1 0-12.5h41.666z"/></svg>