<svg width="200" height="200" xmlns="http://www.w3.org/2000/svg"><defs><style/></defs><path d="M122.133 26.567q-13.55-5.734-28.383-5.734-14.833 0-28.383 5.734Q52.279 32.1 42.192 42.192 32.1 52.279 26.567 65.367q-5.734 13.55-5.734 28.383 0 14.833 5.734 28.383 5.533 13.088 15.625 23.175 10.087 10.092 23.175 15.625 13.55 5.734 28.383 5.734 14.833 0 28.383-5.734 10.234-4.329 18.634-11.441c.196.27.412.525.646.762l33.333 33.333a6.252 6.252 0 0 0 8.841-8.841l-33.333-33.334a6.3 6.3 0 0 0-.762-.645q7.112-8.4 11.441-18.634 5.734-13.55 5.734-28.383 0-14.833-5.734-28.383-5.533-13.088-15.625-23.175-10.087-10.092-23.175-15.625zm-51.9 11.512q11.225-4.746 23.517-4.746t23.517 4.746q10.841 4.583 19.204 12.95 8.367 8.367 12.95 19.208 4.746 11.213 4.746 23.513 0 12.296-4.746 23.517-4.583 10.841-12.95 19.204-8.367 8.367-19.208 12.95-11.213 4.746-23.513 4.746-12.296 0-23.517-4.746-10.837-4.583-19.208-12.95-8.362-8.367-12.946-19.208-4.746-11.213-4.746-23.513 0-12.296 4.746-23.517 4.584-10.837 12.95-19.208 8.367-8.362 19.209-12.946z" fill-rule="evenodd" fill="#111925"/></svg>