<svg width="200" height="200" xmlns="http://www.w3.org/2000/svg"><defs><style/></defs><path d="M38.62 25h85.255c9.192 0 14.167.958 19.358 3.737a27.454 27.454 0 0 1 11.359 11.359c2.775 5.187 3.737 10.166 3.737 19.358v.313l18.217-13.95A14.583 14.583 0 0 1 200 57.4v85.204a14.583 14.583 0 0 1-23.45 11.58l-18.217-13.95v.312c0 9.191-.958 14.166-3.737 19.358a27.454 27.454 0 0 1-11.358 11.358C138.05 174.037 133.07 175 123.879 175H38.625c-9.196 0-14.167-.958-19.358-3.738a27.454 27.454 0 0 1-11.359-11.358c-2.783-5.187-3.741-10.167-3.741-19.362V59.458c0-9.196.958-14.166 3.737-19.358a27.454 27.454 0 0 1 11.358-11.358C24.45 25.958 29.43 25 38.626 25zm86.284 20.833H37.596c-4.575.038-6.392.309-7.883.967l-.626.304a6.625 6.625 0 0 0-2.812 2.817C25.333 51.679 25 53.404 25 59.454v82.117c.037 4.575.308 6.392.967 7.883l.308.625a6.593 6.593 0 0 0 2.813 2.813c1.758.941 3.483 1.275 9.533 1.275l86.283-.004c4.575-.034 6.392-.305 7.884-.963l.624-.308a6.625 6.625 0 0 0 2.813-2.813c.942-1.758 1.275-3.483 1.275-9.533V58.429c-.037-4.575-.308-6.392-.967-7.883l-.308-.625a6.625 6.625 0 0 0-2.812-2.817c-1.446-.77-2.875-1.133-6.709-1.237l-1.8-.034zM37.5 69.792a11.458 11.458 0 1 1 22.917 0 11.458 11.458 0 0 1-22.917 0zm141.662 60.15V70.054L158.333 86v28l20.83 15.942z"/></svg>