<svg width="200" height="200" xmlns="http://www.w3.org/2000/svg"><defs><style/></defs><path d="M38.62 27.083h85.255c8.88 0 13.53.9 18.375 3.488a25.37 25.37 0 0 1 10.508 10.508c2.588 4.846 3.488 9.496 3.488 18.375v4.53l21.567-16.513a12.5 12.5 0 0 1 20.1 9.925v85.208a12.5 12.5 0 0 1-20.1 9.925l-21.563-16.512v4.529c0 8.879-.9 13.529-3.488 18.375a25.367 25.367 0 0 1-10.508 10.508c-4.846 2.588-9.496 3.488-18.375 3.488H38.625c-8.88 0-13.53-.9-18.375-3.488a25.37 25.37 0 0 1-10.508-10.508c-2.588-4.846-3.488-9.496-3.488-18.375V59.458c0-8.879.9-13.529 3.488-18.375A25.37 25.37 0 0 1 20.25 30.571c4.846-2.588 9.496-3.488 18.375-3.488zm85.26 16.667H38.624c-6.362 0-8.417.396-10.517 1.52a8.708 8.708 0 0 0-3.666 3.667c-1.125 2.1-1.521 4.155-1.521 10.517v81.088c0 6.362.396 8.416 1.52 10.516a8.67 8.67 0 0 0 3.667 3.667c1.854.992 3.667 1.417 8.442 1.5l2.075.02h85.25c6.362 0 8.417-.395 10.517-1.52a8.708 8.708 0 0 0 3.666-3.667c.992-1.854 1.417-3.666 1.5-8.441l.021-2.075V59.458c0-6.362-.396-8.416-1.52-10.516a8.708 8.708 0 0 0-3.667-3.667c-1.854-.992-3.667-1.417-8.442-1.5l-2.075-.02zm-86.38 25a10.417 10.417 0 1 1 20.833 0 10.417 10.417 0 0 1-20.833 0zm143.746 65.412V65.834L156.25 84.971v30.054l24.996 19.137z"/></svg>