<svg width="200" height="200" xmlns="http://www.w3.org/2000/svg"><defs><style/></defs><path d="M100 16.667c11.3 0 22.112 2.183 32.438 6.55a82.667 82.667 0 0 1 26.487 17.858 82.667 82.667 0 0 1 17.858 26.488 82.442 82.442 0 0 1 6.55 32.437c0 11.3-2.183 22.112-6.55 32.438a82.667 82.667 0 0 1-17.858 26.487 82.667 82.667 0 0 1-26.488 17.858 82.442 82.442 0 0 1-32.437 6.55c-11.3 0-22.113-2.183-32.438-6.55a82.667 82.667 0 0 1-26.487-17.858 82.667 82.667 0 0 1-17.858-26.488A82.442 82.442 0 0 1 16.667 100c0-11.3 2.183-22.113 6.55-32.438a82.667 82.667 0 0 1 17.858-26.487 82.667 82.667 0 0 1 26.487-17.858A82.438 82.438 0 0 1 100 16.667zM89.6 125.513l37.563-21.917a4.167 4.167 0 0 0 0-7.196L89.6 74.488a4.167 4.167 0 0 0-6.267 3.6v43.825a4.167 4.167 0 0 0 6.267 3.6z"/></svg>