<svg width="200" height="200" xmlns="http://www.w3.org/2000/svg"><defs><style/></defs><path d="M159.975 41.625l18.758 63.096c.292.97.434 1.958.434 2.97v43.142c0 13.684-11.317 25.209-25 25.209H45.833c-13.683 0-25-11.525-25-25.209v-43.146c0-1.008.146-2 .434-2.966l18.758-63.096c3.125-10.513 12.992-17.667 23.958-17.667h72.034c10.966 0 20.833 7.154 23.958 17.667zm-11.98 3.562c-1.562-5.258-6.5-8.729-11.978-8.729H63.983c-5.483 0-10.416 3.471-11.979 8.73l-18.67 62.804v1.175h44.303c4.855 0 9.009 3.416 10.45 7.962 1.634 5.142 6.521 8.913 11.913 8.913s10.28-3.771 11.912-8.913c1.442-4.542 5.596-7.962 10.45-7.962h44.305v-1.175l-18.671-62.805zM80.359 67.5C77.4 67.5 75 64.7 75 61.25S77.4 55 80.358 55h39.284C122.6 55 125 57.8 125 61.25s-2.4 6.25-5.358 6.25H80.358zm-6.55 25c-3.946 0-7.141-2.8-7.141-6.25 0-3.454 3.195-6.25 7.141-6.25h52.384c3.945 0 7.141 2.796 7.141 6.25 0 3.45-3.196 6.25-7.141 6.25H73.808zM100 138.542c-10.483 0-20.104-6.967-23.575-16.875H33.333v29.166c0 6.842 5.659 12.709 12.5 12.709h108.334c6.841 0 12.5-5.867 12.5-12.709v-29.166h-43.092c-3.47 9.908-13.092 16.875-23.575 16.875z"/></svg>