<svg width="200" height="200" xmlns="http://www.w3.org/2000/svg"><defs><style/></defs><path d="M66.933 53.446l18.325-34.734a16.667 16.667 0 0 1 29.484 0l18.325 34.734a4.167 4.167 0 0 0 2.975 2.158l38.696 6.696a16.667 16.667 0 0 1 9.108 28.042L156.475 118.5a4.167 4.167 0 0 0-1.133 3.5l5.587 38.867a16.667 16.667 0 0 1-23.85 17.333l-35.241-17.333a4.167 4.167 0 0 0-3.675 0L62.92 178.2a16.667 16.667 0 0 1-23.85-17.333l5.587-38.871a4.167 4.167 0 0 0-1.133-3.496l-27.37-28.163A16.667 16.667 0 0 1 25.262 62.3l38.695-6.696a4.167 4.167 0 0 0 2.975-2.158zm36.75-28.9a4.167 4.167 0 0 0-7.366 0L77.992 59.275a16.667 16.667 0 0 1-11.9 8.646l-38.696 6.696a4.167 4.167 0 0 0-2.28 7.008l27.371 28.167a16.667 16.667 0 0 1 4.542 13.983l-5.583 38.875a4.167 4.167 0 0 0 5.958 4.33l35.242-17.33a16.667 16.667 0 0 1 14.708 0l35.242 17.33a4.167 4.167 0 0 0 5.958-4.334l-5.583-38.871a16.667 16.667 0 0 1 4.541-13.988l27.371-28.162a4.167 4.167 0 0 0-2.279-7.008l-38.696-6.696a16.667 16.667 0 0 1-11.9-8.646l-18.325-34.73z"/></svg>