<svg width="200" height="200" xmlns="http://www.w3.org/2000/svg"><defs><style/></defs><path d="M93.75 22.917a6.25 6.25 0 0 1 12.5 0v21l69.85 32.237c1.892.875 3.383 2.184 4.47 3.925a10.255 10.255 0 0 1 1.58 5.317 10.25 10.25 0 0 1-1.358 5.379 10.192 10.192 0 0 1-4.304 4.108l-70.238 36.021v33.175l16.417-16.417a6.25 6.25 0 0 1 8.833 8.842l-24.133 24.138a10.038 10.038 0 0 1-7.367 3.05c-2.875 0-5.333-1.017-7.367-3.05L68.5 156.5a6.25 6.25 0 1 1 8.842-8.838l16.412 16.413V130.9L23.512 94.88a10.192 10.192 0 0 1-4.304-4.11 10.254 10.254 0 0 1-1.358-5.374c.042-1.925.567-3.7 1.58-5.317 1.087-1.746 2.583-3.054 4.47-3.929l69.85-32.233v-21zm0 44.079c-15.42 1.646-27.083 9.267-27.083 18.42 0 10.355 14.925 18.75 33.333 18.75s33.333-8.395 33.333-18.75c0-9.153-11.662-16.774-27.083-18.42v16.337a6.25 6.25 0 0 1-12.5 0V66.996z"/></svg>