<svg width="200" height="200" xmlns="http://www.w3.org/2000/svg"><defs><style/></defs><path d="M175 43.75c0 4.813-2.342 9.2-7.03 13.154-4.112 3.475-9.912 6.458-17.395 8.958-14.058 4.709-30.925 7.055-50.575 7.055s-36.508-2.35-50.58-7.05c-7.478-2.5-13.278-5.488-17.39-8.959C27.341 52.946 25 48.558 25 43.75c0-4.813 2.342-9.2 7.03-13.154 4.112-3.475 9.912-6.459 17.39-8.959 14.072-4.708 30.93-7.054 50.58-7.054s36.513 2.35 50.58 7.05c7.478 2.5 13.278 5.488 17.39 8.959 4.688 3.962 7.03 8.35 7.03 13.158zm-7.03 25.654c4.688-3.958 7.03-8.341 7.03-13.154v25c0 4.813-2.346 9.2-7.03 13.154-4.112 3.475-9.912 6.459-17.395 8.959-14.058 4.708-30.925 7.054-50.575 7.054s-36.508-2.35-50.575-7.05c-7.483-2.5-13.283-5.488-17.396-8.959C27.342 90.446 25 86.058 25 81.25v-25c0 4.813 2.342 9.2 7.03 13.154 4.112 3.475 9.912 6.459 17.395 8.959C63.492 83.07 80.35 85.416 100 85.416s36.513-2.35 50.58-7.05c7.478-2.5 13.278-5.488 17.39-8.959zm-135.94 37.5c4.112 3.475 9.912 6.459 17.395 8.959 14.067 4.708 30.925 7.054 50.575 7.054s36.512-2.35 50.58-7.05c7.478-2.5 13.278-5.488 17.39-8.959 4.684-3.962 7.03-8.35 7.03-13.158v20.833c0 4.813-2.342 10.588-7.03 17.321-4.112 3.475-9.912 6.459-17.395 8.959-14.058 4.708-30.925 7.054-50.575 7.054s-36.508-2.35-50.575-7.05c-7.483-2.5-13.283-5.488-17.396-8.959-4.687-3.962-7.029-9.737-7.029-17.325V93.75c0 4.813 2.342 9.2 7.03 13.154zM25 152.084V131.25c0 4.817 2.342 9.2 7.03 13.154 4.112 3.475 9.912 6.459 17.395 8.959 14.067 4.708 30.925 7.054 50.575 7.054s36.512-2.35 50.58-7.05c7.478-2.5 13.278-5.488 17.39-8.959 4.688-3.962 7.03-8.346 7.03-13.158v20.833c0 7.871-2.587 13.85-7.762 17.938-4.063 3.208-9.613 5.987-16.659 8.346-14.075 4.7-30.933 7.05-50.579 7.05-19.65 0-36.508-2.35-50.58-7.05-7.04-2.359-12.595-5.138-16.657-8.346C27.588 163.154 25 157.175 25 152.083z"/></svg>