<svg width="200" height="200" xmlns="http://www.w3.org/2000/svg"><defs><style/></defs><path d="M171.875 97.225A47.917 47.917 0 0 0 119 107.338c-18.708 18.708-18.708 49.05 0 67.762a48.17 48.17 0 0 0 7.55 6.15H53.125a25 25 0 0 1-25-25V43.75a25 25 0 0 1 25-25h93.75a25 25 0 0 1 25 25v53.475zM131.25 70.833a6.25 6.25 0 0 0-6.25-6.25H75a6.25 6.25 0 0 0 0 12.5h50a6.25 6.25 0 0 0 6.25-6.25zM75 102.083a6.25 6.25 0 0 0 0 12.5h20.833a6.25 6.25 0 0 0 0-12.5H75zm54.313 15.563a33.333 33.333 0 0 1 51.145 42.312l.125.121 10.313 10.309a6.252 6.252 0 0 1-8.842 8.841l-10.308-10.312-.125-.125a33.333 33.333 0 0 1-42.304-51.142zm8.841 38.304a20.833 20.833 0 1 0 29.458-29.462 20.833 20.833 0 0 0-29.458 29.458z"/></svg>