<svg width="200" height="200" xmlns="http://www.w3.org/2000/svg"><defs><style/></defs><path d="M89.833 35.167c2.5 2.495 4.109 3.979 4.821 4.445 1.33.875 2.771 1.471 4.33 1.792.833.175 3.016.263 6.55.263h38.933c5.4 0 9.112.075 11.133.22 3.458.25 6.333.88 8.612 1.88 5.955 2.616 10.238 6.9 12.855 12.854 1 2.283 1.625 5.15 1.875 8.612.15 2.021.225 5.734.225 11.134V140.3c0 5.4-.075 9.112-.221 11.133-.25 3.459-.88 6.334-1.88 8.613-2.616 5.954-6.9 10.237-12.853 12.854-2.28 1-5.15 1.625-8.613 1.875-2.02.15-5.733.225-11.133.225H55.533c-5.4 0-9.112-.075-11.133-.22-3.458-.25-6.333-.88-8.613-1.88-5.954-2.617-10.237-6.9-12.854-12.854-1-2.28-1.625-5.15-1.875-8.613-.154-2.016-.225-5.733-.225-11.133V59.7c0-5.4.075-9.113.221-11.133.25-3.459.88-6.334 1.88-8.613C25.55 34 29.833 29.717 35.791 27.1c2.283-1 5.15-1.625 8.612-1.875 2.013-.154 5.73-.225 11.13-.225H65.3c4.383 0 7.417.175 9.083.52 3.117.642 6 1.838 8.663 3.584 1.425.938 3.687 2.958 6.791 6.058zM81 44c-2.5-2.496-4.108-3.98-4.82-4.446a12.396 12.396 0 0 0-4.33-1.792c-.833-.179-3.017-.262-6.55-.262h-9.767c-5.096 0-8.504.063-10.225.188-2.029.15-3.529.433-4.496.858a12.117 12.117 0 0 0-6.433 6.433c-.425.967-.708 2.467-.858 4.496-.125 1.72-.188 5.125-.188 10.225v80.6c0 5.096.063 8.504.188 10.225.15 2.03.433 3.525.858 4.496 1.308 2.979 3.458 5.125 6.433 6.433.967.425 2.467.708 4.496.858 1.721.125 5.13.188 10.225.188h88.934c5.096 0 8.504-.063 10.225-.188 2.029-.15 3.525-.433 4.496-.858a12.117 12.117 0 0 0 6.433-6.433c.425-.971.708-2.467.858-4.496.125-1.72.188-5.125.188-10.225V76.367c0-5.096-.063-8.504-.188-10.225-.15-2.03-.433-3.53-.858-4.496a12.117 12.117 0 0 0-6.434-6.433c-.97-.425-2.466-.709-4.495-.859-1.721-.125-5.125-.187-10.225-.187h-38.934c-4.383 0-7.416-.175-9.083-.521a24.78 24.78 0 0 1-8.662-3.583c-1.425-.938-3.688-2.959-6.792-6.059zm25.25 39.333V100h16.667a6.25 6.25 0 0 1 0 12.5H106.25v16.667a6.25 6.25 0 0 1-12.5 0V112.5H77.083a6.25 6.25 0 0 1 0-12.5H93.75V83.333a6.25 6.25 0 0 1 12.5 0z"/></svg>