<svg width="200" height="200" xmlns="http://www.w3.org/2000/svg"><defs><style/></defs><path d="M171.042 118.067a33.333 33.333 0 0 1 4 42.304l10.433 10.429a6.25 6.25 0 0 1-8.383 9.254l-.459-.417-10.429-10.433a33.333 33.333 0 1 1 4.833-51.137zM146.875 18.75a25 25 0 0 1 25 25v41.667a6.25 6.25 0 0 1-12.5 0V43.75a12.5 12.5 0 0 0-12.5-12.5h-93.75a12.5 12.5 0 0 0-12.5 12.5v112.5a12.5 12.5 0 0 0 12.5 12.5H100a6.25 6.25 0 0 1 0 12.5H53.125a25 25 0 0 1-25-25V43.75a25 25 0 0 1 25-25h93.75zm.592 102.05a20.833 20.833 0 1 0 0 41.667 20.833 20.833 0 0 0 0-41.667zm-45.384-18.717a6.25 6.25 0 0 1 0 12.5H75a6.25 6.25 0 0 1 0-12.5h27.083zM125 64.583a6.25 6.25 0 0 1 0 12.5H75a6.25 6.25 0 1 1 0-12.5h50z"/></svg>