<svg width="200" height="200" xmlns="http://www.w3.org/2000/svg"><defs><style/></defs><path d="M42.708 168.613V30.85c0-3.625 1.284-6.725 3.85-9.292a12.667 12.667 0 0 1 9.292-3.85h48.317c6.07 0 11.883 1.175 17.437 3.525a44.43 44.43 0 0 1 14.234 9.596 44.255 44.255 0 0 1 9.595 14.233c2.35 5.555 3.525 11.367 3.525 17.438 0 6.07-1.175 11.883-3.525 17.437a44.4 44.4 0 0 1-9.237 13.876 46.508 46.508 0 0 1 11.533 8.458 46.492 46.492 0 0 1 10.042 14.896 46.375 46.375 0 0 1 3.687 18.25 46.375 46.375 0 0 1-3.687 18.25 46.492 46.492 0 0 1-10.042 14.895 46.492 46.492 0 0 1-14.896 10.042 46.375 46.375 0 0 1-18.25 3.688H56.392c-3.78 0-7.004-1.334-9.675-4.009a13.183 13.183 0 0 1-4.009-9.67zm87.5-106.113c0-7.192-2.541-13.33-7.625-18.417-5.087-5.083-11.225-7.625-18.416-7.625H61.458v52.084h42.709c7.191 0 13.329-2.542 18.416-7.625 5.084-5.088 7.625-11.225 7.625-18.417zm-15.625 101.042c7.767 0 14.396-2.746 19.888-8.238 5.491-5.492 8.237-12.125 8.237-19.887 0-7.767-2.746-14.396-8.237-19.888-5.492-5.492-12.125-8.237-19.888-8.237H61.458v56.25h53.125z"/></svg>