<svg width="200" height="200" xmlns="http://www.w3.org/2000/svg"><defs><style/></defs><path d="M25 168.75a6.25 6.25 0 0 1 1.05-3.467L69.57 100 26.05 34.717a6.25 6.25 0 1 1 10.4-6.934l40.633 60.95 40.634-60.95a6.25 6.25 0 0 1 10.4 6.934L84.596 100l43.52 65.283a6.254 6.254 0 0 1-10.4 6.934l-40.633-60.95-40.633 60.95A6.25 6.25 0 0 1 25 168.75zm118.75 1.042c0-4.088.892-7.971 2.68-11.646a26.313 26.313 0 0 1 7.5-9.304l15.62-12.267c2.246-1.767 3.367-4.075 3.367-6.93 0-2.433-.863-4.512-2.584-6.233a8.488 8.488 0 0 0-6.225-2.579h-.641c-2.313 0-4.35.75-6.113 2.242-1.762 1.492-2.833 3.375-3.212 5.658l-.042.25a5.209 5.209 0 0 1-10.275-1.716l.042-.246a19.283 19.283 0 0 1 6.754-11.896 19.283 19.283 0 0 1 12.846-4.708h.641c5.313 0 9.842 1.875 13.596 5.633 3.754 3.75 5.633 8.283 5.633 13.596 0 2.95-.645 5.75-1.933 8.404a18.983 18.983 0 0 1-5.417 6.712l-15.616 12.271c-2.667 2.1-4.475 4.617-5.421 7.55h23.18a5.208 5.208 0 1 1 0 10.417h-29.168a5.21 5.21 0 0 1-5.208-5.208z"/></svg>