<svg width="200" height="200" xmlns="http://www.w3.org/2000/svg"><defs><style/></defs><path d="M100.28 166.425v-.008L84.886 116.47a6.254 6.254 0 0 1-1.554.196H37.5a6.332 6.332 0 0 1-1.554-.196l-15.388 49.946v.008a6.25 6.25 0 0 1-11.946-3.683v-.004L41.7 55.346c2.292-7.421 3.93-12.363 4.917-14.821 1.941-4.808 4.279-7.92 7.012-9.333a14.558 14.558 0 0 1 6.788-1.642c2.412 0 4.675.546 6.787 1.638 2.734 1.416 5.071 4.529 7.013 9.337.987 2.458 2.625 7.4 4.916 14.82l33.088 107.393v.004a6.25 6.25 0 1 1-11.942 3.683zm-60.543-62.258h41.359L67.187 59.029c-2.183-7.087-3.708-11.696-4.566-13.829a17.925 17.925 0 0 0-1.5-3.054 2.075 2.075 0 0 0-1.408 0 17.925 17.925 0 0 0-1.5 3.058c-.863 2.125-2.384 6.738-4.567 13.825l-13.909 45.138zm81.096-6.25a6.25 6.25 0 0 1 1.054-3.475 33.813 33.813 0 0 1 12.359-11.213 33.813 33.813 0 0 1 16.196-4.062h5.6c7 0 13.208 2.22 18.625 6.658a28.542 28.542 0 0 1 10.179 16.954c.379 1.9.57 3.821.57 5.763v38.391a32.763 32.763 0 0 0 3.505 14.85v.005a6.25 6.25 0 1 1-11.18 5.591v-.012a46.796 46.796 0 0 1-2.029-4.667c-4.95 4.563-10.87 7.088-17.766 7.583l-1.009.071a90.25 90.25 0 0 1-13.941-.083c-6.854-.571-12.609-3.388-17.263-8.446-4.654-5.058-6.983-11.025-6.983-17.9v-.804c0-6.742 2.325-12.55 6.975-17.43 4.654-4.874 10.346-7.474 17.08-7.795l12.324-.588c6.55-.312 12.48-2.27 17.788-5.875v-2.891c0-1.117-.109-2.221-.33-3.313a16.396 16.396 0 0 0-5.845-9.737 16.396 16.396 0 0 0-10.7-3.825h-5.6c-3.65 0-7.084.862-10.3 2.583a21.51 21.51 0 0 0-7.859 7.133 6.25 6.25 0 0 1-11.45-3.466zm52.084 42.862v-15.046c-5.334 2.417-11.063 3.771-17.196 4.063l-12.321.583a12.317 12.317 0 0 0-8.625 3.942 12.317 12.317 0 0 0-3.525 8.8v.804c0 3.625 1.225 6.77 3.683 9.438 2.454 2.666 5.488 4.15 9.1 4.45a78.1 78.1 0 0 0 12.013.075l1.008-.076a16.508 16.508 0 0 0 11.283-5.395 16.508 16.508 0 0 0 4.58-11.638z"/></svg>