<svg width="200" height="200" xmlns="http://www.w3.org/2000/svg"><defs><style/></defs><path d="M69.57 100L26.05 34.717a6.25 6.25 0 1 1 10.4-6.934l40.633 60.95 40.634-60.95a6.25 6.25 0 0 1 10.4 6.934L84.596 100l43.52 65.283a6.254 6.254 0 0 1-10.4 6.934l-40.633-60.95-40.633 60.95a6.25 6.25 0 0 1-10.4-6.934L69.57 100zm108.555-10.417h-29.167a5.21 5.21 0 0 1-5.208-5.208c0-4.088.892-7.97 2.68-11.646a26.313 26.313 0 0 1 7.5-9.3l15.62-12.275c2.246-1.762 3.367-4.07 3.367-6.925 0-2.433-.863-4.512-2.584-6.233a8.488 8.488 0 0 0-6.229-2.58h-.642c-2.312 0-4.345.75-6.112 2.242-1.763 1.492-2.833 3.375-3.213 5.659l-.041.25a5.209 5.209 0 0 1-10.275-1.717l.041-.246a19.283 19.283 0 0 1 6.755-11.896A19.283 19.283 0 0 1 163.462 25h.642c5.313 0 9.842 1.875 13.596 5.633 3.754 3.75 5.633 8.284 5.633 13.596 0 2.95-.646 5.75-1.933 8.404a18.987 18.987 0 0 1-5.417 6.713l-15.616 12.27c-2.667 2.1-4.475 4.617-5.421 7.55h23.179a5.208 5.208 0 1 1 0 10.417z"/></svg>