<svg width="200" height="200" xmlns="http://www.w3.org/2000/svg"><defs><style/></defs><path d="M146.375 137.967L129.429 100H70.571l-16.946 37.958a6.25 6.25 0 1 1-11.417-5.091l46-103.025c1.196-2.692 2.071-4.525 2.625-5.5 1.317-2.342 2.896-3.946 4.73-4.8a10.008 10.008 0 0 1 8.874 0c1.834.854 3.413 2.458 4.734 4.804.55.97 1.425 2.804 2.625 5.496l45.996 103.029a6.251 6.251 0 1 1-11.417 5.096zM100 34.092c-.125.266-.25.545-.38.845L76.155 87.5h47.692l-23.467-52.563a250.954 250.954 0 0 0-.379-.854zm-74.346 144.15c-.646-1.521-.654-3.525-.654-7.409 0-3.883.008-5.887.654-7.412a8.363 8.363 0 0 1 4.438-4.433c1.525-.642 3.525-.655 7.408-.655h125c3.883 0 5.883.009 7.412.654a8.362 8.362 0 0 1 4.434 4.434c.646 1.525.654 3.529.654 7.412 0 3.88-.008 5.884-.654 7.409a8.363 8.363 0 0 1-4.438 4.433c-1.525.646-3.525.658-7.408.658h-125c-3.883 0-5.883-.012-7.408-.658a8.363 8.363 0 0 1-4.438-4.433z"/></svg>