<svg width="200" height="200" xmlns="http://www.w3.org/2000/svg"><defs><style/></defs><path d="M84.883 116.47a6.25 6.25 0 0 1-1.55.197H37.5a6.275 6.275 0 0 1-1.55-.196l-15.392 49.95a6.25 6.25 0 1 1-11.945-3.68L41.7 55.347c2.292-7.417 3.93-12.363 4.917-14.817 1.941-4.812 4.279-7.925 7.012-9.337a14.558 14.558 0 0 1 6.788-1.642c2.412 0 4.675.546 6.787 1.642 2.734 1.416 5.071 4.525 7.013 9.333.987 2.458 2.625 7.4 4.916 14.82l33.088 107.392v.005a6.25 6.25 0 1 1-11.942 3.683l-15.396-49.954zM62.625 45.209a17.925 17.925 0 0 0-1.5-3.058 2.075 2.075 0 0 0-1.408 0 17.925 17.925 0 0 0-1.5 3.058c-.863 2.13-2.384 6.738-4.567 13.825l-13.912 45.134h41.358L67.188 59.029c-2.184-7.083-3.709-11.696-4.567-13.825zm122.792 83.959v21.654c0 3.737 1.033 7.166 3.104 10.275l.012.02a6.25 6.25 0 0 1-10.4 6.934l-.004-.004a30.867 30.867 0 0 1-3.958-8.384 34.792 34.792 0 0 1-10.725 8.067 30.67 30.67 0 0 1-26.892 0c-4.57-2.196-8.57-5.379-12-9.546a42.625 42.625 0 0 1-7.617-14.041 48.004 48.004 0 0 1-2.354-14.975c0-5.167.788-10.159 2.354-14.975a42.625 42.625 0 0 1 7.613-14.042c3.433-4.167 7.433-7.35 12.004-9.546a30.67 30.67 0 0 1 26.892 0 34.425 34.425 0 0 1 9.47 6.75V93.75a6.25 6.25 0 1 1 12.5 0v35.417zm-12.5 0c0-8.284-2.375-15.309-7.117-21.071C161.354 102.7 156.092 100 150 100c-6.087 0-11.354 2.7-15.8 8.096-4.742 5.762-7.117 12.787-7.117 21.07 0 8.284 2.375 15.309 7.117 21.071 4.446 5.396 9.708 8.096 15.8 8.096 6.087 0 11.354-2.7 15.8-8.096 4.742-5.762 7.117-12.787 7.117-21.07z"/></svg>