<svg width="200" height="200" xmlns="http://www.w3.org/2000/svg"><defs><style/></defs><path d="M154.167 27.083v68.75c0 7.342-1.417 14.375-4.259 21.084a53.73 53.73 0 0 1-11.608 17.216 53.73 53.73 0 0 1-17.212 11.609A53.583 53.583 0 0 1 100 150c-7.342 0-14.375-1.417-21.083-4.258A53.73 53.73 0 0 1 61.7 134.133a53.73 53.73 0 0 1-11.608-17.212 53.583 53.583 0 0 1-4.259-21.088v-68.75a6.25 6.25 0 1 1 12.5 0v68.75a41.208 41.208 0 0 0 3.271 16.217 41.346 41.346 0 0 0 8.933 13.25 41.354 41.354 0 0 0 13.246 8.93A41.208 41.208 0 0 0 100 137.5a41.208 41.208 0 0 0 16.217-3.27 41.354 41.354 0 0 0 13.25-8.934 41.354 41.354 0 0 0 8.929-13.246 41.208 41.208 0 0 0 3.27-16.217v-68.75a6.25 6.25 0 0 1 12.5 0zM39.583 179.167a6.25 6.25 0 0 1 0-12.5h120.834a6.25 6.25 0 0 1 0 12.5H39.583z"/></svg>