<svg width="200" height="200" xmlns="http://www.w3.org/2000/svg"><defs><style/></defs><path d="M33.333 60.417v-7.5c0-6.28.096-10.575.292-12.896.333-3.992 1.167-7.275 2.5-9.846a24.48 24.48 0 0 1 10.717-10.712c2.57-1.334 5.854-2.167 9.846-2.505 2.32-.195 6.616-.291 12.895-.291h40.909c5.083 0 8.591.233 10.516.696a24.85 24.85 0 0 1 7.188 2.979c1.687 1.029 4.333 3.346 7.925 6.941l19.929 19.93c3.596 3.595 5.912 6.237 6.942 7.925a24.875 24.875 0 0 1 2.979 7.187c.462 1.925.696 5.433.696 10.517v74.241c0 6.28-.096 10.575-.292 12.896-.333 3.992-1.167 7.275-2.5 9.846a24.48 24.48 0 0 1-10.717 10.713c-2.57 1.333-5.854 2.166-9.846 2.504-2.32.196-6.62.291-12.895.291H69.583c-6.279 0-10.575-.095-12.896-.291-3.991-.334-7.275-1.167-9.845-2.5a24.48 24.48 0 0 1-10.713-10.717c-1.333-2.57-2.167-5.854-2.504-9.846-.196-2.32-.292-6.62-.292-12.896v-7.5a6.25 6.25 0 0 1 12.5 0v7.5c0 5.93.084 9.88.25 11.85.192 2.334.575 4.046 1.142 5.142 1.22 2.354 3.012 4.146 5.367 5.367 1.095.566 2.808.95 5.141 1.146 1.971.166 5.921.245 11.85.245h60.834c5.929 0 9.879-.083 11.85-.25 2.333-.191 4.046-.575 5.141-1.141a12.262 12.262 0 0 0 5.367-5.367c.567-1.096.95-2.808 1.146-5.142.167-1.97.246-5.92.246-11.85V72.842c0-4.096-.117-6.625-.346-7.584a12.438 12.438 0 0 0-1.492-3.6c-.517-.841-2.22-2.708-5.117-5.608L127.28 36.125c-2.896-2.9-4.767-4.604-5.608-5.125a12.43 12.43 0 0 0-3.596-1.487c-.958-.23-3.492-.346-7.583-.346H69.583c-5.929 0-9.879.083-11.85.25-2.333.191-4.045.575-5.141 1.141a12.267 12.267 0 0 0-5.367 5.367c-.567 1.096-.95 2.808-1.146 5.142-.166 1.97-.246 5.92-.246 11.85v7.5a6.25 6.25 0 0 1-12.5 0zm60.475 12.058l25 22.917a6.25 6.25 0 0 1 0 9.212l-25 22.917a6.25 6.25 0 0 1-8.45-9.208l13.159-12.063H39.583a6.25 6.25 0 0 1 0-12.5h58.934L85.358 81.692a6.252 6.252 0 1 1 8.45-9.217z"/></svg>