<svg width="200" height="200" xmlns="http://www.w3.org/2000/svg"><defs><style/></defs><path d="M132.363 20.342c1.687 1.029 4.333 3.346 7.925 6.941l19.929 19.93c3.596 3.595 5.912 6.237 6.941 7.925a24.8 24.8 0 0 1 2.98 7.187c.462 1.925.695 5.433.695 10.517v74.241c0 6.28-.095 10.575-.291 12.896-.334 3.992-1.167 7.275-2.5 9.846a24.48 24.48 0 0 1-10.717 10.713c-2.57 1.333-5.854 2.166-9.846 2.504-2.32.196-6.62.291-12.896.291H65.417c-6.28 0-10.575-.095-12.896-.291-3.992-.334-7.275-1.167-9.846-2.5a24.48 24.48 0 0 1-10.713-10.717c-1.333-2.57-2.166-5.854-2.504-9.846-.195-2.32-.291-6.62-.291-12.896V52.917c0-6.28.096-10.575.291-12.896.334-3.992 1.167-7.275 2.5-9.846a24.48 24.48 0 0 1 10.717-10.712c2.57-1.334 5.854-2.167 9.846-2.505 2.32-.195 6.616-.291 12.896-.291h49.241c5.084 0 8.592.233 10.517.696a24.85 24.85 0 0 1 7.187 2.979zm-78.796 9.07c-2.334.196-4.046.58-5.142 1.146a12.267 12.267 0 0 0-5.367 5.367c-.566 1.096-.95 2.808-1.145 5.142-.167 1.97-.246 5.92-.246 11.85v94.166c0 5.93.083 9.88.25 11.85.191 2.334.575 4.046 1.141 5.142 1.221 2.354 3.013 4.146 5.367 5.367 1.096.566 2.808.95 5.142 1.146 1.97.166 5.92.245 11.85.245h69.166c5.93 0 9.88-.083 11.85-.25 2.334-.191 4.046-.575 5.142-1.141a12.262 12.262 0 0 0 5.367-5.367c.566-1.096.95-2.808 1.146-5.142.166-1.97.245-5.92.245-11.85V72.842c0-4.096-.116-6.625-.346-7.584a12.438 12.438 0 0 0-1.491-3.6c-.517-.841-2.221-2.708-5.117-5.608L131.45 36.12c-2.896-2.895-4.767-4.6-5.608-5.116a12.433 12.433 0 0 0-3.596-1.492c-.963-.229-3.496-.345-7.588-.345H65.417c-5.93 0-9.88.083-11.85.25zM95.833 62.5c9.209 0 17.063 3.254 23.571 9.763 6.509 6.508 9.763 14.366 9.763 23.57 0 7.046-1.909 13.304-5.721 18.771l16.392 16.392a6.252 6.252 0 0 1-8.842 8.841l-16.392-16.391c-5.466 3.808-11.725 5.72-18.77 5.72-9.209 0-17.063-3.254-23.571-9.762-6.509-6.508-9.763-14.367-9.763-23.57 0-9.209 3.254-17.063 9.763-23.572 6.508-6.508 14.366-9.762 23.57-9.762zm0 54.167c5.75 0 10.667-2.034 14.73-6.104 4.07-4.063 6.104-8.976 6.104-14.73 0-5.75-2.034-10.666-6.104-14.729C106.5 77.034 101.588 75 95.832 75c-5.75 0-10.666 2.033-14.729 6.104C77.034 85.167 75 90.08 75 95.834c0 5.75 2.033 10.666 6.104 14.729 4.063 4.07 8.975 6.104 14.73 6.104z"/></svg>