<svg width="200" height="200" xmlns="http://www.w3.org/2000/svg"><defs><style/></defs><path d="M31.958 169.82c-2.762-5.328-2.791-12.487-2.791-26.487V56.667c0-14 .029-21.159 2.791-26.488A25.112 25.112 0 0 1 42.68 19.46c5.33-2.763 12.488-2.792 26.488-2.792H112.6c6.112 0 9.192 0 12.067.695a25.004 25.004 0 0 1 7.187 2.98c2.525 1.541 4.708 3.716 9.03 8.041l18.233 18.234c4.325 4.325 6.5 6.5 8.041 9.029a24.987 24.987 0 0 1 2.98 7.187c.691 2.875.695 5.954.695 12.067v68.433c0 14-.029 21.159-2.791 26.488a25.112 25.112 0 0 1-10.721 10.72c-5.33 2.763-12.488 2.792-26.488 2.792H69.167c-14 0-21.159-.029-26.488-2.791a25.112 25.112 0 0 1-10.72-10.721zm74.292-98.987a6.25 6.25 0 0 0-4.225 10.859l13.158 12.058H68.75a6.25 6.25 0 0 0 0 12.5h46.433l-13.158 12.058a6.25 6.25 0 1 0 8.45 9.213l25-22.917a6.25 6.25 0 0 0 0-9.208l-25-22.917a6.25 6.25 0 0 0-4.225-1.646z"/></svg>