<svg width="200" height="200" xmlns="http://www.w3.org/2000/svg"><defs><style/></defs><path d="M140.483 172.917c3.634 0 5.525-4.325 3.063-6.992l-35.892-38.883a10.417 10.417 0 0 0-15.308 0l-35.892 38.883c-2.462 2.667-.57 6.992 3.063 6.992h80.966zM43.75 150h10.392l11.541-12.5H43.75a12.042 12.042 0 0 1-8.837-3.662A12.042 12.042 0 0 1 31.25 125V50c0-3.45 1.22-6.396 3.663-8.838A12.042 12.042 0 0 1 43.75 37.5h116.667a12.042 12.042 0 0 1 8.837 3.662A12.042 12.042 0 0 1 172.917 50v75a12.042 12.042 0 0 1-3.663 8.838 12.042 12.042 0 0 1-8.837 3.662h-26.1l11.541 12.5h14.559c6.904 0 12.795-2.442 17.679-7.32 4.879-4.888 7.32-10.776 7.32-17.68V50c0-6.904-2.441-12.796-7.32-17.68-4.888-4.878-10.775-7.32-17.68-7.32H43.75c-6.904 0-12.796 2.442-17.68 7.32-4.878 4.888-7.32 10.776-7.32 17.68v75c0 6.904 2.442 12.796 7.32 17.68 4.888 4.878 10.776 7.32 17.68 7.32z"/></svg>