<svg width="200" height="200" xmlns="http://www.w3.org/2000/svg"><defs><style/></defs><path d="M30.208 52.083a7.292 7.292 0 0 1-7.291-7.291c0-12.084 9.791-21.875 21.875-21.875h110.416c12.084 0 21.875 9.791 21.875 21.875a7.292 7.292 0 0 1-7.291 7.291H30.208zm-4.5 111.488c-2.762-5.33-2.791-12.488-2.791-26.488V77.917c0-4.667.008-7.054.929-8.834a8.379 8.379 0 0 1 3.575-3.57c1.775-.917 4.162-.93 8.829-.93h127.5c4.667 0 7.054.009 8.833.93a8.377 8.377 0 0 1 3.571 3.574c.917 1.776.93 4.163.93 8.83v59.166c0 14-.03 21.159-2.792 26.488a25.112 25.112 0 0 1-10.721 10.72c-5.33 2.763-12.488 2.792-26.488 2.792H62.917c-14 0-21.159-.029-26.488-2.791a25.112 25.112 0 0 1-10.72-10.721zM70.833 93.75a8.333 8.333 0 1 0-16.666 0 8.333 8.333 0 0 0 16.666 0zm20.834 0a8.333 8.333 0 1 0 16.666 0 8.333 8.333 0 0 0-16.666 0zm54.166 0a8.333 8.333 0 1 0-16.666 0 8.333 8.333 0 0 0 16.666 0zm-91.666 27.083a8.333 8.333 0 1 0 16.666 0 8.333 8.333 0 0 0-16.666 0zm54.166 0a8.333 8.333 0 1 0-16.666 0 8.333 8.333 0 0 0 16.666 0zm20.834 0a8.333 8.333 0 1 0 16.666 0 8.333 8.333 0 0 0-16.666 0zm-58.334 27.084a8.333 8.333 0 1 0-16.666 0 8.333 8.333 0 0 0 16.666 0zm20.834 0a8.333 8.333 0 1 0 16.666 0 8.333 8.333 0 0 0-16.666 0z"/></svg>