<svg width="200" height="200" xmlns="http://www.w3.org/2000/svg"><defs><style/></defs><path d="M19.054 154.075q-.304-3.65-.304-13.242V59.167q0-9.592.304-13.242.575-6.82 2.959-11.417 4.262-8.233 12.491-12.5 4.6-2.379 11.417-2.954 3.654-.304 13.246-.304h81.666q9.592 0 13.242.304 6.82.575 11.417 2.959 8.229 4.262 12.5 12.491 2.379 4.6 2.954 11.417.304 3.654.304 13.246v81.666q0 9.592-.304 13.242-.575 6.82-2.958 11.417-4.263 8.229-12.492 12.5-4.6 2.379-11.417 2.954-3.654.304-13.246.304H59.167q-9.592 0-13.242-.304-6.82-.575-11.417-2.958-8.233-4.263-12.5-12.492-2.379-4.6-2.954-11.417zM39.817 47.667q-.059.708-.105 2.337h120.542q-.033-1.191-.079-2.433-.225-2.588-.683-3.475-1.225-2.358-3.584-3.583-.904-.467-3.57-.692-2.784-.238-11.505-.238H59.167q-8.721 0-11.5.234-2.671.225-3.575.691-2.359 1.225-3.584 3.584-.466.904-.691 3.57zm120.6 23.166H39.583v70q0 8.721.234 11.5.225 2.671.691 3.571 1.225 2.363 3.584 3.588.904.466 3.57.691 2.784.234 11.505.234h81.666q8.721 0 11.5-.234 2.671-.225 3.571-.691 2.363-1.225 3.588-3.584.466-.904.691-3.57.234-2.784.234-11.505v-70zM55.133 95.908q-3.05-3.054-3.05-7.366 0-4.313 3.05-7.367 3.05-3.05 7.367-3.05 4.312 0 7.367 3.05 3.05 3.054 3.05 7.367 0 4.312-3.05 7.366-3.055 3.05-7.367 3.05-4.317 0-7.367-3.05zm37.5 0q-3.05-3.054-3.05-7.366 0-4.313 3.05-7.367 3.054-3.05 7.367-3.05 4.312 0 7.367 3.05 3.05 3.054 3.05 7.367 0 4.312-3.05 7.366-3.055 3.05-7.367 3.05-4.313 0-7.367-3.05zm37.5 0q-3.05-3.054-3.05-7.366 0-4.313 3.05-7.367 3.054-3.05 7.367-3.05 4.312 0 7.367 3.05 3.05 3.054 3.05 7.367 0 4.312-3.05 7.366-3.055 3.05-7.367 3.05-4.313 0-7.367-3.05zm-75 27.084q-3.05-3.055-3.05-7.367 0-4.313 3.05-7.367 3.05-3.05 7.367-3.05 4.312 0 7.367 3.05 3.05 3.054 3.05 7.367 0 4.312-3.05 7.367-3.055 3.05-7.367 3.05-4.317 0-7.367-3.05zm37.5 0q-3.05-3.055-3.05-7.367 0-4.313 3.05-7.367 3.054-3.05 7.367-3.05 4.312 0 7.367 3.05 3.05 3.054 3.05 7.367 0 4.312-3.05 7.367-3.055 3.05-7.367 3.05-4.313 0-7.367-3.05zm37.5 0q-3.05-3.055-3.05-7.367 0-4.313 3.05-7.367 3.054-3.05 7.367-3.05 4.312 0 7.367 3.05 3.05 3.054 3.05 7.367 0 4.312-3.05 7.367-3.055 3.05-7.367 3.05-4.313 0-7.367-3.05zm-75 27.083q-3.05-3.054-3.05-7.367 0-4.312 3.05-7.366 3.05-3.05 7.367-3.05 4.312 0 7.367 3.05 3.05 3.054 3.05 7.366 0 4.313-3.05 7.367-3.055 3.05-7.367 3.05-4.317 0-7.367-3.05zm37.5 0q-3.05-3.054-3.05-7.367 0-4.312 3.05-7.366 3.054-3.05 7.367-3.05 4.312 0 7.367 3.05 3.05 3.054 3.05 7.366 0 4.313-3.05 7.367-3.055 3.05-7.367 3.05-4.313 0-7.367-3.05z" fill-rule="evenodd"/></svg>