<svg width="200" height="200" xmlns="http://www.w3.org/2000/svg"><defs><style/></defs><path d="M100 16.667c46.025 0 83.333 37.308 83.333 83.333S146.025 183.333 100 183.333 16.667 146.025 16.667 100 53.975 16.667 100 16.667zm0 12.5c-39.12 0-70.833 31.712-70.833 70.833S60.879 170.833 100 170.833s70.833-31.712 70.833-70.833S139.121 29.167 100 29.167zm-2.083 25a6.25 6.25 0 0 1 6.25 6.25V98.62l22.062 13.787a6.25 6.25 0 0 1 2.284 8.084l-.296.529a6.25 6.25 0 0 1-8.613 1.987l-23.041-14.4a10.417 10.417 0 0 1-4.896-8.833V60.417a6.25 6.25 0 0 1 6.25-6.25z"/></svg>