<svg width="200" height="200" xmlns="http://www.w3.org/2000/svg"><defs><style/></defs><path d="M100 14.583c47.175 0 85.417 38.242 85.417 85.417S147.175 185.417 100 185.417 14.583 147.175 14.583 100 52.825 14.583 100 14.583zm0 16.667c-37.97 0-68.75 30.78-68.75 68.75s30.78 68.75 68.75 68.75 68.75-30.78 68.75-68.75S137.97 31.25 100 31.25zm-2.083 20.833a8.333 8.333 0 0 1 8.312 7.709l.021.625v37.045l21.083 13.18a8.333 8.333 0 0 1 3.275 10.279l-.287.608-.338.596a8.333 8.333 0 0 1-10.887 2.987l-.596-.337-23.042-14.4a12.5 12.5 0 0 1-5.85-9.796l-.025-.804V60.417a8.333 8.333 0 0 1 8.334-8.334z"/></svg>