<svg width="200" height="200" xmlns="http://www.w3.org/2000/svg"><defs><style/></defs><path d="M100 16.667q16.95 0 32.438 6.55 14.958 6.329 26.487 17.858 11.533 11.53 17.858 26.488 6.55 15.487 6.55 32.437t-6.55 32.438q-6.325 14.958-17.858 26.487-11.53 11.53-26.488 17.858-15.487 6.55-32.437 6.55t-32.438-6.55q-14.958-6.325-26.487-17.858-5.68-5.68-10.167-12.325a6.258 6.258 0 0 1 5.175-9.75 6.25 6.25 0 0 1 5.18 2.75l.004.013q3.82 5.645 8.645 10.474 9.809 9.805 22.517 15.184 13.154 5.562 27.571 5.562t27.57-5.562q12.71-5.375 22.517-15.184t15.184-22.516q5.562-13.154 5.562-27.571t-5.562-27.57q-5.375-12.71-15.184-22.518-9.808-9.804-22.516-15.183-13.154-5.562-27.571-5.562a6.25 6.25 0 0 1 0-12.5zm-27.583 4.695q-11.13 3.905-20.742 10.75a6.25 6.25 0 1 0 7.25 10.18q8.167-5.813 17.63-9.134a6.25 6.25 0 1 0-4.134-11.791zM25.333 63.005q-2.095 4.225-3.7 8.663a6.25 6.25 0 1 0 11.755 4.25q1.366-3.771 3.145-7.363 2.642-5.333 6.138-10.15a6.252 6.252 0 0 0-10.121-7.342q-4.108 5.667-7.217 11.942zm70.5-2.587a6.25 6.25 0 0 1 12.5 0v39.358a10.417 10.417 0 0 1-4.896 8.833l-23.041 14.4a6.25 6.25 0 0 1-8.613-1.987l-.291-.525a6.25 6.25 0 0 1 2.279-8.088l22.062-13.787V60.417zM16.688 98.133q-.267 11.796 2.754 23.209a6.25 6.25 0 1 0 12.083-3.205q-2.567-9.695-2.342-19.725a6.252 6.252 0 1 0-12.5-.279z" fill-rule="evenodd"/></svg>