<svg width="200" height="200" xmlns="http://www.w3.org/2000/svg"><defs><style/></defs><path d="M100 12.5c48.325 0 87.5 39.175 87.5 87.5s-39.175 87.5-87.5 87.5-87.5-39.175-87.5-87.5S51.675 12.5 100 12.5zm0 20.833c-36.82 0-66.667 29.846-66.667 66.667S63.18 166.667 100 166.667 166.667 136.82 166.667 100 136.82 33.333 100 33.333zm-2.083 20.834a10.417 10.417 0 0 1 10.396 9.733l.02.683v27.084h20.834a10.417 10.417 0 0 1 10.329 9.058l.067.675.02.683a10.417 10.417 0 0 1-9.733 10.396l-.683.021h-27.084a14.583 14.583 0 0 1-14.562-13.783l-.021-.8V64.583a10.417 10.417 0 0 1 10.417-10.416z"/></svg>