<svg width="200" height="200" xmlns="http://www.w3.org/2000/svg"><defs><style/></defs><path d="M154.732 120.777l-41.77 41.775a52.391 52.391 0 0 1-17.519 11.635 52.534 52.534 0 0 1-19.93 3.879c-6.91 0-13.55-1.292-19.926-3.879a52.391 52.391 0 0 1-17.522-11.635 52.391 52.391 0 0 1-11.635-17.518 52.534 52.534 0 0 1-3.878-19.93c0-6.91 1.291-13.55 3.878-19.926a52.391 52.391 0 0 1 11.635-17.522l59.053-59.06a38.291 38.291 0 0 1 12.808-8.503 38.393 38.393 0 0 1 14.56-2.836c5.048 0 9.9.946 14.561 2.836a38.291 38.291 0 0 1 12.805 8.502 38.291 38.291 0 0 1 8.502 12.805 38.39 38.39 0 0 1 2.835 14.56 38.4 38.4 0 0 1-2.835 14.565 38.291 38.291 0 0 1-8.502 12.804l-59.053 59.057c-4.775 4.77-10.535 7.158-17.286 7.158-6.75 0-12.51-2.388-17.286-7.158-4.77-4.775-7.158-10.536-7.158-17.286 0-6.75 2.388-12.511 7.158-17.286l47.536-47.531a6.11 6.11 0 0 1 8.636 8.64L66.877 116.46a11.774 11.774 0 0 0-3.581 8.64c0 3.374 1.193 6.258 3.58 8.642a11.774 11.774 0 0 0 8.641 3.58 11.774 11.774 0 0 0 8.641-3.58l59.057-59.053c5.174-5.174 7.757-11.415 7.757-18.728 0-7.309-2.587-13.554-7.757-18.724-5.174-5.17-11.411-7.757-18.724-7.757s-13.554 2.587-18.724 7.757l-59.06 59.057a40.292 40.292 0 0 0-8.951 13.472 40.426 40.426 0 0 0-2.983 15.335c0 5.32.995 10.43 2.983 15.334a40.292 40.292 0 0 0 8.95 13.473 40.292 40.292 0 0 0 13.473 8.95 40.426 40.426 0 0 0 15.334 2.983c5.321 0 10.43-.994 15.335-2.983a40.292 40.292 0 0 0 13.473-8.95l41.77-41.77a6.11 6.11 0 0 1 8.64 8.64z"/></svg>