<svg width="200" height="200" xmlns="http://www.w3.org/2000/svg"><defs><style/></defs><path d="M100 10.417c11.392 0 22.383 2.096 32.975 6.291a88.662 88.662 0 0 1 30.37 19.946c8.747 8.75 15.397 18.871 19.947 30.371A88.796 88.796 0 0 1 189.583 100c0 11.392-2.096 22.383-6.291 32.975a88.662 88.662 0 0 1-19.946 30.37 88.662 88.662 0 0 1-30.371 19.947A88.796 88.796 0 0 1 100 189.583c-11.392 0-22.383-2.096-32.975-6.291a88.662 88.662 0 0 1-30.37-19.946 88.662 88.662 0 0 1-19.947-30.371A88.796 88.796 0 0 1 10.417 100c0-11.392 2.096-22.383 6.291-32.975a88.662 88.662 0 0 1 19.946-30.37c8.75-8.747 18.871-15.397 30.371-19.947A88.796 88.796 0 0 1 100 10.417zm0 12.5a76.41 76.41 0 0 0-28.375 5.412 76.292 76.292 0 0 0-26.13 17.167A76.292 76.292 0 0 0 28.33 71.625 76.408 76.408 0 0 0 22.917 100a76.41 76.41 0 0 0 5.412 28.375 76.292 76.292 0 0 0 17.167 26.13 76.292 76.292 0 0 0 26.129 17.166A76.408 76.408 0 0 0 100 177.083a76.41 76.41 0 0 0 28.375-5.412 76.292 76.292 0 0 0 26.13-17.167 76.292 76.292 0 0 0 17.166-26.129A76.408 76.408 0 0 0 177.083 100a76.41 76.41 0 0 0-5.412-28.375 76.292 76.292 0 0 0-17.167-26.13 76.292 76.292 0 0 0-26.129-17.166A76.408 76.408 0 0 0 100 22.917zm0 14.583c34.517 0 62.5 27.983 62.5 62.5 0 34.517-27.983 62.5-62.5 62.5-34.517 0-62.5-27.983-62.5-62.5 0-34.517 27.983-62.5 62.5-62.5zM64.583 90.625a9.375 9.375 0 1 0 0 18.75 9.375 9.375 0 0 0 0-18.75zm35.417 0a9.375 9.375 0 1 0 0 18.75 9.375 9.375 0 0 0 0-18.75zm35.417 0a9.375 9.375 0 1 0 0 18.75 9.375 9.375 0 0 0 0-18.75z"/></svg>