<svg width="200" height="200" xmlns="http://www.w3.org/2000/svg"><defs><style/></defs><path d="M52.083 156.25H41.667a14.05 14.05 0 0 1-10.313-4.27 14.05 14.05 0 0 1-4.27-10.313V100c0-4.025 1.424-7.463 4.27-10.313a14.05 14.05 0 0 1 10.313-4.27h10.416c4.025 0 7.463 1.425 10.313 4.27A14.05 14.05 0 0 1 66.666 100v41.667c0 4.025-1.424 7.462-4.27 10.312a14.05 14.05 0 0 1-10.313 4.271zm55.209 0H96.875a14.05 14.05 0 0 1-10.313-4.27 14.05 14.05 0 0 1-4.27-10.313V33.333c0-4.025 1.425-7.462 4.27-10.312a14.05 14.05 0 0 1 10.313-4.271h10.417c4.025 0 7.462 1.425 10.312 4.27a14.05 14.05 0 0 1 4.271 10.313v108.334c0 4.025-1.425 7.462-4.27 10.312a14.05 14.05 0 0 1-10.313 4.271zm55.208 0h-10.417a14.05 14.05 0 0 1-10.312-4.27 14.05 14.05 0 0 1-4.271-10.313V64.583c0-4.025 1.425-7.462 4.27-10.312A14.05 14.05 0 0 1 152.084 50H162.5c4.025 0 7.462 1.425 10.312 4.27a14.05 14.05 0 0 1 4.271 10.313v77.084c0 4.025-1.425 7.462-4.27 10.312a14.05 14.05 0 0 1-10.313 4.271zm-133.333 25a6.25 6.25 0 1 1 0-12.5H175a6.25 6.25 0 0 1 0 12.5H29.167z"/></svg>