<svg width="200" height="200" xmlns="http://www.w3.org/2000/svg"><defs><style/></defs><path d="M20.833 27.083a6.25 6.25 0 1 1 12.5 0v145.834a6.25 6.25 0 0 1-12.5 0V27.083zm29.271 2.188A14.05 14.05 0 0 1 60.417 25h41.666c4.025 0 7.463 1.425 10.313 4.27a14.05 14.05 0 0 1 4.27 10.313v12.5c0 4.025-1.424 7.463-4.27 10.313a14.05 14.05 0 0 1-10.313 4.27H60.417a14.05 14.05 0 0 1-10.313-4.27 14.05 14.05 0 0 1-4.27-10.313v-12.5c0-4.025 1.424-7.462 4.27-10.312zm10.313 24.896h41.666a2.008 2.008 0 0 0 1.475-.609 2.008 2.008 0 0 0 .609-1.475v-12.5a2.008 2.008 0 0 0-.609-1.475 2.008 2.008 0 0 0-1.475-.608H60.417a2.008 2.008 0 0 0-1.475.608 2.008 2.008 0 0 0-.609 1.475v12.5c0 .575.204 1.067.609 1.475a2.008 2.008 0 0 0 1.475.609zm-10.313 83.437a14.05 14.05 0 0 1 10.313-4.27H137.5c4.025 0 7.462 1.424 10.313 4.27a14.054 14.054 0 0 1 4.27 10.313v12.5c0 4.029-1.425 7.462-4.27 10.312A14.054 14.054 0 0 1 137.5 175H60.417a14.05 14.05 0 0 1-10.313-4.27 14.05 14.05 0 0 1-4.27-10.313v-12.5c0-4.025 1.424-7.463 4.27-10.313zM60.417 162.5H137.5a2.008 2.008 0 0 0 1.475-.608 2.008 2.008 0 0 0 .608-1.475v-12.5a2.008 2.008 0 0 0-.608-1.475 2.008 2.008 0 0 0-1.475-.609H60.417a2.008 2.008 0 0 0-1.475.609 2.008 2.008 0 0 0-.609 1.475v12.5c0 .575.205 1.066.609 1.475a2.008 2.008 0 0 0 1.475.608zM50.104 83.437a14.05 14.05 0 0 1 10.313-4.27h112.5c4.029 0 7.462 1.425 10.312 4.27A14.054 14.054 0 0 1 187.5 93.75v12.5c0 4.025-1.425 7.462-4.27 10.312a14.054 14.054 0 0 1-10.313 4.271h-112.5a14.05 14.05 0 0 1-10.313-4.27 14.05 14.05 0 0 1-4.27-10.313v-12.5c0-4.025 1.424-7.463 4.27-10.313zm10.313 24.896h112.5a2.008 2.008 0 0 0 1.475-.608 2.008 2.008 0 0 0 .608-1.475v-12.5a2.008 2.008 0 0 0-.608-1.475 2.008 2.008 0 0 0-1.475-.608h-112.5a2.008 2.008 0 0 0-1.475.608 2.008 2.008 0 0 0-.609 1.475v12.5c0 .575.204 1.067.609 1.475a2.008 2.008 0 0 0 1.475.608z"/></svg>