<svg width="200" height="200" xmlns="http://www.w3.org/2000/svg"><defs><style/></defs><path d="M94.408 159.783L51.2 181.388a16.358 16.358 0 0 1-8.45 1.741 16.458 16.458 0 0 1-7.763-2.47 16.458 16.458 0 0 1-5.683-5.838 16.363 16.363 0 0 1-2.22-8.342V47.917c0-6.904 2.441-12.796 7.32-17.68 4.888-4.879 10.775-7.32 17.68-7.32h95.833c6.904 0 12.795 2.441 17.679 7.32 4.879 4.888 7.32 10.776 7.32 17.68v118.562c0 3-.741 5.78-2.22 8.342a16.458 16.458 0 0 1-5.684 5.833 16.458 16.458 0 0 1-7.762 2.475 16.358 16.358 0 0 1-8.454-1.741l-43.208-21.605c-3.725-1.862-7.45-1.862-11.18 0z"/></svg>