<svg width="200" height="200" xmlns="http://www.w3.org/2000/svg"><defs><style/></defs><path d="M21.342 63.375c-.496-2.417-.509-5.488-.509-11.292s.013-8.875.509-11.291a25.03 25.03 0 0 1 19.45-19.446c2.416-.5 5.483-.513 11.291-.513h75c5.809 0 8.875.013 11.292.509a25.03 25.03 0 0 1 19.45 19.454c.28 1.354.404 2.912.458 5.046 2.93.029 4.884.116 5.863.27a22.292 22.292 0 0 1 9.896 4.1 22.78 22.78 0 0 1 6.687 7.725 22.714 22.714 0 0 1 2.717 9.846 22.292 22.292 0 0 1-2.075 10.513c-.508 1.091-1.892 3.333-4.15 6.72l-5.25 7.876c-1.071 1.612-1.83 2.7-2.263 3.266a30.904 30.904 0 0 1-10.008 8.48 30.896 30.896 0 0 1-12.608 3.624c-.709.046-2.038.071-3.975.071h-41.971c-.846 0-1.308.004-1.388.013-1.095.125-1.708.733-1.829 1.833-.008.075-.012.538-.012 1.38v10.228a20.842 20.842 0 0 1 14.583 19.88v16.666a20.833 20.833 0 0 1-41.667 0v-16.666a20.842 20.842 0 0 1 14.584-19.88v-10.225c0-1.308.029-2.233.091-2.775a14.167 14.167 0 0 1 4.18-8.683 14.167 14.167 0 0 1 8.683-4.179c.542-.063 1.467-.092 2.77-.092h41.976c1.654 0 2.696-.012 3.125-.041 5.608-.388 10.129-2.809 13.562-7.263.263-.342.85-1.196 1.771-2.575l5.246-7.87c1.9-2.85 2.97-4.534 3.208-5.042 1.425-3.08 1.317-6.146-.32-9.209-1.638-3.058-4.134-4.85-7.484-5.37-.433-.067-1.75-.109-3.937-.126-.059 2.125-.188 3.684-.459 5.034a25.03 25.03 0 0 1-19.458 19.458c-2.413.492-5.48.504-11.288.504h-75c-5.808 0-8.875-.012-11.291-.508a25.03 25.03 0 0 1-19.45-19.454zm15.654 3.796c1.77 1.775 3.875 2.912 6.304 3.408.83.167 3.758.254 8.783.254h75c5.025 0 7.959-.083 8.784-.254a12.196 12.196 0 0 0 6.304-3.408c1.775-1.771 2.912-3.875 3.408-6.304.167-.83.254-3.759.254-8.784s-.083-7.958-.254-8.783a12.2 12.2 0 0 0-3.408-6.304 12.2 12.2 0 0 0-6.304-3.408c-.83-.167-3.754-.255-8.784-.255h-75c-5.025 0-7.958.084-8.783.254a12.204 12.204 0 0 0-6.304 3.409c-1.775 1.77-2.913 3.875-3.409 6.304-.166.83-.254 3.758-.254 8.783s.084 7.959.255 8.784c.5 2.429 1.633 4.533 3.408 6.304zm46.337 74.496v16.666c0 2.3.813 4.267 2.442 5.892 1.625 1.625 3.592 2.442 5.892 2.442 2.3 0 4.266-.813 5.891-2.442 1.625-1.625 2.442-3.592 2.442-5.892v-16.666c0-2.3-.813-4.267-2.442-5.892a8.03 8.03 0 0 0-5.891-2.442c-2.3 0-4.267.813-5.892 2.442-1.625 1.625-2.442 3.592-2.442 5.892z"/></svg>