<svg width="200" height="200" xmlns="http://www.w3.org/2000/svg"><defs><style/></defs><path d="M116.667 164.583H162.5a6.25 6.25 0 0 1 0 12.5h-45.833a6.25 6.25 0 0 1 0-12.5zm0-30.208H162.5a6.25 6.25 0 0 1 0 12.5h-45.833a6.25 6.25 0 0 1 0-12.5zm0-30.208H162.5a6.25 6.25 0 0 1 0 12.5h-45.833a6.25 6.25 0 0 1 0-12.5zm-89.584 22.916v27.084q0 10.354 7.321 17.679 7.325 7.32 17.68 7.32h20.833q10.354 0 17.679-7.32 7.32-7.325 7.32-17.68v-27.083q0-10.354-7.32-17.679-7.325-7.32-17.68-7.32H52.084q-10.354 0-17.679 7.32-7.32 7.325-7.32 17.68zm16.163 35.921q-3.663-3.658-3.663-8.837v-27.084q0-5.179 3.663-8.837 3.658-3.663 8.837-3.663h20.834q5.179 0 8.837 3.663 3.663 3.658 3.663 8.837v27.084q0 5.179-3.663 8.837-3.658 3.663-8.837 3.663H52.083q-5.179 0-8.837-3.663zm-16.163-98.42V47.916q0-10.355 7.321-17.68 7.325-7.32 17.68-7.32h95.833q10.354 0 17.679 7.32 7.32 7.325 7.32 17.68v16.666q0 10.354-7.32 17.68-7.325 7.32-17.68 7.32H52.084q-10.354 0-17.679-7.32-7.32-7.326-7.32-17.68zm12.5 0q0 5.178 3.663 8.837 3.658 3.662 8.837 3.662h95.834q5.179 0 8.837-3.662 3.663-3.659 3.663-8.838V47.917q0-5.18-3.663-8.838-3.658-3.662-8.837-3.662H52.083q-5.179 0-8.837 3.662-3.663 3.658-3.663 8.838v16.666z" fill-rule="evenodd"/></svg>