<svg width="200" height="200" xmlns="http://www.w3.org/2000/svg"><defs><style/></defs><path d="M145.992 43.554l4.896-5a10.417 10.417 0 0 1 14.179-.667l.55.5a10.417 10.417 0 0 1 .166 14.73l-18.333 18.75c-6.533 6.675-17.867 2.05-17.867-7.284a31.25 31.25 0 0 0-31.25-31.25 10.417 10.417 0 0 1 0-20.833c21.038 0 39.163 12.47 47.38 30.425l.279.63zm-27.242 27.28v83.333a29.167 29.167 0 0 1-29.167 29.166H43.75a29.167 29.167 0 0 1-29.167-29.166V70.833A29.167 29.167 0 0 1 43.75 41.667h45.833a29.167 29.167 0 0 1 29.167 29.166zm-75-8.334a8.333 8.333 0 0 0-8.333 8.333v83.334a8.333 8.333 0 0 0 8.333 8.333h45.833a8.333 8.333 0 0 0 8.334-8.333V70.833a8.333 8.333 0 0 0-8.334-8.333H43.75zm93.75 118.75a10.417 10.417 0 0 1 0-20.833h25V112.5h-25a10.417 10.417 0 0 1 0-20.833h25a20.833 20.833 0 0 1 20.833 20.833v47.917A20.833 20.833 0 0 1 162.5 181.25h-25z"/></svg>