<svg width="200" height="200" xmlns="http://www.w3.org/2000/svg"><defs><style/></defs><path d="M57.104 171.308c-1.687-1.033-4.333-3.35-7.925-6.945l-17.142-17.138c-4.437-4.442-7.408-7.55-8.912-9.325-2.583-3.058-4.317-5.97-5.196-8.733a24.48 24.48 0 0 1 0-15.15c.875-2.763 2.609-5.675 5.196-8.734 1.5-1.779 4.475-4.887 8.912-9.325l17.084-17.083.004-.004.004-.008 40.654-40.65c4.438-4.442 7.546-7.413 9.325-8.917 3.059-2.583 5.971-4.317 8.734-5.192a24.48 24.48 0 0 1 15.15 0c2.762.875 5.675 2.609 8.733 5.196 1.78 1.5 4.888 4.47 9.325 8.913l25.338 25.333c4.437 4.442 7.408 7.55 8.912 9.325 2.583 3.062 4.317 5.97 5.192 8.733a24.48 24.48 0 0 1 0 15.154c-.875 2.763-2.609 5.671-5.192 8.734-1.5 1.775-4.475 4.883-8.912 9.32L118.7 162.5h58.383a6.25 6.25 0 1 1 0 12.5H85.417c-.167 0-.334-.008-.496-.02H74.808c-5.083 0-8.591-.23-10.516-.697a24.85 24.85 0 0 1-7.188-2.975zm5.28-88.02l58.924 58.925 36.242-36.238c4.192-4.192 6.925-7.042 8.204-8.554 1.509-1.792 2.45-3.271 2.825-4.446a12.27 12.27 0 0 0 0-7.587c-.375-1.175-1.317-2.659-2.825-4.446-1.279-1.509-4.012-4.363-8.208-8.554L132.213 47.05c-4.196-4.192-7.046-6.93-8.559-8.208-1.787-1.509-3.266-2.45-4.441-2.821a12.267 12.267 0 0 0-7.592 0c-1.175.375-2.654 1.312-4.442 2.825-1.512 1.275-4.362 4.012-8.558 8.204L62.383 83.288zM108 155.525l4.47-4.47-58.928-58.93-12.667 12.667c-4.196 4.191-6.93 7.041-8.208 8.554-1.509 1.791-2.455 3.27-2.825 4.446a12.267 12.267 0 0 0 0 7.591c.375 1.175 1.316 2.654 2.825 4.442 1.279 1.512 4.012 4.362 8.208 8.554l17.137 17.142c2.896 2.896 4.767 4.604 5.613 5.12a12.451 12.451 0 0 0 3.592 1.488c.962.234 3.491.346 7.587.346H91.2c4.096 0 6.625-.112 7.587-.346a12.479 12.479 0 0 0 3.596-1.487c.846-.517 2.713-2.225 5.613-5.125z"/></svg>