<svg width="200" height="200" xmlns="http://www.w3.org/2000/svg"><defs><style/></defs><path d="M139.583 18.75a6.25 6.25 0 0 1 6.25 6.25v131.283l18.209-20.812a6.251 6.251 0 1 1 9.412 8.229l-29.167 33.333a6.25 6.25 0 0 1-10.954-4.116V25a6.25 6.25 0 0 1 6.25-6.25zM82.554 60.417L71.017 35.9 60.2 60.417h22.354zm-27.867 12.5L45.3 94.187a6.25 6.25 0 1 1-11.433-5.041l27.558-62.471c.863-1.958 2.188-3.5 3.97-4.617a10.25 10.25 0 0 1 5.438-1.6 10.25 10.25 0 0 1 5.467 1.459c1.812 1.083 3.175 2.587 4.083 4.52l29.442 62.559V89a6.25 6.25 0 0 1-11.308 5.325l-10.08-21.408h-33.75zm49.48 106.25H39.583a6.25 6.25 0 0 1-4.104-10.963l51.996-45.287H39.583a6.25 6.25 0 0 1 0-12.5h64.584a6.25 6.25 0 0 1 4.104 10.962l-51.996 45.288h47.892a6.25 6.25 0 0 1 0 12.5z"/></svg>