<svg width="200" height="200" xmlns="http://www.w3.org/2000/svg"><defs><style/></defs><path d="M139.583 16.667A8.333 8.333 0 0 1 147.917 25v125.737l14.558-16.641a8.334 8.334 0 1 1 12.546 10.975l-29.167 33.333a8.333 8.333 0 0 1-14.604-5.487V25a8.333 8.333 0 0 1 8.333-8.333zM79.271 58.333l-8.192-17.408-7.683 17.408H79.27zM56.046 75l-8.834 20.025-.004.004a8.333 8.333 0 0 1-15.25-6.725V88.3l27.567-62.467a12.217 12.217 0 0 1 4.767-5.541 12.315 12.315 0 0 1 6.516-1.913 12.3 12.3 0 0 1 6.559 1.754c2.179 1.292 3.812 3.105 4.904 5.425l29.441 62.559a8.335 8.335 0 1 1-15.083 7.1L87.112 75H56.046zm48.12 106.25H39.584a8.333 8.333 0 0 1-5.475-14.617L81.917 125H39.583a8.333 8.333 0 1 1 0-16.667h64.584a8.333 8.333 0 0 1 5.475 14.617l-47.809 41.633h42.334a8.333 8.333 0 1 1 0 16.667z"/></svg>