<svg width="200" height="200" xmlns="http://www.w3.org/2000/svg"><defs><style/></defs><path d="M92.992 181.242L74.67 164.583H45.833a25 25 0 0 1-24.983-24.062l-.017-.938V50a25 25 0 0 1 25-25h108.334a25 25 0 0 1 25 25v89.583a25 25 0 0 1-25 25h-28.842l-18.317 16.659c-4.029 3.666-9.966 3.425-14.016 0zm12.846-74.342c0-2.663.829-5.075 2.958-6.954 6.241-5.504 12.037-11.613 12.037-21.067 0-11.346-9.329-20.546-20.833-20.546s-20.833 9.2-20.833 20.546c0 3.096 2.541 5.604 5.683 5.604 3.137 0 5.68-2.508 5.68-5.604.262-5.542 4.166-9.337 9.47-9.337 5.23 0 9.47 4.179 9.47 9.337 0 6.121-5.32 9.871-9.137 13.5-4.325 3.792-5.854 8.958-5.858 14.513.208 3.062 2.454 5.608 5.675 5.608 3.042-.2 5.683-2.358 5.687-5.6zM100 122.917a8.333 8.333 0 1 0 0 16.666 8.333 8.333 0 0 0 0-16.666z"/></svg>