<svg width="200" height="200" xmlns="http://www.w3.org/2000/svg"><defs><style/></defs><path d="M45.833 25h108.334a25 25 0 0 1 25 25v89.583a25 25 0 0 1-25 25h-24.813a10.417 10.417 0 0 0-7.008 2.709l-15.338 13.95a10.417 10.417 0 0 1-13.433.491l-.583-.491-15.342-13.95a10.417 10.417 0 0 0-7.008-2.709H45.833c-13.812 0-24.75-11.387-25-25V50a25 25 0 0 1 25-25zm78.696 127.083h29.638a12.5 12.5 0 0 0 12.5-12.5V50a12.5 12.5 0 0 0-12.5-12.5H45.833a12.5 12.5 0 0 0-12.5 12.5v89.583a12.5 12.5 0 0 0 12.5 12.5h29.638a10.417 10.417 0 0 1 7.008 2.709L100 170.717l17.525-15.925c1.958-1.78 4.404-2.6 7.008-2.709zm-24.533-50.545c6.667 0 12.854-2.85 17.179-7.75a6.25 6.25 0 1 1 9.367 8.275A35.337 35.337 0 0 1 100 114.042a35.337 35.337 0 0 1-26.558-11.984 6.25 6.25 0 1 1 9.366-8.275A22.842 22.842 0 0 0 100 101.542z"/></svg>