<svg width="200" height="200" xmlns="http://www.w3.org/2000/svg"><defs><style/></defs><path d="M185.417 100c0 47.175-38.242 85.417-85.417 85.417-13.342 0-26.262-3.067-37.958-8.88a81.625 81.625 0 0 1-4.588-2.508 2.042 2.042 0 0 0-1.554-.208l-19.692 5.275a12.5 12.5 0 0 1-15.312-15.309l5.27-19.658a2.05 2.05 0 0 0-.216-1.575 68.474 68.474 0 0 1-1.654-2.958A85.075 85.075 0 0 1 14.583 100c0-47.175 38.242-85.417 85.417-85.417S185.417 52.825 185.417 100zM31.25 100a68.408 68.408 0 0 0 8.358 32.867l.721 1.254a18.708 18.708 0 0 1 1.938 14.32l-3.4 12.684 12.725-3.404a18.708 18.708 0 0 1 13.396 1.433l.866.48c1 .583 1.875 1.07 2.609 1.462l.991.516A68.43 68.43 0 0 0 100 168.75c37.97 0 68.75-30.78 68.75-68.75S137.97 31.25 100 31.25 31.25 62.03 31.25 100zm20.833 0a10.417 10.417 0 1 1 20.834 0 10.417 10.417 0 0 1-20.834 0zm37.5 0a10.417 10.417 0 1 1 20.834 0 10.417 10.417 0 0 1-20.834 0zm58.334 0a10.417 10.417 0 1 1-20.834 0 10.417 10.417 0 0 1 20.834 0z"/></svg>