<svg width="200" height="200" xmlns="http://www.w3.org/2000/svg"><defs><style/></defs><path d="M181.25 51.042v89.583a27.083 27.083 0 0 1-27.083 27.083h-28.034l-17.725 16.117a12.5 12.5 0 0 1-16.208.52l-.608-.52-17.73-16.117H45.834a27.083 27.083 0 0 1-27.066-26.112l-.017-.971V51.042a27.083 27.083 0 0 1 27.083-27.084h108.334a27.083 27.083 0 0 1 27.083 27.084zM45.833 40.625a10.417 10.417 0 0 0-10.416 10.417v89.583a10.417 10.417 0 0 0 10.416 10.417h29.638a12.5 12.5 0 0 1 8.408 3.25L100 168.946l16.12-14.654a12.5 12.5 0 0 1 7.48-3.217l.93-.033h29.637a10.417 10.417 0 0 0 10.416-10.417V51.042a10.417 10.417 0 0 0-10.416-10.417H45.833zm6.25 55.208a10.417 10.417 0 1 1 20.834 0 10.417 10.417 0 0 1-20.834 0zm37.5 0a10.417 10.417 0 1 1 20.834 0 10.417 10.417 0 0 1-20.834 0zm58.334 0a10.417 10.417 0 1 1-20.834 0 10.417 10.417 0 0 1 20.834 0z"/></svg>