<svg width="200" height="200" xmlns="http://www.w3.org/2000/svg"><defs><style/></defs><path d="M37.667 22.917h124.666a16.667 16.667 0 0 1 12.5 27.691l-44.625 50.575a4.167 4.167 0 0 0-1.041 2.754v72.096A10.417 10.417 0 0 1 113.45 185l-34.43-20.346a16.667 16.667 0 0 1-8.187-14.35v-46.367a4.167 4.167 0 0 0-1.041-2.754L25.167 50.608a16.667 16.667 0 0 1 12.5-27.691zM166.5 39.583a4.167 4.167 0 0 0-4.167-4.166H37.667a4.167 4.167 0 0 0-3.125 6.925l44.625 50.57a16.667 16.667 0 0 1 4.166 11.025v46.367a4.167 4.167 0 0 0 2.046 3.588l31.288 18.487v-68.442a16.667 16.667 0 0 1 3.52-10.25l.65-.775 44.621-50.57a4.167 4.167 0 0 0 1.042-2.759z"/></svg>