<svg width="200" height="200" xmlns="http://www.w3.org/2000/svg"><defs><style/></defs><path d="M19.57 70.833L9.959 51.021a16.367 16.367 0 0 1-1.641-8.417 16.458 16.458 0 0 1 2.516-7.704 16.458 16.458 0 0 1 5.834-5.625 16.367 16.367 0 0 1 8.291-2.192h149.625c3.021 0 5.817.75 8.388 2.25a16.458 16.458 0 0 1 5.841 5.742 16.458 16.458 0 0 1 2.43 7.82 16.354 16.354 0 0 1-1.842 8.488l-10.025 19.45H19.571zm153.372 12.5L151.475 125H45.833L25.625 83.333h147.313zM66.525 167.687L51.895 137.5h93.147l-15.738 30.55a16.363 16.363 0 0 1-6.141 6.596c-2.667 1.625-5.555 2.437-8.675 2.437H81.529a16.346 16.346 0 0 1-8.846-2.541 16.35 16.35 0 0 1-6.15-6.854z"/></svg>