<svg width="200" height="200" xmlns="http://www.w3.org/2000/svg"><defs><style/></defs><path d="M37.667 20.833h124.666a18.75 18.75 0 0 1 14.059 31.154l-44.621 50.571a2.083 2.083 0 0 0-.521 1.38v72.095a12.5 12.5 0 0 1-18.858 10.759l-34.43-20.342a18.75 18.75 0 0 1-9.212-16.146v-46.366a2.083 2.083 0 0 0-.52-1.375l-44.626-50.58a18.75 18.75 0 0 1 14.063-31.15zm126.75 18.75a2.083 2.083 0 0 0-2.084-2.083H37.667a2.083 2.083 0 0 0-1.563 3.458L80.73 91.533a18.75 18.75 0 0 1 4.688 12.405v46.366a2.083 2.083 0 0 0 1.025 1.792l28.141 16.633v-64.792a18.75 18.75 0 0 1 4.017-11.595l.675-.809 44.62-50.57a2.083 2.083 0 0 0 .522-1.38z"/></svg>