<svg width="200" height="200" xmlns="http://www.w3.org/2000/svg"><defs><style/></defs><path d="M100 181.992c-36.82 0-66.667-29.846-66.667-66.667 0-13.546 4.604-33.292 12.25-49.588 1.896-4.033 6.759-5.275 8.446-1.154 5.138 12.546 5.013 41.596 25.138 38.242 10.416-2.083 10.154-13.542 6.25-22.917-3.904-9.375-11.25-17.708-11.25-31.25 0-18.316 12.762-27.841 22.166-31.508 4.438-1.733 8.542 1.425 10.388 5.813 6.625 15.762 19.467 24.633 31.937 33.875 22.934 18.8 28.009 36.079 28.009 58.487 0 36.82-29.846 66.667-66.667 66.667z" fill-rule="evenodd"/></svg>