<svg width="200" height="200" xmlns="http://www.w3.org/2000/svg"><defs><style/></defs><path d="M37.5 101.862V61.696a10.417 10.417 0 0 1 7.154-9.892L157.03 14.721a4.167 4.167 0 0 1 5.471 3.958v35.513a4.167 4.167 0 0 1-2.97 3.991L82.136 81.4a4.167 4.167 0 0 0-2.97 3.992v31.137a4.167 4.167 0 0 1-5.846 3.817l-33.334-14.667a4.167 4.167 0 0 1-2.487-3.817zm125-1.229V140.8a10.417 10.417 0 0 1-7.154 9.892L42.97 187.775a4.167 4.167 0 0 1-5.471-3.954v-35.508a4.167 4.167 0 0 1 2.97-3.992l77.393-23.217a4.167 4.167 0 0 0 2.97-3.991V85.97a4.167 4.167 0 0 1 5.846-3.813l33.334 14.667a4.167 4.167 0 0 1 2.487 3.813z" fill-rule="evenodd"/></svg>