<svg width="200" height="200" xmlns="http://www.w3.org/2000/svg"><defs><style/></defs><path d="M164.73 35.008l9.15 16.875a43.75 43.75 0 0 1 5.287 20.846v79.354a27.083 27.083 0 0 1-27.084 27.084H47.917a27.083 27.083 0 0 1-27.084-27.084v-79.35a43.75 43.75 0 0 1 5.292-20.854l9.146-16.875a27.083 27.083 0 0 1 23.808-14.17h81.842a27.083 27.083 0 0 1 23.808 14.174zM91.666 37.5H59.083a10.417 10.417 0 0 0-9.162 5.45l-7.208 13.3h48.954V37.5zM37.5 72.917v79.166A10.417 10.417 0 0 0 47.917 162.5h104.166a10.417 10.417 0 0 0 10.417-10.417V72.917h-125zM150.08 42.95a10.417 10.417 0 0 0-9.163-5.45h-32.584v18.75h48.959l-7.213-13.3zM70.832 100a8.333 8.333 0 1 1 16.667 0 8.333 8.333 0 0 1-16.667 0zm41.667 0a8.333 8.333 0 1 1 16.667 0 8.333 8.333 0 0 1-16.667 0zM100 129.167a24.917 24.917 0 0 0 18.742-8.459 8.334 8.334 0 0 1 12.487 11.042A41.58 41.58 0 0 1 100 145.833a41.58 41.58 0 0 1-31.242-14.1 8.333 8.333 0 1 1 12.492-11.025 24.917 24.917 0 0 0 18.75 8.459z"/></svg>