<svg width="200" height="200" xmlns="http://www.w3.org/2000/svg"><defs><style/></defs><path d="M162.9 36l9.146 16.875a41.667 41.667 0 0 1 5.037 19.858v79.35a25 25 0 0 1-25 25H47.917a25 25 0 0 1-25-25v-79.35a41.667 41.667 0 0 1 5.037-19.858L37.1 36a25 25 0 0 1 21.983-13.083h81.842A25 25 0 0 1 162.905 36zm-69.15-.583H59.083a12.5 12.5 0 0 0-10.991 6.541l-8.875 16.375H93.75V35.417zM35.48 70.833c-.042.63-.063 1.267-.063 1.9v79.35a12.5 12.5 0 0 0 12.5 12.5h104.166a12.5 12.5 0 0 0 12.5-12.5v-79.35c0-.633-.02-1.27-.062-1.9H35.479zm125.308-12.5l-8.876-16.375a12.5 12.5 0 0 0-10.995-6.541H106.25v22.916h54.538zM87.5 100a8.333 8.333 0 1 1-16.667 0 8.333 8.333 0 0 1 16.667 0zm41.667 0a8.333 8.333 0 1 1-16.667 0 8.333 8.333 0 0 1 16.667 0zM100 131.25a27 27 0 0 0 20.304-9.158 6.25 6.25 0 1 1 9.367 8.279A39.496 39.496 0 0 1 100 143.75a39.496 39.496 0 0 1-29.68-13.392 6.25 6.25 0 1 1 9.368-8.275A27 27 0 0 0 100 131.25z"/></svg>