<svg width="200" height="200" xmlns="http://www.w3.org/2000/svg"><defs><style/></defs><path d="M19.762 56.67c1.621-11.79 7.805-21.337 18.042-28.978 14.75-11 28.85-9.434 40.071 3.925l3.558 4.22 1.542 1.892a92.163 92.163 0 0 1 2.917 3.838 66.255 66.255 0 0 1 2.241 3.35c5.805 9.354 5.575 21.583-1.75 30.158l-4.32 5.042-4.292 4.97a4.167 4.167 0 0 0-.738 4.209c2.834 7.416 7.284 14.158 13.396 20.27 6.042 6.038 12.696 10.455 20.013 13.3a4.154 4.154 0 0 0 4.312-.804 266.688 266.688 0 0 1 10.034-8.72c8.958-7.405 21.179-8.084 30.183-1.688a207.854 207.854 0 0 1 12.958 10.03c13.317 11.158 14.967 25.374 3.959 40.083-7.734 10.337-17.167 16.433-28.996 18.054-26.688 3.654-58.463-8.117-86.742-36.392-28.275-28.283-40.058-60.083-36.387-86.762zm52.759-11.995l-4.85-5.75c-6.713-7.57-13.217-8.054-22.388-1.213-7.691 5.738-12 12.392-13.137 20.667-3.117 22.646 7.237 50.604 32.846 76.209 25.604 25.608 53.537 35.954 76.208 32.845 8.308-1.137 14.85-5.362 20.683-13.154 7.03-9.396 6.25-16.12-1.983-23.017a195.53 195.53 0 0 0-12.167-9.416c-4.316-3.063-10.308-2.734-14.983 1.129a254.237 254.237 0 0 0-9.563 8.312 16.654 16.654 0 0 1-17.283 3.225c-8.958-3.479-17.07-8.866-24.312-16.108-7.334-7.333-12.759-15.558-16.234-24.646a16.667 16.667 0 0 1 2.959-16.837l4.27-4.954 4.3-5.017c3.584-4.192 3.696-10.488.625-15.442a49.458 49.458 0 0 0-1.791-2.67 100.763 100.763 0 0 0-1.063-1.463l-.391-.525a69.383 69.383 0 0 0-1.746-2.175z"/></svg>