<svg width="200" height="200" xmlns="http://www.w3.org/2000/svg"><defs><style/></defs><path d="M15.633 56.104c1.784-12.962 8.592-23.479 19.684-31.75 16.508-12.312 33.104-10.47 45.75 4.583l3.575 4.242 1.596 1.958a87.212 87.212 0 0 1 3.041 4.009 66.88 66.88 0 0 1 2.396 3.575c6.713 10.82 6.45 25.025-2.125 35.062l-4.333 5.059-4.292 4.97c2.625 6.85 6.75 13.105 12.45 18.809 5.638 5.637 11.808 9.729 18.583 12.362l3.313-2.987a294.09 294.09 0 0 1 3.4-2.954l3.462-2.913c10.388-8.583 24.684-9.375 35.25-1.87a212 212 0 0 1 13.225 10.229c15.009 12.583 16.95 29.295 4.621 45.775-8.375 11.187-18.77 17.904-31.77 19.683-28.026 3.842-61.084-8.404-90.25-37.571-29.176-29.17-41.43-62.254-37.576-90.27zm56.042-5.754a49.199 49.199 0 0 0-1.992-2.567l-5.1-6.062c-5.254-5.975-9.362-6.225-16.808-.667-6.842 5.1-10.525 10.792-11.5 17.892-2.933 21.308 6.946 47.979 31.667 72.696 24.708 24.716 51.362 34.583 72.691 31.666 7.142-.979 12.721-4.583 17.917-11.525 5.704-7.625 5.208-11.85-1.325-17.329a191.262 191.262 0 0 0-11.904-9.208c-2.75-1.959-6.667-1.738-9.913.941a249.808 249.808 0 0 0-9.408 8.175 20.817 20.817 0 0 1-21.604 4.034c-9.504-3.696-18.108-9.4-25.75-17.042-7.738-7.742-13.492-16.458-17.18-26.108A20.833 20.833 0 0 1 65.164 74.2l4.262-4.942 4.296-5.016c2.333-2.734 2.417-7.046.25-10.538a45.392 45.392 0 0 0-1.638-2.446l-.654-.908z"/></svg>