<svg width="200" height="200" xmlns="http://www.w3.org/2000/svg"><defs><style/></defs><path d="M170.833 16.667a12.5 12.5 0 0 1 12.5 12.5v54.166a8.333 8.333 0 1 1-16.666 0V45.117l-37.809 37.808a62.5 62.5 0 0 1 12.809 37.908c0 34.517-27.984 62.5-62.5 62.5-34.517 0-62.5-27.983-62.5-62.5 0-34.516 27.983-62.5 62.5-62.5a62.5 62.5 0 0 1 37.908 12.809l37.808-37.809h-38.216a8.333 8.333 0 0 1-8.309-7.708l-.025-.625a8.333 8.333 0 0 1 8.334-8.333h54.166zM79.167 75c-25.313 0-45.834 20.52-45.834 45.833s20.521 45.834 45.834 45.834S125 146.146 125 120.833 104.48 75 79.167 75z"/></svg>