<svg width="200" height="200" xmlns="http://www.w3.org/2000/svg"><defs><style/></defs><path d="M100 16.667a83.333 83.333 0 0 1 29.404 5.358l-12.02 12.025a16.192 16.192 0 0 0-4.222 6.975A60.088 60.088 0 0 0 100 39.583a59.929 59.929 0 0 0-22.237 4.242 59.792 59.792 0 0 0-20.484 13.454 59.792 59.792 0 0 0-13.454 20.483A59.888 59.888 0 0 0 39.583 100a59.929 59.929 0 0 0 4.242 22.237 59.792 59.792 0 0 0 13.454 20.484 59.792 59.792 0 0 0 20.483 13.454A59.888 59.888 0 0 0 100 160.417a59.929 59.929 0 0 0 22.237-4.242 59.788 59.788 0 0 0 20.484-13.454 59.788 59.788 0 0 0 13.454-20.483A59.888 59.888 0 0 0 160.417 100a60.083 60.083 0 0 0-1.442-13.162 16.192 16.192 0 0 0 6.975-4.221l12.025-12.021A83.333 83.333 0 0 1 183.333 100c0 46.025-37.308 83.333-83.333 83.333S16.667 146.025 16.667 100 53.975 16.667 100 16.667zm51.22 1.22a4.167 4.167 0 0 1 7.113 2.946v20.834h20.834a4.167 4.167 0 0 1 2.946 7.112l-25 25A4.167 4.167 0 0 1 154.167 75h-17.384l-3.808 3.808-25 25a8.333 8.333 0 1 1-11.783-11.783l25-25L125 63.217V45.833a4.167 4.167 0 0 1 1.22-2.946l25-25zM95.043 75.496a25 25 0 1 0 29.458 29.462L141.967 87.5h4.3a47.455 47.455 0 0 1 1.654 12.5c0 6.092-1.125 11.97-3.363 17.638a47.42 47.42 0 0 1-10.67 16.245 47.42 47.42 0 0 1-16.246 10.667 47.43 47.43 0 0 1-17.638 3.367 47.611 47.611 0 0 1-17.637-3.363 47.42 47.42 0 0 1-16.246-10.67 47.417 47.417 0 0 1-10.667-16.246A47.496 47.496 0 0 1 52.084 100c0-6.092 1.124-11.97 3.362-17.637a47.417 47.417 0 0 1 10.67-16.246A47.417 47.417 0 0 1 82.363 55.45 47.43 47.43 0 0 1 100 52.083c4.27 0 8.437.55 12.5 1.655v4.3L95.042 75.496z"/></svg>