<svg width="200" height="200" xmlns="http://www.w3.org/2000/svg"><defs><style/></defs><path d="M87.592 12.637c4.416-1.687 6.416-2.3 8.833-2.683a22.488 22.488 0 0 1 7.137-.008c2.417.375 4.417.979 8.842 2.658l46.467 17.633A25 25 0 0 1 175 53.612v50.305c0 33-23.5 58.862-69.096 77.529l-2.083.842a10.42 10.42 0 0 1-7.696-.009C49.2 163.55 25 137.417 25 103.917V53.783a25 25 0 0 1 16.067-23.35l46.525-17.791zm14.679 9.771l-.638-.112a10 10 0 0 0-3.245 0c-1.384.225-2.655.612-6.334 2.016l-46.52 17.796A12.5 12.5 0 0 0 37.5 53.783v50.138c0 27.483 20.592 49.72 63.25 66.75l-.767-.313 1.221-.487c40.688-16.663 60.659-38.192 61.28-64.667l.016-1.283V53.612a12.5 12.5 0 0 0-8.067-11.687l-48-18.208c-2.079-.767-3.187-1.109-4.162-1.309z"/></svg>