<svg width="200" height="200" xmlns="http://www.w3.org/2000/svg"><defs><style/></defs><path d="M87.592 14.72c4.416-1.687 6.416-2.3 8.833-2.683a22.488 22.488 0 0 1 7.137-.008c2.417.375 4.417.98 8.842 2.658l46.467 17.634A25 25 0 0 1 175 55.696V106c0 33-23.5 58.862-69.096 77.53l-2.083.84a10.42 10.42 0 0 1-7.696-.008C49.2 165.633 25 139.5 25 106V55.867a25 25 0 0 1 16.067-23.35l46.525-17.792zm19.7 50.888c0-4.029-3.267-7.275-7.292-7.275s-7.292 3.225-7.292 7.25v1.084q0 14.554.792 35.429a6.492 6.492 0 0 0 6.5 6.237c3.492 0 6.367-2.741 6.5-6.233q.792-20.867.792-35.404v-1.088zM100 135.417a8.333 8.333 0 1 0 0-16.667 8.333 8.333 0 0 0 0 16.667z" fill-rule="evenodd"/></svg>