<svg width="200" height="200" xmlns="http://www.w3.org/2000/svg"><defs><style/></defs><path d="M103.563 9.946c2.416.375 4.416.979 8.841 2.658l46.467 17.633A25 25 0 0 1 175 53.612v50.305c0 33-23.5 58.862-69.096 77.529l-2.083.842a10.42 10.42 0 0 1-7.696-.009C49.2 163.55 25 137.417 25 103.917V53.783a25 25 0 0 1 16.067-23.35l46.525-17.791c4.416-1.696 6.416-2.304 8.833-2.688a22.488 22.488 0 0 1 7.137-.008zM98.386 22.3c-1.383.217-2.654.604-6.333 2.013l-46.52 17.795A12.5 12.5 0 0 0 37.5 53.783v50.138c0 27.483 20.592 49.716 63.25 66.75l-.767-.313 1.221-.487c40.688-16.663 60.659-38.192 61.28-64.667l.016-1.283V53.608a12.5 12.5 0 0 0-8.067-11.683l-48-18.208c-2.079-.767-3.187-1.109-4.162-1.309l-.638-.112a10 10 0 0 0-3.246 0zm-8.083 85.408l39.688-40.57a6.25 6.25 0 0 1 8.387-.5l.45.404a6.25 6.25 0 0 1 .1 8.833l-41.187 42.108a10.417 10.417 0 0 1-14.734.167l-.229-.238-20.592-21.45a6.25 6.25 0 0 1 9.017-8.658l19.1 19.904z"/></svg>