<svg width="200" height="200" xmlns="http://www.w3.org/2000/svg"><defs><style/></defs><path d="M174.725 70.604a6.25 6.25 0 1 1 8.883 8.792 127.237 127.237 0 0 1-17.812 15.058l21.392 21.392a6.252 6.252 0 1 1-8.842 8.842l-23.496-23.5a109.53 109.53 0 0 1-26.312 10.091l8.041 29.992a6.253 6.253 0 0 1-12.079 3.237l-8.292-30.95A125.917 125.917 0 0 1 100 114.583a125.917 125.917 0 0 1-16.208-1.025l-8.292 30.95a6.25 6.25 0 1 1-12.075-3.237l8.038-29.992a109.53 109.53 0 0 1-26.313-10.087l-23.5 23.496a6.25 6.25 0 1 1-8.833-8.842l21.387-21.392a127.246 127.246 0 0 1-17.812-15.058 6.25 6.25 0 1 1 8.883-8.792c20.817 21.042 45.608 31.48 74.725 31.48 29.117 0 53.908-10.438 74.725-31.48z"/></svg>