<svg width="200" height="200" xmlns="http://www.w3.org/2000/svg"><defs><style/></defs><path d="M100 29.167c34.942 0 65.154 19.22 90.35 56.95a25.008 25.008 0 0 1 .567 26.845l-.584.913-1.266 1.88C164.15 152.25 134.358 170.832 100 170.832c-34.942 0-65.154-19.22-90.35-56.95a25.008 25.008 0 0 1-.567-26.846l.584-.912 1.266-1.88C35.85 47.75 65.642 29.168 100 29.168zm0 12.5c-29.308 0-55.042 15.725-77.48 47.8l-1.245 1.8-1.23 1.82a12.5 12.5 0 0 0 0 13.859c23.047 34.5 49.588 51.387 79.955 51.387 29.308 0 55.042-15.725 77.48-47.8l1.245-1.8 1.23-1.82a12.5 12.5 0 0 0-.005-13.859c-23.038-34.5-49.583-51.387-79.95-51.387zm0 27.083a31.25 31.25 0 1 1 0 62.5 31.25 31.25 0 0 1 0-62.5zm0 12.5a18.75 18.75 0 1 0 0 37.5 18.75 18.75 0 0 0 0-37.5z"/></svg>