<svg width="200" height="200" xmlns="http://www.w3.org/2000/svg"><defs><style/></defs><path d="M100 25c36.467 0 67.9 20 93.817 58.804a29.183 29.183 0 0 1 .608 31.404l-.633 1-1.284 1.896C166.867 155.654 135.863 175 100 175c-36.467 0-67.9-20-93.817-58.804a29.183 29.183 0 0 1-.608-31.404l.633-1 1.284-1.896C33.133 44.346 64.138 25 100 25zm0 20.833c-27.833 0-52.37 14.996-74.067 46.021l-1.204 1.742-1.212 1.8a8.333 8.333 0 0 0 0 9.233c22.316 33.425 47.641 49.538 76.483 49.538 27.833 0 52.37-14.996 74.067-46.021l1.204-1.742 1.212-1.8a8.333 8.333 0 0 0 0-9.233C154.167 61.946 128.842 45.833 100 45.833zm0 18.75a35.417 35.417 0 1 1 0 70.834 35.417 35.417 0 0 1 0-70.834zm0 20.834a14.583 14.583 0 1 0 0 29.166 14.583 14.583 0 0 0 0-29.166z"/></svg>