<svg width="200" height="200" xmlns="http://www.w3.org/2000/svg"><defs><style/></defs><path d="M125.23 35.417a25 25 0 1 1-50 0 25 25 0 0 1 50 0zm-25 12.5a12.5 12.5 0 1 0 0-25 12.5 12.5 0 0 0 0 25zm-33.563-.834a6.25 6.25 0 0 1-2.854 5.25l-.013.009a66.092 66.092 0 0 0-21.22 22.1 65.47 65.47 0 0 0-9.138 30.083 6.251 6.251 0 1 1-12.484-.696 77.796 77.796 0 0 1 10.863-35.75 78.43 78.43 0 0 1 25.196-26.237 6.25 6.25 0 0 1 9.65 5.241zm112.375 56.73v.016l.008.35a6.25 6.25 0 0 1-12.492.35 65.47 65.47 0 0 0-9.137-30.083 66.092 66.092 0 0 0-21.233-22.113 6.25 6.25 0 1 1 6.791-10.491 78.43 78.43 0 0 1 25.2 26.237 77.792 77.792 0 0 1 10.859 35.734zm-117.813 47.45a25 25 0 1 1-48.296-12.95 25 25 0 0 1 48.292 12.95zm80.492-18.967a25.001 25.001 0 1 1 43.304 25 25.001 25.001 0 0 1-43.304-25zm9.579 15.729a12.5 12.5 0 1 0 24.146-6.467 12.5 12.5 0 0 0-24.146 6.471zm-103.392-9.483a12.5 12.5 0 1 0-21.65 12.5 12.5 12.5 0 0 0 21.65-12.5zm82.567 29.1a6.25 6.25 0 0 1 5.725 11.112A77.958 77.958 0 0 1 100 187.5c-12.812 0-24.88-2.917-36.2-8.746a6.25 6.25 0 1 1 5.725-11.112A65.63 65.63 0 0 0 100 175c10.792 0 20.954-2.454 30.475-7.358z"/></svg>