<svg width="200" height="200" xmlns="http://www.w3.org/2000/svg"><defs><style/></defs><path d="M100.004 29.896c8.954-14.075 19.958-21.563 33.338-21.563a29.167 29.167 0 0 1 27.958 37.5h5.367A20.833 20.833 0 0 1 187.5 66.667v16.666a20.842 20.842 0 0 1-14.583 19.88v48.87a29.167 29.167 0 0 1-29.167 29.167h-87.5a29.167 29.167 0 0 1-29.167-29.167v-48.87A20.842 20.842 0 0 1 12.5 83.333V66.667a20.833 20.833 0 0 1 20.833-20.834h5.375a29.167 29.167 0 0 1 27.959-37.5c13.375 0 24.383 7.488 33.337 21.563zM162.5 83.333h4.167V66.667H33.333v16.666h66.521a17.208 17.208 0 0 1 .292 0H162.5zm-52.083 77.084h33.333a8.333 8.333 0 0 0 8.333-8.334v-47.916h-41.666v56.25zm-20.834-56.25H47.917v47.916a8.333 8.333 0 0 0 8.333 8.334h33.333v-56.25zm-22.916-75a8.333 8.333 0 1 0 0 16.666l18.55-.004-.692-1.292C78.9 34.292 73.029 29.483 67.245 29.18l-.578-.012zm48.125 16.662h18.55a8.333 8.333 0 1 0 0-16.667l-.584.017c-5.779.304-11.646 5.113-17.275 15.358l-.691 1.292z"/></svg>