<svg width="200" height="200" xmlns="http://www.w3.org/2000/svg"><defs><style/></defs><path d="M100 16.667c10.875 0 21.325 2.033 31.354 6.1a82.438 82.438 0 0 1 27.571 18.304 82.438 82.438 0 0 1 18.304 27.57A82.667 82.667 0 0 1 183.333 100c0 10.875-2.033 21.325-6.104 31.358a82.288 82.288 0 0 1-16.729 25.959l-1.587 1.625a82.438 82.438 0 0 1-27.559 18.291A82.667 82.667 0 0 1 100 183.33a82.667 82.667 0 0 1-31.354-6.1 82.438 82.438 0 0 1-27.571-18.304 82.438 82.438 0 0 1-18.304-27.57 82.667 82.667 0 0 1-6.104-31.36c0-10.87 2.033-21.32 6.104-31.353A82.438 82.438 0 0 1 41.075 41.07a82.442 82.442 0 0 1 27.57-18.304A82.667 82.667 0 0 1 100 16.662zM45.683 54.52A69.77 69.77 0 0 0 34.35 73.34a70.283 70.283 0 0 0-5.183 26.655c0 9.25 1.729 18.133 5.187 26.658a70.063 70.063 0 0 0 15.559 23.43 70.063 70.063 0 0 0 23.429 15.562A70.28 70.28 0 0 0 100 170.829c9.246 0 18.133-1.725 26.658-5.183a69.77 69.77 0 0 0 18.821-11.333L45.683 54.52zM100 29.162c-9.246 0-18.133 1.73-26.658 5.188a69.783 69.783 0 0 0-17.105 9.933l-1.716 1.396 99.796 99.8a69.77 69.77 0 0 0 11.333-18.825A70.28 70.28 0 0 0 170.833 100c0-9.246-1.729-18.13-5.187-26.654a70.063 70.063 0 0 0-15.559-23.43 70.063 70.063 0 0 0-23.429-15.562A70.28 70.28 0 0 0 100 29.167z"/></svg>