<svg width="200" height="200" xmlns="http://www.w3.org/2000/svg"><defs><style/></defs><path d="M170.833 175h-54.166a6.25 6.25 0 1 1 0-12.5h54.166a6.25 6.25 0 1 1 0 12.5zm-4.67-90.658l-85.776 85.775A16.667 16.667 0 0 1 68.604 175H35.417A10.417 10.417 0 0 1 25 164.583v-33.187a16.667 16.667 0 0 1 4.883-11.783l85.771-85.78a25 25 0 0 1 35.358 0l15.15 15.15a25 25 0 0 1 0 35.354zm-56.1-27.234L38.72 128.45a4.167 4.167 0 0 0-1.221 2.946l.004 31.104h31.1a4.167 4.167 0 0 0 2.53-.858l.416-.363L142.23 90.6l-32.167-33.492zm41.004 24.65l6.254-6.25a12.5 12.5 0 0 0 0-17.683l-15.15-15.15a12.5 12.5 0 0 0-17.675 0l-5.596 5.596 32.167 33.487z"/></svg>