<svg width="200" height="200" xmlns="http://www.w3.org/2000/svg"><defs><style/></defs><path d="M175.4 85.817l-85.775 85.775a18.75 18.75 0 0 1-13.258 5.491H43.183a12.5 12.5 0 0 1-12.5-12.5v-33.187a18.75 18.75 0 0 1 5.492-13.258l85.775-85.771a27.083 27.083 0 0 1 38.3 0l15.15 15.15a27.083 27.083 0 0 1 0 38.3zm-61.48-21.859l-65.957 65.959a2.083 2.083 0 0 0-.613 1.475v29.025h29.017a2.083 2.083 0 0 0 1.225-.396l.25-.217L143.2 94.446l-29.28-30.484zm41.067 18.696l8.626-8.625a10.417 10.417 0 0 0 0-14.733l-15.146-15.15a10.417 10.417 0 0 0-14.734 0l-8.025 8.025 29.28 30.483zM175 177.084h-50a8.333 8.333 0 1 1 0-16.667h50a8.333 8.333 0 0 1 0 16.666z"/></svg>