<svg width="200" height="200" xmlns="http://www.w3.org/2000/svg"><defs><style/></defs><path d="M31.958 167.738c-2.762-5.33-2.791-12.488-2.791-26.488v-82.5c0-14 .029-21.158 2.791-26.488a25.112 25.112 0 0 1 10.721-10.72c5.33-2.763 12.488-2.792 26.488-2.792h61.666c14 0 21.159.03 26.488 2.792a25.112 25.112 0 0 1 10.72 10.72c2.763 5.33 2.792 12.488 2.792 26.488v82.5c0 14-.029 21.158-2.791 26.488a25.112 25.112 0 0 1-10.721 10.72c-5.33 2.763-12.488 2.792-26.488 2.792H69.167c-14 0-21.159-.03-26.488-2.792a25.112 25.112 0 0 1-10.72-10.72zM125 85.417a6.25 6.25 0 0 0 0-12.5H75a6.25 6.25 0 1 0 0 12.5h50zm0 37.5a6.25 6.25 0 0 0 0-12.5H75a6.25 6.25 0 1 0 0 12.5h50z"/></svg>