<svg width="200" height="200" xmlns="http://www.w3.org/2000/svg"><defs><style/></defs><path d="M176.042 43.75v112.5a29.167 29.167 0 0 1-29.167 29.167h-93.75a29.167 29.167 0 0 1-29.167-29.167V43.75a29.167 29.167 0 0 1 29.167-29.167h93.75a29.167 29.167 0 0 1 29.167 29.167zM53.125 35.417a8.333 8.333 0 0 0-8.333 8.333v112.5a8.333 8.333 0 0 0 8.333 8.333h93.75a8.333 8.333 0 0 0 8.333-8.333V43.75a8.333 8.333 0 0 0-8.333-8.333h-93.75zM75 89.583a10.417 10.417 0 0 1 0-20.833h50a10.417 10.417 0 0 1 0 20.833H75zm0 37.5a10.417 10.417 0 0 1 0-20.833h50a10.417 10.417 0 0 1 0 20.833H75z"/></svg>