<svg width="200" height="200" xmlns="http://www.w3.org/2000/svg"><defs><style/></defs><path d="M173.958 43.75v112.5a27.083 27.083 0 0 1-27.083 27.083h-93.75a27.083 27.083 0 0 1-27.083-27.083V43.75a27.083 27.083 0 0 1 27.083-27.083h93.75a27.083 27.083 0 0 1 27.083 27.083zM53.125 33.333A10.417 10.417 0 0 0 42.708 43.75v112.5a10.417 10.417 0 0 0 10.417 10.417h93.75a10.417 10.417 0 0 0 10.417-10.417V43.75a10.417 10.417 0 0 0-10.417-10.417h-93.75zM75 87.5a8.333 8.333 0 1 1 0-16.667h50a8.333 8.333 0 1 1 0 16.667H75zm0 37.5a8.333 8.333 0 1 1 0-16.667h50A8.333 8.333 0 1 1 125 125H75z"/></svg>