<svg width="200" height="200" xmlns="http://www.w3.org/2000/svg"><defs><style/></defs><path d="M30.904 146.596q4.492 6.65 10.167 12.333 11.533 11.53 26.492 17.854 15.487 6.55 32.437 6.55t32.438-6.55q14.958-6.325 26.487-17.858 11.53-11.53 17.858-26.488 6.55-15.487 6.55-32.437t-6.55-32.438q-6.329-14.958-17.858-26.487-11.53-11.53-26.488-17.858-15.487-6.55-32.437-6.55t-32.438 6.55Q53.25 29.27 42.083 40.083V23.75a6.25 6.25 0 0 0-12.5 0v33.333a6.25 6.25 0 0 0 10.063 4.954 6.28 6.28 0 0 0 1.612-1.637q3.821-5.654 8.654-10.488 9.809-9.804 22.517-15.183Q85.583 29.167 100 29.167t27.57 5.562q12.71 5.375 22.517 15.183 9.805 9.809 15.184 22.517 5.562 13.154 5.562 27.571t-5.562 27.57q-5.375 12.71-15.184 22.517-9.808 9.805-22.516 15.184-13.154 5.562-27.571 5.562t-27.57-5.562q-12.71-5.375-22.518-15.184-4.833-4.833-8.654-10.487a6.25 6.25 0 1 0-10.354 7zm73.263-86.18a6.25 6.25 0 0 0-12.5 0v39.359a10.417 10.417 0 0 0 4.895 8.833l23.042 14.4a6.25 6.25 0 0 0 8.613-1.987l.291-.525a6.25 6.25 0 0 0-2.279-8.088l-22.062-13.787V60.417z" fill-rule="evenodd"/></svg>