<svg width="200" height="200" xmlns="http://www.w3.org/2000/svg"><defs><style/></defs><path d="M23.883 159.292l59.305-59.3-59.305-59.3a10.417 10.417 0 0 1-.508-14.192l.508-.542a10.417 10.417 0 0 1 14.734 0l63.716 63.717a14.583 14.583 0 0 1 0 20.625l-63.716 63.725a10.418 10.418 0 0 1-14.734-14.733zm70.834 0l59.304-59.3-59.304-59.3a10.417 10.417 0 0 1-.509-14.188l.509-.541a10.417 10.417 0 0 1 14.733 0l63.717 63.712a14.583 14.583 0 0 1 0 20.625l-63.717 63.725a10.418 10.418 0 0 1-14.733-14.733z"/></svg>