<svg width="200" height="200" xmlns="http://www.w3.org/2000/svg"><defs><style/></defs><path d="M170.833 25a8.333 8.333 0 0 0-8.333-8.333h-125a8.333 8.333 0 0 0 0 16.666h125A8.333 8.333 0 0 0 170.833 25zM111.4 47.942a16.667 16.667 0 0 0-23.558.762l-56.425 60.18a8.333 8.333 0 0 0 .379 11.778l.546.471a8.333 8.333 0 0 0 11.233-.85l48.092-51.291v110.175a8.333 8.333 0 1 0 16.666 0V68.992l48.084 51.291a8.337 8.337 0 0 0 12.166-11.4l-56.429-60.175a16.954 16.954 0 0 0-.758-.762z" fill-rule="evenodd"/></svg>