<svg width="200" height="200" xmlns="http://www.w3.org/2000/svg"><defs><style/></defs><path d="M40.087 68.75l15.846 15.846a6.25 6.25 0 1 1-8.833 8.837l-23.575-23.57q-3.05-3.05-3.05-7.363 0-4.317 3.05-7.367l23.57-23.57a6.25 6.25 0 1 1 8.838 8.837L40.087 56.25h89.08q10.591 0 20.275 4.096 9.346 3.95 16.554 11.158t11.158 16.554q4.096 9.684 4.096 20.275t-4.096 20.275q-3.954 9.346-11.158 16.55-7.208 7.209-16.554 11.163-9.684 4.096-20.275 4.096H98.958a6.25 6.25 0 0 1 0-12.5h30.209q8.058 0 15.404-3.109 7.104-3.004 12.583-8.487 5.484-5.48 8.488-12.583 3.108-7.35 3.108-15.405 0-8.058-3.108-15.408-3.004-7.1-8.488-12.583-5.479-5.48-12.583-8.484-7.346-3.108-15.404-3.108H40.083z" fill-rule="evenodd"/></svg>