<svg width="200" height="200" xmlns="http://www.w3.org/2000/svg"><defs><style/></defs><path d="M170.833 175a8.333 8.333 0 0 1-8.333 8.333h-125a8.333 8.333 0 0 1 0-16.666h125a8.333 8.333 0 0 1 8.333 8.333zM111.4 152.058a16.667 16.667 0 0 1-23.558-.762l-56.425-60.18a8.333 8.333 0 0 1 .379-11.779l.546-.47a8.333 8.333 0 0 1 11.233.85l48.092 51.291V20.833a8.333 8.333 0 1 1 16.666 0v110.175l48.084-51.291a8.337 8.337 0 0 1 12.166 11.4l-56.429 60.175c-.246.262-.5.516-.758.762z" fill-rule="evenodd"/></svg>