<svg width="200" height="200" xmlns="http://www.w3.org/2000/svg"><defs><style/></defs><path d="M117.842 73.317l12.908-12.9H70.833q-8.27 0-15.812 3.187-7.292 3.084-12.917 8.709-5.625 5.624-8.708 12.916-3.188 7.542-3.188 15.813 0 8.266 3.192 15.808 1.53 3.625 3.742 6.896a6.254 6.254 0 1 1-10.359 7l-.004-.008q-2.887-4.275-4.892-9.017-4.179-9.875-4.179-20.68t4.18-20.683q4.029-9.533 11.379-16.883t16.887-11.383q9.875-4.175 20.68-4.175h59.912l-12.904-12.904a6.25 6.25 0 1 1 8.841-8.834L147.308 46.8q3.05 3.05 3.05 7.367 0 4.312-3.05 7.362l-20.625 20.625a6.25 6.25 0 1 1-8.841-8.837zm-48.584 78.766l12.9 12.9a6.25 6.25 0 1 1-8.841 8.838l-20.625-20.625q-3.05-3.05-3.05-7.363 0-4.316 3.05-7.366l20.625-20.625a6.25 6.25 0 0 1 8.841 8.837L69.25 139.583h59.917q8.27 0 15.812-3.191 7.292-3.084 12.917-8.709t8.708-12.916q3.188-7.542 3.188-15.809 0-8.27-3.192-15.812-1.53-3.625-3.742-6.896a6.25 6.25 0 1 1 10.359-7l.004.008q2.887 4.275 4.891 9.017 4.18 9.875 4.18 20.683 0 10.805-4.18 20.68-4.033 9.533-11.379 16.883-7.35 7.35-16.887 11.383-9.875 4.18-20.68 4.18H69.255z" fill-rule="evenodd"/></svg>