<svg width="200" height="200" xmlns="http://www.w3.org/2000/svg"><defs><style/></defs><path d="M111.667 12.52l.833-.02a16.667 16.667 0 0 1 10.975 4.125l66.6 58.27a25 25 0 0 1 0 37.63l-66.6 58.275a16.667 16.667 0 0 1-27.642-12.542V130.3l-2.025.108c-25.287 1.534-41.891 10.671-62.208 33.546l-1.275 1.45c-6.354 7.28-18.283 2.5-18.192-7.054.53-50.425 27.909-91.48 82.163-100.13l1.533-.237.004-28.816a16.667 16.667 0 0 1 15.834-16.646zm3.579 13.51a4.167 4.167 0 0 0-6.913 3.137V63.5a6.25 6.25 0 0 1-5.608 6.22c-49.587 5.105-75.267 38.767-77.875 82.58l-.033.52 1.5-1.603c22.637-24.042 43.012-33.196 73.937-33.538l1.833-.008a6.25 6.25 0 0 1 6.25 6.25v34.333a4.167 4.167 0 0 0 6.909 3.138l66.596-58.275a12.5 12.5 0 0 0 0-18.813L115.246 26.03z"/></svg>