<svg width="200" height="200" xmlns="http://www.w3.org/2000/svg"><defs><style/></defs><path d="M53.125 18.75h93.75a25 25 0 0 1 25 25v112.5a25 25 0 0 1-25 25h-93.75a25 25 0 0 1-25-25V43.75a25 25 0 0 1 25-25zm-10.82 47.263a89.542 89.542 0 0 0 31.52 15.174 29.167 29.167 0 0 1 54.233-.512c10.754-3.03 20.625-7.917 29.65-14.675a4.142 4.142 0 0 0 1.667-3.317V43.75a12.5 12.5 0 0 0-12.5-12.5h-93.75a12.5 12.5 0 0 0-12.5 12.5v18.937c0 1.309.617 2.534 1.68 3.325zm-1.68 14.062v76.175a12.5 12.5 0 0 0 12.5 12.5h93.75a12.5 12.5 0 0 0 12.5-12.5V80.075a101.662 101.662 0 0 1-29.2 12.983 29.167 29.167 0 0 1-58.237.542 101.767 101.767 0 0 1-31.313-13.525zm60.417 28.258a16.667 16.667 0 1 0 0-33.333 16.667 16.667 0 0 0 0 33.333z"/></svg>