<svg width="200" height="200" xmlns="http://www.w3.org/2000/svg"><defs><style/></defs><path d="M115.213 24.088l65.75 134.854a16.933 16.933 0 0 1-2.817 18.933 16.933 16.933 0 0 1-18.68 4.192l-54.65-21.875a12.512 12.512 0 0 0-9.624 0l-54.65 21.879a16.933 16.933 0 0 1-18.68-4.192 16.933 16.933 0 0 1-2.816-18.933L84.792 24.083a16.958 16.958 0 0 1 15.208-9.5 16.958 16.958 0 0 1 15.208 9.505zM35.896 170.463c18.887-7.567 34.937-14.213 57.862-22.942V34.229L30.28 164.417c-1.758 3.612 1.892 7.533 5.617 6.041zm133.833-6.042L106.25 34.225v113.292c27.083 10.816 38.975 15.387 57.858 22.941 3.73 1.492 7.375-2.429 5.617-6.041z"/></svg>