<svg width="200" height="200" xmlns="http://www.w3.org/2000/svg"><defs><style/></defs><path d="M14.917 86.933a16.917 16.917 0 0 1-2.404-9.487 16.917 16.917 0 0 1 3.1-9.288 16.725 16.725 0 0 1 8.475-6.32l140.62-48.375a16.792 16.792 0 0 1 9.788-.434 16.938 16.938 0 0 1 7.946 4.534c2.25 2.25 3.762 4.9 4.533 7.945a16.792 16.792 0 0 1-.437 9.784l-48.375 140.616a16.725 16.725 0 0 1-6.317 8.48 16.92 16.92 0 0 1-9.288 3.1 16.92 16.92 0 0 1-9.487-2.405 16.725 16.725 0 0 1-6.93-7.991l-24.978-58.25-58.25-24.98a16.725 16.725 0 0 1-7.992-6.929zM164.358 26.8L28.154 73.654c-2.025.696-3.075 2.113-3.154 4.25-.08 2.142.867 3.633 2.833 4.475l56.65 24.292 79.875-79.875zm8.85 8.825l-79.883 79.883 24.292 56.659c.846 1.966 2.337 2.912 4.475 2.833 2.141-.08 3.558-1.13 4.254-3.154l46.858-136.221z"/></svg>