<svg width="200" height="200" xmlns="http://www.w3.org/2000/svg"><defs><style/></defs><path d="M75 58.333V41.667c0-4.605 1.625-8.53 4.883-11.784A16.058 16.058 0 0 1 91.667 25h16.666c4.605 0 8.53 1.625 11.784 4.883A16.058 16.058 0 0 1 125 41.667v16.666c0 4.604-1.625 8.53-4.883 11.784A16.058 16.058 0 0 1 108.333 75h-2.083v14.583h37.5c6.904 0 12.796 2.442 17.68 7.321 4.878 4.888 7.32 10.775 7.32 17.68V125h2.083c4.604 0 8.53 1.625 11.784 4.883a16.058 16.058 0 0 1 4.883 11.784v16.666c0 4.604-1.625 8.53-4.883 11.784A16.058 16.058 0 0 1 170.833 175h-16.666a16.058 16.058 0 0 1-11.784-4.883 16.058 16.058 0 0 1-4.883-11.784v-16.666c0-4.605 1.625-8.53 4.883-11.784A16.058 16.058 0 0 1 154.167 125h2.083v-10.417a12.042 12.042 0 0 0-3.663-8.837 12.042 12.042 0 0 0-8.837-3.663h-37.5V125h2.083c4.604 0 8.53 1.625 11.784 4.883A16.058 16.058 0 0 1 125 141.667v16.666c0 4.604-1.625 8.53-4.883 11.784A16.058 16.058 0 0 1 108.333 175H91.667a16.058 16.058 0 0 1-11.784-4.883A16.058 16.058 0 0 1 75 158.333v-16.666c0-4.605 1.625-8.53 4.883-11.784A16.058 16.058 0 0 1 91.667 125h2.083v-22.917h-37.5a12.042 12.042 0 0 0-8.838 3.663 12.042 12.042 0 0 0-3.662 8.837V125h2.083c4.604 0 8.53 1.625 11.784 4.883a16.058 16.058 0 0 1 4.883 11.784v16.666c0 4.604-1.625 8.53-4.883 11.784A16.058 16.058 0 0 1 45.833 175H29.167a16.058 16.058 0 0 1-11.784-4.883 16.058 16.058 0 0 1-4.883-11.784v-16.666c0-4.605 1.625-8.53 4.883-11.784A16.058 16.058 0 0 1 29.167 125h2.083v-10.417c0-6.904 2.442-12.796 7.32-17.679 4.888-4.879 10.776-7.32 17.68-7.32h37.5V75h-2.083a16.058 16.058 0 0 1-11.784-4.883A16.058 16.058 0 0 1 75 58.333z"/></svg>