<svg width="200" height="200" xmlns="http://www.w3.org/2000/svg"><defs><style/></defs><path d="M31.25 25h137.5a6.25 6.25 0 0 1 0 12.5H31.25a6.25 6.25 0 1 1 0-12.5zm0 137.5h137.5a6.25 6.25 0 0 1 0 12.5H31.25a6.25 6.25 0 0 1 0-12.5zm62.5-91.667h75a6.25 6.25 0 0 1 0 12.5h-75a6.25 6.25 0 0 1 0-12.5zm0 45.834h75a6.25 6.25 0 0 1 0 12.5h-75a6.25 6.25 0 0 1 0-12.5zm-46.513.966l-14.75-9.129c-4.55-2.817-6.891-4.283-7.641-6.1a6.333 6.333 0 0 1 0-4.808c.75-1.817 3.091-3.284 7.637-6.1l14.75-9.13c4.988-3.083 7.571-4.666 9.625-4.458a6.341 6.341 0 0 1 4.367 2.434c1.258 1.637 1.275 4.666 1.275 10.525v18.266c0 5.863-.017 8.892-1.275 10.525a6.346 6.346 0 0 1-4.367 2.434c-2.054.208-4.637-1.375-9.625-4.459z"/></svg>