<svg width="200" height="200" xmlns="http://www.w3.org/2000/svg"><defs><style/></defs><path d="M40.263 117.633l14.75-9.129c4.55-2.816 6.891-4.283 7.641-6.1a6.333 6.333 0 0 0 0-4.808c-.75-1.817-3.092-3.283-7.637-6.1l-14.75-9.13c-4.988-3.083-7.571-4.666-9.625-4.458a6.346 6.346 0 0 0-4.367 2.434C25.017 81.979 25 85.008 25 90.867v18.266c0 5.863.017 8.892 1.275 10.525a6.34 6.34 0 0 0 4.367 2.434c2.054.208 4.637-1.375 9.625-4.459zM31.25 25h137.5a6.25 6.25 0 0 1 0 12.5H31.25a6.25 6.25 0 1 1 0-12.5zm0 137.5h137.5a6.25 6.25 0 0 1 0 12.5H31.25a6.25 6.25 0 0 1 0-12.5zm62.5-91.667h75a6.25 6.25 0 0 1 0 12.5h-75a6.25 6.25 0 0 1 0-12.5zm0 45.834h75a6.25 6.25 0 0 1 0 12.5h-75a6.25 6.25 0 0 1 0-12.5z"/></svg>