<svg width="200" height="200" xmlns="http://www.w3.org/2000/svg"><defs><style/></defs><path d="M183.333 100c0 46.025-37.308 83.333-83.333 83.333S16.667 146.025 16.667 100 53.975 16.667 100 16.667 183.333 53.975 183.333 100zM100 29.167c-39.12 0-70.833 31.712-70.833 70.833S60.879 170.833 100 170.833s70.833-31.712 70.833-70.833S139.121 29.167 100 29.167zM80.208 87.5a7.292 7.292 0 1 1-14.583 0V77.083a7.292 7.292 0 1 1 14.583 0V87.5zm54.167 0a7.292 7.292 0 1 1-14.583 0V77.083a7.292 7.292 0 1 1 14.583 0V87.5zm-62.867 35.425l-.012-.042c-.717-3.341 2.212-6.216 5.633-6.216h45.754c3.417 0 6.338 2.87 5.625 6.208l-.012.037a29.175 29.175 0 0 1-56.988.013z"/></svg>