<svg width="200" height="200" xmlns="http://www.w3.org/2000/svg"><defs><style/></defs><path d="M14.583 100c0-47.175 38.242-85.417 85.417-85.417S185.417 52.825 185.417 100 147.175 185.417 100 185.417 14.583 147.175 14.583 100zM100 168.75c37.97 0 68.75-30.78 68.75-68.75S137.97 31.25 100 31.25 31.25 62.03 31.25 100s30.78 68.75 68.75 68.75zM70.833 59.375a8.333 8.333 0 0 1 8.334 8.333v9.375a8.333 8.333 0 1 1-16.667 0v-9.375a8.333 8.333 0 0 1 8.333-8.333zm58.334 0a8.333 8.333 0 0 1 8.333 8.333v9.375a8.333 8.333 0 1 1-16.667 0v-9.375a8.333 8.333 0 0 1 8.334-8.333zM68.75 100h62.5c5.658 0 10.262 2.354 12.642 6.825 1.633 3.07 1.816 6.162 1.287 9.267a45.842 45.842 0 0 1-90.367-.059c-.529-3.129-.383-6.12 1.242-9.2 2.371-4.5 7-6.833 12.696-6.833zm59.062 17.154l.142-.487H72.042l.133.454a29.196 29.196 0 0 0 26.808 20.362l1.017.017a29.192 29.192 0 0 0 27.812-20.346z"/></svg>