<svg width="200" height="200" xmlns="http://www.w3.org/2000/svg"><defs><style/></defs><path d="M25 138.75v-77.5c0-6.28.096-10.575.292-12.896.333-3.991 1.166-7.275 2.5-9.846a24.48 24.48 0 0 1 10.72-10.716c2.571-1.334 5.855-2.167 9.846-2.504 2.321-.196 6.617-.292 12.896-.292h77.5c6.28 0 10.575.096 12.896.292 3.992.333 7.275 1.166 9.846 2.5a24.48 24.48 0 0 1 10.712 10.716c1.334 2.571 2.167 5.854 2.505 9.846.195 2.32.291 6.617.291 12.896v77.5c0 6.279-.096 10.575-.291 12.896-.334 3.991-1.167 7.275-2.5 9.846a24.48 24.48 0 0 1-10.717 10.712c-2.571 1.333-5.854 2.167-9.846 2.504-2.32.196-6.62.292-12.896.292H61.25c-6.28 0-10.575-.096-12.896-.292-3.991-.333-7.275-1.166-9.846-2.5a24.48 24.48 0 0 1-10.712-10.716c-1.333-2.571-2.167-5.855-2.504-9.846-.196-2.317-.292-6.617-.292-12.892zM61.25 37.5c-5.93 0-9.88.083-11.85.25-2.333.192-4.046.575-5.142 1.142a12.267 12.267 0 0 0-5.366 5.366c-.567 1.096-.95 2.809-1.146 5.142-.163 1.97-.246 5.92-.246 11.85v9.583h33.333V37.5H61.25zm22.083 0v33.333h33.334V37.5H83.333zm45.834 0v33.333H162.5V61.25c0-5.93-.083-9.88-.25-11.85-.192-2.333-.575-4.046-1.142-5.142a12.267 12.267 0 0 0-5.366-5.366c-1.096-.567-2.809-.95-5.142-1.146-1.97-.163-5.92-.246-11.85-.246h-9.583zM162.5 83.333h-33.333v33.334H162.5V83.333zm0 45.834h-33.333V162.5h9.583c5.93 0 9.88-.083 11.85-.25 2.333-.192 4.046-.575 5.142-1.142a12.262 12.262 0 0 0 5.366-5.366c.567-1.096.95-2.809 1.146-5.142.167-1.97.246-5.92.246-11.85v-9.583zM116.667 162.5v-33.333H83.333V162.5h33.334zm-45.834 0v-33.333H37.5v9.583c0 5.93.083 9.88.25 11.85.192 2.333.575 4.046 1.142 5.142 1.22 2.354 3.012 4.145 5.366 5.366 1.096.567 2.809.95 5.142 1.146 1.97.167 5.92.246 11.85.246h9.583zM37.5 116.667h33.333V83.333H37.5v33.334zm79.167 0V83.333H83.333v33.334h33.334z"/></svg>