<svg width="200" height="200" xmlns="http://www.w3.org/2000/svg"><defs><style/></defs><path d="M106.25 58.333a6.25 6.25 0 0 1-6.25-6.25c0-2.15.033-3.6.104-4.35a24.25 24.25 0 0 1 7.217-15.412 24.25 24.25 0 0 1 15.412-7.221c.75-.067 2.204-.1 4.35-.1h50a6.25 6.25 0 0 1 0 12.5h-50c-1.77 0-2.85.017-3.229.05a12.108 12.108 0 0 0-7.692 3.612 12.108 12.108 0 0 0-3.612 7.692c-.033.38-.05 1.458-.05 3.23a6.25 6.25 0 0 1-6.25 6.25zM64.833 85.667L50.504 100l14.333 14.333a6.25 6.25 0 0 1-8.841 8.834l-14.33-14.325-14.324 14.333a6.252 6.252 0 1 1-8.842-8.842L32.833 100 18.5 85.675a6.252 6.252 0 1 1 8.842-8.842l14.325 14.334 14.329-14.334a6.25 6.25 0 1 1 8.837 8.842zm18.5 16.416v-4.166c0-3.567.059-6.03.171-7.396.217-2.583.783-4.758 1.692-6.517a16.317 16.317 0 0 1 7.141-7.141c1.759-.909 3.93-1.475 6.517-1.692 1.367-.113 3.833-.171 7.396-.171h54.167c3.566 0 6.029.058 7.395.17 2.584.218 4.759.784 6.517 1.693 3.138 1.625 5.517 4.004 7.142 7.141.908 1.759 1.475 3.93 1.691 6.517.113 1.367.171 3.833.171 7.396v4.166c0 3.563-.058 6.03-.17 7.396-.217 2.584-.784 4.759-1.692 6.517a16.317 16.317 0 0 1-7.142 7.142c-1.758.908-3.929 1.474-6.517 1.691-1.366.113-3.833.171-7.395.171H106.25c-3.563 0-6.03-.058-7.396-.17-2.583-.217-4.758-.784-6.517-1.692a16.317 16.317 0 0 1-7.141-7.142c-.909-1.758-1.475-3.93-1.692-6.517-.112-1.366-.17-3.833-.17-7.396zm12.5 0c0 4.846.154 7.567.459 8.163a4.122 4.122 0 0 0 1.795 1.792c.596.308 3.317.462 8.163.462h54.167c4.845 0 7.566-.154 8.162-.458a4.1 4.1 0 0 0 1.792-1.796c.308-.596.462-3.317.462-8.163v-4.166c0-4.846-.154-7.567-.458-8.163a4.1 4.1 0 0 0-1.796-1.791c-.596-.309-3.317-.463-8.162-.463H106.25c-4.846 0-7.567.154-8.163.458a4.1 4.1 0 0 0-1.791 1.796c-.309.596-.463 3.317-.463 8.163v4.166zm10.417 39.584a6.25 6.25 0 0 1 6.25 6.25c0 1.77.017 2.85.05 3.229.27 2.992 1.475 5.558 3.612 7.692a12.108 12.108 0 0 0 7.692 3.612c.38.033 1.458.05 3.23.05h50a6.25 6.25 0 0 1 0 12.5h-50c-2.147 0-3.6-.033-4.35-.104a24.246 24.246 0 0 1-15.413-7.217 24.246 24.246 0 0 1-7.217-15.412c-.07-.75-.104-2.204-.104-4.35a6.25 6.25 0 0 1 6.25-6.25z"/></svg>