<svg width="200" height="200" xmlns="http://www.w3.org/2000/svg"><defs><style/></defs><path d="M48.354 174.708c-3.992-.333-7.275-1.166-9.846-2.5a24.48 24.48 0 0 1-10.712-10.716c-1.333-2.571-2.167-5.854-2.504-9.846-.196-2.321-.292-6.621-.292-12.896v-77.5c0-6.28.096-10.575.292-12.896.333-3.991 1.166-7.275 2.5-9.846a24.48 24.48 0 0 1 10.72-10.716c2.571-1.334 5.855-2.167 9.846-2.504 2.321-.196 6.617-.292 12.896-.292h77.5c6.28 0 10.575.096 12.896.292 3.992.333 7.275 1.166 9.846 2.5a24.48 24.48 0 0 1 10.712 10.716c1.334 2.571 2.167 5.854 2.505 9.846.195 2.32.291 6.617.291 12.896v15.833a6.25 6.25 0 0 1-6.25 6.25h-85.42v85.417a6.25 6.25 0 0 1-6.25 6.25H61.25c-6.28 0-10.575-.096-12.896-.292zM162.5 70.833V61.25c0-5.93-.083-9.88-.25-11.85-.192-2.333-.575-4.046-1.142-5.142a12.267 12.267 0 0 0-5.366-5.366c-1.096-.567-2.809-.95-5.142-1.146-1.97-.163-5.92-.246-11.85-.246H83.333v33.333H162.5zM61.25 37.5c-5.93 0-9.88.083-11.85.25-2.333.192-4.046.575-5.142 1.142a12.267 12.267 0 0 0-5.366 5.366c-.567 1.096-.95 2.809-1.146 5.142-.163 1.97-.246 5.92-.246 11.85v9.583h33.333V37.5H61.25zM37.5 138.75c0 5.93.083 9.88.25 11.85.192 2.333.575 4.046 1.142 5.142 1.22 2.354 3.012 4.146 5.366 5.366 1.096.567 2.809.95 5.142 1.146 1.97.167 5.92.246 11.85.246h9.583V83.333H37.5v55.417zm69.167 40a14.338 14.338 0 0 1-3.75-6.442c-.346-1.266-.521-3.483-.521-6.65V160.1c0-1.975.054-3.375.162-4.188a18.438 18.438 0 0 1 3.7-8.937c.5-.654 1.454-1.683 2.85-3.08l33.417-33.416c3.167-3.166 5.48-5.166 6.946-6a18.43 18.43 0 0 1 9.262-2.441c3.309 0 6.396.816 9.263 2.445 1.462.834 3.779 2.834 6.941 5.992 3.163 3.167 5.163 5.48 5.992 6.942a18.452 18.452 0 0 1 2.446 9.262c0 3.313-.817 6.4-2.446 9.263-.833 1.466-2.829 3.779-5.992 6.946l-33.42 33.416a36.746 36.746 0 0 1-3.08 2.85 18.446 18.446 0 0 1-8.933 3.7c-.82.108-2.217.167-4.192.167h-5.554c-3.17 0-5.387-.175-6.654-.525a14.342 14.342 0 0 1-6.437-3.75zm21.191-8.287a6.11 6.11 0 0 0 2.98-1.234c.216-.167.833-.754 1.841-1.762l33.417-33.417c2.37-2.37 3.691-3.796 3.966-4.283 1.171-2.059 1.171-4.113 0-6.167-.275-.492-1.595-1.917-3.962-4.283-2.37-2.371-3.796-3.692-4.283-3.967-2.059-1.167-4.113-1.167-6.167 0-.488.275-1.917 1.596-4.283 3.967l-33.417 33.416c-1.013 1.009-1.6 1.625-1.767 1.842a6.152 6.152 0 0 0-1.233 2.98c-.038.27-.054 1.124-.054 2.545v5.558c0 2.042.025 3.154.075 3.334.208.758.691 1.241 1.45 1.454.179.046 1.291.07 3.333.07h5.558c1.425 0 2.275-.016 2.546-.053z"/></svg>