<svg width="200" height="200" xmlns="http://www.w3.org/2000/svg"><defs><style/></defs><path d="M146.804 41.742c2.088.05 3.704.125 4.842.216 3.992.334 7.275 1.167 9.846 2.5a24.48 24.48 0 0 1 10.712 10.717c1.333 2.57 2.167 5.854 2.504 9.846.196 2.32.292 6.616.292 12.896v90.833a6.25 6.25 0 0 1-12.5 0V77.917c0-5.93-.083-9.88-.25-11.85-.192-2.334-.575-4.046-1.142-5.142a12.267 12.267 0 0 0-5.366-5.367c-1.096-.566-2.809-.95-5.142-1.145-1.97-.167-5.92-.246-11.85-.246h-17.917V168.75a6.25 6.25 0 0 1-12.5 0V54.167H97.917a6.25 6.25 0 0 1 0-12.5h47.916a6.25 6.25 0 0 1 .971.075zM54.221 173.358a6.25 6.25 0 0 1-8.83-.383l-22.916-25a6.25 6.25 0 1 1 9.217-8.446l12.058 13.154v-36.05a55.25 55.25 0 0 1-3.23-.137c-2.583-.217-4.758-.784-6.516-1.692a16.317 16.317 0 0 1-7.141-7.142c-.909-1.758-1.475-3.929-1.692-6.516-.113-1.367-.171-3.833-.171-7.396V47.917c0-3.567.058-6.03.17-7.396.218-2.583.784-4.758 1.693-6.517a16.317 16.317 0 0 1 7.141-7.141c1.759-.909 3.93-1.475 6.517-1.692 1.367-.113 3.833-.171 7.396-.171h4.166c3.563 0 6.03.058 7.396.17 2.584.218 4.759.784 6.517 1.693 3.133 1.625 5.517 4.004 7.142 7.141.908 1.759 1.474 3.93 1.691 6.517.113 1.367.171 3.833.171 7.396V93.75c0 3.567-.058 6.03-.17 7.396-.217 2.583-.784 4.758-1.692 6.516a16.317 16.317 0 0 1-7.142 7.142c-1.758.908-3.93 1.475-6.517 1.692-.75.062-1.825.108-3.229.137v36.05l12.058-13.158a6.252 6.252 0 1 1 9.217 8.45l-22.917 25c-.125.133-.25.258-.383.383zM37.967 39.75c-.313.6-.467 3.32-.467 8.167V93.75c0 4.846.154 7.567.458 8.162a4.122 4.122 0 0 0 1.796 1.792c.596.309 3.317.463 8.163.463h4.166c4.846 0 7.567-.154 8.163-.459a4.1 4.1 0 0 0 1.792-1.795c.308-.596.462-3.317.462-8.163V47.917c0-4.846-.154-7.567-.458-8.163a4.1 4.1 0 0 0-1.796-1.791c-.596-.309-3.317-.463-8.163-.463h-4.166c-4.846 0-7.567.154-8.163.458a4.1 4.1 0 0 0-1.791 1.796z"/></svg>