<svg width="200" height="200" xmlns="http://www.w3.org/2000/svg"><defs><style/></defs><path d="M31.25 37.5a6.25 6.25 0 1 1 0-12.5h137.5a6.25 6.25 0 0 1 0 12.5H31.25zM25 138.75V75.417c0-3.363.388-5.792 1.167-7.292a10.157 10.157 0 0 1 4.458-4.458c1.5-.78 3.93-1.167 7.292-1.167h124.166c3.363 0 5.792.388 7.292 1.167a10.157 10.157 0 0 1 4.458 4.458c.78 1.5 1.167 3.93 1.167 7.292v63.333c0 6.28-.096 10.575-.292 12.896-.333 3.992-1.166 7.275-2.5 9.846a24.48 24.48 0 0 1-10.716 10.712c-2.571 1.333-5.854 2.167-9.846 2.504-2.321.196-6.621.292-12.896.292h-77.5c-6.28 0-10.575-.096-12.896-.292-3.991-.333-7.275-1.166-9.846-2.5a24.48 24.48 0 0 1-10.712-10.716c-1.333-2.571-2.167-5.854-2.504-9.846-.196-2.321-.292-6.621-.292-12.896zm45.833-26.25V75H37.5v37.5h33.333zM37.5 125v13.75c0 5.93.083 9.88.25 11.85.192 2.333.575 4.046 1.142 5.142 1.22 2.354 3.012 4.146 5.366 5.366 1.096.567 2.809.95 5.142 1.146 1.97.167 5.92.246 11.85.246h9.583V125H37.5zm45.833 37.5h33.334V125H83.333v37.5zm45.834 0h9.583c5.93 0 9.88-.083 11.85-.25 2.333-.192 4.046-.575 5.142-1.142a12.262 12.262 0 0 0 5.366-5.366c.567-1.096.95-2.809 1.146-5.142.167-1.97.246-5.92.246-11.85V125h-33.333v37.5zm33.333-50V75h-33.333v37.5H162.5zM116.667 75H83.333v37.5h33.334V75z"/></svg>