<svg width="200" height="200" xmlns="http://www.w3.org/2000/svg"><defs><style/></defs><path d="M43.75 22.917a6.25 6.25 0 1 1 12.5 0v110.416c0 3.45 1.22 6.396 3.662 8.838a12.042 12.042 0 0 0 8.838 3.662h110.417a6.25 6.25 0 0 1 0 12.5h-18.75v18.75a6.25 6.25 0 0 1-12.5 0v-18.75H68.75c-6.904 0-12.796-2.441-17.68-7.32-4.878-4.888-7.32-10.776-7.32-17.68V54.167H25a6.25 6.25 0 1 1 0-12.5h18.75v-18.75zm104.167 106.25v-62.5a12.042 12.042 0 0 0-3.663-8.838 12.042 12.042 0 0 0-8.837-3.662h-62.5v-12.5h62.5c6.904 0 12.795 2.441 17.679 7.32 4.879 4.888 7.32 10.776 7.32 17.68v62.5h-12.5z"/></svg>