<svg width="200" height="200" xmlns="http://www.w3.org/2000/svg"><defs><style/></defs><path d="M21.23 32.408c4.5-2.404 8.824-3.241 17.39-3.241l86.65.008c7.655.088 11.75.958 16 3.233a23.288 23.288 0 0 1 9.655 9.654c2.408 4.5 3.242 8.826 3.242 17.392v81.088c0 8.566-.834 12.891-3.242 17.391a23.292 23.292 0 0 1-9.654 9.654c-4.5 2.409-8.83 3.242-17.392 3.242H38.625c-8.567 0-12.892-.833-17.392-3.242a23.288 23.288 0 0 1-9.654-9.654c-2.408-4.496-3.246-8.82-3.246-17.387l.009-82.483c.087-7.655.958-11.75 3.233-16a23.288 23.288 0 0 1 9.654-9.655zm25.645 44.675a9.375 9.375 0 1 0 0-18.75 9.375 9.375 0 0 0 0 18.75zm119.792-18.45l12.416-9.508a10.417 10.417 0 0 1 16.75 8.27v85.21a10.417 10.417 0 0 1-16.75 8.27l-12.416-9.508V58.633z"/></svg>