<svg width="200" height="200" xmlns="http://www.w3.org/2000/svg"><defs><style/></defs><path d="M82.4 39.583h35.2l15.842-22.362a6.25 6.25 0 1 1 10.2 7.225L132.92 39.583h21.246a25 25 0 0 1 25 25v87.5a25 25 0 0 1-25 25H45.833a25 25 0 0 1-25-25v-87.5a25 25 0 0 1 25-25h21.25L56.358 24.446a6.25 6.25 0 0 1 10.2-7.225L82.4 39.583zm-49.067 25v87.5a12.5 12.5 0 0 0 12.5 12.5h108.334a12.5 12.5 0 0 0 12.5-12.5v-87.5a12.5 12.5 0 0 0-12.5-12.5H45.833a12.5 12.5 0 0 0-12.5 12.5zm42.484 17.45a16.667 16.667 0 0 1 22.416-4.85l27.846 16.904a16.667 16.667 0 0 1 0 28.492l-27.846 16.909a16.667 16.667 0 0 1-25.316-14.25V91.429a16.667 16.667 0 0 1 2.416-8.65l.484-.746zm10.208 7.234a4.167 4.167 0 0 0-.608 2.162v33.813a4.167 4.167 0 0 0 6.329 3.558l27.846-16.904a4.167 4.167 0 0 0 0-7.125L91.746 87.867a4.167 4.167 0 0 0-5.725 1.4z"/></svg>