<svg width="200" height="200" xmlns="http://www.w3.org/2000/svg"><defs><style/></defs><path d="M171.875 54.167V156.25a25 25 0 0 1-25 25h-93.75a25 25 0 0 1-25-25V54.167a25 25 0 0 1 25-25h8.354a16.667 16.667 0 0 1 16.646-15.834h43.75a16.667 16.667 0 0 1 16.646 15.834h8.354a25 25 0 0 1 25 25zM73.958 30v10.417a4.167 4.167 0 0 0 4.167 4.166h43.75a4.167 4.167 0 0 0 4.167-4.166V30a4.167 4.167 0 0 0-4.167-4.167h-43.75A4.167 4.167 0 0 0 73.958 30zm32.292 103.333v-18.75H125a6.25 6.25 0 1 0 0-12.5h-18.75v-18.75a6.25 6.25 0 0 0-12.5 0v18.75H75a6.25 6.25 0 0 0 0 12.5h18.75v18.75a6.25 6.25 0 0 0 12.5 0z"/></svg>