<svg width="200" height="200" xmlns="http://www.w3.org/2000/svg"><defs><style/></defs><path d="M183.333 27.083a6.25 6.25 0 0 1-6.25 6.25h-6.25V112.5c0 6.904-2.441 12.796-7.32 17.68-4.888 4.878-10.776 7.32-17.68 7.32h-39.937c.229.65.354 1.354.354 2.083v31.25h29.167a6.25 6.25 0 0 1 0 12.5H64.583a6.25 6.25 0 0 1 0-12.5H93.75v-31.25c0-.729.125-1.433.354-2.083H54.167c-6.905 0-12.796-2.442-17.68-7.32-4.879-4.888-7.32-10.776-7.32-17.68V33.333h-6.25a6.25 6.25 0 1 1 0-12.5h154.166a6.25 6.25 0 0 1 6.25 6.25zM45.33 121.338A12.042 12.042 0 0 0 54.167 125h91.666a12.042 12.042 0 0 0 8.838-3.662 12.042 12.042 0 0 0 3.662-8.838V33.333H41.667V112.5c0 3.45 1.22 6.396 3.662 8.838zm39.046-58.834a4.167 4.167 0 0 1 6.25-3.608l29.688 17.142a4.167 4.167 0 0 1 0 7.216l-29.688 17.142a4.167 4.167 0 0 1-6.25-3.608v-34.28z"/></svg>