<svg width="200" height="200" xmlns="http://www.w3.org/2000/svg"><defs><style/></defs><path d="M53.733 139.488l-5.325 33.604a6.252 6.252 0 1 0 12.35 1.958l5.63-35.563h.012l1.98-12.5h-.013l9.241-58.333h49.842l-9.237 58.334h-37.18l-1.979 12.5h37.18l-5.326 33.604a6.252 6.252 0 1 0 12.35 1.958l5.63-35.563h31.945a6.25 6.25 0 0 0 0-12.5h-29.966l9.241-58.333h.009l1.983-12.5h-.017l4.634-29.258a6.25 6.25 0 1 0-12.346-1.958l-4.942 31.216H79.583l4.634-29.258a6.25 6.25 0 1 0-12.346-1.958l-4.942 31.216H39.163a6.25 6.25 0 0 0 0 12.5h25.791l-9.241 58.334H25.417a6.25 6.25 0 0 0 0 12.5h28.316zM174.58 68.654h-21.804l1.98-12.5h19.824a6.25 6.25 0 0 1 0 12.5z" fill-rule="evenodd"/></svg>