<svg width="200" height="200" xmlns="http://www.w3.org/2000/svg"><defs><style/></defs><path d="M146.875 14.583a29.167 29.167 0 0 1 29.167 29.167v25a10.417 10.417 0 0 1-20.834 0v-25a8.333 8.333 0 0 0-8.333-8.333h-93.75a8.333 8.333 0 0 0-8.333 8.333v112.5a8.333 8.333 0 0 0 8.333 8.333h25a10.417 10.417 0 0 1 0 20.834h-25a29.167 29.167 0 0 1-29.167-29.167V43.75a29.167 29.167 0 0 1 29.167-29.167h93.75zm-11.458 56.25A10.417 10.417 0 0 1 125 81.25H75a10.417 10.417 0 0 1 0-20.833h50a10.417 10.417 0 0 1 10.417 10.416zm16.52 27.084l-43.75 43.75a20.833 20.833 0 0 0-6.104 14.733v16.517a14.583 14.583 0 0 0 14.584 14.583h16.52a20.833 20.833 0 0 0 14.73-6.104l43.75-43.75a20.833 20.833 0 0 0 1.008-28.38l-.754-.82-10.525-10.53a20.833 20.833 0 0 0-29.458 0zm-87.354 10.416A10.417 10.417 0 0 0 75 118.75h29.167a10.417 10.417 0 0 0 0-20.833H75a10.417 10.417 0 0 0-10.417 10.416zm112.355 14.584l-43.75 43.75h-10.276l.005-10.267 43.75-43.75 10.27 10.267z"/></svg>