<svg width="200" height="200" xmlns="http://www.w3.org/2000/svg"><defs><style/></defs><path d="M146.875 16.667a27.083 27.083 0 0 1 27.083 27.083V75a8.333 8.333 0 1 1-16.666 0V43.75a10.417 10.417 0 0 0-10.417-10.417h-93.75A10.417 10.417 0 0 0 42.708 43.75v112.5a10.417 10.417 0 0 0 10.417 10.417h25a8.333 8.333 0 1 1 0 16.666h-25a27.083 27.083 0 0 1-27.083-27.083V43.75a27.083 27.083 0 0 1 27.083-27.083h93.75zm-13.542 54.166A8.333 8.333 0 0 1 125 79.167H75A8.333 8.333 0 1 1 75 62.5h50a8.333 8.333 0 0 1 8.333 8.333zm15.909 32.725l-41.667 41.667a18.75 18.75 0 0 0-5.492 13.258v14.434a12.5 12.5 0 0 0 12.5 12.5h14.438a18.75 18.75 0 0 0 13.254-5.492l41.667-41.667a18.75 18.75 0 0 0 .908-25.541l-.708-.767-8.384-8.392a18.75 18.75 0 0 0-26.516 0zm-82.575 4.775A8.333 8.333 0 0 0 75 116.667h31.25a8.333 8.333 0 1 0 0-16.667H75a8.333 8.333 0 0 0-8.333 8.333zm97.308 7.009l8.183 8.183.309.338c.508.591.466 1.833-.309 2.608l-41.666 41.667-.25.216a2.083 2.083 0 0 1-1.221.396h-10.275l.004-10.267a2.083 2.083 0 0 1 .608-1.475l41.667-41.666a2.083 2.083 0 0 1 2.95 0z"/></svg>