<svg width="200" height="200" xmlns="http://www.w3.org/2000/svg"><defs><style/></defs><path d="M88.07 58.904q3.938-3.942 5.405-8.904h73.192a6.25 6.25 0 0 0 0-12.5H93.475q-1.467-4.963-5.404-8.904-6.28-6.275-15.154-6.275t-15.154 6.275q-3.938 3.946-5.405 8.904H33.333a6.25 6.25 0 0 0 0 12.5h19.025q1.467 4.963 5.404 8.904 6.28 6.275 15.155 6.275t15.154-6.275zm-6.737-23.57q3.488 3.487 3.488 8.416t-3.488 8.417q-3.483 3.487-8.416 3.487-4.93 0-8.417-3.487t-3.488-8.417q0-4.93 3.488-8.417t8.417-3.487q4.933 0 8.416 3.487zm66.309 70.916q-1.467 4.963-5.404 8.904-6.28 6.275-15.155 6.275t-15.154-6.275q-3.937-3.941-5.404-8.904H33.333a6.25 6.25 0 0 1 0-12.5h73.192q1.467-4.963 5.404-8.904 6.28-6.275 15.154-6.275t15.155 6.275q3.937 3.941 5.404 8.904h19.025a6.25 6.25 0 1 1 0 12.5h-19.025zm-8.654-6.25q0-4.93-3.488-8.417-3.483-3.487-8.417-3.487-4.929 0-8.416 3.487T115.179 100q0 4.93 3.488 8.417t8.416 3.487q4.934 0 8.417-3.487 3.488-3.488 3.488-8.417zm-45.513 62.5q-1.467 4.963-5.404 8.904-6.28 6.275-15.154 6.275t-15.154-6.275q-3.938-3.942-5.405-8.904H33.333a6.25 6.25 0 0 1 0-12.5h19.025q1.467-4.963 5.405-8.904 6.279-6.275 15.154-6.275t15.154 6.275q3.937 3.942 5.404 8.904h73.192a6.25 6.25 0 1 1 0 12.5H93.475zm-8.654-6.25q0-4.93-3.488-8.417-3.483-3.487-8.416-3.487-4.93 0-8.417 3.487t-3.488 8.417q0 4.93 3.488 8.417t8.417 3.487q4.933 0 8.416-3.487 3.488-3.488 3.488-8.417z" fill-rule="evenodd"/></svg>