<svg width="200" height="200" xmlns="http://www.w3.org/2000/svg"><defs><style/></defs><path d="M78.125 13.542h43.75a16.667 16.667 0 0 1 16.633 15.625h8.367a25 25 0 0 1 25 25V156.25a25 25 0 0 1-25 25h-93.75a25 25 0 0 1-25-25V54.167a25 25 0 0 1 25-25h8.367a16.667 16.667 0 0 1 16.633-15.625zm0 31.25h43.75a4.167 4.167 0 0 0 4.167-4.167V30.208a4.167 4.167 0 0 0-4.167-4.166h-43.75a4.167 4.167 0 0 0-4.167 4.166v10.417a4.167 4.167 0 0 0 4.167 4.167zm68.75-3.125h-8.367a16.667 16.667 0 0 1-16.633 15.625h-43.75a16.667 16.667 0 0 1-16.633-15.625h-8.367a12.5 12.5 0 0 0-12.5 12.5V156.25a12.5 12.5 0 0 0 12.5 12.5h93.75a12.5 12.5 0 0 0 12.5-12.5V54.167a12.5 12.5 0 0 0-12.5-12.5zM100 96.133l18-22.912a6.252 6.252 0 0 1 9.833 7.725L113.68 98.958h9.238a6.25 6.25 0 1 1 0 12.5H106.25v10.417h16.667a6.25 6.25 0 1 1 0 12.5H106.25v10.417a6.25 6.25 0 0 1-12.5 0v-10.417H77.083a6.25 6.25 0 0 1 0-12.5H93.75v-10.417H77.083a6.25 6.25 0 0 1 0-12.5h9.238L72.17 80.946a6.25 6.25 0 0 1 9.825-7.725L100 96.137z"/></svg>