<svg width="200" height="200" xmlns="http://www.w3.org/2000/svg"><defs><style/></defs><path d="M40.72 41.667l116.155.008a25 25 0 0 1 24.983 24.067l.017.937a25 25 0 0 1-.37 4.28l-10.147 58.324A25 25 0 0 1 146.733 150H62.65a25 25 0 0 1-24.854-22.292l-8.85-81.141a12.5 12.5 0 0 0-12.43-11.15H12.5a6.25 6.25 0 1 1 0-12.5h4.017c11.45 0 21.25 7.737 24.141 18.491l.063.259zM62.65 137.5h84.083a12.5 12.5 0 0 0 12.313-10.358l10.142-58.325a12.504 12.504 0 0 0-12.313-14.642l-114.53-.008 7.876 72.191A12.5 12.5 0 0 0 62.65 137.5zm35.267-20.833v-14.584H83.333a6.25 6.25 0 0 1 0-12.5h14.584V75a6.25 6.25 0 0 1 12.5 0v14.583H125a6.25 6.25 0 0 1 0 12.5h-14.583v14.584a6.25 6.25 0 0 1-12.5 0zm-56.25 55.208a11.458 11.458 0 1 1 22.916 0 11.458 11.458 0 0 1-22.916 0zm102.083 0a11.458 11.458 0 1 1 22.917 0 11.458 11.458 0 0 1-22.917 0z"/></svg>