<svg width="200" height="200" xmlns="http://www.w3.org/2000/svg"><defs><style/></defs><path d="M120.2 18.75a27.083 27.083 0 0 1 25.454 17.825l10.942 30.092h26.737a8.333 8.333 0 0 1 0 16.666h-4.825l-5.87 70.984a27.083 27.083 0 0 1-26.992 24.85H54.354a27.083 27.083 0 0 1-26.992-24.85l-5.866-70.984h-4.83a8.333 8.333 0 1 1 0-16.666h26.742l10.938-30.092A27.083 27.083 0 0 1 79.8 18.75h40.4zM61.142 66.667h77.716l-8.866-24.396a10.417 10.417 0 0 0-9.792-6.854H79.8a10.417 10.417 0 0 0-9.792 6.854l-8.866 24.396zM38.217 83.333l5.754 69.609a10.417 10.417 0 0 0 10.383 9.558h91.292a10.417 10.417 0 0 0 10.383-9.558l5.75-69.609H38.221zM100 95.833a8.333 8.333 0 0 1 8.333 8.334v35.416a8.333 8.333 0 1 1-16.666 0v-35.416A8.333 8.333 0 0 1 100 95.833zm31.754 1.054a8.333 8.333 0 0 1 7.813 8.825l-2.084 34.375a8.333 8.333 0 1 1-16.633-1.008l2.083-34.375a8.333 8.333 0 0 1 8.821-7.817zm-71.32 8.825a8.333 8.333 0 0 1 16.633-1.008l2.083 34.375a8.333 8.333 0 0 1-16.633 1.008l-2.084-34.374z"/></svg>