<svg width="200" height="200" xmlns="http://www.w3.org/2000/svg"><defs><style/></defs><path d="M16.517 19.792a27.092 27.092 0 0 1 25.687 18.483l.083.267 114.588.008a27.083 27.083 0 0 1 27.067 26.117l.016.97a27.06 27.06 0 0 1-.4 4.638L173.413 128.6a27.083 27.083 0 0 1-26.684 22.442H62.646a27.083 27.083 0 0 1-26.917-24.146l-8.862-81.15a10.417 10.417 0 0 0-10.35-9.288H12.5a8.333 8.333 0 1 1 0-16.666h4.017zm28.15 35.412l7.625 69.883a10.417 10.417 0 0 0 10.358 9.288h84.083a10.417 10.417 0 0 0 10.259-8.633l10.146-58.321a10.412 10.412 0 0 0-10.263-12.204l-112.208-.013zm67.833 60.421a8.333 8.333 0 1 1-16.667 0v-12.5h-12.5a8.333 8.333 0 1 1 0-16.667h12.5v-12.5a8.333 8.333 0 1 1 16.667 0v12.5H125a8.333 8.333 0 1 1 0 16.667h-12.5v12.5zm-71.875 56.25a12.5 12.5 0 1 1 25 0 12.5 12.5 0 0 1-25 0zm102.083 0a12.5 12.5 0 1 1 25 0 12.5 12.5 0 0 1-25 0z"/></svg>