<svg width="200" height="200" xmlns="http://www.w3.org/2000/svg"><defs><style/></defs><path d="M16.517 16.667c12.179 0 22.758 7.5 27.083 18.333l.158.417 113.117.008a29.167 29.167 0 0 1 29.15 28.167l.017 1c0 1.679-.146 3.35-.434 5l-10.141 58.325a29.167 29.167 0 0 1-28.738 24.166H62.646a29.167 29.167 0 0 1-28.992-26L24.8 44.925a8.333 8.333 0 0 0-8.283-7.425H12.5a10.417 10.417 0 0 1 0-20.833h4.017zm30.475 39.579l7.375 67.575a8.333 8.333 0 0 0 8.283 7.429h84.083a8.333 8.333 0 0 0 8.209-6.904l10.141-58.325a8.333 8.333 0 0 0-8.208-9.763L46.992 56.25zM53.125 187.5a13.542 13.542 0 1 0 0-27.083 13.542 13.542 0 0 0 0 27.083zm102.083 0a13.542 13.542 0 1 0 0-27.083 13.542 13.542 0 0 0 0 27.083z" fill-rule="evenodd"/></svg>