<svg width="200" height="200" xmlns="http://www.w3.org/2000/svg"><defs><style/></defs><path d="M120.2 20.833a25 25 0 0 1 23.496 16.459l11.437 31.458h28.2a6.25 6.25 0 0 1 0 12.5h-6.746l-6.024 72.892a25 25 0 0 1-24.917 22.941H54.354a25 25 0 0 1-24.917-22.941l-6.02-72.892h-6.75a6.25 6.25 0 1 1 0-12.5h28.195l11.442-31.458A25 25 0 0 1 79.8 20.833h40.4zM35.958 81.25l5.942 71.862a12.5 12.5 0 0 0 12.458 11.471h91.292a12.5 12.5 0 0 0 12.458-11.47l5.934-71.863H35.954zm95.992-39.688a12.5 12.5 0 0 0-11.746-8.229h-40.4a12.5 12.5 0 0 0-11.75 8.23L58.167 68.75h83.666l-9.883-27.188zM100 97.917a6.25 6.25 0 0 1 6.25 6.25v35.416a6.25 6.25 0 0 1-12.5 0v-35.416a6.25 6.25 0 0 1 6.25-6.25zm31.625 1.054a6.25 6.25 0 0 1 5.862 6.617l-2.083 34.375a6.25 6.25 0 0 1-12.475-.759l2.084-34.375a6.25 6.25 0 0 1 6.616-5.858zm-63.25 0a6.25 6.25 0 0 1 6.613 5.858l2.083 34.375a6.25 6.25 0 0 1-12.475.758l-2.084-34.374a6.25 6.25 0 0 1 5.259-6.555l.6-.062z"/></svg>