<svg width="200" height="200" xmlns="http://www.w3.org/2000/svg"><defs><style/></defs><path d="M43.758 35.417l113.117.008a29.167 29.167 0 0 1 29.15 28.167l.017 1c0 1.679-.146 3.35-.434 5l-10.141 58.32a29.167 29.167 0 0 1-28.738 24.171H62.646a29.167 29.167 0 0 1-28.992-26L24.8 44.925a8.333 8.333 0 0 0-8.283-7.425H12.5a10.417 10.417 0 0 1 0-20.833h4.017c12.179 0 22.758 7.5 27.083 18.333l.158.417zM62.65 131.25h84.083a8.333 8.333 0 0 0 8.209-6.904l10.141-58.325a8.333 8.333 0 0 0-8.208-9.763L46.992 56.25l7.375 67.575a8.333 8.333 0 0 0 8.283 7.43zm51.933-16.667a10.417 10.417 0 0 1-20.833 0v-10.416H83.333a10.417 10.417 0 0 1 0-20.834H93.75V72.917a10.417 10.417 0 0 1 20.833 0v10.416H125a10.417 10.417 0 0 1 0 20.834h-10.417v10.416zm-47.916 59.375a13.542 13.542 0 1 1-27.084 0 13.542 13.542 0 0 1 27.084 0zm102.083 0a13.542 13.542 0 1 1-27.083 0 13.542 13.542 0 0 1 27.083 0z"/></svg>