<svg width="200" height="200" xmlns="http://www.w3.org/2000/svg"><defs><style/></defs><path d="M25.425 149.162l12.25-104.166c.742-6.292 3.483-11.55 8.22-15.763 4.73-4.208 10.272-6.316 16.613-6.316h74.984c6.341 0 11.875 2.104 16.612 6.316 4.738 4.213 7.48 9.467 8.217 15.763l12.254 104.166c.875 7.434-1.175 13.942-6.146 19.534-4.97 5.596-11.2 8.387-18.679 8.387h-99.5c-7.48 0-13.708-2.795-18.68-8.387-4.974-5.592-7.02-12.1-6.145-19.533zM79.238 57.6a6.846 6.846 0 1 0-11.867 6.825 37.63 37.63 0 0 0 32.658 18.908 37.63 37.63 0 0 0 32.65-18.896 6.846 6.846 0 0 0-11.866-6.829 23.942 23.942 0 0 1-20.784 12.034A23.942 23.942 0 0 1 79.238 57.6z"/></svg>