<svg width="200" height="200" xmlns="http://www.w3.org/2000/svg"><defs><style/></defs><path d="M16.517 22.917c11.45 0 21.25 7.737 24.141 18.491l.063.259 116.154.008a25 25 0 0 1 24.983 24.067l.017.937a25 25 0 0 1-.37 4.28l-10.147 58.324A25 25 0 0 1 146.733 150H62.65a25 25 0 0 1-24.854-22.292l-8.85-81.141a12.5 12.5 0 0 0-12.43-11.15H12.5a6.25 6.25 0 1 1 0-12.5h4.017zm89.733 100a6.25 6.25 0 0 0 6.25-6.25v-14.584h14.583a6.25 6.25 0 0 0 0-12.5H112.5V75a6.25 6.25 0 0 0-12.5 0v14.583H85.417a6.25 6.25 0 0 0 0 12.5H100v14.584a6.25 6.25 0 0 0 6.25 6.25zm-64.583 48.958a11.458 11.458 0 1 1 22.916 0 11.458 11.458 0 0 1-22.916 0zm102.083 0a11.458 11.458 0 1 1 22.917 0 11.458 11.458 0 0 1-22.917 0z"/></svg>