<svg width="200" height="200" xmlns="http://www.w3.org/2000/svg"><defs><style/></defs><path d="M45.896 29.233c4.729-4.208 10.27-6.316 16.612-6.316h74.984c6.341 0 11.875 2.104 16.612 6.316 4.738 4.213 7.48 9.467 8.217 15.763l12.254 104.166c.875 7.434-1.175 13.942-6.146 19.534-4.97 5.596-11.2 8.387-18.679 8.387h-99.5c-7.48 0-13.708-2.795-18.68-8.387-4.974-5.592-7.02-12.1-6.145-19.533l12.25-104.167c.742-6.292 3.483-11.55 8.22-15.763zm4.354 135.35h99.5c3.737 0 6.854-1.4 9.338-4.196 2.487-2.791 3.512-6.05 3.075-9.762L149.907 46.458a12.108 12.108 0 0 0-4.108-7.883 12.104 12.104 0 0 0-8.308-3.158H62.508c-3.17 0-5.941 1.054-8.308 3.158a12.104 12.104 0 0 0-4.108 7.88L37.837 150.62a11.98 11.98 0 0 0 3.075 9.766 11.98 11.98 0 0 0 9.338 4.196zM100.025 68.3a21.863 21.863 0 0 0 18.98-10.992 6.25 6.25 0 0 1 10.833 6.234A34.358 34.358 0 0 1 100.025 80.8a34.358 34.358 0 0 1-29.817-17.267 6.25 6.25 0 0 1 10.834-6.229A21.863 21.863 0 0 0 100.025 68.3z"/></svg>