<svg width="200" height="200" xmlns="http://www.w3.org/2000/svg"><defs><style/></defs><path d="M120.2 16.667a29.167 29.167 0 0 1 27.412 19.2l10.442 28.716h25.28a10.417 10.417 0 0 1 0 20.834h-2.909l-5.708 69.07a29.167 29.167 0 0 1-29.071 26.763H54.354a29.167 29.167 0 0 1-29.066-26.763l-5.709-69.07h-2.912a10.417 10.417 0 1 1 0-20.834h25.279l10.441-28.716a29.167 29.167 0 0 1 27.413-19.2h40.4zM64.117 64.583h71.77l-7.854-21.6A8.333 8.333 0 0 0 120.2 37.5H79.8a8.333 8.333 0 0 0-7.833 5.483l-7.855 21.6zM40.479 85.417l5.571 67.354a8.333 8.333 0 0 0 8.304 7.646h91.292a8.333 8.333 0 0 0 8.304-7.646l5.57-67.354H40.48zM100 93.75a10.417 10.417 0 0 1 10.417 10.417v35.416a10.417 10.417 0 0 1-20.834 0v-35.416A10.417 10.417 0 0 1 100 93.75zm31.88 1.058a10.417 10.417 0 0 1 9.766 11.03l-2.083 34.374a10.417 10.417 0 1 1-20.792-1.262l2.083-34.375a10.417 10.417 0 0 1 11.025-9.767zm-73.526 11.03a10.417 10.417 0 0 1 20.792-1.259l2.083 34.375a10.417 10.417 0 0 1-20.791 1.258l-2.084-34.374z"/></svg>