<svg width="200" height="200" xmlns="http://www.w3.org/2000/svg"><defs><style/></defs><path d="M105.825 7.992c14.917 2.796 25.267 18.012 26.45 39.346a77.796 77.796 0 0 1-.45 13.491l-.225 1.667 31.762.004a29.167 29.167 0 0 1 29.15 28.167l.017 1a29.167 29.167 0 0 1-.908 7.216l-14.225 55.709a35.417 35.417 0 0 1-34.313 26.658h-97.25a29.167 29.167 0 0 1-29.166-29.167v-56.25a29.167 29.167 0 0 1 29.166-29.166h12.5c2.592 0 7.021-2.238 10.688-6.38 5.033-5.691 8.062-14.012 8.062-24.87l.013-1.009C77.575 17 90.362 5.092 105.825 7.992zm-7.908 27.425l-.013 1.437c-.47 23.246-12.308 41.254-27.07 47.884v75.679h72.25a14.583 14.583 0 0 0 14.124-10.975l14.23-55.713a8.333 8.333 0 0 0-8.08-10.396h-39.295a14.583 14.583 0 0 1-14.167-17.8l.417-1.991c1.041-5.28 1.42-10.292 1.158-15.046-.7-12.613-5.196-19.221-9.488-20.03-2.195-.412-4.07 1.384-4.07 6.95zM50 87.5h-4.167a8.333 8.333 0 0 0-8.333 8.333v56.25a8.333 8.333 0 0 0 8.333 8.334H50V87.5z"/></svg>