<svg width="200" height="200" xmlns="http://www.w3.org/2000/svg"><defs><style/></defs><path d="M30.238 30.238c4.887-4.88 10.775-7.321 17.679-7.321h104.166c6.904 0 12.796 2.441 17.68 7.32 4.879 4.888 7.32 10.776 7.32 17.68v104.166c0 6.904-2.441 12.796-7.32 17.68-4.888 4.879-10.776 7.32-17.68 7.32H47.917c-6.905 0-12.796-2.441-17.68-7.32-4.879-4.888-7.32-10.776-7.32-17.68V47.917c0-6.905 2.441-12.796 7.32-17.68zm17.679 134.345h104.166a12.042 12.042 0 0 0 8.838-3.662 12.042 12.042 0 0 0 3.662-8.838V47.917a12.042 12.042 0 0 0-3.662-8.838 12.042 12.042 0 0 0-8.838-3.662H47.917a12.042 12.042 0 0 0-8.838 3.662 12.042 12.042 0 0 0-3.662 8.838v104.166c0 3.45 1.22 6.396 3.662 8.838a12.042 12.042 0 0 0 8.838 3.662zm9.05-107.616a16.058 16.058 0 0 1 11.783-4.884h62.5c4.604 0 8.53 1.625 11.783 4.884a16.058 16.058 0 0 1 4.884 11.783v62.5c0 4.604-1.625 8.53-4.884 11.783a16.058 16.058 0 0 1-11.783 4.884h-62.5a16.058 16.058 0 0 1-11.783-4.884 16.058 16.058 0 0 1-4.884-11.783v-62.5c0-4.604 1.625-8.53 4.884-11.783zm11.783 78.45h62.5a4.013 4.013 0 0 0 2.946-1.221 4.013 4.013 0 0 0 1.22-2.946v-62.5a4.013 4.013 0 0 0-1.22-2.946 4.013 4.013 0 0 0-2.946-1.22h-62.5a4.013 4.013 0 0 0-2.946 1.22 4.013 4.013 0 0 0-1.22 2.946v62.5c0 1.15.408 2.133 1.22 2.946a4.013 4.013 0 0 0 2.946 1.22z"/></svg>