<svg width="200" height="200" xmlns="http://www.w3.org/2000/svg"><defs><style/></defs><path d="M183.333 100c0 10.596-1.95 20.82-5.85 30.675a82.475 82.475 0 0 1-18.558 28.25 82.475 82.475 0 0 1-28.25 18.558 82.604 82.604 0 0 1-30.675 5.85c-10.596 0-20.82-1.95-30.675-5.85a82.475 82.475 0 0 1-28.25-18.558 82.475 82.475 0 0 1-18.558-28.25A82.6 82.6 0 0 1 16.667 100c0-10.596 1.95-20.82 5.85-30.675a82.48 82.48 0 0 1 18.558-28.25 82.48 82.48 0 0 1 28.25-18.558A82.604 82.604 0 0 1 100 16.667c10.596 0 20.82 1.95 30.675 5.85a82.475 82.475 0 0 1 28.25 18.558 82.475 82.475 0 0 1 18.558 28.25 82.604 82.604 0 0 1 5.85 30.675zM72.167 70.53L86.32 88.541h-9.238a6.25 6.25 0 1 0 0 12.5H93.75v10.416H77.083a6.25 6.25 0 1 0 0 12.5H93.75v10.417a6.25 6.25 0 1 0 12.5 0v-10.417h16.667a6.25 6.25 0 0 0 0-12.5H106.25v-10.416h16.667a6.25 6.25 0 0 0 0-12.5h-9.238l14.15-18.013a6.25 6.25 0 1 0-9.825-7.725l-18 22.917-18.008-22.917a6.25 6.25 0 0 0-9.825 7.725z"/></svg>