<svg width="200" height="200" xmlns="http://www.w3.org/2000/svg"><defs><style/></defs><path d="M167.642 44.492l.72.904.888-2.75a10.417 10.417 0 0 1 12.446-6.917l.662.188a10.417 10.417 0 0 1 6.725 13.104l-7.933 24.666c-2.967 9.226-15.825 9.75-19.537.796a66.775 66.775 0 0 0-14.471-21.625A66.412 66.412 0 0 0 100 33.333c-36.82 0-66.667 29.846-66.667 66.667S63.18 166.667 100 166.667a66.417 66.417 0 0 0 47.3-19.688 66.775 66.775 0 0 0 14.375-21.608c1.646-4 2.9-8.163 3.737-12.433a10.418 10.418 0 0 1 20.446 4.016 86.904 86.904 0 0 1-4.92 16.35 87.596 87.596 0 0 1-18.859 28.358A87.246 87.246 0 0 1 100 187.5c-48.325 0-87.5-39.175-87.5-87.5S51.675 12.5 100 12.5c23.513 0 45.575 9.333 61.875 25.625a90.54 90.54 0 0 1 5.767 6.367zM100 77.929l14.725-18.742a10.419 10.419 0 0 1 16.383 12.876l-8.858 11.27h.667a10.417 10.417 0 0 1 0 20.834h-12.5v6.25h12.5a10.417 10.417 0 0 1 0 20.833h-12.5v7.292a10.417 10.417 0 0 1-20.834 0v-7.292h-12.5a10.417 10.417 0 0 1 0-20.833h12.5v-6.25h-12.5a10.417 10.417 0 0 1 0-20.834h.667l-8.858-11.27a10.419 10.419 0 0 1 16.383-12.875L100 77.929z"/></svg>