<svg width="200" height="200" xmlns="http://www.w3.org/2000/svg"><defs><style/></defs><path d="M168.683 52.792l1.134 1.7 3.4-10.571a6.25 6.25 0 0 1 7.283-4.196l.583.158a6.25 6.25 0 0 1 4.034 7.863l-7.934 24.662c-1.779 5.538-9.496 5.854-11.72.48a70.938 70.938 0 0 0-15.376-22.976A70.58 70.58 0 0 0 100 29.168c-39.12 0-70.833 31.712-70.833 70.833S60.879 170.833 100 170.833a70.583 70.583 0 0 0 50.254-20.916 70.933 70.933 0 0 0 15.271-22.959 70.655 70.655 0 0 0 3.98-13.216 6.25 6.25 0 0 1 12.262 2.408 82.742 82.742 0 0 1-4.684 15.567 83.43 83.43 0 0 1-17.958 27.008A83.08 83.08 0 0 1 100 183.333c-46.025 0-83.333-37.308-83.333-83.333S53.975 16.667 100 16.667a83.075 83.075 0 0 1 58.925 24.408 83.752 83.752 0 0 1 9.758 11.72zM100 85.72l18-22.913a6.252 6.252 0 0 1 9.833 7.725L113.68 88.546h9.238a6.25 6.25 0 0 1 0 12.5H106.25v10.417h16.667a6.25 6.25 0 0 1 0 12.5H106.25v10.416a6.25 6.25 0 0 1-12.5 0v-10.416H77.083a6.25 6.25 0 0 1 0-12.5H93.75v-10.417H77.083a6.25 6.25 0 0 1 0-12.5h9.238L72.17 70.533a6.25 6.25 0 0 1 9.825-7.725L100 85.725z"/></svg>