<svg width="200" height="200" xmlns="http://www.w3.org/2000/svg"><defs><style/></defs><path d="M183.333 52.083v95.834a29.167 29.167 0 0 1-29.166 29.166H45.833a29.167 29.167 0 0 1-29.166-29.166V52.083a29.167 29.167 0 0 1 29.166-29.166h108.334a29.167 29.167 0 0 1 29.166 29.166zM162.5 60.417v-8.334a8.333 8.333 0 0 0-8.333-8.333H45.833a8.333 8.333 0 0 0-8.333 8.333v95.834a8.333 8.333 0 0 0 8.333 8.333h108.334a8.333 8.333 0 0 0 8.333-8.333v-8.334h-35.417a39.583 39.583 0 0 1 0-79.166H162.5zm0 20.833h-35.417a18.75 18.75 0 1 0 0 37.5H162.5v-37.5zM141.667 100a11.458 11.458 0 1 1-22.917 0 11.458 11.458 0 0 1 22.917 0z"/></svg>