<svg width="200" height="200" xmlns="http://www.w3.org/2000/svg"><defs><style/></defs><path d="M106.25 18.75a6.25 6.25 0 0 0-12.5 0v6.57c-30.433 3.126-54.167 28.838-54.167 60.097v29.166c0 9.096-3.85 18.759-11.787 29.042a10.417 10.417 0 0 0 8.233 16.792h34.992C71.02 175.5 84.112 187.5 100 187.5s28.98-12 28.98-27.083h34.983a10.425 10.425 0 0 0 8.237-16.792c-7.937-10.283-11.783-19.946-11.783-29.042V85.417c0-31.259-23.738-56.971-54.167-60.096V18.75zm10.23 141.667c0 7.929-7.263 14.583-16.48 14.583s-16.48-6.654-16.48-14.583h32.96zM100 37.5c26.467 0 47.917 21.454 47.917 47.917v29.166l.025 1.455c.325 10.179 4.087 20.458 11.141 30.791l.755 1.083H40.158l.763-1.083c7.387-10.829 11.167-21.587 11.167-32.246V85.417C52.083 58.954 73.533 37.5 100 37.5z"/></svg>