<svg width="200" height="200" xmlns="http://www.w3.org/2000/svg"><defs><style/></defs><path d="M89.583 20.833a10.417 10.417 0 0 1 20.834 0v2.946c29.558 4.959 52.083 30.667 52.083 61.638v29.166c0 8.596 3.675 17.83 11.346 27.767a12.504 12.504 0 0 1-9.883 20.15h-32.98c-1.137 15.28-14.716 27.083-30.983 27.083S70.154 177.78 69.017 162.5H36.029a12.5 12.5 0 0 1-9.879-20.146c7.67-9.937 11.35-19.175 11.35-27.77V85.416c0-30.967 22.52-56.675 52.083-61.638v-2.946zM85.808 162.5c1.138 5.8 6.938 10.417 14.192 10.417 7.25 0 13.054-4.621 14.192-10.417H85.808zM100 39.583c-25.313 0-45.833 20.521-45.833 45.834v29.166c0 10.092-3.234 20.221-9.525 30.35l-.575.9h111.862l-.57-.895c-5.98-9.625-9.197-19.25-9.5-28.842l-.026-1.513V85.417c0-25.313-20.52-45.834-45.833-45.834z"/></svg>