<svg width="200" height="200" xmlns="http://www.w3.org/2000/svg"><defs><style/></defs><path d="M181.25 52.083v95.834A27.083 27.083 0 0 1 154.167 175H45.833a27.083 27.083 0 0 1-27.083-27.083V52.083A27.083 27.083 0 0 1 45.833 25h108.334a27.083 27.083 0 0 1 27.083 27.083zM45.833 41.667a10.417 10.417 0 0 0-10.416 10.416v12.5h129.166v-12.5a10.417 10.417 0 0 0-10.416-10.416H45.833zM35.417 81.25v66.667a10.417 10.417 0 0 0 10.416 10.416h108.334a10.417 10.417 0 0 0 10.416-10.416V81.25H35.417zm22.916 62.5a8.333 8.333 0 1 1 0-16.667h33.334a8.333 8.333 0 1 1 0 16.667H58.333z"/></svg>