<svg width="200" height="200" xmlns="http://www.w3.org/2000/svg"><defs><style/></defs><path d="M164.096 158.208L43.3 37.404a6.25 6.25 0 0 0-8.842 8.838l31.613 31.612c-3.058 5.034-4.592 10.704-4.592 17.004 0 9.175 3.246 17 9.73 23.492a32.78 32.78 0 0 0 12.983 8.02l2.791.934a6.25 6.25 0 1 0 3.959-11.854l-2.796-.933a20.446 20.446 0 0 1-8.096-5.009c-4.046-4.041-6.07-8.929-6.07-14.65 0-2.754.47-5.316 1.408-7.687l40.095 40.096-32.404 32.408c-5.696 5.696-12.57 8.542-20.625 8.542-8.054 0-14.929-2.846-20.625-8.542s-8.541-12.57-8.541-20.625c0-8.054 2.845-14.925 8.541-20.625l4.417-4.417a6.25 6.25 0 1 0-8.833-8.837l-4.421 4.416a41.22 41.22 0 0 0-9.154 13.792 41.33 41.33 0 0 0-3.05 15.671 41.333 41.333 0 0 0 3.05 15.68 41.208 41.208 0 0 0 9.154 13.787 41.208 41.208 0 0 0 13.787 9.15 41.333 41.333 0 0 0 15.675 3.05 41.333 41.333 0 0 0 15.675-3.05 41.22 41.22 0 0 0 13.788-9.15l32.408-32.409 30.933 30.934a6.25 6.25 0 0 0 8.838-8.842zM83.075 59.504l8.838 8.842 26.52-26.521c5.696-5.696 12.567-8.542 20.625-8.542 8.05 0 14.925 2.846 20.625 8.542 5.692 5.696 8.542 12.57 8.542 20.625 0 8.054-2.85 14.93-8.542 20.625l-4.42 4.417a6.25 6.25 0 1 0 8.833 8.841l4.425-4.42a41.22 41.22 0 0 0 9.15-13.788 41.333 41.333 0 0 0 3.05-15.675 41.33 41.33 0 0 0-3.05-15.675 41.233 41.233 0 0 0-9.154-13.787 41.233 41.233 0 0 0-13.784-9.155 41.333 41.333 0 0 0-15.679-3.05 41.33 41.33 0 0 0-15.675 3.05 41.22 41.22 0 0 0-13.787 9.155L83.075 59.504zm44.28 44.288l11.59 11.596c.726-2.763 1.084-5.676 1.084-8.738 0-9.17-3.241-17-9.729-23.483a32.775 32.775 0 0 0-12.987-8.03l-2.796-.929a6.25 6.25 0 1 0-3.954 11.859l2.8.933a20.435 20.435 0 0 1 8.1 5c3.354 3.358 5.316 7.288 5.891 11.792z"/></svg>