<svg width="200" height="200" xmlns="http://www.w3.org/2000/svg"><defs><style/></defs><path d="M147.917 82.6c3.441 1.196 6.558 3.188 9.346 5.97 4.879 4.888 7.32 10.776 7.32 17.68v45.833c0 6.904-2.441 12.796-7.32 17.68-4.888 4.879-10.776 7.32-17.68 7.32H60.417c-6.904 0-12.796-2.441-17.68-7.32-4.879-4.888-7.32-10.776-7.32-17.68V106.25c0-6.904 2.441-12.796 7.32-17.68 2.788-2.783 5.9-4.774 9.346-5.97V64.583c0-6.5 1.255-12.712 3.767-18.654A47.53 47.53 0 0 1 66.117 30.7a47.53 47.53 0 0 1 15.229-10.267A47.404 47.404 0 0 1 100 16.667c6.5 0 12.713 1.254 18.654 3.766a47.53 47.53 0 0 1 15.23 10.267 47.542 47.542 0 0 1 10.266 15.23c2.513 5.94 3.767 12.157 3.767 18.653V82.6zm-12.5-1.35V64.583c0-9.779-3.459-18.125-10.375-25.041-6.917-6.917-15.263-10.375-25.042-10.375s-18.125 3.458-25.042 10.375c-6.916 6.916-10.375 15.262-10.375 25.041V81.25h70.834zm-87.5 70.833c0 3.45 1.22 6.4 3.662 8.838a12.042 12.042 0 0 0 8.838 3.662h79.166a12.042 12.042 0 0 0 8.838-3.662 12.042 12.042 0 0 0 3.662-8.838V106.25a12.042 12.042 0 0 0-3.662-8.837 12.042 12.042 0 0 0-8.838-3.663H60.417a12.042 12.042 0 0 0-8.838 3.663 12.042 12.042 0 0 0-3.662 8.837v45.833zm58.333-33.333v20.833a6.25 6.25 0 0 1-12.5 0V118.75a6.25 6.25 0 0 1 12.5 0z"/></svg>