<svg width="200" height="200" xmlns="http://www.w3.org/2000/svg"><defs><style/></defs><path d="M55.85 45.93A47.53 47.53 0 0 1 66.117 30.7a47.53 47.53 0 0 1 15.229-10.267A47.404 47.404 0 0 1 100 16.667c6.5 0 12.712 1.254 18.654 3.766a47.53 47.53 0 0 1 15.23 10.267 47.538 47.538 0 0 1 10.266 15.23 47.5 47.5 0 0 1 2.792 8.99v.01a6.25 6.25 0 0 1-12.246 2.508v-.005a35.138 35.138 0 0 0-9.654-17.891c-6.917-6.917-15.263-10.375-25.042-10.375s-18.125 3.458-25.042 10.375c-6.916 6.916-10.375 15.262-10.375 25.041v20.834h75c6.904 0 12.796 2.441 17.68 7.32 4.879 4.888 7.32 10.776 7.32 17.68v41.666c0 6.905-2.441 12.796-7.32 17.68-4.888 4.879-10.776 7.32-17.68 7.32H60.417c-6.905 0-12.796-2.441-17.68-7.32-4.879-4.888-7.32-10.776-7.32-17.68v-41.666c0-6.904 2.441-12.796 7.32-17.68 2.825-2.82 5.984-4.824 9.484-6.016a6.28 6.28 0 0 1-.138-1.304V64.583c0-6.5 1.254-12.712 3.767-18.654zm37.9 97.82a6.25 6.25 0 0 0 12.5 0v-25a6.25 6.25 0 0 0-12.5 0v25z"/></svg>