<svg width="200" height="200" xmlns="http://www.w3.org/2000/svg"><defs><style/></defs><path d="M126.55 21.142l-13.112 51.091a4.167 4.167 0 0 0 4.041 5.2h30.625q5.125 0 9.288 2.796 3.866 2.6 5.846 6.888 1.975 4.283 1.441 8.912-.579 4.975-3.908 8.867L89.52 188.2q-2.542 2.97-6.304 3.55-3.384.52-6.467-1.1-3.08-1.625-4.567-4.704-1.65-3.425-.637-7.2l14.62-54.446a4.167 4.167 0 0 0-4.024-5.246H51.896q-5.146 0-9.313-2.812-3.875-2.617-5.845-6.925-1.967-4.309-1.405-8.95.609-4.988 3.98-8.875l69.287-79.75q2.542-2.93 6.275-3.492 3.363-.508 6.425 1.092 3.063 1.604 4.554 4.658 1.659 3.392.696 7.142zM99.333 76.933L112.25 26.58l-63.5 73.1q-1.758 2.021-.646 4.458 1.113 2.43 3.792 2.43h38.387q5.138 0 8.267 4.075 3.125 4.07 1.792 9.029L86 173.096l65.27-76.304q1.734-2.025.618-4.446t-3.784-2.421h-38.683q-5.1 0-8.23-4.025-3.124-4.03-1.858-8.963z" fill-rule="evenodd"/></svg>