<svg width="200" height="200" xmlns="http://www.w3.org/2000/svg"><defs><style/></defs><path d="M93.75 116.667q0-5.671 2.696-11.68 2.596-5.783 6.912-10.166 1.192-1.208 3.834-3.68 6.004-5.608 8.275-8.729 3.283-4.516 3.283-8.604 0-6.996-4.446-11.929Q109.225 56.25 100 56.25q-8.62 0-14.125 6.663-2.27 2.741-3.55 6.07-1.075 2.792-1.075 4.825a6.25 6.25 0 0 1-12.5 0q0-4.354 1.904-9.308 2.013-5.237 5.583-9.554Q85.5 43.75 100 43.75q14.787 0 23.583 9.762 7.667 8.5 7.667 20.296 0 8.15-5.675 15.959-2.97 4.083-9.85 10.512-2.45 2.292-3.458 3.313-2.742 2.783-4.417 6.516-1.6 3.563-1.6 6.559a6.25 6.25 0 0 1-12.5 0zM100 150a8.333 8.333 0 1 0 0-16.667A8.333 8.333 0 0 0 100 150z" fill-rule="evenodd"/></svg>