<svg width="200" height="200" xmlns="http://www.w3.org/2000/svg"><defs><style/></defs><path d="M100 14.583c47.175 0 85.417 38.242 85.417 85.417S147.175 185.417 100 185.417 14.583 147.175 14.583 100 52.825 14.583 100 14.583zm0 16.667c-37.97 0-68.75 30.78-68.75 68.75s30.78 68.75 68.75 68.75 68.75-30.78 68.75-68.75S137.97 31.25 100 31.25zm0 93.75a10.417 10.417 0 1 1 0 20.833A10.417 10.417 0 0 1 100 125zm.52-72.917c16.5 0 28.647 10.292 28.647 25 0 8.842-3.25 13.98-10.454 19.875l-.959.775-2.346 1.813c-4.475 3.446-6.233 5.441-6.916 8.525l-.125.629-.096.667a8.335 8.335 0 0 1-16.542-2.067c1.071-8.558 4.584-13.687 11.53-19.387l.966-.78 2.4-1.858c4.833-3.717 5.875-5.138 5.875-8.192 0-4.833-4.125-8.333-11.98-8.333-7.262 0-11.666 3.946-13.27 10.354a8.333 8.333 0 1 1-16.167-4.041c3.354-13.426 14.025-22.98 29.438-22.98z"/></svg>