<svg width="200" height="200" xmlns="http://www.w3.org/2000/svg"><defs><style/></defs><path d="M93.75 127.083q0-7.041 3.43-14.562 3.316-7.271 8.816-12.775 1.558-1.558 5.05-4.767 8.15-7.491 11.291-11.741 4.746-6.434 4.746-12.405 0-9.904-6.433-16.929-7.392-8.07-20.65-8.07-12.504 0-20.475 9.487-3.23 3.846-5.05 8.508-1.558 3.988-1.558 7.004a6.25 6.25 0 1 1-12.5 0q0-5.37 2.416-11.55 2.567-6.579 7.121-12 5.292-6.304 12.358-9.862 8.105-4.088 17.688-4.088 18.758 0 29.87 12.13 4.813 5.258 7.342 12.112 2.371 6.433 2.371 13.258 0 10.088-7.196 19.83-3.85 5.212-12.879 13.516-3.3 3.034-4.67 4.409-3.909 3.904-6.288 9.125-2.3 5.041-2.3 9.37a6.25 6.25 0 0 1-12.5 0zm6.25 33.334a8.333 8.333 0 1 0 0-16.667 8.333 8.333 0 0 0 0 16.667z" fill-rule="evenodd"/></svg>