<svg width="200" height="200" xmlns="http://www.w3.org/2000/svg"><defs><style/></defs><path d="M178.204 32.467a10.417 10.417 0 0 1-14.754 14.708 89.712 89.712 0 0 0-29.858-19.833 10.417 10.417 0 0 1 7.816-19.313A110.55 110.55 0 0 1 178.2 32.467zM66.4 27.342a89.712 89.712 0 0 0-29.867 19.85 10.417 10.417 0 1 1-14.758-14.7A110.55 110.55 0 0 1 58.579 8.033 10.418 10.418 0 0 1 66.4 27.346zm-49.733 83.075c0-46.025 37.308-83.334 83.333-83.334s83.333 37.309 83.333 83.334S146.025 193.75 100 193.75s-83.333-37.308-83.333-83.333zm83.333 62.5c34.517 0 62.5-27.984 62.5-62.5 0-34.517-27.983-62.5-62.5-62.5-34.517 0-62.5 27.983-62.5 62.5 0 34.516 27.983 62.5 62.5 62.5zm12.3-87.246L100.838 100h19.995c8.505 0 13.334 9.575 8.542 16.375l-.408.546-25 31.25A10.417 10.417 0 0 1 87.7 135.158l11.454-14.325H79.167c-8.504 0-13.334-9.583-8.542-16.379l.408-.546 25-31.25A10.417 10.417 0 0 1 112.3 85.671z"/></svg>