<svg width="200" height="200" xmlns="http://www.w3.org/2000/svg"><defs><style/></defs><path d="M176.73 33.938a8.334 8.334 0 0 1-11.805 11.766 91.8 91.8 0 0 0-30.55-20.291 8.333 8.333 0 0 1 6.25-15.45 108.467 108.467 0 0 1 36.104 23.974zM65.616 25.416a91.796 91.796 0 0 0-30.559 20.312A8.336 8.336 0 0 1 23.25 33.96a108.462 108.462 0 0 1 36.112-24 8.338 8.338 0 0 1 6.255 15.458zM18.75 108.333c0-44.875 36.375-81.25 81.25-81.25s81.25 36.375 81.25 81.25-36.375 81.25-81.25 81.25-81.25-36.375-81.25-81.25zM100 172.917c35.667 0 64.583-28.917 64.583-64.584 0-35.666-28.916-64.583-64.583-64.583s-64.583 28.917-64.583 64.583c0 35.667 28.916 64.584 64.583 64.584zm10.675-90.625L96.5 100h24.333c6.775 0 10.634 7.6 6.884 13.037l-.375.5-25 31.25a8.333 8.333 0 1 1-13.017-10.408l14.167-17.712H79.167c-6.775 0-10.634-7.6-6.884-13.038l.375-.5 25-31.25a8.333 8.333 0 0 1 13.017 10.408z"/></svg>