<svg width="200" height="200" xmlns="http://www.w3.org/2000/svg"><defs><style/></defs><path d="M175.25 35.408a6.25 6.25 0 1 1-8.85 8.825 93.875 93.875 0 0 0-31.246-20.754 6.25 6.25 0 1 1 4.692-11.583 106.375 106.375 0 0 1 35.404 23.512zM64.833 23.483a93.88 93.88 0 0 0-31.25 20.771 6.25 6.25 0 1 1-8.858-8.82 106.38 106.38 0 0 1 35.417-23.538 6.25 6.25 0 1 1 4.696 11.583zm-44 84.85c0-43.72 35.446-79.166 79.167-79.166s79.167 35.445 79.167 79.166S143.72 187.5 100 187.5s-79.167-35.446-79.167-79.167zM100 175c36.82 0 66.667-29.846 66.667-66.667S136.82 41.667 100 41.667s-66.667 29.846-66.667 66.666S63.18 175 100 175zm9.046-94.013L92.17 102.084h28.662c5.055 0 7.942 5.638 5.209 9.709l-.33.445-25 31.25a6.25 6.25 0 0 1-9.758-7.808l16.871-21.096H79.167c-5.055 0-7.942-5.637-5.209-9.708l.33-.446 25-31.25a6.25 6.25 0 1 1 9.758 7.809z"/></svg>