<svg width="200" height="200" xmlns="http://www.w3.org/2000/svg"><defs><style/></defs><path d="M16.667 100c0-46.025 37.308-83.333 83.333-83.333S183.333 53.975 183.333 100 146.025 183.333 100 183.333 16.667 146.025 16.667 100zM62.5 79.167V87.5a8.333 8.333 0 1 0 16.667 0v-8.333a8.333 8.333 0 1 0-16.667 0zm66.667 16.666A8.333 8.333 0 0 0 137.5 87.5v-8.333a8.333 8.333 0 1 0-16.667 0V87.5a8.333 8.333 0 0 0 8.334 8.333zM73.992 140.1a6.25 6.25 0 0 0 8.82-.546A22.842 22.842 0 0 1 100 131.792a22.83 22.83 0 0 1 17.18 7.75 6.25 6.25 0 1 0 9.366-8.275 35.337 35.337 0 0 0-26.542-11.975 35.337 35.337 0 0 0-26.558 11.983 6.25 6.25 0 0 0 .546 8.82z"/></svg>