<svg width="200" height="200" xmlns="http://www.w3.org/2000/svg"><defs><style/></defs><path d="M183.333 100c0 46.025-37.308 83.333-83.333 83.333S16.667 146.025 16.667 100 53.975 16.667 100 16.667 183.333 53.975 183.333 100zM100 29.167c-39.12 0-70.833 31.712-70.833 70.833S60.879 170.833 100 170.833s70.833-31.712 70.833-70.833S139.121 29.167 100 29.167zM80.208 87.5a7.292 7.292 0 1 1-14.583 0V77.083a7.292 7.292 0 1 1 14.583 0V87.5zm54.167 0a7.292 7.292 0 1 1-14.583 0V77.083a7.292 7.292 0 1 1 14.583 0V87.5zm-51.567 47.883a6.25 6.25 0 1 1-9.366-8.27 35.337 35.337 0 0 1 26.554-11.984 35.337 35.337 0 0 1 26.546 11.971 6.25 6.25 0 1 1-9.367 8.28A22.842 22.842 0 0 0 100 127.624a22.852 22.852 0 0 0-17.188 7.754z"/></svg>