<svg width="200" height="200" xmlns="http://www.w3.org/2000/svg"><defs><style/></defs><path d="M25 31.25a6.25 6.25 0 1 1 12.5 0V150c0 3.45 1.22 6.396 3.662 8.838A12.042 12.042 0 0 0 50 162.5h118.75a6.25 6.25 0 0 1 0 12.5H50c-6.904 0-12.796-2.442-17.68-7.32C27.443 162.791 25 156.903 25 150V31.25zm143.75 110.417a6.25 6.25 0 0 1-6.25 6.25H58.333a6.25 6.25 0 0 1-6.25-6.25v-21.134c0-3.637.734-6.996 2.2-10.07C61 96.378 69.475 87.707 79.7 84.441c4.158-1.33 8.846-1.85 14.067-1.571 2.92.158 7.241.729 12.962 1.708 6.083 1.046 10.575 1.6 13.48 1.667 4.466.091 8.416-.6 11.837-2.08 9.166-3.958 17.396-14.758 24.679-32.387a6.25 6.25 0 0 1 12.025 2.388v87.5z"/></svg>