<svg width="200" height="200" xmlns="http://www.w3.org/2000/svg"><defs><style/></defs><path d="M104.167 102.083h60.875c5.066 0 9.208 1.896 12.425 5.688 3.404 4.017 4.437 8.554 3.095 13.617a82.43 82.43 0 0 1-11.141 24.729 83.204 83.204 0 0 1-18.192 19.616 82.625 82.625 0 0 1-23.675 12.934A82.763 82.763 0 0 1 100 183.333c-11.3 0-22.112-2.183-32.437-6.55a82.667 82.667 0 0 1-26.488-17.858 82.667 82.667 0 0 1-17.858-26.488A82.438 82.438 0 0 1 16.667 100c0-9.72 1.629-19.117 4.887-28.188a82.642 82.642 0 0 1 13.53-24.062 83.142 83.142 0 0 1 20.454-18.238 82.346 82.346 0 0 1 25.7-10.72c5.012-1.155 9.458-.017 13.325 3.404 3.633 3.208 5.45 7.3 5.45 12.258L100 97.917c0 1.15.408 2.133 1.22 2.945a4.017 4.017 0 0 0 2.947 1.221zm8.333-18.75V28.767c0-3.609 1.47-6.442 4.408-8.496 3.042-2.125 6.271-2.475 9.7-1.05a103.533 103.533 0 0 1 33.688 22.512 101.992 101.992 0 0 1 22.587 33.73c1.4 3.404 1.059 6.625-1.033 9.658-2.046 2.975-4.883 4.462-8.5 4.462h-54.6a6.25 6.25 0 0 1-6.25-6.25z"/></svg>