<svg width="200" height="200" xmlns="http://www.w3.org/2000/svg"><defs><style/></defs><path d="M33.47 54.43L82.284 17.1a29.167 29.167 0 0 1 35.434 0l48.812 37.33a37.5 37.5 0 0 1 14.721 29.79v67.863a29.167 29.167 0 0 1-29.167 29.167H131.25a20.833 20.833 0 0 1-20.833-20.833v-27.084a10.417 10.417 0 0 0-20.834 0v27.084A20.833 20.833 0 0 1 68.75 181.25H47.917a29.167 29.167 0 0 1-29.167-29.167V84.217a37.5 37.5 0 0 1 14.72-29.792zm120.405 16.55l-48.812-37.33a8.333 8.333 0 0 0-10.125 0L46.125 70.98a16.667 16.667 0 0 0-6.542 13.237v67.866a8.333 8.333 0 0 0 8.334 8.334H68.75v-27.084a31.25 31.25 0 0 1 62.5 0v27.084h20.833a8.333 8.333 0 0 0 8.334-8.334V84.217a16.667 16.667 0 0 0-6.542-13.238z"/></svg>