<svg width="200" height="200" xmlns="http://www.w3.org/2000/svg"><defs><style/></defs><path d="M171.192 150.475c.195.2.404.383.616.558l6.392 6.392a10.418 10.418 0 0 1-14.733 14.733l-15.013-15.016a82.03 82.03 0 0 1-38.037 15.12V187.5a10.417 10.417 0 0 1-20.834 0v-15.238c-36.75-4.658-66.32-33.625-71.179-70.912a10.417 10.417 0 1 1 20.659-2.692c3.958 30.404 29.979 53.425 60.937 53.425a61.283 61.283 0 0 0 33.48-9.916l-9.084-9.084a48.733 48.733 0 0 1-24.396 6.5c-27.042 0-48.958-21.916-48.958-48.958V59.733L25.967 34.658A10.417 10.417 0 0 1 40.013 19.3l131.179 131.175zm-13.917-37.488a61.17 61.17 0 0 0 3.667-14.341 10.417 10.417 0 1 1 20.658 2.687 81.796 81.796 0 0 1-8.617 27.363l-15.708-15.709zm-29.15-29.145v-32.8a28.125 28.125 0 0 0-50.208-17.417L63.125 18.837A48.842 48.842 0 0 1 100 2.083c27.042 0 48.958 21.917 48.958 48.959v39.583a49.042 49.042 0 0 1-1.596 12.45l-19.237-19.233zM100 118.75c3.033 0 5.958-.48 8.692-1.367L71.875 80.567v10.058A28.125 28.125 0 0 0 100 118.75z"/></svg>