<svg width="200" height="200" xmlns="http://www.w3.org/2000/svg"><defs><style/></defs><path d="M145.833 52.083V93.75c0 25.313-20.52 45.833-45.833 45.833s-45.833-20.52-45.833-45.833V52.083C54.167 26.771 74.687 6.25 100 6.25s45.833 20.52 45.833 45.833zm-79.166 0V93.75a33.333 33.333 0 1 0 66.666 0V52.083a33.333 33.333 0 1 0-66.666 0zm102.645 41.68a6.25 6.25 0 0 1 5.663 6.783c-3.288 36.416-32.53 64.975-68.725 67.95V187.5a6.25 6.25 0 0 1-12.5 0v-19.004c-36.192-2.975-65.433-31.534-68.725-67.942a6.25 6.25 0 0 1 12.45-1.125c2.896 32.046 29.97 56.821 62.525 56.821 32.558 0 59.633-24.78 62.525-56.825a6.25 6.25 0 0 1 6.183-5.688l.604.025z"/></svg>