<svg width="200" height="200" xmlns="http://www.w3.org/2000/svg"><defs><style/></defs><path d="M100 28.13c3.867 0 7.512-1.322 10.458-3.71 7.646-6.212 18-7.65 26.817-3.512a87.567 87.567 0 0 1 13.054 7.559c7.842 5.508 11.483 15.062 9.925 24.762a16.35 16.35 0 0 0 1.992 10.833 16.333 16.333 0 0 0 8.375 7.138c9.158 3.508 15.608 11.408 16.504 20.92a82.883 82.883 0 0 1 0 15.76c-.896 9.52-7.346 17.42-16.512 20.928l-.863.359a16.313 16.313 0 0 0-7.5 6.775 16.354 16.354 0 0 0-1.992 10.837c1.559 9.7-2.083 19.254-9.929 24.767a87.5 87.5 0 0 1-13.05 7.554c-8.812 4.138-19.17 2.7-26.816-3.513a16.5 16.5 0 0 0-10.459-3.708c-3.866 0-7.512 1.321-10.458 3.709-7.646 6.212-18 7.65-26.817 3.512a87.554 87.554 0 0 1-13.054-7.558c-7.842-5.509-11.483-15.063-9.925-24.767a16.325 16.325 0 0 0-1.992-10.833 16.342 16.342 0 0 0-8.366-7.134l-.971-.391c-8.65-3.684-14.68-11.354-15.542-20.542a84.258 84.258 0 0 1 0-15.742c.896-9.525 7.346-17.425 16.517-20.933l.942-.396a16.313 16.313 0 0 0 7.42-6.737 16.333 16.333 0 0 0 1.992-10.834c-1.558-9.708 2.083-19.258 9.93-24.766a87.998 87.998 0 0 1 13.045-7.559c8.817-4.137 19.175-2.7 26.817 3.509a16.508 16.508 0 0 0 10.462 3.712zm0 101.037a29.167 29.167 0 1 0 0-58.334 29.167 29.167 0 0 0 0 58.334z"/></svg>