<svg width="200" height="200" xmlns="http://www.w3.org/2000/svg"><defs><style/></defs><path d="M22.917 152.083V47.917c0-6.904 2.441-12.796 7.32-17.68 4.888-4.879 10.776-7.32 17.68-7.32h104.166c6.904 0 12.796 2.441 17.68 7.32 4.879 4.888 7.32 10.775 7.32 17.68v104.166c0 6.904-2.441 12.796-7.32 17.68-4.888 4.879-10.776 7.32-17.68 7.32H47.917c-6.905 0-12.796-2.441-17.68-7.32-4.879-4.888-7.32-10.776-7.32-17.68zm12.5 0c0 3.45 1.22 6.396 3.662 8.838a12.042 12.042 0 0 0 8.838 3.662h104.166a12.042 12.042 0 0 0 8.838-3.662 12.042 12.042 0 0 0 3.662-8.838V47.917a12.042 12.042 0 0 0-3.662-8.838 12.042 12.042 0 0 0-8.838-3.662H47.917a12.042 12.042 0 0 0-8.838 3.662 12.042 12.042 0 0 0-3.662 8.838v104.166zm35.416-84.375v64.584a6.25 6.25 0 0 1-12.5 0V67.708a6.25 6.25 0 1 1 12.5 0zm70.834 0v64.584a6.25 6.25 0 0 1-12.5 0V67.708a6.25 6.25 0 0 1 12.5 0zM100 72.917a8.333 8.333 0 1 1 0 16.666 8.333 8.333 0 0 1 0-16.666zm0 37.5a8.333 8.333 0 1 1 0 16.666 8.333 8.333 0 0 1 0-16.666z"/></svg>