<svg width="200" height="200" xmlns="http://www.w3.org/2000/svg"><defs><style/></defs><path d="M133.917 22.938l1.5-.021c29.916 0 54.166 24.25 54.166 54.166 0 39.138-26.679 74.896-78.483 107.48a20.85 20.85 0 0 1-22.204-.013c-51.792-32.57-78.48-68.33-78.48-107.467 0-29.916 24.25-54.166 54.167-54.166A54.042 54.042 0 0 1 99.5 35.667l.5.429.5-.43a54.03 54.03 0 0 1 33.417-12.728zm34.833 54.145a33.333 33.333 0 0 0-60.325-19.566 10.417 10.417 0 0 1-16.85 0A33.333 33.333 0 0 0 31.25 77.083c-.004 30.68 22.388 60.692 68.746 89.842 46.358-29.15 68.75-59.167 68.75-89.842z"/></svg>