<svg width="200" height="200" xmlns="http://www.w3.org/2000/svg"><defs><style/></defs><path d="M124.167 117.42c5.05-6.057 9.337-16.162 12.875-30.303v-4.542h-30.284V71.208h37.096v-6.82h-37.096V47.72H91.617v15.912H58.304v6.817h33.313v11.363h-26.5v4.541h54.508c0 2.275-3.783 17.43-7.57 24.246-.755-1.517-24.98-9.85-38.61-10.604-14.382.758-25.737 5.304-31.04 15.908-7.567 19.696 4.54 39.392 31.8 39.392 4.54 0 26.495-2.271 43.15-25 4.54 2.275 30.282 15.154 46.178 23.487-15.141 18.18-37.85 29.542-63.591 29.542a83.004 83.004 0 0 1-58.959-24.333A83.12 83.12 0 0 1 16.667 100a83.125 83.125 0 0 1 24.32-58.996 83.004 83.004 0 0 1 58.959-24.333 83.004 83.004 0 0 1 58.95 24.333A83.125 83.125 0 0 1 183.216 100c.759 13.638-2.27 25-6.812 35.604l-3.104-.983c-11.542-3.633-50.45-15.875-49.133-17.2zm-18.925 6.063c-11.359 14.392-27.255 21.967-39.367 21.967-10.6-.754-18.167-6.817-18.167-15.908 0-11.363 8.325-17.421 14.384-18.18 12.112-2.02 26.495 2.021 43.15 12.121z"/></svg>