<svg width="200" height="200" xmlns="http://www.w3.org/2000/svg"><defs><style/></defs><path d="M141.667 147.917c-9.063 0-16.571-4.213-21.554-10.767l-.417-.567-.183.188c-8.138 7.846-18.13 11.77-28.85 10.979l-1.113-.096c-21.092-2.187-35.775-22.104-33.246-46.637 2.892-28.042 21.371-46.85 43.696-46.85 9.942 0 17.933 3.608 23.867 9.512l.412.425.08-.292a10.417 10.417 0 0 1 11.533-7.45l.675.121a10.417 10.417 0 0 1 7.991 12.375 5018.11 5018.11 0 0 1-7.308 33.4 94.198 94.198 0 0 1-1.533 5.984l-.284.925-.195 1.125-.234 1.191-.25 1.192c-1.846 8.292 2.025 14.408 6.913 14.408 10.496 0 21.304-11.112 22.966-28.1 3.45-35.262-26.937-65.65-64.633-65.65-36.833 0-66.667 29.834-66.667 66.667S63.167 166.667 100 166.667c15.796 0 28.808-3.167 39.2-9.367a10.417 10.417 0 1 1 10.675 17.892C136.05 183.442 119.367 187.5 100 187.5c-48.333 0-87.5-39.167-87.5-87.5S51.667 12.5 100 12.5c49.554 0 90.063 40.508 85.367 88.517-2.654 27.137-21.884 46.9-43.7 46.9zM91.7 126.929c8.842.917 17.767-5.987 23.017-21.304l.35-1.067.091-.633c1.988-15.333-4.096-28.333-14.446-28.904L100 75c-11.07 0-21.125 10.233-22.97 28.15-1.392 13.508 5.474 22.83 14.666 23.78z"/></svg>