<svg width="200" height="200" xmlns="http://www.w3.org/2000/svg"><defs><style/></defs><path d="M100 18.75c-46.025 0-83.333 37.28-83.333 83.262 0 36.809 23.9 67.988 56.983 79.042 4.175.783 5.688-1.825 5.688-4.017 0-1.979-.055-7.191-.105-14.179-23.166 5.059-28.075-11.158-28.075-11.158-3.808-9.646-9.237-12.2-9.237-12.2-7.617-5.108.525-5.004.525-5.004 8.346.57 12.783 8.6 12.783 8.6 7.408 12.725 19.517 9.075 24.263 6.937.783-5.375 2.925-9.075 5.27-11.158-18.525-2.083-37.987-9.23-37.987-41.138 0-9.07 3.233-16.525 8.558-22.366-.833-2.084-3.708-10.584.834-22.054 0 0 6.991-2.242 22.908 8.55a81.608 81.608 0 0 1 20.875-2.813c7.096.05 14.192.938 20.87 2.813 15.917-10.792 22.91-8.55 22.91-8.55 4.54 11.47 1.666 19.916.832 22.054 5.321 5.841 8.559 13.241 8.559 22.366 0 32.013-19.463 39.05-38.042 41.084 2.975 2.554 5.638 7.666 5.638 15.433 0 11.158-.105 20.125-.105 22.833 0 2.246 1.513 4.8 5.738 4.017 33.137-11.05 56.983-42.283 56.983-79.042 0-46.029-37.308-83.312-83.333-83.312z"/></svg>