<svg width="200" height="200" xmlns="http://www.w3.org/2000/svg"><defs><style/></defs><path d="M183.333 100c0 46.025-37.308 83.333-83.333 83.333S16.667 146.025 16.667 100 53.975 16.667 100 16.667 183.333 53.975 183.333 100zM100 29.167c-39.12 0-70.833 31.712-70.833 70.833S60.879 170.833 100 170.833s70.833-31.712 70.833-70.833S139.121 29.167 100 29.167zM65.625 87.5V77.083c0-4.025 3.267-7.291 7.292-7.291s7.5 3.475 7.5 7.5v10.416A7.292 7.292 0 0 1 73.125 95c-4.03 0-7.5-3.475-7.5-7.5zm68.75 0a7.292 7.292 0 1 1-14.583 0V77.083a7.292 7.292 0 1 1 14.583 0V87.5zm-15.625 33.333a6.25 6.25 0 0 1 0 12.5h-37.5a6.25 6.25 0 0 1 0-12.5h37.5z"/></svg>