<svg width="200" height="200" xmlns="http://www.w3.org/2000/svg"><defs><style/></defs><path d="M155.2 85.5a96.042 96.042 0 0 0 .317-6.808c0-36.43-24.863-65.88-55.584-65.88-30.716 0-55.583 29.45-55.583 65.876 0 2.383.167 4.75.32 7.133-9.345 18.683-23.282 58.117-16.632 69.996.795 1.425 8.87-6.334 15.366-18.688.159 13.78 7.125 26.288 18.367 35-9.183 1.584-17.583 7.446-16.946 10.45 1.113 5.067 23.596 6.18 51.146 2.217.167 0 .317 0 .633-.163 1.113 0 2.217.163 3.334.163 1.108 0 2.212 0 3.324-.163a1.167 1.167 0 0 1 .634.163c27.717 3.958 50.042 2.85 51.15-2.217.633-3.012-7.763-8.867-16.946-10.45 11.246-8.712 18.213-21.379 18.367-35.316 6.333 12.666 14.729 20.583 15.516 19 6.659-11.875-7.6-51.788-16.783-70.309z"/></svg>