<svg width="200" height="200" xmlns="http://www.w3.org/2000/svg"><defs><style/></defs><path d="M78.012 16.667a17.55 17.55 0 0 1 17.509 17.508v17.508H78.012a17.55 17.55 0 0 1-17.508-17.508 17.55 17.55 0 0 1 17.508-17.508zm26.467 61.346V34.175a17.55 17.55 0 0 1 17.508-17.508 17.55 17.55 0 0 1 17.509 17.508v43.838a17.55 17.55 0 0 1-17.509 17.508 17.55 17.55 0 0 1-17.508-17.509zM78.012 95.52H34.175a17.55 17.55 0 0 1-17.508-17.509 17.55 17.55 0 0 1 17.508-17.504h43.837a17.55 17.55 0 0 1 17.509 17.504 17.55 17.55 0 0 1-17.509 17.509zm105.321-17.509a17.55 17.55 0 0 1-17.508 17.509h-17.508V78.012a17.55 17.55 0 0 1 17.508-17.504 17.55 17.55 0 0 1 17.508 17.504zM16.667 121.987a17.55 17.55 0 0 1 17.508-17.508h17.508v17.509a17.55 17.55 0 0 1-17.508 17.504 17.55 17.55 0 0 1-17.508-17.504zm78.854 0v43.838a17.55 17.55 0 0 1-17.509 17.508 17.55 17.55 0 0 1-17.508-17.508v-43.837a17.55 17.55 0 0 1 17.508-17.509 17.55 17.55 0 0 1 17.509 17.508zm26.466-17.508h43.838a17.55 17.55 0 0 1 17.508 17.509 17.55 17.55 0 0 1-17.508 17.504h-43.837a17.55 17.55 0 0 1-17.509-17.504 17.55 17.55 0 0 1 17.509-17.509zm0 78.854a17.55 17.55 0 0 1-17.508-17.508v-17.508h17.508a17.55 17.55 0 0 1 17.509 17.508 17.55 17.55 0 0 1-17.509 17.508z"/></svg>