<svg width="200" height="200" xmlns="http://www.w3.org/2000/svg"><defs><style/></defs><path d="M80.208 121.617c-9.979 6.025-11.458-3.384-11.458-3.384l-12.5-31.6c-4.813-15.016 4.163-6.77 4.163-6.77s7.7 6.308 13.541 10.154c5.842 3.846 12.5 1.129 12.5 1.129l81.734-40.863C153.103 29.954 128.2 16.667 100 16.667c-46.03 0-83.333 35.366-83.333 79 0 25.096 12.35 47.429 31.595 61.904l-3.47 21.608s-1.692 6.304 4.166 3.38c4-1.992 14.18-9.142 20.242-13.492a87.125 87.125 0 0 0 30.8 5.6c46.02 0 83.333-35.367 83.333-79 0-12.634-3.146-24.571-8.712-35.167-26.042 16.97-86.613 56.417-94.417 61.117z"/></svg>