<svg width="200" height="200" xmlns="http://www.w3.org/2000/svg"><defs><style/></defs><path d="M138.73 34.12c-11.134.868-11.134-14.712-.86-16.45 17.96-1.728 33.376 5.2 45.355 19.9 11.98 13.86 11.98 40.688 8.554 50.21-3.425 9.524-17.108 4.333-13.687-5.188 3.425-10.392 2.566-25.104-6.846-37.225-9.417-12.117-21.396-12.117-32.517-11.25zM98.674 67.476c-.1.92-.18 1.654-.18 2.125-.857 3.467-.857 7.8 2.568 5.208 7.695-5.208 32.525-11.25 41.083-3.479 6.317 5.763 3.3 16.708 1.637 22.742-.587 2.129-1.008 3.646-.783 4.1 0 .475.642.562 1.817.72 3.12.417 10.012 1.346 18.72 11.4 11.98 13.855 4.284 38.971-23.112 57.146-29.092 19.046-79.583 19.046-105.262 6.059C6.07 158.77-5.062 127.608 20.617 89.516 46.292 51.426 77.95 41.905 88.233 44.5c12.555 3.737 11.084 17.15 10.446 22.975zm43.467-9.12c-9.417.87-8.554-12.118-.859-12.988 5.142-.867 11.134 0 19.7 5.191 7.696 6.059 11.98 21.642 6.85 29.438-4.296 6.929-13.7.866-12.004-3.463 4.283-13.846-4.27-19.046-13.687-18.179zm-5.342 68.4c-1.708-21.642-27.383-36.367-58.192-33.772C48.65 96.446 24.7 116.358 26.404 138c1.709 21.642 27.384 36.367 58.192 33.758 30.808-3.462 53.92-23.375 52.204-45.004zM73.475 105.1c16.267-4.333 32.53 3.463 35.942 19.042 3.425 14.729-6.85 31.166-23.1 35.5-16.263 4.32-32.53-3.463-35.954-19.059-3.421-14.708 6.85-30.291 23.112-35.483zm8.542 24.25c.862 1.733 2.583 2.592 5.146 2.592 2.566 0 4.283-2.609 3.425-4.334-.859-1.725-2.567-3.462-5.142-2.596-2.567.871-3.425 2.596-3.425 4.334zm-20.534 12.117c.863 5.187 6.85 7.791 11.992 6.058 5.133-.87 8.558-6.058 7.7-11.263-.862-5.187-6.85-7.783-11.983-6.045-5.142 1.712-8.554 6.916-7.709 11.25z"/></svg>