<svg width="200" height="200" xmlns="http://www.w3.org/2000/svg"><defs><style/></defs><path d="M16.325 75.675Q32.679 58.633 53.9 49.283q22.004-9.7 46.1-9.7t46.1 9.7q21.213 9.35 37.558 26.375l.017.017a6.25 6.25 0 1 1-9.017 8.658l-.008-.008q-14.633-15.25-33.592-23.604-19.596-8.638-41.058-8.638-21.458 0-41.058 8.638-18.959 8.358-33.6 23.612a6.25 6.25 0 1 1-9.017-8.658zM64.567 80q-15.484 6.825-27.409 19.25a6.25 6.25 0 1 0 9.021 8.654q10.208-10.637 23.43-16.466 13.654-6.021 28.6-6.021 14.958 0 28.608 6.016 13.22 5.83 23.433 16.471a6.25 6.25 0 0 0 9.017-8.658q-11.925-12.425-27.409-19.25-16.062-7.08-33.65-7.08-17.583 0-33.646 7.084zm10.666 30.712q-9.741 4.292-17.241 12.109a6.25 6.25 0 1 0 9.02 8.654q5.784-6.025 13.259-9.32 7.708-3.4 16.158-3.4 8.446 0 16.154 3.4 7.475 3.29 13.254 9.312l.009.008a6.25 6.25 0 0 0 9.02-8.654q-7.5-7.813-17.241-12.109-10.117-4.458-21.196-4.458t-21.2 4.458zm33.009 32.867c1.862 1.33 1.85 4.067.258 5.725L98.717 159.5a3.962 3.962 0 0 1-5.767 0l-9.783-10.196c-1.592-1.658-1.604-4.396.254-5.725a21.283 21.283 0 0 1 24.82 0z" fill-rule="evenodd"/></svg>