<svg width="200" height="200" xmlns="http://www.w3.org/2000/svg"><defs><style/></defs><path d="M13.988 68.963q17.495-17.492 40.25-26.721 21.97-8.909 45.77-8.909t45.767 8.909q22.758 9.229 40.25 26.72a14.334 14.334 0 0 1-20.27 20.271q-13.384-13.379-30.75-20.425-16.788-6.804-35-6.804-18.21 0-34.993 6.804-17.366 7.042-30.75 20.43a14.337 14.337 0 0 1-20.275-20.276zm48.1 62.454a14.337 14.337 0 0 1-20.275-20.275q11.833-11.834 27.233-18.075 14.862-6.03 30.962-6.03t30.963 6.03q15.4 6.241 27.233 18.075a14.335 14.335 0 0 1-20.27 20.275q-7.726-7.725-17.738-11.784-9.68-3.925-20.188-3.925t-20.187 3.925q-10.013 4.059-17.734 11.784zm18.729 14.808c11.575-5.854 26.804-5.854 38.379 0 5.133 2.6 5.196 9.383 1.129 13.454l-12.95 12.946a10.417 10.417 0 0 1-14.733 0l-12.95-12.95c-4.071-4.07-4.009-10.854 1.125-13.454z" fill-rule="evenodd"/></svg>