<svg width="200" height="200" xmlns="http://www.w3.org/2000/svg"><defs><style/></defs><path d="M94.72 115.958l61.292 61.292a6.25 6.25 0 1 0 8.842-8.838L27.837 31.409A6.252 6.252 0 1 0 19 40.254l13.492 13.488Q22.6 60.35 13.987 68.962a14.335 14.335 0 0 0 20.271 20.276q8.684-8.684 19.038-14.696l17.746 17.741q-1 .375-2 .784-15.396 6.241-27.23 18.075a14.335 14.335 0 0 0 20.271 20.275q7.725-7.725 17.734-11.784 7.22-2.929 14.904-3.67zM100 62q-8.47 0-16.637 1.48l-23.4-23.4q19.329-6.747 40.045-6.747 23.8 0 45.767 8.909 22.754 9.229 40.25 26.72a14.334 14.334 0 0 1-20.27 20.271q-13.384-13.379-30.75-20.425-16.793-6.804-35-6.804zm30.967 31.067q-11.5-4.667-23.734-5.721l46.917 46.916a14.333 14.333 0 0 0 4.046-23.116q-11.834-11.834-27.23-18.084zm-50.15 53.158c11.575-5.854 26.804-5.854 38.379 0 5.133 2.6 5.196 9.383 1.125 13.454l-12.946 12.946a10.417 10.417 0 0 1-14.73 0l-12.953-12.954c-4.067-4.067-4.004-10.85 1.125-13.45z" fill-rule="evenodd"/></svg>