<svg width="200" height="200" xmlns="http://www.w3.org/2000/svg"><defs><style/></defs><path d="M22.917 47.917V68.75q0 10.354 7.32 17.68 7.325 7.32 17.68 7.32H68.75q10.354 0 17.68-7.32 7.32-7.326 7.32-17.68V47.917q0-10.355-7.32-17.68-7.326-7.32-17.68-7.32H47.917q-10.355 0-17.68 7.32-7.32 7.325-7.32 17.68zm0 83.333v20.833q0 10.354 7.32 17.68 7.325 7.32 17.68 7.32H68.75q10.354 0 17.68-7.32 7.32-7.326 7.32-17.68V131.25q0-10.354-7.32-17.68-7.326-7.32-17.68-7.32H47.917q-10.355 0-17.68 7.32-7.32 7.326-7.32 17.68zm83.333-83.333V68.75q0 10.354 7.32 17.68 7.326 7.32 17.68 7.32h20.833q10.354 0 17.68-7.32 7.32-7.326 7.32-17.68V47.917q0-10.355-7.32-17.68-7.326-7.32-17.68-7.32H131.25q-10.354 0-17.68 7.32-7.32 7.325-7.32 17.68zm0 83.333v20.833q0 10.354 7.32 17.68 7.326 7.32 17.68 7.32h20.833q10.354 0 17.68-7.32 7.32-7.326 7.32-17.68V131.25q0-10.354-7.32-17.68-7.326-7.32-17.68-7.32H131.25q-10.354 0-17.68 7.32-7.32 7.326-7.32 17.68z" fill-rule="evenodd"/></svg>