<svg width="200" height="200" xmlns="http://www.w3.org/2000/svg"><defs><style/></defs><path d="M22.917 47.917V68.75q0 10.354 7.32 17.68 7.325 7.32 17.68 7.32H68.75q10.354 0 17.68-7.32 7.32-7.326 7.32-17.68V47.917q0-10.355-7.32-17.68-7.326-7.32-17.68-7.32H47.917q-10.355 0-17.68 7.32-7.32 7.325-7.32 17.68zm16.162 29.67q-3.662-3.658-3.662-8.837V47.917q0-5.18 3.662-8.838 3.659-3.662 8.838-3.662H68.75q5.18 0 8.838 3.662 3.662 3.658 3.662 8.838V68.75q0 5.18-3.662 8.838-3.659 3.662-8.838 3.662H47.917q-5.18 0-8.838-3.662zM22.917 131.25v20.833q0 10.354 7.32 17.68 7.326 7.32 17.68 7.32H68.75q10.354 0 17.68-7.32 7.32-7.326 7.32-17.68V131.25q0-10.354-7.32-17.68-7.326-7.32-17.68-7.32H47.917q-10.355 0-17.68 7.32-7.32 7.326-7.32 17.68zm16.162 29.67q-3.662-3.657-3.662-8.837V131.25q0-5.18 3.662-8.837 3.659-3.663 8.838-3.663H68.75q5.18 0 8.838 3.663 3.662 3.658 3.662 8.837v20.833q0 5.18-3.662 8.838-3.659 3.662-8.838 3.662H47.917q-5.18 0-8.838-3.662zM106.25 47.918V68.75q0 10.354 7.32 17.68 7.326 7.32 17.68 7.32h20.833q10.354 0 17.68-7.32 7.32-7.326 7.32-17.68V47.917q0-10.355-7.32-17.68-7.326-7.32-17.68-7.32H131.25q-10.354 0-17.68 7.32-7.32 7.325-7.32 17.68zm16.162 29.67q-3.662-3.658-3.662-8.837V47.917q0-5.18 3.662-8.838 3.659-3.662 8.838-3.662h20.833q5.18 0 8.838 3.662 3.662 3.658 3.662 8.838V68.75q0 5.18-3.662 8.838-3.658 3.662-8.838 3.662H131.25q-5.18 0-8.838-3.662zM106.25 131.25v20.833q0 10.355 7.32 17.68 7.326 7.32 17.68 7.32h20.833q10.354 0 17.68-7.32 7.32-7.326 7.32-17.68V131.25q0-10.354-7.32-17.68-7.326-7.32-17.68-7.32H131.25q-10.354 0-17.68 7.32-7.32 7.326-7.32 17.68zm16.162 29.67q-3.662-3.657-3.662-8.837V131.25q0-5.18 3.662-8.837 3.659-3.663 8.838-3.663h20.833q5.18 0 8.838 3.663 3.662 3.658 3.662 8.837v20.833q0 5.18-3.662 8.838-3.658 3.662-8.838 3.662H131.25q-5.18 0-8.838-3.662z" fill-rule="evenodd"/></svg>