<svg width="200" height="200" xmlns="http://www.w3.org/2000/svg"><defs><style/></defs><path d="M52.083 20.833h8.334v158.334h-8.334c-6.904 0-12.796-2.442-17.679-7.321-4.879-4.888-7.32-10.775-7.32-17.68V45.834c0-6.904 2.441-12.796 7.32-17.679 4.888-4.879 10.775-7.32 17.68-7.32zm95.834 158.334h-75V20.833h75c6.904 0 12.795 2.442 17.679 7.321 4.879 4.888 7.32 10.775 7.32 17.68v108.333c0 6.904-2.441 12.796-7.32 17.679-4.888 4.879-10.775 7.32-17.68 7.32zm-17.35-101.709a4.167 4.167 0 0 1 5.533 0l9.05 8.042c2.688 2.392 6.933.483 6.933-3.112V39.583a6.25 6.25 0 0 0-6.25-6.25h-25a6.25 6.25 0 0 0-6.25 6.25v42.804c0 3.596 4.25 5.5 6.934 3.117l9.05-8.042z"/></svg>