<svg width="200" height="200" xmlns="http://www.w3.org/2000/svg"><defs><style/></defs><path d="M23.983 91.463c0-8.246 1.517-16.2 4.554-23.867a64.167 64.167 0 0 1 14.438-21.98 64.17 64.17 0 0 1 21.98-14.437 64.27 64.27 0 0 1 23.866-4.554 64.345 64.345 0 0 1 20.804 3.43 64.354 64.354 0 0 1 19.604 10.703 64.35 64.35 0 0 1 14.808 16.721 64.392 64.392 0 0 1 6.425 13.875l.959-.012c5.97 0 11.733 1.1 17.283 3.296a46.482 46.482 0 0 1 15.917 10.458 46.477 46.477 0 0 1 10.458 15.916 46.542 46.542 0 0 1 3.292 17.28 46.542 46.542 0 0 1-3.292 17.283 46.48 46.48 0 0 1-10.458 15.917 46.47 46.47 0 0 1-15.917 10.458 46.533 46.533 0 0 1-18.904 3.267 6.67 6.67 0 0 1-.613.025H41.871c-.221 0-.442-.009-.658-.03a37.675 37.675 0 0 1-15.567-2.637 37.617 37.617 0 0 1-12.888-8.462 37.612 37.612 0 0 1-8.462-12.888 37.675 37.675 0 0 1-2.667-13.987c0-8.471 2.542-16.092 7.638-22.859 3.979-5.287 8.887-9.225 14.725-11.812a64.142 64.142 0 0 1-.009-1.104zm59.35 35.62a6.25 6.25 0 0 0 12.5 0V90l10.146 10.233a6.25 6.25 0 0 0 8.875-8.8L97.137 73.558a10.038 10.038 0 0 0-7.354-3.083 10.038 10.038 0 0 0-7.375 3.02l-18.058 17.9a6.25 6.25 0 0 0 8.8 8.876l10.183-10.096v36.908z"/></svg>