<svg width="200" height="200" xmlns="http://www.w3.org/2000/svg"><defs><style/></defs><path d="M9.267 104.38c3.979-5.288 8.887-9.226 14.725-11.813a64.267 64.267 0 0 1 4.541-24.971 64.167 64.167 0 0 1 14.442-21.98 64.17 64.17 0 0 1 21.98-14.437 64.27 64.27 0 0 1 23.866-4.554 64.345 64.345 0 0 1 20.804 3.43 64.354 64.354 0 0 1 19.604 10.703 64.35 64.35 0 0 1 14.808 16.721 64.392 64.392 0 0 1 6.425 13.875l.959-.012c5.97 0 11.733 1.1 17.283 3.296a46.482 46.482 0 0 1 15.917 10.458 46.477 46.477 0 0 1 10.458 15.916 46.542 46.542 0 0 1 3.292 17.28 46.542 46.542 0 0 1-3.292 17.283 46.48 46.48 0 0 1-10.458 15.917 46.47 46.47 0 0 1-15.917 10.458 46.533 46.533 0 0 1-18.904 3.267 6.67 6.67 0 0 1-.613.025H41.871c-.221 0-.442-.009-.658-.03a37.675 37.675 0 0 1-15.567-2.637 37.617 37.617 0 0 1-12.888-8.462 37.612 37.612 0 0 1-8.462-12.888 37.675 37.675 0 0 1-2.667-13.987c0-8.471 2.542-16.092 7.638-22.859zM42.9 151.83h105.375a6.614 6.614 0 0 1 1.283-.05 33.458 33.458 0 0 0 14.209-2.305 33.192 33.192 0 0 0 11.37-7.467 33.192 33.192 0 0 0 7.467-11.375 33.25 33.25 0 0 0 2.354-12.341 33.246 33.246 0 0 0-2.354-12.342 33.196 33.196 0 0 0-7.467-11.375 33.192 33.192 0 0 0-11.37-7.462 33.504 33.504 0 0 0-17.292-1.988 6.708 6.708 0 0 1-7.53-5.137c-2.674-11.688-8.7-21.267-18.078-28.738-9.375-7.475-20.059-11.208-32.046-11.208a51.016 51.016 0 0 0-18.93 3.608A50.892 50.892 0 0 0 52.459 55.1a50.896 50.896 0 0 0-11.45 17.433A51.404 51.404 0 0 0 37.646 96.5a6.708 6.708 0 0 1-4.821 7.104 23.98 23.98 0 0 0-12.842 8.842 23.975 23.975 0 0 0-4.941 14.792c0 6.791 2.4 12.583 7.204 17.387 4.8 4.804 10.596 7.204 17.387 7.204.584 0 1.171-.02 1.759-.062a6.808 6.808 0 0 1 1.508.062zm40.433-61.655L73.15 100.271a6.25 6.25 0 1 1-8.8-8.875l18.054-17.9a10.038 10.038 0 0 1 7.375-3.021c2.88.013 5.333 1.042 7.358 3.083l17.717 17.875a6.25 6.25 0 0 1-8.875 8.8L95.833 90v37.083a6.25 6.25 0 1 1-12.5 0V90.175z"/></svg>