<svg width="200" height="200" xmlns="http://www.w3.org/2000/svg"><defs><style/></defs><path d="M114.758 109.02a38.292 38.292 0 0 1-25.196-.016 36.458 36.458 0 0 1-6.75-3.2c-12.954-8.591-22.395-25.458-22.395-45.396 0-24.479 17.291-43.741 41.666-43.741s41.667 19.262 41.667 43.741c0 19.946-9.45 36.813-22.404 45.405a31.033 31.033 0 0 1-6.584 3.208zm-10.733 14.597c9.112-.334 17.162-2.78 24.15-7.338l.075-.05a57.167 57.167 0 0 0 4.733-3.5 94.44 94.44 0 0 1 4.534 1.492 6.25 6.25 0 0 1 4.145 5.887v52.809a6.25 6.25 0 0 1-6.25 6.25H37.5c-4.596 0-8.513-1.605-11.758-4.817-3.275-3.233-4.909-7.154-4.909-11.767v-.083c0-5.546 1.934-11.475 5.8-17.783 3.884-6.342 9.171-12.125 15.859-17.35 7.416-5.792 15.854-10.309 25.325-13.555a99.492 99.492 0 0 1 3.366-1.083 58.028 58.028 0 0 0 4.717 3.492l.208.137.217.134c8.43 5.112 17.667 7.487 27.7 7.125zm83.475-6.95a6.25 6.25 0 0 1 0 12.5h-29.167a6.25 6.25 0 0 1 0-12.5H187.5zm0 25a6.25 6.25 0 0 1 0 12.5h-29.167a6.25 6.25 0 0 1 0-12.5H187.5zm0 25a6.25 6.25 0 0 1 0 12.5h-29.167a6.25 6.25 0 0 1 0-12.5H187.5z"/></svg>