<svg width="200" height="200" xmlns="http://www.w3.org/2000/svg"><defs><style/></defs><path d="M139.583 60.408c0 19.946-9.45 36.813-22.404 45.404-1.942 1.263-4.167 2.355-6.587 3.209a38.292 38.292 0 0 1-25.196-.017 36.458 36.458 0 0 1-6.75-3.2C65.692 97.212 56.25 80.346 56.25 60.408c0-24.479 17.292-43.741 41.667-43.741s41.666 19.262 41.666 43.741zm-15.5 55.821a57.042 57.042 0 0 0 4.734-3.5c.77.234 1.541.475 2.304.73a6.25 6.25 0 0 1 4.296 5.933v53.525a6.25 6.25 0 0 1-6.25 6.25H33.333c-4.596 0-8.512-1.605-11.758-4.817-3.275-3.233-4.908-7.154-4.908-11.767v-.083c0-5.546 1.933-11.475 5.8-17.783 3.883-6.342 9.17-12.125 15.858-17.35 7.417-5.792 15.854-10.309 25.325-13.555a99.623 99.623 0 0 1 3.367-1.083 57.997 57.997 0 0 0 4.716 3.492l.209.137.216.134c8.43 5.112 17.667 7.487 27.7 7.125 9.113-.334 17.163-2.78 24.15-7.338l.075-.05zm42.584 4.604a6.25 6.25 0 0 1 6.25 6.25v14.584H187.5a6.25 6.25 0 0 1 0 12.5h-14.583v14.583a6.25 6.25 0 0 1-12.5 0v-14.583h-14.584a6.25 6.25 0 0 1 0-12.5h14.584v-14.584a6.25 6.25 0 0 1 6.25-6.25z"/></svg>