<svg width="200" height="200" xmlns="http://www.w3.org/2000/svg"><defs><style/></defs><path d="M56.25 62.596c0-6.067 1.004-11.85 3.017-17.354a44.658 44.658 0 0 1 8.737-14.667 41.013 41.013 0 0 1 13.917-10.167c5.583-2.496 11.608-3.741 18.079-3.741 6.47 0 12.5 1.25 18.08 3.741a41.008 41.008 0 0 1 13.916 10.167 44.663 44.663 0 0 1 8.737 14.667c2.013 5.504 3.017 11.291 3.017 17.354 0 7.929-1.304 15.362-3.917 22.304a53.888 53.888 0 0 1-10.158 16.988c-2.892 3.25-6.042 6-9.458 8.25a98.329 98.329 0 0 1 15.208 4.083 6.25 6.25 0 0 1-2.08 12.137h-.012a6.25 6.25 0 0 1-2.104-.366l-.012-.005c-9.634-3.437-20.034-5.154-31.217-5.154-10.792 0-20.867 1.6-30.217 4.804-8.141 2.792-15.37 6.65-21.679 11.584-5.5 4.291-9.8 8.97-12.896 14.025-2.637 4.308-3.958 8.058-3.958 11.254v.083c0 1.134.4 2.092 1.196 2.88a4.067 4.067 0 0 0 2.97 1.204h97.913a6.25 6.25 0 0 1 0 12.5H35.417c-4.596 0-8.513-1.604-11.759-4.817-3.27-3.233-4.908-7.154-4.908-11.767v-.083c0-5.546 1.933-11.475 5.8-17.783 3.883-6.342 9.17-12.125 15.858-17.35 7.417-5.792 15.854-10.309 25.325-13.555a98.917 98.917 0 0 1 14.05-3.674c-3.416-2.25-6.566-5-9.458-8.25A53.883 53.883 0 0 1 60.167 84.9c-2.613-6.942-3.917-14.375-3.917-22.304zm12.5 0c0 12.458 3.642 22.791 10.925 30.991 3.054 3.442 6.463 6.1 10.225 7.975 3.48 1.738 6.846 2.605 10.1 2.605 3.254 0 6.625-.867 10.1-2.605 3.762-1.875 7.17-4.533 10.225-7.975 7.283-8.204 10.925-18.533 10.925-30.991 0-9.425-2.85-17.317-8.558-23.671-5.842-6.504-13.4-9.758-22.692-9.758s-16.85 3.25-22.692 9.758c-5.708 6.354-8.558 14.246-8.558 23.67zm118.75 54.07a6.25 6.25 0 0 1 0 12.5h-29.167a6.25 6.25 0 0 1 0-12.5H187.5zm0 25a6.25 6.25 0 0 1 0 12.5h-29.167a6.25 6.25 0 0 1 0-12.5H187.5zm0 25a6.25 6.25 0 0 1 0 12.5h-29.167a6.25 6.25 0 0 1 0-12.5H187.5z"/></svg>