<svg width="200" height="200" xmlns="http://www.w3.org/2000/svg"><defs><style/></defs><path d="M105.208 61.804c0 6.713-1.079 13.138-3.233 19.271a51.446 51.446 0 0 1-8.625 15.55c-3.68 4.517-7.862 8.042-12.558 10.583a5.992 5.992 0 0 1-.092.05c6.85 1.734 13.375 4.684 19.583 8.859 10.254 6.895 17.634 15.72 22.134 26.47 4.45 10.642 4.887 19.576 1.304 26.805a18.946 18.946 0 0 1-7.88 8.308c-3.237 1.812-6.891 2.717-10.962 2.717H26.404c-4.07 0-7.725-.905-10.958-2.717a18.942 18.942 0 0 1-7.884-8.308c-3.583-7.23-3.145-16.167 1.305-26.804 4.5-10.75 11.875-19.575 22.133-26.471 6.196-4.167 12.717-7.121 19.558-8.85a12.092 12.092 0 0 1-.1-.059c-4.696-2.541-8.879-6.066-12.554-10.583a51.45 51.45 0 0 1-8.625-15.55 57.658 57.658 0 0 1-3.237-19.27c0-11.642 3.679-21.342 11.033-29.097 7.512-7.916 17.03-11.875 28.55-11.875s21.042 3.959 28.55 11.875c7.354 7.755 11.033 17.455 11.033 29.096zm-66.666 0c0 10.533 3.02 19.513 9.058 26.93 2.63 3.233 5.567 5.729 8.808 7.483 3.088 1.675 6.163 2.508 9.217 2.508 3.054 0 6.125-.833 9.217-2.508 3.241-1.754 6.179-4.25 8.812-7.484 6.038-7.416 9.054-16.396 9.054-26.929 0-8.32-2.533-15.15-7.604-20.492-5.041-5.32-11.541-7.979-19.479-7.979-7.942 0-14.433 2.659-19.48 7.98-5.07 5.341-7.603 12.17-7.603 20.491zm108.35-10.279c8.566 0 15.65 2.95 21.254 8.85 5.475 5.763 8.208 12.942 8.208 21.546 0 9.841-2.896 18.312-8.687 25.416a31.52 31.52 0 0 1-7.9 7.021c5.696 1.692 11.166 4.538 16.412 8.538 8.583 6.546 14.238 14.275 16.975 23.187 2.804 9.142 2.133 16.609-2.012 22.4-4.109 5.734-10.65 8.6-19.63 8.6H142.7a6.25 6.25 0 0 1 0-12.5h28.813c4.695 0 7.85-1.125 9.466-3.375 1.746-2.441 1.821-6.258.225-11.458-1.95-6.354-6.154-11.992-12.608-16.917-6.846-5.22-14.084-7.833-21.704-7.833-4.096 0-8.192.82-12.292 2.458a6.258 6.258 0 0 1-2.242.45h-.083a6.25 6.25 0 0 1-6.25-6.229v-.02a6.25 6.25 0 0 1 3.933-5.805 49.299 49.299 0 0 1 4.138-1.45 31.496 31.496 0 0 1-7.98-7.062c-5.791-7.109-8.687-15.584-8.687-25.421 0-8.604 2.733-15.788 8.208-21.546 5.605-5.9 12.688-8.85 21.25-8.85zm0 12.5c-4.988 0-9.054 1.654-12.192 4.958-3.183 3.35-4.77 7.663-4.77 12.938 0 6.875 1.957 12.716 5.874 17.52 3.396 4.167 7.092 6.25 11.083 6.25 4 0 7.692-2.083 11.092-6.25 3.917-4.804 5.875-10.645 5.875-17.52 0-5.275-1.587-9.588-4.77-12.938-3.138-3.304-7.205-4.958-12.192-4.958zm-36.009 83.392c-3.533-8.446-9.391-15.421-17.575-20.925-8.5-5.713-17.72-8.571-27.666-8.571-9.946 0-19.167 2.858-27.667 8.57-8.183 5.5-14.042 12.48-17.575 20.926-2.983 7.133-3.53 12.608-1.638 16.425 1.346 2.72 3.896 4.079 7.642 4.079h78.475c3.75 0 6.292-1.358 7.642-4.08 1.891-3.816 1.35-9.291-1.638-16.424z"/></svg>