<svg width="200" height="200" xmlns="http://www.w3.org/2000/svg"><defs><style/></defs><path d="M70.088 30.575a41.013 41.013 0 0 1 13.916-10.167c5.584-2.495 11.609-3.741 18.08-3.741 6.47 0 12.5 1.25 18.079 3.741a41.008 41.008 0 0 1 13.916 10.167 44.663 44.663 0 0 1 8.738 14.667c2.012 5.504 3.016 11.291 3.016 17.354 0 7.929-1.304 15.362-3.916 22.304a53.888 53.888 0 0 1-10.159 16.988c-2.891 3.25-6.041 6-9.458 8.25a98.329 98.329 0 0 1 15.208 4.083 6.25 6.25 0 0 1-2.079 12.137h-.012a6.25 6.25 0 0 1-2.104-.366l-.013-.005c-9.633-3.437-20.033-5.154-31.217-5.154-10.791 0-20.866 1.6-30.216 4.804-8.142 2.792-15.371 6.65-21.68 11.584-5.5 4.291-9.8 8.97-12.895 14.025-2.638 4.308-3.959 8.058-3.959 11.254v.083c0 1.134.4 2.092 1.196 2.88a4.067 4.067 0 0 0 2.971 1.204h97.913a6.25 6.25 0 0 1 0 12.5H37.5c-4.596 0-8.512-1.604-11.758-4.817-3.271-3.233-4.909-7.154-4.909-11.767v-.083c0-5.546 1.934-11.475 5.8-17.783 3.884-6.342 9.171-12.125 15.859-17.35 7.416-5.792 15.854-10.309 25.325-13.555a98.917 98.917 0 0 1 14.05-3.674c-3.417-2.25-6.567-5-9.459-8.25A53.883 53.883 0 0 1 62.25 84.9c-2.612-6.942-3.917-14.375-3.917-22.304 0-6.067 1.005-11.85 3.017-17.354a44.658 44.658 0 0 1 8.738-14.667zm21.895 70.987c3.48 1.738 6.846 2.605 10.1 2.605 3.254 0 6.625-.867 10.1-2.604 3.763-1.876 7.171-4.534 10.225-7.976 7.284-8.204 10.925-18.533 10.925-30.991 0-9.425-2.85-17.317-8.558-23.671-5.842-6.504-13.4-9.758-22.692-9.758-9.291 0-16.85 3.25-22.691 9.758-5.709 6.354-8.559 14.246-8.559 23.67 0 12.46 3.642 22.792 10.925 30.992 3.054 3.442 6.463 6.1 10.225 7.975zm76.767 19.271a6.25 6.25 0 0 1 6.25 6.25v14.584h14.583a6.25 6.25 0 0 1 0 12.5H175v14.583a6.25 6.25 0 0 1-12.5 0v-14.583h-14.583a6.25 6.25 0 0 1 0-12.5H162.5v-14.584a6.25 6.25 0 0 1 6.25-6.25z"/></svg>