<svg width="200" height="200" xmlns="http://www.w3.org/2000/svg"><defs><style/></defs><path d="M141.667 62.783c0 19.946-9.45 36.813-22.409 45.404-9.337 6.092-25.208 8.076-38.533-.008-12.95-8.596-22.392-25.458-22.392-45.396 0-24.479 17.292-43.741 41.667-43.741 24.37 0 41.667 19.262 41.667 43.741zm-15.834 55.325a56.128 56.128 0 0 0 6.25-4.8c28.959 9.254 49.167 29.971 49.163 49.409l-.033.887a16.667 16.667 0 0 1-16.63 15.575H35.417c-9.209 0-16.667-7.458-16.667-16.792l.017-.758c.75-19.175 20.7-39.27 49.129-48.333a57.05 57.05 0 0 0 6.25 4.804l.2.133.204.125c8.325 5.05 17.45 7.396 27.367 7.038 9-.33 16.95-2.742 23.846-7.242l.074-.046z"/></svg>