<svg width="200" height="200" xmlns="http://www.w3.org/2000/svg"><defs><style/></defs><path d="M145.833 62.596c0 19.658-8.483 36.617-20.675 46.612 33.734 8.075 58.175 31.392 58.171 53.563l-.037.954a18.75 18.75 0 0 1-18.709 17.525H35.417c-10.354 0-18.75-8.396-18.75-18.917l.02-.8c.855-21.82 24.976-44.42 58.142-52.333-12.187-10.004-20.662-26.958-20.662-46.608 0-26.8 19.041-48.009 45.833-48.009s45.833 21.204 45.833 48.013zm-75 0c0 22.754 14.859 39.487 29.167 39.487s29.167-16.733 29.167-39.487c0-17.98-12-31.346-29.167-31.346S70.833 44.617 70.833 62.596zm-21.016 75.933c-10.13 7.771-16.234 17.4-16.471 23.496l-.013.475a2.083 2.083 0 0 0 2.084 2.083h129.166c1.1 0 2.009-.858 2.067-1.666l.017-.417c0-6.038-5.95-15.75-16.055-23.642-12.779-9.983-30.166-15.941-50.612-15.941-20.208 0-37.43 5.816-50.183 15.612z"/></svg>