<svg width="200" height="200" xmlns="http://www.w3.org/2000/svg"><defs><style/></defs><path d="M22.917 152.083V47.917c0-6.904 2.441-12.796 7.32-17.68 4.888-4.879 10.776-7.32 17.68-7.32h104.166c6.904 0 12.796 2.441 17.68 7.32 4.879 4.888 7.32 10.775 7.32 17.68v104.166c0 6.904-2.441 12.796-7.32 17.68-4.888 4.879-10.776 7.32-17.68 7.32H47.917c-6.905 0-12.796-2.441-17.68-7.32-4.879-4.888-7.32-10.776-7.32-17.68zm12.5 0c0 3.45 1.22 6.396 3.662 8.838a12.042 12.042 0 0 0 8.838 3.662h104.166a12.042 12.042 0 0 0 8.838-3.662 12.042 12.042 0 0 0 3.662-8.838V47.917a12.042 12.042 0 0 0-3.662-8.838 12.042 12.042 0 0 0-8.838-3.662H47.917a12.042 12.042 0 0 0-8.838 3.662 12.042 12.042 0 0 0-3.662 8.838v104.166zM106.608 100c0 2.875-1.016 5.333-3.05 7.367l-28.308 28.3a6.252 6.252 0 0 1-8.842-8.842l25.359-25.354a2.083 2.083 0 0 0 0-2.95L66.408 73.167a6.25 6.25 0 1 1 8.842-8.838l28.304 28.3a10.042 10.042 0 0 1 3.054 7.371zm24.642 25a6.25 6.25 0 0 1 0 12.5h-12.5a6.25 6.25 0 0 1 0-12.5h12.5z"/></svg>