<svg width="200" height="200" xmlns="http://www.w3.org/2000/svg"><defs><style/></defs><path d="M27.083 154.167V45.833c0-6.904 2.442-12.795 7.321-17.679 4.888-4.879 10.775-7.32 17.68-7.32h95.833c6.904 0 12.795 2.441 17.679 7.32 4.879 4.888 7.32 10.775 7.32 17.68v108.333c0 6.904-2.441 12.796-7.32 17.679-4.888 4.879-10.775 7.32-17.68 7.32H52.084c-6.904 0-12.796-2.441-17.679-7.32-4.879-4.888-7.32-10.775-7.32-17.68zm87.755 12.5l-35.605-9.092a24.346 24.346 0 0 1-13.558-8.887 24.342 24.342 0 0 1-5.258-15.334V66.646c0-5.708 1.75-10.821 5.258-15.333a24.346 24.346 0 0 1 13.558-8.888l35.609-9.092H52.083a12.042 12.042 0 0 0-8.837 3.663 12.042 12.042 0 0 0-3.663 8.837v108.334c0 3.45 1.221 6.396 3.663 8.837a12.042 12.042 0 0 0 8.837 3.663h62.755zM100 93.75a8.333 8.333 0 1 0 0 16.667 8.333 8.333 0 0 0 0-16.667z"/></svg>