<svg width="200" height="200" xmlns="http://www.w3.org/2000/svg"><defs><style/></defs><path d="M34.404 28.154c4.888-4.879 10.775-7.32 17.68-7.32h95.833c6.904 0 12.795 2.441 17.679 7.32 4.879 4.888 7.32 10.775 7.32 17.68v108.333c0 6.904-2.441 12.796-7.32 17.679-4.888 4.879-10.775 7.32-17.68 7.32H52.084c-6.904 0-12.796-2.441-17.679-7.32-4.879-4.888-7.32-10.775-7.32-17.68V45.834c0-6.904 2.441-12.796 7.32-17.679zm46.913 14.271l35.608-9.092H52.083a12.042 12.042 0 0 0-8.837 3.663 12.042 12.042 0 0 0-3.663 8.837v108.334c0 3.45 1.221 6.396 3.663 8.837a12.042 12.042 0 0 0 8.837 3.663h64.838l-35.604-9.092a24.346 24.346 0 0 1-13.559-8.887 24.342 24.342 0 0 1-5.258-15.334V66.646c0-5.708 1.75-10.821 5.258-15.333a24.346 24.346 0 0 1 13.559-8.888zm74.266-1.075c-3.22-2.5-6.808-3.25-10.758-2.238L84.408 54.537a12.17 12.17 0 0 0-6.779 4.442A12.17 12.17 0 0 0 75 66.646v66.708c0 2.854.875 5.413 2.625 7.667 1.754 2.254 4.017 3.737 6.783 4.441l60.417 15.43c3.95 1.008 7.542.262 10.758-2.242 3.221-2.5 4.834-5.792 4.834-9.875v-97.55c0-4.08-1.613-7.367-4.834-9.87zM91.667 100a8.333 8.333 0 1 1 16.666 0 8.333 8.333 0 0 1-16.666 0z"/></svg>