<svg width="200" height="200" xmlns="http://www.w3.org/2000/svg"><defs><style/></defs><path d="M22.917 152.083V47.917c0-6.904 2.441-12.796 7.32-17.68 4.888-4.879 10.776-7.32 17.68-7.32h104.166c6.904 0 12.796 2.441 17.68 7.32 4.879 4.888 7.32 10.775 7.32 17.68v104.166c0 6.904-2.441 12.796-7.32 17.68-4.888 4.879-10.776 7.32-17.68 7.32H47.917c-6.905 0-12.796-2.441-17.68-7.32-4.879-4.888-7.32-10.776-7.32-17.68zM150 35.417V81.25c0 4.604-1.625 8.53-4.883 11.783a16.058 16.058 0 0 1-11.784 4.884H66.667a16.058 16.058 0 0 1-11.784-4.884A16.058 16.058 0 0 1 50 81.25V35.417h-2.083a12.042 12.042 0 0 0-8.838 3.662 12.042 12.042 0 0 0-3.662 8.838v104.166c0 3.45 1.22 6.396 3.662 8.838a12.042 12.042 0 0 0 8.838 3.662h104.166a12.042 12.042 0 0 0 8.838-3.662 12.042 12.042 0 0 0 3.662-8.838V47.917a12.042 12.042 0 0 0-3.662-8.838 12.042 12.042 0 0 0-8.838-3.662H150zm-87.5 0V81.25c0 1.15.408 2.133 1.22 2.946a4.013 4.013 0 0 0 2.947 1.22h66.666a4.013 4.013 0 0 0 2.946-1.22 4.013 4.013 0 0 0 1.221-2.946V35.417h-75zm52.083 18.75a6.25 6.25 0 0 1 12.5 0v12.5a6.25 6.25 0 0 1-12.5 0v-12.5z"/></svg>