<svg width="200" height="200" xmlns="http://www.w3.org/2000/svg"><defs><style/></defs><path d="M100 183.333c46.025 0 83.333-37.308 83.333-83.333S146.025 16.667 100 16.667 16.667 53.975 16.667 100 53.975 183.333 100 183.333zm8.333-118.75a8.333 8.333 0 1 1-16.666 0 8.333 8.333 0 0 1 16.666 0zm-6.25 18.75a6.25 6.25 0 0 1 6.25 6.25v39.584h8.334a6.25 6.25 0 0 1 0 12.5H87.5a6.25 6.25 0 0 1 0-12.5h8.333V95.833h-6.25a6.25 6.25 0 0 1-6.22-5.646l-.03-.604a6.25 6.25 0 0 1 6.25-6.25h12.5z" fill-rule="evenodd"/></svg>