<svg width="200" height="200" xmlns="http://www.w3.org/2000/svg"><defs><style/></defs><path d="M100 14.583c47.175 0 85.417 38.242 85.417 85.417S147.175 185.417 100 185.417 14.583 147.175 14.583 100 52.825 14.583 100 14.583zm0 16.667c-37.97 0-68.75 30.78-68.75 68.75s30.78 68.75 68.75 68.75 68.75-30.78 68.75-68.75S137.97 31.25 100 31.25zm2.083 50a8.333 8.333 0 0 1 8.334 8.333v37.5h6.25a8.333 8.333 0 0 1 0 16.667H87.5a8.333 8.333 0 0 1 0-16.667h6.25V97.917h-4.167a8.333 8.333 0 0 1-8.312-7.709l-.021-.625a8.333 8.333 0 0 1 8.333-8.333h12.5zM100 52.083a10.417 10.417 0 1 1 0 20.834 10.417 10.417 0 0 1 0-20.834z"/></svg>