<svg width="200" height="200" xmlns="http://www.w3.org/2000/svg"><defs><style/></defs><path d="M154.167 22.917H45.833a29.167 29.167 0 0 0-29.166 29.166v95.834a29.167 29.167 0 0 0 29.166 29.166h108.334a29.167 29.167 0 0 0 29.166-29.166V52.083a29.167 29.167 0 0 0-29.166-29.166zm0 20.833a8.333 8.333 0 0 1 8.333 8.333v5.034c-.317.141-.633.296-.942.47L100 92.213 38.442 57.587a10.542 10.542 0 0 0-.942-.47v-5.034a8.333 8.333 0 0 1 8.333-8.333h108.334zM37.5 80.958l55.35 31.138a14.583 14.583 0 0 0 14.3 0l55.35-31.134v66.955a8.333 8.333 0 0 1-8.333 8.333H45.833a8.333 8.333 0 0 1-8.333-8.333V80.958z"/></svg>