<svg width="200" height="200" xmlns="http://www.w3.org/2000/svg"><defs><style/></defs><path d="M139.583 16.667A8.333 8.333 0 0 1 147.917 25v125.737l14.558-16.641a8.334 8.334 0 1 1 12.546 10.975l-29.167 33.333a8.333 8.333 0 0 1-14.604-5.487V25a8.333 8.333 0 0 1 8.333-8.333zM79.271 137.87H63.396l7.683-17.408 8.192 17.408zm7.841 16.667l9.513 20.212a8.335 8.335 0 0 0 15.083-7.096l-29.441-62.562q-1.638-3.48-4.904-5.421-3.021-1.796-6.559-1.754-3.542.041-6.517 1.916-3.216 2.017-4.766 5.538l-27.563 62.462a8.333 8.333 0 1 0 15.246 6.73v-.005l8.833-20.025h31.071zm17.055-64.955H39.583a8.333 8.333 0 0 1-5.475-14.616l47.809-41.634H39.583a8.333 8.333 0 0 1 0-16.666h64.584a8.333 8.333 0 0 1 5.475 14.616L61.833 72.917h42.334a8.333 8.333 0 1 1 0 16.666z"/></svg>