<svg width="200" height="200" xmlns="http://www.w3.org/2000/svg"><defs><style/></defs><path d="M139.583 18.75a6.25 6.25 0 0 1 6.25 6.25v131.283l18.209-20.812a6.251 6.251 0 1 1 9.412 8.229l-29.167 33.333a6.25 6.25 0 0 1-10.954-4.116V25a6.25 6.25 0 0 1 6.25-6.25zM82.554 141.654H60.2l10.817-24.517 11.537 24.517zm5.883 12.5l10.076 21.408a6.25 6.25 0 0 0 11.308-5.32v-.009L80.375 107.68q-1.363-2.904-4.083-4.516-2.517-1.5-5.467-1.463-2.954.033-5.433 1.592-2.675 1.683-3.971 4.616l-27.554 62.475A6.25 6.25 0 1 0 45.3 175.43l9.387-21.27h33.75zm15.73-64.583H39.583a6.25 6.25 0 0 1-4.104-10.963l51.996-45.291H39.583a6.25 6.25 0 1 1 0-12.5h64.584a6.25 6.25 0 0 1 4.104 10.966L56.275 77.071h47.892a6.25 6.25 0 0 1 0 12.5z"/></svg>