<svg width="200" height="200" xmlns="http://www.w3.org/2000/svg"><defs><style/></defs><path d="M40.02 50.292c1.942-.167 5.267-.259 9.98-.284.013-3.575.083-6.083.2-7.529.25-2.937.88-5.387 1.896-7.35a18.358 18.358 0 0 1 8.033-8.033c1.959-1.017 4.413-1.65 7.35-1.896 1.604-.133 4.53-.2 8.771-.2h47.5c4.242 0 7.167.067 8.77.2 2.938.25 5.388.88 7.35 1.896a18.358 18.358 0 0 1 8.034 8.033c1.017 1.958 1.646 4.413 1.896 7.35.12 1.442.187 3.954.196 7.53 4.712.024 8.041.12 9.983.283 3.992.333 7.275 1.166 9.846 2.5a24.48 24.48 0 0 1 10.713 10.716c1.333 2.571 2.166 5.854 2.504 9.846.196 2.321.291 6.617.291 12.896v52.5c0 6.28-.096 10.575-.291 12.896-.334 3.992-1.167 7.275-2.5 9.846a24.48 24.48 0 0 1-10.717 10.712c-2.57 1.333-5.854 2.167-9.846 2.504-2.32.196-6.62.292-12.896.292H52.917c-6.28 0-10.575-.096-12.896-.292-3.992-.333-7.275-1.166-9.846-2.5a24.48 24.48 0 0 1-10.712-10.716c-1.334-2.571-2.167-5.854-2.505-9.846-.195-2.321-.291-6.621-.291-12.896v-52.5c0-6.275.096-10.575.291-12.896.334-3.991 1.167-7.275 2.5-9.846a24.48 24.48 0 0 1 10.717-10.712c2.57-1.333 5.854-2.167 9.846-2.504zm96.784-9.409a6.142 6.142 0 0 0-2.687-2.687c-.892-.463-4.346-.696-10.367-.696h-47.5c-6.02 0-9.475.233-10.367.696a6.142 6.142 0 0 0-2.687 2.687c-.433.83-.663 3.867-.692 9.117h74.992c-.03-5.25-.263-8.292-.692-9.117zM41.067 62.746c-2.334.196-4.046.579-5.142 1.146a12.267 12.267 0 0 0-5.367 5.366c-.566 1.096-.95 2.809-1.146 5.142-.162 1.97-.245 5.92-.245 11.85v52.5c0 5.93.083 9.88.25 11.85.191 2.333.575 4.046 1.141 5.142 1.221 2.354 3.013 4.146 5.367 5.366 1.096.567 2.808.95 5.142 1.146 1.97.167 5.92.246 11.85.246h94.166c5.93 0 9.88-.083 11.85-.25 2.334-.192 4.046-.575 5.142-1.142a12.262 12.262 0 0 0 5.367-5.366c.566-1.096.95-2.809 1.145-5.142.167-1.97.246-5.92.246-11.85v-52.5c0-5.93-.083-9.88-.25-11.85-.191-2.333-.575-4.046-1.141-5.142a12.262 12.262 0 0 0-5.367-5.366c-1.096-.567-2.808-.95-5.142-1.146-1.97-.167-5.92-.246-11.85-.246H52.917c-5.93 0-9.88.083-11.85.25zM139.583 87.5a6.25 6.25 0 0 1 0 12.5H60.417a6.25 6.25 0 0 1 0-12.5h79.166z"/></svg>