<svg width="200" height="200" xmlns="http://www.w3.org/2000/svg"><defs><style/></defs><path d="M50.2 42.48c.25-2.938.88-5.388 1.896-7.35a18.358 18.358 0 0 1 8.033-8.034c1.959-1.017 4.413-1.65 7.35-1.896 1.604-.133 4.53-.2 8.771-.2h47.5c4.242 0 7.167.067 8.77.2 2.938.25 5.388.88 7.35 1.896a18.358 18.358 0 0 1 8.034 8.033c1.017 1.958 1.646 4.413 1.896 7.35.12 1.446.187 3.958.196 7.538 9.754.075 15.416.487 19.825 2.775a25.112 25.112 0 0 1 10.72 10.72C183.305 68.837 183.334 76 183.334 90v45c0 14-.029 21.158-2.791 26.488a25.112 25.112 0 0 1-10.721 10.72c-5.33 2.763-12.488 2.792-26.488 2.792H56.667c-14 0-21.159-.03-26.488-2.792a25.112 25.112 0 0 1-10.72-10.72C16.695 156.157 16.666 149 16.666 135V90c0-14 .029-21.163 2.791-26.488a25.112 25.112 0 0 1 10.721-10.72C34.583 50.5 40.25 50.092 50 50.017c.012-3.584.083-6.092.2-7.538zM62.504 50h74.992c-.03-5.25-.263-8.292-.692-9.117a6.142 6.142 0 0 0-2.687-2.687c-.892-.463-4.346-.696-10.367-.696h-47.5c-6.02 0-9.475.233-10.367.696a6.142 6.142 0 0 0-2.687 2.687c-.433.83-.663 3.867-.692 9.117zm-2.087 50h79.166a6.25 6.25 0 0 0 0-12.5H60.417a6.25 6.25 0 0 0 0 12.5z"/></svg>