<svg width="200" height="200" xmlns="http://www.w3.org/2000/svg"><defs><style/></defs><path d="M139.55 29.167h.033c4.63 0 7.821.054 9.584.166 2.979.188 5.475.654 7.475 1.4a24.725 24.725 0 0 1 8.954 5.754 24.725 24.725 0 0 1 5.754 8.959c.746 2 1.208 4.492 1.4 7.475.113 1.754.167 4.95.167 9.579v85.417c0 4.629-.054 7.82-.167 9.583-.187 2.98-.654 5.475-1.4 7.475a24.73 24.73 0 0 1-5.754 8.954 24.72 24.72 0 0 1-8.958 5.754c-2 .746-4.492 1.209-7.475 1.4-1.759.113-4.95.167-9.58.167H62.5c-4.63 0-7.825-.054-9.583-.167-2.98-.187-5.475-.654-7.475-1.4a24.725 24.725 0 0 1-8.955-5.754 24.725 24.725 0 0 1-5.754-8.958c-.746-2-1.208-4.492-1.4-7.475-.112-1.759-.166-4.95-.166-9.58a6.25 6.25 0 0 1 12.5 0c0 7.067.258 11.3.779 12.696 1.333 3.575 3.783 6.025 7.358 7.359 1.396.52 5.63.779 12.696.779h77.083c7.067 0 11.3-.258 12.696-.78 3.575-1.333 6.025-3.783 7.358-7.358.521-1.395.78-5.629.78-12.695V62.5c0-7.067-.259-11.3-.78-12.696-1.333-3.575-3.783-6.025-7.358-7.358-1.396-.521-5.629-.78-12.696-.78h-.033a16.667 16.667 0 0 1-16.633 15.626h-43.75a16.667 16.667 0 0 1-16.634-15.625H62.5c-7.067 0-11.3.258-12.696.779-3.575 1.333-6.025 3.783-7.358 7.358-.521 1.396-.78 5.63-.78 12.696v10.417a6.25 6.25 0 0 1-12.5 0V62.5c0-4.63.055-7.82.167-9.583.188-2.98.654-5.475 1.4-7.475a24.725 24.725 0 0 1 5.754-8.955 24.725 24.725 0 0 1 8.959-5.754c2-.746 4.492-1.208 7.475-1.4 1.754-.112 4.95-.166 9.579-.166h.033a16.667 16.667 0 0 1 16.634-15.625h43.75a16.667 16.667 0 0 1 16.633 15.625zm-12.467 6.25v-5.209a4.167 4.167 0 0 0-4.166-4.166h-43.75A4.167 4.167 0 0 0 75 30.208v10.417a4.167 4.167 0 0 0 4.167 4.167h43.75a4.167 4.167 0 0 0 4.166-4.167v-5.208zM93.808 82.892l25 22.916a6.25 6.25 0 0 1 0 9.213l-25 22.917a6.25 6.25 0 0 1-8.45-9.209l13.159-12.062h-63.1a6.25 6.25 0 0 1 0-12.5h63.1L85.358 92.108a6.252 6.252 0 1 1 8.45-9.216z"/></svg>