<svg width="200" height="200" xmlns="http://www.w3.org/2000/svg"><defs><style/></defs><path d="M138.508 29.167h8.367a25 25 0 0 1 25 25V156.25a25 25 0 0 1-25 25h-93.75a25 25 0 0 1-25-25V54.167a25 25 0 0 1 25-25h8.367a16.667 16.667 0 0 1 16.633-15.625h43.75a16.667 16.667 0 0 1 16.633 15.625zm-16.633 28.125h-43.75a16.667 16.667 0 0 1-16.633-15.625h-8.367a12.5 12.5 0 0 0-12.5 12.5V156.25a12.5 12.5 0 0 0 12.5 12.5h93.75a12.5 12.5 0 0 0 12.5-12.5V54.167a12.5 12.5 0 0 0-12.5-12.5h-8.367a16.667 16.667 0 0 1-16.633 15.625zM73.958 35.417v5.208a4.167 4.167 0 0 0 4.167 4.167h43.75a4.167 4.167 0 0 0 4.167-4.167V30.208a4.167 4.167 0 0 0-4.167-4.166h-43.75a4.167 4.167 0 0 0-4.167 4.166v5.209zm59.375 56.25a6.25 6.25 0 0 1-1.833 4.416l-37.5 37.5a6.25 6.25 0 0 1-8.833 0L68.5 116.917a6.25 6.25 0 0 1 8.833-8.834l12.25 12.246 33.084-33.083a6.25 6.25 0 0 1 10.666 4.42z"/></svg>