<svg width="200" height="200" xmlns="http://www.w3.org/2000/svg"><defs><style/></defs><path d="M142.054 25h4.821a29.167 29.167 0 0 1 29.167 29.167V156.25a29.167 29.167 0 0 1-29.167 29.167h-93.75a29.167 29.167 0 0 1-29.167-29.167V54.167A29.167 29.167 0 0 1 53.125 25h4.825A20.842 20.842 0 0 1 78.125 9.375h43.75A20.842 20.842 0 0 1 142.055 25zm-20.179 10.417v-5.209h-43.75v10.417h43.75v-5.208zm-68.75 10.416a8.333 8.333 0 0 0-8.333 8.334V156.25a8.333 8.333 0 0 0 8.333 8.333h93.75a8.333 8.333 0 0 0 8.333-8.333V54.167a8.333 8.333 0 0 0-8.333-8.334h-4.82a20.842 20.842 0 0 1-20.18 15.625h-43.75A20.842 20.842 0 0 1 57.95 45.833h-4.825zm82.292 42.709A10.417 10.417 0 0 1 125 98.958H75a10.417 10.417 0 0 1 0-20.833h50a10.417 10.417 0 0 1 10.417 10.417zM75 114.583h50a10.417 10.417 0 1 1 0 20.834H75a10.417 10.417 0 0 1 0-20.834z"/></svg>