<svg width="200" height="200" xmlns="http://www.w3.org/2000/svg"><defs><style/></defs><path d="M71.487 36.575c-.645-1.525-.654-3.525-.654-7.408s.009-5.884.654-7.409a8.363 8.363 0 0 1 4.434-4.437c1.529-.646 3.533-.654 7.412-.654h33.334c3.883 0 5.883.008 7.412.654a8.384 8.384 0 0 1 4.433 4.437c.646 1.525.655 3.525.655 7.409s-.009 5.883-.655 7.408a8.363 8.363 0 0 1-4.433 4.437c-1.529.646-3.529.655-7.412.655H83.333c-3.883 0-5.883-.009-7.412-.655a8.363 8.363 0 0 1-4.434-4.437zM28.125 56.437c0-2.108 0-3.25.067-4.137a25.004 25.004 0 0 1 23.066-23.067c.892-.062 2.03-.066 4.138-.066h.666l.342.004a2.083 2.083 0 0 1 1.93 2.266c0 1.763 0 2.709.058 3.45a20.838 20.838 0 0 0 19.22 19.221c.742.055 1.688.059 3.45.059h37.876c1.758 0 2.708 0 3.45-.059a20.838 20.838 0 0 0 19.22-19.22c.059-.742.059-1.688.059-3.45l.004-.342a2.083 2.083 0 0 1 2.27-1.93h.659c2.112 0 3.25 0 4.142.067A25.004 25.004 0 0 1 171.804 52.3c.067.892.071 2.03.071 4.138v97.541c0 2.109 0 3.25-.07 4.138a25.004 25.004 0 0 1-23.063 23.062 63.125 63.125 0 0 1-4.142.071H55.396c-2.109 0-3.25 0-4.138-.07a25.004 25.004 0 0 1-23.066-23.063 63.25 63.25 0 0 1-.067-4.138V56.438zm107.35 51.459l-25-22.917a6.25 6.25 0 0 0-8.45 9.208l13.158 12.063H68.75a6.25 6.25 0 0 0 0 12.5h46.433l-13.154 12.058a6.25 6.25 0 1 0 8.446 9.217l25-22.917a6.25 6.25 0 0 0 0-9.216z"/></svg>