<svg width="200" height="200" xmlns="http://www.w3.org/2000/svg"><defs><style/></defs><path d="M141.667 106.25a35.417 35.417 0 0 1 29.87 54.446l-.8 1.2 7.642 7.642a6.25 6.25 0 0 1-8.367 9.27l-.475-.429-7.641-7.642a35.417 35.417 0 1 1-20.23-64.487zm-72.917 0a25 25 0 0 1 25 25v20.833a25 25 0 0 1-25 25H47.917a25 25 0 0 1-25-25V131.25a25 25 0 0 1 25-25H68.75zm0 12.5H47.917a12.5 12.5 0 0 0-12.5 12.5v20.833a12.5 12.5 0 0 0 12.5 12.5H68.75a12.5 12.5 0 0 0 12.5-12.5V131.25a12.5 12.5 0 0 0-12.5-12.5zm72.917 0a22.917 22.917 0 1 0 0 45.833 22.917 22.917 0 0 0 0-45.833zM68.75 22.917a25 25 0 0 1 25 25V68.75a25 25 0 0 1-25 25H47.917a25 25 0 0 1-25-25V47.917a25 25 0 0 1 25-25H68.75zm83.333 0a25 25 0 0 1 25 25V68.75a25 25 0 0 1-25 25H131.25a25 25 0 0 1-25-25V47.917a25 25 0 0 1 25-25h20.833zm-83.333 12.5H47.917a12.5 12.5 0 0 0-12.5 12.5V68.75a12.5 12.5 0 0 0 12.5 12.5H68.75a12.5 12.5 0 0 0 12.5-12.5V47.917a12.5 12.5 0 0 0-12.5-12.5zm83.333 0H131.25a12.5 12.5 0 0 0-12.5 12.5V68.75a12.5 12.5 0 0 0 12.5 12.5h20.833a12.5 12.5 0 0 0 12.5-12.5V47.917a12.5 12.5 0 0 0-12.5-12.5z"/></svg>