<svg width="200" height="200" xmlns="http://www.w3.org/2000/svg"><defs><style/></defs><path d="M47.917 18.75h18.75a29.167 29.167 0 0 1 29.166 29.167v18.75a29.167 29.167 0 0 1-29.166 29.166h-18.75A29.167 29.167 0 0 1 18.75 66.667v-18.75A29.167 29.167 0 0 1 47.917 18.75zm85.416 0h18.75a29.167 29.167 0 0 1 29.167 29.167v18.75a29.167 29.167 0 0 1-29.167 29.166h-18.75a29.167 29.167 0 0 1-29.166-29.166v-18.75a29.167 29.167 0 0 1 29.166-29.167zM75 47.917a8.333 8.333 0 0 0-8.333-8.334h-18.75a8.333 8.333 0 0 0-8.334 8.334v18.75A8.333 8.333 0 0 0 47.917 75h18.75A8.333 8.333 0 0 0 75 66.667v-18.75zm85.417 0a8.333 8.333 0 0 0-8.334-8.334h-18.75A8.333 8.333 0 0 0 125 47.917v18.75A8.333 8.333 0 0 0 133.333 75h18.75a8.333 8.333 0 0 0 8.334-8.333v-18.75zm-112.5 56.25h18.75a29.167 29.167 0 0 1 29.166 29.166v18.75a29.167 29.167 0 0 1-29.166 29.167h-18.75a29.167 29.167 0 0 1-29.167-29.167v-18.75a29.167 29.167 0 0 1 29.167-29.166zm128.395 57.416a38.542 38.542 0 1 0-14.729 14.73l5.009 5.012a10.418 10.418 0 0 0 14.733-14.733l-5.013-5.009zm-22.062-5.446a17.708 17.708 0 1 1 1.887-1.887 10.47 10.47 0 0 0-1.887 1.887zM75 133.333A8.333 8.333 0 0 0 66.667 125h-18.75a8.333 8.333 0 0 0-8.334 8.333v18.75a8.333 8.333 0 0 0 8.334 8.334h18.75A8.333 8.333 0 0 0 75 152.083v-18.75z"/></svg>