<svg width="200" height="200" xmlns="http://www.w3.org/2000/svg"><defs><style/></defs><path d="M141.667 104.167a37.5 37.5 0 0 1 32.475 56.25l-.73 1.208 6.438 6.442a8.333 8.333 0 0 1-11.254 12.27l-.53-.487-6.437-6.438a37.5 37.5 0 1 1-19.962-69.245zm-72.917 0a27.083 27.083 0 0 1 27.083 27.083v20.833a27.083 27.083 0 0 1-27.083 27.084H47.917a27.083 27.083 0 0 1-27.084-27.084V131.25a27.083 27.083 0 0 1 27.084-27.083H68.75zm0 16.666H47.917A10.417 10.417 0 0 0 37.5 131.25v20.833A10.417 10.417 0 0 0 47.917 162.5H68.75a10.417 10.417 0 0 0 10.417-10.417V131.25a10.417 10.417 0 0 0-10.417-10.417zm72.917 0a20.833 20.833 0 1 0 0 41.667 20.833 20.833 0 0 0 0-41.667zm-72.917-100a27.083 27.083 0 0 1 27.083 27.084V68.75A27.083 27.083 0 0 1 68.75 95.833H47.917A27.083 27.083 0 0 1 20.833 68.75V47.917a27.083 27.083 0 0 1 27.084-27.084H68.75zm83.333 0a27.083 27.083 0 0 1 27.084 27.084V68.75a27.083 27.083 0 0 1-27.084 27.083H131.25a27.083 27.083 0 0 1-27.083-27.083V47.917a27.083 27.083 0 0 1 27.083-27.084h20.833zM68.75 37.5H47.917A10.417 10.417 0 0 0 37.5 47.917V68.75a10.417 10.417 0 0 0 10.417 10.417H68.75A10.417 10.417 0 0 0 79.167 68.75V47.917A10.417 10.417 0 0 0 68.75 37.5zm83.333 0H131.25a10.417 10.417 0 0 0-10.417 10.417V68.75a10.417 10.417 0 0 0 10.417 10.417h20.833A10.417 10.417 0 0 0 162.5 68.75V47.917A10.417 10.417 0 0 0 152.083 37.5z"/></svg>