<svg width="200" height="200" xmlns="http://www.w3.org/2000/svg"><defs><style/></defs><path d="M31.25 41.667a6.25 6.25 0 0 0 0 12.5h8.333a6.25 6.25 0 1 0 0-12.5H31.25zm37.5 0a6.25 6.25 0 1 0 0 12.5h100a6.25 6.25 0 0 0 0-12.5h-100zM31.25 93.75a6.25 6.25 0 0 0 0 12.5h8.333a6.25 6.25 0 0 0 0-12.5H31.25zM62.5 100a6.25 6.25 0 0 1 6.25-6.25h100a6.25 6.25 0 0 1 0 12.5h-100A6.25 6.25 0 0 1 62.5 100zm-31.25 45.833a6.25 6.25 0 0 0 0 12.5h8.333a6.25 6.25 0 0 0 0-12.5H31.25zm31.25 6.25a6.25 6.25 0 0 1 6.25-6.25h100a6.25 6.25 0 0 1 0 12.5h-100a6.25 6.25 0 0 1-6.25-6.25z" fill-rule="evenodd"/></svg>