<svg width="200" height="200" xmlns="http://www.w3.org/2000/svg"><defs><style/></defs><path d="M115.32 14.583a25 25 0 0 1 23.892 17.646l4.188 13.604h33.683a6.25 6.25 0 0 1 0 12.5h-8.741l-6.759 99.609a25 25 0 0 1-24.941 23.308H63.35a25 25 0 0 1-24.942-23.308l-6.745-99.609h-8.746a6.25 6.25 0 0 1 0-12.5H56.6l4.188-13.604a25 25 0 0 1 23.895-17.646h30.634zm-45.64 31.25h60.64l-3.053-9.925a12.5 12.5 0 0 0-11.946-8.825H84.683a12.5 12.5 0 0 0-11.95 8.825l-3.054 9.925zm-25.493 12.5l6.696 98.763a12.5 12.5 0 0 0 12.471 11.654h73.292a12.5 12.5 0 0 0 12.47-11.654l6.696-98.763H44.187zm39.146 25a6.25 6.25 0 0 1 6.25 6.25v41.667a6.25 6.25 0 0 1-12.5 0V89.583a6.25 6.25 0 0 1 6.25-6.25zm33.334 0a6.25 6.25 0 0 1 6.25 6.25v41.667a6.25 6.25 0 0 1-12.5 0V89.583a6.25 6.25 0 0 1 6.25-6.25z"/></svg>