<svg width="200" height="200" xmlns="http://www.w3.org/2000/svg"><defs><style/></defs><path d="M115.32 14.583a25 25 0 0 1 23.897 17.646l4.183 13.604h33.683a6.25 6.25 0 0 1 0 12.5h-8.741l-6.75 99.609a25 25 0 0 1-24.946 23.308H63.354a25 25 0 0 1-24.942-23.308l-6.75-99.609h-8.745a6.25 6.25 0 1 1 0-12.5h33.687l4.184-13.604a25 25 0 0 1 23.895-17.646h30.638zm11.947 21.325a12.5 12.5 0 0 0-11.946-8.825H84.683a12.5 12.5 0 0 0-11.946 8.825l-3.054 9.925h60.638l-3.054-9.925zM83.333 83.333a6.25 6.25 0 0 0-6.25 6.25v41.667a6.25 6.25 0 0 0 12.5 0V89.583a6.25 6.25 0 0 0-6.25-6.25zm39.584 6.25a6.25 6.25 0 0 0-12.5 0v41.667a6.25 6.25 0 0 0 12.5 0V89.583z"/></svg>