<svg width="200" height="200" xmlns="http://www.w3.org/2000/svg"><defs><style/></defs><path d="M100.167 16.667a83.33 83.33 0 0 1 59.041 24.404 83.737 83.737 0 0 1 14.834 20.054 6.25 6.25 0 0 1-11.046 5.846 70.825 70.825 0 0 0-12.621-17.054 70.833 70.833 0 0 0-50.208-20.75c-35.367 0-64.688 25.791-70.104 59.55l18.695-10.684a6.25 6.25 0 0 1 6.2 10.854l-28.845 16.488a6.225 6.225 0 0 1-6.38.008 6.263 6.263 0 0 1-3.066-5.491c.058-45.975 37.425-83.225 83.5-83.225zm-.334 166.666a83.33 83.33 0 0 1-59.041-24.404 83.742 83.742 0 0 1-14.834-20.054 6.25 6.25 0 0 1 11.046-5.846 70.78 70.78 0 0 0 12.617 17.054 70.833 70.833 0 0 0 50.212 20.75c35.371 0 64.692-25.791 70.109-59.55l-18.696 10.684a6.25 6.25 0 0 1-6.2-10.854l28.846-16.484a6.217 6.217 0 0 1 3.8-.85 6.208 6.208 0 0 1 4.462 2.563 6.22 6.22 0 0 1 1.184 3.77c-.067 45.971-37.43 83.221-83.505 83.221z"/></svg>