<svg width="200" height="200" xmlns="http://www.w3.org/2000/svg"><defs><style/></defs><path d="M171.72 53.12a86.332 86.332 0 0 1 4.168 7.03 8.334 8.334 0 0 1-14.734 7.796 69.133 69.133 0 0 0-12.25-16.554 68.75 68.75 0 0 0-48.737-20.142c-32.25 0-59.321 22.096-66.842 51.937l-.35 1.463L47.95 76.1a8.333 8.333 0 0 1 11.025 2.546l.342.554a8.333 8.333 0 0 1-3.1 11.37L27.05 107.239c-5.55 3.166-12.467-.842-12.467-7.238 0-47.18 38.321-85.417 85.584-85.417 23 0 44.57 9.104 60.512 25.013a85.793 85.793 0 0 1 11.042 13.525zM99.834 185.418a85.408 85.408 0 0 1-60.512-25.013 85.792 85.792 0 0 1-15.208-20.554 8.334 8.334 0 1 1 14.733-7.796 68.692 68.692 0 0 0 12.25 16.554 68.75 68.75 0 0 0 48.737 20.142c32.25 0 59.321-22.096 66.842-51.938l.346-1.466-14.971 8.554a8.333 8.333 0 0 1-11.025-2.546l-.342-.554a8.333 8.333 0 0 1 3.1-11.37l29.167-16.668c5.554-3.17 12.467.838 12.467 7.238 0 47.18-38.321 85.417-85.584 85.417z"/></svg>