<svg width="200" height="200" xmlns="http://www.w3.org/2000/svg"><defs><style/></defs><path d="M189.583 53.125v22.446a20.796 20.796 0 0 1-8.762 16.95l-.771.562C176.354 95.867 175 98.104 175 100c0 2.02 1.542 4.433 5.808 7.467a20.808 20.808 0 0 1 8.775 16.97v22.438a29.167 29.167 0 0 1-29.166 29.167H39.583a29.167 29.167 0 0 1-29.166-29.167v-22.45a20.796 20.796 0 0 1 8.762-16.946C23.46 104.433 25 102.021 25 100c0-2.025-1.542-4.433-5.808-7.467l-.85-.637a20.813 20.813 0 0 1-7.925-16.334V53.125a29.167 29.167 0 0 1 29.166-29.167h120.834a29.167 29.167 0 0 1 29.166 29.167zm-150-8.333a8.333 8.333 0 0 0-8.333 8.333l-.004 22.417C40.212 81.917 45.42 89.775 45.808 98.9l.025 1.1c0 9.592-5.262 17.83-14.583 24.454v22.417a8.333 8.333 0 0 0 7.708 8.312l.625.025h120.834a8.333 8.333 0 0 0 8.333-8.333v-22.417c-9.32-6.633-14.583-14.87-14.583-24.458 0-9.596 5.262-17.83 14.583-24.463V53.121a8.333 8.333 0 0 0-7.708-8.309l-.625-.02H39.583zM100 76.887l14.725-18.741a10.419 10.419 0 1 1 16.383 12.875l-8.858 11.27h.667a10.417 10.417 0 0 1 0 20.834h-12.5v6.25h12.5a10.417 10.417 0 0 1 0 20.833h-12.5v6.25a10.417 10.417 0 1 1-20.834 0v-6.25h-12.5a10.417 10.417 0 1 1 0-20.833h12.5v-6.25h-12.5a10.417 10.417 0 1 1 0-20.833h.667L68.892 71.02a10.419 10.419 0 0 1 16.383-12.875L100 76.888z"/></svg>