<svg width="200" height="200" xmlns="http://www.w3.org/2000/svg"><defs><style/></defs><path d="M185.417 53.125v22.442a16.633 16.633 0 0 1-7.009 13.558l-.904.662c-4.646 3.521-6.67 6.88-6.67 10.209 0 3.541 2.283 7.116 7.566 10.87a16.642 16.642 0 0 1 7.017 13.571v22.438a25 25 0 0 1-25 25H39.583a25 25 0 0 1-25-25v-22.446a16.633 16.633 0 0 1 7.009-13.554l.904-.667c4.646-3.512 6.67-6.875 6.67-10.208 0-3.542-2.283-7.112-7.566-10.867l-.754-.57a16.642 16.642 0 0 1-6.263-13V53.125a25 25 0 0 1 25-25h120.834a25 25 0 0 1 25 25zm-145.834-12.5a12.5 12.5 0 0 0-12.5 12.5v22.43a4.14 4.14 0 0 0 1.75 3.382C37.154 84.85 41.667 91.921 41.667 100c0 8.08-4.517 15.15-12.842 21.067a4.138 4.138 0 0 0-1.742 3.37v22.438a12.5 12.5 0 0 0 12.5 12.5h120.834a12.5 12.5 0 0 0 12.5-12.5v-22.433a4.142 4.142 0 0 0-1.75-3.38c-8.321-5.916-12.834-12.983-12.834-21.062 0-8.083 4.517-15.15 12.842-21.07a4.133 4.133 0 0 0 1.742-3.367V53.125a12.5 12.5 0 0 0-12.5-12.5H39.583zM100 85.717l18-22.913a6.251 6.251 0 0 1 9.833 7.721L113.68 88.542h9.238a6.25 6.25 0 0 1 0 12.5H106.25v10.416h16.667a6.25 6.25 0 0 1 0 12.5H106.25v10.417a6.25 6.25 0 0 1-12.5 0v-10.417H77.083a6.25 6.25 0 0 1 0-12.5H93.75v-10.416H77.083a6.25 6.25 0 0 1 0-12.5h9.238L72.17 70.525a6.25 6.25 0 0 1 9.825-7.72L100 85.716z"/></svg>