<svg width="200" height="200" xmlns="http://www.w3.org/2000/svg"><defs><style/></defs><path d="M137.5 25a25 25 0 0 1 25 25v9.12l.108.03a25.012 25.012 0 0 1 18.625 23.25l.017.933V150a25 25 0 0 1-25 25H43.75a25 25 0 0 1-25-25V47.917l.017-.921A22.917 22.917 0 0 1 41.667 25H137.5zM41.667 37.5a10.417 10.417 0 0 0 0 20.833H150V50a12.5 12.5 0 0 0-11.042-12.417l-.725-.062-.733-.021H41.667zm2.083 125h112.5a12.5 12.5 0 0 0 12.5-12.5V83.333a12.5 12.5 0 0 0-12.5-12.5H41.667c-3.292 0-6.425-.696-9.25-1.946l-1.167-.554V150a12.5 12.5 0 0 0 12.5 12.5zm89.583-65.625a9.375 9.375 0 1 1 18.75 0 9.375 9.375 0 0 1-18.75 0z"/></svg>