<svg width="200" height="200" xmlns="http://www.w3.org/2000/svg"><defs><style/></defs><path d="M137.5 20.833A29.167 29.167 0 0 1 166.667 50v6.08l.058.024A29.18 29.18 0 0 1 185.4 82.33l.017 1.004V150a29.167 29.167 0 0 1-29.167 29.167H43.75A29.167 29.167 0 0 1 14.583 150V47.917l.017-.971a27.083 27.083 0 0 1 27.067-26.113H137.5zM41.667 41.667a6.25 6.25 0 1 0 0 12.5h104.166V50a8.333 8.333 0 0 0-7.07-8.237l-.642-.075-.621-.021H41.667zm2.083 116.666h112.5a8.333 8.333 0 0 0 8.333-8.333V83.333A8.333 8.333 0 0 0 156.25 75H41.667c-1.95 0-3.855-.208-5.688-.6l-.562-.13V150a8.333 8.333 0 0 0 8.333 8.333zm85.417-59.375a11.458 11.458 0 1 1 22.916 0 11.458 11.458 0 0 1-22.916 0z"/></svg>