<svg width="200" height="200" xmlns="http://www.w3.org/2000/svg"><defs><style/></defs><path d="M108.333 74.917l32.725-46.734a6.284 6.284 0 0 1 10.296 7.209L116 85.892l-7.667-10.975zm53.655 95.195a29.167 29.167 0 0 1-43.071-35.529l-18.509-26.42-19.025 27.166a29.167 29.167 0 1 1-7.595-11.075l18.945-27.058L49.467 35.4a6.287 6.287 0 0 1 10.296-7.208l66.958 95.612a29.05 29.05 0 0 1 19.354-7.137 29.167 29.167 0 0 1 15.908 53.445zm-27.859-35.72l-1.096.766a16.667 16.667 0 1 0 .921-1.016l.175.25zM54.167 162.5a16.667 16.667 0 1 0 0-33.333 16.667 16.667 0 0 0 0 33.333z"/></svg>