<svg width="200" height="200" xmlns="http://www.w3.org/2000/svg"><defs><style/></defs><path d="M100 12.5c48.325 0 87.5 39.175 87.5 87.5s-39.175 87.5-87.5 87.5-87.5-39.175-87.5-87.5S51.675 12.5 100 12.5zm0 20.833c-36.82 0-66.667 29.846-66.667 66.667S63.18 166.667 100 166.667 166.667 136.82 166.667 100 136.82 33.333 100 33.333zm0 22.917a10.417 10.417 0 0 1 10.417 10.417v22.916h22.916a10.417 10.417 0 1 1 0 20.834h-22.916v22.916a10.417 10.417 0 1 1-20.834 0v-22.916H66.667a10.417 10.417 0 1 1 0-20.834h22.916V66.667A10.417 10.417 0 0 1 100 56.25z"/></svg>