<svg width="200" height="200" xmlns="http://www.w3.org/2000/svg"><defs><style/></defs><path d="M100 16.667c46.025 0 83.333 37.308 83.333 83.333S146.025 183.333 100 183.333 16.667 146.025 16.667 100 53.975 16.667 100 16.667zm0 12.5c-39.12 0-70.833 31.712-70.833 70.833S60.879 170.833 100 170.833s70.833-31.712 70.833-70.833S139.121 29.167 100 29.167zm0 31.25a6.25 6.25 0 0 1 6.25 6.25V93.75h27.083a6.25 6.25 0 0 1 0 12.5H106.25v27.083a6.25 6.25 0 0 1-12.5 0V106.25H66.667a6.25 6.25 0 0 1 0-12.5H93.75V66.667a6.25 6.25 0 0 1 6.25-6.25z"/></svg>