<svg width="200" height="200" xmlns="http://www.w3.org/2000/svg"><defs><style/></defs><path d="M154.167 25c6.904 0 12.796 2.442 17.679 7.32 4.879 4.888 7.32 10.776 7.32 17.68v104.167c0 6.904-2.441 12.795-7.32 17.679-4.888 4.879-10.775 7.32-17.68 7.32H50c-6.904 0-12.796-2.441-17.68-7.32-4.878-4.888-7.32-10.775-7.32-17.68V50c0-6.904 2.442-12.796 7.32-17.68C37.209 27.443 43.097 25 50 25h104.167zm0 12.5H50a12.042 12.042 0 0 0-8.837 3.662A12.042 12.042 0 0 0 37.5 50v104.167c0 3.45 1.22 6.4 3.663 8.837A12.042 12.042 0 0 0 50 166.667h104.167a12.042 12.042 0 0 0 8.837-3.663 12.042 12.042 0 0 0 3.663-8.837V50a12.042 12.042 0 0 0-3.663-8.838 12.042 12.042 0 0 0-8.837-3.662zm-52.084 29.167a6.25 6.25 0 0 1 6.25 6.25v22.916h22.917a6.25 6.25 0 0 1 0 12.5h-22.917v22.917a6.25 6.25 0 0 1-12.5 0v-22.917H72.917a6.25 6.25 0 0 1 0-12.5h22.916V72.917a6.25 6.25 0 0 1 6.25-6.25z" fill-rule="evenodd"/></svg>