<svg width="200" height="200" xmlns="http://www.w3.org/2000/svg"><defs><style/></defs><path d="M152.083 22.917c6.904 0 12.796 2.441 17.68 7.32 4.879 4.888 7.32 10.776 7.32 17.68v104.166c0 6.904-2.441 12.796-7.32 17.68-4.888 4.879-10.776 7.32-17.68 7.32H47.917c-6.905 0-12.796-2.441-17.68-7.32-4.879-4.888-7.32-10.776-7.32-17.68V47.917c0-6.905 2.441-12.796 7.32-17.68 4.888-4.879 10.775-7.32 17.68-7.32h104.166zM100 66.667a6.25 6.25 0 0 0-6.25 6.25V93.75H72.917a6.25 6.25 0 0 0 0 12.5H93.75v20.833a6.25 6.25 0 0 0 12.5 0V106.25h20.833a6.25 6.25 0 0 0 0-12.5H106.25V72.917a6.25 6.25 0 0 0-6.25-6.25z"/></svg>