<svg width="200" height="200" xmlns="http://www.w3.org/2000/svg"><defs><style/></defs><path d="M150.425 150.083a70.292 70.292 0 0 0 15.183-22.512A70.054 70.054 0 0 0 171.171 100c0-9.608-1.854-18.8-5.563-27.57a70.27 70.27 0 0 0-15.183-22.518 70.28 70.28 0 0 0-22.517-15.183 70.063 70.063 0 0 0-27.57-5.562c-9.609 0-18.8 1.854-27.567 5.562a70.283 70.283 0 0 0-22.517 15.183 6.25 6.25 0 0 1-8.842-8.837A82.667 82.667 0 0 1 67.9 23.217a82.438 82.438 0 0 1 32.437-6.55c11.305 0 22.117 2.183 32.442 6.55a82.667 82.667 0 0 1 26.488 17.858 82.667 82.667 0 0 1 17.854 26.487A82.442 82.442 0 0 1 183.67 100c0 11.3-2.184 22.112-6.55 32.437a82.667 82.667 0 0 1-17.854 26.488 6.25 6.25 0 1 1-8.842-8.838z"/></svg>