<svg width="200" height="200" xmlns="http://www.w3.org/2000/svg"><defs><style/></defs><path d="M168.237 26.654a27.454 27.454 0 0 1 11.359 11.358c2.775 5.188 3.737 10.167 3.737 19.359v85.254c0 9.192-.958 14.167-3.737 19.358a27.454 27.454 0 0 1-11.359 11.359c-5.187 2.775-10.166 3.737-19.358 3.737H51.125c-9.196 0-14.167-.958-19.358-3.737a27.454 27.454 0 0 1-11.359-11.359c-2.783-5.183-3.741-10.162-3.741-19.358v-85.25c0-9.196.958-14.167 3.737-19.358a27.454 27.454 0 0 1 11.358-11.359c5.188-2.775 10.167-3.737 19.359-3.737h97.754c9.192 0 14.167.958 19.358 3.737zm-5.741 30.8v-1.108c-.034-4.575-.304-6.392-.959-7.883l-.312-.626a6.625 6.625 0 0 0-2.813-2.812c-1.55-.833-3.079-1.188-7.57-1.263l-1.959-.012H50.092c-4.575.037-6.392.308-7.884.967l-.625.308a6.625 6.625 0 0 0-2.812 2.813c-.938 1.758-1.271 3.483-1.271 9.537v.083a29.17 29.17 0 0 1 8.333-1.208h108.334c2.896 0 5.691.425 8.333 1.208zM45.833 89.584l29.725.003A20.82 20.82 0 0 1 94.404 101.6l.375.85c1.234 2.983 2.417 3.804 5.221 3.804 2.604 0 3.804-.708 4.933-3.175l.242-.558a20.808 20.808 0 0 1 19.25-12.934h29.742c2.896 0 5.691.421 8.333 1.209V85.22a8.333 8.333 0 0 0-8.333-8.134H45.833A8.333 8.333 0 0 0 37.5 85.28v5.513a29.175 29.175 0 0 1 8.333-1.209zm-8.333 29.1v24.974c.038 4.575.308 6.392.967 7.884l.308.625a6.593 6.593 0 0 0 2.813 2.812c1.758.942 3.483 1.275 9.533 1.275h98.783c4.575-.037 6.392-.308 7.884-.967l.625-.308a6.625 6.625 0 0 0 2.812-2.812c.942-1.759 1.275-3.484 1.275-9.534v-24.029a8.333 8.333 0 0 0-8.333-8.183h-29.721c-4.4 10.666-13.104 16.666-24.446 16.666-10.97 0-19.475-5.612-24.02-15.624l-.46-1.046H45.834a8.333 8.333 0 0 0-8.312 7.716l-.017.55z"/></svg>