<svg width="200" height="200" xmlns="http://www.w3.org/2000/svg"><defs><style/></defs><path d="M150.27 27.092c7.655.087 11.75.958 16 3.233a23.288 23.288 0 0 1 9.655 9.654c2.408 4.5 3.242 8.825 3.242 17.392v85.254c0 8.567-.834 12.892-3.242 17.392a23.292 23.292 0 0 1-9.654 9.654c-4.5 2.408-8.83 3.242-17.392 3.242H51.125c-8.567 0-12.892-.834-17.392-3.242a23.288 23.288 0 0 1-9.654-9.654c-2.408-4.496-3.246-8.821-3.246-17.388v-24.212l.005-30.667-.005-.25v-2.083l.005-.517V55.983c.091-7.658.966-11.75 3.237-16.004a23.288 23.288 0 0 1 9.654-9.654c4.5-2.404 8.825-3.242 17.392-3.242l99.15.009zm16.397 36.666v-6.383c0-6.68-.459-9.054-1.767-11.5a10.792 10.792 0 0 0-4.525-4.52c-2.442-1.31-4.817-1.767-11.496-1.767H51.125c-6.68 0-9.054.458-11.5 1.766a10.792 10.792 0 0 0-4.52 4.521c-1.313 2.442-1.772 4.817-1.772 11.5v6.388a24.883 24.883 0 0 1 12.5-3.342h108.334c4.554 0 8.82 1.217 12.5 3.342zM33.333 85.417v11.675a24.883 24.883 0 0 1 12.5-3.342h29.721a16.658 16.658 0 0 1 15.017 9.492l.354.8c1.875 4.516 4.567 6.375 9.075 6.375 4.238 0 6.858-1.638 8.696-5.563l.333-.762a16.642 16.642 0 0 1 15.396-10.342h29.742c4.554 0 8.82 1.217 12.5 3.342V85.417a12.5 12.5 0 0 0-12.5-12.5H45.833a12.5 12.5 0 0 0-12.5 12.5zm133.334 33.241a12.5 12.5 0 0 0-12.5-12.408h-29.734a4.146 4.146 0 0 0-3.841 2.592c-3.759 9.116-10.959 14.075-20.592 14.075-9.642 0-16.846-4.967-20.625-14.1a4.154 4.154 0 0 0-3.833-2.567H45.833a12.5 12.5 0 0 0-12.5 12.5v23.88c0 6.678.459 9.053 1.767 11.5a10.792 10.792 0 0 0 4.52 4.52c2.16 1.154 4.263 1.646 9.313 1.75l2.188.017h97.754c6.68 0 9.054-.459 11.5-1.767a10.792 10.792 0 0 0 4.52-4.525c1.155-2.154 1.647-4.258 1.75-9.308l.022-2.192v-23.97z"/></svg>