<svg width="200" height="200" xmlns="http://www.w3.org/2000/svg"><defs><style/></defs><path d="M22.917 47.917v19.791q0 10.354 7.32 17.68 7.325 7.32 17.68 7.32h104.166q10.354 0 17.68-7.32 7.32-7.326 7.32-17.68V47.917q0-10.355-7.32-17.68-7.326-7.32-17.68-7.32H47.917q-10.355 0-17.68 7.32-7.32 7.325-7.32 17.68zm16.162 28.629q-3.662-3.658-3.662-8.838V47.917q0-5.18 3.662-8.838 3.659-3.662 8.838-3.662h104.166q5.18 0 8.838 3.662 3.662 3.658 3.662 8.838v19.791q0 5.18-3.662 8.838-3.658 3.662-8.838 3.662H47.917q-5.18 0-8.838-3.662zm-16.162 55.746v19.791q0 10.354 7.32 17.68 7.326 7.32 17.68 7.32h104.166q10.354 0 17.68-7.32 7.32-7.326 7.32-17.68v-19.791q0-10.355-7.32-17.68-7.326-7.32-17.68-7.32H47.917q-10.354 0-17.68 7.32-7.32 7.325-7.32 17.68zm16.162 28.629q-3.662-3.658-3.662-8.838v-19.791q0-5.18 3.662-8.838 3.659-3.662 8.838-3.662h104.166q5.18 0 8.838 3.662 3.662 3.659 3.662 8.838v19.791q0 5.18-3.662 8.838-3.658 3.662-8.838 3.662H47.917q-5.18 0-8.838-3.662z" fill-rule="evenodd"/></svg>