<svg width="200" height="200" xmlns="http://www.w3.org/2000/svg"><defs><style/></defs><path d="M187.5 138.542a16.667 16.667 0 0 1-16.667 16.666h-11.375a20.833 20.833 0 0 1-39.75 0H80.292a20.833 20.833 0 0 1-39.75 0H29.167A16.667 16.667 0 0 1 12.5 138.542V84.133a25 25 0 0 1 4.658-14.529l11.73-16.425a25 25 0 0 1 20.345-10.47H69.83A25.012 25.012 0 0 1 93.75 25h68.75a25 25 0 0 1 25 25v88.542zM68.75 55.208H49.233a12.5 12.5 0 0 0-10.17 5.234L27.328 76.867A12.5 12.5 0 0 0 25 84.133v7.534h39.583A4.167 4.167 0 0 0 68.75 87.5V55.208z"/></svg>