<svg width="200" height="200" xmlns="http://www.w3.org/2000/svg"><defs><style/></defs><path d="M166.667 156.25H33.333a10.483 10.483 0 0 1-10.416-10.417v-10.416c0-6.904 2.441-12.796 7.32-17.68 4.888-4.879 10.776-7.32 17.68-7.32h29.166a4.167 4.167 0 0 0 4.167-4.167v-4.617c0-6.7-3.987-12.733-8.575-17.612a37.5 37.5 0 1 1 54.65 0c-4.587 4.875-8.575 10.917-8.575 17.612v4.617a4.167 4.167 0 0 0 4.167 4.167h29.166c6.905 0 12.796 2.441 17.68 7.32 4.879 4.888 7.32 10.776 7.32 17.68v10.416c0 5.7-4.716 10.417-10.416 10.417zm-2.084 14.583a6.25 6.25 0 0 1 0 12.5H35.417a6.25 6.25 0 0 1 0-12.5h129.166z"/></svg>