<svg width="200" height="200" xmlns="http://www.w3.org/2000/svg"><defs><style/></defs><path d="M166.667 156.25H33.333a10.483 10.483 0 0 1-10.416-10.417V131.25c0-6.904 2.441-12.796 7.32-17.68 4.888-4.878 10.776-7.32 17.68-7.32H75a2.083 2.083 0 0 0 2.083-2.083c0-7.292-3.125-12.5-7.77-17.613a41.987 41.987 0 0 1-10.98-28.22c0-10.996 4.43-21.688 12.205-29.463A41.863 41.863 0 0 1 100 16.667c10.996 0 21.688 4.429 29.463 12.204a41.863 41.863 0 0 1 12.204 29.462c0 10.405-3.959 20.555-10.98 28.221-4.537 5.113-7.77 10.113-7.77 17.613A2.083 2.083 0 0 0 125 106.25h27.083c6.904 0 12.796 2.442 17.68 7.32 4.879 4.888 7.32 10.776 7.32 17.68v14.583c0 5.7-4.716 10.417-10.416 10.417zm-14.584-37.5h-31.25a10.417 10.417 0 0 1-10.416-10.417v-4.166c0-16.667 2.083-12.5 14.479-30.63a28.575 28.575 0 0 0 4.27-15.204c0-8.054-2.845-14.929-8.541-20.625s-12.57-8.541-20.625-8.541c-8.054 0-14.93 2.845-20.625 8.541-5.696 5.696-8.542 12.571-8.542 20.625 0 5.488 1.425 10.554 4.271 15.204a268.692 268.692 0 0 0 7.488 10.375c5.825 7.755 6.991 9.321 6.991 20.255v4.166a10.417 10.417 0 0 1-10.416 10.417h-31.25a12.583 12.583 0 0 0-12.5 12.5v12.5h129.166v-12.5c0-6.842-5.658-12.5-12.5-12.5zm12.5 52.083a6.25 6.25 0 0 1 0 12.5H35.417a6.25 6.25 0 0 1 0-12.5h129.166z"/></svg>