<svg width="200" height="200" xmlns="http://www.w3.org/2000/svg"><defs><style/></defs><path d="M100 16.667c10.596 0 20.82 1.95 30.675 5.85a82.475 82.475 0 0 1 28.25 18.558 82.475 82.475 0 0 1 18.558 28.25 82.6 82.6 0 0 1 5.85 30.675c0 10.596-1.95 20.82-5.85 30.675a82.475 82.475 0 0 1-18.558 28.25 82.475 82.475 0 0 1-28.25 18.558 82.6 82.6 0 0 1-30.675 5.85c-10.596 0-20.82-1.95-30.675-5.85a82.475 82.475 0 0 1-28.25-18.558 82.475 82.475 0 0 1-18.558-28.25A82.6 82.6 0 0 1 16.667 100c0-10.596 1.95-20.82 5.85-30.675a82.475 82.475 0 0 1 18.558-28.25 82.475 82.475 0 0 1 28.25-18.558A82.604 82.604 0 0 1 100 16.667zm0 12.5a70.208 70.208 0 0 0-26.075 4.975 70.104 70.104 0 0 0-24.012 15.77 70.104 70.104 0 0 0-15.771 24.013A70.208 70.208 0 0 0 29.167 100c0 9.008 1.658 17.7 4.975 26.075a70.104 70.104 0 0 0 15.77 24.012 70.104 70.104 0 0 0 24.013 15.771A70.208 70.208 0 0 0 100 170.833a70.208 70.208 0 0 0 26.075-4.975 70.104 70.104 0 0 0 24.012-15.77 70.104 70.104 0 0 0 15.771-24.013A70.208 70.208 0 0 0 170.833 100a70.208 70.208 0 0 0-4.975-26.075 70.104 70.104 0 0 0-15.77-24.013 70.104 70.104 0 0 0-24.013-15.77A70.208 70.208 0 0 0 100 29.167zm-27.083 37.5a6.25 6.25 0 0 1 4.416 1.833L100 91.158l22.667-22.666a6.25 6.25 0 0 1 8.833 8.841L108.842 100l22.666 22.667a6.25 6.25 0 1 1-8.841 8.833L100 108.842l-22.667 22.666a6.25 6.25 0 1 1-8.833-8.841L91.158 100 68.492 77.333a6.25 6.25 0 0 1 4.425-10.666z" fill="#111925" fill-rule="evenodd"/></svg>