<svg width="200" height="200" xmlns="http://www.w3.org/2000/svg"><defs><style/></defs><path d="M100 12.5c48.325 0 87.5 39.175 87.5 87.5s-39.175 87.5-87.5 87.5-87.5-39.175-87.5-87.5S51.675 12.5 100 12.5zm0 20.833c-36.82 0-66.667 29.846-66.667 66.667S63.18 166.667 100 166.667 166.667 136.82 166.667 100 136.82 33.333 100 33.333zm32.367 34.305a10.417 10.417 0 0 1 0 14.729L114.729 100l17.638 17.637a10.417 10.417 0 1 1-14.73 14.734L100 114.733l-17.633 17.634a10.417 10.417 0 1 1-14.734-14.73L85.267 100l-17.63-17.63a10.417 10.417 0 1 1 14.73-14.733L100 85.271l17.633-17.634a10.417 10.417 0 0 1 14.734 0z" fill-rule="evenodd"/></svg>