<svg width="200" height="200" xmlns="http://www.w3.org/2000/svg"><defs><style/></defs><path d="M142.708 14.583a29.167 29.167 0 0 1 29.167 29.167v58.758a20.833 20.833 0 0 1 13.542 19.517v34.225a29.167 29.167 0 0 1-29.167 29.167H43.75a29.167 29.167 0 0 1-29.167-29.167v-34.225A20.842 20.842 0 0 1 28.125 102.5V43.75a29.167 29.167 0 0 1 29.167-29.167h85.416zm-93.75 90.5L100 126.225l51.042-21.142V43.75a8.333 8.333 0 0 0-8.334-8.333H57.292a8.333 8.333 0 0 0-8.334 8.333v61.333zm84.375-45.708a10.417 10.417 0 0 1-10.416 10.417H77.083a10.417 10.417 0 1 1 0-20.834h45.834a10.417 10.417 0 0 1 10.416 10.417zm0 32.292a10.417 10.417 0 0 1-10.416 10.416H77.083a10.417 10.417 0 1 1 0-20.833h45.834a10.417 10.417 0 0 1 10.416 10.417zm31.25 30.358l-56.612 23.446a20.833 20.833 0 0 1-15.942 0l-56.612-23.446v34.225a8.333 8.333 0 0 0 8.333 8.333h112.5a8.333 8.333 0 0 0 8.333-8.333v-34.225z"/></svg>