<svg width="200" height="200" xmlns="http://www.w3.org/2000/svg"><defs><style/></defs><path d="M171.875 43.75v124.267a12.5 12.5 0 0 1-19.025 10.662l-20.03-12.25a4.167 4.167 0 0 0-4.278-.042l-20.113 11.788a16.667 16.667 0 0 1-16.858 0l-20.113-11.792a4.167 4.167 0 0 0-4.279.042L47.15 178.679a12.5 12.5 0 0 1-19.025-10.667V43.75a25 25 0 0 1 25-25h93.75a25 25 0 0 1 25 25zm-118.75-12.5a12.5 12.5 0 0 0-12.5 12.5v124.267l20.03-12.25a16.667 16.667 0 0 1 17.124-.167l20.113 11.792a4.167 4.167 0 0 0 4.216 0l20.113-11.792a16.667 16.667 0 0 1 17.125.167l20.029 12.25V43.75a12.5 12.5 0 0 0-12.5-12.5h-93.75zM75 81.25a6.25 6.25 0 0 1 0-12.5h50a6.25 6.25 0 0 1 0 12.5H75zm0 37.5a6.25 6.25 0 0 1 0-12.5h50a6.25 6.25 0 0 1 0 12.5H75z"/></svg>