<svg width="200" height="200" xmlns="http://www.w3.org/2000/svg"><defs><style/></defs><path d="M171.875 43.75v124.267a12.5 12.5 0 0 1-19.025 10.666l-20.03-12.254a4.167 4.167 0 0 0-4.278-.042l-20.113 11.792a16.667 16.667 0 0 1-16.858 0l-20.113-11.792a4.167 4.167 0 0 0-4.279.042L47.15 178.68a12.5 12.5 0 0 1-19.025-10.662V43.75a25 25 0 0 1 25-25h93.75a25 25 0 0 1 25 25zm-118.75-12.5a12.5 12.5 0 0 0-12.5 12.5v124.263l20.03-12.25a16.667 16.667 0 0 1 16.278-.626l.846.467 20.113 11.788a4.167 4.167 0 0 0 4.216 0l20.113-11.792a16.667 16.667 0 0 1 17.125.167l20.029 12.25V43.75a12.5 12.5 0 0 0-12.5-12.5h-93.75zm52.68 90.192a6.25 6.25 0 1 1-12.5 0v-37.35L82.057 95.333a6.25 6.25 0 0 1-8.391.404l-.446-.404a6.25 6.25 0 0 1 0-8.837l19.22-19.221a10.417 10.417 0 0 1 14.73 0l19.162 19.162a6.25 6.25 0 1 1-8.841 8.838l-11.688-11.692v37.859z"/></svg>