<svg width="200" height="200" xmlns="http://www.w3.org/2000/svg"><defs><style/></defs><path d="M176.042 43.75v124.267a16.667 16.667 0 0 1-25.363 14.22l-20.033-12.254-20.113 11.788a20.833 20.833 0 0 1-21.066 0l-20.113-11.792-20.033 12.258a16.667 16.667 0 0 1-25.363-14.22V43.75a29.167 29.167 0 0 1 29.167-29.167h93.75a29.167 29.167 0 0 1 29.167 29.167zM53.125 35.417a8.333 8.333 0 0 0-8.333 8.333v116.833l13.687-8.375a20.833 20.833 0 0 1 20.496-.708l.913.508L100 163.8l20.113-11.792a20.833 20.833 0 0 1 21.408.204l13.687 8.371V43.75a8.333 8.333 0 0 0-7.708-8.312l-.625-.021h-93.75zM65.35 77.108c.217-4.775 1.77-7.158 6.333-7.158h13.2v-4.742H66.592a4.675 4.675 0 0 1 0-9.35h67.47a4.675 4.675 0 1 1 0 9.35h-19.27v4.742h13.529c4.775 0 6.329 2.383 6.329 7.158v7.542c0 4.554-1.554 6.942-6.333 7.158H71.683c-4.558-.216-6.112-2.604-6.329-7.158v-7.542zm39.392-7.162v-4.738H94.517v4.738h10.22zM75.067 83.863c.275.275.679.408 1.22.408h8.596v-6.367h-8.595c-.467-.091-.834-.046-1.1.146-.35.25-.525.742-.525 1.483v3.109c0 .541.133.95.404 1.22zm19.45-5.959v6.367h10.22v-6.367h-10.22zm28.45 0h-8.175v6.367h8.175c1.304 0 1.958-.65 1.958-1.954v-2.459c0-1.304-.654-1.958-1.958-1.958zm11.541 21.367a3.933 3.933 0 0 1-3.933 3.933H69.75a3.933 3.933 0 1 1 0-7.866h60.817a3.933 3.933 0 0 1 3.933 3.933zM79.65 116.408H64.754a4.467 4.467 0 0 1 0-8.933h70.492a4.467 4.467 0 0 1 0 8.93h-28.163v8.178a8.75 8.75 0 0 1-8.75 8.75h-8.237a4.852 4.852 0 1 1 0-9.704H95a1.667 1.667 0 0 0 1.667-1.666v-5.559h-12a4.704 4.704 0 0 1-.375 8.25l-15.167 7.404a5.212 5.212 0 1 1-4.292-9.5l14.817-6.154zm58.762 12.15c-.058.309-.137.625-.233.959-1.737 2.825-4.342 3.583-7.812 2.279-1.738-.65-4.884-1.842-9.442-3.583-2.388-.863-4.017-1.517-4.883-1.95-2.388-1.517-3.042-3.688-1.955-6.509.863-1.291 1.809-2.029 2.938-2.308a4.792 4.792 0 0 1 2.98 0l10.84 3.525c1.834.537 3.272.92 4.313 1.15 1.638.883 2.755 1.992 3.196 3.487.304.925.342 1.95.058 2.95z"/></svg>