<svg width="200" height="200" xmlns="http://www.w3.org/2000/svg"><defs><style/></defs><path d="M53.125 18.75h93.75a25 25 0 0 1 25 25v124.267a12.5 12.5 0 0 1-19.025 10.666l-20.03-12.254a4.167 4.167 0 0 0-4.278-.042l-20.113 11.792a16.667 16.667 0 0 1-16.858 0l-20.113-11.792a4.167 4.167 0 0 0-4.279.042L47.15 178.68a12.5 12.5 0 0 1-19.025-10.662V43.75a25 25 0 0 1 25-25zm52.68 64.833l11.687 11.692a6.25 6.25 0 1 0 8.841-8.838l-19.162-19.162a10.417 10.417 0 0 0-14.73 0l-19.22 19.22a6.25 6.25 0 0 0 0 8.838l.446.409a6.25 6.25 0 0 0 8.395-.409l11.242-11.241v37.354a6.25 6.25 0 0 0 12.5 0V83.583z"/></svg>