<svg width="200" height="200" xmlns="http://www.w3.org/2000/svg"><defs><style/></defs><path d="M29.167 89.583a10.417 10.417 0 0 1 0-20.833h24.85L23.883 38.617a10.418 10.418 0 0 1 14.734-14.734L68.75 54.017v-24.85a10.417 10.417 0 0 1 9.733-10.396l.684-.021a10.417 10.417 0 0 1 10.416 10.417V75A14.583 14.583 0 0 1 75 89.583H29.167zm141.666 20.834a10.417 10.417 0 0 1 0 20.833H145.98l30.138 30.133a10.418 10.418 0 0 1-14.734 14.734l-30.133-30.138v24.854a10.417 10.417 0 0 1-9.733 10.396l-.684.021a10.417 10.417 0 0 1-10.416-10.417V125A14.583 14.583 0 0 1 125 110.417h45.833z"/></svg>