<svg width="200" height="200" xmlns="http://www.w3.org/2000/svg"><defs><style/></defs><path d="M87.5 18.75L31.25 51.225a16.667 16.667 0 0 0 0 28.867L87.5 112.57a25 25 0 0 0 25 0l56.25-32.48a16.675 16.675 0 0 0 0-28.866L112.5 18.75a25 25 0 0 0-25 0zm-64.008 83.404a6.25 6.25 0 0 1 8.537-2.291L93.75 135.5a12.5 12.5 0 0 0 12.5 0l61.692-35.617a6.25 6.25 0 1 1 6.25 10.825L112.5 146.325a25 25 0 0 1-25 0l-61.72-35.633a6.25 6.25 0 0 1-2.292-8.542zm8.537 31.467a6.25 6.25 0 0 0-6.25 10.825L87.5 180.083a25 25 0 0 0 25 0l61.692-35.616a6.25 6.25 0 0 0-6.25-10.825l-61.692 35.616a12.5 12.5 0 0 1-12.5 0l-61.72-35.637z" fill-rule="evenodd"/></svg>