<svg width="200" height="200" xmlns="http://www.w3.org/2000/svg"><defs><style/></defs><path d="M182.292 54.167v91.666c0 13.684-11.317 25-25 25H42.708c-13.683 0-25-11.316-25-25V54.167c0-13.684 11.317-25 25-25h114.584c13.683 0 25 11.316 25 25zm-25-12.5H42.708c-6.841 0-12.5 5.658-12.5 12.5v91.666c0 6.842 5.659 12.5 12.5 12.5h114.584c6.841 0 12.5-5.658 12.5-12.5V54.167c0-6.842-5.659-12.5-12.5-12.5zM46.875 93.75V72.917c0-2.875 1.017-5.334 3.05-7.367a10.038 10.038 0 0 1 7.367-3.05h20.833c2.875 0 5.333 1.017 7.367 3.05s3.05 4.492 3.05 7.367V93.75c0 2.875-1.017 5.333-3.05 7.367a10.042 10.042 0 0 1-7.367 3.05H57.292c-2.875 0-5.334-1.017-7.367-3.05a10.038 10.038 0 0 1-3.05-7.367zM136.458 75a6.25 6.25 0 0 1 0-12.5h8.334a6.25 6.25 0 0 1 0 12.5h-8.334zm-60.416 0H59.375v16.667h16.667V75zm47.916 29.167a6.25 6.25 0 0 1 0-12.5h20.834a6.25 6.25 0 0 1 0 12.5h-20.834zm-12.5 33.333a6.25 6.25 0 0 1 0-12.5h33.334a6.25 6.25 0 0 1 0 12.5h-33.334z"/></svg>