<svg width="200" height="200" xmlns="http://www.w3.org/2000/svg"><defs><style/></defs><path d="M25.03 36.487c4.887-4.879 10.774-7.32 17.678-7.32h114.584c6.904 0 12.796 2.441 17.679 7.32 4.879 4.888 7.32 10.775 7.32 17.68v91.666c0 6.905-2.441 12.796-7.32 17.68-4.888 4.879-10.775 7.32-17.68 7.32H42.709c-6.904 0-12.796-2.441-17.679-7.32-4.879-4.888-7.32-10.776-7.32-17.68V54.167c0-6.904 2.441-12.796 7.32-17.68zm59.345 52.65V71.28a9.883 9.883 0 0 0-9.82-9.82h-17.86a9.883 9.883 0 0 0-9.82 9.82v17.858a9.883 9.883 0 0 0 9.82 9.821h17.86a9.883 9.883 0 0 0 9.82-9.82zm47.917-19.345a6.25 6.25 0 0 0 6.25 6.25h8.333a6.25 6.25 0 0 0 0-12.5h-8.333a6.25 6.25 0 0 0-6.25 6.25zm-12.5 29.166a6.25 6.25 0 0 0 6.25 6.25h20.833a6.25 6.25 0 0 0 0-12.5h-20.833a6.25 6.25 0 0 0-6.25 6.25zm-12.5 33.334a6.25 6.25 0 0 0 6.25 6.25h33.333a6.25 6.25 0 0 0 0-12.5h-33.333a6.25 6.25 0 0 0-6.25 6.25z"/></svg>