<svg width="200" height="200" xmlns="http://www.w3.org/2000/svg"><defs><style/></defs><path d="M147.917 75h8.333a25 25 0 0 1 25 25v56.25a22.917 22.917 0 0 1-21.933 22.896v.02h-111.4a25 25 0 0 1-25-25V47.917a25 25 0 0 1 25-25h75a25 25 0 0 1 25 25V75zm-12.5 81.25V47.917a12.5 12.5 0 0 0-12.5-12.5h-75a12.5 12.5 0 0 0-12.5 12.5v106.25a12.5 12.5 0 0 0 12.5 12.5h90a22.792 22.792 0 0 1-2.5-10.417zM102.083 75a6.25 6.25 0 0 1 0 12.5H68.75a6.25 6.25 0 0 1 0-12.5h33.333zm45.834 12.5v68.75a10.417 10.417 0 0 0 20.833 0V100a12.5 12.5 0 0 0-12.5-12.5h-8.333zm-45.834 25a6.25 6.25 0 0 1 0 12.5H68.75a6.25 6.25 0 0 1 0-12.5h33.333z"/></svg>