<svg width="200" height="200" xmlns="http://www.w3.org/2000/svg"><defs><style/></defs><path d="M164.833 177.333a6.25 6.25 0 0 1-8.833 0l-37.25-37.246v21.538a16.667 16.667 0 0 1-27.97 12.25l-33.697-31.108a4.167 4.167 0 0 0-2.825-1.105H37.5a25 25 0 0 1-25-25V83.33A25 25 0 0 1 37 58.333l-18.5-18.5a6.25 6.25 0 1 1 8.833-8.841l137.5 137.5a6.25 6.25 0 0 1 0 8.841zm-16.866-49.691l-9.534-9.534A51.956 51.956 0 0 0 141.667 100c0-8.52-2.042-16.738-5.905-24.113a6.25 6.25 0 1 1 11.075-5.791 64.325 64.325 0 0 1 7.33 29.904c0 9.688-2.142 19.083-6.2 27.642zm25.195 25.191l-9.266-9.262a97.554 97.554 0 0 0 10.183-43.546c0-18.275-5.004-35.796-14.329-51.042a6.251 6.251 0 0 1 10.667-6.52 109.983 109.983 0 0 1 16.162 57.562c0 18.713-4.667 36.758-13.417 52.808zM118.75 98.421l-12.5-12.5V38.375a4.167 4.167 0 0 0-1.104-2.825l-.38-.363a4.167 4.167 0 0 0-5.508.125L76.575 56.25l-8.846-8.846L90.78 26.13a16.667 16.667 0 0 1 27.971 12.246v60.046zM25 83.333v33.334a12.5 12.5 0 0 0 12.5 12.5h16.763a16.667 16.667 0 0 1 11.304 4.416l33.691 31.104a4.167 4.167 0 0 0 6.992-3.062v-34.038L49.496 70.833H37.5a12.5 12.5 0 0 0-12.5 12.5z"/></svg>