<svg width="200" height="200" xmlns="http://www.w3.org/2000/svg"><defs><style/></defs><path d="M122.667 27.07a16.667 16.667 0 0 1 4.416 11.305v123.25a16.667 16.667 0 0 1-27.97 12.25L65.3 142.663a3.75 3.75 0 0 0-2.542-.996H45.833a25 25 0 0 1-25-25V83.333a25 25 0 0 1 25-25h16.925a3.75 3.75 0 0 0 2.542-.995l33.813-31.209a16.667 16.667 0 0 1 23.55.942zm-9.567 8.118a4.167 4.167 0 0 0-5.508.124L73.779 66.522a16.25 16.25 0 0 1-11.02 4.312H45.832a12.5 12.5 0 0 0-12.5 12.5v33.334a12.5 12.5 0 0 0 12.5 12.5h16.925a16.25 16.25 0 0 1 11.021 4.308l33.813 31.208a4.167 4.167 0 0 0 6.991-3.058V38.375a4.167 4.167 0 0 0-1.104-2.825l-.379-.363zM174.067 100c0 13.688-3.396 26.896-9.78 38.675a6.251 6.251 0 1 1-10.991-5.958 68.408 68.408 0 0 0 8.27-32.717c0-11.68-2.912-22.925-8.387-32.937a6.25 6.25 0 0 1 10.967-6A80.908 80.908 0 0 1 174.063 100z"/></svg>