<svg width="200" height="200" xmlns="http://www.w3.org/2000/svg"><defs><style/></defs><path d="M117.392 24.246a20.833 20.833 0 0 1 5.525 14.129v123.25a20.833 20.833 0 0 1-34.963 15.308l-33.696-31.1H37.5a29.167 29.167 0 0 1-29.167-29.166V83.333A29.167 29.167 0 0 1 37.5 54.167h16.763l33.691-31.1a20.833 20.833 0 0 1 29.438 1.179zm42.258 12.587a10.417 10.417 0 0 1 14.32 3.45 114.15 114.15 0 0 1 16.776 59.738c0 20.862-5.592 40.929-16.025 58.487a10.417 10.417 0 1 1-17.908-10.641 93.32 93.32 0 0 0 13.1-47.846c0-17.5-4.792-34.275-13.717-48.867a10.417 10.417 0 0 1 3.454-14.32zM68.392 69.471A20.833 20.833 0 0 1 54.258 75H37.5a8.333 8.333 0 0 0-8.333 8.333v33.334A8.333 8.333 0 0 0 37.5 125h16.762a20.833 20.833 0 0 1 14.125 5.525l33.696 31.1V38.375l-33.691 31.1zm68.079-5.713a10.417 10.417 0 0 1 14.058 4.396A68.492 68.492 0 0 1 158.333 100c0 11.192-2.683 22.02-7.75 31.742a10.417 10.417 0 0 1-18.475-9.63A47.658 47.658 0 0 0 137.5 100c0-7.283-1.62-14.317-4.696-20.717l-.733-1.462a10.417 10.417 0 0 1 4.4-14.059z"/></svg>