<svg width="200" height="200" xmlns="http://www.w3.org/2000/svg"><defs><style/></defs><path d="M115.862 25.658a18.75 18.75 0 0 1 4.971 12.717v123.25a18.75 18.75 0 0 1-31.466 13.78l-33.692-31.1a2.083 2.083 0 0 0-1.417-.555H37.5a27.083 27.083 0 0 1-27.083-27.083V83.333A27.083 27.083 0 0 1 37.5 56.25h16.762a2.083 2.083 0 0 0 1.413-.554l33.692-31.1a18.75 18.75 0 0 1 26.495 1.062zm-12.529 11.05a2.083 2.083 0 0 0-2.666.138l-33.692 31.1a18.75 18.75 0 0 1-12.717 4.97H37.5a10.417 10.417 0 0 0-10.417 10.417v33.334A10.417 10.417 0 0 0 37.5 127.083h16.762a18.75 18.75 0 0 1 12.717 4.971l33.692 31.1a2.083 2.083 0 0 0 3.496-1.529V38.375a2.083 2.083 0 0 0-.554-1.417l-.28-.25zm57.4 1.905a8.333 8.333 0 0 1 11.459 2.762 112.067 112.067 0 0 1 16.466 58.65c0 20.483-5.487 40.188-15.733 57.425a8.333 8.333 0 0 1-14.325-8.512 95.404 95.404 0 0 0 13.392-48.917c0-17.883-4.9-35.033-14.021-49.95a8.333 8.333 0 0 1 2.762-11.458zm-23.3 26.991a8.333 8.333 0 0 1 11.246 3.521A66.408 66.408 0 0 1 156.25 100c0 10.854-2.604 21.35-7.517 30.78a8.334 8.334 0 0 1-14.779-7.71 49.742 49.742 0 0 0 5.63-23.07c0-8.183-1.959-16.067-5.667-23.146a8.333 8.333 0 0 1 3.52-11.25z"/></svg>