<svg width="200" height="200" xmlns="http://www.w3.org/2000/svg"><defs><style/></defs><path d="M91.48 25.483L56.966 57.337a3.75 3.75 0 0 1-2.542.996H37.5a25 25 0 0 0-25 25v33.334a25 25 0 0 0 25 25h16.925a3.75 3.75 0 0 1 2.542.995l34.512 31.855a16.25 16.25 0 0 0 27.271-11.942V37.425a16.25 16.25 0 0 0-27.27-11.942zm53.587 45.096a6.25 6.25 0 1 0-8.838 8.842L156.812 100l-20.583 20.583a6.25 6.25 0 1 0 8.838 8.834l20.583-20.58 20.58 20.584a6.25 6.25 0 1 0 8.837-8.842L174.487 100l20.584-20.583a6.25 6.25 0 1 0-8.842-8.834l-20.583 20.58-20.58-20.584z"/></svg>