<svg width="200" height="200" xmlns="http://www.w3.org/2000/svg"><defs><style/></defs><path d="M90.78 26.125L57.082 57.233a4.167 4.167 0 0 1-2.825 1.105H37.5a25 25 0 0 0-25 25v33.333a25 25 0 0 0 25 25h16.762a4.167 4.167 0 0 1 2.826 1.104l33.691 31.1a16.667 16.667 0 0 0 27.971-12.25V38.375a16.667 16.667 0 0 0-27.97-12.25zm47.624 41.33a6.25 6.25 0 0 1 8.433 2.637 64.325 64.325 0 0 1 7.33 29.908c0 10.517-2.521 20.683-7.28 29.817a6.25 6.25 0 1 1-11.083-5.78A51.83 51.83 0 0 0 141.667 100c0-8.52-2.042-16.738-5.905-24.113a6.25 6.25 0 0 1 2.638-8.433zm23.417-27.063a6.25 6.25 0 0 1 8.596 2.07 109.983 109.983 0 0 1 16.162 57.563c0 20.108-5.387 39.442-15.442 56.363A6.25 6.25 0 1 1 160.392 150a97.483 97.483 0 0 0 13.687-49.975c0-18.275-5.004-35.796-14.329-51.042a6.25 6.25 0 0 1 2.075-8.591z"/></svg>