<svg width="200" height="200" xmlns="http://www.w3.org/2000/svg"><defs><style/></defs><path d="M124.196 25.658a18.75 18.75 0 0 1 4.97 12.717v123.25a18.75 18.75 0 0 1-31.466 13.78l-33.813-31.21a1.667 1.667 0 0 0-1.129-.445H45.833a27.083 27.083 0 0 1-27.083-27.083V83.333A27.083 27.083 0 0 1 45.833 56.25h16.925a1.667 1.667 0 0 0 1.13-.442L97.7 24.6a18.75 18.75 0 0 1 26.496 1.058zm-12.53 11.05a2.083 2.083 0 0 0-2.666.138L75.187 68.054a18.333 18.333 0 0 1-12.433 4.863h-16.92a10.417 10.417 0 0 0-10.417 10.416v33.334a10.417 10.417 0 0 0 10.416 10.416h16.925a18.333 18.333 0 0 1 12.434 4.863l33.812 31.208a2.083 2.083 0 0 0 3.496-1.529V38.375a2.083 2.083 0 0 0-.554-1.417l-.28-.25zM176.15 100c0 14.033-3.483 27.583-10.033 39.667a8.333 8.333 0 0 1-14.65-7.942A66.33 66.33 0 0 0 159.483 100c0-11.33-2.825-22.23-8.133-31.938a8.335 8.335 0 1 1 14.625-8A82.992 82.992 0 0 1 176.145 100z"/></svg>