<svg width="200" height="200" xmlns="http://www.w3.org/2000/svg"><defs><style/></defs><path d="M114.333 27.07a16.667 16.667 0 0 1 4.417 11.305v123.25a16.667 16.667 0 0 1-27.97 12.25l-33.697-31.108a4.167 4.167 0 0 0-2.825-1.104H37.5a25 25 0 0 1-25-25V83.328a25 25 0 0 1 25-25h16.762a4.167 4.167 0 0 0 2.825-1.104l33.692-31.1a16.667 16.667 0 0 1 23.55.942zm-9.566 8.118a4.167 4.167 0 0 0-5.509.124l-33.691 31.1a16.667 16.667 0 0 1-11.304 4.421H37.5a12.5 12.5 0 0 0-12.5 12.5v33.334a12.5 12.5 0 0 0 12.5 12.5h16.763a16.667 16.667 0 0 1 11.304 4.425l33.691 31.1a4.167 4.167 0 0 0 6.992-3.063V38.375a4.167 4.167 0 0 0-1.104-2.825l-.38-.363zm81.812 64.833c0 20.112-5.387 39.446-15.442 56.366A6.25 6.25 0 1 1 160.392 150a97.483 97.483 0 0 0 13.687-49.975c0-18.275-5.004-35.796-14.329-51.042a6.251 6.251 0 0 1 10.667-6.52 109.983 109.983 0 0 1 16.162 57.562zM154.167 100c0 10.517-2.521 20.683-7.28 29.817a6.25 6.25 0 1 1-11.083-5.78A51.83 51.83 0 0 0 141.667 100c0-8.52-2.042-16.738-5.904-24.113a6.25 6.25 0 1 1 11.075-5.791A64.325 64.325 0 0 1 154.167 100z"/></svg>