<svg width="200" height="200" xmlns="http://www.w3.org/2000/svg"><defs><style/></defs><path d="M133.946 27.104l1.47-.02c27.613 0 50 22.387 50 50 0 37.445-25.82 72.053-76.533 103.95a16.683 16.683 0 0 1-17.766-.009c-50.709-31.883-76.534-66.496-76.534-103.942 0-27.612 22.388-50 50-50A49.878 49.878 0 0 1 99.43 41.225l.571.567.57-.567a49.875 49.875 0 0 1 33.376-14.12zm38.97 49.98a37.5 37.5 0 0 0-67.862-22.017 6.25 6.25 0 0 1-10.112 0 37.5 37.5 0 0 0-67.859 22.016c.005 32.375 23.255 63.534 70.7 93.363a4.19 4.19 0 0 0 4.459.004c47.425-29.833 70.675-61 70.675-93.367z"/></svg>