<svg width="200" height="200" xmlns="http://www.w3.org/2000/svg"><defs><style/></defs><path d="M30.238 30.238c4.887-4.88 10.775-7.321 17.679-7.321h104.166c6.904 0 12.796 2.441 17.68 7.32 4.879 4.888 7.32 10.776 7.32 17.68v104.166c0 6.904-2.441 12.796-7.32 17.68-4.888 4.879-10.776 7.32-17.68 7.32H47.917c-6.905 0-12.796-2.441-17.68-7.32-4.879-4.888-7.32-10.776-7.32-17.68V47.917c0-6.905 2.441-12.796 7.32-17.68zm125.691 133.779c1.85-.584 3.513-1.617 4.992-3.096a12.042 12.042 0 0 0 3.662-8.838V47.917a12.042 12.042 0 0 0-3.662-8.838 12.042 12.042 0 0 0-8.838-3.662H47.917a12.042 12.042 0 0 0-8.838 3.662 12.042 12.042 0 0 0-3.662 8.838v45.075l7.07-7.071a25 25 0 0 1 35.355 0l77.908 77.904.183.192zm-48.637-87.975a18.75 18.75 0 1 1 37.5 0 18.75 18.75 0 0 1-37.5 0z"/></svg>