<svg width="200" height="200" xmlns="http://www.w3.org/2000/svg"><defs><style/></defs><path d="M42.708 29.167h114.584a25 25 0 0 1 25 25v91.666a25 25 0 0 1-25 25H42.708a25 25 0 0 1-25-25V54.167a25 25 0 0 1 25-25zm127.084 25a12.5 12.5 0 0 0-12.5-12.5H42.708a12.5 12.5 0 0 0-12.5 12.5v54.7l14.613-14.613a25 25 0 0 1 35.358 0L144 158.084l.237.25h13.05a12.5 12.5 0 0 0 12.5-12.5V54.166zm-43.213 104.166l-55.246-55.241a12.5 12.5 0 0 0-17.675 0L30.204 126.55v19.283a12.5 12.5 0 0 0 12.5 12.5h83.871zM106.25 79.167a22.917 22.917 0 1 1 45.833 0 22.917 22.917 0 0 1-45.833 0zm22.917 10.416a10.417 10.417 0 1 0 0-20.833 10.417 10.417 0 0 0 0 20.833z"/></svg>