<svg width="200" height="200" xmlns="http://www.w3.org/2000/svg"><defs><style/></defs><path d="M25.03 163.512c-4.88-4.887-7.322-10.775-7.322-17.679V54.167c0-6.905 2.442-12.796 7.321-17.68 4.888-4.879 10.775-7.32 17.68-7.32h36.458a6.225 6.225 0 0 1 5.762 3.82L99.36 65.15a6.238 6.238 0 0 1 .066 4.967L86.992 99.87l12.337 26.67a6.25 6.25 0 0 1 .113 4.992L84.95 166.95a6.25 6.25 0 0 1-6.825 3.796 6.123 6.123 0 0 1-1.042.087H42.708c-6.904 0-12.795-2.441-17.679-7.32zM174.97 36.487c4.88 4.888 7.322 10.775 7.322 17.68v91.666c0 6.904-2.442 12.796-7.321 17.68-4.888 4.879-10.775 7.32-17.68 7.32H106.25c-.354 0-.708-.029-1.042-.083a6.25 6.25 0 0 1-6.825-8.533l13.459-32.896-12.35-26.696a6.25 6.25 0 0 1-.096-5.033l12.45-29.792L98.52 38.1a6.25 6.25 0 0 1 5.646-8.933h53.125c6.904 0 12.795 2.441 17.679 7.32zM68.897 80.417c4.291-.5 8.312 0 12.05 1.5l5.9-14.121-11.721-26.13H42.708a12.042 12.042 0 0 0-8.837 3.663 12.042 12.042 0 0 0-3.663 8.838v62.77l22.13-27.395c4.279-5.296 9.795-8.338 16.558-9.125zm55.529-10.3L111.992 99.87l3.55 7.67 53.804 41.73c.296-1.083.446-2.23.446-3.438V54.167a12.042 12.042 0 0 0-3.663-8.838 12.042 12.042 0 0 0-8.837-3.662H113.82l10.541 23.483a6.238 6.238 0 0 1 .063 4.967zm10.992-.325a11.458 11.458 0 1 1 22.916 0 11.458 11.458 0 0 1-22.916 0zm-92.709 88.541h32.263l11.875-29.012-12.354-26.696a6.25 6.25 0 0 1-.096-5.033l1.716-4.109a12.192 12.192 0 0 0-5.77-.65 12.054 12.054 0 0 0-8.28 4.563l-31.854 39.437v9c0 3.45 1.221 6.396 3.663 8.838a12.042 12.042 0 0 0 8.837 3.662zm81.734-26.8l-10.963 26.8h43.813c1.02 0 2-.108 2.929-.32l-35.459-27.5a6.246 6.246 0 0 1-.32 1.02z"/></svg>