<svg width="200" height="200" xmlns="http://www.w3.org/2000/svg"><defs><style/></defs><path d="M42.708 27.083h114.584a27.083 27.083 0 0 1 27.083 27.084v91.666a27.083 27.083 0 0 1-27.083 27.084H42.708a27.083 27.083 0 0 1-27.083-27.084V54.167a27.083 27.083 0 0 1 27.083-27.084zm125 27.084a10.417 10.417 0 0 0-10.416-10.417H42.708a10.417 10.417 0 0 0-10.416 10.417v50.708l12.1-12.096a27.083 27.083 0 0 1 38.3 0l63.466 63.471h11.134a10.417 10.417 0 0 0 10.416-10.417V54.167zM122.592 156.25l-51.684-51.683a10.417 10.417 0 0 0-14.733 0L32.292 128.45v17.383a10.417 10.417 0 0 0 10.416 10.417h79.884zm-17.384-77.083a25 25 0 1 1 50 0 25 25 0 0 1-50 0zm25 8.333a8.333 8.333 0 1 0 0-16.667 8.333 8.333 0 0 0 0 16.667z"/></svg>