<svg width="200" height="200" xmlns="http://www.w3.org/2000/svg"><defs><style/></defs><path d="M100 16.667q16.95 0 32.438 6.55 14.958 6.329 26.487 17.858 11.53 11.53 17.858 26.488 6.55 15.487 6.55 32.437t-6.55 32.438q-6.325 14.958-17.858 26.487-11.53 11.53-26.488 17.858-15.487 6.55-32.437 6.55t-32.438-6.55q-14.958-6.325-26.487-17.858-11.53-11.53-17.858-26.488-6.55-15.487-6.55-32.437t6.55-32.438q6.329-14.958 17.858-26.487 11.53-11.53 26.487-17.858 15.488-6.55 32.438-6.55zm0 12.5q-14.417 0-27.57 5.562-12.71 5.375-22.518 15.184-9.804 9.808-15.183 22.516Q29.167 85.583 29.167 100t5.562 27.57q5.375 12.71 15.183 22.518 9.809 9.804 22.517 15.183 13.154 5.562 27.571 5.562t27.57-5.562q12.71-5.375 22.518-15.183 9.804-9.809 15.183-22.517 5.562-13.154 5.562-27.571t-5.562-27.57q-5.375-12.71-15.183-22.518-9.809-9.804-22.517-15.183-13.154-5.562-27.571-5.562z" fill-rule="evenodd"/></svg>