<svg width="200" height="200" xmlns="http://www.w3.org/2000/svg"><defs><style/></defs><path d="M20.833 100a6.25 6.25 0 0 1 6.25-6.25h145.834a6.25 6.25 0 0 1 0 12.5H27.083a6.25 6.25 0 0 1-6.25-6.25zm85.417-58.333V18.75a6.25 6.25 0 0 0-12.5 0v22.917H82.358a4.167 4.167 0 0 0-3.57 6.308l17.637 29.404a4.167 4.167 0 0 0 7.15 0l17.637-29.404a4.167 4.167 0 0 0-3.57-6.308H106.25zm0 116.666v22.917a6.25 6.25 0 0 1-12.5 0v-22.917H82.358a4.167 4.167 0 0 1-3.57-6.308l17.637-29.404a4.167 4.167 0 0 1 7.15 0l17.637 29.404a4.167 4.167 0 0 1-3.57 6.308H106.25z" fill="#111925"/></svg>