<svg width="200" height="200" xmlns="http://www.w3.org/2000/svg"><defs><style/></defs><path d="M138.458 82.175c1.45 1.713 2.442 3.404 2.971 5.075a14.28 14.28 0 0 1 0 8.833c-.529 1.667-1.52 3.359-2.967 5.075-.733.863-2.116 2.313-4.158 4.354l-25.337 25.338c-4.442 4.442-7.546 7.412-9.325 8.917-3.059 2.583-5.971 4.316-8.734 5.191a24.48 24.48 0 0 1-15.15 0c-2.762-.875-5.675-2.608-8.733-5.196-1.78-1.5-4.888-4.47-9.325-8.912L44.146 117.3c-4.438-4.442-7.409-7.546-8.909-9.325-2.587-3.058-4.32-5.97-5.195-8.733a24.483 24.483 0 0 1 0-15.15c.875-2.763 2.608-5.675 5.195-8.734 1.5-1.779 4.471-4.887 8.909-9.325l30.35-30.346-7.367-7.366a6.25 6.25 0 1 1 8.838-8.838L134.3 77.817c2.042 2.041 3.43 3.5 4.162 4.358zm-25.691-8.217L83.333 44.525 53.9 73.958h58.867zM41.958 87.871a12.267 12.267 0 0 0 0 7.592c.375 1.175 1.313 2.654 2.825 4.441 1.275 1.513 4.013 4.363 8.204 8.554l13.55 13.555c4.196 4.191 7.046 6.929 8.559 8.208 1.787 1.508 3.266 2.45 4.441 2.82a12.262 12.262 0 0 0 7.592 0c1.175-.374 2.654-1.312 4.442-2.824 1.512-1.275 4.362-4.013 8.554-8.204l25.342-25.334c2.595-2.604 3.945-4.058 4.045-4.375a2.063 2.063 0 0 0 0-1.275c-.1-.316-1.45-1.775-4.045-4.375l-2.284-2.279h-79.17c-1.067 1.37-1.75 2.533-2.055 3.496zm128.875 43.379a14.583 14.583 0 1 1-29.166 0c0-7.367 3.796-16.358 11.387-26.975a3.904 3.904 0 0 1 6.388 0c7.6 10.617 11.391 19.608 11.391 26.975zm-10.416 0c0-3.413-1.388-7.633-4.167-12.667-2.78 5.034-4.167 9.254-4.167 12.667 0 1.15.409 2.133 1.221 2.946a4.013 4.013 0 0 0 2.946 1.22 4.013 4.013 0 0 0 2.946-1.22 4.013 4.013 0 0 0 1.22-2.946zM25.654 178.242c-.646-1.525-.654-3.525-.654-7.409s.008-5.883.654-7.412a8.363 8.363 0 0 1 4.438-4.433c1.525-.646 3.525-.655 7.408-.655h125c3.883 0 5.883.009 7.412.654a8.39 8.39 0 0 1 4.434 4.434c.646 1.529.654 3.529.654 7.412 0 3.884-.008 5.884-.654 7.409a8.363 8.363 0 0 1-4.438 4.437c-1.525.646-3.525.654-7.408.654h-125c-3.883 0-5.883-.008-7.408-.654a8.363 8.363 0 0 1-4.438-4.437z"/></svg>