<svg width="200" height="200" xmlns="http://www.w3.org/2000/svg"><defs><style/></defs><path d="M79.167 20.833h66.666q12.946 0 22.096 9.155 9.154 9.15 9.154 22.095v75a6.25 6.25 0 0 1-12.5 0v-75q0-7.766-5.491-13.258-5.492-5.492-13.259-5.492H79.167a6.25 6.25 0 0 1 0-12.5zM27.083 72.917v83.333q0 10.354 7.321 17.68 7.325 7.32 17.68 7.32H125q10.354 0 17.68-7.32 7.32-7.326 7.32-17.68V72.917q0-10.355-7.32-17.68-7.326-7.32-17.68-7.32H52.083q-10.354 0-17.679 7.32-7.32 7.325-7.32 17.68zm16.163 92.17q-3.663-3.658-3.663-8.837V72.917q0-5.18 3.663-8.838 3.658-3.662 8.837-3.662H125q5.18 0 8.837 3.662 3.663 3.659 3.663 8.838v83.333q0 5.18-3.663 8.838-3.658 3.662-8.837 3.662H52.083q-5.179 0-8.837-3.662z" fill-rule="evenodd"/></svg>