<svg width="200" height="200" xmlns="http://www.w3.org/2000/svg"><defs><style/></defs><path d="M41.316 151.59l34.58-34.581-19.6-19.6a15.336 15.336 0 0 1-4.147-7.329 15.45 15.45 0 0 1 .133-7.914 15.446 15.446 0 0 1 3.959-6.85 15.336 15.336 0 0 1 7.324-4.152l22.773-5.696a11.53 11.53 0 0 0 5.454-3.087l20.066-20.066L99.41 29.866a5.868 5.868 0 0 1 8.298-8.298l71.928 71.928a5.868 5.868 0 0 1-8.298 8.298l-12.45-12.45-20.07 20.07a11.53 11.53 0 0 0-3.082 5.45l-5.697 22.77a15.34 15.34 0 0 1-4.146 7.328 15.442 15.442 0 0 1-6.855 3.96 15.446 15.446 0 0 1-7.914.132 15.34 15.34 0 0 1-7.332-4.147l-19.597-19.6-34.58 34.584a5.869 5.869 0 0 1-8.298-8.302zm78.84-100.977l-20.066 20.07a23.055 23.055 0 0 1-10.903 6.174l-22.774 5.692a3.666 3.666 0 0 0-2.82 2.75 3.666 3.666 0 0 0 1 3.811l47.496 47.495c1.08 1.076 2.348 1.413 3.815 1.006a3.666 3.666 0 0 0 2.75-2.821l5.692-22.77a23.055 23.055 0 0 1 6.174-10.907l20.07-20.07-30.434-30.426z"/></svg>