<svg width="200" height="200" xmlns="http://www.w3.org/2000/svg"><defs><style/></defs><path d="M183.333 79.167c0 34.516-27.983 62.5-62.5 62.5a62.5 62.5 0 0 1-37.908-12.809L68.033 143.75l25.359 25.358a8.333 8.333 0 1 1-11.784 11.784L56.25 155.533l-25.358 25.359a8.333 8.333 0 1 1-11.784-11.784l25.359-25.358-25.359-25.358a8.333 8.333 0 1 1 11.784-11.784l25.358 25.359 14.892-14.892a62.5 62.5 0 0 1-12.809-37.908c0-34.517 27.984-62.5 62.5-62.5 34.517 0 62.5 27.983 62.5 62.5zm-62.5-45.834C95.521 33.333 75 53.854 75 79.167S95.52 125 120.833 125s45.834-20.52 45.834-45.833-20.521-45.834-45.834-45.834z"/></svg>