<svg width="200" height="200" xmlns="http://www.w3.org/2000/svg"><defs><style/></defs><path d="M106.25 87.5h35.417c6.904 0 12.795 2.442 17.679 7.32 4.879 4.888 7.32 10.776 7.32 17.68v15.15h6.25c2.721 0 5.042.963 6.963 2.888 1.925 1.92 2.888 4.241 2.888 6.962v25c0 2.72-.963 5.042-2.888 6.963a9.492 9.492 0 0 1-6.962 2.887h-25c-2.721 0-5.042-.963-6.963-2.888a9.488 9.488 0 0 1-2.887-6.962v-25c0-2.72.962-5.042 2.887-6.963a9.488 9.488 0 0 1 6.963-2.887h6.25V112.5a12.042 12.042 0 0 0-3.663-8.838 12.042 12.042 0 0 0-8.837-3.662H58.333a12.042 12.042 0 0 0-8.837 3.662 12.042 12.042 0 0 0-3.663 8.838v15.15h6.25c2.721 0 5.042.963 6.963 2.888 1.925 1.92 2.887 4.241 2.887 6.962v25c0 2.72-.962 5.042-2.887 6.963a9.492 9.492 0 0 1-6.963 2.887h-25c-2.72 0-5.041-.963-6.962-2.888a9.488 9.488 0 0 1-2.888-6.962v-25c0-2.72.963-5.042 2.888-6.963a9.492 9.492 0 0 1 6.962-2.887h6.25V112.5c0-6.904 2.442-12.796 7.321-17.68 4.888-4.878 10.775-7.32 17.68-7.32H93.75V65.708a20.833 20.833 0 1 1 12.5 0V87.5zM28.6 160.983h21.967v-21.966H28.6v21.966zm120.833 0H171.4v-21.966h-21.967v21.966z"/></svg>