<svg width="200" height="200" xmlns="http://www.w3.org/2000/svg"><defs><style/></defs><path d="M106.25 87.5h35.417c6.904 0 12.795 2.442 17.679 7.32 4.879 4.888 7.32 10.776 7.32 17.68v16.667a6.25 6.25 0 0 1-1.591 4.166h7.842a4.167 4.167 0 0 1 4.166 4.167v25a4.167 4.167 0 0 1-4.166 4.167h-25a4.167 4.167 0 0 1-4.167-4.167v-25a4.167 4.167 0 0 1 4.167-4.167h7.841a6.25 6.25 0 0 1-1.591-4.166V112.5a12.042 12.042 0 0 0-3.663-8.838 12.042 12.042 0 0 0-8.837-3.662H58.333a12.042 12.042 0 0 0-8.837 3.662 12.042 12.042 0 0 0-3.663 8.838v16.667a6.25 6.25 0 0 1-1.591 4.166h7.841a4.167 4.167 0 0 1 4.167 4.167v25a4.167 4.167 0 0 1-4.167 4.167h-25a4.167 4.167 0 0 1-4.166-4.167v-25a4.167 4.167 0 0 1 4.166-4.167h7.842a6.25 6.25 0 0 1-1.592-4.166V112.5c0-6.904 2.442-12.796 7.321-17.68 4.888-4.878 10.775-7.32 17.68-7.32H93.75V65.708a20.833 20.833 0 1 1 12.5 0V87.5z"/></svg>