<svg width="200" height="200" xmlns="http://www.w3.org/2000/svg"><defs><style/></defs><path d="M25 100a6.25 6.25 0 0 1 6.25-6.25h137.5a6.25 6.25 0 0 1 0 12.5H31.25A6.25 6.25 0 0 1 25 100zm0 60.417a6.25 6.25 0 0 1 6.25-6.25h12.5a6.25 6.25 0 0 1 0 12.5h-12.5a6.25 6.25 0 0 1-6.25-6.25zm41.667 0a6.25 6.25 0 0 1 6.25-6.25h12.5a6.25 6.25 0 0 1 0 12.5h-12.5a6.25 6.25 0 0 1-6.25-6.25zm41.666 0a6.25 6.25 0 0 1 6.25-6.25h12.5a6.25 6.25 0 0 1 0 12.5h-12.5a6.25 6.25 0 0 1-6.25-6.25zm41.667 0a6.25 6.25 0 0 1 6.25-6.25h12.5a6.25 6.25 0 0 1 0 12.5h-12.5a6.25 6.25 0 0 1-6.25-6.25zM25 39.583a6.25 6.25 0 0 1 6.25-6.25h12.5a6.25 6.25 0 1 1 0 12.5h-12.5a6.25 6.25 0 0 1-6.25-6.25zm41.667 0a6.25 6.25 0 0 1 6.25-6.25h12.5a6.25 6.25 0 0 1 0 12.5h-12.5a6.25 6.25 0 0 1-6.25-6.25zm41.666 0a6.25 6.25 0 0 1 6.25-6.25h12.5a6.25 6.25 0 0 1 0 12.5h-12.5a6.25 6.25 0 0 1-6.25-6.25zm41.667 0a6.25 6.25 0 0 1 6.25-6.25h12.5a6.25 6.25 0 0 1 0 12.5h-12.5a6.25 6.25 0 0 1-6.25-6.25z"/></svg>