<svg width="200" height="200" xmlns="http://www.w3.org/2000/svg"><defs><style/></defs><path d="M163.542 67.708c0 13.021-3.763 25.863-11.171 38.542h3.667a25 25 0 0 1 23.8 17.35l11.125 34.608a20.833 20.833 0 0 1-19.834 27.209H28.875a20.833 20.833 0 0 1-19.833-27.209L20.167 123.6a25 25 0 0 1 23.791-17.35h3.667c-7.408-12.68-11.17-25.52-11.17-38.542C36.457 32.617 64.907 4.167 100 4.167s63.542 28.45 63.542 63.541zm-26.625 59.25c-6.738 7.409-14.734 14.763-23.959 22.067a20.82 20.82 0 0 1-25.891.012l-1.792-1.429c-8.442-6.804-15.812-13.65-22.096-20.546a10.525 10.525 0 0 1-.679.021H43.963a4.167 4.167 0 0 0-3.967 2.892l-11.121 34.608h142.25L160 129.975a4.167 4.167 0 0 0-3.962-2.892h-17.496c-.554 0-1.096-.041-1.625-.125zm-79.625-59.25c0 20.038 13.32 41.317 41.008 63.646l1.7 1.358c28.288-22.391 42.158-43.716 42.692-63.8l.016-1.204C142.708 44.125 123.583 25 100 25c-23.587 0-42.708 19.125-42.708 42.708zm26.041 0a16.667 16.667 0 1 1 33.334 0 16.667 16.667 0 0 1-33.334 0z"/></svg>