<svg width="200" height="200" xmlns="http://www.w3.org/2000/svg"><defs><style/></defs><path d="M26.042 86.458c0-10.029 1.937-19.625 5.816-28.791a73.367 73.367 0 0 1 15.842-23.5A73.367 73.367 0 0 1 71.204 18.32 73.167 73.167 0 0 1 100 12.5c10.03 0 19.625 1.938 28.792 5.817a73.367 73.367 0 0 1 23.504 15.846 73.367 73.367 0 0 1 15.846 23.504 73.167 73.167 0 0 1 5.816 28.791c0 37.284-22.754 70.825-68.266 100.634a10.198 10.198 0 0 1-5.692 1.691c-2.07 0-3.97-.562-5.692-1.691-45.512-29.809-68.266-63.35-68.266-100.634zm12.5 0c0 32.475 20.487 62.28 61.458 89.417 40.97-27.137 61.458-56.942 61.458-89.417a60.792 60.792 0 0 0-4.829-23.916A60.975 60.975 0 0 0 143.46 43a60.98 60.98 0 0 0-19.542-13.17A60.788 60.788 0 0 0 100 25c-8.338 0-16.313 1.608-23.917 4.83A60.98 60.98 0 0 0 56.542 43 60.98 60.98 0 0 0 43.37 62.542a60.788 60.788 0 0 0-4.83 23.916zM100 117.708c-8.63 0-15.996-3.05-22.096-9.154-6.104-6.1-9.154-13.466-9.154-22.096 0-8.629 3.05-15.995 9.154-22.095C84 58.258 91.371 55.208 100 55.208c8.63 0 15.996 3.05 22.096 9.154 6.104 6.1 9.154 13.467 9.154 22.096 0 8.63-3.05 15.996-9.154 22.096-6.096 6.104-13.467 9.154-22.096 9.154zm0-50c-5.18 0-9.596 1.834-13.258 5.492-3.663 3.662-5.492 8.083-5.492 13.258 0 5.18 1.833 9.596 5.492 13.259 3.662 3.662 8.083 5.491 13.258 5.491 5.18 0 9.596-1.833 13.258-5.491 3.663-3.663 5.492-8.084 5.492-13.259 0-5.179-1.833-9.596-5.492-13.258-3.662-3.663-8.083-5.492-13.258-5.492z" fill="#111925"/></svg>