<svg width="200" height="200" xmlns="http://www.w3.org/2000/svg"><defs><style/></defs><path d="M100 2.083A10.417 10.417 0 0 1 110.417 12.5v7.97a80.208 80.208 0 0 1 69.112 69.113h7.971a10.417 10.417 0 0 1 0 20.834h-7.97a80.208 80.208 0 0 1-69.113 69.112v7.971a10.417 10.417 0 0 1-20.834 0v-7.97a80.208 80.208 0 0 1-69.112-69.113H12.5a10.417 10.417 0 0 1 0-20.834h7.97a80.208 80.208 0 0 1 69.113-69.112V12.5A10.417 10.417 0 0 1 100 2.083zm0 38.542c-32.792 0-59.375 26.583-59.375 59.375S67.208 159.375 100 159.375s59.375-26.583 59.375-59.375S132.792 40.625 100 40.625zM118.75 100a18.75 18.75 0 1 1-37.5 0 18.75 18.75 0 0 1 37.5 0z"/></svg>