<svg width="200" height="200" xmlns="http://www.w3.org/2000/svg"><defs><style/></defs><path d="M186.458 92.675v18.817c0 9.795-6.766 17.929-15.646 19.487-9.7 27.721-35.27 48.125-66.15 50l-4.283.258a6.25 6.25 0 0 1-.758-12.474l4.287-.263c25.059-1.517 45.921-17.692 54.455-39.875-5.621-3.412-9.405-9.808-9.405-17.133V92.675c0-7.85 4.342-14.63 10.638-17.817C151.583 49.575 127.929 31.25 100 31.25c-27.933 0-51.583 18.325-59.596 43.608 6.292 3.188 10.638 9.967 10.638 17.817v18.817c0 10.912-8.396 19.758-18.75 19.758s-18.75-8.846-18.75-19.758V92.675c0-9.267 6.054-17.046 14.225-19.18C36.604 41.914 65.6 18.75 100 18.75c34.404 0 63.396 23.167 72.233 54.746 8.167 2.133 14.225 9.912 14.225 19.179zM73.992 120.863a6.25 6.25 0 0 1 8.82.545A22.842 22.842 0 0 0 100 129.167a22.83 22.83 0 0 0 17.18-7.75 6.25 6.25 0 0 1 9.366 8.279A35.337 35.337 0 0 1 100 141.666a35.337 35.337 0 0 1-26.554-11.983 6.25 6.25 0 0 1 .546-8.82z"/></svg>