<svg width="200" height="200" xmlns="http://www.w3.org/2000/svg"><defs><style/></defs><path d="M100 16.667q-4.275 0-8.513.433a6.25 6.25 0 1 0 1.263 12.433h.008q3.6-.366 7.242-.366 3.646 0 7.25.366a6.25 6.25 0 0 0 1.263-12.433q-4.234-.433-8.513-.433zM58.333 27.833q-3.704 2.138-7.158 4.625A6.251 6.251 0 1 0 58.488 42.6l.004-.004q2.937-2.117 6.091-3.938 3.159-1.825 6.459-3.308a6.258 6.258 0 0 0 2.854-8.825 6.25 6.25 0 0 0-7.975-2.575q-3.88 1.742-7.584 3.883zm83.334 0q-3.709-2.137-7.588-3.883a6.25 6.25 0 1 0-5.125 11.4h.004q3.304 1.487 6.459 3.308 3.158 1.825 6.095 3.942a6.25 6.25 0 0 0 7.313-10.138q-3.454-2.487-7.158-4.625zm30.5 30.5q-2.134-3.704-4.625-7.158a6.25 6.25 0 1 0-10.138 7.313v.004q2.121 2.937 3.942 6.091 1.82 3.159 3.308 6.459a6.25 6.25 0 0 0 11.4-5.125q-1.746-3.875-3.883-7.584zm-144.334 0q-2.141 3.709-3.887 7.592A6.251 6.251 0 0 0 35.35 71.05v-.008q1.483-3.3 3.308-6.459 1.821-3.154 3.942-6.091a6.25 6.25 0 0 0-10.138-7.313q-2.491 3.45-4.633 7.158zm43.5 37.684a6.25 6.25 0 1 0-9.016 8.654l20.6 21.454.229.233a10.417 10.417 0 0 0 14.729-.166l41.187-42.104a6.25 6.25 0 0 0-.095-8.834l-.45-.404a6.25 6.25 0 0 0-8.388.5l-39.687 40.567-19.1-19.9zm112 3.983q0-4.275-.429-8.512a6.25 6.25 0 1 0-12.433 1.262v.008q.362 3.6.362 7.242 0 3.646-.366 7.25a6.258 6.258 0 0 0 6.216 6.883 6.25 6.25 0 0 0 6.217-5.62q.433-4.234.433-8.513zm-166.666 0q0 4.28.429 8.517a6.25 6.25 0 1 0 12.433-1.267q-.362-3.608-.362-7.25t.362-7.25a6.25 6.25 0 0 0-12.433-1.262q-.43 4.237-.43 8.516zm155.5 41.667q2.141-3.704 3.887-7.584a6.25 6.25 0 1 0-11.4-5.125q-1.487 3.304-3.308 6.459-1.825 3.158-3.942 6.096a6.25 6.25 0 0 0 10.138 7.312q2.487-3.454 4.625-7.158zm-144.334 0q2.138 3.708 4.625 7.162a6.251 6.251 0 0 0 10.142-7.312l-.004-.004q-2.117-2.938-3.938-6.092-1.825-3.158-3.308-6.458a6.25 6.25 0 0 0-11.4 5.125q1.742 3.875 3.88 7.583zm30.5 30.5q3.704 2.141 7.584 3.887a6.25 6.25 0 1 0 5.125-11.4q-3.305-1.487-6.459-3.308-3.158-1.825-6.096-3.942a6.25 6.25 0 0 0-7.312 10.138q3.45 2.487 7.158 4.625zm83.334.004q3.704-2.138 7.158-4.625a6.252 6.252 0 0 0-7.313-10.142l-.004.004q-2.937 2.117-6.091 3.938-3.159 1.825-6.459 3.308a6.25 6.25 0 0 0 5.125 11.4q3.875-1.741 7.584-3.883zM100 183.333q4.275 0 8.512-.429a6.25 6.25 0 1 0-1.262-12.433h-.008q-3.6.362-7.242.362-3.646 0-7.25-.362a6.25 6.25 0 0 0-1.263 12.437q4.234.425 8.513.425z" fill-rule="evenodd"/></svg>