<svg width="200" height="200" xmlns="http://www.w3.org/2000/svg"><defs><style/></defs><path d="M100 14.583c47.175 0 85.417 38.242 85.417 85.417S147.175 185.417 100 185.417 14.583 147.175 14.583 100 52.825 14.583 100 14.583zm0 16.667c-37.97 0-68.75 30.78-68.75 68.75s30.78 68.75 68.75 68.75 68.75-30.78 68.75-68.75S137.97 31.25 100 31.25zm27.454 43.825a8.333 8.333 0 0 1 11.321-.55l.462.417a8.333 8.333 0 0 1 .134 11.787l-40.13 41.046a12.5 12.5 0 0 1-17.137.7l-.646-.604-19.729-20.575a8.335 8.335 0 1 1 12.034-11.538l16.566 17.288z"/></svg>