<svg width="200" height="200" xmlns="http://www.w3.org/2000/svg"><defs><style/></defs><path d="M100 16.667c46.025 0 83.333 37.308 83.333 83.333S146.025 183.333 100 183.333 16.667 146.025 16.667 100 53.975 16.667 100 16.667zm0 12.5c-39.12 0-70.833 31.712-70.833 70.833S60.879 170.833 100 170.833s70.833-31.712 70.833-70.833S139.121 29.167 100 29.167zm29.992 46.308a6.25 6.25 0 0 1 8.387-.5l.45.4a6.25 6.25 0 0 1 .1 8.842L97.742 126.32a10.417 10.417 0 0 1-14.734.162l-.229-.233-20.592-21.454a6.25 6.25 0 1 1 9.017-8.654l19.1 19.9z"/></svg>