<svg width="200" height="200" xmlns="http://www.w3.org/2000/svg"><defs><style/></defs><path d="M171.183 33.37c10.134 19.568 15.275 34.243 15.275 44.755a36.4 36.4 0 0 1-14.583 29.167v46.875a27.083 27.083 0 0 1-27.083 27.083H55.208a27.083 27.083 0 0 1-27.083-27.083v-46.875a36.404 36.404 0 0 1-14.583-29.167c0-9.813 4.479-23.25 13.32-40.917l1.959-3.85A27.096 27.096 0 0 1 52.875 18.75h94.25a27.1 27.1 0 0 1 24.054 14.62zm-15.975 80.838a36.404 36.404 0 0 1-29.512-8.908l-.696-.642-.692.646a36.396 36.396 0 0 1-23.058 9.258l-1.25.021a36.404 36.404 0 0 1-24.304-9.279l-.696-.646-.692.646a36.396 36.396 0 0 1-23.058 9.258l-1.25.021c-1.767 0-3.508-.125-5.208-.37v39.954a10.417 10.417 0 0 0 10.416 10.416h89.584a10.417 10.417 0 0 0 10.416-10.416v-39.955zM52.875 35.417a10.419 10.419 0 0 0-9.254 5.616C34.625 58.396 30.208 71 30.208 78.125a19.792 19.792 0 0 0 37.384 9.07l.341-.6c3.35-5.408 11.467-5.208 14.467.597A19.787 19.787 0 0 0 100 97.917a19.775 19.775 0 0 0 17.592-10.721l.341-.6c3.35-5.409 11.467-5.209 14.467.596a19.792 19.792 0 0 0 37.392-9.067c0-7.12-4.417-19.73-13.404-37.083a10.43 10.43 0 0 0-9.263-5.625H52.871z"/></svg>