<svg width="200" height="200" xmlns="http://www.w3.org/2000/svg"><defs><style/></defs><path d="M173.033 32.413c10.275 19.845 15.509 34.775 15.509 45.712a38.47 38.47 0 0 1-14.584 30.192v45.85a29.167 29.167 0 0 1-29.166 29.166H55.208a29.167 29.167 0 0 1-29.166-29.166v-45.85a38.47 38.47 0 0 1-14.584-30.192c0-10.208 4.559-23.896 13.53-41.82l1.987-3.905a29.18 29.18 0 0 1 25.9-15.733h94.25a29.188 29.188 0 0 1 25.908 15.746zm-19.908 84.129a38.48 38.48 0 0 1-27.258-8.363l-.871-.72-.859.72a38.467 38.467 0 0 1-22.854 8.467l-1.283.02a38.48 38.48 0 0 1-24.133-8.487l-.871-.72-.859.72a38.467 38.467 0 0 1-22.854 8.467l-1.283.02c-1.05 0-2.096-.041-3.125-.124v37.625a8.333 8.333 0 0 0 8.333 8.333h89.584a8.333 8.333 0 0 0 8.333-8.333v-37.625zM52.875 37.5a8.337 8.337 0 0 0-7.404 4.492c-8.85 17.083-13.18 29.437-13.18 36.133a17.708 17.708 0 0 0 33.45 8.117l.376-.667c4.15-6.846 14.37-6.625 18.137.662l.43.784A17.7 17.7 0 0 0 100 95.833c6.7 0 12.72-3.75 15.742-9.591l.375-.667c4.15-6.846 14.37-6.625 18.137.662l.43.784a17.708 17.708 0 0 0 33.024-8.896c0-6.696-4.329-19.046-13.17-36.125a8.35 8.35 0 0 0-7.413-4.5H52.871z"/></svg>