<svg width="200" height="200" xmlns="http://www.w3.org/2000/svg"><defs><style/></defs><path d="M16.667 100c0-46.025 37.308-83.333 83.333-83.333S183.333 53.975 183.333 100 146.025 183.333 100 183.333 16.667 146.025 16.667 100zM62.5 79.167V87.5a8.333 8.333 0 1 0 16.667 0v-8.333a8.333 8.333 0 1 0-16.667 0zm66.667 16.666A8.333 8.333 0 0 0 137.5 87.5v-8.333a8.333 8.333 0 1 0-16.667 0V87.5a8.333 8.333 0 0 0 8.334 8.333zM72.4 131.221a35.337 35.337 0 0 0 26.554 11.983 35.337 35.337 0 0 0 26.546-11.97 6.25 6.25 0 1 0-9.367-8.28 22.842 22.842 0 0 1-17.179 7.75 22.841 22.841 0 0 1-17.187-7.758 6.25 6.25 0 1 0-9.367 8.275z"/></svg>