<svg width="200" height="200" xmlns="http://www.w3.org/2000/svg"><defs><style/></defs><path d="M80.537 26.37a9.488 9.488 0 0 1 6.963-2.887h25c2.72 0 5.042.963 6.963 2.888 1.925 1.92 2.887 4.242 2.887 6.962v25c0 2.721-.962 5.042-2.887 6.963a9.488 9.488 0 0 1-6.963 2.887h-6.25v23.484h35.417c6.904 0 12.795 2.441 17.679 7.32 4.879 4.888 7.32 10.776 7.32 17.68v17.625a20.833 20.833 0 1 1-12.5 0v-17.625a12.042 12.042 0 0 0-3.662-8.838 12.042 12.042 0 0 0-8.837-3.662H58.333a12.042 12.042 0 0 0-8.837 3.662 12.042 12.042 0 0 0-3.663 8.838v17.625a20.833 20.833 0 1 1-12.5 0v-17.625c0-6.904 2.442-12.796 7.321-17.68 4.888-4.879 10.775-7.32 17.68-7.32H93.75V68.183H87.5c-2.72 0-5.042-.962-6.963-2.887a9.492 9.492 0 0 1-2.887-6.963v-25c0-2.72.962-5.041 2.887-6.962zm8.48 30.447h21.966V34.85H89.017v21.967z"/></svg>