<svg width="200" height="200" xmlns="http://www.w3.org/2000/svg"><defs><style/></defs><path d="M183.333 100q0 15.896-5.85 30.675-6.354 16.046-18.558 28.25-12.204 12.208-28.25 18.558-14.78 5.85-30.675 5.85t-30.675-5.85q-16.046-6.354-28.25-18.558-12.208-12.204-18.558-28.25-5.85-14.78-5.85-30.675t5.85-30.675q6.354-16.046 18.558-28.25 12.204-12.208 28.25-18.558 14.78-5.85 30.675-5.85t30.675 5.85q16.046 6.354 28.25 18.558 12.208 12.204 18.558 28.25 5.85 14.78 5.85 30.675zm-12.5 0q0-13.512-4.975-26.075-5.4-13.637-15.77-24.012-10.375-10.376-24.013-15.771-12.563-4.975-26.075-4.975t-26.075 4.975q-13.633 5.4-24.008 15.77-10.375 10.375-15.771 24.013-4.98 12.562-4.98 26.075t4.976 26.075q5.4 13.637 15.77 24.012 10.375 10.376 24.013 15.771 12.562 4.975 26.075 4.975t26.075-4.975q13.637-5.4 24.012-15.77 10.375-10.375 15.771-24.013 4.975-12.563 4.975-26.075zm-63.541-34.392c0-4.029-3.267-7.275-7.292-7.275s-7.292 3.225-7.292 7.25v1.084q0 14.958.838 41.625c.108 3.487 2.97 6.291 6.454 6.291s6.346-2.8 6.454-6.283q.838-26.658.838-41.604v-1.088zm1.041 67.725a8.333 8.333 0 1 1-16.666 0 8.333 8.333 0 0 1 16.666 0z" fill-rule="evenodd" fill="#111925"/></svg>