<svg width="200" height="200" xmlns="http://www.w3.org/2000/svg"><defs><style/></defs><path d="M75.825 27.688L13.938 130.829A29.167 29.167 0 0 0 38.95 175h123.767a29.167 29.167 0 0 0 25.012-44.17L125.842 27.686a29.167 29.167 0 0 0-50.017 0zm29.296 7.862a8.333 8.333 0 0 1 2.858 2.858l61.883 103.134a8.333 8.333 0 0 1-7.145 12.625H38.95a8.333 8.333 0 0 1-7.146-12.625L93.688 38.408a8.333 8.333 0 0 1 11.433-2.858zM89.583 73.958a10.417 10.417 0 0 1 20.834 0l-.013 5.08a644.398 644.398 0 0 1-.708 25.258 9.708 9.708 0 0 1-19.388 0A623.792 623.792 0 0 1 89.583 75v-1.042zM100 143.75a11.458 11.458 0 1 0 0-22.917 11.458 11.458 0 0 0 0 22.917z" fill-rule="evenodd"/></svg>