<svg width="200" height="200" xmlns="http://www.w3.org/2000/svg"><defs><style/></defs><path d="M77.608 28.758L15.725 131.9a27.083 27.083 0 0 0 23.225 41.017h123.767a27.083 27.083 0 0 0 23.225-41.017L124.058 28.758a27.083 27.083 0 0 0-46.45 0zm28.584 5.004a10.417 10.417 0 0 1 3.575 3.575l61.883 103.138a10.417 10.417 0 0 1-8.933 15.775H38.95a10.417 10.417 0 0 1-8.933-15.775L91.9 37.338a10.417 10.417 0 0 1 13.667-3.921l.625.346zM91.15 73.958a8.854 8.854 0 0 1 17.708 0l-.012 4.25a699.542 699.542 0 0 1-.446 20.634l-.292 7.462a8.113 8.113 0 0 1-16.208 0c-.5-11.425-.75-21.858-.75-31.304v-1.042zM100 143.75a10.417 10.417 0 1 0 0-20.833 10.417 10.417 0 0 0 0 20.833z" fill-rule="evenodd"/></svg>