<svg width="200" height="200" xmlns="http://www.w3.org/2000/svg"><defs><style/></defs><path d="M38.57 26.07c4.888-4.878 10.776-7.32 17.68-7.32H150c6.904 0 12.796 2.442 17.68 7.32 4.878 4.888 7.32 10.776 7.32 17.68v112.5c0 6.904-2.442 12.796-7.32 17.68-4.888 4.878-10.776 7.32-17.68 7.32H56.25c-6.904 0-12.796-2.442-17.68-7.32-4.878-4.888-7.32-10.776-7.32-17.68V43.75c0-6.904 2.442-12.796 7.32-17.68zm17.68 142.68H150a12.042 12.042 0 0 0 8.838-3.662 12.042 12.042 0 0 0 3.662-8.838V43.75a12.042 12.042 0 0 0-3.662-8.837A12.042 12.042 0 0 0 150 31.25H56.25a12.042 12.042 0 0 0-8.838 3.663 12.042 12.042 0 0 0-3.662 8.837v112.5c0 3.45 1.22 6.396 3.662 8.838a12.042 12.042 0 0 0 8.838 3.662zm62.5-25a6.25 6.25 0 0 1 0 12.5H85.417a6.25 6.25 0 0 1 0-12.5h33.333z"/></svg>