<svg width="200" height="200" xmlns="http://www.w3.org/2000/svg"><defs><style/></defs><path d="M150 29.167H50a6.25 6.25 0 1 1 0-12.5h100a6.25 6.25 0 0 1 0 12.5zm18.75 31.25v21.4a25 25 0 0 1-7.32 17.675l-18.543 18.541a4.167 4.167 0 0 0-1.22 2.946v47.771a25 25 0 0 1-25 25H83.333a25 25 0 0 1-25-25v-47.77a4.167 4.167 0 0 0-1.22-2.947L38.57 99.492a25 25 0 0 1-7.321-17.675v-21.4A16.667 16.667 0 0 1 47.917 43.75h104.166a16.667 16.667 0 0 1 16.667 16.667zM47.917 56.25a4.167 4.167 0 0 0-4.167 4.167v21.4a12.5 12.5 0 0 0 3.662 8.837l18.542 18.542a16.667 16.667 0 0 1 4.88 11.783v47.771a12.5 12.5 0 0 0 12.5 12.5h33.333a12.5 12.5 0 0 0 12.5-12.5v-47.77a16.667 16.667 0 0 1 4.883-11.784l18.542-18.542a12.5 12.5 0 0 0 3.658-8.837v-21.4a4.167 4.167 0 0 0-4.167-4.167H47.917zm58.333 100a6.25 6.25 0 0 1-12.5 0v-29.167a6.25 6.25 0 0 1 12.5 0v29.167z"/></svg>