<svg width="200" height="200" xmlns="http://www.w3.org/2000/svg"><defs><style/></defs><path d="M45.833 37.5v-6.25a14.583 14.583 0 0 1 14.584-14.583h79.166a14.583 14.583 0 0 1 14.584 14.583v6.25A4.167 4.167 0 0 1 150 41.667H50a4.167 4.167 0 0 1-4.167-4.167zm-6.25 18.75h120.834a22.917 22.917 0 0 1 22.916 22.917V125a22.925 22.925 0 0 1-14.583 21.354v-10.937c0-6.904-2.442-12.796-7.32-17.68-4.888-4.879-10.776-7.32-17.68-7.32h-87.5c-6.904 0-12.796 2.441-17.68 7.32-4.878 4.888-7.32 10.776-7.32 17.68v10.937A22.925 22.925 0 0 1 16.667 125V79.167A22.917 22.917 0 0 1 39.583 56.25zM75 85.417a6.25 6.25 0 0 0-6.25-6.25h-12.5a6.25 6.25 0 0 0 0 12.5h12.5a6.25 6.25 0 0 0 6.25-6.25zm-10.417 97.916a18.75 18.75 0 0 1-18.75-18.75V143.75A18.75 18.75 0 0 1 64.583 125h70.834a18.75 18.75 0 0 1 18.75 18.75v20.833a18.75 18.75 0 0 1-18.75 18.75H64.583z"/></svg>