<svg width="200" height="200" xmlns="http://www.w3.org/2000/svg"><defs><style/></defs><path d="M77.942 31.25a6.25 6.25 0 0 0-6.25-6.25H50a25 25 0 0 0-25 25v17.646a6.25 6.25 0 0 0 12.5 0V50A12.5 12.5 0 0 1 50 37.5h21.692a6.25 6.25 0 0 0 6.25-6.25zM175 50a25 25 0 0 0-25-25h-21.692a6.25 6.25 0 0 0 0 12.5H150A12.5 12.5 0 0 1 162.5 50v17.646a6.25 6.25 0 0 0 12.5 0V50zm2.083 50a6.25 6.25 0 0 0-6.25-6.25H29.167a6.25 6.25 0 1 0 0 12.5h141.666a6.25 6.25 0 0 0 6.25-6.25zM37.5 132.354a6.25 6.25 0 0 0-12.5 0V150a25 25 0 0 0 25 25h21.692a6.25 6.25 0 1 0 0-12.5H50A12.5 12.5 0 0 1 37.5 150v-17.646zm137.5 0a6.25 6.25 0 0 0-12.5 0V150a12.5 12.5 0 0 1-12.5 12.5h-21.692a6.25 6.25 0 0 0 0 12.5H150a25 25 0 0 0 25-25v-17.646z" fill-rule="evenodd"/></svg>