<svg width="200" height="200" xmlns="http://www.w3.org/2000/svg"><defs><style/></defs><path d="M80.096 21.875h39.808a20.833 20.833 0 0 1 16.446 8.042l8.33 10.708h14.695a29.167 29.167 0 0 1 29.167 29.167v76.041A29.167 29.167 0 0 1 159.375 175H40.625a29.167 29.167 0 0 1-29.167-29.167V69.792a29.167 29.167 0 0 1 29.167-29.167h14.696l8.329-10.708a20.833 20.833 0 0 1 16.446-8.042zm48.137 31.542l-8.329-10.709H80.096l-8.33 10.709a20.833 20.833 0 0 1-16.445 8.041H40.625a8.333 8.333 0 0 0-8.333 8.334v76.041a8.333 8.333 0 0 0 8.333 8.334h118.75a8.333 8.333 0 0 0 8.333-8.334V69.792a8.333 8.333 0 0 0-8.333-8.334h-14.696a20.833 20.833 0 0 1-16.446-8.041zm13.434 24.708a9.375 9.375 0 1 1 18.75 0 9.375 9.375 0 0 1-18.75 0zM64.583 106.25a35.417 35.417 0 1 1 70.834 0 35.417 35.417 0 0 1-70.834 0zM100 120.833a14.583 14.583 0 1 0 0-29.166 14.583 14.583 0 0 0 0 29.166z"/></svg>