<svg width="200" height="200" xmlns="http://www.w3.org/2000/svg"><defs><style/></defs><path d="M80.096 26.042h39.808a16.667 16.667 0 0 1 13.159 6.433l8.325 10.708a4.167 4.167 0 0 0 3.291 1.609h14.696a25 25 0 0 1 25 25v76.041a25 25 0 0 1-25 25H40.625a25 25 0 0 1-25-25V69.792a25 25 0 0 1 25-25h14.696a4.167 4.167 0 0 0 3.292-1.609l8.324-10.708a16.667 16.667 0 0 1 13.159-6.433zm43.1 14.108a4.167 4.167 0 0 0-3.292-1.608H80.096a4.167 4.167 0 0 0-3.292 1.608L68.48 50.858a16.667 16.667 0 0 1-13.158 6.434H40.625a12.5 12.5 0 0 0-12.5 12.5v76.041a12.5 12.5 0 0 0 12.5 12.5h118.75a12.5 12.5 0 0 0 12.5-12.5V69.792a12.5 12.5 0 0 0-12.5-12.5h-14.696a16.667 16.667 0 0 1-13.158-6.434l-8.325-10.708zm20.554 36.933a8.333 8.333 0 1 1 16.667 0 8.333 8.333 0 0 1-16.667 0zM64.583 106.25a35.417 35.417 0 1 1 70.834 0 35.417 35.417 0 0 1-70.834 0zM100 129.167a22.917 22.917 0 1 0 0-45.834 22.917 22.917 0 0 0 0 45.834z"/></svg>