<svg width="200" height="200" xmlns="http://www.w3.org/2000/svg"><defs><style/></defs><path d="M133.063 32.475l8.325 10.708a4.167 4.167 0 0 0 3.291 1.609h14.696a25 25 0 0 1 25 25v76.041a25 25 0 0 1-25 25H40.625a25 25 0 0 1-25-25V69.792a25 25 0 0 1 25-25h14.696a4.167 4.167 0 0 0 3.292-1.609l8.324-10.708a16.667 16.667 0 0 1 13.159-6.433h39.808a16.667 16.667 0 0 1 13.159 6.433zm19.02 36.275a8.333 8.333 0 1 0 0 16.667 8.333 8.333 0 0 0 0-16.667zM100 70.833a35.417 35.417 0 1 0 0 70.834 35.417 35.417 0 0 0 0-70.834zm22.917 35.417a22.917 22.917 0 1 1-45.834 0 22.917 22.917 0 0 1 45.834 0z"/></svg>