<svg width="200" height="200" xmlns="http://www.w3.org/2000/svg"><defs><style/></defs><path d="M114.583 43.75H132.5a25.833 25.833 0 0 1 25.833 25.833V87.5a4.167 4.167 0 0 0 4.167 4.167h2.083a20.833 20.833 0 0 1 0 41.666H162.5a4.167 4.167 0 0 0-4.167 4.167v17.917A25.833 25.833 0 0 1 132.5 181.25H46.667a25.833 25.833 0 0 1-25.834-25.833V137.5A4.167 4.167 0 0 1 25 133.333h6.25a20.833 20.833 0 0 0 0-41.666H25a4.167 4.167 0 0 1-4.167-4.167V69.583A25.833 25.833 0 0 1 46.667 43.75h17.916a4.167 4.167 0 0 0 4.167-4.167V37.5a20.833 20.833 0 0 1 41.667 0v2.083a4.167 4.167 0 0 0 4.166 4.167z"/></svg>