<svg width="200" height="200" xmlns="http://www.w3.org/2000/svg"><defs><style/></defs><path d="M46.554 45.833h13.863A2.083 2.083 0 0 0 62.5 43.75c0-7.48 2.646-13.863 7.933-19.15 5.288-5.292 11.671-7.933 19.15-7.933s13.863 2.646 19.15 7.933c5.292 5.288 7.934 11.67 7.934 19.15a2.083 2.083 0 0 0 2.083 2.083h13.863c7.104 0 13.166 2.513 18.187 7.534s7.533 11.083 7.533 18.187v13.863a2.083 2.083 0 0 0 2.084 2.083c7.479 0 13.862 2.646 19.15 7.933 5.291 5.288 7.933 11.671 7.933 19.15s-2.646 13.863-7.933 19.15c-5.288 5.292-11.671 7.934-19.15 7.934a2.083 2.083 0 0 0-2.084 2.083v13.862c0 7.105-2.512 13.167-7.533 18.188s-11.083 7.533-18.187 7.533H46.554c-7.104 0-13.166-2.512-18.187-7.533s-7.534-11.083-7.534-18.188v-24.279A4.167 4.167 0 0 1 25 129.167h10.417c4.025 0 7.462-1.425 10.312-4.271A14.05 14.05 0 0 0 50 114.583c0-4.025-1.425-7.462-4.27-10.312A14.05 14.05 0 0 0 35.416 100H25a4.167 4.167 0 0 1-4.167-4.167V71.554c0-7.104 2.513-13.167 7.534-18.187s11.083-7.534 18.187-7.534zm0 12.5c-3.65 0-6.767 1.292-9.35 3.875-2.583 2.58-3.87 5.696-3.87 9.346v13.863a2.083 2.083 0 0 0 2.083 2.083c7.479 0 13.862 2.646 19.15 7.933 5.291 5.288 7.933 11.671 7.933 19.15s-2.646 13.863-7.933 19.15c-5.288 5.292-11.671 7.934-19.15 7.934a2.083 2.083 0 0 0-2.084 2.083v13.862c0 3.65 1.292 6.767 3.875 9.35 2.58 2.584 5.696 3.871 9.346 3.871h86.059c3.65 0 6.766-1.291 9.35-3.875 2.583-2.579 3.87-5.696 3.87-9.346v-24.279a4.167 4.167 0 0 1 4.167-4.166h10.417c4.029 0 7.462-1.425 10.312-4.271A14.054 14.054 0 0 0 175 114.583c0-4.025-1.425-7.462-4.27-10.312A14.054 14.054 0 0 0 160.416 100H150a4.167 4.167 0 0 1-4.167-4.167V71.554c0-3.65-1.291-6.767-3.875-9.35a12.737 12.737 0 0 0-9.341-3.87h-24.284a4.167 4.167 0 0 1-4.166-4.167V43.75c0-4.025-1.425-7.463-4.271-10.313a14.05 14.05 0 0 0-10.313-4.27c-4.025 0-7.462 1.425-10.312 4.27A14.05 14.05 0 0 0 75 43.75v10.417a4.167 4.167 0 0 1-4.167 4.166H46.554z"/></svg>