<svg width="200" height="200" xmlns="http://www.w3.org/2000/svg"><defs><style/></defs><path d="M168.75 145.833h7.262c3.238 0 5.25 3.517 3.609 6.309l-13.513 22.975c-1.62 2.75-5.596 2.75-7.216 0l-13.513-22.975a4.188 4.188 0 0 1 3.609-6.309h7.262V56.25h-7.262c-3.238 0-5.25-3.517-3.609-6.308l13.513-22.975a4.188 4.188 0 0 1 7.216 0l13.513 22.975a4.188 4.188 0 0 1-3.609 6.308h-7.262v89.583zM22.917 35.417a6.25 6.25 0 1 0 0 12.5h62.5a6.25 6.25 0 0 0 0-12.5h-62.5zm0 39.583a6.25 6.25 0 0 0 0 12.5h100a6.25 6.25 0 0 0 0-12.5h-100zm-6.25 43.75a6.25 6.25 0 0 1 6.25-6.25h100a6.25 6.25 0 0 1 0 12.5h-100a6.25 6.25 0 0 1-6.25-6.25zm0 39.583a6.25 6.25 0 0 1 6.25-6.25h62.5a6.25 6.25 0 0 1 0 12.5h-62.5a6.25 6.25 0 0 1-6.25-6.25z" fill-rule="evenodd"/></svg>