<svg width="200" height="200" xmlns="http://www.w3.org/2000/svg"><defs><style/></defs><path d="M93.75 18.75q15.25 0 29.196 5.896 13.458 5.696 23.833 16.07 10.38 10.376 16.075 23.838 5.896 13.942 5.896 29.196 0 15.25-5.896 29.196-4.058 9.596-10.5 17.625l32.709 32.704a8.335 8.335 0 1 1-11.792 11.783l-32.7-32.704q-8.03 6.442-17.625 10.5-13.942 5.896-29.196 5.896-15.25 0-29.196-5.896-13.458-5.696-23.833-16.07-10.38-10.376-16.075-23.838-5.896-13.942-5.896-29.196 0-15.25 5.896-29.196 5.696-13.458 16.07-23.833 10.376-10.38 23.838-16.075Q78.496 18.75 93.75 18.75zm0 16.667q-24.163 0-41.25 17.083-17.083 17.087-17.083 41.25T52.5 135q17.087 17.083 41.25 17.083T135 135q17.083-17.087 17.083-41.25T135 52.5q-17.087-17.083-41.25-17.083z" fill-rule="evenodd" fill="#111925"/></svg>