<svg width="200" height="200" xmlns="http://www.w3.org/2000/svg"><defs><style/></defs><path d="M21.23 32.408c4.5-2.404 8.824-3.241 17.39-3.241l86.65.008c7.655.088 11.75.958 16 3.233a23.288 23.288 0 0 1 9.655 9.654c2.408 4.5 3.242 8.826 3.242 17.392v8.75l24.916-19.079a10.417 10.417 0 0 1 16.75 8.27v85.21a10.417 10.417 0 0 1-16.75 8.27l-24.916-19.083v8.75c0 8.566-.834 12.891-3.242 17.391a23.292 23.292 0 0 1-9.654 9.654c-4.5 2.409-8.83 3.242-17.392 3.242H38.625c-8.567 0-12.892-.833-17.392-3.242a23.288 23.288 0 0 1-9.654-9.654c-2.408-4.496-3.246-8.82-3.246-17.387l.009-82.483c.087-7.655.958-11.75 3.233-16a23.288 23.288 0 0 1 9.654-9.655zm102.645 9.259h-85.25c-6.68 0-9.054.458-11.5 1.766a10.792 10.792 0 0 0-4.52 4.521c-1.313 2.446-1.772 4.821-1.772 11.504v81.084c0 6.679.459 9.054 1.767 11.5a10.792 10.792 0 0 0 4.52 4.52c2.16 1.155 4.263 1.646 9.313 1.75l2.192.021h85.25c6.68 0 9.054-.458 11.5-1.766a10.792 10.792 0 0 0 4.52-4.525c1.155-2.155 1.647-4.259 1.75-9.309l.022-2.191V59.458c0-6.679-.459-9.054-1.767-11.5a10.792 10.792 0 0 0-4.525-4.52c-2.442-1.309-4.817-1.767-11.496-1.767zM37.5 67.708a9.375 9.375 0 1 1 18.75 0 9.375 9.375 0 0 1-18.75 0zm145.83 70.671V61.617l-29.163 22.329v32.108l29.162 22.325z"/></svg>