<svg width="200" height="200" xmlns="http://www.w3.org/2000/svg"><defs><style/></defs><path d="M158.925 41.075a82.667 82.667 0 0 1 17.858 26.488 82.442 82.442 0 0 1 6.55 32.437c0 11.3-2.183 22.112-6.55 32.438a82.667 82.667 0 0 1-17.858 26.487 82.667 82.667 0 0 1-26.488 17.858 82.442 82.442 0 0 1-32.437 6.55c-11.3 0-22.113-2.183-32.438-6.55a82.667 82.667 0 0 1-26.487-17.858 82.667 82.667 0 0 1-17.858-26.488A82.442 82.442 0 0 1 16.667 100c0-11.3 2.183-22.113 6.55-32.438a82.667 82.667 0 0 1 17.858-26.487 82.667 82.667 0 0 1 26.487-17.858A82.442 82.442 0 0 1 100 16.667c11.3 0 22.112 2.183 32.437 6.55a82.667 82.667 0 0 1 26.488 17.858zM49.917 49.912A70.28 70.28 0 0 0 34.733 72.43 70.063 70.063 0 0 0 29.167 100c0 9.608 1.854 18.8 5.562 27.57a70.28 70.28 0 0 0 15.184 22.518 70.28 70.28 0 0 0 22.516 15.183c8.771 3.708 17.959 5.562 27.571 5.562 9.608 0 18.8-1.854 27.57-5.562a70.283 70.283 0 0 0 22.518-15.183 70.283 70.283 0 0 0 15.183-22.517A70.063 70.063 0 0 0 170.833 100c0-9.608-1.854-18.8-5.562-27.57a70.28 70.28 0 0 0-15.183-22.518A70.28 70.28 0 0 0 127.57 34.73 70.063 70.063 0 0 0 100 29.167c-9.608 0-18.8 1.854-27.57 5.562a70.28 70.28 0 0 0-22.517 15.183zm33.416 72.005v-43.83a4.167 4.167 0 0 1 6.267-3.6l37.563 21.917a4.167 4.167 0 0 1 0 7.196L89.6 125.512a4.167 4.167 0 0 1-6.267-3.6z"/></svg>