<svg width="200" height="200" xmlns="http://www.w3.org/2000/svg"><defs><style/></defs><path d="M63.25 51.5l18.325-34.733a20.833 20.833 0 0 1 36.85 0L136.75 51.5l38.696 6.696a20.833 20.833 0 0 1 11.387 35.046l-27.37 28.162 5.591 38.871a20.833 20.833 0 0 1-29.812 21.662L100 164.604l-35.242 17.333a20.833 20.833 0 0 1-29.812-21.666l5.591-38.867-27.375-28.162a20.833 20.833 0 0 1 11.392-35.046L63.25 51.5zm55.075 9.72L100 26.488 81.675 61.221A20.833 20.833 0 0 1 66.8 72.029l-38.696 6.696 27.375 28.158a20.833 20.833 0 0 1 5.68 17.488l-5.592 38.87 35.241-17.333a20.833 20.833 0 0 1 18.384 0l35.241 17.334-5.591-38.875a20.833 20.833 0 0 1 5.683-17.484l27.37-28.158-38.695-6.696a20.833 20.833 0 0 1-14.875-10.808z"/></svg>