<svg width="200" height="200" xmlns="http://www.w3.org/2000/svg"><defs><style/></defs><path d="M65.092 52.47l18.325-34.728a18.75 18.75 0 0 1 33.166 0l18.325 34.729a2.083 2.083 0 0 0 1.488 1.083l38.696 6.696a18.75 18.75 0 0 1 10.25 31.542l-27.375 28.162a2.083 2.083 0 0 0-.563 1.75l5.588 38.867a18.75 18.75 0 0 1-26.834 19.496l-35.237-17.33a2.083 2.083 0 0 0-1.842 0l-35.237 17.33a18.75 18.75 0 0 1-26.834-19.496l5.588-38.871a2.083 2.083 0 0 0-.567-1.75L14.66 91.792a18.75 18.75 0 0 1 10.25-31.542l38.695-6.696a2.083 2.083 0 0 0 1.488-1.083zm36.75-26.953a2.083 2.083 0 0 0-3.684 0L79.833 60.25a18.75 18.75 0 0 1-13.387 9.725L27.75 76.671a2.083 2.083 0 0 0-1.137 3.504l27.37 28.162a18.75 18.75 0 0 1 5.113 15.738l-5.592 38.867a2.08 2.08 0 0 0 2.983 2.166l35.238-17.325a18.75 18.75 0 0 1 16.55 0l35.237 17.325a2.083 2.083 0 0 0 2.984-2.166l-5.592-38.867a18.75 18.75 0 0 1 5.113-15.742l27.375-28.162a2.083 2.083 0 0 0-1.142-3.504l-38.696-6.696a18.75 18.75 0 0 1-13.387-9.725l-18.325-34.733z"/></svg>