<svg width="200" height="200" xmlns="http://www.w3.org/2000/svg"><defs><style/></defs><path d="M25 119.82V47.143c0-4.95 2.308-9.48 6.92-13.584 4.11-3.658 9.905-6.804 17.388-9.441 14.096-4.967 30.996-7.45 50.692-7.45s36.596 2.483 50.692 7.45c7.483 2.637 13.279 5.783 17.387 9.441 4.613 4.104 6.921 8.634 6.921 13.584v105.716c0 5.238-2.55 9.98-7.654 14.23-4.054 3.379-9.604 6.308-16.654 8.791-14.096 4.975-30.996 7.454-50.692 7.454s-36.596-2.483-50.692-7.45c-7.05-2.487-12.6-5.416-16.654-8.791C27.55 162.838 25 158.088 25 152.854v-33.037zm12.5 17.638v15.4c0 1.334 1.05 2.875 3.154 4.625 2.904 2.421 7.171 4.625 12.808 6.609 12.75 4.495 28.267 6.741 46.538 6.741 18.27 0 33.783-2.25 46.538-6.741 5.637-1.984 9.904-4.188 12.808-6.604 2.104-1.75 3.154-3.296 3.154-4.63v-15.4c-3.308 1.984-7.246 3.78-11.808 5.388-14.096 4.967-30.996 7.45-50.692 7.45s-36.596-2.483-50.692-7.45c-4.562-1.608-8.5-3.404-11.808-5.388zm125-35.237c-3.308 1.983-7.246 3.779-11.808 5.387-14.096 4.967-30.996 7.45-50.692 7.45s-36.596-2.483-50.692-7.45c-4.562-1.608-8.5-3.404-11.808-5.387v17.6c0 1.333 1.05 2.875 3.154 4.625 2.904 2.42 7.171 4.625 12.809 6.612 12.75 4.492 28.266 6.738 46.537 6.738 18.27 0 33.783-2.246 46.538-6.738 5.637-1.987 9.904-4.191 12.808-6.608 2.104-1.75 3.154-3.292 3.154-4.625v-17.604zm-15.962-66.313c-12.75-4.495-28.267-6.741-46.538-6.741-18.27 0-33.783 2.25-46.537 6.741-5.938 2.092-10.35 4.417-13.23 6.988-1.82 1.62-2.733 3.037-2.733 4.25 0 1.208.913 2.625 2.733 4.246 2.88 2.566 7.292 4.896 13.23 6.987 12.75 4.492 28.266 6.742 46.537 6.742 18.27 0 33.783-2.25 46.538-6.742 5.937-2.091 10.35-4.42 13.229-6.987 1.82-1.625 2.733-3.038 2.733-4.25 0-1.209-.912-2.625-2.733-4.25-2.88-2.563-7.292-4.892-13.23-6.984zM100 77.617c-19.696 0-36.596-2.484-50.692-7.45-4.562-1.609-8.5-3.404-11.808-5.392v19.808c0 1.334 1.05 2.875 3.154 4.625 2.904 2.421 7.171 4.625 12.809 6.613 12.75 4.492 28.266 6.737 46.537 6.737 18.27 0 33.783-2.245 46.538-6.737 5.637-1.988 9.904-4.192 12.808-6.608 2.104-1.75 3.154-3.292 3.154-4.63V64.775c-3.308 1.988-7.246 3.783-11.808 5.392-14.096 4.966-30.996 7.458-50.692 7.458z"/></svg>