<svg width="200" height="200" xmlns="http://www.w3.org/2000/svg"><defs><style/></defs><path d="M106.25 22.917v60.416a6.25 6.25 0 0 1-12.5 0V22.917a6.25 6.25 0 0 1 12.5 0zm-25 35.416a6.25 6.25 0 0 1-3.542 5.63L32.792 85.596 100 120.058l67.208-34.466-44.916-21.625a6.25 6.25 0 1 1 5.416-11.267l48.7 23.45c1.863.896 3.321 2.212 4.384 3.958a10.24 10.24 0 0 1 1.512 5.292 10.219 10.219 0 0 1-1.379 5.333c-1.017 1.771-2.446 3.125-4.283 4.071L106.25 130.9v33.18l16.417-16.418a6.25 6.25 0 0 1 8.833 8.842l-24.133 24.138a10.042 10.042 0 0 1-7.367 3.05 10.042 10.042 0 0 1-7.367-3.05L68.5 156.5a6.25 6.25 0 1 1 8.833-8.842l16.417 16.417V130.9L23.358 94.8a10.196 10.196 0 0 1-4.283-4.067 10.258 10.258 0 0 1-1.38-5.333c.022-1.913.53-3.68 1.513-5.296a10.196 10.196 0 0 1 4.384-3.958L72.287 52.7a6.25 6.25 0 0 1 8.963 5.633z"/></svg>