<svg width="200" height="200" xmlns="http://www.w3.org/2000/svg"><defs><style/></defs><path d="M20.833 136.98c0 12.137.03 18.378 2.125 23.124a25.096 25.096 0 0 0 12.771 12.771C40.475 174.971 46.717 175 58.854 175h82.292c12.137 0 18.379-.03 23.125-2.125a25.096 25.096 0 0 0 12.77-12.775c2.097-4.742 2.126-10.983 2.126-23.12V75.52c0-12.137-.03-18.378-2.125-23.124a25.096 25.096 0 0 0-12.775-12.771c-4.738-2.096-10.984-2.125-23.117-2.125H92.192c-1.584 0-2.384 0-3.138-.142a8.333 8.333 0 0 1-2.633-.975c-.667-.383-1.275-.904-2.475-1.933l-.346-.296c-3.608-3.096-5.43-4.65-7.43-5.808a25 25 0 0 0-7.895-2.917C66 25 63.605 25 58.855 25c-12.138 0-18.38.03-23.126 2.125a25.092 25.092 0 0 0-12.77 12.77c-2.096 4.747-2.126 10.988-2.126 23.126v73.958z"/></svg>