<svg width="200" height="200" xmlns="http://www.w3.org/2000/svg"><defs><style/></defs><path d="M21.125 48.354q-.292 3.48-.292 12.896v77.5q0 9.417.292 12.896.5 5.987 2.5 9.846 3.658 7.058 10.717 10.712 3.858 2 9.846 2.504 3.479.292 12.895.292h85.834q9.416 0 12.896-.292 5.987-.5 9.845-2.5 7.059-3.658 10.713-10.716 2-3.859 2.504-9.846.292-3.48.292-12.896v-65q0-9.417-.292-12.896-.5-5.987-2.5-9.846-3.658-7.058-10.717-10.712-3.858-2-9.845-2.504-3.48-.292-12.896-.292H103.75q-4.962 0-6.154-.233-1.583-.309-3.033-1.013-1.092-.525-5.063-3.504l-.667-.5q-4.941-3.708-7.125-4.763-2.904-1.4-6.066-2.02Q73.258 25 67.083 25h-10q-9.416 0-12.895.292-5.988.5-9.846 2.5-7.059 3.658-10.713 10.716-2 3.859-2.504 9.846zm12.208 90.396v-77.5q0-8.892.25-11.85.292-3.5 1.142-5.142 1.833-3.533 5.367-5.366 1.641-.85 5.141-1.146 2.959-.246 11.85-.246h10q4.963 0 6.154.233 1.584.309 3.034 1.013 1.091.525 5.062 3.504l.667.5q4.942 3.708 7.125 4.763 2.904 1.4 6.067 2.02 2.383.467 8.558.467h39.167q8.891 0 11.85.25 3.5.292 5.141 1.142 3.534 1.833 5.367 5.366.85 1.642 1.146 5.142.246 2.958.246 11.85v65q0 8.892-.25 11.85-.292 3.5-1.142 5.142-1.833 3.533-5.367 5.366-1.641.85-5.141 1.146-2.959.246-11.85.246H57.083q-8.891 0-11.85-.25-3.5-.292-5.141-1.142-3.534-1.833-5.367-5.366-.85-1.642-1.146-5.142-.246-2.958-.246-11.85z" fill-rule="evenodd"/></svg>