<svg width="200" height="200" xmlns="http://www.w3.org/2000/svg"><defs><style/></defs><path d="M22.933 160.042c-2.07-4.717-2.1-10.917-2.1-22.98V62.938c0-12.058.03-18.262 2.1-22.979A25.092 25.092 0 0 1 35.792 27.1C40.508 25.03 46.708 25 58.77 25h4.683c5.271 0 7.93 0 10.425.52a25 25 0 0 1 8.658 3.584c2.134 1.4 4.013 3.28 7.742 7.008 1.863 1.863 2.804 2.8 3.867 3.5a12.478 12.478 0 0 0 4.333 1.792c1.246.263 2.575.263 5.208.263h37.542c12.058 0 18.263.029 22.98 2.1a25.092 25.092 0 0 1 12.858 12.858c2.07 4.717 2.1 10.917 2.1 22.98v57.458c0 12.058-.03 18.262-2.1 22.979a25.092 25.092 0 0 1-12.859 12.858c-4.716 2.07-10.916 2.1-22.979 2.1H58.771c-12.059 0-18.263-.03-22.98-2.1a25.092 25.092 0 0 1-12.858-12.858zM100 77.083a6.25 6.25 0 0 0-6.25 6.25V100H77.083a6.25 6.25 0 0 0 0 12.5H93.75v16.667a6.25 6.25 0 0 0 12.5 0V112.5h16.667a6.25 6.25 0 0 0 0-12.5H106.25V83.333a6.25 6.25 0 0 0-6.25-6.25z"/></svg>