<svg width="200" height="200" xmlns="http://www.w3.org/2000/svg"><defs><style/></defs><path d="M68.813 25a25 25 0 0 1 17.674 7.32l5.684 5.684a12.5 12.5 0 0 0 8.841 3.663h53.155a25 25 0 0 1 25 25V150a25 25 0 0 1-25 25H45.833a25 25 0 0 1-25-25V50a25 25 0 0 1 25-25h22.98zm-2.146 89.583a8.333 8.333 0 1 0 0 16.667 8.333 8.333 0 0 0 0-16.667zm68.75 2.084H93.75a6.25 6.25 0 0 0 0 12.5h41.667a6.25 6.25 0 0 0 0-12.5zM66.667 81.25a8.333 8.333 0 1 0 0 16.667 8.333 8.333 0 0 0 0-16.667zm68.75 2.083H93.75a6.25 6.25 0 0 0 0 12.5h41.667a6.25 6.25 0 0 0 0-12.5z"/></svg>