<svg width="200" height="200" xmlns="http://www.w3.org/2000/svg"><defs><style/></defs><path d="M45.833 168.613V30.85c0-2.767.98-5.125 2.934-7.083a9.654 9.654 0 0 1 7.083-2.934h48.317c5.65 0 11.054 1.092 16.22 3.275a41.33 41.33 0 0 1 13.238 8.934 41.33 41.33 0 0 1 8.925 13.241 41.225 41.225 0 0 1 3.283 16.217 41.22 41.22 0 0 1-3.279 16.22 41.33 41.33 0 0 1-8.925 13.242c-.966.967-1.97 1.88-3.008 2.738a43.396 43.396 0 0 1 14.9 9.78 43.48 43.48 0 0 1 9.375 13.907c2.292 5.421 3.437 11.096 3.437 17.03s-1.145 11.608-3.441 17.029a43.396 43.396 0 0 1-9.375 13.908 43.396 43.396 0 0 1-13.904 9.375c-5.421 2.292-11.096 3.438-17.03 3.438H56.392c-2.917 0-5.404-1.03-7.467-3.092a10.17 10.17 0 0 1-3.092-7.462zm87.5-106.113c0-8.054-2.846-14.93-8.541-20.625-5.696-5.696-12.571-8.542-20.625-8.542H58.333v58.334h45.834c8.054 0 14.929-2.846 20.625-8.542 5.695-5.696 8.541-12.57 8.541-20.625zm-18.75 104.167c8.63 0 15.996-3.05 22.096-9.155 6.104-6.095 9.154-13.466 9.154-22.095 0-8.63-3.05-15.996-9.154-22.096-6.096-6.104-13.467-9.154-22.096-9.154h-56.25v62.5h56.25z"/></svg>