<svg width="200" height="200" xmlns="http://www.w3.org/2000/svg"><defs><style/></defs><path d="M58.25 134.387a41.3 41.3 0 0 0 7.963 18.459 41.3 41.3 0 0 0 15.645 12.625l1.238.579a44.25 44.25 0 0 0 12.937 3.783l1.384.184a43 43 0 0 0 11.416 0l2.084-.275a31.625 31.625 0 0 0 11.05-3.617c6.97-3.8 11.808-9.125 14.512-15.98 2.508-6.345 2.875-12.974 1.117-19.887-1.763-6.916-5.267-12.558-10.5-16.929-5.659-4.72-12.459-7.079-20.396-7.079H22.917a6.25 6.25 0 0 1 0-12.5h48.616a42 42 0 0 1-8.025-7.95 42.27 42.27 0 0 1-7.646-15.87 42.267 42.267 0 0 1-.608-17.605c1.075-6.142 3.417-11.796 7.008-16.967A42.158 42.158 0 0 1 75.833 22.85a42.154 42.154 0 0 1 17.584-5.612l2.958-.267a48.703 48.703 0 0 1 7.017-.133l2.975.154c11.216.591 20.937 4.712 29.158 12.366 8.225 7.655 13.033 17.055 14.425 28.2a6.25 6.25 0 0 1-12.404 1.55v-.025c-1.021-8.133-4.533-14.991-10.533-20.575-6.013-5.591-13.109-8.6-21.305-9.033l-2.97-.154a36.483 36.483 0 0 0-5.23.1l-2.958.267a29.8 29.8 0 0 0-12.433 3.966 29.8 29.8 0 0 0-9.592 8.846 29.767 29.767 0 0 0-4.958 11.983A29.977 29.977 0 0 0 68 66.938a29.908 29.908 0 0 0 5.404 11.229 29.758 29.758 0 0 0 9.959 8.304l6.137 3.192a35.725 35.725 0 0 0 16.72 4.087h70.863a6.25 6.25 0 0 1 0 12.5h-39.2c5.775 5.683 9.717 12.658 11.825 20.917 2.43 9.525 1.896 18.716-1.6 27.57-3.812 9.659-10.533 17.113-20.154 22.363a44.012 44.012 0 0 1-15.391 5.03l-2.075.278a55.43 55.43 0 0 1-14.725 0l-1.384-.183a56.675 56.675 0 0 1-16.566-4.85l-1.238-.575a53.625 53.625 0 0 1-20.317-16.392 53.617 53.617 0 0 1-10.341-23.962 6.252 6.252 0 0 1 12.333-2.058z"/></svg>