<svg width="200" height="200" xmlns="http://www.w3.org/2000/svg"><defs><style/></defs><path d="M31.958 169.82c-2.762-5.328-2.791-12.487-2.791-26.487V56.667c0-14 .029-21.159 2.791-26.488A25.112 25.112 0 0 1 42.68 19.46c5.33-2.763 12.488-2.792 26.488-2.792H112.6c6.112 0 9.192 0 12.067.695a25.004 25.004 0 0 1 7.187 2.98c2.525 1.541 4.708 3.716 9.03 8.041l18.233 18.234c4.325 4.325 6.5 6.5 8.041 9.029a24.987 24.987 0 0 1 2.98 7.187c.691 2.875.695 5.954.695 12.067v68.433c0 14-.029 21.159-2.791 26.488a25.112 25.112 0 0 1-10.721 10.72c-5.33 2.763-12.488 2.792-26.488 2.792H69.167c-14 0-21.159-.029-26.488-2.791a25.112 25.112 0 0 1-10.72-10.721zm51.83-121.712c-.455.892-.455 2.059-.455 5.284v1.55c0 3.225 0 4.391.454 5.283a4.167 4.167 0 0 0 1.821 1.82c.892.455 2.059.455 5.284.455h1.55c3.225 0 4.391 0 5.283-.454a4.167 4.167 0 0 0 1.82-1.821c.455-.892.455-2.058.455-5.283v-1.55c0-3.225 0-4.392-.454-5.284a4.167 4.167 0 0 0-1.821-1.82c-.892-.455-2.058-.455-5.283-.455h-1.55c-3.225 0-4.392 0-5.284.454a4.167 4.167 0 0 0-1.82 1.821zm16.666 16.667c-.454.892-.454 2.058-.454 5.283v1.55c0 3.225 0 4.392.454 5.284a4.167 4.167 0 0 0 1.821 1.82c.892.455 2.058.455 5.283.455h1.55c3.225 0 4.392 0 5.284-.454a4.167 4.167 0 0 0 1.82-1.821c.455-.892.455-2.059.455-5.284v-1.55c0-3.225 0-4.391-.455-5.283a4.167 4.167 0 0 0-1.82-1.82c-.892-.455-2.059-.455-5.284-.455h-1.55c-3.225 0-4.391 0-5.283.454a4.167 4.167 0 0 0-1.82 1.821zM83.788 85.608c-.455.892-.455 2.059-.455 5.284v1.55c0 3.225 0 4.391.454 5.283a4.167 4.167 0 0 0 1.821 1.82c.892.455 2.059.455 5.284.455h1.55c3.225 0 4.391 0 5.283-.454a4.167 4.167 0 0 0 1.82-1.821c.455-.892.455-2.058.455-5.283v-1.55c0-3.225 0-4.392-.454-5.284a4.167 4.167 0 0 0-1.821-1.82c-.892-.455-2.058-.455-5.283-.455h-1.55c-3.225 0-4.392 0-5.284.454a4.167 4.167 0 0 0-1.82 1.821zm16.212 23.5c0 3.225 0 4.392.454 5.284a4.167 4.167 0 0 0 1.821 1.82c.892.455 2.058.455 5.283.455h1.55c3.225 0 4.392 0 5.284-.455a4.167 4.167 0 0 0 1.82-1.82c.455-.892.455-2.059.455-5.284v-1.55c0-3.225 0-4.391-.455-5.283a4.167 4.167 0 0 0-1.82-1.82c-.892-.455-2.059-.455-5.284-.455h-1.55c-3.225 0-4.391 0-5.283.454a4.167 4.167 0 0 0-1.82 1.821c-.455.892-.455 2.058-.455 5.283v1.55zm-16.213 9.834c-.454.891-.454 2.058-.454 5.283v1.55c0 3.225 0 4.392.454 5.283a4.167 4.167 0 0 0 1.821 1.821c.892.454 2.059.454 5.284.454h1.55c3.225 0 4.391 0 5.283-.454a4.167 4.167 0 0 0 1.82-1.82c.455-.892.455-2.059.455-5.284v-1.55c0-3.225 0-4.392-.454-5.283a4.167 4.167 0 0 0-1.821-1.821c-.892-.454-2.058-.454-5.283-.454h-1.55c-3.225 0-4.392 0-5.284.454a4.167 4.167 0 0 0-1.82 1.82zm16.213 23.5c0 3.225 0 4.391.454 5.283a4.167 4.167 0 0 0 1.821 1.82c.892.455 2.058.455 5.283.455h1.55c3.225 0 4.392 0 5.284-.454a4.167 4.167 0 0 0 1.82-1.821c.455-.892.455-2.058.455-5.283v-1.55c0-3.225 0-4.392-.455-5.284a4.167 4.167 0 0 0-1.82-1.82c-.892-.455-2.059-.455-5.284-.455h-1.55c-3.225 0-4.391 0-5.283.454a4.167 4.167 0 0 0-1.82 1.821c-.455.892-.455 2.059-.455 5.284v1.55z"/></svg>