<svg width="200" height="200" xmlns="http://www.w3.org/2000/svg"><defs><style/></defs><path d="M29.167 147.083V52.917c0-6.28.095-10.575.291-12.896.334-3.992 1.167-7.275 2.5-9.846a24.48 24.48 0 0 1 10.717-10.713c2.57-1.333 5.854-2.166 9.846-2.504 2.32-.196 6.616-.291 12.896-.291h69.166c6.28 0 10.575.095 12.896.291 3.992.334 7.275 1.167 9.846 2.5a24.48 24.48 0 0 1 10.713 10.717c1.333 2.57 2.166 5.854 2.504 9.846.196 2.32.291 6.616.291 12.896v94.166c0 6.28-.095 10.575-.291 12.896-.334 3.992-1.167 7.275-2.5 9.846a24.48 24.48 0 0 1-10.717 10.713c-2.57 1.333-5.854 2.166-9.846 2.504-2.32.196-6.62.291-12.896.291H65.417c-6.28 0-10.575-.095-12.896-.291-3.992-.334-7.275-1.167-9.846-2.5a24.48 24.48 0 0 1-10.712-10.717c-1.334-2.57-2.167-5.854-2.505-9.846-.195-2.32-.291-6.62-.291-12.896zm12.5 0c0 5.93.083 9.88.25 11.85.191 2.334.575 4.046 1.141 5.142 1.221 2.354 3.013 4.146 5.367 5.367 1.096.566 2.808.95 5.142 1.145 1.97.167 5.92.246 11.85.246h69.166c5.93 0 9.88-.083 11.85-.25 2.334-.191 4.046-.575 5.142-1.141a12.262 12.262 0 0 0 5.367-5.367c.566-1.096.95-2.808 1.145-5.142.167-1.97.246-5.92.246-11.85V52.917c0-5.93-.083-9.88-.25-11.85-.191-2.334-.575-4.046-1.141-5.142a12.267 12.267 0 0 0-5.367-5.367c-1.096-.566-2.808-.95-5.142-1.146-1.97-.162-5.92-.245-11.85-.245H65.417c-5.93 0-9.88.083-11.85.25-2.334.191-4.046.575-5.142 1.141a12.267 12.267 0 0 0-5.367 5.367c-.566 1.096-.95 2.808-1.146 5.142-.166 1.97-.245 5.92-.245 11.85v94.166zM127.083 62.5a6.25 6.25 0 0 1 0 12.5H72.917a6.25 6.25 0 0 1 0-12.5h54.166zm0 29.167a6.25 6.25 0 0 1 0 12.5H72.917a6.25 6.25 0 0 1 0-12.5h54.166zm-25 29.166a6.25 6.25 0 0 1 0 12.5H72.917a6.25 6.25 0 0 1 0-12.5h29.166z"/></svg>