<svg width="200" height="200" xmlns="http://www.w3.org/2000/svg"><defs><style/></defs><path d="M125.175 17.363a24.85 24.85 0 0 1 7.187 2.979c1.688 1.029 4.334 3.346 7.925 6.941l19.93 19.93c3.595 3.595 5.912 6.237 6.941 7.925a24.8 24.8 0 0 1 2.98 7.187c.462 1.925.695 5.433.695 10.517v74.241c0 6.28-.096 10.575-.291 12.896-.334 3.992-1.167 7.275-2.5 9.846a24.48 24.48 0 0 1-10.717 10.713c-2.57 1.333-5.854 2.166-9.846 2.504-2.32.196-6.617.291-12.896.291H65.417c-6.28 0-10.575-.095-12.896-.291-3.992-.334-7.275-1.167-9.846-2.5a24.48 24.48 0 0 1-10.713-10.717c-1.333-2.57-2.166-5.854-2.504-9.846-.183-2.166-.279-6.054-.291-11.666V52.917c0-6.28.095-10.575.291-12.896.334-3.992 1.167-7.275 2.5-9.846a24.48 24.48 0 0 1 10.717-10.712c2.57-1.334 5.854-2.167 9.846-2.505 2.166-.183 6.054-.279 11.666-.291h50.471c5.084 0 8.592.233 10.517.696zm-9.6 11.804H65.417c-5.93 0-9.88.083-11.85.25-2.334.191-4.046.575-5.142 1.141a12.267 12.267 0 0 0-5.367 5.367c-.566 1.096-.95 2.808-1.145 5.142-.155 1.837-.234 5.404-.246 10.691v95.325c0 5.93.083 9.88.25 11.85.191 2.334.575 4.046 1.141 5.142 1.221 2.354 3.013 4.146 5.367 5.367 1.096.566 2.808.95 5.142 1.145 1.97.167 5.92.246 11.85.246h69.166c5.93 0 9.88-.083 11.85-.25 2.334-.191 4.046-.575 5.142-1.141a12.267 12.267 0 0 0 5.367-5.367c.566-1.096.95-2.808 1.145-5.142.167-1.97.246-5.92.246-11.85V72.842c0-4.096-.116-6.625-.346-7.584a12.43 12.43 0 0 0-1.491-3.596c-.517-.845-2.221-2.716-5.117-5.612L131.45 36.12c-2.896-2.895-4.767-4.6-5.613-5.116a12.43 12.43 0 0 0-3.591-1.492c-.888-.208-3.113-.329-6.671-.345zM127.083 125a6.25 6.25 0 0 1 0 12.5H72.917a6.25 6.25 0 0 1 0-12.5zm0-29.167a6.25 6.25 0 0 1 0 12.5H72.917a6.25 6.25 0 0 1 0-12.5zm-25-29.166a6.25 6.25 0 0 1 0 12.5H72.917a6.25 6.25 0 1 1 0-12.5z" fill-rule="evenodd"/></svg>