<svg width="200" height="200" xmlns="http://www.w3.org/2000/svg"><defs><style/></defs><path d="M31.958 169.82c-2.762-5.328-2.791-12.487-2.791-26.487V56.667c0-14 .029-21.159 2.791-26.488A25.112 25.112 0 0 1 42.68 19.46c5.33-2.763 12.488-2.792 26.488-2.792h61.666c14 0 21.159.029 26.488 2.791a25.112 25.112 0 0 1 10.72 10.721c2.763 5.33 2.792 12.488 2.792 26.488v86.666c0 14-.029 21.159-2.791 26.488a25.112 25.112 0 0 1-10.721 10.72c-5.33 2.763-12.488 2.792-26.488 2.792H69.167c-14 0-21.159-.029-26.488-2.791a25.112 25.112 0 0 1-10.72-10.721zM72.917 62.5a6.25 6.25 0 0 0 0 12.5h54.166a6.25 6.25 0 0 0 0-12.5H72.917zm0 29.167a6.25 6.25 0 0 0 0 12.5h54.166a6.25 6.25 0 0 0 0-12.5H72.917zm0 29.166a6.25 6.25 0 0 0 0 12.5h29.166a6.25 6.25 0 0 0 0-12.5H72.917z"/></svg>