<svg width="200" height="200" xmlns="http://www.w3.org/2000/svg"><defs><style/></defs><path d="M31.958 169.82c-2.762-5.328-2.791-12.487-2.791-26.487V56.667c0-14 .029-21.159 2.791-26.488A25.112 25.112 0 0 1 42.68 19.46c5.33-2.763 12.488-2.792 26.488-2.792H112.6c6.112 0 9.192 0 12.067.695a25.004 25.004 0 0 1 7.187 2.98c2.525 1.541 4.708 3.716 9.03 8.041l18.233 18.234c4.325 4.325 6.5 6.5 8.041 9.029a24.987 24.987 0 0 1 2.98 7.187c.691 2.875.695 5.954.695 12.067v68.433c0 14-.029 21.159-2.791 26.488a25.112 25.112 0 0 1-10.721 10.72c-5.33 2.763-12.488 2.792-26.488 2.792H69.167c-14 0-21.159-.029-26.488-2.791a25.112 25.112 0 0 1-10.72-10.721zm40.305-50.416c6.508 6.508 14.366 9.763 23.57 9.763 7.046 0 13.304-1.909 18.771-5.721l16.392 16.391a6.252 6.252 0 0 0 8.841-8.841l-16.391-16.392c3.808-5.466 5.72-11.725 5.72-18.77 0-9.209-3.254-17.063-9.762-23.571-6.508-6.509-14.367-9.763-23.57-9.763-9.209 0-17.063 3.254-23.572 9.763-6.508 6.508-9.762 14.366-9.762 23.57 0 9.209 3.254 17.063 9.762 23.571zm8.841-38.3C85.167 77.034 90.08 75 95.834 75c5.75 0 10.666 2.033 14.728 6.104 4.071 4.063 6.105 8.975 6.105 14.73 0 5.75-2.034 10.666-6.104 14.728-4.063 4.071-8.975 6.105-14.73 6.105-5.75 0-10.666-2.034-14.729-6.104C77.034 106.5 75 101.588 75 95.832c0-5.75 2.033-10.666 6.104-14.729z"/></svg>