<svg width="200" height="200" xmlns="http://www.w3.org/2000/svg"><defs><style/></defs><path d="M114.658 16.667c5.084 0 8.592.233 10.517.695a24.85 24.85 0 0 1 7.188 2.98c1.687 1.029 4.333 3.345 7.925 6.941l19.929 19.93c3.596 3.595 5.912 6.237 6.941 7.924a24.8 24.8 0 0 1 2.98 7.188c.462 1.925.695 5.433.695 10.517v74.241c0 6.28-.095 10.575-.291 12.896-.334 3.992-1.167 7.275-2.5 9.846a24.48 24.48 0 0 1-10.717 10.713c-2.57 1.333-5.854 2.166-9.846 2.504-2.32.196-6.62.291-12.896.291H65.417c-6.28 0-10.575-.096-12.896-.291-3.992-.334-7.275-1.167-9.846-2.5a24.48 24.48 0 0 1-10.713-10.717c-1.333-2.57-2.166-5.854-2.504-9.846-.195-2.32-.291-6.62-.291-12.896V52.917c0-6.28.096-10.575.291-12.896.334-3.992 1.167-7.275 2.5-9.846a24.48 24.48 0 0 1 10.717-10.712c2.57-1.334 5.854-2.167 9.846-2.505 2.32-.195 6.616-.291 12.896-.291h49.241zm0 12.5H65.417c-5.93 0-9.88.083-11.85.25-2.334.191-4.046.575-5.142 1.141a12.267 12.267 0 0 0-5.367 5.367c-.566 1.096-.95 2.808-1.145 5.142-.167 1.97-.246 5.92-.246 11.85v94.166c0 5.93.083 9.88.25 11.85.191 2.334.575 4.046 1.141 5.142 1.221 2.354 3.013 4.146 5.367 5.367 1.096.566 2.808.95 5.142 1.145 1.97.167 5.92.246 11.85.246h69.166c5.93 0 9.88-.083 11.85-.25 2.334-.191 4.046-.575 5.142-1.141a12.262 12.262 0 0 0 5.367-5.367c.566-1.096.95-2.808 1.145-5.142.167-1.97.246-5.92.246-11.85V72.842c0-4.096-.116-6.625-.346-7.584a12.438 12.438 0 0 0-1.491-3.6c-.517-.841-2.221-2.708-5.117-5.608L131.45 36.12c-2.896-2.895-4.767-4.6-5.608-5.116a12.433 12.433 0 0 0-3.596-1.492c-.963-.229-3.496-.345-7.588-.345zm-29.05 21.287C86.5 50 87.667 50 90.892 50h1.55c3.225 0 4.391 0 5.283.454a4.167 4.167 0 0 1 1.82 1.821c.455.892.455 2.058.455 5.283v1.55c0 3.225 0 4.392-.454 5.284a4.167 4.167 0 0 1-1.821 1.82c-.892.455-2.058.455-5.283.455h-1.55c-3.225 0-4.392 0-5.284-.454a4.167 4.167 0 0 1-1.82-1.821c-.455-.892-.455-2.059-.455-5.284v-1.55c0-3.225 0-4.391.454-5.283a4.167 4.167 0 0 1 1.821-1.82zm16.667 16.667c.892-.454 2.058-.454 5.283-.454h1.55c3.225 0 4.392 0 5.284.454a4.167 4.167 0 0 1 1.82 1.82c.455.892.455 2.059.455 5.284v1.55c0 3.225 0 4.392-.455 5.283a4.167 4.167 0 0 1-1.82 1.821c-.892.454-2.059.454-5.284.454h-1.55c-3.225 0-4.391 0-5.283-.454a4.167 4.167 0 0 1-1.82-1.82C100 80.166 100 79 100 75.774v-1.55c0-3.225 0-4.392.454-5.283a4.167 4.167 0 0 1 1.821-1.821zM85.608 83.788c.892-.455 2.059-.455 5.284-.455h1.55c3.225 0 4.391 0 5.283.454a4.167 4.167 0 0 1 1.82 1.821c.455.892.455 2.059.455 5.284v1.55c0 3.225 0 4.391-.454 5.283a4.167 4.167 0 0 1-1.821 1.82c-.892.455-2.058.455-5.283.455h-1.55c-3.225 0-4.392 0-5.284-.454a4.167 4.167 0 0 1-1.82-1.821c-.455-.892-.455-2.058-.455-5.283v-1.55c0-3.225 0-4.392.454-5.284a4.167 4.167 0 0 1 1.821-1.82zm16.667 16.666c.892-.454 2.058-.454 5.283-.454h1.55c3.225 0 4.392 0 5.284.454a4.167 4.167 0 0 1 1.82 1.821c.455.892.455 2.058.455 5.283v1.55c0 3.225 0 4.392-.455 5.284a4.167 4.167 0 0 1-1.82 1.82c-.892.455-2.059.455-5.284.455h-1.55c-3.225 0-4.391 0-5.283-.454a4.167 4.167 0 0 1-1.82-1.821c-.455-.892-.455-2.059-.455-5.284v-1.55c0-3.225 0-4.391.454-5.283a4.167 4.167 0 0 1 1.821-1.82zm-16.667 16.667c.892-.454 2.059-.454 5.284-.454h1.55c3.225 0 4.391 0 5.283.454a4.167 4.167 0 0 1 1.82 1.82c.455.892.455 2.059.455 5.284v1.55c0 3.225 0 4.392-.454 5.283a4.167 4.167 0 0 1-1.821 1.821c-.892.454-2.058.454-5.283.454h-1.55c-3.225 0-4.392 0-5.284-.454a4.167 4.167 0 0 1-1.82-1.82c-.455-.892-.455-2.059-.455-5.284v-1.55c0-3.225 0-4.392.454-5.283a4.167 4.167 0 0 1 1.821-1.821zm16.667 16.667c.892-.455 2.058-.455 5.283-.455h1.55c3.225 0 4.392 0 5.284.455a4.167 4.167 0 0 1 1.82 1.82c.455.892.455 2.059.455 5.284v1.55c0 3.225 0 4.391-.455 5.283a4.167 4.167 0 0 1-1.82 1.82c-.892.455-2.059.455-5.284.455h-1.55c-3.225 0-4.391 0-5.283-.454a4.167 4.167 0 0 1-1.82-1.821c-.455-.892-.455-2.058-.455-5.283v-1.55c0-3.225 0-4.392.454-5.284a4.167 4.167 0 0 1 1.821-1.82z"/></svg>