<svg width="200" height="200" xmlns="http://www.w3.org/2000/svg"><defs><style/></defs><path d="M33.333 52.083c0-5.804.084-9.791.25-11.95.292-3.708 1.013-6.766 2.159-9.187a24.338 24.338 0 0 1 11.875-11.871c2.416-1.146 5.479-1.867 9.183-2.154 2.162-.171 6.146-.254 11.95-.254h42.083c4.709 0 7.959.2 9.75.595a24.817 24.817 0 0 1 7.98 3.309c1.55.983 3.987 3.137 7.316 6.47l20.417 20.417c3.329 3.325 5.483 5.767 6.467 7.313a24.798 24.798 0 0 1 3.308 7.979c.396 1.792.596 5.042.596 9.75v75.417c0 5.804-.084 9.791-.25 11.95-.292 3.708-1.013 6.766-2.159 9.187a24.333 24.333 0 0 1-11.875 11.871c-2.416 1.146-5.479 1.867-9.183 2.154-2.162.167-6.146.254-11.95.254h-62.5c-5.804 0-9.792-.083-11.95-.25-3.708-.291-6.767-1.012-9.188-2.158a24.333 24.333 0 0 1-11.87-11.875c-1.146-2.417-1.867-5.48-2.155-9.183-.17-2.163-.254-6.146-.254-11.95a6.25 6.25 0 0 1 12.5 0c0 5.483.071 9.141.217 10.979.167 2.166.496 3.766.983 4.791 1.275 2.688 3.259 4.667 5.946 5.946 1.025.488 2.625.817 4.792.984 1.837.145 5.5.216 10.979.216h62.5c5.483 0 9.142-.07 10.98-.212 2.166-.171 3.766-.5 4.79-.988a12.188 12.188 0 0 0 5.947-5.946c.487-1.025.816-2.625.983-4.791.146-1.838.217-5.5.217-10.98V72.5c0-3.792-.1-6.138-.3-7.033a12.4 12.4 0 0 0-1.65-3.992c-.492-.77-2.084-2.5-4.763-5.183l-20.417-20.417c-2.679-2.68-4.408-4.267-5.179-4.758a12.408 12.408 0 0 0-3.991-1.65c-.896-.2-3.242-.3-7.034-.3H68.75c-5.48 0-9.142.07-10.975.216-2.17.167-3.77.496-4.796.984a12.188 12.188 0 0 0-5.946 5.945c-.487 1.025-.816 2.625-.983 4.792-.146 1.838-.217 5.5-.217 10.98a6.25 6.25 0 1 1-12.5 0zm31.25 18.75a6.25 6.25 0 0 1 4.225 10.859L55.65 93.75h58.933a6.25 6.25 0 0 1 0 12.5H55.65l13.158 12.058a6.25 6.25 0 1 1-8.45 9.213l-25-22.917a6.25 6.25 0 0 1 0-9.208l25-22.917a6.25 6.25 0 0 1 4.225-1.646z"/></svg>