<svg width="200" height="200" xmlns="http://www.w3.org/2000/svg"><defs><style/></defs><path d="M22.917 152.083V47.917q0-10.354 7.32-17.68 7.325-7.32 17.68-7.32h104.166q10.354 0 17.68 7.32 7.32 7.325 7.32 17.68v104.166q0 10.354-7.32 17.68-7.326 7.32-17.68 7.32H47.917q-10.355 0-17.68-7.32-7.32-7.326-7.32-17.68zm12.5 0q0 5.18 3.662 8.838 3.658 3.662 8.838 3.662h104.166q5.18 0 8.838-3.662 3.662-3.658 3.662-8.838V47.917q0-5.18-3.662-8.838-3.658-3.662-8.838-3.662H47.917q-5.18 0-8.838 3.662-3.662 3.658-3.662 8.838v104.166zm35.779-55.925a6.25 6.25 0 0 0-9.017 8.659l20.592 21.454.229.229a10.417 10.417 0 0 0 14.733-.158l41.188-42.109a6.25 6.25 0 0 0-.1-8.837l-.45-.4a6.25 6.25 0 0 0-8.388.5l-39.687 40.566-19.1-19.904z" fill-rule="evenodd"/></svg>