<svg width="200" height="200" xmlns="http://www.w3.org/2000/svg"><defs><style/></defs><path d="M93.792 17.267l29.404 17.641a4.167 4.167 0 0 1 0 7.146l-29.4 17.638a4.167 4.167 0 0 1-6.313-3.571V44.729h-6.246c-30.424 0-55.208 24.146-56.229 54.317H25a6.25 6.25 0 0 1-12.5 0v-.15c0-.175.008-.346.02-.521 1.376-36.763 31.613-66.146 68.718-66.146h6.25V20.842a4.167 4.167 0 0 1 6.308-3.575zM60.417 155.146v-50c0-6.904 2.441-12.796 7.32-17.68 4.884-4.879 10.776-7.32 17.68-7.32h70.833c6.904 0 12.796 2.441 17.68 7.32 4.878 4.884 7.32 10.776 7.32 17.68v50c0 6.904-2.442 12.796-7.32 17.679-4.884 4.88-10.776 7.32-17.68 7.32H85.417c-6.904 0-12.796-2.44-17.68-7.32-4.879-4.883-7.32-10.775-7.32-17.68zm12.5 0c0 3.454 1.22 6.4 3.662 8.837a12.042 12.042 0 0 0 8.838 3.667h70.833a12.042 12.042 0 0 0 8.838-3.667 12.042 12.042 0 0 0 3.662-8.833v-50a12.042 12.042 0 0 0-3.662-8.842 12.042 12.042 0 0 0-8.838-3.662H85.417a12.042 12.042 0 0 0-8.838 3.662 12.042 12.042 0 0 0-3.662 8.838v50z"/></svg>