<svg width="200" height="200" xmlns="http://www.w3.org/2000/svg"><defs><style/></defs><path d="M20.833 140.833q0 9.5.3 13.067.534 6.404 2.73 10.633 3.958 7.646 11.604 11.605 4.229 2.195 10.633 2.729 3.562.3 13.067.3h81.666q9.5 0 13.067-.3 6.404-.534 10.633-2.73 7.646-3.958 11.605-11.604 2.195-4.229 2.729-10.633.3-3.563.3-13.067V59.167q0-9.5-.3-13.067-.534-6.404-2.73-10.633-3.958-7.646-11.604-11.604-4.229-2.196-10.633-2.73-3.563-.3-13.067-.3H59.167q-9.5 0-13.067.3-6.404.534-10.633 2.73-7.646 3.958-11.605 11.604-2.195 4.229-2.729 10.633-.3 3.563-.3 13.067v81.666zM37.608 50q.055-1.58.134-2.508.258-3.084.916-4.359 1.53-2.946 4.475-4.475 1.275-.658 4.359-.916 2.87-.242 11.675-.242h81.666q8.809 0 11.675.242 3.084.258 4.359.916 2.946 1.53 4.475 4.475.658 1.275.916 4.359.08.929.134 2.508H37.608zM37.5 66.667h125v74.166q0 8.809-.242 11.675-.258 3.084-.916 4.359-1.53 2.946-4.475 4.475-1.275.658-4.359.916-2.866.242-11.675.242H59.167q-8.809 0-11.675-.242-3.084-.258-4.359-.916-2.945-1.53-4.475-4.475-.658-1.275-.916-4.359-.242-2.866-.242-11.675V66.667zm17.633 13.466q-3.05 3.055-3.05 7.367 0 4.313 3.05 7.367 3.05 3.05 7.367 3.05 4.312 0 7.367-3.05 3.05-3.055 3.05-7.367 0-4.313-3.05-7.367-3.055-3.05-7.367-3.05-4.317 0-7.367 3.05zm37.5 0q-3.05 3.055-3.05 7.367 0 4.313 3.05 7.367 3.054 3.05 7.367 3.05 4.312 0 7.367-3.05 3.05-3.055 3.05-7.367 0-4.313-3.05-7.367-3.055-3.05-7.367-3.05-4.313 0-7.367 3.05zm37.5 14.734q3.054 3.05 7.367 3.05 4.313 0 7.367-3.05 3.05-3.054 3.05-7.367 0-4.312-3.05-7.367-3.054-3.05-7.367-3.05-4.313 0-7.367 3.05-3.05 3.055-3.05 7.367 0 4.313 3.05 7.367zm-75 12.35q-3.05 3.054-3.05 7.366 0 4.313 3.05 7.367Q58.183 125 62.5 125q4.313 0 7.367-3.05 3.05-3.054 3.05-7.367 0-4.312-3.05-7.366-3.055-3.05-7.367-3.05-4.317 0-7.367 3.05zm37.5 14.733Q95.688 125 100 125q4.313 0 7.367-3.05 3.05-3.054 3.05-7.367 0-4.312-3.05-7.366-3.054-3.05-7.367-3.05-4.313 0-7.367 3.05-3.05 3.054-3.05 7.366 0 4.313 3.05 7.367zm37.5 0q3.054 3.05 7.367 3.05 4.313 0 7.367-3.05 3.05-3.054 3.05-7.367 0-4.312-3.05-7.366-3.054-3.05-7.367-3.05-4.313 0-7.367 3.05-3.05 3.054-3.05 7.366 0 4.313 3.05 7.367zm-75 12.35q-3.05 3.054-3.05 7.367 0 4.312 3.05 7.366 3.05 3.05 7.367 3.05 4.312 0 7.367-3.05 3.05-3.054 3.05-7.366 0-4.313-3.05-7.367-3.054-3.05-7.367-3.05-4.317 0-7.367 3.05zm37.5 14.733q3.055 3.05 7.367 3.05 4.313 0 7.367-3.05 3.05-3.054 3.05-7.366 0-4.313-3.05-7.367-3.054-3.05-7.367-3.05-4.313 0-7.367 3.05-3.05 3.054-3.05 7.367 0 4.312 3.05 7.366z"/></svg>