<svg width="200" height="200" xmlns="http://www.w3.org/2000/svg"><defs><style/></defs><path d="M22.917 140.833V59.167q0-9.417.291-12.896.5-5.988 2.5-9.846 3.659-7.058 10.717-10.713 3.858-2 9.846-2.504 3.479-.291 12.896-.291h81.666q9.417 0 12.896.291 5.988.5 9.846 2.5 7.058 3.659 10.713 10.717 2 3.858 2.504 9.846.291 3.479.291 12.896v81.666q0 9.417-.291 12.896-.5 5.988-2.5 9.846-3.659 7.058-10.717 10.713-3.858 2-9.846 2.504-3.479.291-12.896.291H59.167q-9.417 0-12.896-.291-5.988-.5-9.846-2.5-7.058-3.659-10.712-10.717-2-3.858-2.505-9.846-.291-3.479-.291-12.896zm12.5 0q0 8.892.25 11.85.291 3.5 1.141 5.142 1.834 3.533 5.367 5.367 1.642.85 5.142 1.145 2.958.246 11.85.246h81.666q8.892 0 11.85-.25 3.5-.291 5.142-1.141 3.533-1.834 5.367-5.367.85-1.642 1.145-5.142.246-2.958.246-11.85v-76.25H35.417v76.25zm.054-88.75h129.058q-.062-3.208-.196-4.766-.291-3.5-1.141-5.142-1.834-3.533-5.367-5.367-1.642-.85-5.142-1.146-2.958-.245-11.85-.245H59.167q-8.892 0-11.85.25-3.5.291-5.142 1.141-3.533 1.834-5.367 5.367-.85 1.642-1.146 5.142-.125 1.558-.191 4.766zM62.5 79.167a8.333 8.333 0 1 1 0 16.666 8.333 8.333 0 0 1 0-16.666zm37.5 0a8.333 8.333 0 1 1 0 16.666 8.333 8.333 0 0 1 0-16.666zm45.833 8.333a8.333 8.333 0 1 0-16.666 0 8.333 8.333 0 0 0 16.666 0zM62.5 106.25a8.333 8.333 0 1 1 0 16.667 8.333 8.333 0 0 1 0-16.667zm45.833 8.333a8.333 8.333 0 1 0-16.666 0 8.333 8.333 0 0 0 16.666 0zm37.5 0a8.333 8.333 0 1 0-16.666 0 8.333 8.333 0 0 0 16.666 0zM62.5 133.333a8.333 8.333 0 1 1 0 16.667 8.333 8.333 0 0 1 0-16.667zm45.833 8.334a8.333 8.333 0 1 0-16.666 0 8.333 8.333 0 0 0 16.666 0z"/></svg>