<svg width="200" height="200" xmlns="http://www.w3.org/2000/svg"><defs><style/></defs><path d="M100 14.583c47.175 0 85.417 38.242 85.417 85.417S147.175 185.417 100 185.417 14.583 147.175 14.583 100 52.825 14.583 100 14.583zm0 16.667c-37.97 0-68.75 30.78-68.75 68.75s30.78 68.75 68.75 68.75 68.75-30.78 68.75-68.75S137.97 31.25 100 31.25zm-2.083 22.917a8.333 8.333 0 0 1 8.312 7.708l.021.625v31.25h23.958a8.333 8.333 0 0 1 8.238 7.07l.075.643.02.62a8.333 8.333 0 0 1-7.708 8.313l-.625.02h-28.125A12.5 12.5 0 0 1 89.604 98.65l-.02-.733V62.5a8.333 8.333 0 0 1 8.333-8.333z"/></svg>