<svg width="200" height="200" xmlns="http://www.w3.org/2000/svg"><defs><style/></defs><path d="M169.396 114.283v-.029q1.437-7.02 1.437-14.254 0-14.417-5.562-27.57-5.375-12.71-15.183-22.518-9.809-9.804-22.517-15.183-13.154-5.562-27.571-5.562t-27.57 5.562q-12.71 5.375-22.518 15.183-9.804 9.809-15.183 22.517Q29.167 85.583 29.167 100t5.562 27.57q5.375 12.71 15.183 22.518 9.809 9.804 22.517 15.183 13.154 5.562 27.571 5.562 7.25 0 14.283-1.437a6.252 6.252 0 0 1 2.504 12.25l-.008-.004q-8.262 1.691-16.779 1.691-16.95 0-32.438-6.55-14.958-6.325-26.487-17.858-11.53-11.53-17.858-26.488-6.55-15.487-6.55-32.437t6.55-32.438q6.329-14.958 17.858-26.487 11.53-11.53 26.487-17.858 15.488-6.55 32.438-6.55t32.438 6.55q14.958 6.329 26.487 17.858 11.53 11.53 17.858 26.487 6.55 15.488 6.55 32.438 0 8.512-1.691 16.78v.007a6.252 6.252 0 1 1-12.25-2.504zM100 56.25a6.25 6.25 0 0 1 6.25 6.25v38.204l22.062 13.788a6.25 6.25 0 0 1 2.28 8.083l-.292.53a6.25 6.25 0 0 1-8.613 1.987l-23.041-14.4a10.417 10.417 0 0 1-4.896-8.834V62.5a6.25 6.25 0 0 1 6.25-6.25zm52.475 125.392a6.25 6.25 0 0 1-6.25-6.25v-16.667h-16.667a6.25 6.25 0 1 1 0-12.5h16.667v-16.667a6.25 6.25 0 1 1 12.5 0v16.667h16.667a6.25 6.25 0 0 1 0 12.5h-16.667v16.667a6.25 6.25 0 0 1-6.25 6.25z" fill-rule="evenodd"/></svg>