<svg width="200" height="200" xmlns="http://www.w3.org/2000/svg"><defs><style/></defs><path d="M100 12.5c48.325 0 87.5 39.175 87.5 87.5s-39.175 87.5-87.5 87.5-87.5-39.175-87.5-87.5S51.675 12.5 100 12.5zm0 20.833c-36.82 0-66.667 29.846-66.667 66.667S63.18 166.667 100 166.667 166.667 136.82 166.667 100 136.82 33.333 100 33.333zm8.333 31.25a10.417 10.417 0 1 0-20.833 0v35.192a14.583 14.583 0 0 0 6.854 12.367l23.042 14.4a10.417 10.417 0 0 0 14.354-3.313l.358-.616a10.417 10.417 0 0 0-3.67-13.738l-20.105-12.567V64.583z"/></svg>