<svg width="200" height="200" xmlns="http://www.w3.org/2000/svg"><defs><style/></defs><path d="M66.942 56.125l18.32-34.733a16.662 16.662 0 0 1 29.475 0l18.321 34.733a4.167 4.167 0 0 0 2.971 2.162l38.688 6.696a16.667 16.667 0 0 1 9.108 28.038l-27.363 28.162a4.167 4.167 0 0 0-1.137 3.496l5.592 38.871a16.667 16.667 0 0 1-23.846 17.325l-35.234-17.325a4.167 4.167 0 0 0-3.679 0L62.93 180.875a16.662 16.662 0 0 1-23.846-17.325l5.588-38.875a4.167 4.167 0 0 0-1.138-3.492L16.171 93.017a16.667 16.667 0 0 1 9.108-28.034l38.688-6.695a4.167 4.167 0 0 0 2.975-2.163z"/></svg>