<svg width="200" height="200" xmlns="http://www.w3.org/2000/svg"><defs><style/></defs><path d="M107.775 14.43a16.667 16.667 0 0 1 6.958 6.962l18.325 34.733a4.167 4.167 0 0 0 2.971 2.162l38.688 6.696a16.667 16.667 0 0 1 9.108 28.038l-27.363 28.162a4.167 4.167 0 0 0-1.137 3.496l5.588 38.871a16.667 16.667 0 0 1-23.846 17.325l-35.23-17.325a4.175 4.175 0 0 0-3.658 0l-35.237 17.325a16.667 16.667 0 0 1-23.859-17.33l5.588-38.866a4.167 4.167 0 0 0-1.138-3.5L16.171 93.021a16.667 16.667 0 0 1 9.108-28.042l38.688-6.692a4.167 4.167 0 0 0 2.975-2.162l18.32-34.733a16.658 16.658 0 0 1 22.513-6.963zm-7.567 136.19a16.654 16.654 0 0 1 7.142 1.71l35.233 17.332a4.167 4.167 0 0 0 5.959-4.333l-5.584-38.875a16.667 16.667 0 0 1 4.542-13.987l27.363-28.159a4.167 4.167 0 0 0-2.275-7.012L133.9 70.604a16.667 16.667 0 0 1-11.896-8.646l-18.32-34.733a4.167 4.167 0 0 0-3.476-2.217v125.613z"/></svg>