<svg width="200" height="200" xmlns="http://www.w3.org/2000/svg"><defs><style/></defs><path d="M87.42 14.008L62.163 28.592a6.25 6.25 0 1 0 6.25 10.825l25.259-14.584a6.25 6.25 0 1 0-6.25-10.825zm14.46 15.709l-33.343 19.25a12 12 0 0 0-4.391 16.391L74.175 82.73l-.346-.566a64.542 64.542 0 0 0-31.004 55.179c0 10.341 2.437 20.333 7.025 29.325H31a6 6 0 0 0-6 6v.5c0 3.312 2.688 6 6 6h138a6 6 0 0 0 6-6v-.5a6 6 0 0 0-6-6H64.358a51.808 51.808 0 0 1-9.033-29.325c0-18.292 9.5-34.934 24.77-44.359l19.968 34.584a12 12 0 0 0 16.395 4.391l33.342-19.25a12 12 0 0 0 4.392-16.387l-35.917-62.208a12 12 0 0 0-16.396-4.396zm8.578 91.85l-35.92-62.209 33.341-19.25 35.921 62.209-33.342 19.25zm54.113-7.763l-54.559 31.5a6 6 0 0 0-2.195 8.196l.25.433a6 6 0 0 0 8.195 2.196l54.563-31.5a6 6 0 0 0 2.196-8.196l-.25-.433a6 6 0 0 0-8.2-2.196z"/></svg>