<svg width="200" height="200" xmlns="http://www.w3.org/2000/svg"><defs><style/></defs><path d="M64.583 162.5a6.25 6.25 0 0 0 0 12.5h70.834a6.25 6.25 0 0 0 0-12.5H64.583zM16.667 125c0 6.904 2.383 12.796 7.145 17.68 4.759 4.878 10.505 7.32 17.246 7.32h117.884c6.737 0 12.483-2.442 17.25-7.32 4.758-4.888 7.141-10.776 7.141-17.68V50c0-6.904-2.383-12.796-7.145-17.68-4.759-4.878-10.505-7.32-17.246-7.32H41.058c-6.737 0-12.487 2.442-17.25 7.32-4.758 4.888-7.141 10.776-7.141 17.68v75zm72.916-17.233a4.167 4.167 0 0 1-6.25-3.6V69.883a4.167 4.167 0 0 1 6.25-3.608l29.688 17.142a4.167 4.167 0 0 1 0 7.216l-29.688 17.134z"/></svg>