<svg width="200" height="200" xmlns="http://www.w3.org/2000/svg"><defs><style/></defs><path d="M64.583 162.5a6.25 6.25 0 0 0 0 12.5h70.834a6.25 6.25 0 0 0 0-12.5H64.583zM16.667 50v75c0 6.904 2.441 12.796 7.32 17.68 4.888 4.878 10.776 7.32 17.68 7.32h116.666c6.904 0 12.796-2.442 17.68-7.32 4.879-4.888 7.32-10.776 7.32-17.68V50c0-6.904-2.441-12.796-7.32-17.68-4.888-4.878-10.776-7.32-17.68-7.32H41.667c-6.905 0-12.796 2.442-17.68 7.32-4.879 4.888-7.32 10.776-7.32 17.68zm16.162 83.837A12.042 12.042 0 0 1 29.167 125V50c0-3.45 1.22-6.396 3.662-8.838a12.042 12.042 0 0 1 8.838-3.662h116.666a12.042 12.042 0 0 1 8.838 3.662A12.042 12.042 0 0 1 170.833 50v75a12.042 12.042 0 0 1-3.662 8.837 12.042 12.042 0 0 1-8.838 3.663H41.667a12.042 12.042 0 0 1-8.838-3.663z"/></svg>