<svg width="200" height="200" xmlns="http://www.w3.org/2000/svg"><defs><style/></defs><path d="M135.417 162.5H64.583a6.25 6.25 0 0 0 0 12.5h70.834a6.25 6.25 0 0 0 0-12.5zm-111.43-19.82c4.888 4.878 10.776 7.32 17.68 7.32h116.666c6.904 0 12.796-2.442 17.68-7.32 4.879-4.888 7.32-10.776 7.32-17.68V50c0-6.904-2.441-12.796-7.32-17.68-4.888-4.878-10.776-7.32-17.68-7.32H41.667c-6.905 0-12.796 2.442-17.68 7.32-4.879 4.888-7.32 10.776-7.32 17.68v75c0 6.904 2.441 12.796 7.32 17.68zM29.168 50c0-8.333 4.166-12.5 12.5-12.5h116.666c8.334 0 12.5 4.167 12.5 12.5v75c0 8.333-4.166 12.5-12.5 12.5H41.667c-8.334 0-12.5-4.167-12.5-12.5V50zm90.104 40.63a4.167 4.167 0 0 0 0-7.217L89.583 66.27a4.167 4.167 0 0 0-6.25 3.612v34.28a4.167 4.167 0 0 0 6.25 3.608l29.688-17.142z"/></svg>