<svg width="200" height="200" xmlns="http://www.w3.org/2000/svg"><defs><style/></defs><path d="M112.961 162.552l41.77-41.779q.217-.212.408-.444.188-.232.355-.48.163-.249.31-.514.138-.265.256-.542.114-.277.204-.566.081-.285.142-.583.057-.293.09-.59.028-.302.028-.6 0-.3-.028-.598-.033-.302-.09-.595-.057-.293-.146-.582-.086-.286-.204-.563-.114-.277-.253-.541-.142-.265-.31-.518-.166-.245-.358-.48-.187-.233-.403-.445-.212-.212-.444-.403-.232-.192-.48-.354-.25-.167-.514-.31-.265-.143-.542-.257-.277-.114-.566-.204-.285-.085-.583-.142-.293-.061-.59-.09-.302-.028-.6-.028-.301 0-.598.028-.302.029-.595.09-.293.057-.583.142-.285.09-.562.204-.277.114-.542.257t-.517.31q-.245.162-.48.354-.233.191-.445.407l-41.77 41.767q-5.867 5.867-13.473 8.95-7.358 2.983-15.335 2.983-7.977 0-15.334-2.982-7.61-3.089-13.473-8.951-5.866-5.867-8.95-13.473-2.983-7.357-2.983-15.334 0-7.977 2.983-15.335 3.088-7.61 8.95-13.472l59.057-59.053q7.752-7.753 18.724-7.753 10.967 0 18.724 7.753 7.757 7.757 7.757 18.728 0 10.967-7.757 18.724l-59.057 59.053q-3.577 3.585-8.64 3.585-5.065 0-8.642-3.585-3.58-3.577-3.58-8.637 0-5.068 3.58-8.645L114.4 68.928q.212-.216.404-.449.191-.232.354-.48.167-.249.31-.513.142-.265.257-.542.114-.277.203-.567.086-.285.143-.582.061-.293.09-.59.028-.298.028-.6t-.029-.599q-.028-.301-.09-.594-.056-.294-.142-.583-.09-.285-.203-.562-.114-.277-.257-.542t-.306-.517q-.167-.245-.358-.481-.192-.232-.407-.444-.208-.212-.44-.404-.233-.187-.481-.354-.253-.167-.518-.31-.265-.142-.542-.256-.277-.114-.562-.204-.285-.081-.582-.143-.294-.06-.595-.09-.298-.028-.599-.028-.298 0-.599.029-.297.028-.59.09-.298.056-.583.142-.285.09-.567.204-.276.114-.541.256t-.514.31q-.248.163-.48.354-.232.192-.449.408L58.231 107.81q-7.158 7.162-7.158 17.286 0 10.124 7.158 17.286 7.163 7.158 17.286 7.158 10.124 0 17.286-7.158l59.053-59.057q5.565-5.565 8.502-12.804 2.836-6.991 2.836-14.56 0-7.574-2.836-14.565-2.933-7.24-8.502-12.805-5.565-5.565-12.805-8.502-6.99-2.832-14.56-2.832-7.574 0-14.56 2.832-7.244 2.937-12.81 8.502l-59.056 59.06q-7.618 7.62-11.635 17.523-3.879 9.566-3.878 19.926 0 10.364 3.878 19.926 4.017 9.908 11.635 17.522 7.619 7.618 17.518 11.635 9.57 3.879 19.93 3.879t19.926-3.879q9.908-4.017 17.522-11.635z"/></svg>