<svg width="200" height="200" xmlns="http://www.w3.org/2000/svg"><defs><style/></defs><path d="M183.333 100q0 15.896-5.85 30.675-6.354 16.046-18.558 28.25-12.204 12.208-28.25 18.558-14.78 5.85-30.675 5.85t-30.675-5.85q-16.046-6.354-28.25-18.558-12.208-12.204-18.558-28.25-5.85-14.78-5.85-30.675t5.85-30.675q6.354-16.046 18.558-28.25 12.204-12.208 28.25-18.558 14.78-5.85 30.675-5.85t30.675 5.85q16.046 6.354 28.25 18.558 12.208 12.204 18.558 28.25 5.85 14.78 5.85 30.675zm-12.5 0q0-13.512-4.975-26.075-5.4-13.637-15.77-24.012-10.375-10.376-24.013-15.771-12.563-4.975-26.075-4.975t-26.075 4.975q-13.633 5.4-24.008 15.77-10.375 10.375-15.771 24.013-4.98 12.562-4.98 26.075t4.976 26.075q5.4 13.637 15.77 24.012 10.375 10.376 24.013 15.771 12.562 4.975 26.075 4.975t26.075-4.975q13.637-5.4 24.012-15.77 10.375-10.375 15.771-24.013 4.975-12.563 4.975-26.075zm-112.5 13.542a13.542 13.542 0 1 0 0-27.084 13.542 13.542 0 0 0 0 27.084zm41.667 0a13.542 13.542 0 1 0 0-27.084 13.542 13.542 0 0 0 0 27.084zm41.667 0a13.542 13.542 0 1 0 0-27.084 13.542 13.542 0 0 0 0 27.084z" fill-rule="evenodd"/></svg>