<svg width="200" height="200" xmlns="http://www.w3.org/2000/svg"><defs><style/></defs><path d="M181.25 52.083v95.834A27.083 27.083 0 0 1 154.167 175H45.833a27.083 27.083 0 0 1-27.083-27.083V52.083A27.083 27.083 0 0 1 45.833 25h108.334a27.083 27.083 0 0 1 27.083 27.083zM45.833 41.667a10.417 10.417 0 0 0-10.416 10.416v95.834a10.417 10.417 0 0 0 10.416 10.416h108.334a10.417 10.417 0 0 0 10.416-10.416V52.083a10.417 10.417 0 0 0-10.416-10.416H45.833zm21.875 81.25a8.333 8.333 0 1 1-16.666 0V77.083a8.333 8.333 0 1 1 16.666 0v45.834zm27.084 0a8.333 8.333 0 1 1-16.667 0V77.083a8.333 8.333 0 1 1 16.667 0v45.834zm27.083 0a8.333 8.333 0 1 1-16.667 0V77.083a8.333 8.333 0 1 1 16.667 0v45.834zm27.083 0a8.333 8.333 0 1 1-16.666 0V77.083a8.333 8.333 0 1 1 16.666 0v45.834z"/></svg>