<svg width="200" height="200" xmlns="http://www.w3.org/2000/svg"><defs><style/></defs><path d="M179.167 52.083v95.834a25 25 0 0 1-25 25H45.833a25 25 0 0 1-25-25V52.083a25 25 0 0 1 25-25h108.334a25 25 0 0 1 25 25zm-133.334-12.5a12.5 12.5 0 0 0-12.5 12.5v95.834a12.5 12.5 0 0 0 12.5 12.5h108.334a12.5 12.5 0 0 0 12.5-12.5V52.083a12.5 12.5 0 0 0-12.5-12.5H45.833zm19.792 83.334a6.25 6.25 0 0 1-12.5 0V77.083a6.25 6.25 0 0 1 12.5 0v45.834zm27.083 0a6.25 6.25 0 0 1-12.5 0V77.083a6.25 6.25 0 0 1 12.5 0v45.834zm27.084 0a6.25 6.25 0 0 1-12.5 0V77.083a6.25 6.25 0 0 1 12.5 0v45.834zm27.083 0a6.25 6.25 0 0 1-12.5 0V77.083a6.25 6.25 0 0 1 12.5 0v45.834z"/></svg>