<svg width="200" height="200" xmlns="http://www.w3.org/2000/svg"><defs><style/></defs><path d="M20.833 27.083a6.25 6.25 0 1 1 12.5 0v145.834a6.25 6.25 0 0 1-12.5 0V27.083zm29.271 2.188A14.05 14.05 0 0 1 60.417 25h41.666c4.025 0 7.463 1.425 10.313 4.27a14.05 14.05 0 0 1 4.27 10.313V50c0 4.025-1.424 7.463-4.27 10.313a14.05 14.05 0 0 1-10.313 4.27H60.417a14.05 14.05 0 0 1-10.313-4.27A14.05 14.05 0 0 1 45.834 50V39.583c0-4.025 1.424-7.462 4.27-10.312zm0 55.208a14.05 14.05 0 0 1 10.313-4.27h112.5c4.029 0 7.462 1.424 10.312 4.27a14.054 14.054 0 0 1 4.271 10.313v10.416c0 4.025-1.425 7.463-4.27 10.313a14.054 14.054 0 0 1-10.313 4.27h-112.5a14.05 14.05 0 0 1-10.313-4.27 14.05 14.05 0 0 1-4.27-10.313V94.792c0-4.025 1.424-7.463 4.27-10.313zm0 55.209a14.05 14.05 0 0 1 10.313-4.271H137.5c4.025 0 7.462 1.425 10.313 4.27a14.054 14.054 0 0 1 4.27 10.313v10.417c0 4.029-1.425 7.462-4.27 10.312A14.054 14.054 0 0 1 137.5 175H60.417a14.05 14.05 0 0 1-10.313-4.27 14.05 14.05 0 0 1-4.27-10.313V150c0-4.025 1.424-7.462 4.27-10.312z"/></svg>