<svg width="200" height="200" xmlns="http://www.w3.org/2000/svg"><defs><style/></defs><path d="M94.408 157.7L51.2 179.304a16.358 16.358 0 0 1-8.45 1.742 16.458 16.458 0 0 1-7.763-2.471 16.458 16.458 0 0 1-5.683-5.838 16.363 16.363 0 0 1-2.22-8.341V45.833c0-6.904 2.441-12.796 7.32-17.679 4.888-4.879 10.775-7.32 17.68-7.32h95.833c6.904 0 12.795 2.441 17.679 7.32 4.879 4.888 7.32 10.775 7.32 17.68v118.562c0 3-.741 5.779-2.22 8.341a16.458 16.458 0 0 1-5.684 5.834 16.458 16.458 0 0 1-7.762 2.475 16.358 16.358 0 0 1-8.454-1.742L105.588 157.7c-3.725-1.863-7.45-1.863-11.18 0zm-3.275-59.267L77.88 85.18a6.25 6.25 0 1 0-8.842 8.838l17.68 17.679a6.25 6.25 0 0 0 8.995-.167l35.196-35.191a6.25 6.25 0 0 0-8.837-8.842L91.133 98.433z"/></svg>