<svg width="200" height="200" xmlns="http://www.w3.org/2000/svg"><defs><style/></defs><path d="M42.75 181.042a16.458 16.458 0 0 1-7.763-2.471 16.458 16.458 0 0 1-5.683-5.833 16.363 16.363 0 0 1-2.22-8.342V45.833c0-6.904 2.441-12.795 7.32-17.679 4.888-4.879 10.775-7.32 17.68-7.32h95.833c6.904 0 12.795 2.441 17.679 7.32 4.879 4.888 7.32 10.775 7.32 17.68v118.562c0 3-.741 5.779-2.22 8.342a16.458 16.458 0 0 1-5.684 5.833 16.458 16.458 0 0 1-7.762 2.475 16.358 16.358 0 0 1-8.454-1.742L105.588 157.7c-3.725-1.863-7.45-1.863-11.18 0L51.2 179.304a16.358 16.358 0 0 1-8.45 1.742zm115.692-13.1a3.92 3.92 0 0 0 1.975-3.546V45.833a12.042 12.042 0 0 0-3.663-8.837 12.042 12.042 0 0 0-8.837-3.663H52.083a12.042 12.042 0 0 0-8.837 3.663 12.042 12.042 0 0 0-3.663 8.837v118.563c0 1.55.659 2.729 1.975 3.542 1.317.816 2.667.875 4.055.183l43.208-21.6A24.667 24.667 0 0 1 100 143.875a24.667 24.667 0 0 1 11.18 2.642l43.208 21.6a3.92 3.92 0 0 0 4.054-.18zM106.25 68.75V87.5H125a6.25 6.25 0 0 1 0 12.5h-18.75v18.75a6.25 6.25 0 0 1-12.5 0V100H75a6.25 6.25 0 0 1 0-12.5h18.75V68.75a6.25 6.25 0 0 1 12.5 0z"/></svg>