<svg width="200" height="200" xmlns="http://www.w3.org/2000/svg"><defs><style/></defs><path d="M33.333 168.75a6.25 6.25 0 0 1-12.5 0V31.25a6.25 6.25 0 0 1 12.5 0v62.5h75v-62.5a6.25 6.25 0 0 1 12.5 0v137.5a6.25 6.25 0 0 1-12.5 0v-62.5h-75v62.5zm104.167 0c0-5.53 1.133-10.817 3.4-15.862a38.304 38.304 0 0 1 9.596-13.084l20.329-18.067a11.917 11.917 0 0 0 4.175-9.295v-.1c0-3.409-1.208-6.317-3.617-8.73a11.892 11.892 0 0 0-8.725-3.612c-3.166 0-5.929 1.062-8.283 3.192a11.942 11.942 0 0 0-4 7.92l-.404 4.092a6.252 6.252 0 0 1-12.442-1.242l.413-4.091c.633-6.35 3.316-11.667 8.046-15.95 4.733-4.28 10.291-6.421 16.67-6.421 6.859 0 12.717 2.425 17.567 7.275 4.85 4.85 7.275 10.708 7.275 17.567v.1a24.667 24.667 0 0 1-2.188 10.216 24.667 24.667 0 0 1-6.183 8.421L158.8 149.15a25.933 25.933 0 0 0-6.5 8.858 26.25 26.25 0 0 0-1.55 4.492h30.5a6.25 6.25 0 0 1 0 12.5h-37.5a6.25 6.25 0 0 1-6.25-6.25z"/></svg>