<svg width="200" height="200" xmlns="http://www.w3.org/2000/svg"><defs><style/></defs><path d="M30.238 30.238c4.887-4.88 10.775-7.321 17.679-7.321H93.75c6.904 0 12.796 2.441 17.68 7.32 4.878 4.888 7.32 10.776 7.32 17.68v40.779c3.712-2.188 7.88-3.28 12.5-3.28h20.833c6.904 0 12.796 2.442 17.68 7.321 4.879 4.888 7.32 10.776 7.32 17.68v60.416a6.25 6.25 0 0 1-6.25 6.25H29.167a6.25 6.25 0 0 1-6.25-6.25V47.917c0-6.905 2.441-12.796 7.32-17.68zm134.345 134.345v-54.166a12.042 12.042 0 0 0-3.662-8.838 12.042 12.042 0 0 0-8.838-3.662H131.25a12.042 12.042 0 0 0-8.837 3.662 12.042 12.042 0 0 0-3.663 8.838v54.166h45.833zm-58.333 0V47.917a12.042 12.042 0 0 0-3.662-8.838 12.042 12.042 0 0 0-8.838-3.662H47.917a12.042 12.042 0 0 0-8.838 3.662 12.042 12.042 0 0 0-3.662 8.838v116.666h70.833zm-52.083-100H87.5a6.25 6.25 0 0 1 0 12.5H54.167a6.25 6.25 0 0 1 0-12.5zm0 29.167H87.5a6.25 6.25 0 0 1 0 12.5H54.167a6.25 6.25 0 0 1 0-12.5z"/></svg>