<svg width="200" height="200" xmlns="http://www.w3.org/2000/svg"><defs><style/></defs><path d="M29.017 29.017c4.07-4.067 8.983-6.1 14.733-6.1h45.833c5.75 0 10.667 2.033 14.73 6.1 4.07 4.07 6.104 8.979 6.104 14.733v127.083a6.25 6.25 0 0 1-6.25 6.25h-75a6.25 6.25 0 0 1-6.25-6.25V43.75c0-5.75 2.033-10.667 6.1-14.733zM43.75 70.833a6.25 6.25 0 0 0 6.25 6.25h33.333a6.25 6.25 0 0 0 0-12.5H50a6.25 6.25 0 0 0-6.25 6.25zM83.333 93.75H50a6.25 6.25 0 0 0 0 12.5h33.333a6.25 6.25 0 0 0 0-12.5zm40.3-3.45a16.058 16.058 0 0 1 11.784-4.883h25c4.604 0 8.529 1.625 11.783 4.883a16.058 16.058 0 0 1 4.883 11.783v68.75a6.25 6.25 0 0 1-6.25 6.25H125a6.25 6.25 0 0 1-6.25-6.25v-68.75c0-4.604 1.625-8.529 4.883-11.783z"/></svg>