<svg width="200" height="200" xmlns="http://www.w3.org/2000/svg"><defs><style/></defs><path d="M98.333 16.667c21.859 0 40.3 14.637 46.054 34.65l9.842-9.842a6.25 6.25 0 1 1 8.833 8.842l-17.675 17.675a6.342 6.342 0 0 1-.42.387 6.25 6.25 0 0 1-11.217-3.796 35.417 35.417 0 0 0-35.417-35.416 6.25 6.25 0 1 1 0-12.5zm16.25 54.166v83.334a25 25 0 0 1-25 25H43.75a25 25 0 0 1-25-25V70.833a25 25 0 0 1 25-25h45.833a25 25 0 0 1 25 25zm-70.833-12.5a12.5 12.5 0 0 0-12.5 12.5v83.334a12.5 12.5 0 0 0 12.5 12.5h45.833a12.5 12.5 0 0 0 12.5-12.5V70.833a12.5 12.5 0 0 0-12.5-12.5H43.75zm89.583 118.75a6.25 6.25 0 0 1 0-12.5H162.5a4.167 4.167 0 0 0 4.167-4.166V112.5a4.167 4.167 0 0 0-4.167-4.167h-29.167a6.25 6.25 0 0 1 0-12.5H162.5a16.667 16.667 0 0 1 16.667 16.667v47.917a16.667 16.667 0 0 1-16.667 16.666h-29.167z"/></svg>