<svg width="200" height="200" xmlns="http://www.w3.org/2000/svg"><defs><style/></defs><path d="M145.254 47.283l7.121-7.275a8.333 8.333 0 0 1 11.25-.612l.533.479a8.333 8.333 0 0 1 .134 11.783l-18.334 18.75c-5.22 5.342-14.291 1.646-14.291-5.825A33.333 33.333 0 0 0 98.333 31.25a8.333 8.333 0 1 1 0-16.667c21.242 0 39.388 13.246 46.634 31.93l.287.77zm-28.587 23.55v83.334a27.083 27.083 0 0 1-27.084 27.083H43.75a27.083 27.083 0 0 1-27.083-27.083V70.833A27.083 27.083 0 0 1 43.75 43.75h45.833a27.083 27.083 0 0 1 27.084 27.083zM43.75 60.417a10.417 10.417 0 0 0-10.417 10.416v83.334a10.417 10.417 0 0 0 10.417 10.416h45.833A10.417 10.417 0 0 0 100 154.167V70.833a10.417 10.417 0 0 0-10.417-10.416H43.75zm91.667 118.75a8.333 8.333 0 1 1 0-16.667H162.5a2.083 2.083 0 0 0 2.083-2.083V112.5a2.083 2.083 0 0 0-2.083-2.083h-27.083a8.333 8.333 0 1 1 0-16.667H162.5a18.75 18.75 0 0 1 18.75 18.75v47.917a18.75 18.75 0 0 1-18.75 18.75h-27.083z"/></svg>