<svg width="200" height="200" xmlns="http://www.w3.org/2000/svg"><defs><style/></defs><path d="M143.75 14.583A10.417 10.417 0 0 1 154.167 25v120.192l10.908-12.467a10.417 10.417 0 1 1 15.68 13.717l-29.167 33.333a10.417 10.417 0 0 1-18.255-6.858V25a10.417 10.417 0 0 1 10.417-10.417zM74.283 60.417l-7.312-15.084-6.854 15.084h14.166zM50.646 81.25l-5.75 12.646a10.417 10.417 0 1 1-18.959-8.625l27.575-60.667a14.262 14.262 0 0 1 5.563-6.354 14.346 14.346 0 0 1 7.533-2.196 14.346 14.346 0 0 1 7.584 2.009 14.267 14.267 0 0 1 5.72 6.208l29.459 60.762v.004a10.417 10.417 0 1 1-18.742 9.092L84.38 81.25H50.646zM100 183.333H35.417a10.417 10.417 0 0 1-6.696-18.4l42.654-35.766H35.417a10.417 10.417 0 0 1 0-20.834H100a10.417 10.417 0 0 1 6.696 18.4L64.042 162.5H100a10.417 10.417 0 0 1 0 20.833z"/></svg>