<svg width="200" height="200" xmlns="http://www.w3.org/2000/svg"><defs><style/></defs><path d="M20.833 58.333V41.667c0-4.605 1.625-8.53 4.884-11.788A16.058 16.058 0 0 1 37.5 25h58.333c4.604 0 8.53 1.625 11.784 4.88a16.058 16.058 0 0 1 4.883 11.787v2.083h41.667c6.904 0 12.796 2.442 17.679 7.32 4.879 4.888 7.32 10.776 7.32 17.68v62.5c0 6.904-2.441 12.796-7.32 17.68-4.888 4.878-10.775 7.32-17.68 7.32h-14.078l7.012 7.012a6.25 6.25 0 1 1-8.838 8.834l-17.679-17.675a6.25 6.25 0 0 1 0-8.838l17.68-17.679a6.25 6.25 0 0 1 8.833 8.833l-7 7.013h14.07a12.042 12.042 0 0 0 8.838-3.663 12.042 12.042 0 0 0 3.663-8.837v-62.5a12.042 12.042 0 0 0-3.663-8.838 12.042 12.042 0 0 0-8.837-3.666H112.5v2.083c0 4.604-1.625 8.533-4.883 11.792a16.058 16.058 0 0 1-11.784 4.87H37.5a16.058 16.058 0 0 1-11.783-4.874 16.058 16.058 0 0 1-4.884-11.792zm12.5 0c0 1.15.409 2.134 1.221 2.946A4.017 4.017 0 0 0 37.5 62.5h58.333a4.017 4.017 0 0 0 2.946-1.22A4.013 4.013 0 0 0 100 58.332V41.667a4.013 4.013 0 0 0-1.22-2.946 4.017 4.017 0 0 0-2.947-1.221H37.5a4.017 4.017 0 0 0-2.946 1.22 4.017 4.017 0 0 0-1.22 2.947v16.666zm11.238 42.425L62.25 83.08a6.25 6.25 0 0 1 8.833 0l17.684 17.68a6.252 6.252 0 0 1-8.842 8.841l-7.008-7.017V125h22.916c4.604 0 8.53 1.625 11.784 4.883a16.058 16.058 0 0 1 4.883 11.784v16.666c0 4.6-1.625 8.53-4.883 11.784A16.058 16.058 0 0 1 95.833 175H37.5a16.058 16.058 0 0 1-11.783-4.883 16.058 16.058 0 0 1-4.884-11.784v-16.666c0-4.605 1.625-8.53 4.884-11.784A16.058 16.058 0 0 1 37.5 125h22.917v-22.417l-7.009 7.013a6.25 6.25 0 0 1-8.837-8.842zM37.5 162.5h58.333a4.013 4.013 0 0 0 2.946-1.22 4.013 4.013 0 0 0 1.221-2.947v-16.666a4.013 4.013 0 0 0-1.22-2.946 4.013 4.013 0 0 0-2.947-1.221H37.5a4.013 4.013 0 0 0-2.946 1.22 4.017 4.017 0 0 0-1.22 2.947v16.666c0 1.15.408 2.134 1.22 2.946A4.013 4.013 0 0 0 37.5 162.5z"/></svg>