<svg width="200" height="200" xmlns="http://www.w3.org/2000/svg"><defs><style/></defs><path d="M187.5 100c0 48.325-39.175 87.5-87.5 87.5-13.667 0-26.9-3.142-38.888-9.096a83.112 83.112 0 0 1-4.695-2.57l-19.667 5.274a14.583 14.583 0 0 1-17.633-9.541l-.225-.767a14.583 14.583 0 0 1 0-7.55l5.258-19.65-.483-.833a70.695 70.695 0 0 1-.85-1.521l-.363-.68A87.158 87.158 0 0 1 12.5 100c0-48.325 39.175-87.5 87.5-87.5s87.5 39.175 87.5 87.5zm-154.167 0a66.325 66.325 0 0 0 7.813 31.342l.979 1.725a20.792 20.792 0 0 1 2.154 15.916l-2.467 9.196 9.242-2.47a20.792 20.792 0 0 1 14.883 1.591l.967.533c.98.567 1.825 1.042 2.53 1.417l.95.496a66.342 66.342 0 0 0 29.616 6.92c36.82 0 66.667-29.845 66.667-66.666S136.82 33.333 100 33.333 33.333 63.18 33.333 100zm17.709 0a11.458 11.458 0 1 1 22.916 0 11.458 11.458 0 0 1-22.916 0zm37.5 0a11.458 11.458 0 1 1 22.916 0 11.458 11.458 0 0 1-22.916 0zm37.5 0a11.458 11.458 0 1 1 22.916 0 11.458 11.458 0 0 1-22.916 0z"/></svg>