<svg width="200" height="200" xmlns="http://www.w3.org/2000/svg"><defs><style/></defs><path d="M179.167 51.042v89.583a25 25 0 0 1-25 25h-28.842l-18.317 16.658a10.417 10.417 0 0 1-13.433.492l-.583-.492-18.321-16.658H45.833a25 25 0 0 1-24.983-24.063l-.017-.937V51.042a25 25 0 0 1 25-25h108.334a25 25 0 0 1 25 25zm-133.334-12.5a12.5 12.5 0 0 0-12.5 12.5v89.583a12.5 12.5 0 0 0 12.5 12.5h29.638a10.417 10.417 0 0 1 7.008 2.708L100 171.758l17.525-15.925a10.417 10.417 0 0 1 6.146-2.675l.862-.033h29.634a12.5 12.5 0 0 0 12.5-12.5V51.042a12.5 12.5 0 0 0-12.5-12.5H45.833zm7.292 57.291a9.375 9.375 0 1 1 18.75 0 9.375 9.375 0 0 1-18.75 0zm37.5 0a9.375 9.375 0 1 1 18.75 0 9.375 9.375 0 0 1-18.75 0zm37.5 0a9.375 9.375 0 1 1 18.75 0 9.375 9.375 0 0 1-18.75 0z"/></svg>