<svg width="200" height="200" xmlns="http://www.w3.org/2000/svg"><defs><style/></defs><path d="M67.337 163.02l-31.045 17.16c-3.471 1.916-6.917 1.87-10.334-.147-3.416-2.016-5.125-5.004-5.125-8.97V47.916c0-13.684 11.317-25 25-25h108.334c13.683 0 25 11.316 25 25V137.5c0 13.683-11.317 25-25 25H69.354a4.1 4.1 0 0 0-2.017.52zm86.83-127.603H45.833c-6.841 0-12.5 5.658-12.5 12.5v119.612l27.959-15.45A16.404 16.404 0 0 1 69.354 150h84.813c6.841 0 12.5-5.658 12.5-12.5V47.917c0-6.842-5.659-12.5-12.5-12.5zm-80.18 57.816a6.25 6.25 0 0 1 8.821.546A22.842 22.842 0 0 0 100 101.542c6.667 0 12.854-2.85 17.18-7.75a6.25 6.25 0 1 1 9.366 8.275A35.337 35.337 0 0 1 100 114.042a35.337 35.337 0 0 1-26.558-11.984 6.25 6.25 0 0 1 .546-8.82z"/></svg>