<svg width="200" height="200" xmlns="http://www.w3.org/2000/svg"><defs><style/></defs><path d="M45.833 25h108.334a25 25 0 0 1 25 25v89.583a25 25 0 0 1-25 25h-24.813a10.417 10.417 0 0 0-7.008 2.709l-15.338 13.95a10.417 10.417 0 0 1-13.433.491l-.583-.491-15.342-13.95a10.417 10.417 0 0 0-7.008-2.709H45.833a25 25 0 0 1-24.983-24.062l-.017-.938V50a25 25 0 0 1 25-25zm27.613 78.642A35.337 35.337 0 0 0 100 115.625a35.337 35.337 0 0 0 26.546-11.97 6.25 6.25 0 1 0-9.367-8.28 22.842 22.842 0 0 1-17.179 7.75 22.84 22.84 0 0 1-17.188-7.758 6.25 6.25 0 1 0-9.366 8.275z"/></svg>