<svg width="200" height="200" xmlns="http://www.w3.org/2000/svg"><defs><style/></defs><path d="M183.333 100c0 46.025-37.308 83.333-83.333 83.333-13.017 0-25.62-2.991-37.033-8.662-1.209-.6-2.684-1.408-4.459-2.442a4.125 4.125 0 0 0-3.15-.42l-19.683 5.274a10.417 10.417 0 0 1-12.762-12.754l5.27-19.662a4.133 4.133 0 0 0-.433-3.167 71.65 71.65 0 0 1-1.604-2.867A82.992 82.992 0 0 1 16.666 100c0-46.025 37.309-83.333 83.334-83.333S183.333 53.975 183.333 100zm-154.166 0a70.496 70.496 0 0 0 8.312 33.32l1.054 1.86a16.625 16.625 0 0 1 1.721 12.724l-4.333 16.171 16.208-4.342a16.63 16.63 0 0 1 11.788 1.213l.891.487c1.025.6 1.925 1.1 2.684 1.509l1.037.533A70.517 70.517 0 0 0 100 170.833c39.12 0 70.833-31.712 70.833-70.833S139.121 29.167 100 29.167 29.167 60.879 29.167 100zm23.958 0a9.375 9.375 0 1 1 18.75 0 9.375 9.375 0 0 1-18.75 0zm37.5 0a9.375 9.375 0 1 1 18.75 0 9.375 9.375 0 0 1-18.75 0zm37.5 0a9.375 9.375 0 1 1 18.75 0 9.375 9.375 0 0 1-18.75 0z"/></svg>