<svg width="200" height="200" xmlns="http://www.w3.org/2000/svg"><defs><style/></defs><path d="M183.333 51.042v89.583a29.167 29.167 0 0 1-29.166 29.167h-27.23l-17.124 15.575a14.583 14.583 0 0 1-18.967.562l-.654-.562-17.134-15.575H45.833a29.167 29.167 0 0 1-29.15-28.167l-.016-1V51.042a29.167 29.167 0 0 1 29.166-29.167h108.334a29.167 29.167 0 0 1 29.166 29.167zm-137.5-8.334a8.333 8.333 0 0 0-8.333 8.334v89.583a8.333 8.333 0 0 0 8.333 8.333h29.638a14.583 14.583 0 0 1 9.812 3.792l14.713 13.38 14.72-13.376a14.583 14.583 0 0 1 8.909-3.766l.904-.03h29.638a8.333 8.333 0 0 0 8.333-8.333V51.042a8.333 8.333 0 0 0-8.333-8.334H45.833zm5.209 53.125a11.458 11.458 0 1 1 22.916 0 11.458 11.458 0 0 1-22.916 0zm37.5 0a11.458 11.458 0 1 1 22.916 0 11.458 11.458 0 0 1-22.916 0zm37.5 0a11.458 11.458 0 1 1 22.916 0 11.458 11.458 0 0 1-22.916 0z"/></svg>