<svg width="200" height="200" xmlns="http://www.w3.org/2000/svg"><defs><style/></defs><path d="M45.833 25h108.334a25 25 0 0 1 25 25v89.583a25 25 0 0 1-25 25h-28.842l-18.317 16.659a10.417 10.417 0 0 1-13.433.491l-.583-.491-18.321-16.659H45.833a25 25 0 0 1-24.983-24.062l-.017-.938V50a25 25 0 0 1 25-25zm120.834 25a12.5 12.5 0 0 0-12.5-12.5H45.833a12.5 12.5 0 0 0-12.5 12.5v89.583a12.5 12.5 0 0 0 12.5 12.5h29.638a10.417 10.417 0 0 1 7.008 2.709L100 170.717l17.525-15.925a10.417 10.417 0 0 1 6.146-2.675l.862-.034h29.634a12.5 12.5 0 0 0 12.5-12.5V50zM100 66.667a6.25 6.25 0 0 1 6.25 6.25v16.666h16.667a6.25 6.25 0 0 1 0 12.5H106.25v16.667a6.25 6.25 0 0 1-12.5 0v-16.667H77.083a6.25 6.25 0 0 1 0-12.5H93.75V72.917a6.25 6.25 0 0 1 6.25-6.25z"/></svg>