<svg width="200" height="200" xmlns="http://www.w3.org/2000/svg"><defs><style/></defs><path d="M165.792 183.183l-16.346-9.033a4.1 4.1 0 0 0-2.013-.52h-45.35c-13.683 0-25-11.313-25-25v-7.38H63.521a4.1 4.1 0 0 0-2.017.52l-23.129 12.784c-6.883 3.804-15.454-1.25-15.454-9.117V52.083c0-13.683 11.316-25 25-25h79.166c13.684 0 25 11.317 25 25V81.25h4.167c13.684 0 25 11.317 25 25v67.817c0 7.866-8.57 12.925-15.458 9.116zM102.083 81.25h37.5V52.083c0-6.841-5.658-12.5-12.5-12.5H47.917c-6.842 0-12.5 5.659-12.5 12.5v89.821l20.041-11.075a16.404 16.404 0 0 1 8.063-2.079h13.562v-22.5c0-13.683 11.317-25 25-25zm54.167 12.5h-54.167a12.583 12.583 0 0 0-12.5 12.5v42.38c0 6.845 5.659 12.5 12.5 12.5h45.35c2.867 0 5.55.695 8.059 2.082l13.258 7.325V106.25c0-6.842-5.658-12.5-12.5-12.5z"/></svg>