<svg width="200" height="200" xmlns="http://www.w3.org/2000/svg"><defs><style/></defs><path d="M19.57 70.833L9.959 51.021a16.367 16.367 0 0 1-1.641-8.417 16.458 16.458 0 0 1 2.516-7.704 16.458 16.458 0 0 1 5.834-5.625 16.367 16.367 0 0 1 8.291-2.192h149.625c3.021 0 5.817.75 8.388 2.25a16.458 16.458 0 0 1 5.841 5.742 16.458 16.458 0 0 1 2.43 7.82 16.354 16.354 0 0 1-1.842 8.488l-10.025 19.45H19.571zm152.188-12.5l6.53-12.675a3.917 3.917 0 0 0-.146-4.079 3.917 3.917 0 0 0-3.559-1.996H24.958a3.925 3.925 0 0 0-3.529 1.959 3.925 3.925 0 0 0-.217 4.025L27.4 58.333h144.358zm1.184 25L151.475 125H45.833L25.625 83.333h147.313zm-127.359 12.5l8.084 16.667h90.187l8.583-16.667H45.583zm20.946 71.854L51.892 137.5h93.15l-15.738 30.55a16.363 16.363 0 0 1-6.142 6.596c-2.666 1.625-5.554 2.437-8.675 2.437H81.53a16.346 16.346 0 0 1-8.846-2.541 16.35 16.35 0 0 1-6.15-6.854zM124.533 150H71.846l5.929 12.233c.762 1.567 2.012 2.35 3.75 2.35h32.958c1.692 0 2.925-.75 3.704-2.258L124.534 150z"/></svg>