<svg width="200" height="200" xmlns="http://www.w3.org/2000/svg"><defs><style/></defs><path d="M33.333 115.325c0 36.82 29.846 66.667 66.667 66.667s66.667-29.846 66.667-66.667c0-22.404-5.075-39.687-28.009-58.487-12.47-9.242-25.312-18.113-31.937-33.875-1.846-4.388-6.45-8.025-10.888-6.296-9.404 3.666-21.666 13.75-21.666 31.991 0 13.542 6.666 21.875 11.25 31.25s4.166 20.834-6.25 22.917C64.004 105.35 60.333 89.488 57.25 76.142c-1.008-4.367-1.958-8.463-3.22-11.559-1.688-4.125-6.55-2.875-8.443 1.155-7.65 16.304-12.254 36.041-12.254 49.583zM87.5 48.658c0-6.758 3.096-12.354 6.93-16.041.957-.917 2.474-.554 3.082.625 7.388 14.312 20.813 24.083 33.455 33.458 17.812 14.667 23.2 27.1 23.2 48.625 0 29.917-24.25 54.167-54.167 54.167s-54.167-24.25-54.167-54.167c0-5.842 1.013-12.962 2.792-20.354.096-.417.683-.38.804.033 1.188 4.03 2.617 7.196 4.704 10.325 6.75 10.917 20.867 14.163 33.384 9.996 12.533-5.596 15.758-15.917 14.783-27.612-1.183-15.63-14.8-27.296-14.8-39.055z" fill-rule="evenodd"/></svg>