<svg width="200" height="200" xmlns="http://www.w3.org/2000/svg"><defs><style/></defs><path d="M95.833 33.333a6.25 6.25 0 0 1 12.5 0v6.675c7.75.805 15.242 2.738 22.484 5.8a78.533 78.533 0 0 1 25.162 16.963 78.53 78.53 0 0 1 16.963 25.162 78.32 78.32 0 0 1 6.225 30.817v14.804c0 2.813-.996 5.217-2.988 7.208a9.825 9.825 0 0 1-7.208 2.988H31.029a9.825 9.825 0 0 1-7.208-2.987 9.825 9.825 0 0 1-2.988-7.209V118.75c0-10.733 2.075-21.008 6.225-30.817a78.533 78.533 0 0 1 16.963-25.162 78.533 78.533 0 0 1 25.162-16.963 78.083 78.083 0 0 1 26.65-6.12v-6.355zm-62.5 85.417v12.5h133.334v-12.5c0-9.042-1.746-17.696-5.238-25.946a66.15 66.15 0 0 0-14.292-21.196 66.15 66.15 0 0 0-21.191-14.291A65.942 65.942 0 0 0 100 52.083c-9.042 0-17.696 1.746-25.946 5.238a66.15 66.15 0 0 0-21.196 14.291A66.15 66.15 0 0 0 38.567 92.8a65.942 65.942 0 0 0-5.234 25.95zm50.08-37.967a6.25 6.25 0 0 1-3.267 5.492 41.596 41.596 0 0 0-9.609 7.18 41.85 41.85 0 0 0-7.179 9.603 6.25 6.25 0 0 1-10.983-5.966l.004-.009A54.146 54.146 0 0 1 61.7 84.617a54.258 54.258 0 0 1 12.475-9.325 6.254 6.254 0 0 1 9.237 5.491zm-62.58 85.884a6.25 6.25 0 0 1 6.25-6.25h145.834a6.25 6.25 0 0 1 0 12.5H27.083a6.25 6.25 0 0 1-6.25-6.25z"/></svg>