<svg width="200" height="200" xmlns="http://www.w3.org/2000/svg"><defs><style/></defs><path d="M166.563 34.017l9.145 16.875a45.833 45.833 0 0 1 5.542 21.841v79.35a29.167 29.167 0 0 1-29.167 29.167H47.917a29.167 29.167 0 0 1-29.167-29.167v-79.35a45.833 45.833 0 0 1 5.542-21.845l9.146-16.875A29.167 29.167 0 0 1 59.083 18.75h81.842a29.167 29.167 0 0 1 25.642 15.267zm-76.98 5.566h-30.5a8.333 8.333 0 0 0-7.333 4.363l-5.542 10.22h43.375V39.584zM39.583 75v77.083a8.333 8.333 0 0 0 8.334 8.334h104.166a8.333 8.333 0 0 0 8.334-8.334V75H39.583zM148.25 43.946a8.333 8.333 0 0 0-7.333-4.363h-30.5v14.584h43.375l-5.542-10.221zM65.625 96.875a11.458 11.458 0 1 1 22.917 0 11.458 11.458 0 0 1-22.917 0zm45.833 0a11.458 11.458 0 1 1 22.917 0 11.458 11.458 0 0 1-22.917 0zm-28.645 24.533A22.833 22.833 0 0 0 100 129.167a22.833 22.833 0 0 0 17.18-7.75 10.417 10.417 0 0 1 15.612 13.791A43.663 43.663 0 0 1 100 150c-12.708 0-24.558-5.463-32.804-14.8A10.417 10.417 0 0 1 82.3 120.867l.513.541z"/></svg>