<svg width="200" height="200" xmlns="http://www.w3.org/2000/svg"><defs><style/></defs><path d="M36.292 143.583c-17.384 1.513-28.463-7.354-31.113-25.554-1.841-12.646.542-19.604 7.73-29.083C29.178 67.483 60 56.25 100 56.25c39.992 0 70.792 11.225 87.075 32.683 7.22 9.509 9.583 16.321 7.742 29.1-2.617 18.184-13.842 27.071-31.146 25.542a207.933 207.933 0 0 1-16.259-2.07c-10.891-1.847-17.133-10.963-18.233-22.534a229.492 229.492 0 0 1-.833-16.883c0-4.171-2.35-5.742-5.417-7.088-7.183-3.163-14.096-4.375-22.637-4.375-8.646 0-14.867.625-23.2 3.958-2.084.834-8.334 3.334-8.334 7.5v16.888c-.887 11.237-5.087 19.95-15.808 22.458-5.475 1.283-11.083 1.65-16.663 2.154z"/></svg>