<svg width="200" height="200" xmlns="http://www.w3.org/2000/svg"><defs><style/></defs><path d="M87.487 45.98c5.809 9.353 2.617 18.487-4.708 27.066L70.833 84.987c-2.945 2.946-.291 9.138.592 11.2 3.533 8.25 7.496 13.092 13.608 19.209 6.042 6.042 11.788 10.067 19.105 12.912 3.125 1.221 5.895 1.767 8.845-1.183a229.733 229.733 0 0 1 12.534-11.35c8.958-7.404 19.825-9.442 28.833-3.042a207.996 207.996 0 0 1 12.967 10.03c13.32 11.158 14.97 25.379 3.958 40.091-7.733 10.342-14.225 13.492-26.058 15.113C118.52 181.62 88.8 167.783 60.508 139.5c-28.291-28.292-42.141-58.033-38.47-84.712 1.624-11.792 4.862-18.4 15.108-26.042 14.75-11 28.858-9.433 40.083 3.929 3.608 4.28 7.3 8.533 10.258 13.304z"/></svg>