<svg width="200" height="200" xmlns="http://www.w3.org/2000/svg"><defs><style/></defs><path d="M116.683 20.404a6.25 6.25 0 0 1 6.059-5.82c31.958.674 58.487 28.9 60.579 59.995a6.252 6.252 0 1 1-12.475.838c-1.738-25.867-22.442-46.567-48.358-48.35a6.25 6.25 0 0 1-5.805-6.667zM66.042 88.53c-2.946 2.946-.292 9.138.591 11.2 3.534 8.25 7.496 13.092 13.609 19.209 6.041 6.041 11.787 10.066 19.104 12.912 3.125 1.22 5.896 1.767 8.846-1.183a229.733 229.733 0 0 1 12.533-11.35c8.958-7.404 19.825-9.442 28.833-3.042a207.996 207.996 0 0 1 12.967 10.03c13.32 11.158 14.97 25.378 3.958 40.09-7.733 10.343-14.225 13.493-26.058 15.113-26.696 3.655-56.417-10.183-84.708-38.466-28.292-28.292-42.142-58.034-38.471-84.713 1.625-11.791 4.862-18.4 15.108-26.041 14.75-11 28.859-9.434 40.084 3.929 3.608 4.279 7.3 8.533 10.258 13.304 5.808 9.354 2.617 18.487-4.708 27.067L66.042 88.529zm50.666-43.441a6.25 6.25 0 0 1 6.359-5.505c18.154 1.313 33.191 16.934 35.229 34.705a6.25 6.25 0 0 1-12.417 1.424c-1.417-12.337-11.258-22.179-23.704-23.675a6.25 6.25 0 0 1-5.458-6.95zm-.041 19.495a16.667 16.667 0 0 1 16.666 16.667h-12.5a4.167 4.167 0 0 1-4.166-4.167v-12.5z"/></svg>