<svg width="200" height="200" xmlns="http://www.w3.org/2000/svg"><defs><style/></defs><path d="M17.7 56.388c1.7-12.375 8.196-22.409 18.862-30.367 15.626-11.654 30.976-9.95 42.909 4.258l3.104 3.675 2.033 2.48a90.574 90.574 0 0 1 2.98 3.924 66.742 66.742 0 0 1 2.316 3.459c6.259 10.091 6.013 23.308-1.933 32.612l-4.33 5.05-4.291 4.975a2.083 2.083 0 0 0-.367 2.1c2.725 7.133 7.013 13.63 12.921 19.542 5.838 5.833 12.25 10.091 19.296 12.829a2.075 2.075 0 0 0 2.15-.4 268.35 268.35 0 0 1 10.113-8.792c9.67-7.991 22.929-8.729 32.716-1.775 4.521 3.209 9 6.7 13.092 10.125 14.162 11.875 15.958 27.338 4.292 42.934-8.055 10.762-17.971 17.166-30.384 18.866-27.358 3.75-59.775-8.258-88.5-36.983C25.954 116.175 13.937 83.733 17.7 56.387zm54.908-8.28a57.25 57.25 0 0 0-1.129-1.42l-5.35-6.367c-5.987-6.771-11.291-7.138-19.6-.938-7.266 5.417-11.262 11.592-12.32 19.275-3.021 21.984 7.095 49.292 32.258 74.459 25.158 25.158 52.45 35.266 74.45 32.254 7.725-1.059 13.787-4.971 19.3-12.342 6.366-8.508 5.729-13.983-1.65-20.167a193.275 193.275 0 0 0-12.042-9.316c-3.53-2.513-8.483-2.238-12.442 1.037a252.22 252.22 0 0 0-9.487 8.242 18.733 18.733 0 0 1-19.446 3.625c-9.23-3.583-17.587-9.125-25.03-16.57-7.537-7.538-13.124-16.01-16.707-25.376a18.75 18.75 0 0 1 3.325-18.946l4.27-4.946 4.3-5.016c2.959-3.463 3.055-8.767.434-12.988a47.417 47.417 0 0 0-1.713-2.558l-.375-.52-1.041-1.418z"/></svg>