<svg width="200" height="200" xmlns="http://www.w3.org/2000/svg"><defs><style/></defs><path d="M170.833 18.75a10.417 10.417 0 0 1 10.417 10.417v54.166a6.25 6.25 0 0 1-12.5 0V40.087l-42.67 42.675a60.417 60.417 0 0 1 13.503 38.071c0 33.367-27.05 60.417-60.416 60.417S18.75 154.2 18.75 120.833 45.8 60.417 79.167 60.417a60.417 60.417 0 0 1 38.07 13.504l42.68-42.671h-43.25a6.25 6.25 0 0 1-6.221-5.65l-.03-.6a6.25 6.25 0 0 1 6.25-6.25h54.167zM79.167 72.917c-26.463 0-47.917 21.454-47.917 47.916s21.454 47.917 47.917 47.917 47.916-21.454 47.916-47.917-21.454-47.916-47.916-47.916z"/></svg>