<svg width="200" height="200" xmlns="http://www.w3.org/2000/svg"><defs><style/></defs><path d="M170.833 14.583a14.583 14.583 0 0 1 14.584 14.584v54.166a10.417 10.417 0 0 1-20.834 0V50.15L131.6 83.13a64.583 64.583 0 0 1 12.15 37.703c0 35.667-28.917 64.584-64.583 64.584-35.667 0-64.584-28.917-64.584-64.584 0-35.666 28.917-64.583 64.584-64.583A64.583 64.583 0 0 1 116.87 68.4l32.983-32.983h-33.187a10.417 10.417 0 0 1-10.396-9.734L106.25 25a10.417 10.417 0 0 1 10.417-10.417h54.166zm-91.666 62.5c-24.163 0-43.75 19.588-43.75 43.75s19.587 43.75 43.75 43.75 43.75-19.587 43.75-43.75-19.588-43.75-43.75-43.75z"/></svg>