<svg width="200" height="200" xmlns="http://www.w3.org/2000/svg"><defs><style/></defs><path d="M72.43 34.73a70.28 70.28 0 0 0-22.518 15.183A70.28 70.28 0 0 0 34.73 72.428 70.063 70.063 0 0 0 29.167 100c0 9.608 1.854 18.8 5.562 27.57a70.28 70.28 0 0 0 15.183 22.518A70.28 70.28 0 0 0 72.43 165.27c8.771 3.708 17.958 5.562 27.571 5.562 9.608 0 18.8-1.854 27.57-5.562a70.283 70.283 0 0 0 22.518-15.183 70.283 70.283 0 0 0 15.183-22.517A70.063 70.063 0 0 0 170.833 100c0-4.833-.479-9.592-1.437-14.283a6.251 6.251 0 0 1 12.25-2.5h-.004A83.778 83.778 0 0 1 183.333 100c0 11.3-2.183 22.112-6.55 32.438a82.667 82.667 0 0 1-17.858 26.487 82.667 82.667 0 0 1-26.488 17.858 82.442 82.442 0 0 1-32.437 6.55c-11.3 0-22.113-2.183-32.438-6.55a82.667 82.667 0 0 1-26.487-17.858 82.667 82.667 0 0 1-17.858-26.488A82.442 82.442 0 0 1 16.667 100c0-11.3 2.183-22.113 6.55-32.438a82.667 82.667 0 0 1 17.858-26.487 82.667 82.667 0 0 1 26.487-17.858A82.438 82.438 0 0 1 100 16.667c5.675 0 11.267.562 16.78 1.691h.007a6.252 6.252 0 1 1-2.504 12.25A71.058 71.058 0 0 0 100 29.167c-9.608 0-18.8 1.854-27.57 5.562zm85.903-11.813v18.75h18.75a6.25 6.25 0 0 1 4.417 10.666l-25 25a6.25 6.25 0 0 1-4.417 1.834h-22.425l-.237.25-25 25a6.25 6.25 0 1 1-8.842-8.834l25-25c.084-.083.167-.166.254-.241V47.917c0-1.659.659-3.25 1.834-4.417l25-25a6.25 6.25 0 0 1 10.666 4.417zm-12.5 15.087l-12.5 12.5v16.163h16.163l12.5-12.5h-9.913a6.25 6.25 0 0 1-6.25-6.25v-9.913zM100 66.667c-9.208 0-17.062 3.254-23.57 9.762-6.51 6.509-9.763 14.367-9.763 23.571 0 9.208 3.254 17.063 9.762 23.57 6.509 6.51 14.367 9.763 23.571 9.763 9.208 0 17.063-3.254 23.57-9.762 6.51-6.508 9.763-14.367 9.763-23.571a6.25 6.25 0 0 1 12.5 0c0 6.213-1.2 12.163-3.604 17.842a45.458 45.458 0 0 1-9.82 14.566 45.458 45.458 0 0 1-14.567 9.821c-5.675 2.404-11.625 3.604-17.842 3.604-6.212 0-12.162-1.2-17.842-3.604a45.458 45.458 0 0 1-14.566-9.82 45.458 45.458 0 0 1-9.821-14.567A45.346 45.346 0 0 1 54.167 100c0-6.212 1.2-12.162 3.604-17.842a45.458 45.458 0 0 1 9.82-14.566 45.458 45.458 0 0 1 14.567-9.821A45.346 45.346 0 0 1 100 54.167a6.25 6.25 0 0 1 0 12.5z"/></svg>