<svg width="200" height="200" xmlns="http://www.w3.org/2000/svg"><defs><style/></defs><path d="M104.208 9.996c2.759.429 5.005 1.108 9.675 2.879l46.463 17.633a29.167 29.167 0 0 1 18.82 27.267v50.313c0 34.979-24.683 62.141-71.708 81.395l-2.104.85a14.592 14.592 0 0 1-10.77-.016c-48.346-19.296-73.75-46.73-73.75-82.23V57.95a29.167 29.167 0 0 1 18.75-27.242L86.1 12.917c4.667-1.792 6.908-2.471 9.667-2.913a26.658 26.658 0 0 1 8.441-.004zm-5.166 20.583c-1.038.167-2.067.48-5.5 1.792L47.025 50.167a8.333 8.333 0 0 0-5.358 7.783v50.138c0 24.666 18.179 45.083 56.762 61.291l1.559.65 1.583-.658c37.958-15.954 56.15-35.933 56.75-60.054l.012-1.23V57.776a8.333 8.333 0 0 0-5.375-7.792l-47.891-18.166a30.3 30.3 0 0 0-3.334-1.092l-.741-.146a5.846 5.846 0 0 0-1.95 0zm-8.692 74.25l34.58-35.387a10.417 10.417 0 0 1 14.224-.634l.504.459A10.417 10.417 0 0 1 139.83 84l-39.096 40.013a14.583 14.583 0 0 1-20.625.241l-.35-.354-18.504-19.358a10.417 10.417 0 0 1 15.059-14.396l14.037 14.683z"/></svg>