<svg width="200" height="200" xmlns="http://www.w3.org/2000/svg"><defs><style/></defs><path d="M87.592 12.637c4.416-1.687 6.416-2.3 8.833-2.683a22.488 22.488 0 0 1 7.137-.008c2.417.375 4.417.979 8.842 2.658l46.467 17.633A25 25 0 0 1 175 53.612v50.305c0 33-23.5 58.862-69.096 77.529l-2.083.842a10.42 10.42 0 0 1-7.696-.009C49.2 163.55 25 137.417 25 103.917V53.783a25 25 0 0 1 16.067-23.35l46.525-17.791zM71.342 87.68a6.253 6.253 0 0 0-9.025 8.659l20.591 21.454.23.233c4.112 4.02 10.712 3.95 14.737-.167l41.183-42.1a6.25 6.25 0 0 0-.095-8.841l-.45-.4a6.25 6.25 0 0 0-8.388.5l-39.687 40.566-19.1-19.9z"/></svg>