<svg width="200" height="200" xmlns="http://www.w3.org/2000/svg"><defs><style/></defs><path d="M103.883 12.054c2.588.404 4.713 1.042 9.259 2.771l46.466 17.63a27.083 27.083 0 0 1 17.475 25.32v50.313c0 33.987-24.091 60.5-70.4 79.462l-2.096.846a12.508 12.508 0 0 1-9.233-.013c-47.633-19.016-72.437-45.796-72.437-80.296V57.95a27.083 27.083 0 0 1 17.408-25.292l46.52-17.8c3.842-1.47 5.96-2.158 8.084-2.583l1.167-.208a24.438 24.438 0 0 1 7.791-.013zm-5.166 16.467c-.934.15-1.83.392-3.809 1.112L46.28 48.221a10.417 10.417 0 0 0-6.696 9.729v50.138c0 25.641 18.742 46.691 58.013 63.204l2.391.987 2.375-.979c38.667-16.25 57.434-36.875 58.042-61.958l.013-1.254V57.775a10.417 10.417 0 0 0-6.721-9.737l-46.467-17.634c-2.737-1.037-4.05-1.483-5.058-1.716l-.859-.167a7.917 7.917 0 0 0-2.595 0zm-8.396 80.354l37.125-37.97a8.333 8.333 0 0 1 11.325-.55l.458.416a8.333 8.333 0 0 1 .133 11.783l-40.124 41.05a12.5 12.5 0 0 1-17.142.696l-.646-.604-19.73-20.575a8.334 8.334 0 0 1 12.034-11.533l16.567 17.287z"/></svg>