<svg width="200" height="200" xmlns="http://www.w3.org/2000/svg"><defs><style/></defs><path d="M96.425 12.042c-2.417.379-4.417.991-8.833 2.679L41.067 32.517A25 25 0 0 0 25 55.867v50.137c0 33.5 24.2 59.625 71.125 78.363a10.42 10.42 0 0 0 7.696.008l2.083-.842C151.5 164.867 175 139.004 175 106.004V55.696a25 25 0 0 0-16.13-23.375l-46.466-17.633c-4.42-1.68-6.425-2.284-8.842-2.659a22.488 22.488 0 0 0-7.137.009zm5.208 12.333l.638.117c.975.2 2.083.541 4.162 1.308l48 18.208a12.5 12.5 0 0 1 8.067 11.688V106l-.017 1.287c-.625 26.471-20.591 48-61.279 64.663l-1.22.487.77.313C58.092 155.725 37.5 133.487 37.5 106V55.867a12.5 12.5 0 0 1 8.033-11.675L92.058 26.4c3.675-1.408 4.946-1.796 6.33-2.017a10 10 0 0 1 3.245-.004zm5.659 41.233c0-4.029-3.267-7.275-7.292-7.275s-7.292 3.225-7.292 7.25v1.084q0 14.554.792 35.429a6.492 6.492 0 0 0 6.5 6.237c3.492 0 6.367-2.741 6.5-6.233q.792-20.867.792-35.404v-1.088zM100 135.417a8.333 8.333 0 1 0 0-16.667 8.333 8.333 0 0 0 0 16.667z" fill-rule="evenodd"/></svg>