<svg width="200" height="200" xmlns="http://www.w3.org/2000/svg"><defs><style/></defs><path d="M10.938 84.246c24.916-36.496 54.708-55.08 89.066-55.08 34.942 0 65.154 19.222 90.346 56.95a25.012 25.012 0 0 1-.012 27.759l-1.267 1.88c-24.917 36.495-54.708 55.078-89.071 55.078-34.946 0-65.154-19.22-90.35-56.95a25.012 25.012 0 0 1 .013-27.758l1.27-1.88zm122.033 2.717a35.054 35.054 0 0 0-7.883-12.005 35.054 35.054 0 0 0-12.009-7.887 35.104 35.104 0 0 0-13.037-2.488c-4.5 0-8.85.83-13.038 2.488A35.054 35.054 0 0 0 75 74.958a35.05 35.05 0 0 0-7.888 12.005A35.104 35.104 0 0 0 64.625 100c0 4.5.833 8.85 2.487 13.037A35.054 35.054 0 0 0 75 125.042a35.05 35.05 0 0 0 12.004 7.887 35.104 35.104 0 0 0 13.042 2.488c4.5 0 8.846-.83 13.033-2.488a35.054 35.054 0 0 0 12.008-7.887 35.04 35.04 0 0 0 7.884-12.005A35.104 35.104 0 0 0 135.458 100c0-4.5-.829-8.85-2.487-13.037zm-16.721 29.245c-4.475 4.475-9.875 6.713-16.204 6.713-6.33 0-11.73-2.238-16.204-6.709-4.475-4.479-6.709-9.879-6.709-16.208 0-6.329 2.234-11.729 6.709-16.208 4.475-4.471 9.875-6.708 16.208-6.708 6.325 0 11.725 2.237 16.2 6.708 4.475 4.479 6.713 9.879 6.713 16.208 0 6.33-2.238 11.73-6.709 16.209z"/></svg>