<svg width="200" height="200" xmlns="http://www.w3.org/2000/svg"><defs><style/></defs><path d="M171.762 67.675a10.417 10.417 0 0 1 14.809 14.65 133.783 133.783 0 0 1-14.375 12.637l17.937 17.938a10.418 10.418 0 1 1-14.733 14.733L154.067 106.3a113.458 113.458 0 0 1-20.417 7.946l6.95 25.95a10.417 10.417 0 1 1-20.125 5.391l-7.363-27.483a131.833 131.833 0 0 1-13.112.646c-4.45 0-8.825-.217-13.113-.642l-7.366 27.48a10.417 10.417 0 1 1-20.125-5.392l6.958-25.95a113.437 113.437 0 0 1-20.42-7.946L24.6 127.633A10.418 10.418 0 0 1 9.867 112.9l17.941-17.938A133.738 133.738 0 0 1 13.43 82.325a10.417 10.417 0 1 1 14.808-14.65C48.275 87.925 72 97.917 100 97.917c28 0 51.725-9.992 71.762-30.242z"/></svg>