<svg width="200" height="200" xmlns="http://www.w3.org/2000/svg"><defs><style/></defs><path d="M173.242 69.138a8.335 8.335 0 0 1 11.85 11.724 130.5 130.5 0 0 1-16.084 13.863l19.65 19.65a8.333 8.333 0 1 1-11.783 11.783l-22.408-22.404a111.475 111.475 0 0 1-23.367 9.025l7.487 27.954a8.333 8.333 0 1 1-16.095 4.313l-7.825-29.2a128.817 128.817 0 0 1-14.667.82c-4.992 0-9.88-.274-14.667-.82l-7.825 29.2a8.333 8.333 0 0 1-16.095-4.313L68.9 112.78a111.48 111.48 0 0 1-23.367-9.025l-22.408 22.404a8.333 8.333 0 0 1-11.783-11.783l19.646-19.65a130.496 130.496 0 0 1-16.08-13.862 8.335 8.335 0 1 1 11.85-11.725C47.183 89.792 71.442 100 100 100c28.558 0 52.817-10.212 73.242-30.862z"/></svg>