<svg width="200" height="200" xmlns="http://www.w3.org/2000/svg"><defs><style/></defs><path d="M100 27.083c35.708 0 66.53 19.609 92.083 57.875a27.096 27.096 0 0 1 .584 29.125l-.604.959-1.275 1.887c-25.28 37.021-55.68 55.988-90.788 55.988-35.708 0-66.53-19.609-92.083-57.875a27.096 27.096 0 0 1-.584-29.125l.605-.959 1.275-1.887C34.492 46.05 64.892 27.083 100 27.083zm0 16.667c-28.57 0-53.708 15.363-75.775 46.913l-1.22 1.766-1.222 1.813a10.417 10.417 0 0 0 0 11.545C44.458 139.746 70.396 156.25 100 156.25c28.567 0 53.708-15.363 75.775-46.913l1.22-1.766 1.222-1.813a10.417 10.417 0 0 0 0-11.545C155.542 60.254 129.604 43.75 100 43.75zm0 22.917a33.333 33.333 0 1 1 0 66.666 33.333 33.333 0 0 1 0-66.666zm0 16.666a16.667 16.667 0 1 0 0 33.334 16.667 16.667 0 0 0 0-33.334z"/></svg>