<svg width="200" height="200" xmlns="http://www.w3.org/2000/svg"><defs><style/></defs><path d="M41.667 37.5a25 25 0 0 1 25-25c13.433 0 24.45 8.833 33.333 25.708 8.883-16.875 19.9-25.708 33.333-25.708A25 25 0 0 1 154.988 50h11.679a14.583 14.583 0 0 1 14.583 14.583v14.584a14.583 14.583 0 0 1-12.5 14.437v.146H31.25v-.146a14.583 14.583 0 0 1-12.5-14.437V64.583A14.583 14.583 0 0 1 33.333 50h11.68a24.883 24.883 0 0 1-3.346-12.5zm49.375 10.762c-7.109-15.404-15.1-22.854-23.659-23.25L66.667 25a12.5 12.5 0 0 0 0 25H91.82l-.78-1.737zM108.179 50h25.154a12.5 12.5 0 0 0 0-25l-.716.017c-8.559.391-16.55 7.841-23.659 23.246L108.18 50zM94.792 177.083H56.25a25 25 0 0 1-25-25v-47.916h63.542v72.916zm10.416-72.916h63.542v47.916a25 25 0 0 1-25 25h-38.542v-72.916z"/></svg>