<svg width="200" height="200" xmlns="http://www.w3.org/2000/svg"><defs><style/></defs><path d="M100 33.908c8.917-15.375 19.925-23.491 33.342-23.491a27.083 27.083 0 0 1 25.004 37.5h8.32a18.75 18.75 0 0 1 18.75 18.75v16.666a18.758 18.758 0 0 1-14.583 18.284v50.466a27.083 27.083 0 0 1-27.083 27.084h-87.5a27.083 27.083 0 0 1-27.083-27.084v-50.466a18.758 18.758 0 0 1-14.584-18.284V66.667a18.75 18.75 0 0 1 18.75-18.75h8.325a27.083 27.083 0 0 1 25.009-37.5c13.416 0 24.42 8.12 33.333 23.491zm62.5 51.509h4.167a2.083 2.083 0 0 0 2.083-2.084V66.667a2.083 2.083 0 0 0-2.083-2.084H33.333a2.083 2.083 0 0 0-2.083 2.084v16.666a2.083 2.083 0 0 0 2.083 2.084h66.534a13.87 13.87 0 0 1 .266 0H162.5zM108.333 162.5h35.417a10.417 10.417 0 0 0 10.417-10.417v-50h-45.834V162.5zm-16.666-60.417H45.833v50A10.417 10.417 0 0 0 56.25 162.5h35.417v-60.417zm-25-75a10.417 10.417 0 0 0 0 20.834l21.912-.005-.537-1.108c-6.471-13.112-13.496-19.35-20.717-19.708l-.658-.013zm66.016.017c-7.225.354-14.25 6.592-20.72 19.708l-.534 1.104h21.913a10.417 10.417 0 0 0 0-20.833l-.659.021z"/></svg>