<svg width="200" height="200" xmlns="http://www.w3.org/2000/svg"><defs><style/></defs><path d="M100 38.208c8.883-16.875 19.9-25.708 33.333-25.708A25 25 0 0 1 154.988 50h11.679a16.667 16.667 0 0 1 16.666 16.667v16.666a16.667 16.667 0 0 1-14.583 16.542v52.208a25 25 0 0 1-25 25h-87.5a25 25 0 0 1-25-25V99.875a16.667 16.667 0 0 1-14.583-16.542V66.667A16.667 16.667 0 0 1 33.333 50h11.68a25 25 0 0 1 21.654-37.5c13.433 0 24.45 8.833 33.333 25.708zM156.25 100h-50v64.583h37.5a12.5 12.5 0 0 0 12.5-12.5V100zm-62.5 0h-50v52.083a12.5 12.5 0 0 0 12.5 12.5h37.5V100zM66.667 25a12.5 12.5 0 1 0 0 25H91.82l-.78-1.738c-7.108-15.404-15.1-22.854-23.658-23.25L66.667 25zm65.95.017c-8.559.391-16.55 7.841-23.659 23.246L108.18 50h25.154a12.5 12.5 0 0 0 0-25l-.716.017zm38.216 41.65a4.167 4.167 0 0 0-4.166-4.167H33.333a4.167 4.167 0 0 0-4.166 4.167v16.666a4.167 4.167 0 0 0 4.166 4.167h133.334a4.167 4.167 0 0 0 4.166-4.167V66.667z"/></svg>