<svg width="200" height="200" xmlns="http://www.w3.org/2000/svg"><defs><style/></defs><path d="M185.417 53.125v22.442a16.633 16.633 0 0 1-7.009 13.558l-.904.662c-4.646 3.521-6.67 6.884-6.67 10.213 0 3.537 2.283 7.112 7.566 10.867a16.642 16.642 0 0 1 7.017 13.57v22.438a25 25 0 0 1-25 25H39.583a25 25 0 0 1-25-25v-22.442a16.633 16.633 0 0 1 7.009-13.558l.904-.662c4.646-3.521 6.67-6.884 6.67-10.213 0-3.537-2.283-7.112-7.566-10.867l-.754-.57a16.642 16.642 0 0 1-6.263-13V53.125a25 25 0 0 1 25-25h120.834a25 25 0 0 1 25 25zM68.75 40.625H39.583a12.5 12.5 0 0 0-12.5 12.5v22.43a4.14 4.14 0 0 0 1.75 3.382C37.154 84.855 41.667 91.921 41.667 100c0 8.083-4.517 15.15-12.842 21.067a4.138 4.138 0 0 0-1.742 3.375v22.433a12.5 12.5 0 0 0 12.5 12.5H68.75V150a6.25 6.25 0 0 1 12.5 0v9.375h79.167a12.5 12.5 0 0 0 12.5-12.5v-22.433a4.142 4.142 0 0 0-1.75-3.38c-8.321-5.916-12.834-12.983-12.834-21.062 0-8.083 4.517-15.15 12.842-21.067a4.133 4.133 0 0 0 1.742-3.375V53.125a12.5 12.5 0 0 0-12.5-12.5H81.25V50a6.25 6.25 0 0 1-12.5 0v-9.375zM75 92.708c-3.45 0-6.25-2.937-6.25-6.562v-8.75c0-3.625 2.8-6.563 6.25-6.563s6.25 2.938 6.25 6.563v8.75c0 3.625-2.8 6.562-6.25 6.562zm0 36.459c-3.45 0-6.25-2.938-6.25-6.563v-8.75c0-3.625 2.8-6.562 6.25-6.562s6.25 2.937 6.25 6.562v8.75c0 3.625-2.8 6.563-6.25 6.563z"/></svg>