<svg width="200" height="200" xmlns="http://www.w3.org/2000/svg"><defs><style/></defs><path d="M12.712 68.75V47.917a18.75 18.75 0 0 1 18.75-18.75h133.334a18.75 18.75 0 0 1 18.75 18.75V68.75h-.008l.004.458a16.667 16.667 0 0 1-10.875 15.625 16.667 16.667 0 0 0-.625 30.03 16.667 16.667 0 0 1 11.491 16.387h.013v20.833a18.75 18.75 0 0 1-18.75 18.75H31.463a18.75 18.75 0 0 1-18.75-18.75v-21.787a16.667 16.667 0 0 1 11.5-15.433 16.667 16.667 0 0 0-.63-30.026 16.667 16.667 0 0 1-10.87-15.216v-.871zM81.25 54.167v-8.334a6.25 6.25 0 1 0-12.5 0v8.334a6.25 6.25 0 0 0 12.5 0zm0 33.333v-8.333a6.25 6.25 0 1 0-12.5 0V87.5a6.25 6.25 0 0 0 12.5 0zm0 33.333V112.5a6.25 6.25 0 1 0-12.5 0v8.333a6.25 6.25 0 0 0 12.5 0zm0 33.334v-8.334a6.25 6.25 0 1 0-12.5 0v8.334a6.25 6.25 0 0 0 12.5 0z"/></svg>