<svg width="200" height="200" xmlns="http://www.w3.org/2000/svg"><defs><style/></defs><path d="M176.875 87.292L91.1 173.062a20.833 20.833 0 0 1-14.733 6.105H43.183A14.583 14.583 0 0 1 28.6 164.583v-33.187a20.833 20.833 0 0 1 6.1-14.73l85.775-85.774a29.167 29.167 0 0 1 41.25 0l15.15 15.15a29.167 29.167 0 0 1 0 41.25zm-36.592 7.125l-26.391-27.475L49.433 131.4v26.933h26.934l63.916-63.916zm-11.658-42.209l26.392 27.475 7.125-7.125a8.333 8.333 0 0 0 0-11.783l-15.15-15.15a8.333 8.333 0 0 0-11.784 0l-6.583 6.583zM175 179.167h-45.833a10.417 10.417 0 1 1 0-20.834H175a10.417 10.417 0 0 1 0 20.834z"/></svg>