<svg width="200" height="200" xmlns="http://www.w3.org/2000/svg"><defs><style/></defs><path d="M172.917 25A10.417 10.417 0 0 0 162.5 14.583h-125a10.417 10.417 0 0 0 0 20.834h125A10.417 10.417 0 0 0 172.917 25zm-60.092 25.588a18.75 18.75 0 0 0-26.5.858l-56.43 60.179a10.417 10.417 0 0 0 .476 14.725l.562.487a10.417 10.417 0 0 0 14.163-.962l44.487-47.45v100.742a10.417 10.417 0 0 0 20.834 0V78.425l44.483 47.45a10.418 10.418 0 0 0 15.2-14.25l-56.42-60.18a18.55 18.55 0 0 0-.855-.858z" fill-rule="evenodd"/></svg>