<svg width="200" height="200" xmlns="http://www.w3.org/2000/svg"><defs><style/></defs><path d="M105.567 100c0 3.742-1.321 6.93-3.967 9.575l-63.725 63.72a9.375 9.375 0 1 1-13.254-13.262L84.658 100 24.621 39.963a9.375 9.375 0 1 1 13.258-13.259L101.6 90.425c2.642 2.642 3.967 5.833 3.967 9.575zm70.833 0c0 3.742-1.32 6.93-3.967 9.575l-63.725 63.72a9.375 9.375 0 0 1-13.258-13.257L155.492 100 95.454 39.962a9.375 9.375 0 1 1 13.263-13.254l63.716 63.717c2.646 2.642 3.967 5.833 3.967 9.575z" fill="#111925"/></svg>