<svg width="200" height="200" xmlns="http://www.w3.org/2000/svg"><defs><style/></defs><path d="M172.917 175a10.417 10.417 0 0 1-10.417 10.417h-125a10.417 10.417 0 0 1 0-20.834h125A10.417 10.417 0 0 1 172.917 175zm-60.092-25.588a18.75 18.75 0 0 1-26.5-.858l-56.43-60.179a10.417 10.417 0 0 1 .476-14.725l.562-.492a10.417 10.417 0 0 1 14.163.967l44.487 47.45V20.833a10.417 10.417 0 0 1 20.834 0v100.742l44.483-47.45a10.418 10.418 0 0 1 15.2 14.25l-56.42 60.18c-.276.295-.563.582-.855.857z" fill-rule="evenodd"/></svg>