<svg width="200" height="200" xmlns="http://www.w3.org/2000/svg"><defs><style/></defs><path d="M159.912 68.75l-15.85 15.846a6.25 6.25 0 1 0 8.842 8.837l23.571-23.566q3.05-3.055 3.05-7.367 0-4.317-3.05-7.367l-23.57-23.57a6.25 6.25 0 1 0-8.843 8.837l15.855 15.85H70.833q-10.591 0-20.275 4.096-9.35 3.954-16.554 11.158-7.208 7.208-11.158 16.554-4.096 9.684-4.096 20.275t4.096 20.275q3.954 9.346 11.158 16.554 7.209 7.205 16.554 11.159 9.684 4.096 20.275 4.096h30.209a6.25 6.25 0 0 0 0-12.5H70.833q-8.058 0-15.404-3.109-7.104-3.004-12.583-8.487-5.483-5.48-8.488-12.583-3.108-7.346-3.108-15.405 0-8.058 3.108-15.408 3-7.1 8.484-12.583 5.483-5.48 12.583-8.484 7.354-3.108 15.408-3.108h89.08z" fill-rule="evenodd"/></svg>