<svg width="200" height="200" xmlns="http://www.w3.org/2000/svg"><defs><style/></defs><path d="M109.9 8.396l.883-.021a18.75 18.75 0 0 1 12.346 4.638l66.6 58.279a27.083 27.083 0 0 1 0 40.762l-66.604 58.271a18.75 18.75 0 0 1-31.096-14.113v-25.758l-1.242.083C66.871 132.287 51 141.262 31.43 163.308l-1.254 1.425c-7.646 8.75-21.958 3.017-21.846-8.45.533-50.85 28-92.512 82.292-101.891l1.404-.242.004-27.025a18.75 18.75 0 0 1 17.867-18.73zm2.254 17.158a2.083 2.083 0 0 0-3.454 1.571v34.333a8.333 8.333 0 0 1-7.48 8.292c-46.153 4.75-71.033 34.708-75.495 74.608l-.08.713 1.542-1.546c21.45-21.317 41.688-29.642 71.313-29.97l1.867-.013a8.333 8.333 0 0 1 8.333 8.333v34.337a2.083 2.083 0 0 0 3.458 1.567l66.592-58.27a10.408 10.408 0 0 0 0-15.68l-66.596-58.275z"/></svg>