<svg width="200" height="200" xmlns="http://www.w3.org/2000/svg"><defs><style/></defs><path d="M107.796 6.308l.904-.016a20.833 20.833 0 0 1 13.72 5.154l66.597 58.27a29.167 29.167 0 0 1 0 43.9l-66.596 58.276a20.833 20.833 0 0 1-34.554-15.68v-23.52l-.63.054c-22.441 1.992-37.558 10.804-56.316 31.929l-1.259 1.43c-8.929 10.224-25.62 3.537-25.495-9.842.541-51.25 28.062-93.492 82.333-103.626l1.363-.245.004-25.267a20.833 20.833 0 0 1 19.929-20.817zm67.5 79.088L108.7 27.125v34.333a10.417 10.417 0 0 1-9.35 10.363c-42.775 4.404-66.767 30.879-72.82 66.917l-.1.6 1.04-.98c20.476-18.983 40.522-26.575 68.947-26.887l1.866-.013a10.417 10.417 0 0 1 10.417 10.417v34.338l66.596-58.275a8.333 8.333 0 0 0 0-12.542z"/></svg>