<svg width="200" height="200" xmlns="http://www.w3.org/2000/svg"><defs><style/></defs><path d="M147.008 73.317l12.909-12.9h-8.35q-7.704 0-14.642 3.346-6.938 3.345-11.733 9.375l-24.463 30.75-16.354 20.562q-10.417 13.096-25.488 20.363-15.074 7.27-31.804 7.27a6.25 6.25 0 0 1 0-12.5q13.875 0 26.371-6.029 12.496-6.029 21.134-16.883l16.354-20.563 24.458-30.75q6.58-8.266 16.092-12.854 9.508-4.587 20.07-4.587h8.35l-12.904-12.904a6.25 6.25 0 1 1 8.842-8.834L176.475 46.8q3.05 3.05 3.05 7.367 0 4.312-3.054 7.362l-20.625 20.625a6.25 6.25 0 1 1-8.833-8.837zm-64.512-.125a6.25 6.25 0 0 1-9.783 7.779q-7.75-9.742-18.959-15.146-11.212-5.408-23.666-5.408h-3.005a6.25 6.25 0 1 1 0-12.5h3.009q15.304 0 29.091 6.646 13.784 6.65 23.313 18.625zm77.417 66.391h-8.35q-7.705 0-14.642-3.35-6.938-3.345-11.733-9.375l-6.234-7.833a6.25 6.25 0 0 0-9.783 7.78l6.233 7.833q6.575 8.266 16.084 12.854 9.516 4.591 20.075 4.591h8.35l-12.905 12.9a6.25 6.25 0 0 0 8.842 8.838l20.625-20.625q3.05-3.05 3.05-7.363 0-4.316-3.054-7.366l-20.625-20.625a6.25 6.25 0 0 0-8.833 8.837l12.9 12.904z" fill-rule="evenodd"/></svg>