<svg width="200" height="200" xmlns="http://www.w3.org/2000/svg"><defs><style/></defs><path d="M94.417 96.875c0 3.742 1.32 6.93 3.966 9.575l63.721 63.72a9.375 9.375 0 1 0 13.254-13.262l-60.033-60.033 60.038-60.037A9.375 9.375 0 1 0 162.1 23.583L98.383 87.3a13.046 13.046 0 0 0-3.966 9.575zm-70.834 0c0 3.742 1.321 6.93 3.967 9.575l63.72 63.72a9.375 9.375 0 1 0 13.26-13.257L44.487 96.874l60.041-60.038a9.375 9.375 0 1 0-13.262-13.254L27.55 87.3a13.046 13.046 0 0 0-3.967 9.575z" fill="#111925"/></svg>