<svg width="200" height="200" xmlns="http://www.w3.org/2000/svg"><defs><style/></defs><path d="M170.475 37.5c3.65 0 6.608 2.8 6.608 6.25S174.125 50 170.475 50H29.525c-3.65 0-6.608-2.8-6.608-6.25s2.958-6.25 6.608-6.25h140.95zm0 37.5c3.65 0 6.608 2.8 6.608 6.25s-2.958 6.25-6.608 6.25H29.525c-3.65 0-6.608-2.8-6.608-6.25S25.875 75 29.525 75h140.95zm0 37.5c3.65 0 6.608 2.8 6.608 6.25s-2.958 6.25-6.608 6.25H29.525c-3.65 0-6.608-2.8-6.608-6.25s2.958-6.25 6.608-6.25h140.95zm0 37.5c3.65 0 6.608 2.8 6.608 6.25s-2.958 6.25-6.608 6.25H29.525c-3.65 0-6.608-2.8-6.608-6.25s2.958-6.25 6.608-6.25h140.95z"/></svg>