<svg width="200" height="200" xmlns="http://www.w3.org/2000/svg"><defs><style/></defs><path d="M53.125 16.667h93.75a27.083 27.083 0 0 1 27.083 27.083v112.5a27.083 27.083 0 0 1-27.083 27.083h-93.75a27.083 27.083 0 0 1-27.083-27.083V43.75a27.083 27.083 0 0 1 27.083-27.083zM42.708 53.125v9.554c0 .654.309 1.263.846 1.667A87.392 87.392 0 0 0 72.608 78.7a31.25 31.25 0 0 1 56.617-.533 87.483 87.483 0 0 0 27.242-13.834 2.058 2.058 0 0 0 .825-1.65V43.75a10.417 10.417 0 0 0-10.417-10.417h-93.75A10.417 10.417 0 0 0 42.708 43.75v9.375zm114.584 30.704a103.776 103.776 0 0 1-25.146 10.846A31.25 31.25 0 0 1 70 95.258 103.792 103.792 0 0 1 42.708 83.83v72.421a10.417 10.417 0 0 0 10.417 10.417h93.75a10.417 10.417 0 0 0 10.417-10.417V83.83zm-56.25 22.421a14.583 14.583 0 1 0 0-29.167 14.583 14.583 0 0 0 0 29.167z"/></svg>