<svg width="200" height="200" xmlns="http://www.w3.org/2000/svg"><defs><style/></defs><path d="M53.125 14.583h93.75a29.167 29.167 0 0 1 29.167 29.167v112.5a29.167 29.167 0 0 1-29.167 29.167h-93.75a29.167 29.167 0 0 1-29.167-29.167V43.75a29.167 29.167 0 0 1 29.167-29.167zm-8.333 72.85v68.817a8.333 8.333 0 0 0 8.333 8.333h93.75a8.333 8.333 0 0 0 8.333-8.333V87.433a105.53 105.53 0 0 1-21.154 8.859 33.333 33.333 0 0 1-65.929.625 105.867 105.867 0 0 1-23.333-9.484zm56.25 16.734a12.5 12.5 0 1 0 0-25 12.5 12.5 0 0 0 0 25zM71.508 76.208a33.333 33.333 0 0 1 58.767-.558 85.18 85.18 0 0 0 23.146-11.68l1.787-1.307V43.75a8.333 8.333 0 0 0-8.333-8.333h-93.75a8.333 8.333 0 0 0-8.333 8.333v18.92a85.388 85.388 0 0 0 26.716 13.542z"/></svg>