<svg width="200" height="200" xmlns="http://www.w3.org/2000/svg"><defs><style/></defs><path d="M116.667 47.917a12.042 12.042 0 0 0-8.838 3.662 12.042 12.042 0 0 0-3.662 8.838V93.75h16.666c0-4.604 1.625-8.53 4.884-11.783a16.058 16.058 0 0 1 11.783-4.884h29.167c4.604 0 8.529 1.625 11.783 4.884a16.058 16.058 0 0 1 4.883 11.783v12.5c0 4.604-1.625 8.53-4.883 11.783a16.058 16.058 0 0 1-11.783 4.884H137.5a16.058 16.058 0 0 1-11.783-4.884 16.058 16.058 0 0 1-4.884-11.783h-16.666v33.333c0 3.45 1.22 6.396 3.662 8.838a12.042 12.042 0 0 0 8.838 3.662h4.166c0-4.604 1.625-8.529 4.884-11.783a16.058 16.058 0 0 1 11.783-4.883h29.167c4.604 0 8.529 1.625 11.783 4.883a16.058 16.058 0 0 1 4.883 11.783v12.5c0 4.604-1.625 8.53-4.883 11.784a16.058 16.058 0 0 1-11.783 4.883H137.5a16.058 16.058 0 0 1-11.783-4.883 16.058 16.058 0 0 1-4.884-11.784h-4.166c-6.904 0-12.796-2.441-17.68-7.32-4.879-4.888-7.32-10.776-7.32-17.68V106.25h-12.5c0 4.604-1.625 8.53-4.884 11.783a16.058 16.058 0 0 1-11.783 4.884H33.333a16.058 16.058 0 0 1-11.783-4.884 16.058 16.058 0 0 1-4.883-11.783v-12.5c0-4.604 1.625-8.53 4.883-11.783a16.058 16.058 0 0 1 11.783-4.884H62.5c4.604 0 8.53 1.625 11.783 4.884a16.058 16.058 0 0 1 4.884 11.783h12.5V60.417c0-6.905 2.441-12.796 7.32-17.68 4.888-4.879 10.776-7.32 17.68-7.32h4.166c0-4.605 1.625-8.53 4.884-11.784A16.058 16.058 0 0 1 137.5 18.75h29.167c4.604 0 8.529 1.625 11.783 4.883a16.058 16.058 0 0 1 4.883 11.784v12.5c0 4.604-1.625 8.529-4.883 11.783a16.058 16.058 0 0 1-11.783 4.883H137.5a16.058 16.058 0 0 1-11.783-4.883 16.058 16.058 0 0 1-4.884-11.783h-4.166zm16.666 110.416v6.25c0 1.15.409 2.134 1.221 2.946a4.013 4.013 0 0 0 2.946 1.221h29.167a4.013 4.013 0 0 0 2.946-1.22 4.013 4.013 0 0 0 1.22-2.947v-12.5a4.013 4.013 0 0 0-1.22-2.946 4.013 4.013 0 0 0-2.946-1.22H137.5a4.013 4.013 0 0 0-2.946 1.22 4.013 4.013 0 0 0-1.22 2.946v6.25zm0-110.416c0 1.15.409 2.133 1.221 2.946a4.017 4.017 0 0 0 2.946 1.22h29.167a4.017 4.017 0 0 0 2.946-1.22 4.013 4.013 0 0 0 1.22-2.946v-12.5a4.013 4.013 0 0 0-1.22-2.946 4.017 4.017 0 0 0-2.946-1.221H137.5a4.017 4.017 0 0 0-2.946 1.22 4.013 4.013 0 0 0-1.22 2.947v12.5zM29.167 106.25c0 1.15.408 2.133 1.22 2.946a4.013 4.013 0 0 0 2.946 1.22H62.5a4.013 4.013 0 0 0 2.946-1.22 4.013 4.013 0 0 0 1.22-2.946v-12.5a4.013 4.013 0 0 0-1.22-2.946 4.013 4.013 0 0 0-2.946-1.22H33.333a4.013 4.013 0 0 0-2.946 1.22 4.017 4.017 0 0 0-1.22 2.946v12.5zm104.166 0c0 1.15.409 2.133 1.221 2.946a4.013 4.013 0 0 0 2.946 1.22h29.167a4.013 4.013 0 0 0 2.946-1.22 4.013 4.013 0 0 0 1.22-2.946v-12.5a4.013 4.013 0 0 0-1.22-2.946 4.013 4.013 0 0 0-2.946-1.22H137.5a4.013 4.013 0 0 0-2.946 1.22 4.013 4.013 0 0 0-1.22 2.946v12.5z"/></svg>