<svg width="200" height="200" xmlns="http://www.w3.org/2000/svg"><defs><style/></defs><path d="M141.667 18.75a25 25 0 0 1 25 25v75h7.291c5.359 0 9.738 4.167 10.084 9.438l.02.666c0 3.5-1.812 6.75-4.787 8.588l-66.117 40.929a25 25 0 0 1-26.316 0l-66.117-40.93a10.1 10.1 0 0 1 5.317-18.691h7.291v-75a25 25 0 0 1 24.063-24.983l.937-.017h83.334zm0 12.5H58.333a12.5 12.5 0 0 0-12.5 12.5v77.083a10.417 10.417 0 0 1-10.416 10.417h-.95l58.954 36.492a12.5 12.5 0 0 0 12.391.441l.767-.441 58.95-36.492h-.946a10.417 10.417 0 0 1-10.395-9.733l-.021-.684V43.75a12.5 12.5 0 0 0-12.5-12.5zM99.992 79.467l18-22.913a6.252 6.252 0 1 1 9.833 7.725l-14.158 18.013h9.241a6.25 6.25 0 1 1 0 12.5h-16.666v10.416h16.666a6.25 6.25 0 1 1 0 12.5h-16.666v10.417a6.25 6.25 0 0 1-12.5 0v-10.417H77.075a6.25 6.25 0 1 1 0-12.5h16.667V94.792H77.075a6.25 6.25 0 1 1 0-12.5h9.238L72.158 64.279a6.252 6.252 0 0 1 9.834-7.725l18 22.917z"/></svg>