<svg width="200" height="200" xmlns="http://www.w3.org/2000/svg"><defs><style/></defs><path d="M166.667 118.75h7.291c5.359 0 9.738 4.167 10.084 9.438l.02.666c0 3.5-1.812 6.75-4.787 8.588l-66.117 40.929a25 25 0 0 1-26.316 0l-66.117-40.93a10.1 10.1 0 0 1 5.317-18.691h7.291v-75a25 25 0 0 1 24.063-24.983l.937-.017h83.334a25 25 0 0 1 25 25v75zm-84.68-62.196a6.25 6.25 0 1 0-9.829 7.725l14.155 18.013h-9.238a6.25 6.25 0 1 0 0 12.5h16.667v10.416H77.075a6.25 6.25 0 1 0 0 12.5h16.667v10.417a6.25 6.25 0 1 0 12.5 0v-10.417h16.666a6.25 6.25 0 0 0 0-12.5h-16.666V94.792h16.666a6.25 6.25 0 0 0 0-12.5h-9.241l14.154-18.013a6.25 6.25 0 1 0-9.83-7.725l-18 22.917-18-22.917z"/></svg>