<svg width="200" height="200" xmlns="http://www.w3.org/2000/svg"><defs><style/></defs><path d="M38.542 113.542a13.542 13.542 0 1 1 0-27.084 13.542 13.542 0 0 1 0 27.084zm0-55.209a13.542 13.542 0 1 1 0-27.083 13.542 13.542 0 0 1 0 27.083zm0 110.417a13.542 13.542 0 1 1 0-27.083 13.542 13.542 0 0 1 0 27.083zm120.833-55.208a13.542 13.542 0 1 1 0-27.084 13.542 13.542 0 0 1 0 27.084zm0-55.209a13.542 13.542 0 1 1 0-27.083 13.542 13.542 0 0 1 0 27.083zm0 110.417a13.542 13.542 0 1 1 0-27.083 13.542 13.542 0 0 1 0 27.083zm-60.417-55.208a13.542 13.542 0 1 1 0-27.084 13.542 13.542 0 0 1 0 27.084zm0-55.209a13.542 13.542 0 1 1 0-27.083 13.542 13.542 0 0 1 0 27.083zm0 110.417a13.542 13.542 0 1 1 0-27.083 13.542 13.542 0 0 1 0 27.083z"/></svg>