<svg width="200" height="200" xmlns="http://www.w3.org/2000/svg"><defs><style/></defs><path d="M173.358 45.775a6.25 6.25 0 0 1-.383 8.833l-25 22.917a6.25 6.25 0 1 1-8.446-9.217l13.154-12.058h-36.05c-.029 1.404-.075 2.483-.137 3.23-.217 2.583-.784 4.758-1.692 6.516a16.317 16.317 0 0 1-7.142 7.142c-1.758.908-3.929 1.474-6.516 1.691-1.367.113-3.834.171-7.396.171H47.917c-3.567 0-6.03-.058-7.396-.17-2.583-.217-4.758-.784-6.517-1.692a16.317 16.317 0 0 1-7.141-7.142c-.909-1.758-1.475-3.93-1.692-6.517-.113-1.366-.171-3.833-.171-7.396v-4.166c0-3.567.058-6.03.17-7.396.218-2.584.784-4.759 1.693-6.517a16.317 16.317 0 0 1 7.141-7.142c1.759-.908 3.93-1.475 6.517-1.691 1.367-.113 3.833-.171 7.396-.171H93.75c3.567 0 6.03.058 7.396.17 2.583.217 4.758.784 6.516 1.692 3.138 1.625 5.517 4.005 7.142 7.142.908 1.758 1.475 3.93 1.692 6.517.062.75.108 1.825.137 3.229h36.05l-13.158-12.058a6.252 6.252 0 0 1 8.45-9.217l25 22.917c.133.125.258.25.383.383zM37.5 52.083c0 4.846.154 7.567.458 8.163a4.122 4.122 0 0 0 1.796 1.791c.596.309 3.317.463 8.163.463H93.75c4.846 0 7.567-.154 8.162-.458a4.1 4.1 0 0 0 1.792-1.796c.309-.596.463-3.317.463-8.163v-4.166c0-4.846-.154-7.567-.459-8.163a4.1 4.1 0 0 0-1.795-1.792c-.596-.308-3.317-.462-8.163-.462H47.917c-4.846 0-7.567.154-8.163.458a4.1 4.1 0 0 0-1.792 1.796c-.308.596-.462 3.317-.462 8.163v4.166zm4.458 99.563c-.095-1.138-.166-2.75-.216-4.842a6.25 6.25 0 0 1-.075-.97V97.916a6.25 6.25 0 0 1 12.5 0v10.416H168.75a6.25 6.25 0 0 1 0 12.5H54.167v17.917c0 5.93.083 9.88.25 11.85.191 2.333.575 4.046 1.141 5.142 1.221 2.354 3.013 4.146 5.367 5.366 1.096.567 2.808.95 5.142 1.142 1.97.167 5.92.25 11.85.25h90.833a6.25 6.25 0 0 1 0 12.5H77.917c-6.275 0-10.575-.096-12.896-.292-3.992-.333-7.275-1.166-9.846-2.5a24.48 24.48 0 0 1-10.712-10.716c-1.334-2.571-2.167-5.854-2.505-9.846z"/></svg>