<svg width="200" height="200" xmlns="http://www.w3.org/2000/svg"><defs><style/></defs><path d="M53.196 41.742c-2.088.05-3.704.125-4.842.216-3.992.334-7.275 1.167-9.846 2.5a24.48 24.48 0 0 0-10.712 10.717c-1.333 2.57-2.167 5.854-2.504 9.846-.196 2.32-.292 6.616-.292 12.896v90.833a6.25 6.25 0 0 0 12.5 0V77.917c0-5.93.083-9.88.25-11.85.192-2.334.575-4.046 1.142-5.142a12.267 12.267 0 0 1 5.366-5.367c1.096-.566 2.809-.95 5.142-1.145 1.97-.167 5.92-.246 11.85-.246h17.917V168.75a6.25 6.25 0 0 0 12.5 0V54.167h10.416a6.25 6.25 0 0 0 0-12.5H54.167a6.25 6.25 0 0 0-.971.075zm92.583 131.616a6.25 6.25 0 0 0 8.83-.383l22.916-25a6.25 6.25 0 1 0-9.217-8.446l-12.058 13.154v-36.05c1.404-.029 2.483-.075 3.23-.137 2.583-.217 4.758-.784 6.516-1.692a16.317 16.317 0 0 0 7.142-7.142c.908-1.758 1.475-3.929 1.691-6.516.113-1.367.171-3.834.171-7.396V47.917c0-3.567-.058-6.03-.17-7.396-.217-2.583-.784-4.758-1.692-6.517a16.317 16.317 0 0 0-7.142-7.141c-1.758-.909-3.93-1.475-6.517-1.692-1.366-.113-3.833-.171-7.396-.171h-4.166c-3.563 0-6.03.058-7.396.17-2.583.218-4.758.784-6.517 1.693a16.317 16.317 0 0 0-7.141 7.141c-.909 1.759-1.475 3.93-1.692 6.517-.113 1.367-.171 3.833-.171 7.396V93.75c0 3.562.058 6.03.17 7.396.218 2.583.784 4.758 1.693 6.516 1.625 3.138 4.008 5.517 7.141 7.142 1.759.908 3.93 1.475 6.517 1.692.75.062 1.825.108 3.229.137v36.05l-12.058-13.158a6.252 6.252 0 1 0-9.217 8.45l22.917 25c.125.133.25.258.383.383zM152.083 37.5c4.846 0 7.567.154 8.163.458a4.122 4.122 0 0 1 1.791 1.796c.309.596.463 3.317.463 8.163V93.75c0 4.846-.154 7.567-.458 8.162a4.1 4.1 0 0 1-1.796 1.792c-.596.309-3.317.463-8.163.463h-4.166c-4.846 0-7.567-.154-8.163-.459a4.1 4.1 0 0 1-1.791-1.795c-.309-.596-.463-3.317-.463-8.163V47.917c0-4.846.154-7.567.458-8.163a4.1 4.1 0 0 1 1.796-1.791c.596-.309 3.317-.463 8.163-.463h4.166z"/></svg>