<svg width="200" height="200" xmlns="http://www.w3.org/2000/svg"><defs><style/></defs><path d="M38.425 157.992a8.205 8.205 0 0 0 3.583 3.583c1.192.617 5.384.925 12.575.925h3.334c7.191 0 11.383-.308 12.575-.925a8.205 8.205 0 0 0 3.583-3.583c.617-1.192.925-5.384.925-12.575V106.25H38.983l13.159 12.058a6.25 6.25 0 1 1-8.45 9.213l-25-22.917a6.25 6.25 0 0 1 0-9.208l25-22.917a6.25 6.25 0 1 1 8.45 9.209L38.983 93.75H75V54.583c0-7.191-.308-11.383-.925-12.575a8.183 8.183 0 0 0-3.583-3.583c-1.192-.617-5.384-.925-12.575-.925h-3.334c-7.191 0-11.383.308-12.575.925a8.183 8.183 0 0 0-3.583 3.583c-.617 1.192-.925 5.384-.925 12.575v1.667a6.25 6.25 0 1 1-12.5 0v-1.667c0-4.92.08-8.304.233-10.146.275-3.291.971-6.016 2.096-8.183a20.396 20.396 0 0 1 8.921-8.92c2.167-1.126 4.896-1.821 8.183-2.096 1.846-.159 5.234-.238 10.15-.238h3.334c4.92 0 8.304.08 10.145.233 3.292.275 6.017.971 8.184 2.096a20.396 20.396 0 0 1 8.92 8.921c1.126 2.167 1.822 4.896 2.097 8.183.158 1.842.233 5.225.233 10.146v90.833c0 4.921-.075 8.305-.233 10.146-.276 3.292-.971 6.017-2.096 8.184a20.396 20.396 0 0 1-8.917 8.925c-2.167 1.125-4.896 1.82-8.183 2.096-1.842.154-5.225.233-10.146.233h-3.333c-4.921 0-8.305-.08-10.146-.233-3.292-.275-6.017-.971-8.184-2.096a20.396 20.396 0 0 1-8.925-8.917c-1.125-2.167-1.82-4.896-2.095-8.183-.159-1.846-.238-5.234-.238-10.15v-1.667a6.25 6.25 0 0 1 12.5 0v1.667c0 7.191.308 11.383.925 12.575zM175 143.75v1.667c0 4.92-.08 8.304-.233 10.146-.275 3.291-.971 6.016-2.096 8.183a20.4 20.4 0 0 1-8.921 8.92c-2.167 1.126-4.896 1.821-8.183 2.096-1.842.155-5.225.234-10.146.234h-3.333c-4.921 0-8.305-.08-10.146-.234-3.292-.275-6.017-.97-8.184-2.095a20.4 20.4 0 0 1-8.925-8.917c-1.125-2.167-1.82-4.896-2.095-8.183-.163-1.846-.238-5.234-.238-10.15V54.583c0-4.92.075-8.304.233-10.146.275-3.291.971-6.016 2.096-8.183a20.396 20.396 0 0 1 8.921-8.92c2.167-1.126 4.896-1.822 8.183-2.097 1.846-.158 5.234-.237 10.15-.237h3.334c4.92 0 8.304.08 10.146.233 3.291.275 6.016.971 8.183 2.096a20.4 20.4 0 0 1 8.92 8.921c1.126 2.167 1.822 4.896 2.097 8.183.154 1.842.233 5.225.233 10.146v1.667a6.25 6.25 0 0 1-12.5 0v-1.667c0-7.192-.308-11.383-.925-12.575a8.183 8.183 0 0 0-3.583-3.583c-1.188-.613-5.38-.921-12.571-.921h-3.334c-7.191 0-11.383.308-12.575.925a8.183 8.183 0 0 0-3.583 3.583c-.617 1.192-.925 5.384-.925 12.575V93.75h36.017l-13.159-12.058a6.252 6.252 0 1 1 8.45-9.217l25 22.917a6.25 6.25 0 0 1 0 9.212l-25 22.917a6.25 6.25 0 0 1-8.45-9.209l13.159-12.062H125v39.167c0 7.191.308 11.383.925 12.575a8.205 8.205 0 0 0 3.583 3.583c1.192.617 5.384.925 12.575.925h3.334c7.191 0 11.383-.308 12.575-.925a8.226 8.226 0 0 0 3.583-3.583c.617-1.192.925-5.384.925-12.575v-1.667a6.25 6.25 0 0 1 12.5 0z"/></svg>