<svg width="200" height="200" xmlns="http://www.w3.org/2000/svg"><defs><style/></defs><path d="M187.5 100c0 48.325-39.175 87.5-87.5 87.5S12.5 148.325 12.5 100 51.675 12.5 100 12.5s87.5 39.175 87.5 87.5zM100 33.333c-36.82 0-66.667 29.846-66.667 66.667S63.18 166.667 100 166.667 166.667 136.82 166.667 100 136.82 33.333 100 33.333zM72.917 69.792a9.375 9.375 0 0 1 9.375 9.375V87.5a9.375 9.375 0 0 1-18.75 0v-8.333a9.375 9.375 0 0 1 9.375-9.375zm54.166 0a9.375 9.375 0 0 1 9.375 9.375V87.5a9.375 9.375 0 0 1-18.75 0v-8.333a9.375 9.375 0 0 1 9.375-9.375zm-50.541 44.791h46.925a7.225 7.225 0 0 1 7.058 8.809l-.25 1.041A31.262 31.262 0 0 1 100 147.917a31.283 31.283 0 0 1-30.55-24.659l-.112-.766-.034-.667c0-4 3.242-7.242 7.242-7.242z"/></svg>