<svg width="200" height="200" xmlns="http://www.w3.org/2000/svg"><defs><style/></defs><path d="M41.667 54.167a6.25 6.25 0 0 1 .075-.971c.05-2.088.125-3.704.216-4.842.334-3.991 1.167-7.275 2.5-9.846a24.48 24.48 0 0 1 10.717-10.712c2.57-1.333 5.854-2.167 9.846-2.504 2.32-.196 6.62-.292 12.896-.292h90.833a6.25 6.25 0 0 1 0 12.5H77.917c-5.93 0-9.88.083-11.85.25-2.334.192-4.046.575-5.142 1.142a12.267 12.267 0 0 0-5.367 5.366c-.566 1.096-.95 2.809-1.145 5.142-.167 1.97-.246 5.92-.246 11.85v17.917H168.75a6.25 6.25 0 0 1 0 12.5H54.167v10.416a6.25 6.25 0 0 1-12.5 0V54.167zm131.691 91.608a6.25 6.25 0 0 1-.383 8.833l-25 22.917a6.25 6.25 0 1 1-8.446-9.217l13.154-12.058h-36.05a55.25 55.25 0 0 1-.137 3.23c-.217 2.583-.784 4.758-1.692 6.516a16.317 16.317 0 0 1-7.142 7.142c-1.758.908-3.929 1.475-6.516 1.691-1.367.113-3.834.171-7.396.171H47.917c-3.567 0-6.03-.058-7.396-.17-2.583-.217-4.758-.784-6.517-1.692a16.317 16.317 0 0 1-7.141-7.142c-.909-1.758-1.475-3.93-1.692-6.517-.113-1.366-.171-3.833-.171-7.396v-4.166c0-3.567.058-6.03.17-7.396.218-2.583.784-4.758 1.693-6.517a16.317 16.317 0 0 1 7.141-7.141c1.759-.909 3.93-1.475 6.517-1.692 1.367-.113 3.833-.171 7.396-.171H93.75c3.567 0 6.03.058 7.396.17 2.583.218 4.758.784 6.516 1.693 3.138 1.625 5.517 4.004 7.142 7.141.908 1.759 1.475 3.93 1.692 6.517.062.75.108 1.825.137 3.229h36.05l-13.158-12.058a6.252 6.252 0 1 1 8.45-9.217l25 22.917c.133.125.258.25.383.383zM37.5 152.083c0 4.846.154 7.567.458 8.163a4.122 4.122 0 0 0 1.796 1.791c.596.309 3.317.463 8.163.463H93.75c4.846 0 7.567-.154 8.163-.458a4.1 4.1 0 0 0 1.791-1.796c.309-.596.463-3.317.463-8.163v-4.166c0-4.846-.154-7.567-.459-8.163a4.1 4.1 0 0 0-1.795-1.791c-.596-.309-3.317-.463-8.163-.463H47.917c-4.846 0-7.567.154-8.163.458a4.1 4.1 0 0 0-1.791 1.796c-.309.596-.463 3.317-.463 8.163v4.166z"/></svg>