<svg width="200" height="200" xmlns="http://www.w3.org/2000/svg"><defs><style/></defs><path d="M141.667 106.25a6.25 6.25 0 0 1 6.25-6.25c2.15 0 3.6.033 4.35.104a24.25 24.25 0 0 1 15.412 7.217 24.25 24.25 0 0 1 7.221 15.412c.067.75.1 2.2.1 4.35v50a6.25 6.25 0 0 1-12.5 0v-50c0-1.77-.017-2.85-.05-3.229a12.108 12.108 0 0 0-3.612-7.692 12.108 12.108 0 0 0-7.692-3.612 55.292 55.292 0 0 0-3.23-.05 6.25 6.25 0 0 1-6.25-6.25zm-18.5-78.913l-14.33 14.33 14.334 14.329a6.252 6.252 0 1 1-8.842 8.841L100 50.5 85.667 64.833a6.25 6.25 0 0 1-8.834-8.841l14.325-14.325-14.333-14.334a6.25 6.25 0 0 1 8.842-8.833L100 32.825l14.33-14.333a6.25 6.25 0 1 1 8.837 8.841zM90.52 83.504c1.367-.112 3.833-.17 7.396-.17h4.166c3.563 0 6.03.058 7.396.17 2.584.217 4.759.783 6.517 1.692 3.137 1.625 5.517 4.008 7.142 7.141.908 1.759 1.475 3.93 1.691 6.517.113 1.367.171 3.833.171 7.396v54.167c0 3.566-.058 6.029-.17 7.395-.217 2.584-.784 4.759-1.692 6.517a16.317 16.317 0 0 1-7.142 7.142c-1.758.908-3.93 1.475-6.517 1.691-1.366.113-3.833.171-7.396.171h-4.166c-3.563 0-6.03-.058-7.396-.17-2.583-.217-4.758-.784-6.517-1.692a16.317 16.317 0 0 1-7.141-7.142c-.909-1.758-1.475-3.929-1.692-6.517-.113-1.366-.171-3.833-.171-7.395V106.25c0-3.567.058-6.03.17-7.396.218-2.583.784-4.758 1.693-6.517a16.317 16.317 0 0 1 7.141-7.141c1.759-.909 3.93-1.475 6.517-1.692zm7.396 12.33c-4.846 0-7.567.153-8.163.458a4.1 4.1 0 0 0-1.791 1.795c-.309.596-.463 3.317-.463 8.163v54.167c0 4.845.154 7.566.458 8.162a4.124 4.124 0 0 0 1.796 1.792c.596.308 3.317.462 8.163.462h4.166c4.846 0 7.567-.154 8.163-.458a4.1 4.1 0 0 0 1.791-1.796c.309-.596.463-3.317.463-8.162V106.25c0-4.846-.154-7.567-.458-8.163a4.1 4.1 0 0 0-1.796-1.791c-.596-.309-3.317-.463-8.163-.463h-4.166zM58.333 106.25a6.25 6.25 0 0 1-6.25 6.25c-1.77 0-2.85.017-3.229.05a12.108 12.108 0 0 0-7.692 3.612 12.108 12.108 0 0 0-3.612 7.692c-.033.38-.05 1.458-.05 3.23v50a6.25 6.25 0 0 1-12.5 0v-50c0-2.15.033-3.6.104-4.35a24.246 24.246 0 0 1 7.217-15.413 24.246 24.246 0 0 1 15.412-7.217c.75-.07 2.2-.104 4.35-.104a6.25 6.25 0 0 1 6.25 6.25z"/></svg>