<svg width="200" height="200" xmlns="http://www.w3.org/2000/svg"><defs><style/></defs><path d="M30.238 30.238c4.887-4.88 10.775-7.321 17.679-7.321h104.166c6.904 0 12.796 2.441 17.68 7.32 4.879 4.888 7.32 10.776 7.32 17.68v104.166c0 6.904-2.441 12.796-7.32 17.68-4.888 4.879-10.776 7.32-17.68 7.32H47.917c-6.905 0-12.796-2.441-17.68-7.32-4.879-4.888-7.32-10.776-7.32-17.68V47.917c0-6.905 2.441-12.796 7.32-17.68zm76.012 5.179V93.75h58.333V47.917a12.042 12.042 0 0 0-3.662-8.838 12.042 12.042 0 0 0-8.838-3.662H106.25zm-58.333 0a12.042 12.042 0 0 0-8.838 3.662 12.042 12.042 0 0 0-3.662 8.838V93.75H93.75V35.417H47.917zm-12.5 70.833v45.833c0 3.45 1.22 6.396 3.662 8.838a12.042 12.042 0 0 0 8.838 3.662H93.75V106.25H35.417zm70.833 58.333h45.833a12.042 12.042 0 0 0 8.838-3.662 12.042 12.042 0 0 0 3.662-8.838V106.25H106.25v58.333z"/></svg>