<svg width="200" height="200" xmlns="http://www.w3.org/2000/svg"><defs><style/></defs><path d="M106.25 129.167h76.042v15.625c0 6.904-2.442 12.796-7.321 17.679-4.883 4.879-10.775 7.32-17.68 7.32H106.25v-40.624zm0-45.834h76.042v33.334H106.25V83.333zm-12.5 0v33.334H17.708V83.333H93.75zm12.5-53.125h51.042c6.904 0 12.796 2.442 17.679 7.321 4.879 4.884 7.32 10.775 7.32 17.68v15.624H106.25V30.208zm-12.5 0v40.625H17.708V55.208c0-6.904 2.442-12.795 7.321-17.679 4.888-4.879 10.775-7.32 17.68-7.32H93.75zm0 98.959v40.625H42.708c-6.904 0-12.795-2.442-17.679-7.321-4.879-4.888-7.32-10.775-7.32-17.68v-15.624H93.75z"/></svg>