<svg width="200" height="200" xmlns="http://www.w3.org/2000/svg"><defs><style/></defs><path d="M31.25 175a6.25 6.25 0 0 1-6.25-6.25V31.25a6.25 6.25 0 0 1 12.5 0v137.5a6.25 6.25 0 0 1-6.25 6.25zm31.25-12.917V37.917c0-3.363.388-5.792 1.167-7.292a10.157 10.157 0 0 1 4.458-4.458c1.5-.78 3.93-1.167 7.292-1.167h63.333c6.28 0 10.575.096 12.896.292 3.992.333 7.275 1.166 9.846 2.5a24.48 24.48 0 0 1 10.712 10.716c1.333 2.571 2.167 5.855 2.504 9.846.196 2.321.292 6.617.292 12.896v77.5c0 6.28-.096 10.575-.292 12.896-.333 3.992-1.166 7.275-2.5 9.846a24.48 24.48 0 0 1-10.716 10.712c-2.571 1.333-5.854 2.167-9.846 2.504-2.321.196-6.621.292-12.896.292H75.417c-3.363 0-5.792-.388-7.292-1.167a10.157 10.157 0 0 1-4.458-4.458c-.78-1.5-1.167-3.93-1.167-7.292zm50-32.916H75V162.5h37.5v-33.333zM125 162.5h13.75c5.93 0 9.88-.083 11.85-.25 2.333-.192 4.046-.575 5.142-1.142a12.267 12.267 0 0 0 5.366-5.366c.567-1.096.95-2.809 1.146-5.142.167-1.97.246-5.92.246-11.85v-9.583H125V162.5zm37.5-45.833V83.333H125v33.334h37.5zm0-45.834V61.25c0-5.93-.083-9.88-.25-11.85-.192-2.333-.575-4.046-1.142-5.142a12.262 12.262 0 0 0-5.366-5.366c-1.096-.567-2.809-.95-5.142-1.142-1.97-.167-5.92-.25-11.85-.25H125v33.333h37.5zm-50-33.333H75v33.333h37.5V37.5zM75 83.333v33.334h37.5V83.333H75z"/></svg>