<svg width="200" height="200" xmlns="http://www.w3.org/2000/svg"><defs><style/></defs><path d="M16.667 100c0-46.025 37.308-83.333 83.333-83.333S183.333 53.975 183.333 100 146.025 183.333 100 183.333 16.667 146.025 16.667 100zM100 170.833c39.12 0 70.833-31.712 70.833-70.833S139.121 29.167 100 29.167 29.167 60.879 29.167 100 60.879 170.833 100 170.833zm-21.875-93.75a7.292 7.292 0 1 1-14.583 0V66.667a7.292 7.292 0 1 1 14.583 0v10.416zm58.333 0a7.292 7.292 0 1 1-14.583 0V66.667a7.292 7.292 0 1 1 14.583 0v10.416zM63.542 97.917h72.916c5.396 0 9.559 2.125 11.684 6.12 1.475 2.771 1.646 5.659 1.141 8.596a50.013 50.013 0 0 1-98.583-.066c-.5-2.967-.363-5.759 1.1-8.534 2.113-4.008 6.292-6.116 11.742-6.116zm72.916 12.5H63.542l-.525.012.216 1.167A37.517 37.517 0 0 0 98.88 141.65l1.121.017a37.512 37.512 0 0 0 36.962-31.138l.013-.096-.517-.016z"/></svg>