<svg width="200" height="200" xmlns="http://www.w3.org/2000/svg"><defs><style/></defs><path d="M185.417 100c0 47.175-38.242 85.417-85.417 85.417S14.583 147.175 14.583 100 52.825 14.583 100 14.583 185.417 52.825 185.417 100zM100 31.25c-37.97 0-68.75 30.78-68.75 68.75s30.78 68.75 68.75 68.75 68.75-30.78 68.75-68.75S137.97 31.25 100 31.25zM73.958 69.792a8.333 8.333 0 0 1 8.334 8.333V87.5a8.333 8.333 0 1 1-16.667 0v-9.375a8.333 8.333 0 0 1 8.333-8.333zm52.084 0a8.333 8.333 0 0 1 8.333 8.333V87.5a8.333 8.333 0 1 1-16.667 0v-9.375a8.333 8.333 0 0 1 8.334-8.333zm-49.5 45.833h46.925a6.192 6.192 0 0 1 6.041 7.53l-.241 1.016a30.22 30.22 0 0 1-58.792-1.08l-.1-.658-.03-.608c0-3.425 2.776-6.2 6.2-6.2z"/></svg>