<svg width="200" height="200" xmlns="http://www.w3.org/2000/svg"><defs><style/></defs><path d="M25.03 36.487c4.887-4.879 10.774-7.32 17.678-7.32h114.584c6.904 0 12.796 2.441 17.679 7.32 4.879 4.888 7.32 10.775 7.32 17.68v91.666c0 6.905-2.441 12.796-7.32 17.68-4.888 4.879-10.775 7.32-17.68 7.32H42.709c-6.904 0-12.796-2.441-17.679-7.32-4.879-4.888-7.32-10.776-7.32-17.68V54.167c0-6.904 2.441-12.796 7.32-17.68zm67.678 121.846v-31.25h-62.5v18.75c0 3.45 1.221 6.396 3.663 8.838a12.042 12.042 0 0 0 8.837 3.662h50zm12.5 0h52.084a12.042 12.042 0 0 0 8.837-3.662 12.042 12.042 0 0 0 3.663-8.838v-18.75h-64.584v31.25zm64.584-43.75V85.417h-64.584v29.166h64.584zm0-41.666v-18.75a12.042 12.042 0 0 0-3.663-8.838 12.042 12.042 0 0 0-8.837-3.662h-52.084v31.25h64.584zm-77.084-31.25h-50a12.042 12.042 0 0 0-8.837 3.662 12.042 12.042 0 0 0-3.663 8.838v18.75h62.5v-31.25zm-62.5 43.75v29.166h62.5V85.417h-62.5z"/></svg>