<svg width="200" height="200" xmlns="http://www.w3.org/2000/svg"><defs><style/></defs><path d="M83.475 37.5h33.05l15.217-21.483a8.333 8.333 0 0 1 13.6 9.633L136.95 37.5h17.217a27.083 27.083 0 0 1 27.083 27.083v87.5a27.083 27.083 0 0 1-27.083 27.084H45.833a27.083 27.083 0 0 1-27.083-27.084v-87.5A27.083 27.083 0 0 1 45.833 37.5h17.221l-8.396-11.85a8.333 8.333 0 0 1 13.6-9.633L83.475 37.5zM35.417 64.583v87.5A10.417 10.417 0 0 0 45.833 162.5h108.334a10.417 10.417 0 0 0 10.416-10.417v-87.5a10.417 10.417 0 0 0-10.416-10.416H45.833a10.417 10.417 0 0 0-10.416 10.416zm38.645 16.325a18.75 18.75 0 0 1 25.25-5.508l27.846 16.908a18.75 18.75 0 0 1 0 32.054l-27.846 16.905a18.75 18.75 0 0 1-28.479-16.025V91.429a18.75 18.75 0 0 1 2.725-9.733l.5-.788zm13.742 9.438a2.083 2.083 0 0 0-.304 1.083v33.808a2.083 2.083 0 0 0 3.167 1.784l27.841-16.909a2.083 2.083 0 0 0 0-3.558L90.663 89.646a2.083 2.083 0 0 0-2.859.7z"/></svg>