<svg width="200" height="200" xmlns="http://www.w3.org/2000/svg"><defs><style/></defs><path d="M55.437 12.333a10.417 10.417 0 0 1 14.521 2.48l14.596 20.604h30.892l14.596-20.605a10.417 10.417 0 1 1 17 12.042l-6.067 8.563h13.192a29.167 29.167 0 0 1 29.166 29.166v87.5a29.167 29.167 0 0 1-29.166 29.167H45.833a29.167 29.167 0 0 1-29.166-29.167v-87.5a29.167 29.167 0 0 1 29.166-29.166h13.192l-6.067-8.563a10.417 10.417 0 0 1 2.48-14.52zM79.058 56.25H45.833a8.333 8.333 0 0 0-8.333 8.333v87.5a8.333 8.333 0 0 0 8.333 8.334h108.334a8.333 8.333 0 0 0 8.333-8.334v-87.5a8.333 8.333 0 0 0-8.333-8.333H79.058zm-6.77 23.563a20.833 20.833 0 0 1 28.108-6.192l27.846 16.904a20.833 20.833 0 0 1 0 35.617l-27.846 16.904a20.833 20.833 0 0 1-31.646-17.808V91.428a20.833 20.833 0 0 1 3.025-10.812l.513-.805zm17.295 45.429l27.846-16.909L89.583 91.43v33.813z"/></svg>