<svg width="200" height="200" xmlns="http://www.w3.org/2000/svg"><defs><style/></defs><path d="M17.512 132.97L79.397 29.83a25 25 0 0 1 42.875 0l61.883 103.14a25 25 0 0 1-21.437 37.863H38.95a25 25 0 0 1-21.438-37.862zm89.78-61.112c0-4.029-3.263-7.275-7.292-7.275-4.025 0-7.292 3.225-7.292 7.25v1.084q0 14.554.792 35.429a6.492 6.492 0 0 0 6.5 6.237c3.492 0 6.367-2.741 6.5-6.233q.792-20.867.792-35.404v-1.088zM100 141.667A8.333 8.333 0 1 0 100 125a8.333 8.333 0 0 0 0 16.667z" fill-rule="evenodd"/></svg>