<svg width="200" height="200" xmlns="http://www.w3.org/2000/svg"><defs><style/></defs><path d="M27.083 154.167V45.833c0-6.904 2.442-12.795 7.321-17.679 4.888-4.879 10.775-7.32 17.68-7.32h95.833c6.904 0 12.795 2.441 17.679 7.32 4.879 4.888 7.32 10.775 7.32 17.68v108.333c0 6.904-2.441 12.796-7.32 17.679-4.888 4.879-10.775 7.32-17.68 7.32H52.084c-6.904 0-12.796-2.441-17.679-7.32-4.879-4.888-7.32-10.775-7.32-17.68zm31.25-100a6.25 6.25 0 0 0 6.25 6.25h70.834a6.25 6.25 0 0 0 0-12.5H64.583a6.25 6.25 0 0 0-6.25 6.25zM64.583 75a8.333 8.333 0 1 0 0 16.667 8.333 8.333 0 0 0 0-16.667zm37.5 0a8.333 8.333 0 1 0 0 16.667 8.333 8.333 0 0 0 0-16.667zm33.334 0a8.333 8.333 0 1 0 0 16.667 8.333 8.333 0 0 0 0-16.667zm-70.834 29.167a8.333 8.333 0 1 0 0 16.666 8.333 8.333 0 0 0 0-16.666zm37.5 0a8.333 8.333 0 1 0 0 16.666 8.333 8.333 0 0 0 0-16.666zm33.334 0a8.333 8.333 0 1 0 0 16.666 8.333 8.333 0 0 0 0-16.666zm0 29.166a8.333 8.333 0 1 0 0 16.667 8.333 8.333 0 0 0 0-16.667zm-71.875 18.75h37.5a7.292 7.292 0 1 0 0-14.583h-37.5a7.292 7.292 0 1 0 0 14.583z"/></svg>