<svg width="200" height="200" xmlns="http://www.w3.org/2000/svg"><defs><style/></defs><path d="M34.404 30.238c4.888-4.88 10.775-7.321 17.68-7.321h95.833c6.904 0 12.795 2.441 17.679 7.32 4.879 4.888 7.32 10.776 7.32 17.68V156.25c0 6.904-2.441 12.796-7.32 17.68-4.888 4.878-10.775 7.32-17.68 7.32H52.084c-6.904 0-12.796-2.442-17.679-7.32-4.879-4.888-7.32-10.776-7.32-17.68V47.917c0-6.905 2.441-12.796 7.32-17.68zm17.68 138.512h95.833a12.042 12.042 0 0 0 8.837-3.662 12.042 12.042 0 0 0 3.663-8.838V47.917a12.042 12.042 0 0 0-3.663-8.838 12.042 12.042 0 0 0-8.837-3.662H52.083a12.042 12.042 0 0 0-8.837 3.662 12.042 12.042 0 0 0-3.663 8.838V156.25c0 3.45 1.221 6.396 3.663 8.838a12.042 12.042 0 0 0 8.837 3.662zM62.5 50h75a6.25 6.25 0 0 1 0 12.5h-75a6.25 6.25 0 1 1 0-12.5zm10.417 37.5a8.333 8.333 0 1 1-16.667 0 8.333 8.333 0 0 1 16.667 0zm35.416 0a8.333 8.333 0 1 1-16.666 0 8.333 8.333 0 0 1 16.666 0zm35.417 0a8.333 8.333 0 1 1-16.667 0 8.333 8.333 0 0 1 16.667 0zm-70.833 29.167a8.333 8.333 0 1 1-16.667 0 8.333 8.333 0 0 1 16.667 0zm35.416 0a8.333 8.333 0 1 1-16.666 0 8.333 8.333 0 0 1 16.666 0zm35.417 0a8.333 8.333 0 1 1-16.667 0 8.333 8.333 0 0 1 16.667 0zm0 29.166a8.333 8.333 0 1 1-16.667 0 8.333 8.333 0 0 1 16.667 0zm-87.5 0a7.295 7.295 0 0 1 7.292-7.291h37.5a7.292 7.292 0 1 1 0 14.583h-37.5a7.292 7.292 0 0 1-7.292-7.292z"/></svg>