<svg width="200" height="200" xmlns="http://www.w3.org/2000/svg"><defs><style/></defs><path d="M146.875 18.75h-93.75a25 25 0 0 0-25 25v112.5a25 25 0 0 0 25 25h27.083a6.25 6.25 0 0 0 0-12.5H53.125a12.5 12.5 0 0 1-12.5-12.5V43.75a12.5 12.5 0 0 1 12.5-12.5h93.75a12.5 12.5 0 0 1 12.5 12.5V75a6.25 6.25 0 0 0 12.5 0V43.75a25 25 0 0 0-25-25zM131.25 70.833a6.25 6.25 0 0 1-6.25 6.25H75a6.25 6.25 0 0 1 0-12.5h50a6.25 6.25 0 0 1 6.25 6.25zm25.967 29.775L109.05 148.78a16.667 16.667 0 0 0-4.883 11.788v12.35a10.417 10.417 0 0 0 10.416 10.416h12.354a16.667 16.667 0 0 0 11.784-4.883l48.166-48.167a10.417 10.417 0 0 0 .863-13.758l-.596-.692-15.208-15.225a10.417 10.417 0 0 0-14.73 0zm-88.467 7.725a6.25 6.25 0 0 0 6.25 6.25h33.333a6.25 6.25 0 0 0 0-12.5H75a6.25 6.25 0 0 0-6.25 6.25zm95.833 2.588l11.992 11.992-46.692 46.7-.416.362a4.167 4.167 0 0 1-2.53.858h-10.275l.005-10.27a4.167 4.167 0 0 1 1.22-2.946l46.696-46.7z"/></svg>