<svg width="200" height="200" xmlns="http://www.w3.org/2000/svg"><defs><style/></defs><path d="M172.083 54.167V156.25a25 25 0 0 1-25 25h-93.75a25 25 0 0 1-25-25V54.167a25 25 0 0 1 25-25h8.354a16.667 16.667 0 0 1 16.646-15.834h43.75a16.667 16.667 0 0 1 16.646 15.834h8.354a25 25 0 0 1 25 25zM74.167 30v10.417a4.167 4.167 0 0 0 4.166 4.166h43.75a4.167 4.167 0 0 0 4.167-4.166V30a4.167 4.167 0 0 0-4.167-4.167h-43.75A4.167 4.167 0 0 0 74.167 30zM82 73.22a6.252 6.252 0 0 0-9.833 7.726L86.32 98.958h-9.238a6.25 6.25 0 1 0 0 12.5H93.75v10.417H77.083a6.25 6.25 0 1 0 0 12.5H93.75v10.417a6.25 6.25 0 1 0 12.5 0v-10.417h16.667a6.25 6.25 0 1 0 0-12.5H106.25v-10.417h16.667a6.25 6.25 0 1 0 0-12.5h-9.238l14.154-18.012A6.252 6.252 0 1 0 118 73.22l-18 22.916-18-22.916z"/></svg>