<svg width="200" height="200" xmlns="http://www.w3.org/2000/svg"><defs><style/></defs><path d="M16.517 22.917c11.45 0 21.25 7.737 24.141 18.491l.063.259 116.154.008a25 25 0 0 1 24.983 24.067l.017.937c0 1.433-.125 2.867-.37 4.28l-10.147 58.324A25 25 0 0 1 146.733 150H62.65a25 25 0 0 1-24.854-22.292l-8.85-81.141a12.5 12.5 0 0 0-12.43-11.15H12.5a6.25 6.25 0 0 1 0-12.5h4.017zm25.829 31.245l7.875 72.192A12.5 12.5 0 0 0 62.65 137.5h84.083a12.5 12.5 0 0 0 12.313-10.358l10.141-58.325a12.5 12.5 0 0 0-12.312-14.642l-114.53-.008zm10.779 129.171a11.458 11.458 0 1 0 0-22.916 11.458 11.458 0 0 0 0 22.916zm102.083 0a11.458 11.458 0 1 0 0-22.916 11.458 11.458 0 0 0 0 22.916z" fill-rule="evenodd"/></svg>