<svg width="200" height="200" xmlns="http://www.w3.org/2000/svg"><defs><style/></defs><path d="M105.442 10.042c13.854 2.595 23.616 16.95 24.75 37.416.283 4.992.033 10.125-.734 15.384l-.283 1.737 34.188.004a27.083 27.083 0 0 1 27.066 26.113l.017.97c0 2.259-.283 4.513-.842 6.7l-14.229 55.713a33.333 33.333 0 0 1-32.296 25.088H45.833a27.083 27.083 0 0 1-27.083-27.084v-56.25A27.083 27.083 0 0 1 45.833 68.75h12.5c9.417 0 20.834-12.904 20.834-33.333l.016-1.017c.471-16.154 12.146-27.008 26.259-24.363zm-9.609 25.375l-.012 1.429C95.34 59.95 83.317 77.554 68.75 83.363V162.5h74.333a16.667 16.667 0 0 0 16.146-12.542l14.225-55.716a10.417 10.417 0 0 0-10.092-12.992h-39.291a12.5 12.5 0 0 1-12.146-15.258c1.404-6.196 1.937-12.063 1.63-17.613-.75-13.483-5.83-20.958-11.184-21.958-3.554-.671-6.538 2.187-6.538 8.996zm-43.75 50h-6.25a10.417 10.417 0 0 0-10.416 10.416v56.25A10.417 10.417 0 0 0 45.833 162.5h6.25V85.417z"/></svg>