<svg width="200" height="200" xmlns="http://www.w3.org/2000/svg"><defs><style/></defs><path d="M81.267 34.438c.441-14.93 11.02-24.746 23.791-22.35 12.792 2.395 21.971 15.891 23.059 35.483a75.888 75.888 0 0 1-1.075 17.183l-.359 1.908 36.68.005a25 25 0 0 1 24.983 24.062l.016.938c0 2.083-.262 4.166-.779 6.183l-14.225 55.712a31.25 31.25 0 0 1-30.275 23.521h-97.25a25 25 0 0 1-25-25v-56.25a25 25 0 0 1 25-25h12.5c10.625 0 22.917-13.891 22.917-35.416l.017-.98zm12.483.979l-.013 1.4c-.479 23-12.729 40.191-27.07 45.095v82.671h76.416a18.75 18.75 0 0 0 18.167-14.112l14.22-55.709a12.504 12.504 0 0 0-12.103-15.595h-39.284a10.417 10.417 0 0 1-10.116-12.717c1.437-6.375 1.991-12.438 1.67-18.188-.795-14.354-6.458-22.687-12.875-23.891-4.916-.917-9.008 3-9.008 11.046zM54.167 83.333h-8.334a12.5 12.5 0 0 0-12.5 12.5v56.25a12.5 12.5 0 0 0 12.5 12.5h8.334v-81.25z"/></svg>