<svg width="200" height="200" xmlns="http://www.w3.org/2000/svg"><defs><style/></defs><path d="M96.046 5.458a76.763 76.763 0 0 0-40.838 10.3 76.896 76.896 0 0 0-22.225 19.305 10.417 10.417 0 0 0 16.421 12.816A56.058 56.058 0 0 1 65.625 33.8a55.933 55.933 0 0 1 29.783-7.52 10.417 10.417 0 1 0 .638-20.822zM69.029 43.862c-29.946 17.292-42.096 47.921-27.32 73.513 7.174 12.43 16.237 18.233 30.741 22.546l6.417 1.833c14.629 4.167 20.875 8.53 26.583 22.109l.533 1.3c9.459 23.57 34.084 32.541 54.638 20.675 32.296-18.646 29.937-64.809 1.767-113.605-21.05-36.462-55.396-50.291-93.359-28.37zm10.417 18.042c26.9-15.529 49.12-6.583 64.9 20.75 23.167 40.125 24.904 74.146 5.858 85.142-9.429 5.446-20.092 1.558-24.883-10.392-8.404-20.937-19.48-29.383-39.304-35.27l-5.663-1.609-2.029-.592c-9.808-2.916-14.504-5.925-18.575-12.975-8.417-14.579-1.083-33.054 19.696-45.05zM22.054 85.425a11.458 11.458 0 1 0-11.458-19.846 11.458 11.458 0 0 0 11.458 19.846z" fill-rule="evenodd"/></svg>