<svg width="200" height="200" xmlns="http://www.w3.org/2000/svg"><defs><style/></defs><path d="M95.983 7.542A74.68 74.68 0 0 0 56.25 17.558a74.808 74.808 0 0 0-21.625 18.78 8.333 8.333 0 1 0 13.137 10.254A58.133 58.133 0 0 1 64.584 32a58.013 58.013 0 0 1 30.888-7.796 8.335 8.335 0 0 0 .512-16.662zM70.071 45.667c-29.025 16.758-40.696 46.179-26.558 70.666 6.866 11.892 15.491 17.417 29.533 21.592l6.387 1.82c15.196 4.33 21.95 9.063 27.942 23.322l.542 1.32c8.991 22.409 32.225 30.871 51.666 19.646 30.971-17.879 28.675-62.829 1-110.758-20.525-35.55-53.654-48.887-90.512-27.608zm8.333 14.437c28.009-16.17 51.438-6.742 67.75 21.504 23.667 40.996 25.467 76.23 5.092 87.992-10.542 6.083-22.6 1.692-27.859-11.417-8.129-20.258-18.691-28.325-37.95-34.046l-5.65-1.608-2.041-.592c-10.284-3.062-15.417-6.35-19.8-13.937-9.054-15.68-1.238-35.375 20.458-47.896zm-56.35 25.313A11.458 11.458 0 1 0 10.596 65.57a11.458 11.458 0 0 0 11.458 19.846z" fill-rule="evenodd"/></svg>