<svg width="200" height="200" xmlns="http://www.w3.org/2000/svg"><defs><style/></defs><path d="M95.917 9.625a72.596 72.596 0 0 0-38.625 9.742 72.725 72.725 0 0 0-21.025 18.258 6.25 6.25 0 1 0 9.854 7.692 60.23 60.23 0 0 1 17.416-15.125 60.096 60.096 0 0 1 32-8.075 6.25 6.25 0 0 0 .38-12.496zM22.054 85.417a11.458 11.458 0 1 0-11.458-19.842 11.458 11.458 0 0 0 11.458 19.846zm49.058-37.942c-28.108 16.225-39.3 44.43-25.795 67.817 6.929 12.004 15.116 16.887 30.475 21.262l2.108.596c17.975 5.042 24.917 9.596 31.425 25.175l.525 1.287c8.525 21.246 30.363 29.2 48.688 18.621 29.65-17.12 27.416-60.854.241-107.916-20-34.638-51.916-47.484-87.666-26.842zm6.25 10.825c29.113-16.808 53.759-6.892 70.592 22.27 24.167 41.86 26.033 78.31 4.333 90.834-11.4 6.583-24.525 2.033-30.45-11.529l-.383-.917c-8.204-20.441-17.896-27.4-38.7-33.425L79.2 124.53c-12.517-3.566-18.1-6.896-23.058-15.487-9.688-16.78-1.392-37.688 21.22-50.742z"/></svg>