<svg width="200" height="200" xmlns="http://www.w3.org/2000/svg"><defs><style/></defs><path d="M99.6 187.183c-13.854-2.595-23.617-16.954-24.754-37.416a76.833 76.833 0 0 1 .737-15.384l.284-1.737-34.188-.004a27.083 27.083 0 0 1-27.067-26.113l-.016-.97a27.083 27.083 0 0 1 .841-6.7l14.23-55.717a33.333 33.333 0 0 1 32.3-25.084h97.241a27.083 27.083 0 0 1 27.084 27.084v56.25a27.083 27.083 0 0 1-27.084 27.083h-12.5c-9.416 0-20.833 12.904-20.833 33.333l-.017 1.017c-.47 16.154-12.146 27.004-26.258 24.358zm9.608-25.375l.017-1.433c.475-23.104 12.5-40.708 27.067-46.512V34.725H61.958a16.667 16.667 0 0 0-16.146 12.542l-14.229 55.712a10.417 10.417 0 0 0 10.092 12.996h39.292a12.5 12.5 0 0 1 12.145 15.258c-1.404 6.192-1.937 12.059-1.629 17.613.75 13.483 5.83 20.954 11.184 21.958 3.554.667 6.537-2.191 6.537-9zm43.75-50h6.25a10.417 10.417 0 0 0 10.417-10.416v-56.25a10.417 10.417 0 0 0-10.417-10.417h-6.25v77.083z"/></svg>