<svg width="200" height="200" xmlns="http://www.w3.org/2000/svg"><defs><style/></defs><path d="M99.958 185.108c-12.791-2.396-21.97-15.891-23.062-35.483-.354-6.417.25-12.792 1.433-19.092l-36.679-.004a25 25 0 0 1-24.98-24.062c-.045-2.404.163-4.784.76-7.125l14.224-55.709a31.25 31.25 0 0 1 30.28-23.52h97.25a25 25 0 0 1 25 25v56.25a25 25 0 0 1-25 25h-12.5c-10.634 0-22.917 13.891-22.917 35.416 0 13.271-8.334 25.771-23.813 23.334zm11.321-24.729c.475-23 12.725-40.196 27.067-45.1V32.613H61.929a18.75 18.75 0 0 0-18.167 14.112l-14.22 55.708c-1.967 7.705 4.058 15.596 12.108 15.596h39.283c6.5.025 11.575 6.304 10.121 12.717-1.442 6.375-1.996 12.437-1.675 18.187.796 14.355 6.458 22.688 12.88 23.892 6.92.975 9.003-5.275 9.02-12.446zm39.567-46.516h8.333a12.5 12.5 0 0 0 12.5-12.5v-56.25a12.5 12.5 0 0 0-12.5-12.5h-8.333v81.25z"/></svg>