<svg width="200" height="200" xmlns="http://www.w3.org/2000/svg"><defs><style/></defs><path d="M99.217 189.23c-14.917-2.797-25.267-18.013-26.45-39.347a77.796 77.796 0 0 1 .45-13.491l.225-1.667-31.763-.004a29.167 29.167 0 0 1-29.15-28.167l-.017-1a29.167 29.167 0 0 1 .909-7.217L27.646 42.63a35.417 35.417 0 0 1 34.316-26.658h97.246a29.167 29.167 0 0 1 29.167 29.166v56.25a29.167 29.167 0 0 1-29.167 29.167h-12.5c-2.591 0-7.02 2.238-10.687 6.38-5.033 5.691-8.063 14.012-8.063 24.87l-.012 1.008c-.48 17.409-13.267 29.317-28.73 26.417zm7.908-27.426l.012-1.437c.471-23.246 12.309-41.255 27.071-47.884V36.804h-72.25A14.583 14.583 0 0 0 47.833 47.78L33.6 103.492a8.333 8.333 0 0 0 8.075 10.395h39.3a14.583 14.583 0 0 1 14.167 17.8l-.421 1.992c-1.042 5.275-1.421 10.292-1.158 15.046.7 12.612 5.195 19.22 9.487 20.03 2.196.408 4.07-1.384 4.07-6.95zm47.917-52.083h4.166a8.333 8.333 0 0 0 8.334-8.334v-56.25a8.333 8.333 0 0 0-8.334-8.333h-4.166v72.917z"/></svg>