<svg width="200" height="200" xmlns="http://www.w3.org/2000/svg"><defs><style/></defs><path d="M39.08 39.08a12.042 12.042 0 0 0-3.663 8.837v104.166c0 3.45 1.22 6.396 3.662 8.838a12.042 12.042 0 0 0 8.838 3.662h104.166a12.042 12.042 0 0 0 8.838-3.662 12.042 12.042 0 0 0 3.662-8.838v-35.416a6.25 6.25 0 0 1 12.5 0v35.416c0 6.905-2.441 12.796-7.32 17.68-4.888 4.879-10.776 7.32-17.68 7.32H47.917c-6.904 0-12.796-2.441-17.68-7.32-4.879-4.888-7.32-10.776-7.32-17.68V47.917c0-6.904 2.441-12.796 7.32-17.68 4.888-4.879 10.776-7.32 17.68-7.32h35.416a6.25 6.25 0 0 1 0 12.5H47.917a12.042 12.042 0 0 0-8.838 3.662zm127.587-16.163a10.417 10.417 0 0 1 10.416 10.416v45.834a6.25 6.25 0 0 1-6.25 6.25l-.604-.03a6.25 6.25 0 0 1-5.646-6.22V44.254l-56 56a6.25 6.25 0 0 1-8.833-8.841l55.992-55.996h-34.909a6.25 6.25 0 0 1 0-12.5h45.834z"/></svg>