<svg width="200" height="200" xmlns="http://www.w3.org/2000/svg"><defs><style/></defs><path d="M158.75 40.9A83.075 83.075 0 0 0 100 16.667c-46.025 0-83.333 37.308-83.333 83.333S53.975 183.333 100 183.333c22.17 0 42.983-8.708 58.467-23.958a6.25 6.25 0 1 0-8.767-8.904 70.575 70.575 0 0 1-49.7 20.362c-39.12 0-70.833-31.712-70.833-70.833S60.879 29.167 100 29.167c18.975 0 36.75 7.487 49.938 20.6a6.25 6.25 0 0 0 8.812-8.867zm-77.5 65.35h61.963v11.392a4.167 4.167 0 0 0 6.308 3.57l29.404-17.637a4.167 4.167 0 0 0 0-7.15l-29.4-17.637a4.167 4.167 0 0 0-6.313 3.57V93.75H81.25a6.25 6.25 0 0 0 0 12.5z" fill-rule="evenodd"/></svg>