<svg width="200" height="200" xmlns="http://www.w3.org/2000/svg"><defs><style/></defs><path d="M106.25 25.317c30.43 3.125 54.167 28.841 54.167 60.096v29.166c0 1.667.125 3.359.387 5.067l-12.887-12.896V85.417c0-26.413-21.375-47.834-47.767-47.917a6.313 6.313 0 0 1-.3 0 47.775 47.775 0 0 0-17.742 3.454l-9.433-9.437a60.02 60.02 0 0 1 21.075-6.2V18.75a6.25 6.25 0 0 1 12.5 0v6.567zm-47.658 16.1l8.841 8.845 85.225 85.225 20.096 20.096 8.75 8.75a6.25 6.25 0 0 1-8.842 8.834l-12.754-12.75H128.98c0 15.083-13.092 27.083-28.979 27.083s-28.975-12-28.975-27.083H36.029a10.417 10.417 0 0 1-8.233-16.792c7.937-10.283 11.787-19.95 11.787-29.042V85.417c0-12.834 4-24.73 10.817-34.513L35.167 35.671a6.252 6.252 0 1 1 8.841-8.842l14.584 14.588zm.825 18.508a47.692 47.692 0 0 0-7.334 25.488v29.166c0 10.659-3.779 21.417-11.166 32.242l-.759 1.092h107.25L59.417 59.924zm57.062 100.487H83.521c0 7.93 7.262 14.584 16.479 14.584 9.217 0 16.48-6.654 16.48-14.584z"/></svg>