<svg width="200" height="200" xmlns="http://www.w3.org/2000/svg"><defs><style/></defs><path d="M100 12.5a6.25 6.25 0 0 1 6.25 6.25v6.567c30.43 3.125 54.167 28.841 54.167 60.096v29.166c0 1.667.125 3.359.387 5.067L72.68 31.512a60.02 60.02 0 0 1 21.071-6.195V18.75A6.25 6.25 0 0 1 100 12.5zM35.167 26.833a6.25 6.25 0 0 1 8.833 0l128.75 128.75 8.75 8.75a6.25 6.25 0 0 1-8.833 8.834l-12.759-12.75H36.033a10.417 10.417 0 0 1-8.237-16.792c7.937-10.283 11.787-19.95 11.787-29.042V85.417c0-12.834 4-24.73 10.817-34.513L35.167 35.671a6.25 6.25 0 0 1 0-8.842zM122.429 170.5a6.642 6.642 0 0 1-.129 9.475c-6.1 5.833-13.5 8.75-22.208 8.75-8.838 0-16.321-2.992-22.442-8.975a6.638 6.638 0 0 1 4.675-11.392l35.417.18a6.65 6.65 0 0 1 4.687 1.966z"/></svg>