<svg width="200" height="200" xmlns="http://www.w3.org/2000/svg"><defs><style/></defs><path d="M183.333 100c0 10.596-1.95 20.82-5.85 30.675a82.475 82.475 0 0 1-18.558 28.25 82.475 82.475 0 0 1-28.25 18.558 82.604 82.604 0 0 1-30.675 5.85c-10.596 0-20.82-1.95-30.675-5.85a82.475 82.475 0 0 1-28.25-18.558 82.475 82.475 0 0 1-18.558-28.25A82.6 82.6 0 0 1 16.667 100c0-10.596 1.95-20.82 5.85-30.675a82.48 82.48 0 0 1 18.558-28.25 82.48 82.48 0 0 1 28.25-18.558A82.604 82.604 0 0 1 100 16.667c10.596 0 20.82 1.95 30.675 5.85a82.475 82.475 0 0 1 28.25 18.558 82.475 82.475 0 0 1 18.558 28.25 82.604 82.604 0 0 1 5.85 30.675zm-12.5 0c0-9.008-1.658-17.7-4.975-26.075a70.108 70.108 0 0 0-15.77-24.012 70.104 70.104 0 0 0-24.013-15.771A70.213 70.213 0 0 0 100 29.167c-9.008 0-17.7 1.658-26.075 4.975a70.104 70.104 0 0 0-24.013 15.77 70.104 70.104 0 0 0-15.77 24.013A70.213 70.213 0 0 0 29.167 100c0 9.008 1.658 17.7 4.975 26.075a70.104 70.104 0 0 0 15.77 24.012 70.108 70.108 0 0 0 24.013 15.771A70.217 70.217 0 0 0 100 170.833c9.008 0 17.7-1.658 26.075-4.975a70.108 70.108 0 0 0 24.012-15.77 70.108 70.108 0 0 0 15.771-24.013A70.217 70.217 0 0 0 170.833 100zM73.221 61.75A6.25 6.25 0 0 1 82 62.804l18 22.917 18-22.917a6.252 6.252 0 0 1 9.833 7.725L113.68 88.542h9.238a6.25 6.25 0 1 1 0 12.5H106.25v10.416h16.667a6.25 6.25 0 1 1 0 12.5H106.25v10.417a6.25 6.25 0 0 1-12.5 0v-10.417H77.083a6.25 6.25 0 1 1 0-12.5H93.75v-10.416H77.083a6.25 6.25 0 1 1 0-12.5h9.238L72.17 70.529a6.25 6.25 0 0 1 1.05-8.775z"/></svg>