<svg width="200" height="200" xmlns="http://www.w3.org/2000/svg"><defs><style/></defs><path d="M167.5 47.65l1.63 2.167 2.103-6.534a8.333 8.333 0 0 1 9.859-5.558l.625.175a8.333 8.333 0 0 1 5.383 10.483l-7.933 24.667c-2.375 7.375-12.659 7.8-15.63.638a68.858 68.858 0 0 0-14.925-22.3A68.5 68.5 0 0 0 100 31.25c-37.97 0-68.75 30.78-68.75 68.75s30.78 68.75 68.75 68.75a68.5 68.5 0 0 0 48.78-20.3 68.858 68.858 0 0 0 14.82-22.287 68.144 68.144 0 0 0 3.858-12.826 8.333 8.333 0 1 1 16.354 3.213 84.82 84.82 0 0 1-4.804 15.958 85.52 85.52 0 0 1-18.408 27.688 85.162 85.162 0 0 1-60.6 25.22c-47.175 0-85.417-38.241-85.417-85.416S52.825 14.583 100 14.583c22.958 0 44.487 9.109 60.4 25.017a85.896 85.896 0 0 1 7.096 8.05zM100 82.346l16.363-20.83a8.335 8.335 0 1 1 13.108 10.3l-11.513 14.642h4.959a8.333 8.333 0 1 1 0 16.667h-14.584v8.333h14.584a8.333 8.333 0 1 1 0 16.667h-14.584v8.333a8.333 8.333 0 1 1-16.666 0v-8.333H77.083a8.333 8.333 0 1 1 0-16.667h14.584v-8.333H77.083a8.333 8.333 0 1 1 0-16.667h4.954L70.53 71.817a8.335 8.335 0 1 1 13.108-10.3L100 82.346z"/></svg>