<svg width="200" height="200" xmlns="http://www.w3.org/2000/svg"><defs><style/></defs><path d="M181.25 52.083v95.834A27.083 27.083 0 0 1 154.167 175H45.833a27.083 27.083 0 0 1-27.083-27.083V52.083A27.083 27.083 0 0 1 45.833 25h108.334a27.083 27.083 0 0 1 27.083 27.083zm-16.667 12.5v-12.5a10.417 10.417 0 0 0-10.416-10.416H45.833a10.417 10.417 0 0 0-10.416 10.416v95.834a10.417 10.417 0 0 0 10.416 10.416h108.334a10.417 10.417 0 0 0 10.416-10.416v-12.5H125a35.417 35.417 0 0 1 0-70.834h39.583zm0 16.667H125a18.75 18.75 0 1 0 0 37.5h39.583v-37.5zM135.417 100a8.333 8.333 0 1 1-16.667 0 8.333 8.333 0 0 1 16.667 0z"/></svg>