<svg width="200" height="200" xmlns="http://www.w3.org/2000/svg"><defs><style/></defs><path d="M179.167 52.083v95.834a25 25 0 0 1-25 25H45.833a25 25 0 0 1-25-25V52.083a25 25 0 0 1 25-25h108.334a25 25 0 0 1 25 25zm-12.5 16.667V52.083a12.5 12.5 0 0 0-12.5-12.5H45.833a12.5 12.5 0 0 0-12.5 12.5v95.834a12.5 12.5 0 0 0 12.5 12.5h108.334a12.5 12.5 0 0 0 12.5-12.5V131.25h-43.75a31.25 31.25 0 0 1 0-62.5h43.75zm0 50v-37.5h-43.75a18.75 18.75 0 1 0 0 37.5h43.75zM135.417 100a8.333 8.333 0 1 1-16.667 0 8.333 8.333 0 0 1 16.667 0z"/></svg>