<svg width="200" height="200" xmlns="http://www.w3.org/2000/svg"><defs><style/></defs><path d="M82.325 170.425l35.417.18a6.642 6.642 0 0 1 4.558 11.437c-6.1 5.833-13.5 8.75-22.208 8.75-8.838 0-16.321-2.992-22.442-8.975a6.638 6.638 0 0 1 4.675-11.392zM106.25 25.317c30.43 3.125 54.167 28.841 54.167 60.096v29.166c0 9.096 3.846 18.763 11.783 29.042a10.42 10.42 0 0 1-8.237 16.791H36.029a10.417 10.417 0 0 1-8.233-16.791c7.937-10.275 11.787-19.942 11.787-29.038V85.417c0-31.254 23.738-56.971 54.167-60.096V18.75a6.25 6.25 0 0 1 12.5 0v6.567z"/></svg>