<svg width="200" height="200" xmlns="http://www.w3.org/2000/svg"><defs><style/></defs><path d="M87.5 20.833a12.5 12.5 0 0 1 25 0v1.209c29.683 5.82 52.083 31.983 52.083 63.375v25c0 8.091 3.504 16.896 10.913 26.491a14.588 14.588 0 0 1-11.538 23.509h-30.816c0 17.47-15.034 31.25-33.146 31.25-18.113 0-33.146-13.78-33.146-31.25H36.025a14.583 14.583 0 0 1-11.525-23.5c7.408-9.605 10.917-18.409 10.917-26.5v-25c0-31.392 22.396-57.555 52.083-63.375v-1.209zm.188 139.584c0 5.541 5.32 10.416 12.312 10.416 6.733 0 11.917-4.52 12.292-9.804l.02-.612H87.689zM100 41.667c-24.163 0-43.75 19.587-43.75 43.75v25c0 9.583-2.788 19.162-8.2 28.695l-.28.471h104.46l-.272-.466c-5.133-9.038-7.904-18.109-8.183-27.188l-.025-1.512v-25c0-24.163-19.583-43.75-43.75-43.75z"/></svg>