<svg width="200" height="200" xmlns="http://www.w3.org/2000/svg"><defs><style/></defs><path d="M183.333 52.083v95.834a29.167 29.167 0 0 1-29.166 29.166H45.833a29.167 29.167 0 0 1-29.166-29.166V52.083a29.167 29.167 0 0 1 29.166-29.166h108.334a29.167 29.167 0 0 1 29.166 29.166zm-137.5-8.333a8.333 8.333 0 0 0-8.333 8.333V62.5h125V52.083a8.333 8.333 0 0 0-8.333-8.333H45.833zM37.5 83.333v64.584a8.333 8.333 0 0 0 8.333 8.333h108.334a8.333 8.333 0 0 0 8.333-8.333V83.333h-125zm25 58.334a10.417 10.417 0 0 1 0-20.834h33.333a10.417 10.417 0 0 1 0 20.834H62.5z"/></svg>