<svg width="200" height="200" xmlns="http://www.w3.org/2000/svg"><defs><style/></defs><path d="M107.875 79.333l2.796.938a32.783 32.783 0 0 1 12.979 8.025c6.488 6.483 9.733 14.312 9.733 23.487 0 9.175-3.245 17.005-9.733 23.492l-32.487 32.492a41.217 41.217 0 0 1-13.792 9.15 41.33 41.33 0 0 1-15.675 3.05 41.33 41.33 0 0 1-15.675-3.05 41.22 41.22 0 0 1-13.788-9.154 41.22 41.22 0 0 1-9.15-13.784 41.333 41.333 0 0 1-3.05-15.679 41.333 41.333 0 0 1 3.05-15.675 41.217 41.217 0 0 1 9.15-13.787l10.313-10.313a6.252 6.252 0 0 1 8.842 8.842l-10.313 10.312c-5.696 5.696-8.542 12.567-8.542 20.625 0 8.05 2.846 14.925 8.542 20.625 5.696 5.692 12.57 8.542 20.625 8.542 8.05 0 14.925-2.85 20.625-8.542l32.488-32.496c4.045-4.041 6.07-8.929 6.07-14.65 0-5.72-2.025-10.604-6.07-14.65a20.446 20.446 0 0 0-8.096-5.004l-2.8-.933a6.25 6.25 0 1 1 3.958-11.858zm-15.742 41.325h-.004l-2.796-.933a32.775 32.775 0 0 1-12.987-8.025c-6.488-6.483-9.73-14.313-9.73-23.483 0-9.175 3.242-17 9.73-23.488l32.492-32.491a41.217 41.217 0 0 1 13.791-9.155 41.333 41.333 0 0 1 15.671-3.05 41.333 41.333 0 0 1 15.68 3.05 41.22 41.22 0 0 1 13.783 9.155 41.22 41.22 0 0 1 9.154 13.783 41.333 41.333 0 0 1 3.05 15.679 41.333 41.333 0 0 1-3.05 15.675 41.22 41.22 0 0 1-9.154 13.787l-10.309 10.309a6.25 6.25 0 0 1-8.841-8.834l10.312-10.316c5.696-5.692 8.542-12.567 8.542-20.625 0-8.05-2.846-14.925-8.542-20.625-5.696-5.692-12.57-8.542-20.625-8.542-8.054 0-14.93 2.85-20.625 8.542l-32.492 32.5c-4.041 4.042-6.066 8.925-6.066 14.646 0 5.72 2.025 10.6 6.066 14.646a20.442 20.442 0 0 0 8.1 5.004l2.792.933h.008a6.25 6.25 0 1 1-3.95 11.858z"/></svg>