<svg width="200" height="200" xmlns="http://www.w3.org/2000/svg"><defs><style/></defs><path d="M17.708 143.75V52.083c0-6.904 2.442-12.796 7.321-17.679 4.888-4.879 10.775-7.32 17.68-7.32h114.583c6.904 0 12.796 2.441 17.679 7.32 4.879 4.883 7.32 10.775 7.32 17.68v91.666c0 6.904-2.441 12.796-7.32 17.68-4.883 4.878-10.775 7.32-17.68 7.32H42.709c-6.904 0-12.796-2.442-17.679-7.32-4.879-4.888-7.32-10.776-7.32-17.68zm12.5 0c0 3.45 1.221 6.396 3.663 8.838a12.042 12.042 0 0 0 8.837 3.662h114.584a12.042 12.042 0 0 0 8.837-3.662 12.042 12.042 0 0 0 3.663-8.838V52.083a12.042 12.042 0 0 0-3.663-8.837 12.042 12.042 0 0 0-8.837-3.663H42.708a12.042 12.042 0 0 0-8.837 3.663 12.042 12.042 0 0 0-3.663 8.837v91.667zM56.25 62.5a8.333 8.333 0 1 1 0 16.667 8.333 8.333 0 0 1 0-16.667zm29.167 0a8.333 8.333 0 1 1 0 16.667 8.333 8.333 0 0 1 0-16.667zm29.166 0a8.333 8.333 0 1 1 0 16.667 8.333 8.333 0 0 1 0-16.667zm29.167 0a8.333 8.333 0 1 1 0 16.667 8.333 8.333 0 0 1 0-16.667zm-87.5 29.167a8.333 8.333 0 1 1 0 16.666 8.333 8.333 0 0 1 0-16.666zm29.167 0a8.333 8.333 0 1 1 0 16.666 8.333 8.333 0 0 1 0-16.666zm29.166 0a8.333 8.333 0 1 1 0 16.666 8.333 8.333 0 0 1 0-16.666zm29.167 0a8.333 8.333 0 1 1 0 16.666 8.333 8.333 0 0 1 0-16.666zM68.75 125h62.5a6.25 6.25 0 0 1 0 12.5h-62.5a6.25 6.25 0 0 1 0-12.5z"/></svg>