<svg width="200" height="200" xmlns="http://www.w3.org/2000/svg"><defs><style/></defs><path d="M108.6 11.737q2.542-2.925 6.275-3.487 3.363-.508 6.425 1.092 3.063 1.604 4.554 4.658 1.659 3.392.696 7.142l-13.112 51.091a4.167 4.167 0 0 0 4.041 5.2h30.625q5.125 0 9.288 2.796 3.866 2.6 5.846 6.888 1.975 4.283 1.441 8.912-.579 4.975-3.908 8.867L89.52 188.2q-2.542 2.97-6.304 3.55-3.384.52-6.467-1.1-3.08-1.625-4.567-4.704-1.65-3.425-.637-7.2l14.62-54.446a4.167 4.167 0 0 0-4.024-5.246H51.896q-5.146 0-9.313-2.812-3.875-2.617-5.845-6.925-1.967-4.309-1.405-8.95.609-4.988 3.98-8.875l69.287-79.75z" fill-rule="evenodd"/></svg>