<svg width="200" height="200" xmlns="http://www.w3.org/2000/svg"><defs><style/></defs><path d="M100 12.5c48.325 0 87.5 39.175 87.5 87.5s-39.175 87.5-87.5 87.5-87.5-39.175-87.5-87.5S51.675 12.5 100 12.5zm0 20.833c-36.82 0-66.667 29.846-66.667 66.667S63.18 166.667 100 166.667 166.667 136.82 166.667 100 136.82 33.333 100 33.333zM100 125a11.458 11.458 0 1 1 0 22.917A11.458 11.458 0 0 1 100 125zm.52-75c17.584 0 30.73 11.142 30.73 27.083 0 9.667-3.492 15.409-11.05 21.95l-.967.825-2.466 2.017c-3.95 3.225-5.542 5.02-6.284 7.425l-.146.53-.124.545a10.417 10.417 0 0 1-20.425-4.083c1.612-8.075 5.133-13.088 11.691-18.78l1.063-.904 2.525-2.07c.5-.409.958-.788 1.375-1.142l1.125-.988c2.35-2.15 2.85-3.312 2.85-5.325 0-3.604-3.125-6.25-9.896-6.25-5.663 0-9.167 2.667-10.804 7.292l-.242.746-.204.737a10.417 10.417 0 1 1-20.208-5.05C72.636 60.258 84.091 50 100.52 50z"/></svg>