<svg width="200" height="200" xmlns="http://www.w3.org/2000/svg"><defs><style/></defs><path d="M100 16.667c10.596 0 20.82 1.95 30.675 5.85a82.475 82.475 0 0 1 28.25 18.558 82.475 82.475 0 0 1 18.558 28.25 82.6 82.6 0 0 1 5.85 30.675c0 10.596-1.95 20.82-5.85 30.675a82.475 82.475 0 0 1-18.558 28.25 82.475 82.475 0 0 1-28.25 18.558 82.6 82.6 0 0 1-30.675 5.85c-10.596 0-20.82-1.95-30.675-5.85a82.475 82.475 0 0 1-28.25-18.558 82.475 82.475 0 0 1-18.558-28.25A82.6 82.6 0 0 1 16.667 100c0-10.596 1.95-20.82 5.85-30.675a82.475 82.475 0 0 1 18.558-28.25 82.475 82.475 0 0 1 28.25-18.558A82.604 82.604 0 0 1 100 16.667zm0 12.5a70.208 70.208 0 0 0-26.075 4.975 70.104 70.104 0 0 0-24.012 15.77 70.104 70.104 0 0 0-15.771 24.013A70.208 70.208 0 0 0 29.167 100c0 9.008 1.658 17.7 4.975 26.075a70.104 70.104 0 0 0 15.77 24.012 70.104 70.104 0 0 0 24.013 15.771A70.208 70.208 0 0 0 100 170.833a70.208 70.208 0 0 0 26.075-4.975 70.104 70.104 0 0 0 24.012-15.77 70.104 70.104 0 0 0 15.771-24.013A70.208 70.208 0 0 0 170.833 100a70.208 70.208 0 0 0-4.975-26.075 70.104 70.104 0 0 0-15.77-24.013 70.104 70.104 0 0 0-24.013-15.77A70.208 70.208 0 0 0 100 29.167zM100 125a8.333 8.333 0 1 1 0 16.667A8.333 8.333 0 0 1 100 125zm.52-70.833c7.672 0 13.967 2.083 18.884 6.25 5.121 4.341 7.68 9.896 7.68 16.666 0 4.888-1.43 9.2-4.292 12.93-1.542 2.012-4.175 4.445-7.896 7.3-2.93 2.241-4.917 4.008-5.959 5.291a12.542 12.542 0 0 0-2.737 6.504 6.25 6.25 0 1 1-12.4-1.55 24.804 24.804 0 0 1 5.446-12.854c1.662-2.041 4.342-4.475 8.046-7.312 2.85-2.184 4.708-3.846 5.583-4.984 1.137-1.487 1.708-3.262 1.708-5.325 0-2.908-1.083-5.287-3.258-7.125-2.588-2.195-6.192-3.291-10.804-3.291-4.304 0-7.8 1.204-10.492 3.612-2.333 2.092-3.937 4.867-4.8 8.321a6.25 6.25 0 0 1-12.125-3.033v-.004c1.483-5.934 4.346-10.796 8.583-14.592 5.071-4.538 11.346-6.804 18.838-6.804z"/></svg>