<svg width="200" height="200" xmlns="http://www.w3.org/2000/svg"><defs><style/></defs><path d="M100 16.667c46.025 0 83.333 37.308 83.333 83.333S146.025 183.333 100 183.333 16.667 146.025 16.667 100 53.975 16.667 100 16.667zM100 125a8.333 8.333 0 1 0 0 16.667A8.333 8.333 0 0 0 100 125zm.52-70.833c-14.39 0-24.278 8.854-27.416 21.4A6.25 6.25 0 1 0 85.23 78.6c1.821-7.287 7.013-11.933 15.292-11.933 8.933 0 14.062 4.346 14.062 10.416 0 3.875-1.387 5.767-6.687 9.842l-2.392 1.85c-7.183 5.708-10.67 10.504-11.708 18.783a6.25 6.25 0 1 0 12.404 1.55c.57-4.554 2.467-7 7.938-11.212l2.324-1.8c7.417-5.867 10.621-10.584 10.621-19.013 0-13.475-11.141-22.916-26.562-22.916z"/></svg>