<svg width="200" height="200" xmlns="http://www.w3.org/2000/svg"><defs><style/></defs><path d="M178.475 98.112c3.388 3.517 4.758 7.68 4.112 12.488a82.213 82.213 0 0 1-9.279 28.467 82.987 82.987 0 0 1-18.229 22.879 82.658 82.658 0 0 1-25.125 15.25A82.608 82.608 0 0 1 100 182.742c-11.3 0-22.112-2.184-32.438-6.55a82.667 82.667 0 0 1-26.487-17.855 82.667 82.667 0 0 1-17.858-26.487 82.438 82.438 0 0 1-6.55-32.442c0-10.37 1.85-20.35 5.546-29.95a82.658 82.658 0 0 1 15.25-25.125A82.975 82.975 0 0 1 60.346 26.1a82.22 82.22 0 0 1 28.467-9.28c4.808-.645 8.966.726 12.483 4.113 3.304 3.184 4.954 7.121 4.954 11.809v56.25c0 1.15.408 2.133 1.22 2.945a4.013 4.013 0 0 0 2.947 1.221h56.25c4.691 0 8.625 1.654 11.808 4.959zm-51.742-77.52a83.542 83.542 0 0 1 32 19.9c9.25 9.166 15.95 19.8 20.096 31.9a6.25 6.25 0 0 1-11.825 4.05c-3.512-10.25-9.204-19.275-17.07-27.067a71.2 71.2 0 0 0-27.271-16.967 6.25 6.25 0 1 1 4.07-11.816zm-32.983 68.4v-56.25c0-1.146-.375-2.084-1.125-2.805a2.483 2.483 0 0 0-2.15-.725A69.823 69.823 0 0 0 66.3 37.087a70.57 70.57 0 0 0-19.458 15.509 70.258 70.258 0 0 0-12.967 21.358 70.208 70.208 0 0 0-4.708 25.459c0 9.608 1.854 18.795 5.562 27.566a70.283 70.283 0 0 0 15.183 22.517 70.28 70.28 0 0 0 22.517 15.183c8.771 3.708 17.958 5.563 27.571 5.563a70.208 70.208 0 0 0 25.458-4.709 70.267 70.267 0 0 0 21.354-12.962 70.57 70.57 0 0 0 15.509-19.463 69.82 69.82 0 0 0 7.875-24.175 2.483 2.483 0 0 0-.721-2.146 3.725 3.725 0 0 0-2.808-1.125h-56.25a16.058 16.058 0 0 1-11.784-4.883 16.058 16.058 0 0 1-4.883-11.787z"/></svg>