<svg width="200" height="200" xmlns="http://www.w3.org/2000/svg"><defs><style/></defs><path d="M34.737 56.083L83.55 18.758a27.083 27.083 0 0 1 32.9 0l48.812 37.325a35.417 35.417 0 0 1 13.905 28.134v67.866a27.083 27.083 0 0 1-27.084 27.084H131.25a18.75 18.75 0 0 1-18.75-18.75v-27.084a12.5 12.5 0 0 0-25 0v27.084a18.75 18.75 0 0 1-18.75 18.75H47.917a27.083 27.083 0 0 1-27.084-27.084V84.217a35.417 35.417 0 0 1 13.905-28.134zm120.405 13.242l-48.817-37.33a10.417 10.417 0 0 0-12.658 0l-48.813 37.33A18.75 18.75 0 0 0 37.5 84.217v67.866A10.417 10.417 0 0 0 47.917 162.5H68.75a2.083 2.083 0 0 0 2.083-2.083v-27.084a29.167 29.167 0 0 1 58.334 0v27.084a2.083 2.083 0 0 0 2.083 2.083h20.833a10.417 10.417 0 0 0 10.417-10.417V84.217a18.75 18.75 0 0 0-7.363-14.892z"/></svg>