<svg width="200" height="200" xmlns="http://www.w3.org/2000/svg"><defs><style/></defs><path d="M36 57.737l48.813-37.32a25 25 0 0 1 30.375 0L164 57.742a33.333 33.333 0 0 1 13.083 26.479v67.862a25 25 0 0 1-25 25H131.25a16.667 16.667 0 0 1-16.667-16.666v-27.084a14.583 14.583 0 0 0-29.166 0v27.084a16.667 16.667 0 0 1-16.667 16.666H47.917a25 25 0 0 1-25-25V84.217A33.333 33.333 0 0 1 36 57.737zm120.404 9.93l-48.812-37.325a12.5 12.5 0 0 0-15.184 0L43.596 67.667a20.833 20.833 0 0 0-8.18 16.55v67.866a12.5 12.5 0 0 0 12.5 12.5H68.75a4.167 4.167 0 0 0 4.167-4.166v-27.084a27.083 27.083 0 0 1 54.166 0v27.084a4.167 4.167 0 0 0 4.167 4.166h20.833a12.5 12.5 0 0 0 12.5-12.5V84.217a20.833 20.833 0 0 0-8.179-16.55z"/></svg>