<svg width="200" height="200" xmlns="http://www.w3.org/2000/svg"><defs><style/></defs><path d="M58.333 62.5H29.167A4.167 4.167 0 0 1 25 58.333V29.167A4.167 4.167 0 0 1 29.167 25h29.166a4.167 4.167 0 0 1 4.167 4.167v29.166a4.167 4.167 0 0 1-4.167 4.167zm75 0h-29.166A4.167 4.167 0 0 1 100 58.333V29.167A4.167 4.167 0 0 1 104.167 25h29.166a4.167 4.167 0 0 1 4.167 4.167v29.166a4.167 4.167 0 0 1-4.167 4.167zm-37.5 37.5H66.667a4.167 4.167 0 0 1-4.167-4.167V66.667a4.167 4.167 0 0 1 4.167-4.167h29.166A4.167 4.167 0 0 1 100 66.667v29.166A4.167 4.167 0 0 1 95.833 100zm75 0h-29.166a4.167 4.167 0 0 1-4.167-4.167V66.667a4.167 4.167 0 0 1 4.167-4.167h29.166A4.167 4.167 0 0 1 175 66.667v29.166a4.167 4.167 0 0 1-4.167 4.167zm-112.5 37.5H29.167A4.167 4.167 0 0 1 25 133.333v-29.166A4.167 4.167 0 0 1 29.167 100h29.166a4.167 4.167 0 0 1 4.167 4.167v29.166a4.167 4.167 0 0 1-4.167 4.167zm75 0h-29.166a4.167 4.167 0 0 1-4.167-4.167v-29.166a4.167 4.167 0 0 1 4.167-4.167h29.166a4.167 4.167 0 0 1 4.167 4.167v29.166a4.167 4.167 0 0 1-4.167 4.167zm-37.5 37.5H66.667a4.167 4.167 0 0 1-4.167-4.167v-29.166a4.167 4.167 0 0 1 4.167-4.167h29.166a4.167 4.167 0 0 1 4.167 4.167v29.166A4.167 4.167 0 0 1 95.833 175zm75 0h-29.166a4.167 4.167 0 0 1-4.167-4.167v-29.166a4.167 4.167 0 0 1 4.167-4.167h29.166a4.167 4.167 0 0 1 4.167 4.167v29.166a4.167 4.167 0 0 1-4.167 4.167z"/></svg>