<svg width="200" height="200" xmlns="http://www.w3.org/2000/svg"><defs><style/></defs><path d="M24.75 28.917a6.25 6.25 0 0 1 8.833 0l20.65 20.645 12.434 12.434 56.1 56.1 8.846 8.842 11.883 11.883 8.837 8.842 18.75 18.75a6.25 6.25 0 0 1-8.833 8.841l-19.658-19.658A75.15 75.15 0 0 1 106.25 168.5v19a6.25 6.25 0 0 1-12.5 0v-19.004c-36.192-2.975-65.433-31.534-68.725-67.942a6.25 6.25 0 0 1 12.45-1.125c2.896 32.046 29.97 56.821 62.525 56.821 12.308 0 23.833-3.542 33.567-9.68l-12.242-12.24A45.63 45.63 0 0 1 100 139.582c-25.312 0-45.833-20.52-45.833-45.833V67.17L24.75 37.755a6.25 6.25 0 0 1 0-8.842zM100 6.25c25.313 0 45.833 20.52 45.833 45.833V93.75c0 6.863-1.508 13.37-4.208 19.212l-9.675-9.674a33.333 33.333 0 0 0 1.383-9.538V52.083A33.333 33.333 0 0 0 68.85 40.192l-9.43-9.434A45.83 45.83 0 0 1 100 6.25zm62.525 93.175a6.25 6.25 0 0 1 6.183-5.688l.604.026a6.25 6.25 0 0 1 5.663 6.783 74.346 74.346 0 0 1-11.78 33.987l-9.074-9.075a61.875 61.875 0 0 0 8.404-26.033zM100 127.083a33.25 33.25 0 0 0 11.892-2.183L66.667 79.667V93.75A33.333 33.333 0 0 0 100 127.083z"/></svg>