<svg width="200" height="200" xmlns="http://www.w3.org/2000/svg"><defs><style/></defs><path d="M148.958 51.042v39.583c0 27.042-21.916 48.958-48.958 48.958s-48.958-21.916-48.958-48.958V51.042C51.042 24 72.958 2.083 100 2.083S148.958 24 148.958 51.042zm-77.083 0v39.583a28.125 28.125 0 0 0 56.25 0V51.042a28.125 28.125 0 1 0-56.25 0zm89.067 47.604a10.417 10.417 0 1 1 20.658 2.687c-4.85 37.292-34.43 66.271-71.183 70.93V187.5a10.417 10.417 0 0 1-20.834 0v-15.238c-36.75-4.658-66.32-33.625-71.179-70.912a10.417 10.417 0 1 1 20.659-2.692c3.958 30.404 29.979 53.425 60.937 53.425s56.983-23.029 60.942-53.437z"/></svg>