<svg width="200" height="200" xmlns="http://www.w3.org/2000/svg"><defs><style/></defs><path d="M68.75 52.8l56.83 56.825 11.9 11.9 10.366 10.367 11.817 11.82 17.062 17.063a8.333 8.333 0 0 1-11.783 11.783l-17.509-17.508a78.912 78.912 0 0 1-39.1 15.346V187.5a8.333 8.333 0 0 1-16.666 0v-17.104c-36.492-3.83-65.967-32.533-70.292-69.425a8.334 8.334 0 0 1 16.554-1.942c3.667 31.292 30.292 55.138 62.071 55.138 13.13 0 25.375-4.071 35.492-11.054l-10.534-10.534A47.692 47.692 0 0 1 100 139.583c-26.462 0-47.917-21.454-47.917-47.916V59.7L27.442 35.058a8.333 8.333 0 1 1 11.783-11.783l14.908 14.904L68.75 52.8zm62.5 38.93V52.082a31.25 31.25 0 0 0-57.146-17.5L62.18 22.658A47.833 47.833 0 0 1 100 4.167c26.462 0 47.917 21.454 47.917 47.916v39.584c0 5.054-.784 9.92-2.234 14.496L131.25 91.729zm30.82 7.29a8.333 8.333 0 0 1 8.626-7.353l.625.05a8.333 8.333 0 0 1 7.304 9.246 78.667 78.667 0 0 1-9.25 28.887l-12.412-12.408a62.075 62.075 0 0 0 5.108-18.417zM100 122.918c4.5 0 8.775-.95 12.637-2.663L68.75 76.367v15.3a31.25 31.25 0 0 0 31.25 31.25z"/></svg>