<svg width="200" height="200" xmlns="http://www.w3.org/2000/svg"><defs><style/></defs><path d="M147.917 52.083v39.584c0 26.462-21.454 47.916-47.917 47.916S52.083 118.13 52.083 91.667V52.083c0-26.462 21.455-47.916 47.917-47.916s47.917 21.454 47.917 47.916zm-79.167 0v39.584a31.25 31.25 0 1 0 62.5 0V52.083a31.25 31.25 0 0 0-62.5 0zm102.567 39.634a8.333 8.333 0 0 1 7.308 9.245c-4.32 36.896-33.792 65.605-70.292 69.434V187.5a8.333 8.333 0 0 1-16.666 0v-17.104c-36.492-3.83-65.967-32.533-70.292-69.425a8.334 8.334 0 0 1 16.554-1.942c3.667 31.292 30.292 55.138 62.071 55.138 31.78 0 58.408-23.85 62.07-55.142a8.333 8.333 0 0 1 8.626-7.358l.625.05z"/></svg>