<svg width="200" height="200" xmlns="http://www.w3.org/2000/svg"><defs><style/></defs><path d="M109.146 22.804A14.425 14.425 0 0 1 100 26.042a14.43 14.43 0 0 1-9.15-3.246c-8.25-6.708-19.458-8.263-29.013-3.775a89.612 89.612 0 0 0-13.358 7.733c-8.525 5.988-12.47 16.342-10.792 26.804a14.25 14.25 0 0 1-1.737 9.463 14.242 14.242 0 0 1-7.304 6.229C18.762 73.033 11.77 81.588 10.8 91.933a86.283 86.283 0 0 0 0 16.134c.97 10.346 7.958 18.904 17.842 22.683a14.258 14.258 0 0 1 7.308 6.23 14.25 14.25 0 0 1 1.742 9.458c-1.684 10.47 2.262 20.82 10.783 26.804a89.662 89.662 0 0 0 13.362 7.741c9.555 4.484 20.763 2.925 29.017-3.783a14.425 14.425 0 0 1 9.146-3.238 14.417 14.417 0 0 1 9.146 3.242c8.254 6.708 19.462 8.267 29.016 3.783a89.625 89.625 0 0 0 13.359-7.737c8.525-5.988 12.47-16.338 10.791-26.8a14.27 14.27 0 0 1 1.738-9.467 14.25 14.25 0 0 1 7.308-6.229c9.884-3.783 16.871-12.337 17.842-22.683a84.93 84.93 0 0 0 0-16.146c-.97-10.333-7.958-18.888-17.833-22.667a14.258 14.258 0 0 1-7.317-6.233 14.27 14.27 0 0 1-1.738-9.463c1.68-10.462-2.266-20.816-10.787-26.8a89.633 89.633 0 0 0-13.363-7.741c-9.554-4.484-20.762-2.925-29.016 3.783zm21.933 11.304a73.327 73.327 0 0 1 10.875 6.3c3.096 2.175 4.604 6.13 3.9 10.509a30.93 30.93 0 0 0 3.763 20.441 30.9 30.9 0 0 0 14.566 12.967l1.225.5c4.154 1.583 6.842 4.88 7.2 8.67a68.354 68.354 0 0 1 0 13.005c-.358 3.804-3.046 7.096-7.208 8.688a30.908 30.908 0 0 0-15.783 13.458 30.93 30.93 0 0 0-3.763 20.45c.708 4.375-.804 8.333-3.904 10.508a72.97 72.97 0 0 1-10.867 6.292c-3.666 1.72-8.058 1.112-11.429-1.625A31.083 31.083 0 0 0 100 157.29a31.09 31.09 0 0 0-19.65 6.971c-3.375 2.742-7.767 3.35-11.43 1.634a73 73 0 0 1-10.874-6.3c-3.096-2.171-4.604-6.125-3.9-10.504a30.9 30.9 0 0 0-3.763-20.446 30.92 30.92 0 0 0-15.787-13.463c-4.158-1.591-6.846-4.883-7.204-8.675a69.658 69.658 0 0 1 0-13.016c.358-3.792 3.045-7.084 7.208-8.675a30.904 30.904 0 0 0 15.783-13.459 30.9 30.9 0 0 0 3.946-19.141l-.187-1.313c-.7-4.37.808-8.325 3.908-10.504a72.933 72.933 0 0 1 10.87-6.292c3.417-1.608 7.472-1.183 10.738 1.109l.688.516A31.096 31.096 0 0 0 100 42.713a31.083 31.083 0 0 0 18.604-6.159l1.05-.816c3.375-2.738 7.763-3.346 11.425-1.625zM133.333 100a33.333 33.333 0 1 1-66.666 0 33.333 33.333 0 0 1 66.666 0zm-16.666 0a16.667 16.667 0 1 0-33.334 0 16.667 16.667 0 0 0 33.334 0z"/></svg>