<svg width="200" height="200" xmlns="http://www.w3.org/2000/svg"><defs><style/></defs><path d="M107.833 21.188A12.343 12.343 0 0 1 100 23.962c-2.904 0-5.625-.984-7.833-2.78-8.867-7.2-20.925-8.875-31.217-4.041a91.7 91.7 0 0 0-13.667 7.912c-9.204 6.459-13.458 17.613-11.65 28.834a12.167 12.167 0 0 1-1.487 8.095 12.158 12.158 0 0 1-6.242 5.325C17.3 71.362 9.78 80.58 8.725 91.742a88.37 88.37 0 0 0 0 16.52C9.775 119.43 17.3 128.647 27.9 132.7a12.18 12.18 0 0 1 6.25 5.325 12.184 12.184 0 0 1 1.483 8.083c-1.804 11.234 2.446 22.388 11.646 28.842a91.708 91.708 0 0 0 13.675 7.92c10.288 4.834 22.35 3.16 31.217-4.05a12.342 12.342 0 0 1 7.829-2.774c2.904 0 5.625.987 7.833 2.779 8.867 7.204 20.925 8.875 31.213 4.046a91.675 91.675 0 0 0 13.666-7.917c9.209-6.458 13.459-17.612 11.655-28.833a12.188 12.188 0 0 1 1.487-8.096 12.167 12.167 0 0 1 6.25-5.325c10.596-4.058 18.121-13.27 19.171-24.433a86.92 86.92 0 0 0 0-16.542c-1.05-11.146-8.575-20.358-19.167-24.417a12.175 12.175 0 0 1-6.254-5.325 12.183 12.183 0 0 1-1.487-8.091c1.804-11.225-2.446-22.375-11.646-28.834a91.712 91.712 0 0 0-13.675-7.92c-10.288-4.834-22.35-3.155-31.217 4.05zm22.363 14.808a70.875 70.875 0 0 1 10.567 6.12c2.241 1.576 3.437 4.409 3.133 7.7l-.096.767a33.013 33.013 0 0 0 4.013 21.817 32.983 32.983 0 0 0 15.62 13.867l1.234.5c3.433 1.316 5.583 3.95 5.866 6.925a66.238 66.238 0 0 1 0 12.608c-.279 2.987-2.433 5.625-5.875 6.942a32.992 32.992 0 0 0-16.846 14.366 33 33 0 0 0-4.208 20.417l.196 1.4c.583 3.617-.625 6.77-3.046 8.475a71.287 71.287 0 0 1-10.558 6.112c-2.93 1.376-6.467.884-9.225-1.358A33.167 33.167 0 0 0 100 155.208a33.175 33.175 0 0 0-20.963 7.438c-2.766 2.246-6.304 2.737-9.229 1.362a70.875 70.875 0 0 1-10.57-6.12c-2.242-1.575-3.438-4.409-3.134-7.7l.096-.767a32.983 32.983 0 0 0-4.013-21.817 32.992 32.992 0 0 0-15.612-13.866l-1.233-.5c-3.446-1.317-5.596-3.955-5.875-6.925a67.575 67.575 0 0 1 0-12.625c.279-2.975 2.429-5.609 5.875-6.925a32.983 32.983 0 0 0 16.845-14.367A32.992 32.992 0 0 0 56.2 50.57c-.583-3.608.625-6.763 3.046-8.467a71.287 71.287 0 0 1 10.558-6.112c2.93-1.375 6.467-.884 9.225 1.358A33.18 33.18 0 0 0 100 44.796a33.18 33.18 0 0 0 20.97-7.442c2.76-2.241 6.297-2.733 9.222-1.358zm5.22 64.004a35.417 35.417 0 1 1-70.833 0 35.417 35.417 0 0 1 70.834 0zm-20.833 0a14.583 14.583 0 1 0-29.166 0 14.583 14.583 0 0 0 29.166 0z"/></svg>