<svg width="200" height="200" xmlns="http://www.w3.org/2000/svg"><defs><style/></defs><path d="M110.458 24.42A16.508 16.508 0 0 1 100 28.13a16.512 16.512 0 0 1-10.458-3.71c-7.646-6.212-18-7.65-26.817-3.512a87.53 87.53 0 0 0-13.05 7.559c-7.846 5.508-11.487 15.062-9.93 24.762a16.333 16.333 0 0 1-1.99 10.838 16.313 16.313 0 0 1-7.422 6.737l-.941.396c-9.171 3.508-15.625 11.408-16.517 20.933a84.192 84.192 0 0 0 0 15.742c.863 9.188 6.892 16.858 15.542 20.542l.97.391a16.342 16.342 0 0 1 8.367 7.134 16.347 16.347 0 0 1 1.992 10.833c-1.558 9.708 2.083 19.258 9.925 24.767a87.533 87.533 0 0 0 13.054 7.558c8.813 4.138 19.17 2.7 26.817-3.513A16.508 16.508 0 0 1 100 171.88a16.5 16.5 0 0 1 10.458 3.709c7.646 6.212 18 7.65 26.817 3.512a87.5 87.5 0 0 0 13.05-7.554c7.846-5.513 11.488-15.063 9.93-24.767a16.354 16.354 0 0 1 1.99-10.833 16.313 16.313 0 0 1 7.5-6.775l.868-.363c9.166-3.508 15.616-11.408 16.512-20.929a82.808 82.808 0 0 0 0-15.758c-.896-9.513-7.346-17.413-16.508-20.917a16.333 16.333 0 0 1-8.371-7.137 16.35 16.35 0 0 1-1.992-10.834c1.559-9.708-2.083-19.258-9.925-24.766a87.873 87.873 0 0 0-13.054-7.559c-8.813-4.137-19.17-2.7-26.817 3.513zm21.509 7.805c3.912 1.833 7.65 4 11.183 6.48 3.554 2.49 5.367 6.853 4.883 11.64l-.12.9a28.85 28.85 0 0 0 3.508 19.072 28.817 28.817 0 0 0 13.583 12.096l1.15.462c4.867 1.867 8.092 5.817 8.53 10.43a70.346 70.346 0 0 1 0 13.395c-.409 4.346-3.292 8.104-7.692 10.083l-.842.35a28.83 28.83 0 0 0-14.73 12.559 28.833 28.833 0 0 0-3.687 17.762l.18 1.308c.825 5.138-.988 9.896-4.767 12.55a74.983 74.983 0 0 1-11.18 6.471c-4.141 1.946-9.028 1.417-12.908-1.35l-.716-.541A29 29 0 0 0 100 159.375a29 29 0 0 0-17.358 5.746l-.98.758c-3.983 3.242-9.229 3.967-13.624 1.9a74.673 74.673 0 0 1-11.188-6.475c-3.554-2.496-5.367-6.854-4.88-11.641l.118-.905a28.82 28.82 0 0 0-3.509-19.07 28.833 28.833 0 0 0-14.725-12.559c-4.875-1.862-8.1-5.816-8.537-10.425a71.75 71.75 0 0 1 0-13.404c.408-4.342 3.291-8.096 7.696-10.08l.841-.35A28.82 28.82 0 0 0 48.58 70.314a28.817 28.817 0 0 0 3.688-17.767l-.18-1.308c-.824-5.134.988-9.888 4.767-12.542a75.008 75.008 0 0 1 11.18-6.475c4.141-1.942 9.029-1.417 12.908 1.354l.716.542A29.013 29.013 0 0 0 100 40.629a29 29 0 0 0 17.358-5.746l.984-.762c3.979-3.233 9.225-3.958 13.625-1.896zM131.25 100a31.25 31.25 0 1 1-62.5 0 31.25 31.25 0 0 1 62.5 0zm-12.5 0a18.75 18.75 0 1 0-37.5 0 18.75 18.75 0 0 0 37.5 0z"/></svg>